<?xml version="1.0" encoding="utf-8" standalone="no"?>
<!DOCTYPE svg PUBLIC "-//W3C//DTD SVG 1.1//EN"
  "http://www.w3.org/Graphics/SVG/1.1/DTD/svg11.dtd">
<svg xmlns:xlink="http://www.w3.org/1999/xlink" width="588.191562pt" height="434.703375pt" viewBox="0 0 588.191562 434.703375" xmlns="http://www.w3.org/2000/svg" version="1.1">
 <metadata>
  <rdf:RDF xmlns:dc="http://purl.org/dc/elements/1.1/" xmlns:cc="http://creativecommons.org/ns#" xmlns:rdf="http://www.w3.org/1999/02/22-rdf-syntax-ns#">
   <cc:Work>
    <dc:type rdf:resource="http://purl.org/dc/dcmitype/StillImage"/>
    <dc:date>2026-06-30T14:57:27.470578</dc:date>
    <dc:format>image/svg+xml</dc:format>
    <dc:creator>
     <cc:Agent>
      <dc:title>Matplotlib v3.10.9, https://matplotlib.org/</dc:title>
     </cc:Agent>
    </dc:creator>
   </cc:Work>
  </rdf:RDF>
 </metadata>
 <defs>
  <style type="text/css">*{stroke-linejoin: round; stroke-linecap: butt}</style>
 </defs>
 <g id="figure_1">
  <g id="patch_1">
   <path d="M 0 434.703375 
L 588.191562 434.703375 
L 588.191562 0 
L 0 0 
z
" style="fill: #fcfcfd"/>
  </g>
  <g id="axes_1">
   <g id="patch_2">
    <path d="M 78.791562 391.104 
L 580.991563 391.104 
L 580.991563 74.16 
L 78.791562 74.16 
z
" style="fill: #ffffff"/>
   </g>
   <g id="matplotlib.axis_1">
    <g id="xtick_1">
     <g id="line2d_1">
      <path d="M 78.791562 391.104 
L 78.791562 74.16 
" clip-path="url(#p46020bcbf0)" style="fill: none; stroke: #e6e8f0; stroke-width: 0.8; stroke-linecap: round"/>
     </g>
     <g id="text_1">
      <!-- 0% -->
      <g style="fill: #262626" transform="translate(71.162031 408.955406) scale(0.11 -0.11)">
       <defs>
        <path id="MalgunGothic-30" d="M 278 2206 
Q 278 3425 675 4050 
Q 1072 4675 1819 4675 
Q 3253 4675 3253 2319 
Q 3253 1156 2854 539 
Q 2456 -78 1716 -78 
Q 1016 -78 647 520 
Q 278 1119 278 2206 
z
M 784 2231 
Q 784 344 1769 344 
Q 2747 344 2747 2259 
Q 2747 4250 1794 4250 
Q 784 4250 784 2231 
z
" transform="scale(0.015625)"/>
        <path id="MalgunGothic-25" d="M 253 3444 
Q 253 3997 547 4331 
Q 841 4666 1353 4666 
Q 1847 4666 2115 4355 
Q 2384 4044 2384 3509 
Q 2384 2972 2082 2633 
Q 1781 2294 1288 2294 
Q 816 2294 534 2608 
Q 253 2922 253 3444 
z
M 666 3475 
Q 666 3091 841 2864 
Q 1016 2638 1322 2638 
Q 1631 2638 1803 2863 
Q 1975 3088 1975 3494 
Q 1975 3894 1804 4112 
Q 1634 4331 1334 4331 
Q 1022 4331 844 4098 
Q 666 3866 666 3475 
z
M 4350 4600 
L 1403 -34 
L 966 -34 
L 3909 4600 
L 4350 4600 
z
M 2988 1078 
Q 2988 1641 3284 1977 
Q 3581 2313 4081 2313 
Q 4569 2313 4841 2000 
Q 5113 1688 5113 1138 
Q 5113 600 4809 264 
Q 4506 -72 4019 -72 
Q 3550 -72 3269 245 
Q 2988 563 2988 1078 
z
M 3394 1103 
Q 3394 725 3570 498 
Q 3747 272 4050 272 
Q 4356 272 4529 501 
Q 4703 731 4703 1134 
Q 4703 1534 4534 1748 
Q 4366 1963 4066 1963 
Q 3753 1963 3573 1731 
Q 3394 1500 3394 1103 
z
" transform="scale(0.015625)"/>
       </defs>
       <use xlink:href="#MalgunGothic-30"/>
       <use xlink:href="#MalgunGothic-25" transform="translate(55.078125 0)"/>
      </g>
     </g>
    </g>
    <g id="xtick_2">
     <g id="line2d_2">
      <path d="M 145.751563 391.104 
L 145.751563 74.16 
" clip-path="url(#p46020bcbf0)" style="fill: none; stroke: #e6e8f0; stroke-width: 0.8; stroke-linecap: round"/>
     </g>
     <g id="text_2">
      <!-- 10% -->
      <g style="fill: #262626" transform="translate(135.092734 408.955406) scale(0.11 -0.11)">
       <defs>
        <path id="MalgunGothic-31" d="M 2231 0 
L 1734 0 
L 1734 3972 
Q 1591 3828 1266 3661 
Q 941 3494 672 3428 
L 672 3959 
Q 1016 4056 1409 4275 
Q 1803 4494 2031 4700 
L 2231 4700 
L 2231 0 
z
" transform="scale(0.015625)"/>
       </defs>
       <use xlink:href="#MalgunGothic-31"/>
       <use xlink:href="#MalgunGothic-30" transform="translate(55.078125 0)"/>
       <use xlink:href="#MalgunGothic-25" transform="translate(110.15625 0)"/>
      </g>
     </g>
    </g>
    <g id="xtick_3">
     <g id="line2d_3">
      <path d="M 212.711563 391.104 
L 212.711563 74.16 
" clip-path="url(#p46020bcbf0)" style="fill: none; stroke: #e6e8f0; stroke-width: 0.8; stroke-linecap: round"/>
     </g>
     <g id="text_3">
      <!-- 20% -->
      <g style="fill: #262626" transform="translate(202.052734 408.955406) scale(0.11 -0.11)">
       <defs>
        <path id="MalgunGothic-32" d="M 2519 3372 
Q 2519 3784 2275 4018 
Q 2031 4253 1628 4253 
Q 1341 4253 1053 4104 
Q 766 3956 534 3697 
L 534 4234 
Q 981 4675 1691 4675 
Q 2281 4675 2642 4334 
Q 3003 3994 3003 3416 
Q 3003 2919 2772 2545 
Q 2541 2172 1984 1775 
Q 1459 1406 1254 1215 
Q 1050 1025 967 854 
Q 884 684 884 450 
L 3116 450 
L 3116 0 
L 356 0 
L 356 225 
Q 356 603 461 870 
Q 566 1138 811 1392 
Q 1056 1647 1597 2022 
Q 2091 2363 2305 2670 
Q 2519 2978 2519 3372 
z
" transform="scale(0.015625)"/>
       </defs>
       <use xlink:href="#MalgunGothic-32"/>
       <use xlink:href="#MalgunGothic-30" transform="translate(55.078125 0)"/>
       <use xlink:href="#MalgunGothic-25" transform="translate(110.15625 0)"/>
      </g>
     </g>
    </g>
    <g id="xtick_4">
     <g id="line2d_4">
      <path d="M 279.671563 391.104 
L 279.671563 74.16 
" clip-path="url(#p46020bcbf0)" style="fill: none; stroke: #e6e8f0; stroke-width: 0.8; stroke-linecap: round"/>
     </g>
     <g id="text_4">
      <!-- 30% -->
      <g style="fill: #262626" transform="translate(269.012734 408.955406) scale(0.11 -0.11)">
       <defs>
        <path id="MalgunGothic-33" d="M 416 719 
Q 891 344 1478 344 
Q 1959 344 2254 587 
Q 2550 831 2550 1247 
Q 2550 2169 1253 2169 
L 872 2169 
L 872 2591 
L 1234 2591 
Q 2388 2591 2388 3453 
Q 2388 4250 1509 4250 
Q 1022 4250 594 3916 
L 594 4413 
Q 1031 4675 1634 4675 
Q 2184 4675 2539 4372 
Q 2894 4069 2894 3581 
Q 2894 2678 1972 2409 
L 1972 2400 
Q 2469 2356 2764 2053 
Q 3059 1750 3059 1300 
Q 3059 672 2604 297 
Q 2150 -78 1450 -78 
Q 806 -78 416 169 
L 416 719 
z
" transform="scale(0.015625)"/>
       </defs>
       <use xlink:href="#MalgunGothic-33"/>
       <use xlink:href="#MalgunGothic-30" transform="translate(55.078125 0)"/>
       <use xlink:href="#MalgunGothic-25" transform="translate(110.15625 0)"/>
      </g>
     </g>
    </g>
    <g id="xtick_5">
     <g id="line2d_5">
      <path d="M 346.631563 391.104 
L 346.631563 74.16 
" clip-path="url(#p46020bcbf0)" style="fill: none; stroke: #e6e8f0; stroke-width: 0.8; stroke-linecap: round"/>
     </g>
     <g id="text_5">
      <!-- 40% -->
      <g style="fill: #262626" transform="translate(335.972734 408.955406) scale(0.11 -0.11)">
       <defs>
        <path id="MalgunGothic-34" d="M 2703 4600 
L 2703 1563 
L 3309 1563 
L 3309 1113 
L 2703 1113 
L 2703 0 
L 2213 0 
L 2213 1113 
L 50 1113 
L 50 1534 
Q 728 2297 1295 3109 
Q 1863 3922 2172 4600 
L 2703 4600 
z
M 625 1563 
L 2213 1563 
L 2213 3831 
Q 1613 2788 959 1981 
L 625 1563 
z
" transform="scale(0.015625)"/>
       </defs>
       <use xlink:href="#MalgunGothic-34"/>
       <use xlink:href="#MalgunGothic-30" transform="translate(55.078125 0)"/>
       <use xlink:href="#MalgunGothic-25" transform="translate(110.15625 0)"/>
      </g>
     </g>
    </g>
    <g id="xtick_6">
     <g id="line2d_6">
      <path d="M 413.591563 391.104 
L 413.591563 74.16 
" clip-path="url(#p46020bcbf0)" style="fill: none; stroke: #e6e8f0; stroke-width: 0.8; stroke-linecap: round"/>
     </g>
     <g id="text_6">
      <!-- 50% -->
      <g style="fill: #262626" transform="translate(402.932734 408.955406) scale(0.11 -0.11)">
       <defs>
        <path id="MalgunGothic-35" d="M 3072 1403 
Q 3072 722 2636 322 
Q 2200 -78 1469 -78 
Q 828 -78 516 113 
L 516 650 
Q 994 344 1475 344 
Q 1969 344 2270 630 
Q 2572 916 2572 1372 
Q 2572 1838 2265 2092 
Q 1959 2347 1381 2347 
Q 994 2347 603 2300 
L 759 4600 
L 2869 4600 
L 2869 4147 
L 1206 4147 
L 1106 2763 
Q 1347 2784 1547 2784 
Q 2263 2784 2667 2414 
Q 3072 2044 3072 1403 
z
" transform="scale(0.015625)"/>
       </defs>
       <use xlink:href="#MalgunGothic-35"/>
       <use xlink:href="#MalgunGothic-30" transform="translate(55.078125 0)"/>
       <use xlink:href="#MalgunGothic-25" transform="translate(110.15625 0)"/>
      </g>
     </g>
    </g>
    <g id="xtick_7">
     <g id="line2d_7">
      <path d="M 480.551563 391.104 
L 480.551563 74.16 
" clip-path="url(#p46020bcbf0)" style="fill: none; stroke: #e6e8f0; stroke-width: 0.8; stroke-linecap: round"/>
     </g>
     <g id="text_7">
      <!-- 60% -->
      <g style="fill: #262626" transform="translate(469.892734 408.955406) scale(0.11 -0.11)">
       <defs>
        <path id="MalgunGothic-36" d="M 2981 4069 
Q 2619 4250 2228 4250 
Q 1591 4250 1228 3689 
Q 866 3128 869 2213 
L 884 2213 
Q 1203 2872 1938 2872 
Q 2547 2872 2903 2478 
Q 3259 2084 3259 1450 
Q 3259 797 2857 359 
Q 2456 -78 1825 -78 
Q 1116 -78 736 478 
Q 356 1034 356 2019 
Q 356 3181 847 3928 
Q 1338 4675 2222 4675 
Q 2700 4675 2981 4544 
L 2981 4069 
z
M 906 1506 
Q 906 1022 1165 683 
Q 1425 344 1844 344 
Q 2247 344 2498 645 
Q 2750 947 2750 1388 
Q 2750 1888 2509 2167 
Q 2269 2447 1838 2447 
Q 1444 2447 1175 2173 
Q 906 1900 906 1506 
z
" transform="scale(0.015625)"/>
       </defs>
       <use xlink:href="#MalgunGothic-36"/>
       <use xlink:href="#MalgunGothic-30" transform="translate(55.078125 0)"/>
       <use xlink:href="#MalgunGothic-25" transform="translate(110.15625 0)"/>
      </g>
     </g>
    </g>
    <g id="xtick_8">
     <g id="line2d_8">
      <path d="M 547.511563 391.104 
L 547.511563 74.16 
" clip-path="url(#p46020bcbf0)" style="fill: none; stroke: #e6e8f0; stroke-width: 0.8; stroke-linecap: round"/>
     </g>
     <g id="text_8">
      <!-- 70% -->
      <g style="fill: #262626" transform="translate(536.852734 408.955406) scale(0.11 -0.11)">
       <defs>
        <path id="MalgunGothic-37" d="M 3213 4297 
Q 2478 3006 2064 1918 
Q 1650 831 1550 0 
L 1009 0 
Q 1084 531 1290 1176 
Q 1497 1822 1815 2537 
Q 2134 3253 2631 4147 
L 291 4147 
L 291 4600 
L 3213 4600 
L 3213 4297 
z
" transform="scale(0.015625)"/>
       </defs>
       <use xlink:href="#MalgunGothic-37"/>
       <use xlink:href="#MalgunGothic-30" transform="translate(55.078125 0)"/>
       <use xlink:href="#MalgunGothic-25" transform="translate(110.15625 0)"/>
      </g>
     </g>
    </g>
    <g id="text_9">
     <!-- 평균 결측률 -->
     <g style="fill: #1f2430" transform="translate(297.782188 424.6665) scale(0.12 -0.12)">
      <defs>
       <path id="MalgunGothic-d3c9" d="M 3884 2994 
L 3884 3391 
L 4947 3391 
L 4947 3969 
L 3884 3969 
L 3884 4366 
L 4947 4366 
L 4947 5466 
L 5416 5466 
L 5416 1881 
L 4947 1881 
L 4947 2994 
L 3884 2994 
z
M 794 4750 
L 794 5159 
L 4056 5159 
L 4056 4750 
L 794 4750 
z
M 4306 2247 
Q 3913 2169 3231 2169 
L 647 2169 
L 647 2578 
L 1466 2578 
L 1394 4475 
L 1850 4475 
L 1906 2578 
L 2900 2578 
L 2956 4475 
L 3413 4475 
L 3334 2584 
Q 3897 2584 4275 2650 
L 4306 2247 
z
M 3547 -538 
Q 2594 -538 2081 -227 
Q 1569 84 1569 594 
Q 1569 1100 2076 1411 
Q 2584 1722 3547 1722 
Q 4506 1722 5017 1411 
Q 5528 1100 5528 594 
Q 5528 84 5012 -227 
Q 4497 -538 3547 -538 
z
M 3547 1325 
Q 2834 1325 2451 1128 
Q 2069 931 2069 594 
Q 2069 259 2453 62 
Q 2838 -134 3547 -134 
Q 4256 -134 4647 62 
Q 5038 259 5038 594 
Q 5038 931 4648 1128 
Q 4259 1325 3547 1325 
z
" transform="scale(0.015625)"/>
       <path id="MalgunGothic-ade0" d="M 2344 831 
L 2344 2497 
L 403 2497 
L 403 2919 
L 4569 2919 
Q 4622 3438 4622 4788 
L 1338 4788 
L 1338 5203 
L 5088 5203 
Q 5088 3647 5025 2919 
L 5997 2919 
L 5997 2497 
L 4366 2497 
L 4366 831 
L 3903 831 
L 3903 2497 
L 2803 2497 
L 2803 831 
L 2344 831 
z
M 1313 -300 
L 1313 1638 
L 1772 1638 
L 1772 116 
L 5209 116 
L 5209 -300 
L 1313 -300 
z
" transform="scale(0.015625)"/>
       <path id="MalgunGothic-20" transform="scale(0.015625)"/>
       <path id="MalgunGothic-acb0" d="M 3647 2931 
L 3647 3334 
L 4947 3334 
L 4947 4172 
L 3744 4172 
L 3744 4581 
L 4947 4581 
L 4947 5466 
L 5416 5466 
L 5416 2328 
L 4947 2328 
L 4947 2931 
L 3647 2931 
z
M 872 2053 
L 550 2425 
Q 1600 2778 2237 3404 
Q 2875 4031 3066 4800 
L 941 4800 
L 941 5209 
L 3609 5209 
Q 3503 4163 2790 3344 
Q 2078 2525 872 2053 
z
M 1722 -494 
L 1722 984 
L 4947 984 
L 4947 1600 
L 1722 1600 
L 1722 1997 
L 5416 1997 
L 5416 588 
L 2188 588 
L 2188 -91 
L 5581 -91 
L 5581 -494 
L 1722 -494 
z
" transform="scale(0.015625)"/>
       <path id="MalgunGothic-ce21" d="M 5466 3116 
Q 4794 3184 4103 3512 
Q 3413 3841 3206 4141 
Q 2972 3816 2308 3505 
Q 1644 3194 966 3122 
L 697 3547 
Q 1359 3547 2046 3836 
Q 2734 4125 2919 4538 
L 1056 4538 
L 1056 4953 
L 2969 4953 
L 2969 5516 
L 3444 5516 
L 3444 4953 
L 5344 4953 
L 5344 4538 
L 3481 4538 
Q 3669 4119 4353 3836 
Q 5038 3553 5703 3553 
L 5466 3116 
z
M 403 2156 
L 403 2572 
L 5997 2572 
L 5997 2156 
L 403 2156 
z
M 4609 -563 
L 4609 1075 
L 1197 1075 
L 1197 1491 
L 5075 1491 
L 5075 -563 
L 4609 -563 
z
" transform="scale(0.015625)"/>
       <path id="MalgunGothic-b960" d="M 1344 3150 
L 1344 4447 
L 4594 4447 
L 4594 4953 
L 1344 4953 
L 1344 5363 
L 5056 5363 
L 5056 4044 
L 1806 4044 
L 1806 3559 
L 5191 3559 
L 5191 3150 
L 1344 3150 
z
M 1325 -447 
L 1325 856 
L 4609 856 
L 4609 1313 
L 1325 1313 
L 1325 1722 
L 2003 1722 
L 2003 2259 
L 403 2259 
L 403 2663 
L 5997 2663 
L 5997 2259 
L 4397 2259 
L 4397 1722 
L 5069 1722 
L 5069 453 
L 1784 453 
L 1784 -38 
L 5203 -38 
L 5203 -447 
L 1325 -447 
z
M 3938 1722 
L 3938 2259 
L 2463 2259 
L 2463 1722 
L 3938 1722 
z
" transform="scale(0.015625)"/>
      </defs>
      <use xlink:href="#MalgunGothic-d3c9"/>
      <use xlink:href="#MalgunGothic-ade0" transform="translate(100 0)"/>
      <use xlink:href="#MalgunGothic-20" transform="translate(200 0)"/>
      <use xlink:href="#MalgunGothic-acb0" transform="translate(235.15625 0)"/>
      <use xlink:href="#MalgunGothic-ce21" transform="translate(335.15625 0)"/>
      <use xlink:href="#MalgunGothic-b960" transform="translate(435.15625 0)"/>
     </g>
    </g>
   </g>
   <g id="matplotlib.axis_2">
    <g id="ytick_1">
     <g id="line2d_9">
      <path d="M 78.791562 364.937009 
L 580.991563 364.937009 
" clip-path="url(#p46020bcbf0)" style="fill: none; stroke: #e6e8f0; stroke-width: 0.8; stroke-linecap: round"/>
     </g>
     <g id="text_10">
      <!-- Resting HR -->
      <g style="fill: #262626" transform="translate(14.234844 369.083494) scale(0.11 -0.11)">
       <defs>
        <path id="MalgunGothic-52" d="M 3866 0 
L 3259 0 
L 2488 1294 
Q 2241 1706 2044 1837 
Q 1847 1969 1569 1969 
L 1113 1969 
L 1113 0 
L 609 0 
L 609 4600 
L 1963 4600 
Q 2597 4600 2970 4272 
Q 3344 3944 3344 3375 
Q 3344 2422 2325 2138 
L 2325 2125 
Q 2519 2041 2645 1902 
Q 2772 1763 3006 1381 
L 3866 0 
z
M 1113 4128 
L 1113 2438 
L 1866 2438 
Q 2291 2438 2552 2686 
Q 2813 2934 2813 3334 
Q 2813 3709 2570 3918 
Q 2328 4128 1872 4128 
L 1113 4128 
z
" transform="scale(0.015625)"/>
        <path id="MalgunGothic-65" d="M 3156 1519 
L 828 1519 
Q 844 950 1133 648 
Q 1422 347 1909 347 
Q 2472 347 2934 719 
L 2934 244 
Q 2494 -78 1794 -78 
Q 1100 -78 708 376 
Q 316 831 316 1634 
Q 316 2381 747 2870 
Q 1178 3359 1816 3359 
Q 2453 3359 2804 2942 
Q 3156 2525 3156 1788 
L 3156 1519 
z
M 2644 1956 
Q 2644 2416 2423 2675 
Q 2203 2934 1809 2934 
Q 1438 2934 1169 2667 
Q 900 2400 834 1956 
L 2644 1956 
z
" transform="scale(0.015625)"/>
        <path id="MalgunGothic-73" d="M 331 669 
Q 763 350 1278 350 
Q 1978 350 1978 822 
Q 1978 1025 1825 1158 
Q 1672 1291 1222 1459 
Q 703 1666 520 1878 
Q 338 2091 338 2416 
Q 338 2834 700 3096 
Q 1063 3359 1584 3359 
Q 2003 3359 2341 3213 
L 2341 2697 
Q 1975 2934 1506 2934 
Q 1200 2934 1025 2798 
Q 850 2663 850 2459 
Q 850 2241 979 2125 
Q 1109 2009 1544 1838 
Q 2131 1609 2309 1390 
Q 2488 1172 2488 869 
Q 2488 431 2127 176 
Q 1766 -78 1203 -78 
Q 694 -78 331 122 
L 331 669 
z
" transform="scale(0.015625)"/>
        <path id="MalgunGothic-74" d="M 2031 31 
Q 1844 -72 1553 -72 
Q 706 -72 706 881 
L 706 2856 
L 138 2856 
L 138 3284 
L 706 3284 
L 706 4091 
L 1200 4250 
L 1200 3284 
L 2031 3284 
L 2031 2856 
L 1200 2856 
L 1200 972 
Q 1200 625 1315 487 
Q 1431 350 1691 350 
Q 1888 350 2031 459 
L 2031 31 
z
" transform="scale(0.015625)"/>
        <path id="MalgunGothic-69" d="M 472 4466 
Q 472 4606 565 4701 
Q 659 4797 794 4797 
Q 934 4797 1029 4700 
Q 1125 4603 1125 4466 
Q 1125 4325 1029 4231 
Q 934 4138 794 4138 
Q 659 4138 565 4230 
Q 472 4322 472 4466 
z
M 541 0 
L 541 3284 
L 1034 3284 
L 1034 0 
L 541 0 
z
" transform="scale(0.015625)"/>
        <path id="MalgunGothic-6e" d="M 3238 0 
L 2741 0 
L 2741 1875 
Q 2741 2941 1963 2941 
Q 1563 2941 1298 2639 
Q 1034 2338 1034 1872 
L 1034 0 
L 538 0 
L 538 3284 
L 1034 3284 
L 1034 2734 
L 1047 2734 
Q 1416 3359 2125 3359 
Q 2666 3359 2952 3012 
Q 3238 2666 3238 2006 
L 3238 0 
z
" transform="scale(0.015625)"/>
        <path id="MalgunGothic-67" d="M 3313 259 
Q 3313 -1547 1603 -1547 
Q 1003 -1547 538 -1313 
L 538 -806 
Q 1088 -1116 1600 -1116 
Q 2822 -1116 2822 194 
L 2822 559 
L 2809 559 
Q 2422 -78 1675 -78 
Q 1066 -78 691 362 
Q 316 803 316 1534 
Q 316 2375 722 2867 
Q 1128 3359 1816 3359 
Q 2484 3359 2809 2822 
L 2822 2822 
L 2822 3284 
L 3313 3284 
L 3313 259 
z
M 2822 1978 
Q 2822 2378 2547 2659 
Q 2272 2941 1878 2941 
Q 1384 2941 1101 2577 
Q 819 2213 819 1572 
Q 819 1016 1092 680 
Q 1366 344 1803 344 
Q 2247 344 2534 666 
Q 2822 988 2822 1478 
L 2822 1978 
z
" transform="scale(0.015625)"/>
        <path id="MalgunGothic-48" d="M 4028 0 
L 3525 0 
L 3525 2109 
L 1113 2109 
L 1113 0 
L 609 0 
L 609 4600 
L 1113 4600 
L 1113 2569 
L 3525 2569 
L 3525 4600 
L 4028 4600 
L 4028 0 
z
" transform="scale(0.015625)"/>
       </defs>
       <use xlink:href="#MalgunGothic-52"/>
       <use xlink:href="#MalgunGothic-65" transform="translate(57.986328 0)"/>
       <use xlink:href="#MalgunGothic-73" transform="translate(111.501953 0)"/>
       <use xlink:href="#MalgunGothic-74" transform="translate(154.8125 0)"/>
       <use xlink:href="#MalgunGothic-69" transform="translate(189.285156 0)"/>
       <use xlink:href="#MalgunGothic-6e" transform="translate(213.894531 0)"/>
       <use xlink:href="#MalgunGothic-67" transform="translate(271.707031 0)"/>
       <use xlink:href="#MalgunGothic-20" transform="translate(331.912109 0)"/>
       <use xlink:href="#MalgunGothic-48" transform="translate(367.068359 0)"/>
       <use xlink:href="#MalgunGothic-52" transform="translate(439.529297 0)"/>
      </g>
     </g>
    </g>
    <g id="ytick_2">
     <g id="line2d_10">
      <path d="M 78.791562 335.535896 
L 580.991563 335.535896 
" clip-path="url(#p46020bcbf0)" style="fill: none; stroke: #e6e8f0; stroke-width: 0.8; stroke-linecap: round"/>
     </g>
     <g id="text_11">
      <!-- Activity -->
      <g style="fill: #262626" transform="translate(33.074062 339.68238) scale(0.11 -0.11)">
       <defs>
        <path id="MalgunGothic-41" d="M 4134 0 
L 3575 0 
L 3075 1306 
L 1103 1306 
L 638 0 
L 75 0 
L 1844 4600 
L 2356 4600 
L 4134 0 
z
M 2903 1769 
L 2169 3756 
Q 2128 3866 2100 4059 
L 2084 4059 
Q 2050 3844 2009 3756 
L 1281 1769 
L 2903 1769 
z
" transform="scale(0.015625)"/>
        <path id="MalgunGothic-63" d="M 2763 153 
Q 2375 -78 1872 -78 
Q 1184 -78 750 372 
Q 316 822 316 1566 
Q 316 2381 777 2870 
Q 1238 3359 2009 3359 
Q 2434 3359 2766 3200 
L 2766 2681 
Q 2397 2941 1981 2941 
Q 1478 2941 1148 2577 
Q 819 2213 819 1609 
Q 819 1034 1120 689 
Q 1422 344 1947 344 
Q 2381 344 2763 631 
L 2763 153 
z
" transform="scale(0.015625)"/>
        <path id="MalgunGothic-76" d="M 3084 3284 
L 1769 0 
L 1294 0 
L 47 3284 
L 594 3284 
L 1441 872 
Q 1531 609 1556 425 
L 1572 425 
Q 1603 669 1672 863 
L 2563 3284 
L 3084 3284 
z
" transform="scale(0.015625)"/>
        <path id="MalgunGothic-79" d="M 3119 3284 
L 1597 -544 
Q 1197 -1547 481 -1547 
Q 313 -1547 156 -1509 
L 156 -1056 
Q 316 -1109 459 -1109 
Q 859 -1109 1059 -628 
L 1328 6 
L 47 3284 
L 597 3284 
L 1503 722 
Q 1513 697 1572 488 
L 1588 488 
L 1650 716 
L 2603 3284 
L 3119 3284 
z
" transform="scale(0.015625)"/>
       </defs>
       <use xlink:href="#MalgunGothic-41"/>
       <use xlink:href="#MalgunGothic-63" transform="translate(65.820312 0)"/>
       <use xlink:href="#MalgunGothic-74" transform="translate(113.085938 0)"/>
       <use xlink:href="#MalgunGothic-69" transform="translate(147.558594 0)"/>
       <use xlink:href="#MalgunGothic-76" transform="translate(172.167969 0)"/>
       <use xlink:href="#MalgunGothic-69" transform="translate(220.898438 0)"/>
       <use xlink:href="#MalgunGothic-74" transform="translate(245.507812 0)"/>
       <use xlink:href="#MalgunGothic-79" transform="translate(279.980469 0)"/>
      </g>
     </g>
    </g>
    <g id="ytick_3">
     <g id="line2d_11">
      <path d="M 78.791562 306.134783 
L 580.991563 306.134783 
" clip-path="url(#p46020bcbf0)" style="fill: none; stroke: #e6e8f0; stroke-width: 0.8; stroke-linecap: round"/>
     </g>
     <g id="text_12">
      <!-- Survey -->
      <g style="fill: #262626" transform="translate(35.990781 310.281267) scale(0.11 -0.11)">
       <defs>
        <path id="MalgunGothic-53" d="M 394 797 
Q 606 613 964 500 
Q 1322 388 1625 388 
Q 2628 388 2628 1116 
Q 2628 1325 2523 1484 
Q 2419 1644 2250 1756 
Q 2081 1869 1547 2144 
Q 903 2475 651 2754 
Q 400 3034 400 3456 
Q 400 4019 858 4347 
Q 1316 4675 1988 4675 
Q 2669 4675 2963 4513 
L 2963 3928 
Q 2563 4206 1922 4206 
Q 1484 4206 1207 4018 
Q 931 3831 931 3500 
Q 931 3200 1126 3011 
Q 1322 2822 1938 2522 
Q 2656 2163 2906 1844 
Q 3156 1525 3156 1153 
Q 3156 556 2725 239 
Q 2294 -78 1531 -78 
Q 1291 -78 927 -1 
Q 563 75 394 188 
L 394 797 
z
" transform="scale(0.015625)"/>
        <path id="MalgunGothic-75" d="M 3166 0 
L 2669 0 
L 2669 519 
L 2656 519 
Q 2331 -78 1644 -78 
Q 469 -78 469 1322 
L 469 3284 
L 959 3284 
L 959 1403 
Q 959 344 1766 344 
Q 2159 344 2414 636 
Q 2669 928 2669 1394 
L 2669 3284 
L 3166 3284 
L 3166 0 
z
" transform="scale(0.015625)"/>
        <path id="MalgunGothic-72" d="M 2225 2775 
Q 2084 2881 1828 2881 
Q 1491 2881 1262 2553 
Q 1034 2225 1034 1681 
L 1034 0 
L 538 0 
L 538 3284 
L 1034 3284 
L 1034 2603 
L 1047 2603 
Q 1159 2950 1389 3145 
Q 1619 3341 1903 3341 
Q 2109 3341 2225 3297 
L 2225 2775 
z
" transform="scale(0.015625)"/>
       </defs>
       <use xlink:href="#MalgunGothic-53"/>
       <use xlink:href="#MalgunGothic-75" transform="translate(54.296875 0)"/>
       <use xlink:href="#MalgunGothic-72" transform="translate(112.109375 0)"/>
       <use xlink:href="#MalgunGothic-76" transform="translate(151.835938 0)"/>
       <use xlink:href="#MalgunGothic-65" transform="translate(199.941406 0)"/>
       <use xlink:href="#MalgunGothic-79" transform="translate(253.457031 0)"/>
      </g>
     </g>
    </g>
    <g id="ytick_4">
     <g id="line2d_12">
      <path d="M 78.791562 276.73367 
L 580.991563 276.73367 
" clip-path="url(#p46020bcbf0)" style="fill: none; stroke: #e6e8f0; stroke-width: 0.8; stroke-linecap: round"/>
     </g>
     <g id="text_13">
      <!-- Temperature -->
      <g style="fill: #262626" transform="translate(7.2 280.909373) scale(0.11 -0.11)">
       <defs>
        <path id="MalgunGothic-54" d="M 3294 4134 
L 1966 4134 
L 1966 0 
L 1456 0 
L 1456 4134 
L 134 4134 
L 134 4600 
L 3294 4600 
L 3294 4134 
z
" transform="scale(0.015625)"/>
        <path id="MalgunGothic-6d" d="M 5166 0 
L 4669 0 
L 4669 1884 
Q 4669 2463 4495 2702 
Q 4322 2941 3922 2941 
Q 3584 2941 3342 2623 
Q 3100 2306 3100 1875 
L 3100 0 
L 2606 0 
L 2606 1953 
Q 2606 2941 1844 2941 
Q 1497 2941 1265 2642 
Q 1034 2344 1034 1875 
L 1034 0 
L 538 0 
L 538 3284 
L 1034 3284 
L 1034 2763 
L 1047 2763 
Q 1391 3359 2063 3359 
Q 2381 3359 2636 3176 
Q 2891 2994 2991 2675 
Q 3356 3359 4081 3359 
Q 5166 3359 5166 2022 
L 5166 0 
z
" transform="scale(0.015625)"/>
        <path id="MalgunGothic-70" d="M 1034 481 
L 1034 -1513 
L 538 -1513 
L 538 3284 
L 1034 3284 
L 1034 2703 
L 1047 2703 
Q 1438 3359 2184 3359 
Q 2809 3359 3171 2920 
Q 3534 2481 3534 1738 
Q 3534 906 3126 414 
Q 2719 -78 2034 -78 
Q 1394 -78 1047 481 
L 1034 481 
z
M 1034 1331 
Q 1034 922 1307 633 
Q 1581 344 1991 344 
Q 2475 344 2751 716 
Q 3028 1088 3028 1753 
Q 3028 2300 2767 2620 
Q 2506 2941 2072 2941 
Q 1619 2941 1326 2619 
Q 1034 2297 1034 1806 
L 1034 1331 
z
" transform="scale(0.015625)"/>
        <path id="MalgunGothic-61" d="M 616 3050 
Q 1097 3359 1722 3359 
Q 2866 3359 2866 2147 
L 2866 0 
L 2369 0 
L 2369 516 
L 2350 516 
Q 2009 -78 1341 -78 
Q 859 -78 576 180 
Q 294 438 294 869 
Q 294 1784 1375 1934 
L 2366 2078 
Q 2366 2934 1684 2934 
Q 1084 2934 616 2525 
L 616 3050 
z
M 1563 1559 
Q 1178 1509 993 1371 
Q 809 1234 809 903 
Q 809 653 986 500 
Q 1163 347 1450 347 
Q 1847 347 2106 628 
Q 2366 909 2366 1334 
L 2366 1666 
L 1563 1559 
z
" transform="scale(0.015625)"/>
       </defs>
       <use xlink:href="#MalgunGothic-54"/>
       <use xlink:href="#MalgunGothic-65" transform="translate(42.244141 0)"/>
       <use xlink:href="#MalgunGothic-6d" transform="translate(95.759766 0)"/>
       <use xlink:href="#MalgunGothic-70" transform="translate(183.748047 0)"/>
       <use xlink:href="#MalgunGothic-65" transform="translate(243.806641 0)"/>
       <use xlink:href="#MalgunGothic-72" transform="translate(297.322266 0)"/>
       <use xlink:href="#MalgunGothic-61" transform="translate(332.673828 0)"/>
       <use xlink:href="#MalgunGothic-74" transform="translate(384.675781 0)"/>
       <use xlink:href="#MalgunGothic-75" transform="translate(419.148438 0)"/>
       <use xlink:href="#MalgunGothic-72" transform="translate(476.960938 0)"/>
       <use xlink:href="#MalgunGothic-65" transform="translate(510.9375 0)"/>
      </g>
     </g>
    </g>
    <g id="ytick_5">
     <g id="line2d_13">
      <path d="M 78.791562 247.332557 
L 580.991563 247.332557 
" clip-path="url(#p46020bcbf0)" style="fill: none; stroke: #e6e8f0; stroke-width: 0.8; stroke-linecap: round"/>
     </g>
     <g id="text_14">
      <!-- HRV -->
      <g style="fill: #262626" transform="translate(47.635312 251.50826) scale(0.11 -0.11)">
       <defs>
        <path id="MalgunGothic-56" d="M 4000 4600 
L 2288 0 
L 1734 0 
L 59 4600 
L 625 4600 
L 1919 922 
Q 1978 750 2009 519 
L 2025 519 
Q 2050 713 2128 928 
L 3453 4600 
L 4000 4600 
z
" transform="scale(0.015625)"/>
       </defs>
       <use xlink:href="#MalgunGothic-48"/>
       <use xlink:href="#MalgunGothic-52" transform="translate(72.460938 0)"/>
       <use xlink:href="#MalgunGothic-56" transform="translate(133.447266 0)"/>
      </g>
     </g>
    </g>
    <g id="ytick_6">
     <g id="line2d_14">
      <path d="M 78.791562 217.931443 
L 580.991563 217.931443 
" clip-path="url(#p46020bcbf0)" style="fill: none; stroke: #e6e8f0; stroke-width: 0.8; stroke-linecap: round"/>
     </g>
     <g id="text_15">
      <!-- SEMA -->
      <g style="fill: #262626" transform="translate(40.303125 222.107147) scale(0.11 -0.11)">
       <defs>
        <path id="MalgunGothic-45" d="M 3025 0 
L 609 0 
L 609 4600 
L 2922 4600 
L 2922 4134 
L 1113 4134 
L 1113 2572 
L 2784 2572 
L 2784 2109 
L 1113 2109 
L 1113 463 
L 3025 463 
L 3025 0 
z
" transform="scale(0.015625)"/>
        <path id="MalgunGothic-4d" d="M 4756 0 
L 4756 3106 
Q 4756 3466 4803 3994 
L 4788 3994 
Q 4713 3684 4653 3559 
L 3050 0 
L 2822 0 
L 1222 3534 
Q 1159 3669 1091 3994 
L 1075 3994 
Q 1100 3822 1100 3116 
L 1100 0 
L 609 0 
L 609 4600 
L 1269 4600 
L 2706 1359 
Q 2881 966 2922 816 
L 2941 816 
Q 2988 944 3166 1375 
L 4638 4600 
L 5259 4600 
L 5259 0 
L 4756 0 
z
" transform="scale(0.015625)"/>
       </defs>
       <use xlink:href="#MalgunGothic-53"/>
       <use xlink:href="#MalgunGothic-45" transform="translate(54.296875 0)"/>
       <use xlink:href="#MalgunGothic-4d" transform="translate(106.005859 0)"/>
       <use xlink:href="#MalgunGothic-41" transform="translate(197.705078 0)"/>
      </g>
     </g>
    </g>
    <g id="ytick_7">
     <g id="line2d_15">
      <path d="M 78.791562 188.53033 
L 580.991563 188.53033 
" clip-path="url(#p46020bcbf0)" style="fill: none; stroke: #e6e8f0; stroke-width: 0.8; stroke-linecap: round"/>
     </g>
     <g id="text_16">
      <!-- Respiratory -->
      <g style="fill: #262626" transform="translate(13.26375 192.676815) scale(0.11 -0.11)">
       <defs>
        <path id="MalgunGothic-6f" d="M 316 1600 
Q 316 2419 761 2889 
Q 1206 3359 1978 3359 
Q 2697 3359 3111 2907 
Q 3525 2456 3525 1650 
Q 3525 869 3078 395 
Q 2631 -78 1900 -78 
Q 1184 -78 750 384 
Q 316 847 316 1600 
z
M 819 1622 
Q 819 1041 1123 692 
Q 1428 344 1934 344 
Q 2459 344 2739 680 
Q 3019 1016 3019 1634 
Q 3019 2256 2737 2598 
Q 2456 2941 1934 2941 
Q 1425 2941 1122 2587 
Q 819 2234 819 1622 
z
" transform="scale(0.015625)"/>
       </defs>
       <use xlink:href="#MalgunGothic-52"/>
       <use xlink:href="#MalgunGothic-65" transform="translate(57.986328 0)"/>
       <use xlink:href="#MalgunGothic-73" transform="translate(111.501953 0)"/>
       <use xlink:href="#MalgunGothic-70" transform="translate(154.8125 0)"/>
       <use xlink:href="#MalgunGothic-69" transform="translate(214.871094 0)"/>
       <use xlink:href="#MalgunGothic-72" transform="translate(239.480469 0)"/>
       <use xlink:href="#MalgunGothic-61" transform="translate(274.832031 0)"/>
       <use xlink:href="#MalgunGothic-74" transform="translate(326.833984 0)"/>
       <use xlink:href="#MalgunGothic-6f" transform="translate(360.431641 0)"/>
       <use xlink:href="#MalgunGothic-72" transform="translate(420.34375 0)"/>
       <use xlink:href="#MalgunGothic-79" transform="translate(460.070312 0)"/>
      </g>
     </g>
    </g>
    <g id="ytick_8">
     <g id="line2d_16">
      <path d="M 78.791562 159.129217 
L 580.991563 159.129217 
" clip-path="url(#p46020bcbf0)" style="fill: none; stroke: #e6e8f0; stroke-width: 0.8; stroke-linecap: round"/>
     </g>
     <g id="text_17">
      <!-- Sleep stage -->
      <g style="fill: #262626" transform="translate(11.579375 163.30492) scale(0.11 -0.11)">
       <defs>
        <path id="MalgunGothic-6c" d="M 541 0 
L 541 4859 
L 1034 4859 
L 1034 0 
L 541 0 
z
" transform="scale(0.015625)"/>
       </defs>
       <use xlink:href="#MalgunGothic-53"/>
       <use xlink:href="#MalgunGothic-6c" transform="translate(54.296875 0)"/>
       <use xlink:href="#MalgunGothic-65" transform="translate(78.90625 0)"/>
       <use xlink:href="#MalgunGothic-65" transform="translate(132.421875 0)"/>
       <use xlink:href="#MalgunGothic-70" transform="translate(185.9375 0)"/>
       <use xlink:href="#MalgunGothic-20" transform="translate(245.996094 0)"/>
       <use xlink:href="#MalgunGothic-73" transform="translate(281.152344 0)"/>
       <use xlink:href="#MalgunGothic-74" transform="translate(324.462891 0)"/>
       <use xlink:href="#MalgunGothic-61" transform="translate(358.935547 0)"/>
       <use xlink:href="#MalgunGothic-67" transform="translate(410.9375 0)"/>
       <use xlink:href="#MalgunGothic-65" transform="translate(471.142578 0)"/>
      </g>
     </g>
    </g>
    <g id="ytick_9">
     <g id="line2d_17">
      <path d="M 78.791562 129.728104 
L 580.991563 129.728104 
" clip-path="url(#p46020bcbf0)" style="fill: none; stroke: #e6e8f0; stroke-width: 0.8; stroke-linecap: round"/>
     </g>
     <g id="text_18">
      <!-- Stress -->
      <g style="fill: #262626" transform="translate(40.758594 133.903807) scale(0.11 -0.11)">
       <use xlink:href="#MalgunGothic-53"/>
       <use xlink:href="#MalgunGothic-74" transform="translate(50.796875 0)"/>
       <use xlink:href="#MalgunGothic-72" transform="translate(85.269531 0)"/>
       <use xlink:href="#MalgunGothic-65" transform="translate(119.246094 0)"/>
       <use xlink:href="#MalgunGothic-73" transform="translate(172.761719 0)"/>
       <use xlink:href="#MalgunGothic-73" transform="translate(216.072266 0)"/>
      </g>
     </g>
    </g>
    <g id="ytick_10">
     <g id="line2d_18">
      <path d="M 78.791562 100.326991 
L 580.991563 100.326991 
" clip-path="url(#p46020bcbf0)" style="fill: none; stroke: #e6e8f0; stroke-width: 0.8; stroke-linecap: round"/>
     </g>
     <g id="text_19">
      <!-- SpO2 -->
      <g style="fill: #262626" transform="translate(42.145625 104.502694) scale(0.11 -0.11)">
       <defs>
        <path id="MalgunGothic-4f" d="M 306 2244 
Q 306 3350 903 4012 
Q 1500 4675 2531 4675 
Q 3481 4675 4062 4029 
Q 4644 3384 4644 2359 
Q 4644 1256 4056 589 
Q 3469 -78 2456 -78 
Q 1488 -78 897 570 
Q 306 1219 306 2244 
z
M 838 2291 
Q 838 1456 1278 918 
Q 1719 381 2453 381 
Q 3238 381 3677 889 
Q 4116 1397 4116 2284 
Q 4116 3188 3692 3700 
Q 3269 4213 2494 4213 
Q 1741 4213 1289 3670 
Q 838 3128 838 2291 
z
" transform="scale(0.015625)"/>
       </defs>
       <use xlink:href="#MalgunGothic-53"/>
       <use xlink:href="#MalgunGothic-70" transform="translate(54.296875 0)"/>
       <use xlink:href="#MalgunGothic-4f" transform="translate(114.355469 0)"/>
       <use xlink:href="#MalgunGothic-32" transform="translate(191.699219 0)"/>
      </g>
     </g>
    </g>
   </g>
   <g id="patch_3">
    <path d="M 78.791562 376.697455 
L 78.791562 376.697455 
L 78.791562 353.176564 
L 78.791562 353.176564 
z
" clip-path="url(#p46020bcbf0)" style="fill: #f0986e; stroke: #804126; stroke-linejoin: miter"/>
   </g>
   <g id="patch_4">
    <path d="M 78.791562 347.296341 
L 79.528122 347.296341 
L 79.528122 323.775451 
L 78.791562 323.775451 
z
" clip-path="url(#p46020bcbf0)" style="fill: #f0986e; stroke: #804126; stroke-linejoin: miter"/>
   </g>
   <g id="patch_5">
    <path d="M 78.791562 317.895228 
L 93.857563 317.895228 
L 93.857563 294.374338 
L 78.791562 294.374338 
z
" clip-path="url(#p46020bcbf0)" style="fill: #f0986e; stroke: #804126; stroke-linejoin: miter"/>
   </g>
   <g id="patch_6">
    <path d="M 78.791562 288.494115 
L 128.944603 288.494115 
L 128.944603 264.973224 
L 78.791562 264.973224 
z
" clip-path="url(#p46020bcbf0)" style="fill: #f0986e; stroke: #804126; stroke-linejoin: miter"/>
   </g>
   <g id="patch_7">
    <path d="M 78.791562 259.093002 
L 280.408123 259.093002 
L 280.408123 235.572111 
L 78.791562 235.572111 
z
" clip-path="url(#p46020bcbf0)" style="fill: #f0986e; stroke: #804126; stroke-linejoin: miter"/>
   </g>
   <g id="patch_8">
    <path d="M 78.791562 229.691889 
L 296.746363 229.691889 
L 296.746363 206.170998 
L 78.791562 206.170998 
z
" clip-path="url(#p46020bcbf0)" style="fill: #f0986e; stroke: #804126; stroke-linejoin: miter"/>
   </g>
   <g id="patch_9">
    <path d="M 78.791562 200.290776 
L 330.895963 200.290776 
L 330.895963 176.769885 
L 78.791562 176.769885 
z
" clip-path="url(#p46020bcbf0)" style="fill: #f0986e; stroke: #804126; stroke-linejoin: miter"/>
   </g>
   <g id="patch_10">
    <path d="M 78.791562 170.889662 
L 370.938043 170.889662 
L 370.938043 147.368772 
L 78.791562 147.368772 
z
" clip-path="url(#p46020bcbf0)" style="fill: #f0986e; stroke: #804126; stroke-linejoin: miter"/>
   </g>
   <g id="patch_11">
    <path d="M 78.791562 141.488549 
L 396.717643 141.488549 
L 396.717643 117.967659 
L 78.791562 117.967659 
z
" clip-path="url(#p46020bcbf0)" style="fill: #f0986e; stroke: #804126; stroke-linejoin: miter"/>
   </g>
   <g id="patch_12">
    <path d="M 78.791562 112.087436 
L 516.442123 112.087436 
L 516.442123 88.566545 
L 78.791562 88.566545 
z
" clip-path="url(#p46020bcbf0)" style="fill: #f0986e; stroke: #804126; stroke-linejoin: miter"/>
   </g>
   <g id="patch_13">
    <path d="M 78.791562 391.104 
L 78.791562 74.16 
" style="fill: none; stroke: #d7dbe7; stroke-width: 1.25; stroke-linejoin: miter; stroke-linecap: square"/>
   </g>
   <g id="patch_14">
    <path d="M 78.791562 391.104 
L 580.991563 391.104 
" style="fill: none; stroke: #d7dbe7; stroke-width: 1.25; stroke-linejoin: miter; stroke-linecap: square"/>
   </g>
   <g id="text_20">
    <!-- 0.0% -->
    <g style="fill: #1f2430" transform="translate(85.487562 367.289666) scale(0.09 -0.09)">
     <defs>
      <path id="MalgunGothic-2e" d="M 356 275 
Q 356 422 459 523 
Q 563 625 700 625 
Q 838 625 941 523 
Q 1044 422 1044 275 
Q 1044 138 942 33 
Q 841 -72 700 -72 
Q 559 -72 457 29 
Q 356 131 356 275 
z
" transform="scale(0.015625)"/>
     </defs>
     <use xlink:href="#MalgunGothic-30"/>
     <use xlink:href="#MalgunGothic-2e" transform="translate(55.078125 0)"/>
     <use xlink:href="#MalgunGothic-30" transform="translate(76.953125 0)"/>
     <use xlink:href="#MalgunGothic-25" transform="translate(132.03125 0)"/>
    </g>
   </g>
   <g id="text_21">
    <!-- 0.1% -->
    <g style="fill: #1f2430" transform="translate(86.224122 337.888552) scale(0.09 -0.09)">
     <use xlink:href="#MalgunGothic-30"/>
     <use xlink:href="#MalgunGothic-2e" transform="translate(55.078125 0)"/>
     <use xlink:href="#MalgunGothic-31" transform="translate(76.953125 0)"/>
     <use xlink:href="#MalgunGothic-25" transform="translate(132.03125 0)"/>
    </g>
   </g>
   <g id="text_22">
    <!-- 2.2% -->
    <g style="fill: #1f2430" transform="translate(100.553562 308.487439) scale(0.09 -0.09)">
     <use xlink:href="#MalgunGothic-32"/>
     <use xlink:href="#MalgunGothic-2e" transform="translate(55.078125 0)"/>
     <use xlink:href="#MalgunGothic-32" transform="translate(76.953125 0)"/>
     <use xlink:href="#MalgunGothic-25" transform="translate(132.03125 0)"/>
    </g>
   </g>
   <g id="text_23">
    <!-- 7.5% -->
    <g style="fill: #1f2430" transform="translate(135.640602 279.086326) scale(0.09 -0.09)">
     <use xlink:href="#MalgunGothic-37"/>
     <use xlink:href="#MalgunGothic-2e" transform="translate(55.078125 0)"/>
     <use xlink:href="#MalgunGothic-35" transform="translate(76.953125 0)"/>
     <use xlink:href="#MalgunGothic-25" transform="translate(132.03125 0)"/>
    </g>
   </g>
   <g id="text_24">
    <!-- 30.1% -->
    <g style="fill: #1f2430" transform="translate(287.104123 249.685213) scale(0.09 -0.09)">
     <use xlink:href="#MalgunGothic-33"/>
     <use xlink:href="#MalgunGothic-30" transform="translate(55.078125 0)"/>
     <use xlink:href="#MalgunGothic-2e" transform="translate(110.15625 0)"/>
     <use xlink:href="#MalgunGothic-31" transform="translate(132.03125 0)"/>
     <use xlink:href="#MalgunGothic-25" transform="translate(187.109375 0)"/>
    </g>
   </g>
   <g id="text_25">
    <!-- 32.5% -->
    <g style="fill: #1f2430" transform="translate(303.442363 220.2841) scale(0.09 -0.09)">
     <use xlink:href="#MalgunGothic-33"/>
     <use xlink:href="#MalgunGothic-32" transform="translate(55.078125 0)"/>
     <use xlink:href="#MalgunGothic-2e" transform="translate(110.15625 0)"/>
     <use xlink:href="#MalgunGothic-35" transform="translate(132.03125 0)"/>
     <use xlink:href="#MalgunGothic-25" transform="translate(187.109375 0)"/>
    </g>
   </g>
   <g id="text_26">
    <!-- 37.6% -->
    <g style="fill: #1f2430" transform="translate(337.591963 190.882986) scale(0.09 -0.09)">
     <use xlink:href="#MalgunGothic-33"/>
     <use xlink:href="#MalgunGothic-37" transform="translate(55.078125 0)"/>
     <use xlink:href="#MalgunGothic-2e" transform="translate(110.15625 0)"/>
     <use xlink:href="#MalgunGothic-36" transform="translate(132.03125 0)"/>
     <use xlink:href="#MalgunGothic-25" transform="translate(187.109375 0)"/>
    </g>
   </g>
   <g id="text_27">
    <!-- 43.6% -->
    <g style="fill: #1f2430" transform="translate(377.634043 161.481873) scale(0.09 -0.09)">
     <use xlink:href="#MalgunGothic-34"/>
     <use xlink:href="#MalgunGothic-33" transform="translate(55.078125 0)"/>
     <use xlink:href="#MalgunGothic-2e" transform="translate(110.15625 0)"/>
     <use xlink:href="#MalgunGothic-36" transform="translate(132.03125 0)"/>
     <use xlink:href="#MalgunGothic-25" transform="translate(187.109375 0)"/>
    </g>
   </g>
   <g id="text_28">
    <!-- 47.5% -->
    <g style="fill: #1f2430" transform="translate(403.413643 132.08076) scale(0.09 -0.09)">
     <use xlink:href="#MalgunGothic-34"/>
     <use xlink:href="#MalgunGothic-37" transform="translate(55.078125 0)"/>
     <use xlink:href="#MalgunGothic-2e" transform="translate(110.15625 0)"/>
     <use xlink:href="#MalgunGothic-35" transform="translate(132.03125 0)"/>
     <use xlink:href="#MalgunGothic-25" transform="translate(187.109375 0)"/>
    </g>
   </g>
   <g id="text_29">
    <!-- 65.4% -->
    <g style="fill: #1f2430" transform="translate(523.138123 102.679647) scale(0.09 -0.09)">
     <use xlink:href="#MalgunGothic-36"/>
     <use xlink:href="#MalgunGothic-35" transform="translate(55.078125 0)"/>
     <use xlink:href="#MalgunGothic-2e" transform="translate(110.15625 0)"/>
     <use xlink:href="#MalgunGothic-34" transform="translate(132.03125 0)"/>
     <use xlink:href="#MalgunGothic-25" transform="translate(187.109375 0)"/>
    </g>
   </g>
  </g>
  <g id="text_30">
   <!-- SpO2·Stress·Sleep stage 계열은 결측률이 높았다 -->
   <g style="fill: #1f2430" transform="translate(78.791562 20.179688) scale(0.15 -0.15)">
    <defs>
     <path id="MalgunGothicBold-53" d="M 334 1091 
Q 881 638 1588 638 
Q 2013 638 2222 786 
Q 2431 934 2431 1175 
Q 2431 1384 2256 1559 
Q 2081 1734 1409 2022 
Q 838 2278 580 2598 
Q 322 2919 322 3350 
Q 322 3972 803 4323 
Q 1284 4675 2066 4675 
Q 2766 4675 3169 4500 
L 3169 3647 
Q 2722 3953 2091 3953 
Q 1719 3953 1489 3812 
Q 1259 3672 1259 3425 
Q 1259 3228 1418 3065 
Q 1578 2903 2166 2644 
Q 2841 2350 3103 2026 
Q 3366 1703 3366 1253 
Q 3366 603 2902 261 
Q 2438 -81 1600 -81 
Q 822 -81 334 178 
L 334 1091 
z
" transform="scale(0.015625)"/>
     <path id="MalgunGothicBold-70" d="M 1328 409 
L 1328 -1513 
L 456 -1513 
L 456 3284 
L 1328 3284 
L 1328 2766 
L 1338 2766 
Q 1719 3363 2419 3363 
Q 3041 3363 3398 2928 
Q 3756 2494 3756 1734 
Q 3756 916 3348 417 
Q 2941 -81 2269 -81 
Q 1663 -81 1338 409 
L 1328 409 
z
M 1316 1428 
Q 1316 1072 1522 836 
Q 1728 600 2050 600 
Q 2431 600 2647 897 
Q 2863 1194 2863 1731 
Q 2863 2684 2109 2684 
Q 1753 2684 1534 2418 
Q 1316 2153 1316 1750 
L 1316 1428 
z
" transform="scale(0.015625)"/>
     <path id="MalgunGothicBold-4f" d="M 256 2241 
Q 256 3325 879 4000 
Q 1503 4675 2538 4675 
Q 3519 4675 4117 4020 
Q 4716 3366 4716 2341 
Q 4716 1259 4098 589 
Q 3481 -81 2466 -81 
Q 1478 -81 867 572 
Q 256 1225 256 2241 
z
M 1194 2291 
Q 1194 1591 1539 1142 
Q 1884 694 2478 694 
Q 3094 694 3436 1120 
Q 3778 1547 3778 2278 
Q 3778 3031 3447 3465 
Q 3116 3900 2509 3900 
Q 1897 3900 1545 3445 
Q 1194 2991 1194 2291 
z
" transform="scale(0.015625)"/>
     <path id="MalgunGothicBold-32" d="M 1322 734 
L 3272 734 
L 3272 0 
L 400 0 
L 400 347 
Q 400 719 526 1033 
Q 653 1347 889 1620 
Q 1125 1894 1881 2459 
Q 2175 2678 2303 2878 
Q 2431 3078 2431 3325 
Q 2431 3631 2251 3801 
Q 2072 3972 1694 3972 
Q 1103 3972 559 3503 
L 559 4288 
Q 1116 4675 1819 4675 
Q 2531 4675 2920 4328 
Q 3309 3981 3309 3369 
Q 3309 3053 3207 2809 
Q 3106 2566 2939 2367 
Q 2772 2169 2555 1998 
Q 2338 1828 2109 1659 
Q 1688 1347 1505 1125 
Q 1322 903 1322 734 
z
" transform="scale(0.015625)"/>
     <path id="MalgunGothicBold-b7" d="M 828 1594 
Q 725 1594 631 1630 
Q 538 1666 466 1728 
Q 394 1791 351 1880 
Q 309 1969 309 2075 
Q 309 2184 353 2271 
Q 397 2359 470 2420 
Q 544 2481 641 2515 
Q 738 2550 841 2550 
Q 944 2550 1039 2515 
Q 1134 2481 1206 2420 
Q 1278 2359 1320 2271 
Q 1363 2184 1363 2075 
Q 1363 1963 1320 1873 
Q 1278 1784 1204 1721 
Q 1131 1659 1034 1626 
Q 938 1594 828 1594 
z
" transform="scale(0.015625)"/>
     <path id="MalgunGothicBold-74" d="M 2303 34 
Q 2081 -78 1684 -78 
Q 675 -78 675 991 
L 675 2622 
L 131 2622 
L 131 3284 
L 675 3284 
L 675 4019 
L 1544 4272 
L 1544 3284 
L 2303 3284 
L 2303 2622 
L 1544 2622 
L 1544 1144 
Q 1544 600 1972 600 
Q 2150 600 2303 700 
L 2303 34 
z
" transform="scale(0.015625)"/>
     <path id="MalgunGothicBold-72" d="M 2472 2481 
Q 2300 2584 2050 2584 
Q 1722 2584 1525 2317 
Q 1328 2050 1328 1600 
L 1328 0 
L 456 0 
L 456 3284 
L 1328 3284 
L 1328 2653 
L 1338 2653 
Q 1578 3341 2203 3341 
Q 2381 3341 2472 3297 
L 2472 2481 
z
" transform="scale(0.015625)"/>
     <path id="MalgunGothicBold-65" d="M 3316 1397 
L 1122 1397 
Q 1175 559 2072 559 
Q 2619 559 3047 847 
L 3047 184 
Q 2591 -81 1875 -81 
Q 1109 -81 682 362 
Q 256 806 256 1603 
Q 256 2384 714 2873 
Q 1172 3363 1859 3363 
Q 2547 3363 2931 2941 
Q 3316 2519 3316 1781 
L 3316 1397 
z
M 2494 1969 
Q 2494 2750 1850 2750 
Q 1581 2750 1376 2537 
Q 1172 2325 1122 1969 
L 2494 1969 
z
" transform="scale(0.015625)"/>
     <path id="MalgunGothicBold-73" d="M 347 844 
Q 834 538 1309 538 
Q 1922 538 1922 884 
Q 1922 1125 1438 1291 
Q 731 1528 540 1758 
Q 350 1988 350 2347 
Q 350 2822 737 3092 
Q 1125 3363 1734 3363 
Q 2159 3363 2584 3228 
L 2584 2519 
Q 2200 2747 1744 2747 
Q 1503 2747 1356 2656 
Q 1209 2566 1209 2416 
Q 1209 2169 1619 2025 
Q 2084 1856 2303 1742 
Q 2522 1628 2644 1431 
Q 2766 1234 2766 969 
Q 2766 469 2367 194 
Q 1969 -81 1316 -81 
Q 766 -81 347 94 
L 347 844 
z
" transform="scale(0.015625)"/>
     <path id="MalgunGothicBold-6c" d="M 444 0 
L 444 4859 
L 1313 4859 
L 1313 0 
L 444 0 
z
" transform="scale(0.015625)"/>
     <path id="MalgunGothicBold-20" transform="scale(0.015625)"/>
     <path id="MalgunGothicBold-61" d="M 534 3075 
Q 756 3203 1109 3283 
Q 1463 3363 1744 3363 
Q 3075 3363 3075 2013 
L 3075 0 
L 2244 0 
L 2244 484 
L 2228 484 
Q 1897 -81 1244 -81 
Q 769 -81 491 186 
Q 213 453 213 903 
Q 213 1844 1331 1994 
L 2247 2119 
Q 2247 2747 1634 2747 
Q 1050 2747 534 2381 
L 534 3075 
z
M 1594 1500 
Q 1031 1428 1031 997 
Q 1031 803 1165 681 
Q 1300 559 1528 559 
Q 1841 559 2044 779 
Q 2247 1000 2247 1334 
L 2247 1584 
L 1594 1500 
z
" transform="scale(0.015625)"/>
     <path id="MalgunGothicBold-67" d="M 3553 341 
Q 3553 -572 3050 -1058 
Q 2547 -1544 1591 -1544 
Q 941 -1544 534 -1341 
L 534 -584 
Q 1050 -881 1569 -881 
Q 2100 -881 2392 -598 
Q 2684 -316 2684 206 
L 2684 497 
L 2672 497 
Q 2316 -81 1619 -81 
Q 1006 -81 631 359 
Q 256 800 256 1547 
Q 256 2375 667 2869 
Q 1078 3363 1750 3363 
Q 2359 3363 2672 2881 
L 2684 2881 
L 2684 3284 
L 3553 3284 
L 3553 341 
z
M 2694 1875 
Q 2694 2209 2484 2446 
Q 2275 2684 1953 2684 
Q 1578 2684 1358 2393 
Q 1138 2103 1138 1581 
Q 1138 1131 1347 865 
Q 1556 600 1903 600 
Q 2256 600 2475 865 
Q 2694 1131 2694 1550 
L 2694 1875 
z
" transform="scale(0.015625)"/>
     <path id="MalgunGothicBold-acc4" d="M 4872 -563 
L 4872 5466 
L 5650 5466 
L 5650 -563 
L 4872 -563 
z
M 3122 4959 
Q 3063 4391 2975 4013 
L 3628 4013 
L 3628 5344 
L 4403 5344 
L 4403 -384 
L 3628 -384 
L 3628 1747 
L 2463 1747 
L 2463 2400 
L 3628 2400 
L 3628 3359 
L 2791 3359 
Q 2575 2675 2037 1919 
Q 1500 1163 1013 781 
L 353 1275 
Q 909 1597 1503 2431 
Q 2097 3266 2284 4306 
L 684 4306 
L 684 4959 
L 3122 4959 
z
" transform="scale(0.015625)"/>
     <path id="MalgunGothicBold-c5f4" d="M 3481 2969 
Q 3003 2363 2175 2363 
Q 1484 2363 1032 2800 
Q 581 3238 581 3878 
Q 581 4519 1032 4956 
Q 1484 5394 2175 5394 
Q 2997 5394 3469 4800 
L 4781 4800 
L 4781 5466 
L 5563 5466 
L 5563 2400 
L 4781 2400 
L 4781 2969 
L 3481 2969 
z
M 2175 4750 
Q 1803 4750 1579 4504 
Q 1356 4259 1356 3878 
Q 1356 3494 1576 3248 
Q 1797 3003 2175 3003 
Q 2544 3003 2773 3248 
Q 3003 3494 3003 3878 
Q 3003 4259 2773 4504 
Q 2544 4750 2175 4750 
z
M 3750 3572 
L 4781 3572 
L 4781 4200 
L 3750 4200 
Q 3781 4044 3781 3878 
Q 3781 3716 3750 3572 
z
M 1663 -466 
L 1663 1147 
L 4794 1147 
L 4794 1484 
L 1663 1484 
L 1663 2144 
L 5563 2144 
L 5563 544 
L 2438 544 
L 2438 191 
L 5716 191 
L 5716 -466 
L 1663 -466 
z
" transform="scale(0.015625)"/>
     <path id="MalgunGothicBold-c740" d="M 3200 2828 
Q 2244 2828 1705 3164 
Q 1166 3500 1166 4056 
Q 1166 4619 1716 4966 
Q 2266 5313 3200 5313 
Q 4134 5313 4684 4966 
Q 5234 4619 5234 4056 
Q 5234 3500 4692 3164 
Q 4150 2828 3200 2828 
z
M 3200 4672 
Q 2600 4672 2283 4505 
Q 1966 4338 1966 4056 
Q 1966 3778 2287 3623 
Q 2609 3469 3200 3469 
Q 3791 3469 4112 3623 
Q 4434 3778 4434 4056 
Q 4434 4338 4117 4505 
Q 3800 4672 3200 4672 
z
M 403 1716 
L 403 2375 
L 5997 2375 
L 5997 1716 
L 403 1716 
z
M 1222 -306 
L 1222 1381 
L 2009 1381 
L 2009 353 
L 5253 353 
L 5253 -306 
L 1222 -306 
z
" transform="scale(0.015625)"/>
     <path id="MalgunGothicBold-acb0" d="M 3469 2906 
L 3469 3513 
L 4794 3513 
L 4794 4063 
L 3634 4063 
L 3634 4672 
L 4794 4672 
L 4794 5466 
L 5563 5466 
L 5563 2438 
L 4794 2438 
L 4794 2906 
L 3469 2906 
z
M 972 2356 
L 469 2981 
Q 1063 3094 1750 3525 
Q 2438 3956 2753 4634 
L 838 4634 
L 838 5294 
L 3731 5294 
Q 3450 3253 972 2356 
z
M 1663 -481 
L 1663 1166 
L 4794 1166 
L 4794 1556 
L 1663 1556 
L 1663 2203 
L 5563 2203 
L 5563 575 
L 2438 575 
L 2438 166 
L 5716 166 
L 5716 -481 
L 1663 -481 
z
" transform="scale(0.015625)"/>
     <path id="MalgunGothicBold-ce21" d="M 5428 3022 
Q 4841 3063 4172 3314 
Q 3503 3566 3206 3872 
Q 2916 3566 2247 3311 
Q 1578 3056 947 3009 
L 538 3628 
Q 1234 3625 1842 3828 
Q 2450 4031 2694 4359 
L 1019 4359 
L 1019 5000 
L 2809 5000 
L 2809 5538 
L 3597 5538 
L 3597 5000 
L 5381 5000 
L 5381 4359 
L 3713 4359 
Q 3963 4038 4563 3836 
Q 5163 3634 5813 3634 
L 5428 3022 
z
M 403 1997 
L 403 2663 
L 5997 2663 
L 5997 1997 
L 403 1997 
z
M 4391 -563 
L 4391 856 
L 1147 856 
L 1147 1516 
L 5178 1516 
L 5178 -563 
L 4391 -563 
z
" transform="scale(0.015625)"/>
     <path id="MalgunGothicBold-b960" d="M 1247 3097 
L 1247 4531 
L 4378 4531 
L 4378 4831 
L 1247 4831 
L 1247 5422 
L 5159 5422 
L 5159 4006 
L 2028 4006 
L 2028 3688 
L 5294 3688 
L 5294 3097 
L 1247 3097 
z
M 1222 -494 
L 1222 966 
L 4397 966 
L 4397 1275 
L 1222 1275 
L 1222 1863 
L 1888 1863 
L 1888 2234 
L 403 2234 
L 403 2859 
L 5997 2859 
L 5997 2234 
L 4513 2234 
L 4513 1863 
L 5184 1863 
L 5184 416 
L 2003 416 
L 2003 97 
L 5306 97 
L 5306 -494 
L 1222 -494 
z
M 3738 1863 
L 3738 2234 
L 2663 2234 
L 2663 1863 
L 3738 1863 
z
" transform="scale(0.015625)"/>
     <path id="MalgunGothicBold-c774" d="M 4691 -563 
L 4691 5466 
L 5466 5466 
L 5466 -563 
L 4691 -563 
z
M 2203 903 
Q 1484 903 1050 1468 
Q 616 2034 616 2994 
Q 616 3969 1048 4525 
Q 1481 5081 2203 5081 
Q 2922 5081 3351 4520 
Q 3781 3959 3781 2994 
Q 3781 2025 3353 1464 
Q 2925 903 2203 903 
z
M 2203 4416 
Q 1844 4416 1612 4031 
Q 1381 3647 1381 2988 
Q 1381 2338 1618 1950 
Q 1856 1563 2203 1563 
Q 2547 1563 2784 1945 
Q 3022 2328 3022 2988 
Q 3022 3647 2792 4031 
Q 2563 4416 2203 4416 
z
" transform="scale(0.015625)"/>
     <path id="MalgunGothicBold-b192" d="M 403 2253 
L 403 2919 
L 2803 2919 
L 2803 3481 
L 1253 3481 
L 1253 5338 
L 2041 5338 
L 2041 4147 
L 5228 4147 
L 5228 3481 
L 3591 3481 
L 3591 2919 
L 5997 2919 
L 5997 2253 
L 403 2253 
z
M 1050 -428 
L 1050 225 
L 1881 225 
L 1881 1113 
L 1119 1113 
L 1119 1766 
L 5275 1766 
L 5275 1113 
L 4525 1113 
L 4525 225 
L 5344 225 
L 5344 -428 
L 1050 -428 
z
M 3750 1113 
L 2656 1113 
L 2656 225 
L 3750 225 
L 3750 1113 
z
" transform="scale(0.015625)"/>
     <path id="MalgunGothicBold-c558" d="M 5253 3334 
L 5253 2131 
L 4475 2131 
L 4475 5466 
L 5253 5466 
L 5253 3994 
L 6175 3994 
L 6175 3334 
L 5253 3334 
z
M 2209 2272 
Q 1503 2272 1053 2701 
Q 603 3131 603 3781 
Q 603 4434 1050 4864 
Q 1497 5294 2209 5294 
Q 2919 5294 3367 4866 
Q 3816 4438 3816 3781 
Q 3816 3128 3364 2700 
Q 2913 2272 2209 2272 
z
M 2209 4653 
Q 1831 4653 1609 4408 
Q 1388 4163 1388 3781 
Q 1388 3397 1611 3155 
Q 1834 2913 2209 2913 
Q 2581 2913 2807 3156 
Q 3034 3400 3034 3781 
Q 3034 4159 2809 4406 
Q 2584 4653 2209 4653 
z
M 5478 -531 
Q 4847 -206 4434 391 
Q 4328 172 4004 -129 
Q 3681 -431 3391 -588 
L 2828 -78 
Q 4044 481 4044 1556 
L 4044 1875 
L 4819 1875 
L 4819 1556 
Q 4819 1041 5147 625 
Q 5475 209 6034 13 
L 5478 -531 
z
M 2725 38 
Q 2469 222 2259 519 
Q 2128 256 1803 -72 
Q 1478 -400 1184 -556 
L 634 -72 
Q 1188 178 1509 611 
Q 1831 1044 1831 1556 
L 1831 1869 
L 2597 1869 
L 2597 1556 
Q 2597 1263 2822 963 
Q 3047 663 3366 538 
L 2725 38 
z
" transform="scale(0.015625)"/>
     <path id="MalgunGothicBold-b2e4" d="M 5197 2522 
L 5197 -563 
L 4416 -563 
L 4416 5466 
L 5197 5466 
L 5197 3181 
L 6203 3181 
L 6203 2522 
L 5197 2522 
z
M 3969 1197 
Q 3269 1100 1619 1100 
L 709 1100 
L 709 4953 
L 3584 4953 
L 3584 4294 
L 1491 4294 
L 1491 1753 
L 1794 1753 
Q 3253 1753 3897 1844 
L 3969 1197 
z
" transform="scale(0.015625)"/>
    </defs>
    <use xlink:href="#MalgunGothicBold-53"/>
    <use xlink:href="#MalgunGothicBold-70" transform="translate(56.591797 0)"/>
    <use xlink:href="#MalgunGothicBold-4f" transform="translate(119.238281 0)"/>
    <use xlink:href="#MalgunGothicBold-32" transform="translate(196.875 0)"/>
    <use xlink:href="#MalgunGothicBold-b7" transform="translate(254.833984 0)"/>
    <use xlink:href="#MalgunGothicBold-53" transform="translate(281.005859 0)"/>
    <use xlink:href="#MalgunGothicBold-74" transform="translate(334.847656 0)"/>
    <use xlink:href="#MalgunGothicBold-72" transform="translate(373.275391 0)"/>
    <use xlink:href="#MalgunGothicBold-65" transform="translate(412.130859 0)"/>
    <use xlink:href="#MalgunGothicBold-73" transform="translate(467.111328 0)"/>
    <use xlink:href="#MalgunGothicBold-73" transform="translate(513.302734 0)"/>
    <use xlink:href="#MalgunGothicBold-b7" transform="translate(559.494141 0)"/>
    <use xlink:href="#MalgunGothicBold-53" transform="translate(585.666016 0)"/>
    <use xlink:href="#MalgunGothicBold-6c" transform="translate(642.257812 0)"/>
    <use xlink:href="#MalgunGothicBold-65" transform="translate(669.699219 0)"/>
    <use xlink:href="#MalgunGothicBold-65" transform="translate(724.679688 0)"/>
    <use xlink:href="#MalgunGothicBold-70" transform="translate(779.660156 0)"/>
    <use xlink:href="#MalgunGothicBold-20" transform="translate(842.306641 0)"/>
    <use xlink:href="#MalgunGothicBold-73" transform="translate(877.462891 0)"/>
    <use xlink:href="#MalgunGothicBold-74" transform="translate(923.654297 0)"/>
    <use xlink:href="#MalgunGothicBold-61" transform="translate(962.082031 0)"/>
    <use xlink:href="#MalgunGothicBold-67" transform="translate(1016.378906 0)"/>
    <use xlink:href="#MalgunGothicBold-65" transform="translate(1078.976562 0)"/>
    <use xlink:href="#MalgunGothicBold-20" transform="translate(1133.957031 0)"/>
    <use xlink:href="#MalgunGothicBold-acc4" transform="translate(1169.113281 0)"/>
    <use xlink:href="#MalgunGothicBold-c5f4" transform="translate(1269.113281 0)"/>
    <use xlink:href="#MalgunGothicBold-c740" transform="translate(1369.113281 0)"/>
    <use xlink:href="#MalgunGothicBold-20" transform="translate(1469.113281 0)"/>
    <use xlink:href="#MalgunGothicBold-acb0" transform="translate(1504.269531 0)"/>
    <use xlink:href="#MalgunGothicBold-ce21" transform="translate(1604.269531 0)"/>
    <use xlink:href="#MalgunGothicBold-b960" transform="translate(1704.269531 0)"/>
    <use xlink:href="#MalgunGothicBold-c774" transform="translate(1804.269531 0)"/>
    <use xlink:href="#MalgunGothicBold-20" transform="translate(1904.269531 0)"/>
    <use xlink:href="#MalgunGothicBold-b192" transform="translate(1939.425781 0)"/>
    <use xlink:href="#MalgunGothicBold-c558" transform="translate(2039.425781 0)"/>
    <use xlink:href="#MalgunGothicBold-b2e4" transform="translate(2139.425781 0)"/>
   </g>
  </g>
  <g id="text_31">
   <!-- Final dataset EDA의 feature family별 평균 결측률. Activity와 Resting HR은 거의 완전하게 관측됐다. -->
   <g style="fill: #6f768a" transform="translate(78.791562 42.60275) scale(0.1 -0.1)">
    <defs>
     <path id="MalgunGothic-46" d="M 2922 4134 
L 1113 4134 
L 1113 2516 
L 2788 2516 
L 2788 2050 
L 1113 2050 
L 1113 0 
L 609 0 
L 609 4600 
L 2922 4600 
L 2922 4134 
z
" transform="scale(0.015625)"/>
     <path id="MalgunGothic-64" d="M 3313 0 
L 2822 0 
L 2822 566 
L 2809 566 
Q 2444 -78 1675 -78 
Q 1056 -78 686 364 
Q 316 806 316 1566 
Q 316 2375 728 2867 
Q 1141 3359 1816 3359 
Q 2494 3359 2809 2822 
L 2822 2822 
L 2822 4859 
L 3313 4859 
L 3313 0 
z
M 2822 1978 
Q 2822 2378 2550 2659 
Q 2278 2941 1872 2941 
Q 1384 2941 1101 2577 
Q 819 2213 819 1591 
Q 819 1025 1086 684 
Q 1353 344 1813 344 
Q 2250 344 2536 666 
Q 2822 988 2822 1478 
L 2822 1978 
z
" transform="scale(0.015625)"/>
     <path id="MalgunGothic-44" d="M 609 0 
L 609 4600 
L 1856 4600 
Q 4281 4600 4281 2356 
Q 4281 1288 3587 644 
Q 2894 0 1800 0 
L 609 0 
z
M 1113 4134 
L 1113 463 
L 1813 463 
Q 2734 463 3243 958 
Q 3753 1453 3753 2344 
Q 3753 4134 1844 4134 
L 1113 4134 
z
" transform="scale(0.015625)"/>
     <path id="MalgunGothic-c758" d="M 5013 -563 
L 5013 5466 
L 5478 5466 
L 5478 -563 
L 5013 -563 
z
M 2450 2131 
Q 1775 2131 1315 2540 
Q 856 2950 856 3572 
Q 856 4181 1312 4593 
Q 1769 5006 2450 5006 
Q 3128 5006 3586 4590 
Q 4044 4175 4044 3572 
Q 4044 2947 3587 2539 
Q 3131 2131 2450 2131 
z
M 2450 4594 
Q 1975 4594 1656 4306 
Q 1338 4019 1338 3572 
Q 1338 3119 1664 2833 
Q 1991 2547 2450 2547 
Q 2922 2547 3244 2833 
Q 3566 3119 3566 3572 
Q 3566 4025 3247 4309 
Q 2928 4594 2450 4594 
z
M 459 531 
L 416 934 
Q 1222 934 2667 965 
Q 4113 997 4588 1038 
L 4616 634 
Q 4125 594 2679 562 
Q 1234 531 459 531 
z
" transform="scale(0.015625)"/>
     <path id="MalgunGothic-66" d="M 2128 4422 
Q 1975 4506 1778 4506 
Q 1222 4506 1222 3800 
L 1222 3284 
L 1991 3284 
L 1991 2856 
L 1222 2856 
L 1222 0 
L 734 0 
L 734 2856 
L 172 2856 
L 172 3284 
L 734 3284 
L 734 3825 
Q 734 4341 1026 4636 
Q 1319 4931 1753 4931 
Q 1994 4931 2128 4875 
L 2128 4422 
z
" transform="scale(0.015625)"/>
     <path id="MalgunGothic-bcc4" d="M 1038 2578 
L 1038 5288 
L 1497 5288 
L 1497 4294 
L 3366 4294 
L 3366 5288 
L 3828 5288 
L 3828 4666 
L 4947 4666 
L 4947 5466 
L 5416 5466 
L 5416 2259 
L 4947 2259 
L 4947 3128 
L 3828 3128 
L 3828 2578 
L 1038 2578 
z
M 3828 4263 
L 3828 3525 
L 4947 3525 
L 4947 4263 
L 3828 4263 
z
M 3366 3884 
L 1497 3884 
L 1497 2994 
L 3366 2994 
L 3366 3884 
z
M 1728 -488 
L 1728 947 
L 4953 947 
L 4953 1516 
L 1728 1516 
L 1728 1925 
L 5416 1925 
L 5416 550 
L 2194 550 
L 2194 -72 
L 5581 -72 
L 5581 -488 
L 1728 -488 
z
" transform="scale(0.015625)"/>
     <path id="MalgunGothic-c640" d="M 5203 2600 
L 5203 -563 
L 4738 -563 
L 4738 5466 
L 5203 5466 
L 5203 3016 
L 6188 3016 
L 6188 2600 
L 5203 2600 
z
M 2572 2138 
L 2572 959 
Q 3872 991 4353 1025 
L 4378 622 
Q 3956 588 2537 553 
Q 1119 519 378 519 
L 325 934 
Q 1281 934 2106 953 
L 2106 2131 
Q 1466 2203 1094 2601 
Q 722 3000 722 3572 
Q 722 4213 1187 4616 
Q 1653 5019 2350 5019 
Q 3038 5019 3477 4619 
Q 3916 4219 3916 3572 
Q 3916 2997 3556 2611 
Q 3197 2225 2572 2138 
z
M 2316 4609 
Q 1825 4609 1514 4321 
Q 1203 4034 1203 3572 
Q 1203 3116 1515 2825 
Q 1828 2534 2316 2534 
Q 2806 2534 3122 2826 
Q 3438 3119 3438 3572 
Q 3438 4031 3125 4320 
Q 2813 4609 2316 4609 
z
" transform="scale(0.015625)"/>
     <path id="MalgunGothic-c740" d="M 3200 2950 
Q 2309 2950 1817 3287 
Q 1325 3625 1325 4159 
Q 1325 4694 1815 5028 
Q 2306 5363 3200 5363 
Q 4094 5363 4587 5028 
Q 5081 4694 5081 4159 
Q 5081 3625 4584 3287 
Q 4088 2950 3200 2950 
z
M 3200 4966 
Q 2541 4966 2177 4747 
Q 1813 4528 1813 4159 
Q 1813 3791 2177 3572 
Q 2541 3353 3200 3353 
Q 3859 3353 4223 3572 
Q 4588 3791 4588 4159 
Q 4588 4528 4223 4747 
Q 3859 4966 3200 4966 
z
M 403 1919 
L 403 2344 
L 5997 2344 
L 5997 1919 
L 403 1919 
z
M 1338 -359 
L 1338 1331 
L 1813 1331 
L 1813 56 
L 5203 56 
L 5203 -359 
L 1338 -359 
z
" transform="scale(0.015625)"/>
     <path id="MalgunGothic-ac70" d="M 4897 -563 
L 4897 2663 
L 3419 2663 
L 3419 3078 
L 4897 3078 
L 4897 5466 
L 5363 5466 
L 5363 -563 
L 4897 -563 
z
M 3547 4928 
Q 3481 2356 831 863 
L 481 1241 
Q 1438 1638 2178 2516 
Q 2919 3394 3047 4513 
L 728 4513 
L 728 4928 
L 3547 4928 
z
" transform="scale(0.015625)"/>
     <path id="MalgunGothic-c644" d="M 5203 2841 
L 5203 934 
L 4738 934 
L 4738 5466 
L 5203 5466 
L 5203 3256 
L 6138 3256 
L 6138 2841 
L 5203 2841 
z
M 4313 1869 
Q 3784 1831 2462 1795 
Q 1141 1759 500 1759 
L 453 2175 
Q 1378 2175 2156 2194 
L 2156 2859 
Q 1553 2919 1204 3248 
Q 856 3578 856 4056 
Q 856 4584 1272 4926 
Q 1688 5269 2381 5269 
Q 3078 5269 3487 4926 
Q 3897 4584 3897 4056 
Q 3897 3584 3556 3253 
Q 3216 2922 2625 2859 
L 2625 2209 
Q 3866 2241 4288 2272 
L 4313 1869 
z
M 2381 4872 
Q 1894 4872 1603 4648 
Q 1313 4425 1313 4056 
Q 1313 3697 1602 3470 
Q 1891 3244 2381 3244 
Q 2872 3244 3158 3472 
Q 3444 3700 3444 4056 
Q 3444 4422 3156 4647 
Q 2869 4872 2381 4872 
z
M 1441 -416 
L 1441 1288 
L 1906 1288 
L 1906 0 
L 5356 0 
L 5356 -416 
L 1441 -416 
z
" transform="scale(0.015625)"/>
     <path id="MalgunGothic-c804" d="M 4878 1178 
L 4878 3525 
L 3469 3525 
L 3469 3944 
L 4878 3944 
L 4878 5466 
L 5344 5466 
L 5344 1178 
L 4878 1178 
z
M 3675 2069 
Q 3228 2344 2829 2776 
Q 2431 3209 2266 3566 
Q 2091 3150 1662 2648 
Q 1234 2147 819 1913 
L 481 2234 
Q 1125 2559 1573 3198 
Q 2022 3838 2022 4494 
L 2022 4716 
L 684 4716 
L 684 5141 
L 3788 5141 
L 3788 4716 
L 2478 4716 
L 2478 4494 
Q 2478 3894 2943 3286 
Q 3409 2678 3988 2406 
L 3675 2069 
z
M 1631 -366 
L 1631 1606 
L 2100 1606 
L 2100 44 
L 5503 44 
L 5503 -366 
L 1631 -366 
z
" transform="scale(0.015625)"/>
     <path id="MalgunGothic-d558" d="M 5094 2278 
L 5094 -563 
L 4628 -563 
L 4628 5466 
L 5094 5466 
L 5094 2694 
L 6113 2694 
L 6113 2278 
L 5094 2278 
z
M 469 4084 
L 469 4506 
L 2022 4506 
L 2022 5466 
L 2491 5466 
L 2491 4506 
L 4050 4506 
L 4050 4084 
L 469 4084 
z
M 2253 934 
Q 1588 934 1166 1318 
Q 744 1703 744 2272 
Q 744 2850 1166 3233 
Q 1588 3616 2259 3616 
Q 2928 3616 3351 3231 
Q 3775 2847 3775 2266 
Q 3775 1694 3351 1314 
Q 2928 934 2253 934 
z
M 2259 3219 
Q 1797 3219 1500 2941 
Q 1203 2663 1203 2272 
Q 1203 1884 1501 1607 
Q 1800 1331 2259 1331 
Q 2719 1331 3017 1607 
Q 3316 1884 3316 2272 
Q 3316 2663 3019 2941 
Q 2722 3219 2259 3219 
z
" transform="scale(0.015625)"/>
     <path id="MalgunGothic-ac8c" d="M 5044 -563 
L 5044 5466 
L 5509 5466 
L 5509 -563 
L 5044 -563 
z
M 3938 -366 
L 3938 2859 
L 2797 2859 
L 2797 3278 
L 3938 3278 
L 3938 5344 
L 4397 5344 
L 4397 -366 
L 3938 -366 
z
M 3078 4941 
Q 2981 2394 813 878 
L 441 1197 
Q 1263 1634 1891 2575 
Q 2519 3516 2584 4531 
L 800 4531 
L 800 4941 
L 3078 4941 
z
" transform="scale(0.015625)"/>
     <path id="MalgunGothic-ad00" d="M 5191 2816 
L 5191 972 
L 4722 972 
L 4722 5466 
L 5191 5466 
L 5191 3238 
L 6094 3238 
L 6094 2816 
L 5191 2816 
z
M 3872 5056 
Q 3872 3828 3775 2950 
L 3322 2981 
Q 3406 3822 3406 4641 
L 872 4641 
L 872 5056 
L 3872 5056 
z
M 4281 2069 
Q 3859 2034 2501 2000 
Q 1144 1966 409 1966 
L 366 2381 
Q 1166 2381 1850 2400 
L 1850 3738 
L 2316 3738 
L 2316 2406 
Q 3481 2422 4256 2472 
L 4281 2069 
z
M 1428 -359 
L 1428 1381 
L 1894 1381 
L 1894 56 
L 5350 56 
L 5350 -359 
L 1428 -359 
z
" transform="scale(0.015625)"/>
     <path id="MalgunGothic-b410" d="M 4984 1697 
L 4984 3225 
L 4313 3225 
L 4313 1791 
L 3853 1791 
L 3853 5319 
L 4313 5319 
L 4313 3641 
L 4984 3641 
L 4984 5466 
L 5453 5466 
L 5453 1697 
L 4984 1697 
z
M 3559 2169 
Q 1744 2088 441 2088 
L 391 2497 
Q 1006 2497 1825 2516 
L 1825 3291 
L 831 3291 
L 831 5172 
L 3181 5172 
L 3181 4756 
L 1294 4756 
L 1294 3706 
L 3250 3706 
L 3250 3291 
L 2291 3291 
L 2291 2522 
L 3531 2572 
L 3559 2169 
z
M 5716 -525 
Q 4903 -97 4588 506 
Q 4322 -103 3494 -556 
L 3138 -250 
Q 3644 -31 4011 406 
Q 4378 844 4378 1331 
L 4378 1544 
L 4831 1544 
L 4831 1338 
Q 4831 838 5178 425 
Q 5525 13 6069 -191 
L 5716 -525 
z
M 3188 -72 
Q 2625 206 2419 531 
Q 2288 234 1950 -80 
Q 1613 -394 1259 -544 
L 884 -231 
Q 1441 -22 1802 398 
Q 2163 819 2163 1313 
L 2163 1516 
L 2619 1516 
L 2619 1313 
Q 2619 556 3541 256 
L 3188 -72 
z
" transform="scale(0.015625)"/>
     <path id="MalgunGothic-b2e4" d="M 5094 2669 
L 5094 -563 
L 4628 -563 
L 4628 5466 
L 5094 5466 
L 5094 3091 
L 6156 3091 
L 6156 2669 
L 5094 2669 
z
M 4050 1234 
Q 3538 1172 3003 1159 
Q 2469 1147 838 1147 
L 838 4934 
L 3653 4934 
L 3653 4519 
L 1306 4519 
L 1306 1563 
Q 3566 1563 4013 1638 
L 4050 1234 
z
" transform="scale(0.015625)"/>
    </defs>
    <use xlink:href="#MalgunGothic-46"/>
    <use xlink:href="#MalgunGothic-69" transform="translate(49.853516 0)"/>
    <use xlink:href="#MalgunGothic-6e" transform="translate(74.462891 0)"/>
    <use xlink:href="#MalgunGothic-61" transform="translate(132.275391 0)"/>
    <use xlink:href="#MalgunGothic-6c" transform="translate(184.277344 0)"/>
    <use xlink:href="#MalgunGothic-20" transform="translate(208.886719 0)"/>
    <use xlink:href="#MalgunGothic-64" transform="translate(244.042969 0)"/>
    <use xlink:href="#MalgunGothic-61" transform="translate(304.248047 0)"/>
    <use xlink:href="#MalgunGothic-74" transform="translate(356.25 0)"/>
    <use xlink:href="#MalgunGothic-61" transform="translate(390.722656 0)"/>
    <use xlink:href="#MalgunGothic-73" transform="translate(442.724609 0)"/>
    <use xlink:href="#MalgunGothic-65" transform="translate(486.035156 0)"/>
    <use xlink:href="#MalgunGothic-74" transform="translate(539.550781 0)"/>
    <use xlink:href="#MalgunGothic-20" transform="translate(574.023438 0)"/>
    <use xlink:href="#MalgunGothic-45" transform="translate(609.179688 0)"/>
    <use xlink:href="#MalgunGothic-44" transform="translate(660.888672 0)"/>
    <use xlink:href="#MalgunGothic-41" transform="translate(730.867188 0)"/>
    <use xlink:href="#MalgunGothic-c758" transform="translate(796.6875 0)"/>
    <use xlink:href="#MalgunGothic-20" transform="translate(896.6875 0)"/>
    <use xlink:href="#MalgunGothic-66" transform="translate(931.84375 0)"/>
    <use xlink:href="#MalgunGothic-65" transform="translate(963.484375 0)"/>
    <use xlink:href="#MalgunGothic-61" transform="translate(1017 0)"/>
    <use xlink:href="#MalgunGothic-74" transform="translate(1069.001953 0)"/>
    <use xlink:href="#MalgunGothic-75" transform="translate(1103.474609 0)"/>
    <use xlink:href="#MalgunGothic-72" transform="translate(1161.287109 0)"/>
    <use xlink:href="#MalgunGothic-65" transform="translate(1195.263672 0)"/>
    <use xlink:href="#MalgunGothic-20" transform="translate(1248.779297 0)"/>
    <use xlink:href="#MalgunGothic-66" transform="translate(1283.935547 0)"/>
    <use xlink:href="#MalgunGothic-61" transform="translate(1315.576172 0)"/>
    <use xlink:href="#MalgunGothic-6d" transform="translate(1367.578125 0)"/>
    <use xlink:href="#MalgunGothic-69" transform="translate(1455.566406 0)"/>
    <use xlink:href="#MalgunGothic-6c" transform="translate(1480.175781 0)"/>
    <use xlink:href="#MalgunGothic-79" transform="translate(1504.785156 0)"/>
    <use xlink:href="#MalgunGothic-bcc4" transform="translate(1554.052734 0)"/>
    <use xlink:href="#MalgunGothic-20" transform="translate(1654.052734 0)"/>
    <use xlink:href="#MalgunGothic-d3c9" transform="translate(1689.208984 0)"/>
    <use xlink:href="#MalgunGothic-ade0" transform="translate(1789.208984 0)"/>
    <use xlink:href="#MalgunGothic-20" transform="translate(1889.208984 0)"/>
    <use xlink:href="#MalgunGothic-acb0" transform="translate(1924.365234 0)"/>
    <use xlink:href="#MalgunGothic-ce21" transform="translate(2024.365234 0)"/>
    <use xlink:href="#MalgunGothic-b960" transform="translate(2124.365234 0)"/>
    <use xlink:href="#MalgunGothic-2e" transform="translate(2224.365234 0)"/>
    <use xlink:href="#MalgunGothic-20" transform="translate(2246.240234 0)"/>
    <use xlink:href="#MalgunGothic-41" transform="translate(2281.396484 0)"/>
    <use xlink:href="#MalgunGothic-63" transform="translate(2347.216797 0)"/>
    <use xlink:href="#MalgunGothic-74" transform="translate(2394.482422 0)"/>
    <use xlink:href="#MalgunGothic-69" transform="translate(2428.955078 0)"/>
    <use xlink:href="#MalgunGothic-76" transform="translate(2453.564453 0)"/>
    <use xlink:href="#MalgunGothic-69" transform="translate(2502.294922 0)"/>
    <use xlink:href="#MalgunGothic-74" transform="translate(2526.904297 0)"/>
    <use xlink:href="#MalgunGothic-79" transform="translate(2561.376953 0)"/>
    <use xlink:href="#MalgunGothic-c640" transform="translate(2610.644531 0)"/>
    <use xlink:href="#MalgunGothic-20" transform="translate(2710.644531 0)"/>
    <use xlink:href="#MalgunGothic-52" transform="translate(2745.800781 0)"/>
    <use xlink:href="#MalgunGothic-65" transform="translate(2803.787109 0)"/>
    <use xlink:href="#MalgunGothic-73" transform="translate(2857.302734 0)"/>
    <use xlink:href="#MalgunGothic-74" transform="translate(2900.613281 0)"/>
    <use xlink:href="#MalgunGothic-69" transform="translate(2935.085938 0)"/>
    <use xlink:href="#MalgunGothic-6e" transform="translate(2959.695312 0)"/>
    <use xlink:href="#MalgunGothic-67" transform="translate(3017.507812 0)"/>
    <use xlink:href="#MalgunGothic-20" transform="translate(3077.712891 0)"/>
    <use xlink:href="#MalgunGothic-48" transform="translate(3112.869141 0)"/>
    <use xlink:href="#MalgunGothic-52" transform="translate(3185.330078 0)"/>
    <use xlink:href="#MalgunGothic-c740" transform="translate(3246.316406 0)"/>
    <use xlink:href="#MalgunGothic-20" transform="translate(3346.316406 0)"/>
    <use xlink:href="#MalgunGothic-ac70" transform="translate(3381.472656 0)"/>
    <use xlink:href="#MalgunGothic-c758" transform="translate(3481.472656 0)"/>
    <use xlink:href="#MalgunGothic-20" transform="translate(3581.472656 0)"/>
    <use xlink:href="#MalgunGothic-c644" transform="translate(3616.628906 0)"/>
    <use xlink:href="#MalgunGothic-c804" transform="translate(3716.628906 0)"/>
    <use xlink:href="#MalgunGothic-d558" transform="translate(3816.628906 0)"/>
    <use xlink:href="#MalgunGothic-ac8c" transform="translate(3916.628906 0)"/>
    <use xlink:href="#MalgunGothic-20" transform="translate(4016.628906 0)"/>
    <use xlink:href="#MalgunGothic-ad00" transform="translate(4051.785156 0)"/>
    <use xlink:href="#MalgunGothic-ce21" transform="translate(4151.785156 0)"/>
    <use xlink:href="#MalgunGothic-b410" transform="translate(4251.785156 0)"/>
    <use xlink:href="#MalgunGothic-b2e4" transform="translate(4351.785156 0)"/>
    <use xlink:href="#MalgunGothic-2e" transform="translate(4451.785156 0)"/>
   </g>
  </g>
 </g>
 <defs>
  <clipPath id="p46020bcbf0">
   <rect x="78.791562" y="74.16" width="502.2" height="316.944"/>
  </clipPath>
 </defs>
</svg>
