<?xml version="1.0" encoding="utf-8" standalone="no"?>
<!DOCTYPE svg PUBLIC "-//W3C//DTD SVG 1.1//EN"
  "http://www.w3.org/Graphics/SVG/1.1/DTD/svg11.dtd">
<svg xmlns:xlink="http://www.w3.org/1999/xlink" width="485.768125pt" height="394.046312pt" viewBox="0 0 485.768125 394.046312" xmlns="http://www.w3.org/2000/svg" version="1.1">
 <metadata>
  <rdf:RDF xmlns:dc="http://purl.org/dc/elements/1.1/" xmlns:cc="http://creativecommons.org/ns#" xmlns:rdf="http://www.w3.org/1999/02/22-rdf-syntax-ns#">
   <cc:Work>
    <dc:type rdf:resource="http://purl.org/dc/dcmitype/StillImage"/>
    <dc:date>2026-06-30T14:57:27.020834</dc:date>
    <dc:format>image/svg+xml</dc:format>
    <dc:creator>
     <cc:Agent>
      <dc:title>Matplotlib v3.10.9, https://matplotlib.org/</dc:title>
     </cc:Agent>
    </dc:creator>
   </cc:Work>
  </rdf:RDF>
 </metadata>
 <defs>
  <style type="text/css">*{stroke-linejoin: round; stroke-linecap: butt}</style>
 </defs>
 <g id="figure_1">
  <g id="patch_1">
   <path d="M 0 394.046312 
L 485.768125 394.046312 
L 485.768125 0 
L 0 0 
z
" style="fill: #fcfcfd"/>
  </g>
  <g id="axes_1">
   <g id="patch_2">
    <path d="M 60.068125 366.336 
L 478.568125 366.336 
L 478.568125 69.84 
L 60.068125 69.84 
z
" style="fill: #ffffff"/>
   </g>
   <g id="matplotlib.axis_1">
    <g id="xtick_1">
     <g id="line2d_1">
      <path d="M 163.636307 366.336 
L 163.636307 69.84 
" clip-path="url(#p78df2f7ae1)" style="fill: none; stroke: #e6e8f0; stroke-width: 0.8; stroke-linecap: round"/>
     </g>
     <g id="text_1">
      <!-- 0: not good -->
      <g style="fill: #262626" transform="translate(133.954354 384.187406) scale(0.11 -0.11)">
       <defs>
        <path id="MalgunGothic-30" d="M 278 2206 
Q 278 3425 675 4050 
Q 1072 4675 1819 4675 
Q 3253 4675 3253 2319 
Q 3253 1156 2854 539 
Q 2456 -78 1716 -78 
Q 1016 -78 647 520 
Q 278 1119 278 2206 
z
M 784 2231 
Q 784 344 1769 344 
Q 2747 344 2747 2259 
Q 2747 4250 1794 4250 
Q 784 4250 784 2231 
z
" transform="scale(0.015625)"/>
        <path id="MalgunGothic-3a" d="M 356 3006 
Q 356 3153 459 3254 
Q 563 3356 700 3356 
Q 838 3356 941 3254 
Q 1044 3153 1044 3006 
Q 1044 2863 942 2761 
Q 841 2659 700 2659 
Q 559 2659 457 2761 
Q 356 2863 356 3006 
z
M 356 275 
Q 356 422 459 523 
Q 563 625 700 625 
Q 838 625 941 523 
Q 1044 422 1044 275 
Q 1044 138 942 33 
Q 841 -72 700 -72 
Q 559 -72 457 29 
Q 356 131 356 275 
z
" transform="scale(0.015625)"/>
        <path id="MalgunGothic-20" transform="scale(0.015625)"/>
        <path id="MalgunGothic-6e" d="M 3238 0 
L 2741 0 
L 2741 1875 
Q 2741 2941 1963 2941 
Q 1563 2941 1298 2639 
Q 1034 2338 1034 1872 
L 1034 0 
L 538 0 
L 538 3284 
L 1034 3284 
L 1034 2734 
L 1047 2734 
Q 1416 3359 2125 3359 
Q 2666 3359 2952 3012 
Q 3238 2666 3238 2006 
L 3238 0 
z
" transform="scale(0.015625)"/>
        <path id="MalgunGothic-6f" d="M 316 1600 
Q 316 2419 761 2889 
Q 1206 3359 1978 3359 
Q 2697 3359 3111 2907 
Q 3525 2456 3525 1650 
Q 3525 869 3078 395 
Q 2631 -78 1900 -78 
Q 1184 -78 750 384 
Q 316 847 316 1600 
z
M 819 1622 
Q 819 1041 1123 692 
Q 1428 344 1934 344 
Q 2459 344 2739 680 
Q 3019 1016 3019 1634 
Q 3019 2256 2737 2598 
Q 2456 2941 1934 2941 
Q 1425 2941 1122 2587 
Q 819 2234 819 1622 
z
" transform="scale(0.015625)"/>
        <path id="MalgunGothic-74" d="M 2031 31 
Q 1844 -72 1553 -72 
Q 706 -72 706 881 
L 706 2856 
L 138 2856 
L 138 3284 
L 706 3284 
L 706 4091 
L 1200 4250 
L 1200 3284 
L 2031 3284 
L 2031 2856 
L 1200 2856 
L 1200 972 
Q 1200 625 1315 487 
Q 1431 350 1691 350 
Q 1888 350 2031 459 
L 2031 31 
z
" transform="scale(0.015625)"/>
        <path id="MalgunGothic-67" d="M 3313 259 
Q 3313 -1547 1603 -1547 
Q 1003 -1547 538 -1313 
L 538 -806 
Q 1088 -1116 1600 -1116 
Q 2822 -1116 2822 194 
L 2822 559 
L 2809 559 
Q 2422 -78 1675 -78 
Q 1066 -78 691 362 
Q 316 803 316 1534 
Q 316 2375 722 2867 
Q 1128 3359 1816 3359 
Q 2484 3359 2809 2822 
L 2822 2822 
L 2822 3284 
L 3313 3284 
L 3313 259 
z
M 2822 1978 
Q 2822 2378 2547 2659 
Q 2272 2941 1878 2941 
Q 1384 2941 1101 2577 
Q 819 2213 819 1572 
Q 819 1016 1092 680 
Q 1366 344 1803 344 
Q 2247 344 2534 666 
Q 2822 988 2822 1478 
L 2822 1978 
z
" transform="scale(0.015625)"/>
        <path id="MalgunGothic-64" d="M 3313 0 
L 2822 0 
L 2822 566 
L 2809 566 
Q 2444 -78 1675 -78 
Q 1056 -78 686 364 
Q 316 806 316 1566 
Q 316 2375 728 2867 
Q 1141 3359 1816 3359 
Q 2494 3359 2809 2822 
L 2822 2822 
L 2822 4859 
L 3313 4859 
L 3313 0 
z
M 2822 1978 
Q 2822 2378 2550 2659 
Q 2278 2941 1872 2941 
Q 1384 2941 1101 2577 
Q 819 2213 819 1591 
Q 819 1025 1086 684 
Q 1353 344 1813 344 
Q 2250 344 2536 666 
Q 2822 988 2822 1478 
L 2822 1978 
z
" transform="scale(0.015625)"/>
       </defs>
       <use xlink:href="#MalgunGothic-30"/>
       <use xlink:href="#MalgunGothic-3a" transform="translate(55.078125 0)"/>
       <use xlink:href="#MalgunGothic-20" transform="translate(76.953125 0)"/>
       <use xlink:href="#MalgunGothic-6e" transform="translate(112.109375 0)"/>
       <use xlink:href="#MalgunGothic-6f" transform="translate(169.921875 0)"/>
       <use xlink:href="#MalgunGothic-74" transform="translate(229.833984 0)"/>
       <use xlink:href="#MalgunGothic-20" transform="translate(264.306641 0)"/>
       <use xlink:href="#MalgunGothic-67" transform="translate(299.462891 0)"/>
       <use xlink:href="#MalgunGothic-6f" transform="translate(359.667969 0)"/>
       <use xlink:href="#MalgunGothic-6f" transform="translate(419.580078 0)"/>
       <use xlink:href="#MalgunGothic-64" transform="translate(479.492188 0)"/>
      </g>
     </g>
    </g>
    <g id="xtick_2">
     <g id="line2d_2">
      <path d="M 374.999943 366.336 
L 374.999943 69.84 
" clip-path="url(#p78df2f7ae1)" style="fill: none; stroke: #e6e8f0; stroke-width: 0.8; stroke-linecap: round"/>
     </g>
     <g id="text_2">
      <!-- 1: good -->
      <g style="fill: #262626" transform="translate(355.621896 384.187406) scale(0.11 -0.11)">
       <defs>
        <path id="MalgunGothic-31" d="M 2231 0 
L 1734 0 
L 1734 3972 
Q 1591 3828 1266 3661 
Q 941 3494 672 3428 
L 672 3959 
Q 1016 4056 1409 4275 
Q 1803 4494 2031 4700 
L 2231 4700 
L 2231 0 
z
" transform="scale(0.015625)"/>
       </defs>
       <use xlink:href="#MalgunGothic-31"/>
       <use xlink:href="#MalgunGothic-3a" transform="translate(55.078125 0)"/>
       <use xlink:href="#MalgunGothic-20" transform="translate(76.953125 0)"/>
       <use xlink:href="#MalgunGothic-67" transform="translate(112.109375 0)"/>
       <use xlink:href="#MalgunGothic-6f" transform="translate(172.314453 0)"/>
       <use xlink:href="#MalgunGothic-6f" transform="translate(232.226562 0)"/>
       <use xlink:href="#MalgunGothic-64" transform="translate(292.138672 0)"/>
      </g>
     </g>
    </g>
   </g>
   <g id="matplotlib.axis_2">
    <g id="ytick_1">
     <g id="line2d_3">
      <path d="M 60.068125 366.336 
L 478.568125 366.336 
" clip-path="url(#p78df2f7ae1)" style="fill: none; stroke: #e6e8f0; stroke-width: 0.8; stroke-linecap: round"/>
     </g>
     <g id="text_3">
      <!-- 0 -->
      <g style="fill: #262626" transform="translate(44.509531 370.511703) scale(0.11 -0.11)">
       <use xlink:href="#MalgunGothic-30"/>
      </g>
     </g>
    </g>
    <g id="ytick_2">
     <g id="line2d_4">
      <path d="M 60.068125 307.983051 
L 478.568125 307.983051 
" clip-path="url(#p78df2f7ae1)" style="fill: none; stroke: #e6e8f0; stroke-width: 0.8; stroke-linecap: round"/>
     </g>
     <g id="text_4">
      <!-- 500 -->
      <g style="fill: #262626" transform="translate(32.392344 312.158755) scale(0.11 -0.11)">
       <defs>
        <path id="MalgunGothic-35" d="M 3072 1403 
Q 3072 722 2636 322 
Q 2200 -78 1469 -78 
Q 828 -78 516 113 
L 516 650 
Q 994 344 1475 344 
Q 1969 344 2270 630 
Q 2572 916 2572 1372 
Q 2572 1838 2265 2092 
Q 1959 2347 1381 2347 
Q 994 2347 603 2300 
L 759 4600 
L 2869 4600 
L 2869 4147 
L 1206 4147 
L 1106 2763 
Q 1347 2784 1547 2784 
Q 2263 2784 2667 2414 
Q 3072 2044 3072 1403 
z
" transform="scale(0.015625)"/>
       </defs>
       <use xlink:href="#MalgunGothic-35"/>
       <use xlink:href="#MalgunGothic-30" transform="translate(55.078125 0)"/>
       <use xlink:href="#MalgunGothic-30" transform="translate(110.15625 0)"/>
      </g>
     </g>
    </g>
    <g id="ytick_3">
     <g id="line2d_5">
      <path d="M 60.068125 249.630103 
L 478.568125 249.630103 
" clip-path="url(#p78df2f7ae1)" style="fill: none; stroke: #e6e8f0; stroke-width: 0.8; stroke-linecap: round"/>
     </g>
     <g id="text_5">
      <!-- 1,000 -->
      <g style="fill: #262626" transform="translate(23.9275 253.805806) scale(0.11 -0.11)">
       <defs>
        <path id="MalgunGothic-2c" d="M 988 725 
L 472 -850 
L 125 -850 
L 503 725 
L 988 725 
z
" transform="scale(0.015625)"/>
       </defs>
       <use xlink:href="#MalgunGothic-31"/>
       <use xlink:href="#MalgunGothic-2c" transform="translate(55.078125 0)"/>
       <use xlink:href="#MalgunGothic-30" transform="translate(76.953125 0)"/>
       <use xlink:href="#MalgunGothic-30" transform="translate(132.03125 0)"/>
       <use xlink:href="#MalgunGothic-30" transform="translate(187.109375 0)"/>
      </g>
     </g>
    </g>
    <g id="ytick_4">
     <g id="line2d_6">
      <path d="M 60.068125 191.277154 
L 478.568125 191.277154 
" clip-path="url(#p78df2f7ae1)" style="fill: none; stroke: #e6e8f0; stroke-width: 0.8; stroke-linecap: round"/>
     </g>
     <g id="text_6">
      <!-- 1,500 -->
      <g style="fill: #262626" transform="translate(23.9275 195.452857) scale(0.11 -0.11)">
       <use xlink:href="#MalgunGothic-31"/>
       <use xlink:href="#MalgunGothic-2c" transform="translate(55.078125 0)"/>
       <use xlink:href="#MalgunGothic-35" transform="translate(76.953125 0)"/>
       <use xlink:href="#MalgunGothic-30" transform="translate(132.03125 0)"/>
       <use xlink:href="#MalgunGothic-30" transform="translate(187.109375 0)"/>
      </g>
     </g>
    </g>
    <g id="ytick_5">
     <g id="line2d_7">
      <path d="M 60.068125 132.924206 
L 478.568125 132.924206 
" clip-path="url(#p78df2f7ae1)" style="fill: none; stroke: #e6e8f0; stroke-width: 0.8; stroke-linecap: round"/>
     </g>
     <g id="text_7">
      <!-- 2,000 -->
      <g style="fill: #262626" transform="translate(23.9275 137.099909) scale(0.11 -0.11)">
       <defs>
        <path id="MalgunGothic-32" d="M 2519 3372 
Q 2519 3784 2275 4018 
Q 2031 4253 1628 4253 
Q 1341 4253 1053 4104 
Q 766 3956 534 3697 
L 534 4234 
Q 981 4675 1691 4675 
Q 2281 4675 2642 4334 
Q 3003 3994 3003 3416 
Q 3003 2919 2772 2545 
Q 2541 2172 1984 1775 
Q 1459 1406 1254 1215 
Q 1050 1025 967 854 
Q 884 684 884 450 
L 3116 450 
L 3116 0 
L 356 0 
L 356 225 
Q 356 603 461 870 
Q 566 1138 811 1392 
Q 1056 1647 1597 2022 
Q 2091 2363 2305 2670 
Q 2519 2978 2519 3372 
z
" transform="scale(0.015625)"/>
       </defs>
       <use xlink:href="#MalgunGothic-32"/>
       <use xlink:href="#MalgunGothic-2c" transform="translate(55.078125 0)"/>
       <use xlink:href="#MalgunGothic-30" transform="translate(76.953125 0)"/>
       <use xlink:href="#MalgunGothic-30" transform="translate(132.03125 0)"/>
       <use xlink:href="#MalgunGothic-30" transform="translate(187.109375 0)"/>
      </g>
     </g>
    </g>
    <g id="ytick_6">
     <g id="line2d_8">
      <path d="M 60.068125 74.571257 
L 478.568125 74.571257 
" clip-path="url(#p78df2f7ae1)" style="fill: none; stroke: #e6e8f0; stroke-width: 0.8; stroke-linecap: round"/>
     </g>
     <g id="text_8">
      <!-- 2,500 -->
      <g style="fill: #262626" transform="translate(23.9275 78.74696) scale(0.11 -0.11)">
       <use xlink:href="#MalgunGothic-32"/>
       <use xlink:href="#MalgunGothic-2c" transform="translate(55.078125 0)"/>
       <use xlink:href="#MalgunGothic-35" transform="translate(76.953125 0)"/>
       <use xlink:href="#MalgunGothic-30" transform="translate(132.03125 0)"/>
       <use xlink:href="#MalgunGothic-30" transform="translate(187.109375 0)"/>
      </g>
     </g>
    </g>
    <g id="text_9">
     <!-- episode 수 -->
     <g style="fill: #1f2430" transform="translate(17.090625 247.504875) rotate(-90) scale(0.12 -0.12)">
      <defs>
       <path id="MalgunGothic-65" d="M 3156 1519 
L 828 1519 
Q 844 950 1133 648 
Q 1422 347 1909 347 
Q 2472 347 2934 719 
L 2934 244 
Q 2494 -78 1794 -78 
Q 1100 -78 708 376 
Q 316 831 316 1634 
Q 316 2381 747 2870 
Q 1178 3359 1816 3359 
Q 2453 3359 2804 2942 
Q 3156 2525 3156 1788 
L 3156 1519 
z
M 2644 1956 
Q 2644 2416 2423 2675 
Q 2203 2934 1809 2934 
Q 1438 2934 1169 2667 
Q 900 2400 834 1956 
L 2644 1956 
z
" transform="scale(0.015625)"/>
       <path id="MalgunGothic-70" d="M 1034 481 
L 1034 -1513 
L 538 -1513 
L 538 3284 
L 1034 3284 
L 1034 2703 
L 1047 2703 
Q 1438 3359 2184 3359 
Q 2809 3359 3171 2920 
Q 3534 2481 3534 1738 
Q 3534 906 3126 414 
Q 2719 -78 2034 -78 
Q 1394 -78 1047 481 
L 1034 481 
z
M 1034 1331 
Q 1034 922 1307 633 
Q 1581 344 1991 344 
Q 2475 344 2751 716 
Q 3028 1088 3028 1753 
Q 3028 2300 2767 2620 
Q 2506 2941 2072 2941 
Q 1619 2941 1326 2619 
Q 1034 2297 1034 1806 
L 1034 1331 
z
" transform="scale(0.015625)"/>
       <path id="MalgunGothic-69" d="M 472 4466 
Q 472 4606 565 4701 
Q 659 4797 794 4797 
Q 934 4797 1029 4700 
Q 1125 4603 1125 4466 
Q 1125 4325 1029 4231 
Q 934 4138 794 4138 
Q 659 4138 565 4230 
Q 472 4322 472 4466 
z
M 541 0 
L 541 3284 
L 1034 3284 
L 1034 0 
L 541 0 
z
" transform="scale(0.015625)"/>
       <path id="MalgunGothic-73" d="M 331 669 
Q 763 350 1278 350 
Q 1978 350 1978 822 
Q 1978 1025 1825 1158 
Q 1672 1291 1222 1459 
Q 703 1666 520 1878 
Q 338 2091 338 2416 
Q 338 2834 700 3096 
Q 1063 3359 1584 3359 
Q 2003 3359 2341 3213 
L 2341 2697 
Q 1975 2934 1506 2934 
Q 1200 2934 1025 2798 
Q 850 2663 850 2459 
Q 850 2241 979 2125 
Q 1109 2009 1544 1838 
Q 2131 1609 2309 1390 
Q 2488 1172 2488 869 
Q 2488 431 2127 176 
Q 1766 -78 1203 -78 
Q 694 -78 331 122 
L 331 669 
z
" transform="scale(0.015625)"/>
       <path id="MalgunGothic-c218" d="M 5491 2994 
Q 4750 3097 4078 3498 
Q 3406 3900 3200 4275 
Q 2975 3891 2309 3491 
Q 1644 3091 922 2956 
L 634 3347 
Q 1559 3450 2261 3942 
Q 2963 4434 2963 5013 
L 2963 5275 
L 3431 5275 
L 3431 5013 
Q 3431 4431 4118 3948 
Q 4806 3466 5766 3378 
L 5491 2994 
z
M 3431 1838 
L 3431 -563 
L 2963 -563 
L 2963 1838 
L 403 1838 
L 403 2253 
L 5997 2253 
L 5997 1838 
L 3431 1838 
z
" transform="scale(0.015625)"/>
      </defs>
      <use xlink:href="#MalgunGothic-65"/>
      <use xlink:href="#MalgunGothic-70" transform="translate(53.515625 0)"/>
      <use xlink:href="#MalgunGothic-69" transform="translate(113.574219 0)"/>
      <use xlink:href="#MalgunGothic-73" transform="translate(138.183594 0)"/>
      <use xlink:href="#MalgunGothic-6f" transform="translate(181.494141 0)"/>
      <use xlink:href="#MalgunGothic-64" transform="translate(241.40625 0)"/>
      <use xlink:href="#MalgunGothic-65" transform="translate(301.611328 0)"/>
      <use xlink:href="#MalgunGothic-20" transform="translate(355.126953 0)"/>
      <use xlink:href="#MalgunGothic-c218" transform="translate(390.283203 0)"/>
     </g>
    </g>
   </g>
   <g id="patch_3">
    <path d="M 79.090852 366.336 
L 248.181761 366.336 
L 248.181761 115.068203 
L 79.090852 115.068203 
z
" clip-path="url(#p78df2f7ae1)" style="fill: #e2e5ea; stroke: #464c55; stroke-linejoin: miter"/>
   </g>
   <g id="patch_4">
    <path d="M 290.454489 366.336 
L 459.545398 366.336 
L 459.545398 203.181156 
L 290.454489 203.181156 
z
" clip-path="url(#p78df2f7ae1)" style="fill: #a3befa; stroke: #2e4780; stroke-linejoin: miter"/>
   </g>
   <g id="patch_5">
    <path d="M 60.068125 366.336 
L 60.068125 69.84 
" style="fill: none; stroke: #d7dbe7; stroke-width: 1.25; stroke-linejoin: miter; stroke-linecap: square"/>
   </g>
   <g id="patch_6">
    <path d="M 60.068125 366.336 
L 478.568125 366.336 
" style="fill: none; stroke: #d7dbe7; stroke-width: 1.25; stroke-linejoin: miter; stroke-linecap: square"/>
   </g>
   <g id="text_10">
    <!-- 2,153 -->
    <g style="fill: #1f2430" transform="translate(151.526932 94.810629) scale(0.1 -0.1)">
     <defs>
      <path id="MalgunGothic-33" d="M 416 719 
Q 891 344 1478 344 
Q 1959 344 2254 587 
Q 2550 831 2550 1247 
Q 2550 2169 1253 2169 
L 872 2169 
L 872 2591 
L 1234 2591 
Q 2388 2591 2388 3453 
Q 2388 4250 1509 4250 
Q 1022 4250 594 3916 
L 594 4413 
Q 1031 4675 1634 4675 
Q 2184 4675 2539 4372 
Q 2894 4069 2894 3581 
Q 2894 2678 1972 2409 
L 1972 2400 
Q 2469 2356 2764 2053 
Q 3059 1750 3059 1300 
Q 3059 672 2604 297 
Q 2150 -78 1450 -78 
Q 806 -78 416 169 
L 416 719 
z
" transform="scale(0.015625)"/>
     </defs>
     <use xlink:href="#MalgunGothic-32"/>
     <use xlink:href="#MalgunGothic-2c" transform="translate(55.078125 0)"/>
     <use xlink:href="#MalgunGothic-31" transform="translate(76.953125 0)"/>
     <use xlink:href="#MalgunGothic-35" transform="translate(132.03125 0)"/>
     <use xlink:href="#MalgunGothic-33" transform="translate(187.109375 0)"/>
    </g>
    <!-- 60.6% -->
    <g style="fill: #1f2430" transform="translate(150.098807 106.285317) scale(0.1 -0.1)">
     <defs>
      <path id="MalgunGothic-36" d="M 2981 4069 
Q 2619 4250 2228 4250 
Q 1591 4250 1228 3689 
Q 866 3128 869 2213 
L 884 2213 
Q 1203 2872 1938 2872 
Q 2547 2872 2903 2478 
Q 3259 2084 3259 1450 
Q 3259 797 2857 359 
Q 2456 -78 1825 -78 
Q 1116 -78 736 478 
Q 356 1034 356 2019 
Q 356 3181 847 3928 
Q 1338 4675 2222 4675 
Q 2700 4675 2981 4544 
L 2981 4069 
z
M 906 1506 
Q 906 1022 1165 683 
Q 1425 344 1844 344 
Q 2247 344 2498 645 
Q 2750 947 2750 1388 
Q 2750 1888 2509 2167 
Q 2269 2447 1838 2447 
Q 1444 2447 1175 2173 
Q 906 1900 906 1506 
z
" transform="scale(0.015625)"/>
      <path id="MalgunGothic-2e" d="M 356 275 
Q 356 422 459 523 
Q 563 625 700 625 
Q 838 625 941 523 
Q 1044 422 1044 275 
Q 1044 138 942 33 
Q 841 -72 700 -72 
Q 559 -72 457 29 
Q 356 131 356 275 
z
" transform="scale(0.015625)"/>
      <path id="MalgunGothic-25" d="M 253 3444 
Q 253 3997 547 4331 
Q 841 4666 1353 4666 
Q 1847 4666 2115 4355 
Q 2384 4044 2384 3509 
Q 2384 2972 2082 2633 
Q 1781 2294 1288 2294 
Q 816 2294 534 2608 
Q 253 2922 253 3444 
z
M 666 3475 
Q 666 3091 841 2864 
Q 1016 2638 1322 2638 
Q 1631 2638 1803 2863 
Q 1975 3088 1975 3494 
Q 1975 3894 1804 4112 
Q 1634 4331 1334 4331 
Q 1022 4331 844 4098 
Q 666 3866 666 3475 
z
M 4350 4600 
L 1403 -34 
L 966 -34 
L 3909 4600 
L 4350 4600 
z
M 2988 1078 
Q 2988 1641 3284 1977 
Q 3581 2313 4081 2313 
Q 4569 2313 4841 2000 
Q 5113 1688 5113 1138 
Q 5113 600 4809 264 
Q 4506 -72 4019 -72 
Q 3550 -72 3269 245 
Q 2988 563 2988 1078 
z
M 3394 1103 
Q 3394 725 3570 498 
Q 3747 272 4050 272 
Q 4356 272 4529 501 
Q 4703 731 4703 1134 
Q 4703 1534 4534 1748 
Q 4366 1963 4066 1963 
Q 3753 1963 3573 1731 
Q 3394 1500 3394 1103 
z
" transform="scale(0.015625)"/>
     </defs>
     <use xlink:href="#MalgunGothic-36"/>
     <use xlink:href="#MalgunGothic-30" transform="translate(55.078125 0)"/>
     <use xlink:href="#MalgunGothic-2e" transform="translate(110.15625 0)"/>
     <use xlink:href="#MalgunGothic-36" transform="translate(132.03125 0)"/>
     <use xlink:href="#MalgunGothic-25" transform="translate(187.109375 0)"/>
    </g>
   </g>
   <g id="text_11">
    <!-- 1,398 -->
    <g style="fill: #1f2430" transform="translate(362.890568 182.923581) scale(0.1 -0.1)">
     <defs>
      <path id="MalgunGothic-39" d="M 556 563 
Q 941 344 1366 344 
Q 1994 344 2347 855 
Q 2700 1366 2700 2313 
Q 2694 2306 2688 2313 
Q 2388 1713 1653 1713 
Q 1059 1713 682 2120 
Q 306 2528 306 3144 
Q 306 3806 711 4240 
Q 1116 4675 1772 4675 
Q 2466 4675 2833 4131 
Q 3200 3588 3200 2578 
Q 3200 1319 2717 620 
Q 2234 -78 1344 -78 
Q 881 -78 556 78 
L 556 563 
z
M 813 3219 
Q 813 2741 1063 2450 
Q 1313 2159 1759 2159 
Q 2147 2159 2406 2417 
Q 2666 2675 2666 3047 
Q 2666 3556 2411 3903 
Q 2156 4250 1725 4250 
Q 1322 4250 1067 3948 
Q 813 3647 813 3219 
z
" transform="scale(0.015625)"/>
      <path id="MalgunGothic-38" d="M 303 1281 
Q 303 1669 539 2011 
Q 775 2353 1153 2494 
Q 856 2647 675 2915 
Q 494 3184 494 3500 
Q 494 3828 659 4098 
Q 825 4369 1122 4522 
Q 1419 4675 1778 4675 
Q 2334 4675 2700 4342 
Q 3066 4009 3066 3500 
Q 3066 3181 2881 2914 
Q 2697 2647 2413 2494 
Q 2788 2350 3022 2009 
Q 3256 1669 3256 1281 
Q 3256 672 2843 297 
Q 2431 -78 1778 -78 
Q 1131 -78 717 301 
Q 303 681 303 1281 
z
M 809 1328 
Q 809 878 1081 611 
Q 1353 344 1781 344 
Q 2206 344 2482 619 
Q 2759 894 2759 1328 
Q 2759 1731 2482 2011 
Q 2206 2291 1781 2291 
Q 1372 2291 1090 2020 
Q 809 1750 809 1328 
z
M 1003 3459 
Q 1003 3125 1234 2900 
Q 1466 2675 1781 2675 
Q 2097 2675 2330 2900 
Q 2563 3125 2563 3459 
Q 2563 3803 2341 4026 
Q 2119 4250 1781 4250 
Q 1450 4250 1226 4029 
Q 1003 3809 1003 3459 
z
" transform="scale(0.015625)"/>
     </defs>
     <use xlink:href="#MalgunGothic-31"/>
     <use xlink:href="#MalgunGothic-2c" transform="translate(55.078125 0)"/>
     <use xlink:href="#MalgunGothic-33" transform="translate(76.953125 0)"/>
     <use xlink:href="#MalgunGothic-39" transform="translate(132.03125 0)"/>
     <use xlink:href="#MalgunGothic-38" transform="translate(187.109375 0)"/>
    </g>
    <!-- 39.4% -->
    <g style="fill: #1f2430" transform="translate(361.462443 194.398269) scale(0.1 -0.1)">
     <defs>
      <path id="MalgunGothic-34" d="M 2703 4600 
L 2703 1563 
L 3309 1563 
L 3309 1113 
L 2703 1113 
L 2703 0 
L 2213 0 
L 2213 1113 
L 50 1113 
L 50 1534 
Q 728 2297 1295 3109 
Q 1863 3922 2172 4600 
L 2703 4600 
z
M 625 1563 
L 2213 1563 
L 2213 3831 
Q 1613 2788 959 1981 
L 625 1563 
z
" transform="scale(0.015625)"/>
     </defs>
     <use xlink:href="#MalgunGothic-33"/>
     <use xlink:href="#MalgunGothic-39" transform="translate(55.078125 0)"/>
     <use xlink:href="#MalgunGothic-2e" transform="translate(110.15625 0)"/>
     <use xlink:href="#MalgunGothic-34" transform="translate(132.03125 0)"/>
     <use xlink:href="#MalgunGothic-25" transform="translate(187.109375 0)"/>
    </g>
   </g>
  </g>
  <g id="text_12">
   <!-- good_sleep_label=1은 전체의 39.4%였다 -->
   <g style="fill: #1f2430" transform="translate(60.068125 20.010937) scale(0.15 -0.15)">
    <defs>
     <path id="MalgunGothicBold-67" d="M 3553 341 
Q 3553 -572 3050 -1058 
Q 2547 -1544 1591 -1544 
Q 941 -1544 534 -1341 
L 534 -584 
Q 1050 -881 1569 -881 
Q 2100 -881 2392 -598 
Q 2684 -316 2684 206 
L 2684 497 
L 2672 497 
Q 2316 -81 1619 -81 
Q 1006 -81 631 359 
Q 256 800 256 1547 
Q 256 2375 667 2869 
Q 1078 3363 1750 3363 
Q 2359 3363 2672 2881 
L 2684 2881 
L 2684 3284 
L 3553 3284 
L 3553 341 
z
M 2694 1875 
Q 2694 2209 2484 2446 
Q 2275 2684 1953 2684 
Q 1578 2684 1358 2393 
Q 1138 2103 1138 1581 
Q 1138 1131 1347 865 
Q 1556 600 1903 600 
Q 2256 600 2475 865 
Q 2694 1131 2694 1550 
L 2694 1875 
z
" transform="scale(0.015625)"/>
     <path id="MalgunGothicBold-6f" d="M 256 1622 
Q 256 2428 731 2895 
Q 1206 3363 2019 3363 
Q 2803 3363 3258 2905 
Q 3713 2447 3713 1678 
Q 3713 878 3242 398 
Q 2772 -81 1969 -81 
Q 1181 -81 718 380 
Q 256 841 256 1622 
z
M 1138 1634 
Q 1138 600 1997 600 
Q 2825 600 2825 1659 
Q 2825 2684 1994 2684 
Q 1588 2684 1363 2404 
Q 1138 2125 1138 1634 
z
" transform="scale(0.015625)"/>
     <path id="MalgunGothicBold-64" d="M 3550 0 
L 2681 0 
L 2681 484 
L 2666 484 
Q 2316 -81 1619 -81 
Q 1000 -81 628 362 
Q 256 806 256 1569 
Q 256 2378 672 2870 
Q 1088 3363 1753 3363 
Q 2400 3363 2666 2884 
L 2681 2884 
L 2681 4859 
L 3550 4859 
L 3550 0 
z
M 2694 1878 
Q 2694 2225 2481 2454 
Q 2269 2684 1947 2684 
Q 1572 2684 1355 2390 
Q 1138 2097 1138 1594 
Q 1138 1122 1347 861 
Q 1556 600 1913 600 
Q 2256 600 2475 872 
Q 2694 1144 2694 1566 
L 2694 1878 
z
" transform="scale(0.015625)"/>
     <path id="MalgunGothicBold-5f" d="M 2725 -953 
L 0 -953 
L 0 -569 
L 2725 -569 
L 2725 -953 
z
" transform="scale(0.015625)"/>
     <path id="MalgunGothicBold-73" d="M 347 844 
Q 834 538 1309 538 
Q 1922 538 1922 884 
Q 1922 1125 1438 1291 
Q 731 1528 540 1758 
Q 350 1988 350 2347 
Q 350 2822 737 3092 
Q 1125 3363 1734 3363 
Q 2159 3363 2584 3228 
L 2584 2519 
Q 2200 2747 1744 2747 
Q 1503 2747 1356 2656 
Q 1209 2566 1209 2416 
Q 1209 2169 1619 2025 
Q 2084 1856 2303 1742 
Q 2522 1628 2644 1431 
Q 2766 1234 2766 969 
Q 2766 469 2367 194 
Q 1969 -81 1316 -81 
Q 766 -81 347 94 
L 347 844 
z
" transform="scale(0.015625)"/>
     <path id="MalgunGothicBold-6c" d="M 444 0 
L 444 4859 
L 1313 4859 
L 1313 0 
L 444 0 
z
" transform="scale(0.015625)"/>
     <path id="MalgunGothicBold-65" d="M 3316 1397 
L 1122 1397 
Q 1175 559 2072 559 
Q 2619 559 3047 847 
L 3047 184 
Q 2591 -81 1875 -81 
Q 1109 -81 682 362 
Q 256 806 256 1603 
Q 256 2384 714 2873 
Q 1172 3363 1859 3363 
Q 2547 3363 2931 2941 
Q 3316 2519 3316 1781 
L 3316 1397 
z
M 2494 1969 
Q 2494 2750 1850 2750 
Q 1581 2750 1376 2537 
Q 1172 2325 1122 1969 
L 2494 1969 
z
" transform="scale(0.015625)"/>
     <path id="MalgunGothicBold-70" d="M 1328 409 
L 1328 -1513 
L 456 -1513 
L 456 3284 
L 1328 3284 
L 1328 2766 
L 1338 2766 
Q 1719 3363 2419 3363 
Q 3041 3363 3398 2928 
Q 3756 2494 3756 1734 
Q 3756 916 3348 417 
Q 2941 -81 2269 -81 
Q 1663 -81 1338 409 
L 1328 409 
z
M 1316 1428 
Q 1316 1072 1522 836 
Q 1728 600 2050 600 
Q 2431 600 2647 897 
Q 2863 1194 2863 1731 
Q 2863 2684 2109 2684 
Q 1753 2684 1534 2418 
Q 1316 2153 1316 1750 
L 1316 1428 
z
" transform="scale(0.015625)"/>
     <path id="MalgunGothicBold-61" d="M 534 3075 
Q 756 3203 1109 3283 
Q 1463 3363 1744 3363 
Q 3075 3363 3075 2013 
L 3075 0 
L 2244 0 
L 2244 484 
L 2228 484 
Q 1897 -81 1244 -81 
Q 769 -81 491 186 
Q 213 453 213 903 
Q 213 1844 1331 1994 
L 2247 2119 
Q 2247 2747 1634 2747 
Q 1050 2747 534 2381 
L 534 3075 
z
M 1594 1500 
Q 1031 1428 1031 997 
Q 1031 803 1165 681 
Q 1300 559 1528 559 
Q 1841 559 2044 779 
Q 2247 1000 2247 1334 
L 2247 1584 
L 1594 1500 
z
" transform="scale(0.015625)"/>
     <path id="MalgunGothicBold-62" d="M 1328 409 
L 1328 0 
L 456 0 
L 456 4859 
L 1328 4859 
L 1328 2766 
L 1338 2766 
Q 1719 3363 2425 3363 
Q 3050 3363 3403 2925 
Q 3756 2488 3756 1734 
Q 3756 913 3351 416 
Q 2947 -81 2275 -81 
Q 1659 -81 1338 409 
L 1328 409 
z
M 1316 1403 
Q 1316 1063 1525 831 
Q 1734 600 2050 600 
Q 2431 600 2647 897 
Q 2863 1194 2863 1731 
Q 2863 2178 2666 2431 
Q 2469 2684 2109 2684 
Q 1763 2684 1539 2428 
Q 1316 2172 1316 1775 
L 1316 1403 
z
" transform="scale(0.015625)"/>
     <path id="MalgunGothicBold-3d" d="M 3847 2288 
L 756 2288 
L 756 2875 
L 3847 2875 
L 3847 2288 
z
M 3847 900 
L 756 900 
L 756 1488 
L 3847 1488 
L 3847 900 
z
" transform="scale(0.015625)"/>
     <path id="MalgunGothicBold-31" d="M 2534 4675 
L 2534 0 
L 1663 0 
L 1663 3616 
Q 1516 3481 1247 3365 
Q 978 3250 688 3216 
L 688 3988 
Q 1375 4194 1984 4675 
L 2534 4675 
z
" transform="scale(0.015625)"/>
     <path id="MalgunGothicBold-c740" d="M 3200 2828 
Q 2244 2828 1705 3164 
Q 1166 3500 1166 4056 
Q 1166 4619 1716 4966 
Q 2266 5313 3200 5313 
Q 4134 5313 4684 4966 
Q 5234 4619 5234 4056 
Q 5234 3500 4692 3164 
Q 4150 2828 3200 2828 
z
M 3200 4672 
Q 2600 4672 2283 4505 
Q 1966 4338 1966 4056 
Q 1966 3778 2287 3623 
Q 2609 3469 3200 3469 
Q 3791 3469 4112 3623 
Q 4434 3778 4434 4056 
Q 4434 4338 4117 4505 
Q 3800 4672 3200 4672 
z
M 403 1716 
L 403 2375 
L 5997 2375 
L 5997 1716 
L 403 1716 
z
M 1222 -306 
L 1222 1381 
L 2009 1381 
L 2009 353 
L 5253 353 
L 5253 -306 
L 1222 -306 
z
" transform="scale(0.015625)"/>
     <path id="MalgunGothicBold-20" transform="scale(0.015625)"/>
     <path id="MalgunGothicBold-c804" d="M 4794 1153 
L 4794 3297 
L 3622 3297 
L 3622 3922 
L 4794 3922 
L 4794 5466 
L 5563 5466 
L 5563 1153 
L 4794 1153 
z
M 3603 1906 
Q 2753 2328 2259 3041 
Q 2100 2703 1684 2293 
Q 1269 1884 897 1703 
L 341 2253 
Q 972 2494 1408 3034 
Q 1844 3575 1844 4128 
L 1844 4475 
L 603 4475 
L 603 5125 
L 3841 5125 
L 3841 4475 
L 2631 4475 
L 2631 4153 
Q 2631 3609 3047 3161 
Q 3463 2713 4103 2503 
L 3603 1906 
z
M 1619 -359 
L 1619 1656 
L 2406 1656 
L 2406 300 
L 5625 300 
L 5625 -359 
L 1619 -359 
z
" transform="scale(0.015625)"/>
     <path id="MalgunGothicBold-ccb4" d="M 4872 -563 
L 4872 5466 
L 5650 5466 
L 5650 -563 
L 4872 -563 
z
M 2956 897 
Q 2266 1441 1913 2113 
Q 1497 1256 897 750 
L 294 1222 
Q 844 1591 1183 2227 
Q 1522 2863 1522 3541 
L 1522 3938 
L 506 3938 
L 506 4603 
L 1516 4603 
L 1516 5369 
L 2284 5369 
L 2284 4603 
L 3303 4603 
L 3303 3938 
L 2291 3938 
L 2291 3519 
Q 2291 2888 2614 2322 
Q 2938 1756 3494 1447 
L 2956 897 
z
M 3688 -384 
L 3688 2644 
L 2841 2644 
L 2841 3291 
L 3688 3291 
L 3688 5344 
L 4459 5344 
L 4459 -384 
L 3688 -384 
z
" transform="scale(0.015625)"/>
     <path id="MalgunGothicBold-c758" d="M 4800 -563 
L 4800 5466 
L 5575 5466 
L 5575 -563 
L 4800 -563 
z
M 2328 2059 
Q 1619 2059 1139 2479 
Q 659 2900 659 3572 
Q 659 4250 1150 4672 
Q 1641 5094 2363 5094 
Q 3078 5094 3545 4672 
Q 4013 4250 4013 3572 
Q 4013 2903 3528 2481 
Q 3044 2059 2328 2059 
z
M 2338 4434 
Q 1941 4434 1700 4190 
Q 1459 3947 1459 3572 
Q 1459 3203 1706 2961 
Q 1953 2719 2338 2719 
Q 2728 2719 2970 2964 
Q 3213 3209 3213 3572 
Q 3213 3938 2967 4186 
Q 2722 4434 2338 4434 
z
M 319 434 
L 238 1094 
Q 3100 1094 4525 1184 
L 4569 538 
Q 2584 434 319 434 
z
" transform="scale(0.015625)"/>
     <path id="MalgunGothicBold-33" d="M 456 947 
Q 922 600 1531 600 
Q 1931 600 2175 783 
Q 2419 966 2419 1306 
Q 2419 2022 1338 2022 
L 931 2022 
L 931 2703 
L 1309 2703 
Q 2278 2703 2278 3372 
Q 2278 3997 1534 3997 
Q 1069 3997 631 3691 
L 631 4425 
Q 1100 4675 1738 4675 
Q 2372 4675 2769 4375 
Q 3166 4075 3166 3544 
Q 3166 2647 2250 2406 
L 2250 2394 
Q 2728 2344 3018 2042 
Q 3309 1741 3309 1313 
Q 3309 659 2836 289 
Q 2363 -81 1581 -81 
Q 894 -81 456 156 
L 456 947 
z
" transform="scale(0.015625)"/>
     <path id="MalgunGothicBold-39" d="M 525 831 
Q 894 600 1381 600 
Q 1953 600 2253 1011 
Q 2553 1422 2553 2144 
L 2538 2150 
Q 2241 1656 1581 1656 
Q 997 1656 631 2064 
Q 266 2472 266 3075 
Q 266 3784 706 4229 
Q 1147 4675 1847 4675 
Q 2591 4675 3000 4109 
Q 3409 3544 3409 2534 
Q 3409 1306 2896 612 
Q 2384 -81 1447 -81 
Q 909 -81 525 91 
L 525 831 
z
M 1125 3159 
Q 1125 2778 1314 2553 
Q 1503 2328 1838 2328 
Q 2138 2328 2328 2540 
Q 2519 2753 2519 3056 
Q 2519 3441 2325 3719 
Q 2131 3997 1813 3997 
Q 1497 3997 1311 3750 
Q 1125 3503 1125 3159 
z
" transform="scale(0.015625)"/>
     <path id="MalgunGothicBold-2e" d="M 309 400 
Q 309 609 467 743 
Q 625 878 841 878 
Q 1056 878 1209 743 
Q 1363 609 1363 400 
Q 1363 188 1209 55 
Q 1056 -78 828 -78 
Q 613 -78 461 59 
Q 309 197 309 400 
z
" transform="scale(0.015625)"/>
     <path id="MalgunGothicBold-34" d="M 2969 4600 
L 2969 1653 
L 3519 1653 
L 3519 1016 
L 2969 1016 
L 2969 0 
L 2163 0 
L 2163 1016 
L 159 1016 
L 159 1688 
Q 788 2406 1325 3189 
Q 1863 3972 2147 4600 
L 2969 4600 
z
M 900 1653 
L 2163 1653 
L 2163 3434 
Q 1972 3094 1622 2592 
Q 1272 2091 900 1653 
z
" transform="scale(0.015625)"/>
     <path id="MalgunGothicBold-25" d="M 275 3422 
Q 275 3984 586 4323 
Q 897 4663 1428 4663 
Q 1934 4663 2215 4355 
Q 2497 4047 2497 3503 
Q 2497 2947 2183 2611 
Q 1869 2275 1350 2275 
Q 869 2275 572 2589 
Q 275 2903 275 3422 
z
M 884 3453 
Q 884 2778 1391 2778 
Q 1900 2778 1900 3478 
Q 1900 4163 1406 4163 
Q 884 4163 884 3453 
z
M 4628 4600 
L 1644 -9 
L 959 -9 
L 3934 4600 
L 4628 4600 
z
M 3106 1081 
Q 3106 1644 3417 1984 
Q 3728 2325 4253 2325 
Q 4766 2325 5044 2022 
Q 5322 1719 5322 1163 
Q 5322 613 5009 272 
Q 4697 -69 4181 -69 
Q 3700 -69 3403 245 
Q 3106 559 3106 1081 
z
M 3709 1113 
Q 3709 438 4216 438 
Q 4722 438 4722 1138 
Q 4722 1469 4589 1644 
Q 4456 1819 4228 1819 
Q 3709 1819 3709 1113 
z
" transform="scale(0.015625)"/>
     <path id="MalgunGothicBold-c600" d="M 3541 2822 
Q 3056 2150 2188 2150 
Q 1488 2150 1025 2592 
Q 563 3034 563 3731 
Q 563 4422 1028 4873 
Q 1494 5325 2188 5325 
Q 3050 5325 3541 4659 
L 4781 4659 
L 4781 5466 
L 5556 5466 
L 5556 2003 
L 4781 2003 
L 4781 2822 
L 3541 2822 
z
M 2188 4672 
Q 1819 4672 1581 4408 
Q 1344 4144 1344 3738 
Q 1344 3344 1581 3073 
Q 1819 2803 2188 2803 
Q 2550 2803 2795 3073 
Q 3041 3344 3041 3738 
Q 3041 4150 2797 4411 
Q 2553 4672 2188 4672 
z
M 3794 3444 
L 4781 3444 
L 4781 4031 
L 3794 4031 
Q 3822 3903 3822 3731 
Q 3822 3566 3794 3444 
z
M 5478 -531 
Q 4831 -197 4434 378 
Q 4325 159 4001 -136 
Q 3678 -431 3391 -588 
L 2822 -63 
Q 4044 494 4044 1556 
L 4044 1875 
L 4819 1875 
L 4819 1556 
Q 4819 1050 5148 634 
Q 5478 219 6047 19 
L 5478 -531 
z
M 2719 50 
Q 2456 225 2259 506 
Q 2134 259 1809 -69 
Q 1484 -397 1184 -556 
L 622 -63 
Q 1191 194 1511 622 
Q 1831 1050 1831 1556 
L 1831 1869 
L 2597 1869 
L 2597 1556 
Q 2597 1263 2822 963 
Q 3047 663 3366 538 
L 2719 50 
z
" transform="scale(0.015625)"/>
     <path id="MalgunGothicBold-b2e4" d="M 5197 2522 
L 5197 -563 
L 4416 -563 
L 4416 5466 
L 5197 5466 
L 5197 3181 
L 6203 3181 
L 6203 2522 
L 5197 2522 
z
M 3969 1197 
Q 3269 1100 1619 1100 
L 709 1100 
L 709 4953 
L 3584 4953 
L 3584 4294 
L 1491 4294 
L 1491 1753 
L 1794 1753 
Q 3253 1753 3897 1844 
L 3969 1197 
z
" transform="scale(0.015625)"/>
    </defs>
    <use xlink:href="#MalgunGothicBold-67"/>
    <use xlink:href="#MalgunGothicBold-6f" transform="translate(62.597656 0)"/>
    <use xlink:href="#MalgunGothicBold-6f" transform="translate(124.560547 0)"/>
    <use xlink:href="#MalgunGothicBold-64" transform="translate(186.523438 0)"/>
    <use xlink:href="#MalgunGothicBold-5f" transform="translate(249.121094 0)"/>
    <use xlink:href="#MalgunGothicBold-73" transform="translate(291.699219 0)"/>
    <use xlink:href="#MalgunGothicBold-6c" transform="translate(337.890625 0)"/>
    <use xlink:href="#MalgunGothicBold-65" transform="translate(365.332031 0)"/>
    <use xlink:href="#MalgunGothicBold-65" transform="translate(420.3125 0)"/>
    <use xlink:href="#MalgunGothicBold-70" transform="translate(475.292969 0)"/>
    <use xlink:href="#MalgunGothicBold-5f" transform="translate(537.939453 0)"/>
    <use xlink:href="#MalgunGothicBold-6c" transform="translate(580.517578 0)"/>
    <use xlink:href="#MalgunGothicBold-61" transform="translate(607.958984 0)"/>
    <use xlink:href="#MalgunGothicBold-62" transform="translate(662.255859 0)"/>
    <use xlink:href="#MalgunGothicBold-65" transform="translate(724.902344 0)"/>
    <use xlink:href="#MalgunGothicBold-6c" transform="translate(779.882812 0)"/>
    <use xlink:href="#MalgunGothicBold-3d" transform="translate(807.324219 0)"/>
    <use xlink:href="#MalgunGothicBold-31" transform="translate(879.248047 0)"/>
    <use xlink:href="#MalgunGothicBold-c740" transform="translate(937.207031 0)"/>
    <use xlink:href="#MalgunGothicBold-20" transform="translate(1037.207031 0)"/>
    <use xlink:href="#MalgunGothicBold-c804" transform="translate(1072.363281 0)"/>
    <use xlink:href="#MalgunGothicBold-ccb4" transform="translate(1172.363281 0)"/>
    <use xlink:href="#MalgunGothicBold-c758" transform="translate(1272.363281 0)"/>
    <use xlink:href="#MalgunGothicBold-20" transform="translate(1372.363281 0)"/>
    <use xlink:href="#MalgunGothicBold-33" transform="translate(1407.519531 0)"/>
    <use xlink:href="#MalgunGothicBold-39" transform="translate(1465.478516 0)"/>
    <use xlink:href="#MalgunGothicBold-2e" transform="translate(1523.4375 0)"/>
    <use xlink:href="#MalgunGothicBold-34" transform="translate(1549.609375 0)"/>
    <use xlink:href="#MalgunGothicBold-25" transform="translate(1607.568359 0)"/>
    <use xlink:href="#MalgunGothicBold-c600" transform="translate(1695.117188 0)"/>
    <use xlink:href="#MalgunGothicBold-b2e4" transform="translate(1795.117188 0)"/>
   </g>
  </g>
  <g id="text_13">
   <!-- Merged daily modeling dataset 3,551 rows, 69 participants, 2021-05-24~2022-01-22. -->
   <g style="fill: #6f768a" transform="translate(60.068125 39.848187) scale(0.1 -0.1)">
    <defs>
     <path id="MalgunGothic-4d" d="M 4756 0 
L 4756 3106 
Q 4756 3466 4803 3994 
L 4788 3994 
Q 4713 3684 4653 3559 
L 3050 0 
L 2822 0 
L 1222 3534 
Q 1159 3669 1091 3994 
L 1075 3994 
Q 1100 3822 1100 3116 
L 1100 0 
L 609 0 
L 609 4600 
L 1269 4600 
L 2706 1359 
Q 2881 966 2922 816 
L 2941 816 
Q 2988 944 3166 1375 
L 4638 4600 
L 5259 4600 
L 5259 0 
L 4756 0 
z
" transform="scale(0.015625)"/>
     <path id="MalgunGothic-72" d="M 2225 2775 
Q 2084 2881 1828 2881 
Q 1491 2881 1262 2553 
Q 1034 2225 1034 1681 
L 1034 0 
L 538 0 
L 538 3284 
L 1034 3284 
L 1034 2603 
L 1047 2603 
Q 1159 2950 1389 3145 
Q 1619 3341 1903 3341 
Q 2109 3341 2225 3297 
L 2225 2775 
z
" transform="scale(0.015625)"/>
     <path id="MalgunGothic-61" d="M 616 3050 
Q 1097 3359 1722 3359 
Q 2866 3359 2866 2147 
L 2866 0 
L 2369 0 
L 2369 516 
L 2350 516 
Q 2009 -78 1341 -78 
Q 859 -78 576 180 
Q 294 438 294 869 
Q 294 1784 1375 1934 
L 2366 2078 
Q 2366 2934 1684 2934 
Q 1084 2934 616 2525 
L 616 3050 
z
M 1563 1559 
Q 1178 1509 993 1371 
Q 809 1234 809 903 
Q 809 653 986 500 
Q 1163 347 1450 347 
Q 1847 347 2106 628 
Q 2366 909 2366 1334 
L 2366 1666 
L 1563 1559 
z
" transform="scale(0.015625)"/>
     <path id="MalgunGothic-6c" d="M 541 0 
L 541 4859 
L 1034 4859 
L 1034 0 
L 541 0 
z
" transform="scale(0.015625)"/>
     <path id="MalgunGothic-79" d="M 3119 3284 
L 1597 -544 
Q 1197 -1547 481 -1547 
Q 313 -1547 156 -1509 
L 156 -1056 
Q 316 -1109 459 -1109 
Q 859 -1109 1059 -628 
L 1328 6 
L 47 3284 
L 597 3284 
L 1503 722 
Q 1513 697 1572 488 
L 1588 488 
L 1650 716 
L 2603 3284 
L 3119 3284 
z
" transform="scale(0.015625)"/>
     <path id="MalgunGothic-6d" d="M 5166 0 
L 4669 0 
L 4669 1884 
Q 4669 2463 4495 2702 
Q 4322 2941 3922 2941 
Q 3584 2941 3342 2623 
Q 3100 2306 3100 1875 
L 3100 0 
L 2606 0 
L 2606 1953 
Q 2606 2941 1844 2941 
Q 1497 2941 1265 2642 
Q 1034 2344 1034 1875 
L 1034 0 
L 538 0 
L 538 3284 
L 1034 3284 
L 1034 2763 
L 1047 2763 
Q 1391 3359 2063 3359 
Q 2381 3359 2636 3176 
Q 2891 2994 2991 2675 
Q 3356 3359 4081 3359 
Q 5166 3359 5166 2022 
L 5166 0 
z
" transform="scale(0.015625)"/>
     <path id="MalgunGothic-77" d="M 4634 3284 
L 3650 0 
L 3134 0 
L 2447 2378 
Q 2409 2506 2397 2675 
L 2384 2675 
Q 2384 2609 2316 2384 
L 1572 0 
L 1078 0 
L 81 3284 
L 600 3284 
L 1294 794 
Q 1325 681 1338 503 
L 1363 503 
Q 1378 656 1422 800 
L 2191 3284 
L 2644 3284 
L 3334 788 
Q 3359 700 3381 497 
L 3409 497 
Q 3416 631 3463 788 
L 4144 3284 
L 4634 3284 
z
" transform="scale(0.015625)"/>
     <path id="MalgunGothic-63" d="M 2763 153 
Q 2375 -78 1872 -78 
Q 1184 -78 750 372 
Q 316 822 316 1566 
Q 316 2381 777 2870 
Q 1238 3359 2009 3359 
Q 2434 3359 2766 3200 
L 2766 2681 
Q 2397 2941 1981 2941 
Q 1478 2941 1148 2577 
Q 819 2213 819 1609 
Q 819 1034 1120 689 
Q 1422 344 1947 344 
Q 2381 344 2763 631 
L 2763 153 
z
" transform="scale(0.015625)"/>
     <path id="MalgunGothic-2d" d="M 2213 1634 
L 463 1634 
L 463 2031 
L 2213 2031 
L 2213 1634 
z
" transform="scale(0.015625)"/>
     <path id="MalgunGothic-7e" d="M 3819 2400 
Q 3794 1925 3559 1670 
Q 3325 1416 2925 1416 
Q 2572 1416 2075 1772 
Q 1766 1988 1563 1988 
Q 1106 1988 1094 1419 
L 675 1419 
Q 691 1888 933 2145 
Q 1175 2403 1566 2403 
Q 1903 2403 2319 2116 
Q 2747 1825 2953 1825 
Q 3153 1825 3273 1983 
Q 3394 2141 3400 2400 
L 3819 2400 
z
" transform="scale(0.015625)"/>
    </defs>
    <use xlink:href="#MalgunGothic-4d"/>
    <use xlink:href="#MalgunGothic-65" transform="translate(91.699219 0)"/>
    <use xlink:href="#MalgunGothic-72" transform="translate(145.214844 0)"/>
    <use xlink:href="#MalgunGothic-67" transform="translate(179.191406 0)"/>
    <use xlink:href="#MalgunGothic-65" transform="translate(239.396484 0)"/>
    <use xlink:href="#MalgunGothic-64" transform="translate(292.912109 0)"/>
    <use xlink:href="#MalgunGothic-20" transform="translate(353.117188 0)"/>
    <use xlink:href="#MalgunGothic-64" transform="translate(388.273438 0)"/>
    <use xlink:href="#MalgunGothic-61" transform="translate(448.478516 0)"/>
    <use xlink:href="#MalgunGothic-69" transform="translate(500.480469 0)"/>
    <use xlink:href="#MalgunGothic-6c" transform="translate(525.089844 0)"/>
    <use xlink:href="#MalgunGothic-79" transform="translate(549.699219 0)"/>
    <use xlink:href="#MalgunGothic-20" transform="translate(598.966797 0)"/>
    <use xlink:href="#MalgunGothic-6d" transform="translate(634.123047 0)"/>
    <use xlink:href="#MalgunGothic-6f" transform="translate(722.111328 0)"/>
    <use xlink:href="#MalgunGothic-64" transform="translate(782.023438 0)"/>
    <use xlink:href="#MalgunGothic-65" transform="translate(842.228516 0)"/>
    <use xlink:href="#MalgunGothic-6c" transform="translate(895.744141 0)"/>
    <use xlink:href="#MalgunGothic-69" transform="translate(920.353516 0)"/>
    <use xlink:href="#MalgunGothic-6e" transform="translate(944.962891 0)"/>
    <use xlink:href="#MalgunGothic-67" transform="translate(1002.775391 0)"/>
    <use xlink:href="#MalgunGothic-20" transform="translate(1062.980469 0)"/>
    <use xlink:href="#MalgunGothic-64" transform="translate(1098.136719 0)"/>
    <use xlink:href="#MalgunGothic-61" transform="translate(1158.341797 0)"/>
    <use xlink:href="#MalgunGothic-74" transform="translate(1210.34375 0)"/>
    <use xlink:href="#MalgunGothic-61" transform="translate(1244.816406 0)"/>
    <use xlink:href="#MalgunGothic-73" transform="translate(1296.818359 0)"/>
    <use xlink:href="#MalgunGothic-65" transform="translate(1340.128906 0)"/>
    <use xlink:href="#MalgunGothic-74" transform="translate(1393.644531 0)"/>
    <use xlink:href="#MalgunGothic-20" transform="translate(1428.117188 0)"/>
    <use xlink:href="#MalgunGothic-33" transform="translate(1463.273438 0)"/>
    <use xlink:href="#MalgunGothic-2c" transform="translate(1518.351562 0)"/>
    <use xlink:href="#MalgunGothic-35" transform="translate(1540.226562 0)"/>
    <use xlink:href="#MalgunGothic-35" transform="translate(1595.304688 0)"/>
    <use xlink:href="#MalgunGothic-31" transform="translate(1650.382812 0)"/>
    <use xlink:href="#MalgunGothic-20" transform="translate(1705.460938 0)"/>
    <use xlink:href="#MalgunGothic-72" transform="translate(1740.617188 0)"/>
    <use xlink:href="#MalgunGothic-6f" transform="translate(1774.59375 0)"/>
    <use xlink:href="#MalgunGothic-77" transform="translate(1834.505859 0)"/>
    <use xlink:href="#MalgunGothic-73" transform="translate(1908.138672 0)"/>
    <use xlink:href="#MalgunGothic-2c" transform="translate(1951.449219 0)"/>
    <use xlink:href="#MalgunGothic-20" transform="translate(1973.324219 0)"/>
    <use xlink:href="#MalgunGothic-36" transform="translate(2008.480469 0)"/>
    <use xlink:href="#MalgunGothic-39" transform="translate(2063.558594 0)"/>
    <use xlink:href="#MalgunGothic-20" transform="translate(2118.636719 0)"/>
    <use xlink:href="#MalgunGothic-70" transform="translate(2153.792969 0)"/>
    <use xlink:href="#MalgunGothic-61" transform="translate(2212.476562 0)"/>
    <use xlink:href="#MalgunGothic-72" transform="translate(2264.478516 0)"/>
    <use xlink:href="#MalgunGothic-74" transform="translate(2302.955078 0)"/>
    <use xlink:href="#MalgunGothic-69" transform="translate(2337.427734 0)"/>
    <use xlink:href="#MalgunGothic-63" transform="translate(2362.037109 0)"/>
    <use xlink:href="#MalgunGothic-69" transform="translate(2409.302734 0)"/>
    <use xlink:href="#MalgunGothic-70" transform="translate(2433.912109 0)"/>
    <use xlink:href="#MalgunGothic-61" transform="translate(2492.595703 0)"/>
    <use xlink:href="#MalgunGothic-6e" transform="translate(2544.597656 0)"/>
    <use xlink:href="#MalgunGothic-74" transform="translate(2602.410156 0)"/>
    <use xlink:href="#MalgunGothic-73" transform="translate(2636.882812 0)"/>
    <use xlink:href="#MalgunGothic-2c" transform="translate(2680.193359 0)"/>
    <use xlink:href="#MalgunGothic-20" transform="translate(2702.068359 0)"/>
    <use xlink:href="#MalgunGothic-32" transform="translate(2737.224609 0)"/>
    <use xlink:href="#MalgunGothic-30" transform="translate(2792.302734 0)"/>
    <use xlink:href="#MalgunGothic-32" transform="translate(2847.380859 0)"/>
    <use xlink:href="#MalgunGothic-31" transform="translate(2902.458984 0)"/>
    <use xlink:href="#MalgunGothic-2d" transform="translate(2957.537109 0)"/>
    <use xlink:href="#MalgunGothic-30" transform="translate(2998.552734 0)"/>
    <use xlink:href="#MalgunGothic-35" transform="translate(3053.630859 0)"/>
    <use xlink:href="#MalgunGothic-2d" transform="translate(3108.708984 0)"/>
    <use xlink:href="#MalgunGothic-32" transform="translate(3149.724609 0)"/>
    <use xlink:href="#MalgunGothic-34" transform="translate(3204.802734 0)"/>
    <use xlink:href="#MalgunGothic-7e" transform="translate(3259.880859 0)"/>
    <use xlink:href="#MalgunGothic-32" transform="translate(3329.949219 0)"/>
    <use xlink:href="#MalgunGothic-30" transform="translate(3385.027344 0)"/>
    <use xlink:href="#MalgunGothic-32" transform="translate(3440.105469 0)"/>
    <use xlink:href="#MalgunGothic-32" transform="translate(3495.183594 0)"/>
    <use xlink:href="#MalgunGothic-2d" transform="translate(3550.261719 0)"/>
    <use xlink:href="#MalgunGothic-30" transform="translate(3591.277344 0)"/>
    <use xlink:href="#MalgunGothic-31" transform="translate(3646.355469 0)"/>
    <use xlink:href="#MalgunGothic-2d" transform="translate(3701.433594 0)"/>
    <use xlink:href="#MalgunGothic-32" transform="translate(3742.449219 0)"/>
    <use xlink:href="#MalgunGothic-32" transform="translate(3797.527344 0)"/>
    <use xlink:href="#MalgunGothic-2e" transform="translate(3852.605469 0)"/>
   </g>
  </g>
 </g>
 <defs>
  <clipPath id="p78df2f7ae1">
   <rect x="60.068125" y="69.84" width="418.5" height="296.496"/>
  </clipPath>
 </defs>
</svg>
