<?xml version="1.0" encoding="utf-8" standalone="no"?>
<!DOCTYPE svg PUBLIC "-//W3C//DTD SVG 1.1//EN"
  "http://www.w3.org/Graphics/SVG/1.1/DTD/svg11.dtd">
<svg xmlns:xlink="http://www.w3.org/1999/xlink" width="823.647188pt" height="447.087375pt" viewBox="0 0 823.647188 447.087375" xmlns="http://www.w3.org/2000/svg" version="1.1">
 <metadata>
  <rdf:RDF xmlns:dc="http://purl.org/dc/elements/1.1/" xmlns:cc="http://creativecommons.org/ns#" xmlns:rdf="http://www.w3.org/1999/02/22-rdf-syntax-ns#">
   <cc:Work>
    <dc:type rdf:resource="http://purl.org/dc/dcmitype/StillImage"/>
    <dc:date>2026-06-30T14:57:26.631058</dc:date>
    <dc:format>image/svg+xml</dc:format>
    <dc:creator>
     <cc:Agent>
      <dc:title>Matplotlib v3.10.9, https://matplotlib.org/</dc:title>
     </cc:Agent>
    </dc:creator>
   </cc:Work>
  </rdf:RDF>
 </metadata>
 <defs>
  <style type="text/css">*{stroke-linejoin: round; stroke-linecap: butt}</style>
 </defs>
 <g id="figure_1">
  <g id="patch_1">
   <path d="M 0 447.087375 
L 823.647188 447.087375 
L 823.647188 0 
L 0 0 
z
" style="fill: #fcfcfd"/>
  </g>
  <g id="axes_1">
   <g id="patch_2">
    <path d="M 172.405 403.488 
L 730.405 403.488 
L 730.405 76.32 
L 172.405 76.32 
z
" style="fill: #ffffff"/>
   </g>
   <g id="matplotlib.axis_1">
    <g id="xtick_1">
     <g id="line2d_1">
      <path d="M 172.405 403.488 
L 172.405 76.32 
" clip-path="url(#pd68c0db646)" style="fill: none; stroke: #e6e8f0; stroke-width: 0.8; stroke-linecap: round"/>
     </g>
     <g id="text_1">
      <!-- 0 -->
      <g style="fill: #262626" transform="translate(169.375703 421.339406) scale(0.11 -0.11)">
       <defs>
        <path id="MalgunGothic-30" d="M 278 2206 
Q 278 3425 675 4050 
Q 1072 4675 1819 4675 
Q 3253 4675 3253 2319 
Q 3253 1156 2854 539 
Q 2456 -78 1716 -78 
Q 1016 -78 647 520 
Q 278 1119 278 2206 
z
M 784 2231 
Q 784 344 1769 344 
Q 2747 344 2747 2259 
Q 2747 4250 1794 4250 
Q 784 4250 784 2231 
z
" transform="scale(0.015625)"/>
       </defs>
       <use xlink:href="#MalgunGothic-30"/>
      </g>
     </g>
    </g>
    <g id="xtick_2">
     <g id="line2d_2">
      <path d="M 279.628497 403.488 
L 279.628497 76.32 
" clip-path="url(#pd68c0db646)" style="fill: none; stroke: #e6e8f0; stroke-width: 0.8; stroke-linecap: round"/>
     </g>
     <g id="text_2">
      <!-- 50k -->
      <g style="fill: #262626" transform="translate(270.787247 421.339406) scale(0.11 -0.11)">
       <defs>
        <path id="MalgunGothic-35" d="M 3072 1403 
Q 3072 722 2636 322 
Q 2200 -78 1469 -78 
Q 828 -78 516 113 
L 516 650 
Q 994 344 1475 344 
Q 1969 344 2270 630 
Q 2572 916 2572 1372 
Q 2572 1838 2265 2092 
Q 1959 2347 1381 2347 
Q 994 2347 603 2300 
L 759 4600 
L 2869 4600 
L 2869 4147 
L 1206 4147 
L 1106 2763 
Q 1347 2784 1547 2784 
Q 2263 2784 2667 2414 
Q 3072 2044 3072 1403 
z
" transform="scale(0.015625)"/>
        <path id="MalgunGothic-6b" d="M 3228 0 
L 2525 0 
L 1047 1575 
L 1034 1575 
L 1034 0 
L 538 0 
L 538 4859 
L 1034 4859 
L 1034 1778 
L 1047 1778 
L 2450 3284 
L 3106 3284 
L 1563 1694 
L 3228 0 
z
" transform="scale(0.015625)"/>
       </defs>
       <use xlink:href="#MalgunGothic-35"/>
       <use xlink:href="#MalgunGothic-30" transform="translate(55.078125 0)"/>
       <use xlink:href="#MalgunGothic-6b" transform="translate(110.15625 0)"/>
      </g>
     </g>
    </g>
    <g id="xtick_3">
     <g id="line2d_3">
      <path d="M 386.851994 403.488 
L 386.851994 76.32 
" clip-path="url(#pd68c0db646)" style="fill: none; stroke: #e6e8f0; stroke-width: 0.8; stroke-linecap: round"/>
     </g>
     <g id="text_3">
      <!-- 100k -->
      <g style="fill: #262626" transform="translate(374.981447 421.339406) scale(0.11 -0.11)">
       <defs>
        <path id="MalgunGothic-31" d="M 2231 0 
L 1734 0 
L 1734 3972 
Q 1591 3828 1266 3661 
Q 941 3494 672 3428 
L 672 3959 
Q 1016 4056 1409 4275 
Q 1803 4494 2031 4700 
L 2231 4700 
L 2231 0 
z
" transform="scale(0.015625)"/>
       </defs>
       <use xlink:href="#MalgunGothic-31"/>
       <use xlink:href="#MalgunGothic-30" transform="translate(55.078125 0)"/>
       <use xlink:href="#MalgunGothic-30" transform="translate(110.15625 0)"/>
       <use xlink:href="#MalgunGothic-6b" transform="translate(165.234375 0)"/>
      </g>
     </g>
    </g>
    <g id="xtick_4">
     <g id="line2d_4">
      <path d="M 494.075491 403.488 
L 494.075491 76.32 
" clip-path="url(#pd68c0db646)" style="fill: none; stroke: #e6e8f0; stroke-width: 0.8; stroke-linecap: round"/>
     </g>
     <g id="text_4">
      <!-- 150k -->
      <g style="fill: #262626" transform="translate(482.204944 421.339406) scale(0.11 -0.11)">
       <use xlink:href="#MalgunGothic-31"/>
       <use xlink:href="#MalgunGothic-35" transform="translate(55.078125 0)"/>
       <use xlink:href="#MalgunGothic-30" transform="translate(110.15625 0)"/>
       <use xlink:href="#MalgunGothic-6b" transform="translate(165.234375 0)"/>
      </g>
     </g>
    </g>
    <g id="xtick_5">
     <g id="line2d_5">
      <path d="M 601.298988 403.488 
L 601.298988 76.32 
" clip-path="url(#pd68c0db646)" style="fill: none; stroke: #e6e8f0; stroke-width: 0.8; stroke-linecap: round"/>
     </g>
     <g id="text_5">
      <!-- 200k -->
      <g style="fill: #262626" transform="translate(589.428442 421.339406) scale(0.11 -0.11)">
       <defs>
        <path id="MalgunGothic-32" d="M 2519 3372 
Q 2519 3784 2275 4018 
Q 2031 4253 1628 4253 
Q 1341 4253 1053 4104 
Q 766 3956 534 3697 
L 534 4234 
Q 981 4675 1691 4675 
Q 2281 4675 2642 4334 
Q 3003 3994 3003 3416 
Q 3003 2919 2772 2545 
Q 2541 2172 1984 1775 
Q 1459 1406 1254 1215 
Q 1050 1025 967 854 
Q 884 684 884 450 
L 3116 450 
L 3116 0 
L 356 0 
L 356 225 
Q 356 603 461 870 
Q 566 1138 811 1392 
Q 1056 1647 1597 2022 
Q 2091 2363 2305 2670 
Q 2519 2978 2519 3372 
z
" transform="scale(0.015625)"/>
       </defs>
       <use xlink:href="#MalgunGothic-32"/>
       <use xlink:href="#MalgunGothic-30" transform="translate(55.078125 0)"/>
       <use xlink:href="#MalgunGothic-30" transform="translate(110.15625 0)"/>
       <use xlink:href="#MalgunGothic-6b" transform="translate(165.234375 0)"/>
      </g>
     </g>
    </g>
    <g id="xtick_6">
     <g id="line2d_6">
      <path d="M 708.522486 403.488 
L 708.522486 76.32 
" clip-path="url(#pd68c0db646)" style="fill: none; stroke: #e6e8f0; stroke-width: 0.8; stroke-linecap: round"/>
     </g>
     <g id="text_6">
      <!-- 250k -->
      <g style="fill: #262626" transform="translate(696.651939 421.339406) scale(0.11 -0.11)">
       <use xlink:href="#MalgunGothic-32"/>
       <use xlink:href="#MalgunGothic-35" transform="translate(55.078125 0)"/>
       <use xlink:href="#MalgunGothic-30" transform="translate(110.15625 0)"/>
       <use xlink:href="#MalgunGothic-6b" transform="translate(165.234375 0)"/>
      </g>
     </g>
    </g>
    <g id="text_7">
     <!-- 추출 row 수 -->
     <g style="fill: #1f2430" transform="translate(419.134375 437.0505) scale(0.12 -0.12)">
      <defs>
       <path id="MalgunGothic-cd94" d="M 5434 2734 
Q 4791 2863 4103 3227 
Q 3416 3591 3200 3922 
Q 3009 3600 2379 3253 
Q 1750 2906 997 2725 
L 672 3128 
Q 1519 3222 2198 3634 
Q 2878 4047 2956 4525 
L 1025 4525 
L 1025 4941 
L 2969 4941 
L 2969 5563 
L 3444 5563 
L 3444 4941 
L 5375 4941 
L 5375 4525 
L 3444 4525 
Q 3516 4078 4166 3686 
Q 4816 3294 5734 3144 
L 5434 2734 
z
M 3431 1691 
L 3431 -556 
L 2963 -556 
L 2963 1691 
L 403 1691 
L 403 2106 
L 5997 2106 
L 5997 1691 
L 3431 1691 
z
" transform="scale(0.015625)"/>
       <path id="MalgunGothic-cd9c" d="M 5466 3334 
Q 4759 3400 4114 3664 
Q 3469 3928 3213 4225 
Q 2966 3931 2323 3670 
Q 1681 3409 966 3341 
L 709 3750 
Q 1328 3725 2017 3970 
Q 2706 4216 2906 4603 
L 1056 4603 
L 1056 5019 
L 2969 5019 
L 2969 5550 
L 3444 5550 
L 3444 5019 
L 5344 5019 
L 5344 4603 
L 3494 4603 
Q 3691 4241 4356 3995 
Q 5022 3750 5691 3750 
L 5466 3334 
z
M 1319 -416 
L 1319 947 
L 4616 947 
L 4616 1478 
L 1319 1478 
L 1319 1888 
L 2963 1888 
L 2963 2484 
L 403 2484 
L 403 2900 
L 5997 2900 
L 5997 2484 
L 3438 2484 
L 3438 1888 
L 5075 1888 
L 5075 544 
L 1778 544 
L 1778 0 
L 5234 0 
L 5234 -416 
L 1319 -416 
z
" transform="scale(0.015625)"/>
       <path id="MalgunGothic-20" transform="scale(0.015625)"/>
       <path id="MalgunGothic-72" d="M 2225 2775 
Q 2084 2881 1828 2881 
Q 1491 2881 1262 2553 
Q 1034 2225 1034 1681 
L 1034 0 
L 538 0 
L 538 3284 
L 1034 3284 
L 1034 2603 
L 1047 2603 
Q 1159 2950 1389 3145 
Q 1619 3341 1903 3341 
Q 2109 3341 2225 3297 
L 2225 2775 
z
" transform="scale(0.015625)"/>
       <path id="MalgunGothic-6f" d="M 316 1600 
Q 316 2419 761 2889 
Q 1206 3359 1978 3359 
Q 2697 3359 3111 2907 
Q 3525 2456 3525 1650 
Q 3525 869 3078 395 
Q 2631 -78 1900 -78 
Q 1184 -78 750 384 
Q 316 847 316 1600 
z
M 819 1622 
Q 819 1041 1123 692 
Q 1428 344 1934 344 
Q 2459 344 2739 680 
Q 3019 1016 3019 1634 
Q 3019 2256 2737 2598 
Q 2456 2941 1934 2941 
Q 1425 2941 1122 2587 
Q 819 2234 819 1622 
z
" transform="scale(0.015625)"/>
       <path id="MalgunGothic-77" d="M 4634 3284 
L 3650 0 
L 3134 0 
L 2447 2378 
Q 2409 2506 2397 2675 
L 2384 2675 
Q 2384 2609 2316 2384 
L 1572 0 
L 1078 0 
L 81 3284 
L 600 3284 
L 1294 794 
Q 1325 681 1338 503 
L 1363 503 
Q 1378 656 1422 800 
L 2191 3284 
L 2644 3284 
L 3334 788 
Q 3359 700 3381 497 
L 3409 497 
Q 3416 631 3463 788 
L 4144 3284 
L 4634 3284 
z
" transform="scale(0.015625)"/>
       <path id="MalgunGothic-c218" d="M 5491 2994 
Q 4750 3097 4078 3498 
Q 3406 3900 3200 4275 
Q 2975 3891 2309 3491 
Q 1644 3091 922 2956 
L 634 3347 
Q 1559 3450 2261 3942 
Q 2963 4434 2963 5013 
L 2963 5275 
L 3431 5275 
L 3431 5013 
Q 3431 4431 4118 3948 
Q 4806 3466 5766 3378 
L 5491 2994 
z
M 3431 1838 
L 3431 -563 
L 2963 -563 
L 2963 1838 
L 403 1838 
L 403 2253 
L 5997 2253 
L 5997 1838 
L 3431 1838 
z
" transform="scale(0.015625)"/>
      </defs>
      <use xlink:href="#MalgunGothic-cd94"/>
      <use xlink:href="#MalgunGothic-cd9c" transform="translate(100 0)"/>
      <use xlink:href="#MalgunGothic-20" transform="translate(200 0)"/>
      <use xlink:href="#MalgunGothic-72" transform="translate(235.15625 0)"/>
      <use xlink:href="#MalgunGothic-6f" transform="translate(269.132812 0)"/>
      <use xlink:href="#MalgunGothic-77" transform="translate(329.044922 0)"/>
      <use xlink:href="#MalgunGothic-20" transform="translate(402.677734 0)"/>
      <use xlink:href="#MalgunGothic-c218" transform="translate(437.833984 0)"/>
     </g>
    </g>
   </g>
   <g id="matplotlib.axis_2">
    <g id="ytick_1">
     <g id="line2d_7">
      <path d="M 172.405 375.097388 
L 730.405 375.097388 
" clip-path="url(#pd68c0db646)" style="fill: none; stroke: #e6e8f0; stroke-width: 0.8; stroke-linecap: round"/>
     </g>
     <g id="text_8">
      <!-- surveys_responses -->
      <g style="fill: #262626" transform="translate(72.00375 379.243873) scale(0.11 -0.11)">
       <defs>
        <path id="MalgunGothic-73" d="M 331 669 
Q 763 350 1278 350 
Q 1978 350 1978 822 
Q 1978 1025 1825 1158 
Q 1672 1291 1222 1459 
Q 703 1666 520 1878 
Q 338 2091 338 2416 
Q 338 2834 700 3096 
Q 1063 3359 1584 3359 
Q 2003 3359 2341 3213 
L 2341 2697 
Q 1975 2934 1506 2934 
Q 1200 2934 1025 2798 
Q 850 2663 850 2459 
Q 850 2241 979 2125 
Q 1109 2009 1544 1838 
Q 2131 1609 2309 1390 
Q 2488 1172 2488 869 
Q 2488 431 2127 176 
Q 1766 -78 1203 -78 
Q 694 -78 331 122 
L 331 669 
z
" transform="scale(0.015625)"/>
        <path id="MalgunGothic-75" d="M 3166 0 
L 2669 0 
L 2669 519 
L 2656 519 
Q 2331 -78 1644 -78 
Q 469 -78 469 1322 
L 469 3284 
L 959 3284 
L 959 1403 
Q 959 344 1766 344 
Q 2159 344 2414 636 
Q 2669 928 2669 1394 
L 2669 3284 
L 3166 3284 
L 3166 0 
z
" transform="scale(0.015625)"/>
        <path id="MalgunGothic-76" d="M 3084 3284 
L 1769 0 
L 1294 0 
L 47 3284 
L 594 3284 
L 1441 872 
Q 1531 609 1556 425 
L 1572 425 
Q 1603 669 1672 863 
L 2563 3284 
L 3084 3284 
z
" transform="scale(0.015625)"/>
        <path id="MalgunGothic-65" d="M 3156 1519 
L 828 1519 
Q 844 950 1133 648 
Q 1422 347 1909 347 
Q 2472 347 2934 719 
L 2934 244 
Q 2494 -78 1794 -78 
Q 1100 -78 708 376 
Q 316 831 316 1634 
Q 316 2381 747 2870 
Q 1178 3359 1816 3359 
Q 2453 3359 2804 2942 
Q 3156 2525 3156 1788 
L 3156 1519 
z
M 2644 1956 
Q 2644 2416 2423 2675 
Q 2203 2934 1809 2934 
Q 1438 2934 1169 2667 
Q 900 2400 834 1956 
L 2644 1956 
z
" transform="scale(0.015625)"/>
        <path id="MalgunGothic-79" d="M 3119 3284 
L 1597 -544 
Q 1197 -1547 481 -1547 
Q 313 -1547 156 -1509 
L 156 -1056 
Q 316 -1109 459 -1109 
Q 859 -1109 1059 -628 
L 1328 6 
L 47 3284 
L 597 3284 
L 1503 722 
Q 1513 697 1572 488 
L 1588 488 
L 1650 716 
L 2603 3284 
L 3119 3284 
z
" transform="scale(0.015625)"/>
        <path id="MalgunGothic-5f" d="M 2725 -953 
L 0 -953 
L 0 -569 
L 2725 -569 
L 2725 -953 
z
" transform="scale(0.015625)"/>
        <path id="MalgunGothic-70" d="M 1034 481 
L 1034 -1513 
L 538 -1513 
L 538 3284 
L 1034 3284 
L 1034 2703 
L 1047 2703 
Q 1438 3359 2184 3359 
Q 2809 3359 3171 2920 
Q 3534 2481 3534 1738 
Q 3534 906 3126 414 
Q 2719 -78 2034 -78 
Q 1394 -78 1047 481 
L 1034 481 
z
M 1034 1331 
Q 1034 922 1307 633 
Q 1581 344 1991 344 
Q 2475 344 2751 716 
Q 3028 1088 3028 1753 
Q 3028 2300 2767 2620 
Q 2506 2941 2072 2941 
Q 1619 2941 1326 2619 
Q 1034 2297 1034 1806 
L 1034 1331 
z
" transform="scale(0.015625)"/>
        <path id="MalgunGothic-6e" d="M 3238 0 
L 2741 0 
L 2741 1875 
Q 2741 2941 1963 2941 
Q 1563 2941 1298 2639 
Q 1034 2338 1034 1872 
L 1034 0 
L 538 0 
L 538 3284 
L 1034 3284 
L 1034 2734 
L 1047 2734 
Q 1416 3359 2125 3359 
Q 2666 3359 2952 3012 
Q 3238 2666 3238 2006 
L 3238 0 
z
" transform="scale(0.015625)"/>
       </defs>
       <use xlink:href="#MalgunGothic-73"/>
       <use xlink:href="#MalgunGothic-75" transform="translate(43.310547 0)"/>
       <use xlink:href="#MalgunGothic-72" transform="translate(101.123047 0)"/>
       <use xlink:href="#MalgunGothic-76" transform="translate(140.849609 0)"/>
       <use xlink:href="#MalgunGothic-65" transform="translate(188.955078 0)"/>
       <use xlink:href="#MalgunGothic-79" transform="translate(242.470703 0)"/>
       <use xlink:href="#MalgunGothic-73" transform="translate(291.738281 0)"/>
       <use xlink:href="#MalgunGothic-5f" transform="translate(335.048828 0)"/>
       <use xlink:href="#MalgunGothic-72" transform="translate(377.626953 0)"/>
       <use xlink:href="#MalgunGothic-65" transform="translate(411.603516 0)"/>
       <use xlink:href="#MalgunGothic-73" transform="translate(465.119141 0)"/>
       <use xlink:href="#MalgunGothic-70" transform="translate(508.429688 0)"/>
       <use xlink:href="#MalgunGothic-6f" transform="translate(568.488281 0)"/>
       <use xlink:href="#MalgunGothic-6e" transform="translate(628.400391 0)"/>
       <use xlink:href="#MalgunGothic-73" transform="translate(686.212891 0)"/>
       <use xlink:href="#MalgunGothic-65" transform="translate(729.523438 0)"/>
       <use xlink:href="#MalgunGothic-73" transform="translate(783.039062 0)"/>
      </g>
     </g>
    </g>
    <g id="ytick_2">
     <g id="line2d_8">
      <path d="M 172.405 341.299041 
L 730.405 341.299041 
" clip-path="url(#pd68c0db646)" style="fill: none; stroke: #e6e8f0; stroke-width: 0.8; stroke-linecap: round"/>
     </g>
     <g id="text_9">
      <!-- fitbit_daily_spo2 -->
      <g style="fill: #262626" transform="translate(83.258125 345.536619) scale(0.11 -0.11)">
       <defs>
        <path id="MalgunGothic-66" d="M 2128 4422 
Q 1975 4506 1778 4506 
Q 1222 4506 1222 3800 
L 1222 3284 
L 1991 3284 
L 1991 2856 
L 1222 2856 
L 1222 0 
L 734 0 
L 734 2856 
L 172 2856 
L 172 3284 
L 734 3284 
L 734 3825 
Q 734 4341 1026 4636 
Q 1319 4931 1753 4931 
Q 1994 4931 2128 4875 
L 2128 4422 
z
" transform="scale(0.015625)"/>
        <path id="MalgunGothic-69" d="M 472 4466 
Q 472 4606 565 4701 
Q 659 4797 794 4797 
Q 934 4797 1029 4700 
Q 1125 4603 1125 4466 
Q 1125 4325 1029 4231 
Q 934 4138 794 4138 
Q 659 4138 565 4230 
Q 472 4322 472 4466 
z
M 541 0 
L 541 3284 
L 1034 3284 
L 1034 0 
L 541 0 
z
" transform="scale(0.015625)"/>
        <path id="MalgunGothic-74" d="M 2031 31 
Q 1844 -72 1553 -72 
Q 706 -72 706 881 
L 706 2856 
L 138 2856 
L 138 3284 
L 706 3284 
L 706 4091 
L 1200 4250 
L 1200 3284 
L 2031 3284 
L 2031 2856 
L 1200 2856 
L 1200 972 
Q 1200 625 1315 487 
Q 1431 350 1691 350 
Q 1888 350 2031 459 
L 2031 31 
z
" transform="scale(0.015625)"/>
        <path id="MalgunGothic-62" d="M 1034 481 
L 1034 0 
L 538 0 
L 538 4859 
L 1034 4859 
L 1034 2703 
L 1047 2703 
Q 1438 3359 2184 3359 
Q 2813 3359 3173 2917 
Q 3534 2475 3534 1738 
Q 3534 906 3126 414 
Q 2719 -78 2034 -78 
Q 1384 -78 1047 481 
L 1034 481 
z
M 1034 1334 
Q 1034 922 1307 633 
Q 1581 344 1991 344 
Q 2475 344 2751 716 
Q 3028 1088 3028 1753 
Q 3028 2303 2767 2622 
Q 2506 2941 2072 2941 
Q 1616 2941 1325 2616 
Q 1034 2291 1034 1803 
L 1034 1334 
z
" transform="scale(0.015625)"/>
        <path id="MalgunGothic-64" d="M 3313 0 
L 2822 0 
L 2822 566 
L 2809 566 
Q 2444 -78 1675 -78 
Q 1056 -78 686 364 
Q 316 806 316 1566 
Q 316 2375 728 2867 
Q 1141 3359 1816 3359 
Q 2494 3359 2809 2822 
L 2822 2822 
L 2822 4859 
L 3313 4859 
L 3313 0 
z
M 2822 1978 
Q 2822 2378 2550 2659 
Q 2278 2941 1872 2941 
Q 1384 2941 1101 2577 
Q 819 2213 819 1591 
Q 819 1025 1086 684 
Q 1353 344 1813 344 
Q 2250 344 2536 666 
Q 2822 988 2822 1478 
L 2822 1978 
z
" transform="scale(0.015625)"/>
        <path id="MalgunGothic-61" d="M 616 3050 
Q 1097 3359 1722 3359 
Q 2866 3359 2866 2147 
L 2866 0 
L 2369 0 
L 2369 516 
L 2350 516 
Q 2009 -78 1341 -78 
Q 859 -78 576 180 
Q 294 438 294 869 
Q 294 1784 1375 1934 
L 2366 2078 
Q 2366 2934 1684 2934 
Q 1084 2934 616 2525 
L 616 3050 
z
M 1563 1559 
Q 1178 1509 993 1371 
Q 809 1234 809 903 
Q 809 653 986 500 
Q 1163 347 1450 347 
Q 1847 347 2106 628 
Q 2366 909 2366 1334 
L 2366 1666 
L 1563 1559 
z
" transform="scale(0.015625)"/>
        <path id="MalgunGothic-6c" d="M 541 0 
L 541 4859 
L 1034 4859 
L 1034 0 
L 541 0 
z
" transform="scale(0.015625)"/>
       </defs>
       <use xlink:href="#MalgunGothic-66"/>
       <use xlink:href="#MalgunGothic-69" transform="translate(31.640625 0)"/>
       <use xlink:href="#MalgunGothic-74" transform="translate(56.25 0)"/>
       <use xlink:href="#MalgunGothic-62" transform="translate(90.722656 0)"/>
       <use xlink:href="#MalgunGothic-69" transform="translate(150.78125 0)"/>
       <use xlink:href="#MalgunGothic-74" transform="translate(175.390625 0)"/>
       <use xlink:href="#MalgunGothic-5f" transform="translate(209.863281 0)"/>
       <use xlink:href="#MalgunGothic-64" transform="translate(252.441406 0)"/>
       <use xlink:href="#MalgunGothic-61" transform="translate(312.646484 0)"/>
       <use xlink:href="#MalgunGothic-69" transform="translate(364.648438 0)"/>
       <use xlink:href="#MalgunGothic-6c" transform="translate(389.257812 0)"/>
       <use xlink:href="#MalgunGothic-79" transform="translate(413.867188 0)"/>
       <use xlink:href="#MalgunGothic-5f" transform="translate(463.134766 0)"/>
       <use xlink:href="#MalgunGothic-73" transform="translate(505.712891 0)"/>
       <use xlink:href="#MalgunGothic-70" transform="translate(549.023438 0)"/>
       <use xlink:href="#MalgunGothic-6f" transform="translate(609.082031 0)"/>
       <use xlink:href="#MalgunGothic-32" transform="translate(668.994141 0)"/>
      </g>
     </g>
    </g>
    <g id="ytick_3">
     <g id="line2d_9">
      <path d="M 172.405 307.500694 
L 730.405 307.500694 
" clip-path="url(#pd68c0db646)" style="fill: none; stroke: #e6e8f0; stroke-width: 0.8; stroke-linecap: round"/>
     </g>
     <g id="text_10">
      <!-- fitbit_stress_score -->
      <g style="fill: #262626" transform="translate(76.565313 311.676397) scale(0.11 -0.11)">
       <defs>
        <path id="MalgunGothic-63" d="M 2763 153 
Q 2375 -78 1872 -78 
Q 1184 -78 750 372 
Q 316 822 316 1566 
Q 316 2381 777 2870 
Q 1238 3359 2009 3359 
Q 2434 3359 2766 3200 
L 2766 2681 
Q 2397 2941 1981 2941 
Q 1478 2941 1148 2577 
Q 819 2213 819 1609 
Q 819 1034 1120 689 
Q 1422 344 1947 344 
Q 2381 344 2763 631 
L 2763 153 
z
" transform="scale(0.015625)"/>
       </defs>
       <use xlink:href="#MalgunGothic-66"/>
       <use xlink:href="#MalgunGothic-69" transform="translate(31.640625 0)"/>
       <use xlink:href="#MalgunGothic-74" transform="translate(56.25 0)"/>
       <use xlink:href="#MalgunGothic-62" transform="translate(90.722656 0)"/>
       <use xlink:href="#MalgunGothic-69" transform="translate(150.78125 0)"/>
       <use xlink:href="#MalgunGothic-74" transform="translate(175.390625 0)"/>
       <use xlink:href="#MalgunGothic-5f" transform="translate(209.863281 0)"/>
       <use xlink:href="#MalgunGothic-73" transform="translate(252.441406 0)"/>
       <use xlink:href="#MalgunGothic-74" transform="translate(295.751953 0)"/>
       <use xlink:href="#MalgunGothic-72" transform="translate(330.224609 0)"/>
       <use xlink:href="#MalgunGothic-65" transform="translate(364.201172 0)"/>
       <use xlink:href="#MalgunGothic-73" transform="translate(417.716797 0)"/>
       <use xlink:href="#MalgunGothic-73" transform="translate(461.027344 0)"/>
       <use xlink:href="#MalgunGothic-5f" transform="translate(504.337891 0)"/>
       <use xlink:href="#MalgunGothic-73" transform="translate(546.916016 0)"/>
       <use xlink:href="#MalgunGothic-63" transform="translate(590.226562 0)"/>
       <use xlink:href="#MalgunGothic-6f" transform="translate(637.492188 0)"/>
       <use xlink:href="#MalgunGothic-72" transform="translate(697.404297 0)"/>
       <use xlink:href="#MalgunGothic-65" transform="translate(731.380859 0)"/>
      </g>
     </g>
    </g>
    <g id="ytick_4">
     <g id="line2d_10">
      <path d="M 172.405 273.702347 
L 730.405 273.702347 
" clip-path="url(#pd68c0db646)" style="fill: none; stroke: #e6e8f0; stroke-width: 0.8; stroke-linecap: round"/>
     </g>
     <g id="text_11">
      <!-- fitbit_daily_hrv_summary -->
      <g style="fill: #262626" transform="translate(40.507656 277.939925) scale(0.11 -0.11)">
       <defs>
        <path id="MalgunGothic-68" d="M 3238 0 
L 2744 0 
L 2744 1894 
Q 2744 2941 1963 2941 
Q 1572 2941 1303 2637 
Q 1034 2334 1034 1859 
L 1034 0 
L 538 0 
L 538 4859 
L 1034 4859 
L 1034 2734 
L 1047 2734 
Q 1425 3359 2128 3359 
Q 3238 3359 3238 2022 
L 3238 0 
z
" transform="scale(0.015625)"/>
        <path id="MalgunGothic-6d" d="M 5166 0 
L 4669 0 
L 4669 1884 
Q 4669 2463 4495 2702 
Q 4322 2941 3922 2941 
Q 3584 2941 3342 2623 
Q 3100 2306 3100 1875 
L 3100 0 
L 2606 0 
L 2606 1953 
Q 2606 2941 1844 2941 
Q 1497 2941 1265 2642 
Q 1034 2344 1034 1875 
L 1034 0 
L 538 0 
L 538 3284 
L 1034 3284 
L 1034 2763 
L 1047 2763 
Q 1391 3359 2063 3359 
Q 2381 3359 2636 3176 
Q 2891 2994 2991 2675 
Q 3356 3359 4081 3359 
Q 5166 3359 5166 2022 
L 5166 0 
z
" transform="scale(0.015625)"/>
       </defs>
       <use xlink:href="#MalgunGothic-66"/>
       <use xlink:href="#MalgunGothic-69" transform="translate(31.640625 0)"/>
       <use xlink:href="#MalgunGothic-74" transform="translate(56.25 0)"/>
       <use xlink:href="#MalgunGothic-62" transform="translate(90.722656 0)"/>
       <use xlink:href="#MalgunGothic-69" transform="translate(150.78125 0)"/>
       <use xlink:href="#MalgunGothic-74" transform="translate(175.390625 0)"/>
       <use xlink:href="#MalgunGothic-5f" transform="translate(209.863281 0)"/>
       <use xlink:href="#MalgunGothic-64" transform="translate(252.441406 0)"/>
       <use xlink:href="#MalgunGothic-61" transform="translate(312.646484 0)"/>
       <use xlink:href="#MalgunGothic-69" transform="translate(364.648438 0)"/>
       <use xlink:href="#MalgunGothic-6c" transform="translate(389.257812 0)"/>
       <use xlink:href="#MalgunGothic-79" transform="translate(413.867188 0)"/>
       <use xlink:href="#MalgunGothic-5f" transform="translate(463.134766 0)"/>
       <use xlink:href="#MalgunGothic-68" transform="translate(505.712891 0)"/>
       <use xlink:href="#MalgunGothic-72" transform="translate(563.574219 0)"/>
       <use xlink:href="#MalgunGothic-76" transform="translate(603.300781 0)"/>
       <use xlink:href="#MalgunGothic-5f" transform="translate(652.03125 0)"/>
       <use xlink:href="#MalgunGothic-73" transform="translate(694.609375 0)"/>
       <use xlink:href="#MalgunGothic-75" transform="translate(737.919922 0)"/>
       <use xlink:href="#MalgunGothic-6d" transform="translate(795.732422 0)"/>
       <use xlink:href="#MalgunGothic-6d" transform="translate(883.720703 0)"/>
       <use xlink:href="#MalgunGothic-61" transform="translate(971.708984 0)"/>
       <use xlink:href="#MalgunGothic-72" transform="translate(1023.710938 0)"/>
       <use xlink:href="#MalgunGothic-79" transform="translate(1063.4375 0)"/>
      </g>
     </g>
    </g>
    <g id="ytick_5">
     <g id="line2d_11">
      <path d="M 172.405 239.904 
L 730.405 239.904 
" clip-path="url(#pd68c0db646)" style="fill: none; stroke: #e6e8f0; stroke-width: 0.8; stroke-linecap: round"/>
     </g>
     <g id="text_12">
      <!-- fitbit_respiratory_rate_summary -->
      <g style="fill: #262626" transform="translate(7.2 244.141578) scale(0.11 -0.11)">
       <use xlink:href="#MalgunGothic-66"/>
       <use xlink:href="#MalgunGothic-69" transform="translate(31.640625 0)"/>
       <use xlink:href="#MalgunGothic-74" transform="translate(56.25 0)"/>
       <use xlink:href="#MalgunGothic-62" transform="translate(90.722656 0)"/>
       <use xlink:href="#MalgunGothic-69" transform="translate(150.78125 0)"/>
       <use xlink:href="#MalgunGothic-74" transform="translate(175.390625 0)"/>
       <use xlink:href="#MalgunGothic-5f" transform="translate(209.863281 0)"/>
       <use xlink:href="#MalgunGothic-72" transform="translate(252.441406 0)"/>
       <use xlink:href="#MalgunGothic-65" transform="translate(286.417969 0)"/>
       <use xlink:href="#MalgunGothic-73" transform="translate(339.933594 0)"/>
       <use xlink:href="#MalgunGothic-70" transform="translate(383.244141 0)"/>
       <use xlink:href="#MalgunGothic-69" transform="translate(443.302734 0)"/>
       <use xlink:href="#MalgunGothic-72" transform="translate(467.912109 0)"/>
       <use xlink:href="#MalgunGothic-61" transform="translate(503.263672 0)"/>
       <use xlink:href="#MalgunGothic-74" transform="translate(555.265625 0)"/>
       <use xlink:href="#MalgunGothic-6f" transform="translate(588.863281 0)"/>
       <use xlink:href="#MalgunGothic-72" transform="translate(648.775391 0)"/>
       <use xlink:href="#MalgunGothic-79" transform="translate(688.501953 0)"/>
       <use xlink:href="#MalgunGothic-5f" transform="translate(737.769531 0)"/>
       <use xlink:href="#MalgunGothic-72" transform="translate(780.347656 0)"/>
       <use xlink:href="#MalgunGothic-61" transform="translate(815.699219 0)"/>
       <use xlink:href="#MalgunGothic-74" transform="translate(867.701172 0)"/>
       <use xlink:href="#MalgunGothic-65" transform="translate(901.298828 0)"/>
       <use xlink:href="#MalgunGothic-5f" transform="translate(954.814453 0)"/>
       <use xlink:href="#MalgunGothic-73" transform="translate(997.392578 0)"/>
       <use xlink:href="#MalgunGothic-75" transform="translate(1040.703125 0)"/>
       <use xlink:href="#MalgunGothic-6d" transform="translate(1098.515625 0)"/>
       <use xlink:href="#MalgunGothic-6d" transform="translate(1186.503906 0)"/>
       <use xlink:href="#MalgunGothic-61" transform="translate(1274.492188 0)"/>
       <use xlink:href="#MalgunGothic-72" transform="translate(1326.494141 0)"/>
       <use xlink:href="#MalgunGothic-79" transform="translate(1366.220703 0)"/>
      </g>
     </g>
    </g>
    <g id="ytick_6">
     <g id="line2d_12">
      <path d="M 172.405 206.105653 
L 730.405 206.105653 
" clip-path="url(#pd68c0db646)" style="fill: none; stroke: #e6e8f0; stroke-width: 0.8; stroke-linecap: round"/>
     </g>
     <g id="text_13">
      <!-- fitbit_resting_heart_rate -->
      <g style="fill: #262626" transform="translate(46.712344 210.343231) scale(0.11 -0.11)">
       <defs>
        <path id="MalgunGothic-67" d="M 3313 259 
Q 3313 -1547 1603 -1547 
Q 1003 -1547 538 -1313 
L 538 -806 
Q 1088 -1116 1600 -1116 
Q 2822 -1116 2822 194 
L 2822 559 
L 2809 559 
Q 2422 -78 1675 -78 
Q 1066 -78 691 362 
Q 316 803 316 1534 
Q 316 2375 722 2867 
Q 1128 3359 1816 3359 
Q 2484 3359 2809 2822 
L 2822 2822 
L 2822 3284 
L 3313 3284 
L 3313 259 
z
M 2822 1978 
Q 2822 2378 2547 2659 
Q 2272 2941 1878 2941 
Q 1384 2941 1101 2577 
Q 819 2213 819 1572 
Q 819 1016 1092 680 
Q 1366 344 1803 344 
Q 2247 344 2534 666 
Q 2822 988 2822 1478 
L 2822 1978 
z
" transform="scale(0.015625)"/>
       </defs>
       <use xlink:href="#MalgunGothic-66"/>
       <use xlink:href="#MalgunGothic-69" transform="translate(31.640625 0)"/>
       <use xlink:href="#MalgunGothic-74" transform="translate(56.25 0)"/>
       <use xlink:href="#MalgunGothic-62" transform="translate(90.722656 0)"/>
       <use xlink:href="#MalgunGothic-69" transform="translate(150.78125 0)"/>
       <use xlink:href="#MalgunGothic-74" transform="translate(175.390625 0)"/>
       <use xlink:href="#MalgunGothic-5f" transform="translate(209.863281 0)"/>
       <use xlink:href="#MalgunGothic-72" transform="translate(252.441406 0)"/>
       <use xlink:href="#MalgunGothic-65" transform="translate(286.417969 0)"/>
       <use xlink:href="#MalgunGothic-73" transform="translate(339.933594 0)"/>
       <use xlink:href="#MalgunGothic-74" transform="translate(383.244141 0)"/>
       <use xlink:href="#MalgunGothic-69" transform="translate(417.716797 0)"/>
       <use xlink:href="#MalgunGothic-6e" transform="translate(442.326172 0)"/>
       <use xlink:href="#MalgunGothic-67" transform="translate(500.138672 0)"/>
       <use xlink:href="#MalgunGothic-5f" transform="translate(560.34375 0)"/>
       <use xlink:href="#MalgunGothic-68" transform="translate(602.921875 0)"/>
       <use xlink:href="#MalgunGothic-65" transform="translate(660.783203 0)"/>
       <use xlink:href="#MalgunGothic-61" transform="translate(714.298828 0)"/>
       <use xlink:href="#MalgunGothic-72" transform="translate(766.300781 0)"/>
       <use xlink:href="#MalgunGothic-74" transform="translate(804.777344 0)"/>
       <use xlink:href="#MalgunGothic-5f" transform="translate(839.25 0)"/>
       <use xlink:href="#MalgunGothic-72" transform="translate(881.828125 0)"/>
       <use xlink:href="#MalgunGothic-61" transform="translate(917.179688 0)"/>
       <use xlink:href="#MalgunGothic-74" transform="translate(969.181641 0)"/>
       <use xlink:href="#MalgunGothic-65" transform="translate(1002.779297 0)"/>
      </g>
     </g>
    </g>
    <g id="ytick_7">
     <g id="line2d_13">
      <path d="M 172.405 172.307306 
L 730.405 172.307306 
" clip-path="url(#pd68c0db646)" style="fill: none; stroke: #e6e8f0; stroke-width: 0.8; stroke-linecap: round"/>
     </g>
     <g id="text_14">
      <!-- sema_responses -->
      <g style="fill: #262626" transform="translate(82.81125 176.483009) scale(0.11 -0.11)">
       <use xlink:href="#MalgunGothic-73"/>
       <use xlink:href="#MalgunGothic-65" transform="translate(43.310547 0)"/>
       <use xlink:href="#MalgunGothic-6d" transform="translate(96.826172 0)"/>
       <use xlink:href="#MalgunGothic-61" transform="translate(184.814453 0)"/>
       <use xlink:href="#MalgunGothic-5f" transform="translate(236.816406 0)"/>
       <use xlink:href="#MalgunGothic-72" transform="translate(279.394531 0)"/>
       <use xlink:href="#MalgunGothic-65" transform="translate(313.371094 0)"/>
       <use xlink:href="#MalgunGothic-73" transform="translate(366.886719 0)"/>
       <use xlink:href="#MalgunGothic-70" transform="translate(410.197266 0)"/>
       <use xlink:href="#MalgunGothic-6f" transform="translate(470.255859 0)"/>
       <use xlink:href="#MalgunGothic-6e" transform="translate(530.167969 0)"/>
       <use xlink:href="#MalgunGothic-73" transform="translate(587.980469 0)"/>
       <use xlink:href="#MalgunGothic-65" transform="translate(631.291016 0)"/>
       <use xlink:href="#MalgunGothic-73" transform="translate(684.806641 0)"/>
      </g>
     </g>
    </g>
    <g id="ytick_8">
     <g id="line2d_14">
      <path d="M 172.405 138.508959 
L 730.405 138.508959 
" clip-path="url(#pd68c0db646)" style="fill: none; stroke: #e6e8f0; stroke-width: 0.8; stroke-linecap: round"/>
     </g>
     <g id="text_15">
      <!-- fitbit_activity_minutes -->
      <g style="fill: #262626" transform="translate(56.306406 142.746537) scale(0.11 -0.11)">
       <use xlink:href="#MalgunGothic-66"/>
       <use xlink:href="#MalgunGothic-69" transform="translate(31.640625 0)"/>
       <use xlink:href="#MalgunGothic-74" transform="translate(56.25 0)"/>
       <use xlink:href="#MalgunGothic-62" transform="translate(90.722656 0)"/>
       <use xlink:href="#MalgunGothic-69" transform="translate(150.78125 0)"/>
       <use xlink:href="#MalgunGothic-74" transform="translate(175.390625 0)"/>
       <use xlink:href="#MalgunGothic-5f" transform="translate(209.863281 0)"/>
       <use xlink:href="#MalgunGothic-61" transform="translate(252.441406 0)"/>
       <use xlink:href="#MalgunGothic-63" transform="translate(304.443359 0)"/>
       <use xlink:href="#MalgunGothic-74" transform="translate(351.708984 0)"/>
       <use xlink:href="#MalgunGothic-69" transform="translate(386.181641 0)"/>
       <use xlink:href="#MalgunGothic-76" transform="translate(410.791016 0)"/>
       <use xlink:href="#MalgunGothic-69" transform="translate(459.521484 0)"/>
       <use xlink:href="#MalgunGothic-74" transform="translate(484.130859 0)"/>
       <use xlink:href="#MalgunGothic-79" transform="translate(518.603516 0)"/>
       <use xlink:href="#MalgunGothic-5f" transform="translate(567.871094 0)"/>
       <use xlink:href="#MalgunGothic-6d" transform="translate(610.449219 0)"/>
       <use xlink:href="#MalgunGothic-69" transform="translate(698.4375 0)"/>
       <use xlink:href="#MalgunGothic-6e" transform="translate(723.046875 0)"/>
       <use xlink:href="#MalgunGothic-75" transform="translate(780.859375 0)"/>
       <use xlink:href="#MalgunGothic-74" transform="translate(838.671875 0)"/>
       <use xlink:href="#MalgunGothic-65" transform="translate(872.269531 0)"/>
       <use xlink:href="#MalgunGothic-73" transform="translate(925.785156 0)"/>
      </g>
     </g>
    </g>
    <g id="ytick_9">
     <g id="line2d_15">
      <path d="M 172.405 104.710612 
L 730.405 104.710612 
" clip-path="url(#pd68c0db646)" style="fill: none; stroke: #e6e8f0; stroke-width: 0.8; stroke-linecap: round"/>
     </g>
     <g id="text_16">
      <!-- fitbit_hrv_details -->
      <g style="fill: #262626" transform="translate(82.158125 108.886315) scale(0.11 -0.11)">
       <use xlink:href="#MalgunGothic-66"/>
       <use xlink:href="#MalgunGothic-69" transform="translate(31.640625 0)"/>
       <use xlink:href="#MalgunGothic-74" transform="translate(56.25 0)"/>
       <use xlink:href="#MalgunGothic-62" transform="translate(90.722656 0)"/>
       <use xlink:href="#MalgunGothic-69" transform="translate(150.78125 0)"/>
       <use xlink:href="#MalgunGothic-74" transform="translate(175.390625 0)"/>
       <use xlink:href="#MalgunGothic-5f" transform="translate(209.863281 0)"/>
       <use xlink:href="#MalgunGothic-68" transform="translate(252.441406 0)"/>
       <use xlink:href="#MalgunGothic-72" transform="translate(310.302734 0)"/>
       <use xlink:href="#MalgunGothic-76" transform="translate(350.029297 0)"/>
       <use xlink:href="#MalgunGothic-5f" transform="translate(398.759766 0)"/>
       <use xlink:href="#MalgunGothic-64" transform="translate(441.337891 0)"/>
       <use xlink:href="#MalgunGothic-65" transform="translate(501.542969 0)"/>
       <use xlink:href="#MalgunGothic-74" transform="translate(555.058594 0)"/>
       <use xlink:href="#MalgunGothic-61" transform="translate(589.53125 0)"/>
       <use xlink:href="#MalgunGothic-69" transform="translate(641.533203 0)"/>
       <use xlink:href="#MalgunGothic-6c" transform="translate(666.142578 0)"/>
       <use xlink:href="#MalgunGothic-73" transform="translate(690.751953 0)"/>
      </g>
     </g>
    </g>
   </g>
   <g id="patch_3">
    <path d="M 172.405 388.616727 
L 174.410079 388.616727 
L 174.410079 361.57805 
L 172.405 361.57805 
z
" clip-path="url(#pd68c0db646)" style="fill: #a3befa; stroke: #2e4780; stroke-linejoin: miter"/>
   </g>
   <g id="patch_4">
    <path d="M 172.405 354.81838 
L 175.137055 354.81838 
L 175.137055 327.779702 
L 172.405 327.779702 
z
" clip-path="url(#pd68c0db646)" style="fill: #a3befa; stroke: #2e4780; stroke-linejoin: miter"/>
   </g>
   <g id="patch_5">
    <path d="M 172.405 321.020033 
L 176.503082 321.020033 
L 176.503082 293.981355 
L 172.405 293.981355 
z
" clip-path="url(#pd68c0db646)" style="fill: #a3befa; stroke: #2e4780; stroke-linejoin: miter"/>
   </g>
   <g id="patch_6">
    <path d="M 172.405 287.221686 
L 177.712563 287.221686 
L 177.712563 260.183008 
L 172.405 260.183008 
z
" clip-path="url(#pd68c0db646)" style="fill: #a3befa; stroke: #2e4780; stroke-linejoin: miter"/>
   </g>
   <g id="patch_7">
    <path d="M 172.405 253.423339 
L 178.83841 253.423339 
L 178.83841 226.384661 
L 172.405 226.384661 
z
" clip-path="url(#pd68c0db646)" style="fill: #a3befa; stroke: #2e4780; stroke-linejoin: miter"/>
   </g>
   <g id="patch_8">
    <path d="M 172.405 219.624992 
L 198.914937 219.624992 
L 198.914937 192.586314 
L 172.405 192.586314 
z
" clip-path="url(#pd68c0db646)" style="fill: #a3befa; stroke: #2e4780; stroke-linejoin: miter"/>
   </g>
   <g id="patch_9">
    <path d="M 172.405 185.826645 
L 205.386948 185.826645 
L 205.386948 158.787967 
L 172.405 158.787967 
z
" clip-path="url(#pd68c0db646)" style="fill: #a3befa; stroke: #2e4780; stroke-linejoin: miter"/>
   </g>
   <g id="patch_10">
    <path d="M 172.405 152.028298 
L 234.191468 152.028298 
L 234.191468 124.98962 
L 172.405 124.98962 
z
" clip-path="url(#pd68c0db646)" style="fill: #a3befa; stroke: #2e4780; stroke-linejoin: miter"/>
   </g>
   <g id="patch_11">
    <path d="M 172.405 118.22995 
L 645.286356 118.22995 
L 645.286356 91.191273 
L 172.405 91.191273 
z
" clip-path="url(#pd68c0db646)" style="fill: #a3befa; stroke: #2e4780; stroke-linejoin: miter"/>
   </g>
   <g id="patch_12">
    <path d="M 172.405 403.488 
L 172.405 76.32 
" style="fill: none; stroke: #d7dbe7; stroke-width: 1.25; stroke-linejoin: miter; stroke-linecap: square"/>
   </g>
   <g id="patch_13">
    <path d="M 172.405 403.488 
L 730.405 403.488 
" style="fill: none; stroke: #d7dbe7; stroke-width: 1.25; stroke-linejoin: miter; stroke-linecap: square"/>
   </g>
   <g id="text_17">
    <!-- 935 -->
    <g style="fill: #1f2430" transform="translate(174.43013 377.450045) scale(0.09 -0.09)">
     <defs>
      <path id="MalgunGothic-39" d="M 556 563 
Q 941 344 1366 344 
Q 1994 344 2347 855 
Q 2700 1366 2700 2313 
Q 2694 2306 2688 2313 
Q 2388 1713 1653 1713 
Q 1059 1713 682 2120 
Q 306 2528 306 3144 
Q 306 3806 711 4240 
Q 1116 4675 1772 4675 
Q 2466 4675 2833 4131 
Q 3200 3588 3200 2578 
Q 3200 1319 2717 620 
Q 2234 -78 1344 -78 
Q 881 -78 556 78 
L 556 563 
z
M 813 3219 
Q 813 2741 1063 2450 
Q 1313 2159 1759 2159 
Q 2147 2159 2406 2417 
Q 2666 2675 2666 3047 
Q 2666 3556 2411 3903 
Q 2156 4250 1725 4250 
Q 1322 4250 1067 3948 
Q 813 3647 813 3219 
z
" transform="scale(0.015625)"/>
      <path id="MalgunGothic-33" d="M 416 719 
Q 891 344 1478 344 
Q 1959 344 2254 587 
Q 2550 831 2550 1247 
Q 2550 2169 1253 2169 
L 872 2169 
L 872 2591 
L 1234 2591 
Q 2388 2591 2388 3453 
Q 2388 4250 1509 4250 
Q 1022 4250 594 3916 
L 594 4413 
Q 1031 4675 1634 4675 
Q 2184 4675 2539 4372 
Q 2894 4069 2894 3581 
Q 2894 2678 1972 2409 
L 1972 2400 
Q 2469 2356 2764 2053 
Q 3059 1750 3059 1300 
Q 3059 672 2604 297 
Q 2150 -78 1450 -78 
Q 806 -78 416 169 
L 416 719 
z
" transform="scale(0.015625)"/>
     </defs>
     <use xlink:href="#MalgunGothic-39"/>
     <use xlink:href="#MalgunGothic-33" transform="translate(55.078125 0)"/>
     <use xlink:href="#MalgunGothic-35" transform="translate(110.15625 0)"/>
    </g>
   </g>
   <g id="text_18">
    <!-- 1,274 -->
    <g style="fill: #1f2430" transform="translate(175.164375 343.651698) scale(0.09 -0.09)">
     <defs>
      <path id="MalgunGothic-2c" d="M 988 725 
L 472 -850 
L 125 -850 
L 503 725 
L 988 725 
z
" transform="scale(0.015625)"/>
      <path id="MalgunGothic-37" d="M 3213 4297 
Q 2478 3006 2064 1918 
Q 1650 831 1550 0 
L 1009 0 
Q 1084 531 1290 1176 
Q 1497 1822 1815 2537 
Q 2134 3253 2631 4147 
L 291 4147 
L 291 4600 
L 3213 4600 
L 3213 4297 
z
" transform="scale(0.015625)"/>
      <path id="MalgunGothic-34" d="M 2703 4600 
L 2703 1563 
L 3309 1563 
L 3309 1113 
L 2703 1113 
L 2703 0 
L 2213 0 
L 2213 1113 
L 50 1113 
L 50 1534 
Q 728 2297 1295 3109 
Q 1863 3922 2172 4600 
L 2703 4600 
z
M 625 1563 
L 2213 1563 
L 2213 3831 
Q 1613 2788 959 1981 
L 625 1563 
z
" transform="scale(0.015625)"/>
     </defs>
     <use xlink:href="#MalgunGothic-31"/>
     <use xlink:href="#MalgunGothic-2c" transform="translate(55.078125 0)"/>
     <use xlink:href="#MalgunGothic-32" transform="translate(76.953125 0)"/>
     <use xlink:href="#MalgunGothic-37" transform="translate(132.03125 0)"/>
     <use xlink:href="#MalgunGothic-34" transform="translate(187.109375 0)"/>
    </g>
   </g>
   <g id="text_19">
    <!-- 1,911 -->
    <g style="fill: #1f2430" transform="translate(176.544063 309.85335) scale(0.09 -0.09)">
     <use xlink:href="#MalgunGothic-31"/>
     <use xlink:href="#MalgunGothic-2c" transform="translate(55.078125 0)"/>
     <use xlink:href="#MalgunGothic-39" transform="translate(76.953125 0)"/>
     <use xlink:href="#MalgunGothic-31" transform="translate(132.03125 0)"/>
     <use xlink:href="#MalgunGothic-31" transform="translate(187.109375 0)"/>
    </g>
   </g>
   <g id="text_20">
    <!-- 2,475 -->
    <g style="fill: #1f2430" transform="translate(177.765639 276.055003) scale(0.09 -0.09)">
     <use xlink:href="#MalgunGothic-32"/>
     <use xlink:href="#MalgunGothic-2c" transform="translate(55.078125 0)"/>
     <use xlink:href="#MalgunGothic-34" transform="translate(76.953125 0)"/>
     <use xlink:href="#MalgunGothic-37" transform="translate(132.03125 0)"/>
     <use xlink:href="#MalgunGothic-35" transform="translate(187.109375 0)"/>
    </g>
   </g>
   <g id="text_21">
    <!-- 3,000 -->
    <g style="fill: #1f2430" transform="translate(178.902744 242.256656) scale(0.09 -0.09)">
     <use xlink:href="#MalgunGothic-33"/>
     <use xlink:href="#MalgunGothic-2c" transform="translate(55.078125 0)"/>
     <use xlink:href="#MalgunGothic-30" transform="translate(76.953125 0)"/>
     <use xlink:href="#MalgunGothic-30" transform="translate(132.03125 0)"/>
     <use xlink:href="#MalgunGothic-30" transform="translate(187.109375 0)"/>
    </g>
   </g>
   <g id="text_22">
    <!-- 12,362 -->
    <g style="fill: #1f2430" transform="translate(199.180037 208.458309) scale(0.09 -0.09)">
     <defs>
      <path id="MalgunGothic-36" d="M 2981 4069 
Q 2619 4250 2228 4250 
Q 1591 4250 1228 3689 
Q 866 3128 869 2213 
L 884 2213 
Q 1203 2872 1938 2872 
Q 2547 2872 2903 2478 
Q 3259 2084 3259 1450 
Q 3259 797 2857 359 
Q 2456 -78 1825 -78 
Q 1116 -78 736 478 
Q 356 1034 356 2019 
Q 356 3181 847 3928 
Q 1338 4675 2222 4675 
Q 2700 4675 2981 4544 
L 2981 4069 
z
M 906 1506 
Q 906 1022 1165 683 
Q 1425 344 1844 344 
Q 2247 344 2498 645 
Q 2750 947 2750 1388 
Q 2750 1888 2509 2167 
Q 2269 2447 1838 2447 
Q 1444 2447 1175 2173 
Q 906 1900 906 1506 
z
" transform="scale(0.015625)"/>
     </defs>
     <use xlink:href="#MalgunGothic-31"/>
     <use xlink:href="#MalgunGothic-32" transform="translate(55.078125 0)"/>
     <use xlink:href="#MalgunGothic-2c" transform="translate(110.15625 0)"/>
     <use xlink:href="#MalgunGothic-33" transform="translate(132.03125 0)"/>
     <use xlink:href="#MalgunGothic-36" transform="translate(187.109375 0)"/>
     <use xlink:href="#MalgunGothic-32" transform="translate(242.1875 0)"/>
    </g>
   </g>
   <g id="text_23">
    <!-- 15,380 -->
    <g style="fill: #1f2430" transform="translate(205.716767 174.659962) scale(0.09 -0.09)">
     <defs>
      <path id="MalgunGothic-38" d="M 303 1281 
Q 303 1669 539 2011 
Q 775 2353 1153 2494 
Q 856 2647 675 2915 
Q 494 3184 494 3500 
Q 494 3828 659 4098 
Q 825 4369 1122 4522 
Q 1419 4675 1778 4675 
Q 2334 4675 2700 4342 
Q 3066 4009 3066 3500 
Q 3066 3181 2881 2914 
Q 2697 2647 2413 2494 
Q 2788 2350 3022 2009 
Q 3256 1669 3256 1281 
Q 3256 672 2843 297 
Q 2431 -78 1778 -78 
Q 1131 -78 717 301 
Q 303 681 303 1281 
z
M 809 1328 
Q 809 878 1081 611 
Q 1353 344 1781 344 
Q 2206 344 2482 619 
Q 2759 894 2759 1328 
Q 2759 1731 2482 2011 
Q 2206 2291 1781 2291 
Q 1372 2291 1090 2020 
Q 809 1750 809 1328 
z
M 1003 3459 
Q 1003 3125 1234 2900 
Q 1466 2675 1781 2675 
Q 2097 2675 2330 2900 
Q 2563 3125 2563 3459 
Q 2563 3803 2341 4026 
Q 2119 4250 1781 4250 
Q 1450 4250 1226 4029 
Q 1003 3809 1003 3459 
z
" transform="scale(0.015625)"/>
     </defs>
     <use xlink:href="#MalgunGothic-31"/>
     <use xlink:href="#MalgunGothic-35" transform="translate(55.078125 0)"/>
     <use xlink:href="#MalgunGothic-2c" transform="translate(110.15625 0)"/>
     <use xlink:href="#MalgunGothic-33" transform="translate(132.03125 0)"/>
     <use xlink:href="#MalgunGothic-38" transform="translate(187.109375 0)"/>
     <use xlink:href="#MalgunGothic-30" transform="translate(242.1875 0)"/>
    </g>
   </g>
   <g id="text_24">
    <!-- 28,812 -->
    <g style="fill: #1f2430" transform="translate(234.809333 140.861615) scale(0.09 -0.09)">
     <use xlink:href="#MalgunGothic-32"/>
     <use xlink:href="#MalgunGothic-38" transform="translate(55.078125 0)"/>
     <use xlink:href="#MalgunGothic-2c" transform="translate(110.15625 0)"/>
     <use xlink:href="#MalgunGothic-38" transform="translate(132.03125 0)"/>
     <use xlink:href="#MalgunGothic-31" transform="translate(187.109375 0)"/>
     <use xlink:href="#MalgunGothic-32" transform="translate(242.1875 0)"/>
    </g>
   </g>
   <g id="text_25">
    <!-- 220,512 -->
    <g style="fill: #1f2430" transform="translate(650.015169 107.063268) scale(0.09 -0.09)">
     <use xlink:href="#MalgunGothic-32"/>
     <use xlink:href="#MalgunGothic-32" transform="translate(55.078125 0)"/>
     <use xlink:href="#MalgunGothic-30" transform="translate(110.15625 0)"/>
     <use xlink:href="#MalgunGothic-2c" transform="translate(165.234375 0)"/>
     <use xlink:href="#MalgunGothic-35" transform="translate(187.109375 0)"/>
     <use xlink:href="#MalgunGothic-31" transform="translate(242.1875 0)"/>
     <use xlink:href="#MalgunGothic-32" transform="translate(297.265625 0)"/>
    </g>
   </g>
  </g>
  <g id="text_26">
   <!-- HRV 상세값과 활동 minute 테이블이 가장 큰 추출 테이블이었다 -->
   <g style="fill: #1f2430" transform="translate(172.405 18.588281) scale(0.15 -0.15)">
    <defs>
     <path id="MalgunGothicBold-48" d="M 4372 0 
L 3481 0 
L 3481 1938 
L 1438 1938 
L 1438 0 
L 547 0 
L 547 4600 
L 1438 4600 
L 1438 2709 
L 3481 2709 
L 3481 4600 
L 4372 4600 
L 4372 0 
z
" transform="scale(0.015625)"/>
     <path id="MalgunGothicBold-52" d="M 4241 0 
L 3209 0 
L 2478 1216 
Q 2256 1584 2100 1700 
Q 1944 1816 1763 1816 
L 1438 1816 
L 1438 0 
L 547 0 
L 547 4600 
L 2109 4600 
Q 3703 4600 3703 3356 
Q 3703 2900 3436 2564 
Q 3169 2228 2675 2088 
L 2675 2075 
Q 2991 1969 3372 1366 
L 4241 0 
z
M 1438 3906 
L 1438 2513 
L 1969 2513 
Q 2331 2513 2548 2723 
Q 2766 2934 2766 3250 
Q 2766 3906 1984 3906 
L 1438 3906 
z
" transform="scale(0.015625)"/>
     <path id="MalgunGothicBold-56" d="M 4253 4600 
L 2638 0 
L 1634 0 
L 38 4600 
L 1003 4600 
L 2053 1269 
Q 2119 1059 2147 822 
L 2166 822 
Q 2178 997 2266 1278 
L 3319 4600 
L 4253 4600 
z
" transform="scale(0.015625)"/>
     <path id="MalgunGothicBold-20" transform="scale(0.015625)"/>
     <path id="MalgunGothicBold-c0c1" d="M 5259 3328 
L 5259 1947 
L 4475 1947 
L 4475 5466 
L 5259 5466 
L 5259 3988 
L 6175 3988 
L 6175 3328 
L 5259 3328 
z
M 3591 2209 
Q 2653 2656 2216 3353 
Q 2053 3028 1625 2615 
Q 1197 2203 872 2028 
L 300 2591 
Q 969 2884 1387 3418 
Q 1806 3953 1806 4525 
L 1806 5275 
L 2591 5275 
L 2591 4550 
Q 2591 3975 3020 3494 
Q 3450 3013 4091 2834 
L 3591 2209 
z
M 3347 -538 
Q 2388 -538 1863 -208 
Q 1338 122 1338 666 
Q 1338 1206 1869 1531 
Q 2400 1856 3347 1856 
Q 4297 1856 4826 1532 
Q 5356 1209 5356 666 
Q 5356 119 4829 -209 
Q 4303 -538 3347 -538 
z
M 3347 1203 
Q 2150 1203 2150 666 
Q 2150 116 3347 116 
Q 4550 116 4550 666 
Q 4550 1203 3347 1203 
z
" transform="scale(0.015625)"/>
     <path id="MalgunGothicBold-c138" d="M 4872 -563 
L 4872 5466 
L 5650 5466 
L 5650 -563 
L 4872 -563 
z
M 3653 -384 
L 3653 2913 
L 2784 2913 
L 2784 3572 
L 3653 3572 
L 3653 5344 
L 4428 5344 
L 4428 -384 
L 3653 -384 
z
M 2900 878 
Q 2241 1425 1919 2094 
Q 1778 1759 1443 1346 
Q 1109 934 819 722 
L 256 1228 
Q 1544 2034 1544 3659 
L 1544 5056 
L 2291 5056 
L 2291 3641 
Q 2291 2184 3450 1422 
L 2900 878 
z
" transform="scale(0.015625)"/>
     <path id="MalgunGothicBold-ac12" d="M 5178 3406 
L 5178 2272 
L 4391 2272 
L 4391 5466 
L 5178 5466 
L 5178 4063 
L 6028 4063 
L 6028 3406 
L 5178 3406 
z
M 3681 5203 
Q 3606 4184 2912 3368 
Q 2219 2553 922 2106 
L 416 2741 
Q 1369 2988 1951 3486 
Q 2534 3984 2731 4544 
L 775 4544 
L 775 5203 
L 3681 5203 
z
M 1172 -428 
L 1172 1978 
L 1888 1978 
L 1888 1363 
L 2613 1363 
L 2613 1978 
L 3328 1978 
L 3328 19 
Q 4178 494 4178 1594 
L 4178 1978 
L 4897 1978 
L 4897 1594 
Q 4897 1050 5155 612 
Q 5413 175 5875 -44 
L 5369 -575 
Q 4950 -316 4538 347 
Q 4147 -328 3653 -569 
L 3328 -191 
L 3328 -428 
L 1172 -428 
z
M 2613 763 
L 1888 763 
L 1888 172 
L 2613 172 
L 2613 763 
z
" transform="scale(0.015625)"/>
     <path id="MalgunGothicBold-acfc" d="M 5369 2272 
L 5369 -563 
L 4575 -563 
L 4575 5466 
L 5369 5466 
L 5369 2931 
L 6278 2931 
L 6278 2272 
L 5369 2272 
z
M 3859 4872 
Q 3859 3316 3725 1684 
L 2969 1728 
Q 3047 2306 3091 4206 
L 750 4206 
L 750 4872 
L 3859 4872 
z
M 4372 506 
Q 2584 403 263 403 
L 172 1063 
Q 709 1063 1522 1075 
L 1522 3034 
L 2316 3034 
L 2316 1088 
Q 3453 1103 4331 1153 
L 4372 506 
z
" transform="scale(0.015625)"/>
     <path id="MalgunGothicBold-d65c" d="M 531 4544 
L 531 5100 
L 1919 5100 
L 1919 5575 
L 2700 5575 
L 2700 5100 
L 4103 5100 
L 4103 4544 
L 531 4544 
z
M 5319 3128 
L 5319 1984 
L 4531 1984 
L 4531 5466 
L 5319 5466 
L 5319 3788 
L 6203 3788 
L 6203 3128 
L 5319 3128 
z
M 4288 2106 
Q 2309 1991 372 1991 
L 288 2591 
Q 1019 2591 1913 2613 
L 1913 2869 
Q 728 2978 728 3628 
Q 728 4006 1161 4211 
Q 1594 4416 2309 4416 
Q 3891 4416 3891 3628 
Q 3891 3319 3580 3123 
Q 3269 2928 2700 2875 
L 2700 2631 
Q 3538 2644 4238 2688 
L 4288 2106 
z
M 2309 3872 
Q 1825 3872 1664 3812 
Q 1503 3753 1503 3622 
Q 1503 3500 1675 3445 
Q 1847 3391 2309 3391 
Q 2750 3391 2929 3445 
Q 3109 3500 3109 3634 
Q 3109 3763 2928 3817 
Q 2747 3872 2309 3872 
z
M 1453 -531 
L 1453 897 
L 4544 897 
L 4544 1153 
L 1453 1153 
L 1453 1747 
L 5319 1747 
L 5319 359 
L 2234 359 
L 2234 63 
L 5466 63 
L 5466 -531 
L 1453 -531 
z
" transform="scale(0.015625)"/>
     <path id="MalgunGothicBold-b3d9" d="M 403 2069 
L 403 2734 
L 2809 2734 
L 2809 3284 
L 1247 3284 
L 1247 5319 
L 5166 5319 
L 5166 4659 
L 2041 4659 
L 2041 3944 
L 5228 3944 
L 5228 3284 
L 3591 3284 
L 3591 2734 
L 5997 2734 
L 5997 2069 
L 403 2069 
z
M 3200 -563 
Q 2238 -563 1727 -253 
Q 1216 56 1216 603 
Q 1216 1141 1731 1450 
Q 2247 1759 3200 1759 
Q 4153 1759 4668 1450 
Q 5184 1141 5184 603 
Q 5184 56 4673 -253 
Q 4163 -563 3200 -563 
z
M 3200 1113 
Q 2016 1113 2016 603 
Q 2016 78 3200 78 
Q 4384 78 4384 603 
Q 4384 1113 3200 1113 
z
" transform="scale(0.015625)"/>
     <path id="MalgunGothicBold-6d" d="M 5509 0 
L 4641 0 
L 4641 1875 
Q 4641 2684 4053 2684 
Q 3781 2684 3598 2439 
Q 3416 2194 3416 1850 
L 3416 0 
L 2547 0 
L 2547 1909 
Q 2547 2684 1963 2684 
Q 1684 2684 1506 2454 
Q 1328 2225 1328 1841 
L 1328 0 
L 456 0 
L 456 3284 
L 1328 3284 
L 1328 2766 
L 1338 2766 
Q 1706 3363 2391 3363 
Q 3084 3363 3334 2731 
Q 3709 3363 4431 3363 
Q 5509 3363 5509 2038 
L 5509 0 
z
" transform="scale(0.015625)"/>
     <path id="MalgunGothicBold-69" d="M 375 4366 
Q 375 4566 517 4700 
Q 659 4834 884 4834 
Q 1103 4834 1250 4701 
Q 1397 4569 1397 4366 
Q 1397 4163 1251 4028 
Q 1106 3894 884 3894 
Q 663 3894 519 4031 
Q 375 4169 375 4366 
z
M 444 0 
L 444 3284 
L 1313 3284 
L 1313 0 
L 444 0 
z
" transform="scale(0.015625)"/>
     <path id="MalgunGothicBold-6e" d="M 3497 0 
L 2628 0 
L 2628 1841 
Q 2628 2684 2019 2684 
Q 1713 2684 1520 2454 
Q 1328 2225 1328 1872 
L 1328 0 
L 456 0 
L 456 3284 
L 1328 3284 
L 1328 2756 
L 1338 2756 
Q 1700 3363 2403 3363 
Q 3497 3363 3497 2009 
L 3497 0 
z
" transform="scale(0.015625)"/>
     <path id="MalgunGothicBold-75" d="M 3444 0 
L 2575 0 
L 2575 506 
L 2559 506 
Q 2197 -81 1553 -81 
Q 400 -81 400 1306 
L 400 3284 
L 1272 3284 
L 1272 1397 
Q 1272 600 1891 600 
Q 2194 600 2384 817 
Q 2575 1034 2575 1400 
L 2575 3284 
L 3444 3284 
L 3444 0 
z
" transform="scale(0.015625)"/>
     <path id="MalgunGothicBold-74" d="M 2303 34 
Q 2081 -78 1684 -78 
Q 675 -78 675 991 
L 675 2622 
L 131 2622 
L 131 3284 
L 675 3284 
L 675 4019 
L 1544 4272 
L 1544 3284 
L 2303 3284 
L 2303 2622 
L 1544 2622 
L 1544 1144 
Q 1544 600 1972 600 
Q 2150 600 2303 700 
L 2303 34 
z
" transform="scale(0.015625)"/>
     <path id="MalgunGothicBold-65" d="M 3316 1397 
L 1122 1397 
Q 1175 559 2072 559 
Q 2619 559 3047 847 
L 3047 184 
Q 2591 -81 1875 -81 
Q 1109 -81 682 362 
Q 256 806 256 1603 
Q 256 2384 714 2873 
Q 1172 3363 1859 3363 
Q 2547 3363 2931 2941 
Q 3316 2519 3316 1781 
L 3316 1397 
z
M 2494 1969 
Q 2494 2750 1850 2750 
Q 1581 2750 1376 2537 
Q 1172 2325 1122 1969 
L 2494 1969 
z
" transform="scale(0.015625)"/>
     <path id="MalgunGothicBold-d14c" d="M 4856 -563 
L 4856 5466 
L 5638 5466 
L 5638 -563 
L 4856 -563 
z
M 2859 2503 
L 2859 3163 
L 3669 3163 
L 3669 5344 
L 4441 5344 
L 4441 -384 
L 3669 -384 
L 3669 2503 
L 2859 2503 
z
M 3231 1141 
Q 2634 1050 666 1050 
L 666 4953 
L 2969 4953 
L 2969 4294 
L 1434 4294 
L 1434 3488 
L 2484 3488 
L 2484 2853 
L 1434 2853 
L 1434 1697 
L 1772 1697 
Q 2559 1697 3181 1778 
L 3231 1141 
z
" transform="scale(0.015625)"/>
     <path id="MalgunGothicBold-c774" d="M 4691 -563 
L 4691 5466 
L 5466 5466 
L 5466 -563 
L 4691 -563 
z
M 2203 903 
Q 1484 903 1050 1468 
Q 616 2034 616 2994 
Q 616 3969 1048 4525 
Q 1481 5081 2203 5081 
Q 2922 5081 3351 4520 
Q 3781 3959 3781 2994 
Q 3781 2025 3353 1464 
Q 2925 903 2203 903 
z
M 2203 4416 
Q 1844 4416 1612 4031 
Q 1381 3647 1381 2988 
Q 1381 2338 1618 1950 
Q 1856 1563 2203 1563 
Q 2547 1563 2784 1945 
Q 3022 2328 3022 2988 
Q 3022 3647 2792 4031 
Q 2563 4416 2203 4416 
z
" transform="scale(0.015625)"/>
     <path id="MalgunGothicBold-be14" d="M 1253 3341 
L 1253 5381 
L 2034 5381 
L 2034 4916 
L 4372 4916 
L 4372 5381 
L 5153 5381 
L 5153 3341 
L 1253 3341 
z
M 4372 4325 
L 2034 4325 
L 2034 3944 
L 4372 3944 
L 4372 4325 
z
M 403 2338 
L 403 2944 
L 5997 2944 
L 5997 2338 
L 403 2338 
z
M 1253 -481 
L 1253 1025 
L 4347 1025 
L 4347 1356 
L 1253 1356 
L 1253 1966 
L 5131 1966 
L 5131 475 
L 2041 475 
L 2041 128 
L 5281 128 
L 5281 -481 
L 1253 -481 
z
" transform="scale(0.015625)"/>
     <path id="MalgunGothicBold-ac00" d="M 5269 2431 
L 5269 -563 
L 4481 -563 
L 4481 5466 
L 5269 5466 
L 5269 3091 
L 6203 3091 
L 6203 2431 
L 5269 2431 
z
M 978 756 
L 391 1306 
Q 2413 2416 2834 4288 
L 738 4288 
L 738 4947 
L 3725 4947 
Q 3478 2297 978 756 
z
" transform="scale(0.015625)"/>
     <path id="MalgunGothicBold-c7a5" d="M 5259 3328 
L 5259 1947 
L 4475 1947 
L 4475 5466 
L 5259 5466 
L 5259 3988 
L 6175 3988 
L 6175 3328 
L 5259 3328 
z
M 3566 2113 
Q 2672 2556 2222 3213 
Q 2056 2869 1640 2476 
Q 1225 2084 856 1906 
L 300 2456 
Q 928 2694 1367 3217 
Q 1806 3741 1806 4300 
L 1806 4544 
L 563 4544 
L 563 5197 
L 3803 5197 
L 3803 4544 
L 2591 4544 
L 2591 4325 
Q 2591 3788 3002 3353 
Q 3413 2919 4063 2706 
L 3566 2113 
z
M 3347 -538 
Q 2388 -538 1863 -208 
Q 1338 122 1338 666 
Q 1338 1206 1869 1531 
Q 2400 1856 3347 1856 
Q 4297 1856 4826 1532 
Q 5356 1209 5356 666 
Q 5356 119 4829 -209 
Q 4303 -538 3347 -538 
z
M 3347 1203 
Q 2150 1203 2150 666 
Q 2150 116 3347 116 
Q 4550 116 4550 666 
Q 4550 1203 3347 1203 
z
" transform="scale(0.015625)"/>
     <path id="MalgunGothicBold-d070" d="M 403 1978 
L 403 2638 
L 4341 2638 
L 4372 3425 
L 1119 3284 
L 947 3928 
L 4384 4025 
Q 4397 4363 4397 4563 
L 1241 4563 
L 1241 5216 
L 5178 5216 
Q 5178 3734 5094 2638 
L 5997 2638 
L 5997 1978 
L 403 1978 
z
M 1228 -306 
L 1228 1613 
L 2016 1613 
L 2016 353 
L 5259 353 
L 5259 -306 
L 1228 -306 
z
" transform="scale(0.015625)"/>
     <path id="MalgunGothicBold-cd94" d="M 5466 2638 
Q 4834 2728 4206 3028 
Q 3578 3328 3206 3700 
Q 2881 3341 2247 3041 
Q 1613 2741 959 2625 
L 488 3225 
Q 1288 3288 1931 3611 
Q 2575 3934 2725 4325 
L 978 4325 
L 978 4978 
L 2809 4978 
L 2809 5550 
L 3597 5550 
L 3597 4978 
L 5422 4978 
L 5422 4325 
L 3675 4325 
Q 3831 3947 4475 3628 
Q 5119 3309 5875 3231 
L 5466 2638 
z
M 3584 1588 
L 3584 -556 
L 2803 -556 
L 2803 1588 
L 403 1588 
L 403 2253 
L 5997 2253 
L 5997 1588 
L 3584 1588 
z
" transform="scale(0.015625)"/>
     <path id="MalgunGothicBold-cd9c" d="M 5428 3225 
Q 4822 3272 4172 3500 
Q 3522 3728 3206 4013 
Q 2919 3731 2273 3500 
Q 1628 3269 947 3213 
L 538 3809 
Q 1231 3806 1818 3981 
Q 2406 4156 2656 4447 
L 1019 4447 
L 1019 5063 
L 2809 5063 
L 2809 5556 
L 3597 5556 
L 3597 5063 
L 5381 5063 
L 5381 4447 
L 3750 4447 
Q 4013 4163 4586 3995 
Q 5159 3828 5813 3828 
L 5428 3225 
z
M 1222 -459 
L 1222 1088 
L 4391 1088 
L 4391 1403 
L 1222 1403 
L 1222 2028 
L 2803 2028 
L 2803 2394 
L 403 2394 
L 403 3034 
L 5997 3034 
L 5997 2394 
L 3591 2394 
L 3591 2028 
L 5172 2028 
L 5172 488 
L 2003 488 
L 2003 166 
L 5319 166 
L 5319 -459 
L 1222 -459 
z
" transform="scale(0.015625)"/>
     <path id="MalgunGothicBold-c5c8" d="M 3803 3372 
Q 3672 2819 3230 2503 
Q 2788 2188 2209 2188 
Q 1503 2188 1042 2617 
Q 581 3047 581 3731 
Q 581 4428 1040 4854 
Q 1500 5281 2209 5281 
Q 2825 5281 3270 4948 
Q 3716 4616 3816 4031 
L 4750 4031 
L 4750 5466 
L 5538 5466 
L 5538 2053 
L 4750 2053 
L 4750 3372 
L 3803 3372 
z
M 2209 4622 
Q 1831 4622 1597 4375 
Q 1363 4128 1363 3731 
Q 1363 3347 1600 3094 
Q 1838 2841 2209 2841 
Q 2578 2841 2818 3092 
Q 3059 3344 3059 3731 
Q 3059 4125 2820 4373 
Q 2581 4622 2209 4622 
z
M 5478 -531 
Q 4831 -197 4434 378 
Q 4325 159 4001 -136 
Q 3678 -431 3391 -588 
L 2828 -78 
Q 3400 159 3722 590 
Q 4044 1022 4044 1556 
L 4044 1813 
L 4819 1813 
L 4819 1556 
Q 4819 1050 5148 634 
Q 5478 219 6047 19 
L 5478 -531 
z
M 2719 50 
Q 2456 225 2259 506 
Q 2134 259 1809 -69 
Q 1484 -397 1184 -556 
L 622 -63 
Q 1191 194 1511 622 
Q 1831 1050 1831 1556 
L 1831 1806 
L 2597 1806 
L 2597 1556 
Q 2597 1263 2822 963 
Q 3047 663 3366 538 
L 2719 50 
z
" transform="scale(0.015625)"/>
     <path id="MalgunGothicBold-b2e4" d="M 5197 2522 
L 5197 -563 
L 4416 -563 
L 4416 5466 
L 5197 5466 
L 5197 3181 
L 6203 3181 
L 6203 2522 
L 5197 2522 
z
M 3969 1197 
Q 3269 1100 1619 1100 
L 709 1100 
L 709 4953 
L 3584 4953 
L 3584 4294 
L 1491 4294 
L 1491 1753 
L 1794 1753 
Q 3253 1753 3897 1844 
L 3969 1197 
z
" transform="scale(0.015625)"/>
    </defs>
    <use xlink:href="#MalgunGothicBold-48"/>
    <use xlink:href="#MalgunGothicBold-52" transform="translate(76.953125 0)"/>
    <use xlink:href="#MalgunGothicBold-56" transform="translate(142.333984 0)"/>
    <use xlink:href="#MalgunGothicBold-20" transform="translate(209.423828 0)"/>
    <use xlink:href="#MalgunGothicBold-c0c1" transform="translate(244.580078 0)"/>
    <use xlink:href="#MalgunGothicBold-c138" transform="translate(344.580078 0)"/>
    <use xlink:href="#MalgunGothicBold-ac12" transform="translate(444.580078 0)"/>
    <use xlink:href="#MalgunGothicBold-acfc" transform="translate(544.580078 0)"/>
    <use xlink:href="#MalgunGothicBold-20" transform="translate(644.580078 0)"/>
    <use xlink:href="#MalgunGothicBold-d65c" transform="translate(679.736328 0)"/>
    <use xlink:href="#MalgunGothicBold-b3d9" transform="translate(779.736328 0)"/>
    <use xlink:href="#MalgunGothicBold-20" transform="translate(879.736328 0)"/>
    <use xlink:href="#MalgunGothicBold-6d" transform="translate(914.892578 0)"/>
    <use xlink:href="#MalgunGothicBold-69" transform="translate(1007.226562 0)"/>
    <use xlink:href="#MalgunGothicBold-6e" transform="translate(1034.667969 0)"/>
    <use xlink:href="#MalgunGothicBold-75" transform="translate(1095.507812 0)"/>
    <use xlink:href="#MalgunGothicBold-74" transform="translate(1156.347656 0)"/>
    <use xlink:href="#MalgunGothicBold-65" transform="translate(1194.275391 0)"/>
    <use xlink:href="#MalgunGothicBold-20" transform="translate(1249.255859 0)"/>
    <use xlink:href="#MalgunGothicBold-d14c" transform="translate(1284.412109 0)"/>
    <use xlink:href="#MalgunGothicBold-c774" transform="translate(1384.412109 0)"/>
    <use xlink:href="#MalgunGothicBold-be14" transform="translate(1484.412109 0)"/>
    <use xlink:href="#MalgunGothicBold-c774" transform="translate(1584.412109 0)"/>
    <use xlink:href="#MalgunGothicBold-20" transform="translate(1684.412109 0)"/>
    <use xlink:href="#MalgunGothicBold-ac00" transform="translate(1719.568359 0)"/>
    <use xlink:href="#MalgunGothicBold-c7a5" transform="translate(1819.568359 0)"/>
    <use xlink:href="#MalgunGothicBold-20" transform="translate(1919.568359 0)"/>
    <use xlink:href="#MalgunGothicBold-d070" transform="translate(1954.724609 0)"/>
    <use xlink:href="#MalgunGothicBold-20" transform="translate(2054.724609 0)"/>
    <use xlink:href="#MalgunGothicBold-cd94" transform="translate(2089.880859 0)"/>
    <use xlink:href="#MalgunGothicBold-cd9c" transform="translate(2189.880859 0)"/>
    <use xlink:href="#MalgunGothicBold-20" transform="translate(2289.880859 0)"/>
    <use xlink:href="#MalgunGothicBold-d14c" transform="translate(2325.037109 0)"/>
    <use xlink:href="#MalgunGothicBold-c774" transform="translate(2425.037109 0)"/>
    <use xlink:href="#MalgunGothicBold-be14" transform="translate(2525.037109 0)"/>
    <use xlink:href="#MalgunGothicBold-c774" transform="translate(2625.037109 0)"/>
    <use xlink:href="#MalgunGothicBold-c5c8" transform="translate(2725.037109 0)"/>
    <use xlink:href="#MalgunGothicBold-b2e4" transform="translate(2825.037109 0)"/>
   </g>
  </g>
  <g id="text_27">
   <!-- MongoDB에서 모델링 후보 변수로 추출한 9개 raw table 기준. 대용량 steps/calories/temperature는 MongoDB에서 날짜 단위로 직접 집계했다. -->
   <g style="fill: #6f768a" transform="translate(172.405 43.540187) scale(0.1 -0.1)">
    <defs>
     <path id="MalgunGothic-4d" d="M 4756 0 
L 4756 3106 
Q 4756 3466 4803 3994 
L 4788 3994 
Q 4713 3684 4653 3559 
L 3050 0 
L 2822 0 
L 1222 3534 
Q 1159 3669 1091 3994 
L 1075 3994 
Q 1100 3822 1100 3116 
L 1100 0 
L 609 0 
L 609 4600 
L 1269 4600 
L 2706 1359 
Q 2881 966 2922 816 
L 2941 816 
Q 2988 944 3166 1375 
L 4638 4600 
L 5259 4600 
L 5259 0 
L 4756 0 
z
" transform="scale(0.015625)"/>
     <path id="MalgunGothic-44" d="M 609 0 
L 609 4600 
L 1856 4600 
Q 4281 4600 4281 2356 
Q 4281 1288 3587 644 
Q 2894 0 1800 0 
L 609 0 
z
M 1113 4134 
L 1113 463 
L 1813 463 
Q 2734 463 3243 958 
Q 3753 1453 3753 2344 
Q 3753 4134 1844 4134 
L 1113 4134 
z
" transform="scale(0.015625)"/>
     <path id="MalgunGothic-42" d="M 609 0 
L 609 4600 
L 1894 4600 
Q 2466 4600 2817 4311 
Q 3169 4022 3169 3547 
Q 3169 3166 2961 2870 
Q 2753 2575 2378 2453 
L 2378 2441 
Q 2844 2391 3122 2089 
Q 3400 1788 3400 1319 
Q 3400 731 2978 365 
Q 2556 0 1919 0 
L 609 0 
z
M 1113 4128 
L 1113 2619 
L 1672 2619 
Q 2134 2619 2387 2839 
Q 2641 3059 2641 3447 
Q 2641 4128 1750 4128 
L 1113 4128 
z
M 1113 2153 
L 1113 469 
L 1859 469 
Q 2334 469 2603 698 
Q 2872 928 2872 1325 
Q 2872 2153 1738 2153 
L 1113 2153 
z
" transform="scale(0.015625)"/>
     <path id="MalgunGothic-c5d0" d="M 5081 -563 
L 5081 5466 
L 5550 5466 
L 5550 -563 
L 5081 -563 
z
M 3278 2822 
Q 3244 1931 2903 1448 
Q 2563 966 1959 966 
Q 1325 966 983 1495 
Q 641 2025 641 3016 
Q 641 4006 986 4534 
Q 1331 5063 1959 5063 
Q 2559 5063 2898 4591 
Q 3238 4119 3272 3238 
L 4000 3238 
L 4000 5344 
L 4469 5344 
L 4469 -378 
L 4000 -378 
L 4000 2822 
L 3278 2822 
z
M 1959 4641 
Q 1538 4641 1316 4225 
Q 1094 3809 1094 3016 
Q 1094 2222 1316 1805 
Q 1538 1388 1959 1388 
Q 2378 1388 2600 1806 
Q 2822 2225 2822 3016 
Q 2822 3806 2600 4223 
Q 2378 4641 1959 4641 
z
" transform="scale(0.015625)"/>
     <path id="MalgunGothic-c11c" d="M 4947 -563 
L 4947 3072 
L 3541 3072 
L 3541 3488 
L 4947 3488 
L 4947 5466 
L 5416 5466 
L 5416 -563 
L 4947 -563 
z
M 3775 966 
Q 3269 1353 2826 1939 
Q 2384 2525 2266 2950 
Q 2122 2463 1694 1872 
Q 1266 1281 763 891 
L 403 1203 
Q 1147 1703 1587 2479 
Q 2028 3256 2028 4063 
L 2028 5050 
L 2491 5050 
L 2491 4084 
Q 2491 3303 2927 2556 
Q 3363 1809 4103 1331 
L 3775 966 
z
" transform="scale(0.015625)"/>
     <path id="MalgunGothic-baa8" d="M 5063 4903 
L 5063 2175 
L 3438 2175 
L 3438 769 
L 5997 769 
L 5997 347 
L 403 347 
L 403 769 
L 2963 769 
L 2963 2175 
L 1331 2175 
L 1331 4903 
L 5063 4903 
z
M 4594 2600 
L 4594 4481 
L 1806 4481 
L 1806 2600 
L 4594 2600 
z
" transform="scale(0.015625)"/>
     <path id="MalgunGothic-b378" d="M 5056 2303 
L 5056 5466 
L 5522 5466 
L 5522 2303 
L 5056 2303 
z
M 3975 2303 
L 3975 3731 
L 2584 3731 
L 2584 4134 
L 3975 4134 
L 3975 5344 
L 4434 5344 
L 4434 2303 
L 3975 2303 
z
M 3431 2663 
Q 2584 2606 972 2606 
L 972 5216 
L 3278 5216 
L 3278 4806 
L 1434 4806 
L 1434 3016 
L 1966 3016 
Q 2744 3016 3397 3066 
L 3431 2663 
z
M 1747 -422 
L 1747 1006 
L 5063 1006 
L 5063 1563 
L 1747 1563 
L 1747 1972 
L 5522 1972 
L 5522 603 
L 2209 603 
L 2209 -6 
L 5684 -6 
L 5684 -422 
L 1747 -422 
z
" transform="scale(0.015625)"/>
     <path id="MalgunGothic-b9c1" d="M 4947 1850 
L 4947 5466 
L 5416 5466 
L 5416 1850 
L 4947 1850 
z
M 4325 2344 
Q 3844 2266 3369 2250 
Q 2894 2234 1044 2234 
L 1044 3963 
L 3278 3963 
L 3278 4800 
L 1044 4800 
L 1044 5209 
L 3738 5209 
L 3738 3559 
L 1503 3559 
L 1503 2650 
Q 3034 2650 3479 2667 
Q 3925 2684 4256 2747 
L 4325 2344 
z
M 3494 -500 
Q 2541 -500 2031 -197 
Q 1522 106 1522 616 
Q 1522 1125 2031 1426 
Q 2541 1728 3494 1728 
Q 4447 1728 4956 1423 
Q 5466 1119 5466 616 
Q 5466 109 4958 -195 
Q 4450 -500 3494 -500 
z
M 3494 1331 
Q 2769 1331 2392 1139 
Q 2016 947 2016 616 
Q 2016 281 2398 89 
Q 2781 -103 3494 -103 
Q 4213 -103 4589 90 
Q 4966 284 4966 616 
Q 4966 944 4595 1137 
Q 4225 1331 3494 1331 
z
" transform="scale(0.015625)"/>
     <path id="MalgunGothic-d6c4" d="M 928 4397 
L 928 4800 
L 2963 4800 
L 2963 5459 
L 3438 5459 
L 3438 4800 
L 5472 4800 
L 5472 4397 
L 928 4397 
z
M 3200 2075 
Q 2234 2075 1743 2340 
Q 1253 2606 1253 3066 
Q 1253 3528 1753 3795 
Q 2253 4063 3200 4063 
Q 4144 4063 4642 3795 
Q 5141 3528 5141 3066 
Q 5141 2606 4650 2340 
Q 4159 2075 3200 2075 
z
M 3194 3675 
Q 2484 3675 2112 3503 
Q 1741 3331 1741 3066 
Q 1741 2797 2114 2630 
Q 2488 2463 3194 2463 
Q 3900 2463 4276 2628 
Q 4653 2794 4653 3066 
Q 4653 3334 4276 3504 
Q 3900 3675 3194 3675 
z
M 3438 1209 
L 3438 -563 
L 2963 -563 
L 2963 1209 
L 403 1209 
L 403 1625 
L 5997 1625 
L 5997 1209 
L 3438 1209 
z
" transform="scale(0.015625)"/>
     <path id="MalgunGothic-bcf4" d="M 3438 2053 
L 3438 756 
L 5997 756 
L 5997 341 
L 403 341 
L 403 756 
L 2963 756 
L 2963 2053 
L 1306 2053 
L 1306 4947 
L 1772 4947 
L 1772 3903 
L 4628 3903 
L 4628 4947 
L 5088 4947 
L 5088 2053 
L 3438 2053 
z
M 4628 3481 
L 1772 3481 
L 1772 2478 
L 4628 2478 
L 4628 3481 
z
" transform="scale(0.015625)"/>
     <path id="MalgunGothic-bcc0" d="M 1038 2059 
L 1038 5184 
L 1497 5184 
L 1497 4072 
L 3366 4072 
L 3366 5184 
L 3828 5184 
L 3828 4416 
L 4947 4416 
L 4947 5466 
L 5416 5466 
L 5416 1063 
L 4947 1063 
L 4947 2669 
L 3828 2669 
L 3828 2059 
L 1038 2059 
z
M 3828 3084 
L 4947 3084 
L 4947 4000 
L 3828 4000 
L 3828 3084 
z
M 3366 3653 
L 1497 3653 
L 1497 2478 
L 3366 2478 
L 3366 3653 
z
M 1734 -391 
L 1734 1563 
L 2203 1563 
L 2203 25 
L 5606 25 
L 5606 -391 
L 1734 -391 
z
" transform="scale(0.015625)"/>
     <path id="MalgunGothic-b85c" d="M 1247 3641 
L 4659 3641 
L 4659 4531 
L 1259 4531 
L 1259 4941 
L 5125 4941 
L 5125 3238 
L 1722 3238 
L 1722 2241 
L 5300 2241 
L 5300 1825 
L 3438 1825 
L 3438 728 
L 5997 728 
L 5997 313 
L 403 313 
L 403 728 
L 2969 728 
L 2969 1825 
L 1247 1825 
L 1247 3641 
z
" transform="scale(0.015625)"/>
     <path id="MalgunGothic-d55c" d="M 5125 2713 
L 5125 978 
L 4659 978 
L 4659 5466 
L 5125 5466 
L 5125 3138 
L 6034 3138 
L 6034 2713 
L 5125 2713 
z
M 447 4244 
L 447 4659 
L 2003 4659 
L 2003 5441 
L 2478 5441 
L 2478 4659 
L 4031 4659 
L 4031 4244 
L 447 4244 
z
M 2241 1650 
Q 1559 1650 1161 1979 
Q 763 2309 763 2791 
Q 763 3266 1161 3594 
Q 1559 3922 2247 3922 
Q 2931 3922 3331 3595 
Q 3731 3269 3731 2791 
Q 3731 2316 3329 1983 
Q 2928 1650 2241 1650 
z
M 2247 3525 
Q 1772 3525 1497 3319 
Q 1222 3113 1222 2791 
Q 1222 2466 1498 2256 
Q 1775 2047 2247 2047 
Q 2719 2047 2995 2256 
Q 3272 2466 3272 2791 
Q 3272 3113 2997 3319 
Q 2722 3525 2247 3525 
z
M 1459 -453 
L 1459 1216 
L 1919 1216 
L 1919 -38 
L 5313 -38 
L 5313 -453 
L 1459 -453 
z
" transform="scale(0.015625)"/>
     <path id="MalgunGothic-ac1c" d="M 5038 -563 
L 5038 2431 
L 4288 2431 
L 4288 -378 
L 3828 -378 
L 3828 5344 
L 4288 5344 
L 4288 2847 
L 5038 2847 
L 5038 5466 
L 5503 5466 
L 5503 -563 
L 5038 -563 
z
M 3078 4941 
Q 2981 2394 813 878 
L 441 1197 
Q 1263 1634 1891 2575 
Q 2519 3516 2584 4531 
L 800 4531 
L 800 4941 
L 3078 4941 
z
" transform="scale(0.015625)"/>
     <path id="MalgunGothic-ae30" d="M 4884 -563 
L 4884 5466 
L 5350 5466 
L 5350 -563 
L 4884 -563 
z
M 3675 4909 
Q 3653 3656 2956 2611 
Q 2259 1566 959 844 
L 603 1222 
Q 1559 1619 2293 2478 
Q 3028 3338 3175 4494 
L 850 4494 
L 850 4909 
L 3675 4909 
z
" transform="scale(0.015625)"/>
     <path id="MalgunGothic-c900" d="M 5459 3078 
Q 4725 3191 4092 3536 
Q 3459 3881 3206 4263 
Q 2988 3925 2334 3556 
Q 1681 3188 972 3084 
L 697 3463 
Q 1541 3531 2203 3934 
Q 2866 4338 2963 4800 
L 1025 4800 
L 1025 5222 
L 5375 5222 
L 5375 4800 
L 3438 4800 
Q 3534 4331 4187 3928 
Q 4841 3525 5703 3463 
L 5459 3078 
z
M 3438 2088 
L 3438 603 
L 2963 603 
L 2963 2088 
L 403 2088 
L 403 2503 
L 5997 2503 
L 5997 2088 
L 3438 2088 
z
M 1325 -359 
L 1325 1459 
L 1791 1459 
L 1791 56 
L 5203 56 
L 5203 -359 
L 1325 -359 
z
" transform="scale(0.015625)"/>
     <path id="MalgunGothic-2e" d="M 356 275 
Q 356 422 459 523 
Q 563 625 700 625 
Q 838 625 941 523 
Q 1044 422 1044 275 
Q 1044 138 942 33 
Q 841 -72 700 -72 
Q 559 -72 457 29 
Q 356 131 356 275 
z
" transform="scale(0.015625)"/>
     <path id="MalgunGothic-b300" d="M 5069 -563 
L 5069 2572 
L 4294 2572 
L 4294 -378 
L 3834 -378 
L 3834 5344 
L 4294 5344 
L 4294 2988 
L 5069 2988 
L 5069 5466 
L 5538 5466 
L 5538 -563 
L 5069 -563 
z
M 3391 1153 
Q 2516 1063 825 1063 
L 825 4934 
L 3138 4934 
L 3138 4519 
L 1288 4519 
L 1288 1478 
L 1844 1478 
Q 2791 1478 3359 1550 
L 3391 1153 
z
" transform="scale(0.015625)"/>
     <path id="MalgunGothic-c6a9" d="M 1900 3378 
Q 1288 3678 1288 4269 
Q 1288 4803 1784 5095 
Q 2281 5388 3200 5388 
Q 4119 5388 4616 5095 
Q 5113 4803 5113 4269 
Q 5113 3669 4494 3378 
L 4494 2522 
L 5997 2522 
L 5997 2106 
L 403 2106 
L 403 2522 
L 1900 2522 
L 1900 3378 
z
M 3200 4991 
Q 1772 4991 1772 4269 
Q 1772 3928 2126 3737 
Q 2481 3547 3200 3547 
Q 3919 3547 4273 3737 
Q 4628 3928 4628 4269 
Q 4628 4991 3200 4991 
z
M 2369 2522 
L 4025 2522 
L 4025 3225 
Q 3678 3150 3200 3150 
Q 2756 3150 2369 3231 
L 2369 2522 
z
M 3200 -531 
Q 2259 -531 1764 -234 
Q 1269 63 1269 581 
Q 1269 1106 1767 1404 
Q 2266 1703 3200 1703 
Q 4134 1703 4632 1404 
Q 5131 1106 5131 581 
Q 5131 63 4636 -234 
Q 4141 -531 3200 -531 
z
M 3200 1306 
Q 2484 1306 2118 1112 
Q 1753 919 1753 581 
Q 1753 244 2117 55 
Q 2481 -134 3200 -134 
Q 3916 -134 4281 55 
Q 4647 244 4647 581 
Q 4647 922 4280 1114 
Q 3913 1306 3200 1306 
z
" transform="scale(0.015625)"/>
     <path id="MalgunGothic-b7c9" d="M 5125 2772 
L 5125 1934 
L 4659 1934 
L 4659 5466 
L 5125 5466 
L 5125 4475 
L 6034 4475 
L 6034 4063 
L 5125 4063 
L 5125 3181 
L 6034 3181 
L 6034 2772 
L 5125 2772 
z
M 4078 2350 
Q 3588 2269 3083 2251 
Q 2578 2234 825 2234 
L 825 3981 
L 3053 3981 
L 3053 4794 
L 825 4794 
L 825 5203 
L 3519 5203 
L 3519 3578 
L 1294 3578 
L 1294 2644 
Q 2741 2644 3198 2662 
Q 3656 2681 4000 2747 
L 4078 2350 
z
M 3263 -481 
Q 2306 -481 1803 -184 
Q 1300 113 1300 616 
Q 1300 1122 1808 1419 
Q 2316 1716 3263 1716 
Q 4209 1716 4718 1422 
Q 5228 1128 5228 616 
Q 5228 106 4725 -187 
Q 4222 -481 3263 -481 
z
M 3263 1319 
Q 2547 1319 2172 1134 
Q 1797 950 1797 616 
Q 1797 278 2175 97 
Q 2553 -84 3263 -84 
Q 3981 -84 4359 98 
Q 4738 281 4738 616 
Q 4738 947 4363 1133 
Q 3988 1319 3263 1319 
z
" transform="scale(0.015625)"/>
     <path id="MalgunGothic-2f" d="M 2584 4600 
L 378 -763 
L -84 -763 
L 2113 4600 
L 2584 4600 
z
" transform="scale(0.015625)"/>
     <path id="MalgunGothic-b294" d="M 1409 3225 
L 1409 5247 
L 1875 5247 
L 1875 3641 
L 5172 3641 
L 5172 3225 
L 1409 3225 
z
M 403 1972 
L 403 2394 
L 5997 2394 
L 5997 1972 
L 403 1972 
z
M 1381 -331 
L 1381 1459 
L 1850 1459 
L 1850 91 
L 5184 91 
L 5184 -331 
L 1381 -331 
z
" transform="scale(0.015625)"/>
     <path id="MalgunGothic-b0a0" d="M 5125 3744 
L 5125 2541 
L 4659 2541 
L 4659 5466 
L 5125 5466 
L 5125 4166 
L 6034 4166 
L 6034 3744 
L 5125 3744 
z
M 4263 3066 
Q 3678 2919 884 2919 
L 884 5222 
L 1350 5222 
L 1350 3334 
L 1766 3334 
Q 3497 3334 4206 3463 
L 4263 3066 
z
M 1472 -428 
L 1472 1113 
L 4666 1113 
L 4666 1800 
L 1472 1800 
L 1472 2209 
L 5125 2209 
L 5125 703 
L 1931 703 
L 1931 -13 
L 5294 -13 
L 5294 -428 
L 1472 -428 
z
" transform="scale(0.015625)"/>
     <path id="MalgunGothic-c9dc" d="M 5159 2600 
L 5159 -563 
L 4691 -563 
L 4691 5466 
L 5159 5466 
L 5159 3016 
L 6144 3016 
L 6144 2600 
L 5159 2600 
z
M 2209 1644 
Q 1747 2250 1563 2944 
Q 1494 2572 1248 2000 
Q 1003 1428 775 1134 
L 378 1331 
Q 1356 2581 1356 4347 
L 1356 4531 
L 494 4531 
L 494 4941 
L 4038 4941 
L 4038 4531 
L 3225 4531 
L 3225 4288 
Q 3225 2372 4372 1234 
L 4031 972 
Q 3675 1372 3376 1923 
Q 3078 2475 3016 2841 
Q 2959 2397 2686 1745 
Q 2413 1094 2138 691 
L 1747 884 
Q 1978 1166 2209 1644 
z
M 1778 4341 
Q 1778 2900 2394 2075 
Q 2809 3200 2809 4319 
L 2809 4531 
L 1778 4531 
L 1778 4341 
z
" transform="scale(0.015625)"/>
     <path id="MalgunGothic-b2e8" d="M 5125 3169 
L 5125 1063 
L 4659 1063 
L 4659 5466 
L 5125 5466 
L 5125 3584 
L 6034 3584 
L 6034 3169 
L 5125 3169 
z
M 3903 2363 
Q 3306 2291 850 2291 
L 850 5081 
L 3688 5081 
L 3688 4666 
L 1319 4666 
L 1319 2706 
Q 3244 2706 3872 2766 
L 3903 2363 
z
M 1459 -378 
L 1459 1581 
L 1925 1581 
L 1925 38 
L 5294 38 
L 5294 -378 
L 1459 -378 
z
" transform="scale(0.015625)"/>
     <path id="MalgunGothic-c704" d="M 4997 -563 
L 4997 5466 
L 5466 5466 
L 5466 -563 
L 4997 -563 
z
M 2491 2784 
Q 1800 2784 1376 3140 
Q 953 3497 953 4038 
Q 953 4581 1376 4940 
Q 1800 5300 2491 5300 
Q 3178 5300 3598 4942 
Q 4019 4584 4019 4038 
Q 4019 3494 3600 3139 
Q 3181 2784 2491 2784 
z
M 2491 4897 
Q 2006 4897 1714 4659 
Q 1422 4422 1422 4038 
Q 1422 3653 1714 3420 
Q 2006 3188 2491 3188 
Q 2978 3188 3265 3422 
Q 3553 3656 3553 4038 
Q 3553 4419 3264 4658 
Q 2975 4897 2491 4897 
z
M 2297 -391 
L 2297 1825 
Q 903 1800 500 1800 
L 453 2209 
Q 3088 2209 4603 2297 
L 4628 1894 
Q 4203 1866 2766 1831 
L 2766 -391 
L 2297 -391 
z
" transform="scale(0.015625)"/>
     <path id="MalgunGothic-c9c1" d="M 4934 1991 
L 4934 5466 
L 5409 5466 
L 5409 1991 
L 4934 1991 
z
M 3872 2297 
Q 3494 2472 3051 2890 
Q 2609 3309 2438 3653 
Q 2269 3266 1839 2820 
Q 1409 2375 972 2144 
L 641 2463 
Q 1319 2791 1761 3370 
Q 2203 3950 2203 4575 
L 2203 4781 
L 838 4781 
L 838 5197 
L 4006 5197 
L 4006 4781 
L 2656 4781 
L 2656 4575 
Q 2656 3981 3106 3450 
Q 3556 2919 4184 2650 
L 3872 2297 
z
M 4934 -563 
L 4934 1234 
L 1478 1234 
L 1478 1650 
L 5409 1650 
L 5409 -563 
L 4934 -563 
z
" transform="scale(0.015625)"/>
     <path id="MalgunGothic-c811" d="M 4878 2297 
L 4878 3706 
L 3469 3706 
L 3469 4122 
L 4878 4122 
L 4878 5466 
L 5344 5466 
L 5344 2297 
L 4878 2297 
z
M 3653 2363 
Q 3253 2581 2837 2978 
Q 2422 3375 2253 3731 
Q 2081 3344 1673 2901 
Q 1266 2459 819 2209 
L 488 2528 
Q 1141 2844 1575 3433 
Q 2009 4022 2009 4659 
L 2009 4781 
L 684 4781 
L 684 5197 
L 3788 5197 
L 3788 4781 
L 2463 4781 
L 2463 4659 
Q 2463 4063 2914 3506 
Q 3366 2950 3969 2700 
L 3653 2363 
z
M 1606 -397 
L 1606 1972 
L 2075 1972 
L 2075 1141 
L 4884 1141 
L 4884 1972 
L 5344 1972 
L 5344 -397 
L 1606 -397 
z
M 4884 722 
L 2075 722 
L 2075 13 
L 4884 13 
L 4884 722 
z
" transform="scale(0.015625)"/>
     <path id="MalgunGothic-c9d1" d="M 4941 2328 
L 4941 5466 
L 5409 5466 
L 5409 2328 
L 4941 2328 
z
M 3872 2388 
Q 3469 2600 3037 2997 
Q 2606 3394 2438 3750 
Q 2269 3366 1859 2936 
Q 1450 2506 978 2234 
L 641 2547 
Q 1316 2875 1759 3462 
Q 2203 4050 2203 4678 
L 2203 4781 
L 838 4781 
L 838 5197 
L 4006 5197 
L 4006 4781 
L 2656 4781 
L 2656 4678 
Q 2656 4081 3120 3523 
Q 3584 2966 4184 2719 
L 3872 2388 
z
M 1672 -397 
L 1672 2003 
L 2131 2003 
L 2131 1172 
L 4947 1172 
L 4947 2003 
L 5409 2003 
L 5409 -397 
L 1672 -397 
z
M 4947 756 
L 2131 756 
L 2131 13 
L 4947 13 
L 4947 756 
z
" transform="scale(0.015625)"/>
     <path id="MalgunGothic-acc4" d="M 5044 -563 
L 5044 5466 
L 5509 5466 
L 5509 -563 
L 5044 -563 
z
M 3938 -366 
L 3938 1925 
L 2700 1925 
L 2700 2344 
L 3938 2344 
L 3938 3616 
L 2869 3616 
Q 2366 1953 813 878 
L 441 1197 
Q 1263 1634 1891 2575 
Q 2519 3516 2584 4531 
L 800 4531 
L 800 4941 
L 3078 4941 
Q 3056 4409 2969 4031 
L 3938 4031 
L 3938 5344 
L 4397 5344 
L 4397 -366 
L 3938 -366 
z
" transform="scale(0.015625)"/>
     <path id="MalgunGothic-d588" d="M 5075 1863 
L 5075 3238 
L 4372 3238 
L 4372 1947 
L 3909 1947 
L 3909 5344 
L 4372 5344 
L 4372 3647 
L 5075 3647 
L 5075 5466 
L 5538 5466 
L 5538 1863 
L 5075 1863 
z
M 453 4378 
L 453 4794 
L 1772 4794 
L 1772 5466 
L 2234 5466 
L 2234 4794 
L 3541 4794 
L 3541 4378 
L 453 4378 
z
M 2009 2059 
Q 1419 2059 1058 2353 
Q 697 2647 697 3072 
Q 697 3497 1058 3790 
Q 1419 4084 2009 4084 
Q 2606 4084 2967 3790 
Q 3328 3497 3328 3072 
Q 3328 2644 2967 2351 
Q 2606 2059 2009 2059 
z
M 2009 3694 
Q 1644 3694 1392 3520 
Q 1141 3347 1141 3072 
Q 1141 2800 1394 2625 
Q 1647 2450 2009 2450 
Q 2378 2450 2633 2625 
Q 2888 2800 2888 3072 
Q 2888 3344 2633 3519 
Q 2378 3694 2009 3694 
z
M 5606 -506 
Q 5269 -322 4950 1 
Q 4631 325 4513 603 
Q 4391 300 4072 -39 
Q 3753 -378 3413 -569 
L 3066 -269 
Q 3631 9 3953 475 
Q 4275 941 4275 1472 
L 4275 1613 
L 4738 1613 
L 4738 1472 
Q 4738 950 5094 478 
Q 5450 6 5953 -178 
L 5606 -506 
z
M 3084 -84 
Q 2550 238 2303 672 
Q 2188 372 1870 19 
Q 1553 -334 1184 -550 
L 819 -256 
Q 1369 22 1719 492 
Q 2069 963 2069 1472 
L 2069 1606 
L 2522 1606 
L 2522 1472 
Q 2522 1059 2790 704 
Q 3059 350 3425 225 
L 3084 -84 
z
" transform="scale(0.015625)"/>
     <path id="MalgunGothic-b2e4" d="M 5094 2669 
L 5094 -563 
L 4628 -563 
L 4628 5466 
L 5094 5466 
L 5094 3091 
L 6156 3091 
L 6156 2669 
L 5094 2669 
z
M 4050 1234 
Q 3538 1172 3003 1159 
Q 2469 1147 838 1147 
L 838 4934 
L 3653 4934 
L 3653 4519 
L 1306 4519 
L 1306 1563 
Q 3566 1563 4013 1638 
L 4050 1234 
z
" transform="scale(0.015625)"/>
    </defs>
    <use xlink:href="#MalgunGothic-4d"/>
    <use xlink:href="#MalgunGothic-6f" transform="translate(91.699219 0)"/>
    <use xlink:href="#MalgunGothic-6e" transform="translate(151.611328 0)"/>
    <use xlink:href="#MalgunGothic-67" transform="translate(209.423828 0)"/>
    <use xlink:href="#MalgunGothic-6f" transform="translate(269.628906 0)"/>
    <use xlink:href="#MalgunGothic-44" transform="translate(329.541016 0)"/>
    <use xlink:href="#MalgunGothic-42" transform="translate(401.269531 0)"/>
    <use xlink:href="#MalgunGothic-c5d0" transform="translate(459.619141 0)"/>
    <use xlink:href="#MalgunGothic-c11c" transform="translate(559.619141 0)"/>
    <use xlink:href="#MalgunGothic-20" transform="translate(659.619141 0)"/>
    <use xlink:href="#MalgunGothic-baa8" transform="translate(694.775391 0)"/>
    <use xlink:href="#MalgunGothic-b378" transform="translate(794.775391 0)"/>
    <use xlink:href="#MalgunGothic-b9c1" transform="translate(894.775391 0)"/>
    <use xlink:href="#MalgunGothic-20" transform="translate(994.775391 0)"/>
    <use xlink:href="#MalgunGothic-d6c4" transform="translate(1029.931641 0)"/>
    <use xlink:href="#MalgunGothic-bcf4" transform="translate(1129.931641 0)"/>
    <use xlink:href="#MalgunGothic-20" transform="translate(1229.931641 0)"/>
    <use xlink:href="#MalgunGothic-bcc0" transform="translate(1265.087891 0)"/>
    <use xlink:href="#MalgunGothic-c218" transform="translate(1365.087891 0)"/>
    <use xlink:href="#MalgunGothic-b85c" transform="translate(1465.087891 0)"/>
    <use xlink:href="#MalgunGothic-20" transform="translate(1565.087891 0)"/>
    <use xlink:href="#MalgunGothic-cd94" transform="translate(1600.244141 0)"/>
    <use xlink:href="#MalgunGothic-cd9c" transform="translate(1700.244141 0)"/>
    <use xlink:href="#MalgunGothic-d55c" transform="translate(1800.244141 0)"/>
    <use xlink:href="#MalgunGothic-20" transform="translate(1900.244141 0)"/>
    <use xlink:href="#MalgunGothic-39" transform="translate(1935.400391 0)"/>
    <use xlink:href="#MalgunGothic-ac1c" transform="translate(1990.478516 0)"/>
    <use xlink:href="#MalgunGothic-20" transform="translate(2090.478516 0)"/>
    <use xlink:href="#MalgunGothic-72" transform="translate(2125.634766 0)"/>
    <use xlink:href="#MalgunGothic-61" transform="translate(2160.986328 0)"/>
    <use xlink:href="#MalgunGothic-77" transform="translate(2212.988281 0)"/>
    <use xlink:href="#MalgunGothic-20" transform="translate(2286.621094 0)"/>
    <use xlink:href="#MalgunGothic-74" transform="translate(2321.777344 0)"/>
    <use xlink:href="#MalgunGothic-61" transform="translate(2356.25 0)"/>
    <use xlink:href="#MalgunGothic-62" transform="translate(2408.251953 0)"/>
    <use xlink:href="#MalgunGothic-6c" transform="translate(2468.310547 0)"/>
    <use xlink:href="#MalgunGothic-65" transform="translate(2492.919922 0)"/>
    <use xlink:href="#MalgunGothic-20" transform="translate(2546.435547 0)"/>
    <use xlink:href="#MalgunGothic-ae30" transform="translate(2581.591797 0)"/>
    <use xlink:href="#MalgunGothic-c900" transform="translate(2681.591797 0)"/>
    <use xlink:href="#MalgunGothic-2e" transform="translate(2781.591797 0)"/>
    <use xlink:href="#MalgunGothic-20" transform="translate(2803.466797 0)"/>
    <use xlink:href="#MalgunGothic-b300" transform="translate(2838.623047 0)"/>
    <use xlink:href="#MalgunGothic-c6a9" transform="translate(2938.623047 0)"/>
    <use xlink:href="#MalgunGothic-b7c9" transform="translate(3038.623047 0)"/>
    <use xlink:href="#MalgunGothic-20" transform="translate(3138.623047 0)"/>
    <use xlink:href="#MalgunGothic-73" transform="translate(3173.779297 0)"/>
    <use xlink:href="#MalgunGothic-74" transform="translate(3217.089844 0)"/>
    <use xlink:href="#MalgunGothic-65" transform="translate(3250.6875 0)"/>
    <use xlink:href="#MalgunGothic-70" transform="translate(3304.203125 0)"/>
    <use xlink:href="#MalgunGothic-73" transform="translate(3364.261719 0)"/>
    <use xlink:href="#MalgunGothic-2f" transform="translate(3407.572266 0)"/>
    <use xlink:href="#MalgunGothic-63" transform="translate(3447.171875 0)"/>
    <use xlink:href="#MalgunGothic-61" transform="translate(3494.4375 0)"/>
    <use xlink:href="#MalgunGothic-6c" transform="translate(3546.439453 0)"/>
    <use xlink:href="#MalgunGothic-6f" transform="translate(3571.048828 0)"/>
    <use xlink:href="#MalgunGothic-72" transform="translate(3630.960938 0)"/>
    <use xlink:href="#MalgunGothic-69" transform="translate(3666.3125 0)"/>
    <use xlink:href="#MalgunGothic-65" transform="translate(3690.921875 0)"/>
    <use xlink:href="#MalgunGothic-73" transform="translate(3744.4375 0)"/>
    <use xlink:href="#MalgunGothic-2f" transform="translate(3787.748047 0)"/>
    <use xlink:href="#MalgunGothic-74" transform="translate(3827.347656 0)"/>
    <use xlink:href="#MalgunGothic-65" transform="translate(3860.945312 0)"/>
    <use xlink:href="#MalgunGothic-6d" transform="translate(3914.460938 0)"/>
    <use xlink:href="#MalgunGothic-70" transform="translate(4002.449219 0)"/>
    <use xlink:href="#MalgunGothic-65" transform="translate(4062.507812 0)"/>
    <use xlink:href="#MalgunGothic-72" transform="translate(4116.023438 0)"/>
    <use xlink:href="#MalgunGothic-61" transform="translate(4151.375 0)"/>
    <use xlink:href="#MalgunGothic-74" transform="translate(4203.376953 0)"/>
    <use xlink:href="#MalgunGothic-75" transform="translate(4237.849609 0)"/>
    <use xlink:href="#MalgunGothic-72" transform="translate(4295.662109 0)"/>
    <use xlink:href="#MalgunGothic-65" transform="translate(4329.638672 0)"/>
    <use xlink:href="#MalgunGothic-b294" transform="translate(4383.154297 0)"/>
    <use xlink:href="#MalgunGothic-20" transform="translate(4483.154297 0)"/>
    <use xlink:href="#MalgunGothic-4d" transform="translate(4518.310547 0)"/>
    <use xlink:href="#MalgunGothic-6f" transform="translate(4610.009766 0)"/>
    <use xlink:href="#MalgunGothic-6e" transform="translate(4669.921875 0)"/>
    <use xlink:href="#MalgunGothic-67" transform="translate(4727.734375 0)"/>
    <use xlink:href="#MalgunGothic-6f" transform="translate(4787.939453 0)"/>
    <use xlink:href="#MalgunGothic-44" transform="translate(4847.851562 0)"/>
    <use xlink:href="#MalgunGothic-42" transform="translate(4919.580078 0)"/>
    <use xlink:href="#MalgunGothic-c5d0" transform="translate(4977.929688 0)"/>
    <use xlink:href="#MalgunGothic-c11c" transform="translate(5077.929688 0)"/>
    <use xlink:href="#MalgunGothic-20" transform="translate(5177.929688 0)"/>
    <use xlink:href="#MalgunGothic-b0a0" transform="translate(5213.085938 0)"/>
    <use xlink:href="#MalgunGothic-c9dc" transform="translate(5313.085938 0)"/>
    <use xlink:href="#MalgunGothic-20" transform="translate(5413.085938 0)"/>
    <use xlink:href="#MalgunGothic-b2e8" transform="translate(5448.242188 0)"/>
    <use xlink:href="#MalgunGothic-c704" transform="translate(5548.242188 0)"/>
    <use xlink:href="#MalgunGothic-b85c" transform="translate(5648.242188 0)"/>
    <use xlink:href="#MalgunGothic-20" transform="translate(5748.242188 0)"/>
    <use xlink:href="#MalgunGothic-c9c1" transform="translate(5783.398438 0)"/>
    <use xlink:href="#MalgunGothic-c811" transform="translate(5883.398438 0)"/>
    <use xlink:href="#MalgunGothic-20" transform="translate(5983.398438 0)"/>
    <use xlink:href="#MalgunGothic-c9d1" transform="translate(6018.554688 0)"/>
    <use xlink:href="#MalgunGothic-acc4" transform="translate(6118.554688 0)"/>
    <use xlink:href="#MalgunGothic-d588" transform="translate(6218.554688 0)"/>
    <use xlink:href="#MalgunGothic-b2e4" transform="translate(6318.554688 0)"/>
    <use xlink:href="#MalgunGothic-2e" transform="translate(6418.554688 0)"/>
   </g>
  </g>
 </g>
 <defs>
  <clipPath id="pd68c0db646">
   <rect x="172.405" y="76.32" width="558" height="327.168"/>
  </clipPath>
 </defs>
</svg>
