<?xml version="1.0" encoding="utf-8" standalone="no"?>
<!DOCTYPE svg PUBLIC "-//W3C//DTD SVG 1.1//EN"
  "http://www.w3.org/Graphics/SVG/1.1/DTD/svg11.dtd">
<svg xmlns:xlink="http://www.w3.org/1999/xlink" width="547.071562pt" height="447.145812pt" viewBox="0 0 547.071562 447.145812" xmlns="http://www.w3.org/2000/svg" version="1.1">
 <metadata>
  <rdf:RDF xmlns:dc="http://purl.org/dc/elements/1.1/" xmlns:cc="http://creativecommons.org/ns#" xmlns:rdf="http://www.w3.org/1999/02/22-rdf-syntax-ns#">
   <cc:Work>
    <dc:type rdf:resource="http://purl.org/dc/dcmitype/StillImage"/>
    <dc:date>2026-06-30T14:57:32.395761</dc:date>
    <dc:format>image/svg+xml</dc:format>
    <dc:creator>
     <cc:Agent>
      <dc:title>Matplotlib v3.10.9, https://matplotlib.org/</dc:title>
     </cc:Agent>
    </dc:creator>
   </cc:Work>
  </rdf:RDF>
 </metadata>
 <defs>
  <style type="text/css">*{stroke-linejoin: round; stroke-linecap: butt}</style>
 </defs>
 <g id="figure_1">
  <g id="patch_1">
   <path d="M 0 447.145812 
L 547.071562 447.145812 
L 547.071562 0 
L 0 0 
z
" style="fill: #fcfcfd"/>
  </g>
  <g id="axes_1">
   <g id="patch_2">
    <path d="M 92.011406 403.488 
L 493.771406 403.488 
L 493.771406 76.32 
L 92.011406 76.32 
z
" style="fill: #ffffff"/>
   </g>
   <g id="matplotlib.axis_1">
    <g id="xtick_1">
     <g id="line2d_1">
      <path d="M 192.451406 403.488 
L 192.451406 76.32 
" clip-path="url(#pdbf44f7bc8)" style="fill: none; stroke: #e6e8f0; stroke-width: 0.8; stroke-linecap: round"/>
     </g>
     <g id="text_1">
      <!-- 0: not good -->
      <g style="fill: #262626" transform="translate(162.769453 421.339406) scale(0.11 -0.11)">
       <defs>
        <path id="MalgunGothic-30" d="M 278 2206 
Q 278 3425 675 4050 
Q 1072 4675 1819 4675 
Q 3253 4675 3253 2319 
Q 3253 1156 2854 539 
Q 2456 -78 1716 -78 
Q 1016 -78 647 520 
Q 278 1119 278 2206 
z
M 784 2231 
Q 784 344 1769 344 
Q 2747 344 2747 2259 
Q 2747 4250 1794 4250 
Q 784 4250 784 2231 
z
" transform="scale(0.015625)"/>
        <path id="MalgunGothic-3a" d="M 356 3006 
Q 356 3153 459 3254 
Q 563 3356 700 3356 
Q 838 3356 941 3254 
Q 1044 3153 1044 3006 
Q 1044 2863 942 2761 
Q 841 2659 700 2659 
Q 559 2659 457 2761 
Q 356 2863 356 3006 
z
M 356 275 
Q 356 422 459 523 
Q 563 625 700 625 
Q 838 625 941 523 
Q 1044 422 1044 275 
Q 1044 138 942 33 
Q 841 -72 700 -72 
Q 559 -72 457 29 
Q 356 131 356 275 
z
" transform="scale(0.015625)"/>
        <path id="MalgunGothic-20" transform="scale(0.015625)"/>
        <path id="MalgunGothic-6e" d="M 3238 0 
L 2741 0 
L 2741 1875 
Q 2741 2941 1963 2941 
Q 1563 2941 1298 2639 
Q 1034 2338 1034 1872 
L 1034 0 
L 538 0 
L 538 3284 
L 1034 3284 
L 1034 2734 
L 1047 2734 
Q 1416 3359 2125 3359 
Q 2666 3359 2952 3012 
Q 3238 2666 3238 2006 
L 3238 0 
z
" transform="scale(0.015625)"/>
        <path id="MalgunGothic-6f" d="M 316 1600 
Q 316 2419 761 2889 
Q 1206 3359 1978 3359 
Q 2697 3359 3111 2907 
Q 3525 2456 3525 1650 
Q 3525 869 3078 395 
Q 2631 -78 1900 -78 
Q 1184 -78 750 384 
Q 316 847 316 1600 
z
M 819 1622 
Q 819 1041 1123 692 
Q 1428 344 1934 344 
Q 2459 344 2739 680 
Q 3019 1016 3019 1634 
Q 3019 2256 2737 2598 
Q 2456 2941 1934 2941 
Q 1425 2941 1122 2587 
Q 819 2234 819 1622 
z
" transform="scale(0.015625)"/>
        <path id="MalgunGothic-74" d="M 2031 31 
Q 1844 -72 1553 -72 
Q 706 -72 706 881 
L 706 2856 
L 138 2856 
L 138 3284 
L 706 3284 
L 706 4091 
L 1200 4250 
L 1200 3284 
L 2031 3284 
L 2031 2856 
L 1200 2856 
L 1200 972 
Q 1200 625 1315 487 
Q 1431 350 1691 350 
Q 1888 350 2031 459 
L 2031 31 
z
" transform="scale(0.015625)"/>
        <path id="MalgunGothic-67" d="M 3313 259 
Q 3313 -1547 1603 -1547 
Q 1003 -1547 538 -1313 
L 538 -806 
Q 1088 -1116 1600 -1116 
Q 2822 -1116 2822 194 
L 2822 559 
L 2809 559 
Q 2422 -78 1675 -78 
Q 1066 -78 691 362 
Q 316 803 316 1534 
Q 316 2375 722 2867 
Q 1128 3359 1816 3359 
Q 2484 3359 2809 2822 
L 2822 2822 
L 2822 3284 
L 3313 3284 
L 3313 259 
z
M 2822 1978 
Q 2822 2378 2547 2659 
Q 2272 2941 1878 2941 
Q 1384 2941 1101 2577 
Q 819 2213 819 1572 
Q 819 1016 1092 680 
Q 1366 344 1803 344 
Q 2247 344 2534 666 
Q 2822 988 2822 1478 
L 2822 1978 
z
" transform="scale(0.015625)"/>
        <path id="MalgunGothic-64" d="M 3313 0 
L 2822 0 
L 2822 566 
L 2809 566 
Q 2444 -78 1675 -78 
Q 1056 -78 686 364 
Q 316 806 316 1566 
Q 316 2375 728 2867 
Q 1141 3359 1816 3359 
Q 2494 3359 2809 2822 
L 2822 2822 
L 2822 4859 
L 3313 4859 
L 3313 0 
z
M 2822 1978 
Q 2822 2378 2550 2659 
Q 2278 2941 1872 2941 
Q 1384 2941 1101 2577 
Q 819 2213 819 1591 
Q 819 1025 1086 684 
Q 1353 344 1813 344 
Q 2250 344 2536 666 
Q 2822 988 2822 1478 
L 2822 1978 
z
" transform="scale(0.015625)"/>
       </defs>
       <use xlink:href="#MalgunGothic-30"/>
       <use xlink:href="#MalgunGothic-3a" transform="translate(55.078125 0)"/>
       <use xlink:href="#MalgunGothic-20" transform="translate(76.953125 0)"/>
       <use xlink:href="#MalgunGothic-6e" transform="translate(112.109375 0)"/>
       <use xlink:href="#MalgunGothic-6f" transform="translate(169.921875 0)"/>
       <use xlink:href="#MalgunGothic-74" transform="translate(229.833984 0)"/>
       <use xlink:href="#MalgunGothic-20" transform="translate(264.306641 0)"/>
       <use xlink:href="#MalgunGothic-67" transform="translate(299.462891 0)"/>
       <use xlink:href="#MalgunGothic-6f" transform="translate(359.667969 0)"/>
       <use xlink:href="#MalgunGothic-6f" transform="translate(419.580078 0)"/>
       <use xlink:href="#MalgunGothic-64" transform="translate(479.492188 0)"/>
      </g>
     </g>
    </g>
    <g id="xtick_2">
     <g id="line2d_2">
      <path d="M 393.331406 403.488 
L 393.331406 76.32 
" clip-path="url(#pdbf44f7bc8)" style="fill: none; stroke: #e6e8f0; stroke-width: 0.8; stroke-linecap: round"/>
     </g>
     <g id="text_2">
      <!-- 1: good -->
      <g style="fill: #262626" transform="translate(373.953359 421.339406) scale(0.11 -0.11)">
       <defs>
        <path id="MalgunGothic-31" d="M 2231 0 
L 1734 0 
L 1734 3972 
Q 1591 3828 1266 3661 
Q 941 3494 672 3428 
L 672 3959 
Q 1016 4056 1409 4275 
Q 1803 4494 2031 4700 
L 2231 4700 
L 2231 0 
z
" transform="scale(0.015625)"/>
       </defs>
       <use xlink:href="#MalgunGothic-31"/>
       <use xlink:href="#MalgunGothic-3a" transform="translate(55.078125 0)"/>
       <use xlink:href="#MalgunGothic-20" transform="translate(76.953125 0)"/>
       <use xlink:href="#MalgunGothic-67" transform="translate(112.109375 0)"/>
       <use xlink:href="#MalgunGothic-6f" transform="translate(172.314453 0)"/>
       <use xlink:href="#MalgunGothic-6f" transform="translate(232.226562 0)"/>
       <use xlink:href="#MalgunGothic-64" transform="translate(292.138672 0)"/>
      </g>
     </g>
    </g>
    <g id="text_3">
     <!-- 예측 label -->
     <g style="fill: #1f2430" transform="translate(265.894219 437.108937) scale(0.12 -0.12)">
      <defs>
       <path id="MalgunGothic-c608" d="M 5069 -563 
L 5069 5466 
L 5538 5466 
L 5538 -563 
L 5069 -563 
z
M 3091 1856 
Q 2775 928 1947 928 
Q 1325 928 986 1470 
Q 647 2013 647 3016 
Q 647 4016 986 4558 
Q 1325 5100 1947 5100 
Q 2763 5100 3078 4206 
L 3981 4206 
L 3981 5344 
L 4447 5344 
L 4447 -500 
L 3981 -500 
L 3981 1856 
L 3091 1856 
z
M 1947 4678 
Q 1094 4678 1094 3016 
Q 1094 1350 1947 1350 
Q 2797 1350 2797 3016 
Q 2797 4678 1947 4678 
z
M 3194 2266 
L 3981 2266 
L 3981 3794 
L 3188 3794 
Q 3250 3413 3250 3016 
Q 3250 2597 3194 2266 
z
" transform="scale(0.015625)"/>
       <path id="MalgunGothic-ce21" d="M 5466 3116 
Q 4794 3184 4103 3512 
Q 3413 3841 3206 4141 
Q 2972 3816 2308 3505 
Q 1644 3194 966 3122 
L 697 3547 
Q 1359 3547 2046 3836 
Q 2734 4125 2919 4538 
L 1056 4538 
L 1056 4953 
L 2969 4953 
L 2969 5516 
L 3444 5516 
L 3444 4953 
L 5344 4953 
L 5344 4538 
L 3481 4538 
Q 3669 4119 4353 3836 
Q 5038 3553 5703 3553 
L 5466 3116 
z
M 403 2156 
L 403 2572 
L 5997 2572 
L 5997 2156 
L 403 2156 
z
M 4609 -563 
L 4609 1075 
L 1197 1075 
L 1197 1491 
L 5075 1491 
L 5075 -563 
L 4609 -563 
z
" transform="scale(0.015625)"/>
       <path id="MalgunGothic-6c" d="M 541 0 
L 541 4859 
L 1034 4859 
L 1034 0 
L 541 0 
z
" transform="scale(0.015625)"/>
       <path id="MalgunGothic-61" d="M 616 3050 
Q 1097 3359 1722 3359 
Q 2866 3359 2866 2147 
L 2866 0 
L 2369 0 
L 2369 516 
L 2350 516 
Q 2009 -78 1341 -78 
Q 859 -78 576 180 
Q 294 438 294 869 
Q 294 1784 1375 1934 
L 2366 2078 
Q 2366 2934 1684 2934 
Q 1084 2934 616 2525 
L 616 3050 
z
M 1563 1559 
Q 1178 1509 993 1371 
Q 809 1234 809 903 
Q 809 653 986 500 
Q 1163 347 1450 347 
Q 1847 347 2106 628 
Q 2366 909 2366 1334 
L 2366 1666 
L 1563 1559 
z
" transform="scale(0.015625)"/>
       <path id="MalgunGothic-62" d="M 1034 481 
L 1034 0 
L 538 0 
L 538 4859 
L 1034 4859 
L 1034 2703 
L 1047 2703 
Q 1438 3359 2184 3359 
Q 2813 3359 3173 2917 
Q 3534 2475 3534 1738 
Q 3534 906 3126 414 
Q 2719 -78 2034 -78 
Q 1384 -78 1047 481 
L 1034 481 
z
M 1034 1334 
Q 1034 922 1307 633 
Q 1581 344 1991 344 
Q 2475 344 2751 716 
Q 3028 1088 3028 1753 
Q 3028 2303 2767 2622 
Q 2506 2941 2072 2941 
Q 1616 2941 1325 2616 
Q 1034 2291 1034 1803 
L 1034 1334 
z
" transform="scale(0.015625)"/>
       <path id="MalgunGothic-65" d="M 3156 1519 
L 828 1519 
Q 844 950 1133 648 
Q 1422 347 1909 347 
Q 2472 347 2934 719 
L 2934 244 
Q 2494 -78 1794 -78 
Q 1100 -78 708 376 
Q 316 831 316 1634 
Q 316 2381 747 2870 
Q 1178 3359 1816 3359 
Q 2453 3359 2804 2942 
Q 3156 2525 3156 1788 
L 3156 1519 
z
M 2644 1956 
Q 2644 2416 2423 2675 
Q 2203 2934 1809 2934 
Q 1438 2934 1169 2667 
Q 900 2400 834 1956 
L 2644 1956 
z
" transform="scale(0.015625)"/>
      </defs>
      <use xlink:href="#MalgunGothic-c608"/>
      <use xlink:href="#MalgunGothic-ce21" transform="translate(100 0)"/>
      <use xlink:href="#MalgunGothic-20" transform="translate(200 0)"/>
      <use xlink:href="#MalgunGothic-6c" transform="translate(235.15625 0)"/>
      <use xlink:href="#MalgunGothic-61" transform="translate(259.765625 0)"/>
      <use xlink:href="#MalgunGothic-62" transform="translate(311.767578 0)"/>
      <use xlink:href="#MalgunGothic-65" transform="translate(371.826172 0)"/>
      <use xlink:href="#MalgunGothic-6c" transform="translate(425.341797 0)"/>
     </g>
    </g>
   </g>
   <g id="matplotlib.axis_2">
    <g id="ytick_1">
     <g id="line2d_3">
      <path d="M 92.011406 158.112 
L 493.771406 158.112 
" clip-path="url(#pdbf44f7bc8)" style="fill: none; stroke: #e6e8f0; stroke-width: 0.8; stroke-linecap: round"/>
     </g>
     <g id="text_4">
      <!-- 0: not good -->
      <g style="fill: #262626" transform="translate(23.1475 160.95825) scale(0.11 -0.11)">
       <use xlink:href="#MalgunGothic-30"/>
       <use xlink:href="#MalgunGothic-3a" transform="translate(55.078125 0)"/>
       <use xlink:href="#MalgunGothic-20" transform="translate(76.953125 0)"/>
       <use xlink:href="#MalgunGothic-6e" transform="translate(112.109375 0)"/>
       <use xlink:href="#MalgunGothic-6f" transform="translate(169.921875 0)"/>
       <use xlink:href="#MalgunGothic-74" transform="translate(229.833984 0)"/>
       <use xlink:href="#MalgunGothic-20" transform="translate(264.306641 0)"/>
       <use xlink:href="#MalgunGothic-67" transform="translate(299.462891 0)"/>
       <use xlink:href="#MalgunGothic-6f" transform="translate(359.667969 0)"/>
       <use xlink:href="#MalgunGothic-6f" transform="translate(419.580078 0)"/>
       <use xlink:href="#MalgunGothic-64" transform="translate(479.492188 0)"/>
      </g>
     </g>
    </g>
    <g id="ytick_2">
     <g id="line2d_4">
      <path d="M 92.011406 321.696 
L 493.771406 321.696 
" clip-path="url(#pdbf44f7bc8)" style="fill: none; stroke: #e6e8f0; stroke-width: 0.8; stroke-linecap: round"/>
     </g>
     <g id="text_5">
      <!-- 1: good -->
      <g style="fill: #262626" transform="translate(43.755312 324.54225) scale(0.11 -0.11)">
       <use xlink:href="#MalgunGothic-31"/>
       <use xlink:href="#MalgunGothic-3a" transform="translate(55.078125 0)"/>
       <use xlink:href="#MalgunGothic-20" transform="translate(76.953125 0)"/>
       <use xlink:href="#MalgunGothic-67" transform="translate(112.109375 0)"/>
       <use xlink:href="#MalgunGothic-6f" transform="translate(172.314453 0)"/>
       <use xlink:href="#MalgunGothic-6f" transform="translate(232.226562 0)"/>
       <use xlink:href="#MalgunGothic-64" transform="translate(292.138672 0)"/>
      </g>
     </g>
    </g>
    <g id="text_6">
     <!-- 실제 label -->
     <g style="fill: #1f2430" transform="translate(16.310625 266.901187) rotate(-90) scale(0.12 -0.12)">
      <defs>
       <path id="MalgunGothic-c2e4" d="M 4878 2450 
L 4878 5466 
L 5344 5466 
L 5344 2450 
L 4878 2450 
z
M 3653 2663 
Q 3266 2828 2845 3203 
Q 2425 3578 2241 3938 
Q 1884 3125 800 2509 
L 469 2822 
Q 1178 3159 1590 3681 
Q 2003 4203 2003 4813 
L 2003 5331 
L 2456 5331 
L 2456 4813 
Q 2456 4219 2907 3717 
Q 3359 3216 3969 3003 
L 3653 2663 
z
M 1631 -422 
L 1631 1069 
L 4884 1069 
L 4884 1716 
L 1631 1716 
L 1631 2131 
L 5344 2131 
L 5344 666 
L 2094 666 
L 2094 -6 
L 5509 -6 
L 5509 -422 
L 1631 -422 
z
" transform="scale(0.015625)"/>
       <path id="MalgunGothic-c81c" d="M 5038 -563 
L 5038 5466 
L 5503 5466 
L 5503 -563 
L 5038 -563 
z
M 3944 -378 
L 3944 2975 
L 2894 2975 
L 2894 3391 
L 3944 3391 
L 3944 5344 
L 4403 5344 
L 4403 -378 
L 3944 -378 
z
M 3116 850 
Q 2306 1647 1984 2734 
Q 1881 2291 1529 1722 
Q 1178 1153 775 769 
L 409 1063 
Q 941 1438 1350 2248 
Q 1759 3059 1759 3834 
L 1759 4525 
L 634 4525 
L 634 4941 
L 3359 4941 
L 3359 4525 
L 2222 4525 
L 2222 3828 
Q 2222 3075 2589 2328 
Q 2956 1581 3469 1153 
L 3116 850 
z
" transform="scale(0.015625)"/>
      </defs>
      <use xlink:href="#MalgunGothic-c2e4"/>
      <use xlink:href="#MalgunGothic-c81c" transform="translate(100 0)"/>
      <use xlink:href="#MalgunGothic-20" transform="translate(200 0)"/>
      <use xlink:href="#MalgunGothic-6c" transform="translate(235.15625 0)"/>
      <use xlink:href="#MalgunGothic-61" transform="translate(259.765625 0)"/>
      <use xlink:href="#MalgunGothic-62" transform="translate(311.767578 0)"/>
      <use xlink:href="#MalgunGothic-65" transform="translate(371.826172 0)"/>
      <use xlink:href="#MalgunGothic-6c" transform="translate(425.341797 0)"/>
     </g>
    </g>
   </g>
   <g id="QuadMesh_1">
    <path d="M 92.011406 76.32 
L 292.891406 76.32 
L 292.891406 239.904 
L 92.011406 239.904 
L 92.011406 76.32 
" clip-path="url(#pdbf44f7bc8)" style="fill: #5477c4; stroke: #ffffff; stroke-width: 1.2"/>
    <path d="M 292.891406 76.32 
L 493.771406 76.32 
L 493.771406 239.904 
L 292.891406 239.904 
L 292.891406 76.32 
" clip-path="url(#pdbf44f7bc8)" style="fill: #ffffff; stroke: #ffffff; stroke-width: 1.2"/>
    <path d="M 92.011406 239.904 
L 292.891406 239.904 
L 292.891406 403.488 
L 92.011406 403.488 
L 92.011406 239.904 
" clip-path="url(#pdbf44f7bc8)" style="fill: #eef4fe; stroke: #ffffff; stroke-width: 1.2"/>
    <path d="M 292.891406 239.904 
L 493.771406 239.904 
L 493.771406 403.488 
L 292.891406 403.488 
L 292.891406 239.904 
" clip-path="url(#pdbf44f7bc8)" style="fill: #f6f9ff; stroke: #ffffff; stroke-width: 1.2"/>
   </g>
   <g id="patch_3">
    <path d="M 92.011406 403.488 
L 92.011406 76.32 
" style="fill: none; stroke: #d7dbe7; stroke-width: 1.25; stroke-linejoin: miter; stroke-linecap: square"/>
   </g>
   <g id="patch_4">
    <path d="M 92.011406 403.488 
L 493.771406 403.488 
" style="fill: none; stroke: #d7dbe7; stroke-width: 1.25; stroke-linejoin: miter; stroke-linecap: square"/>
   </g>
   <g id="text_7">
    <!-- TN -->
    <g style="fill: #ffffff" transform="translate(184.657969 154.364062) scale(0.12 -0.12)">
     <defs>
      <path id="MalgunGothic-54" d="M 3294 4134 
L 1966 4134 
L 1966 0 
L 1456 0 
L 1456 4134 
L 134 4134 
L 134 4600 
L 3294 4600 
L 3294 4134 
z
" transform="scale(0.015625)"/>
      <path id="MalgunGothic-4e" d="M 4288 0 
L 3653 0 
L 1253 3713 
Q 1178 3828 1109 4000 
L 1094 4000 
Q 1116 3822 1116 3372 
L 1116 0 
L 609 0 
L 609 4600 
L 1278 4600 
L 3613 938 
Q 3775 684 3797 634 
L 3809 634 
Q 3775 863 3775 1316 
L 3775 4600 
L 4288 4600 
L 4288 0 
z
" transform="scale(0.015625)"/>
     </defs>
     <use xlink:href="#MalgunGothic-54"/>
     <use xlink:href="#MalgunGothic-4e" transform="translate(53.369141 0)"/>
    </g>
    <!-- 492 -->
    <g style="fill: #ffffff" transform="translate(182.537344 168.133687) scale(0.12 -0.12)">
     <defs>
      <path id="MalgunGothic-34" d="M 2703 4600 
L 2703 1563 
L 3309 1563 
L 3309 1113 
L 2703 1113 
L 2703 0 
L 2213 0 
L 2213 1113 
L 50 1113 
L 50 1534 
Q 728 2297 1295 3109 
Q 1863 3922 2172 4600 
L 2703 4600 
z
M 625 1563 
L 2213 1563 
L 2213 3831 
Q 1613 2788 959 1981 
L 625 1563 
z
" transform="scale(0.015625)"/>
      <path id="MalgunGothic-39" d="M 556 563 
Q 941 344 1366 344 
Q 1994 344 2347 855 
Q 2700 1366 2700 2313 
Q 2694 2306 2688 2313 
Q 2388 1713 1653 1713 
Q 1059 1713 682 2120 
Q 306 2528 306 3144 
Q 306 3806 711 4240 
Q 1116 4675 1772 4675 
Q 2466 4675 2833 4131 
Q 3200 3588 3200 2578 
Q 3200 1319 2717 620 
Q 2234 -78 1344 -78 
Q 881 -78 556 78 
L 556 563 
z
M 813 3219 
Q 813 2741 1063 2450 
Q 1313 2159 1759 2159 
Q 2147 2159 2406 2417 
Q 2666 2675 2666 3047 
Q 2666 3556 2411 3903 
Q 2156 4250 1725 4250 
Q 1322 4250 1067 3948 
Q 813 3647 813 3219 
z
" transform="scale(0.015625)"/>
      <path id="MalgunGothic-32" d="M 2519 3372 
Q 2519 3784 2275 4018 
Q 2031 4253 1628 4253 
Q 1341 4253 1053 4104 
Q 766 3956 534 3697 
L 534 4234 
Q 981 4675 1691 4675 
Q 2281 4675 2642 4334 
Q 3003 3994 3003 3416 
Q 3003 2919 2772 2545 
Q 2541 2172 1984 1775 
Q 1459 1406 1254 1215 
Q 1050 1025 967 854 
Q 884 684 884 450 
L 3116 450 
L 3116 0 
L 356 0 
L 356 225 
Q 356 603 461 870 
Q 566 1138 811 1392 
Q 1056 1647 1597 2022 
Q 2091 2363 2305 2670 
Q 2519 2978 2519 3372 
z
" transform="scale(0.015625)"/>
     </defs>
     <use xlink:href="#MalgunGothic-34"/>
     <use xlink:href="#MalgunGothic-39" transform="translate(55.078125 0)"/>
     <use xlink:href="#MalgunGothic-32" transform="translate(110.15625 0)"/>
    </g>
   </g>
   <g id="text_8">
    <!-- FP -->
    <g style="fill: #262626" transform="translate(386.915156 154.364062) scale(0.12 -0.12)">
     <defs>
      <path id="MalgunGothic-46" d="M 2922 4134 
L 1113 4134 
L 1113 2516 
L 2788 2516 
L 2788 2050 
L 1113 2050 
L 1113 0 
L 609 0 
L 609 4600 
L 2922 4600 
L 2922 4134 
z
" transform="scale(0.015625)"/>
      <path id="MalgunGothic-50" d="M 1113 1747 
L 1113 0 
L 609 0 
L 609 4600 
L 1850 4600 
Q 2575 4600 2979 4240 
Q 3384 3881 3384 3231 
Q 3384 2559 2909 2140 
Q 2434 1722 1728 1747 
L 1113 1747 
z
M 1113 4131 
L 1113 2219 
L 1691 2219 
Q 2256 2219 2554 2475 
Q 2853 2731 2853 3206 
Q 2853 4131 1759 4131 
L 1113 4131 
z
" transform="scale(0.015625)"/>
     </defs>
     <use xlink:href="#MalgunGothic-46"/>
     <use xlink:href="#MalgunGothic-50" transform="translate(49.853516 0)"/>
    </g>
    <!-- 71 -->
    <g style="fill: #262626" transform="translate(386.722031 168.133687) scale(0.12 -0.12)">
     <defs>
      <path id="MalgunGothic-37" d="M 3213 4297 
Q 2478 3006 2064 1918 
Q 1650 831 1550 0 
L 1009 0 
Q 1084 531 1290 1176 
Q 1497 1822 1815 2537 
Q 2134 3253 2631 4147 
L 291 4147 
L 291 4600 
L 3213 4600 
L 3213 4297 
z
" transform="scale(0.015625)"/>
     </defs>
     <use xlink:href="#MalgunGothic-37"/>
     <use xlink:href="#MalgunGothic-31" transform="translate(55.078125 0)"/>
    </g>
   </g>
   <g id="text_9">
    <!-- FN -->
    <g style="fill: #262626" transform="translate(184.868906 317.948062) scale(0.12 -0.12)">
     <use xlink:href="#MalgunGothic-46"/>
     <use xlink:href="#MalgunGothic-4e" transform="translate(49.853516 0)"/>
    </g>
    <!-- 183 -->
    <g style="fill: #262626" transform="translate(182.537344 331.717687) scale(0.12 -0.12)">
     <defs>
      <path id="MalgunGothic-38" d="M 303 1281 
Q 303 1669 539 2011 
Q 775 2353 1153 2494 
Q 856 2647 675 2915 
Q 494 3184 494 3500 
Q 494 3828 659 4098 
Q 825 4369 1122 4522 
Q 1419 4675 1778 4675 
Q 2334 4675 2700 4342 
Q 3066 4009 3066 3500 
Q 3066 3181 2881 2914 
Q 2697 2647 2413 2494 
Q 2788 2350 3022 2009 
Q 3256 1669 3256 1281 
Q 3256 672 2843 297 
Q 2431 -78 1778 -78 
Q 1131 -78 717 301 
Q 303 681 303 1281 
z
M 809 1328 
Q 809 878 1081 611 
Q 1353 344 1781 344 
Q 2206 344 2482 619 
Q 2759 894 2759 1328 
Q 2759 1731 2482 2011 
Q 2206 2291 1781 2291 
Q 1372 2291 1090 2020 
Q 809 1750 809 1328 
z
M 1003 3459 
Q 1003 3125 1234 2900 
Q 1466 2675 1781 2675 
Q 2097 2675 2330 2900 
Q 2563 3125 2563 3459 
Q 2563 3803 2341 4026 
Q 2119 4250 1781 4250 
Q 1450 4250 1226 4029 
Q 1003 3809 1003 3459 
z
" transform="scale(0.015625)"/>
      <path id="MalgunGothic-33" d="M 416 719 
Q 891 344 1478 344 
Q 1959 344 2254 587 
Q 2550 831 2550 1247 
Q 2550 2169 1253 2169 
L 872 2169 
L 872 2591 
L 1234 2591 
Q 2388 2591 2388 3453 
Q 2388 4250 1509 4250 
Q 1022 4250 594 3916 
L 594 4413 
Q 1031 4675 1634 4675 
Q 2184 4675 2539 4372 
Q 2894 4069 2894 3581 
Q 2894 2678 1972 2409 
L 1972 2400 
Q 2469 2356 2764 2053 
Q 3059 1750 3059 1300 
Q 3059 672 2604 297 
Q 2150 -78 1450 -78 
Q 806 -78 416 169 
L 416 719 
z
" transform="scale(0.015625)"/>
     </defs>
     <use xlink:href="#MalgunGothic-31"/>
     <use xlink:href="#MalgunGothic-38" transform="translate(55.078125 0)"/>
     <use xlink:href="#MalgunGothic-33" transform="translate(110.15625 0)"/>
    </g>
   </g>
   <g id="text_10">
    <!-- TP -->
    <g style="fill: #262626" transform="translate(386.704219 317.948062) scale(0.12 -0.12)">
     <use xlink:href="#MalgunGothic-54"/>
     <use xlink:href="#MalgunGothic-50" transform="translate(53.369141 0)"/>
    </g>
    <!-- 135 -->
    <g style="fill: #262626" transform="translate(383.417344 331.717687) scale(0.12 -0.12)">
     <defs>
      <path id="MalgunGothic-35" d="M 3072 1403 
Q 3072 722 2636 322 
Q 2200 -78 1469 -78 
Q 828 -78 516 113 
L 516 650 
Q 994 344 1475 344 
Q 1969 344 2270 630 
Q 2572 916 2572 1372 
Q 2572 1838 2265 2092 
Q 1959 2347 1381 2347 
Q 994 2347 603 2300 
L 759 4600 
L 2869 4600 
L 2869 4147 
L 1206 4147 
L 1106 2763 
Q 1347 2784 1547 2784 
Q 2263 2784 2667 2414 
Q 3072 2044 3072 1403 
z
" transform="scale(0.015625)"/>
     </defs>
     <use xlink:href="#MalgunGothic-31"/>
     <use xlink:href="#MalgunGothic-33" transform="translate(55.078125 0)"/>
     <use xlink:href="#MalgunGothic-35" transform="translate(110.15625 0)"/>
    </g>
   </g>
  </g>
  <g id="text_11">
   <!-- 최종 MLP는 good sleep 재현율보다 정밀도가 높은 운영점에 있다 -->
   <g style="fill: #1f2430" transform="translate(92.011406 20.207812) scale(0.15 -0.15)">
    <defs>
     <path id="MalgunGothicBold-cd5c" d="M 4794 -563 
L 4794 5466 
L 5581 5466 
L 5581 -563 
L 4794 -563 
z
M 3963 2144 
Q 2959 2456 2394 3156 
Q 1822 2375 813 1991 
L 306 2541 
Q 981 2725 1454 3145 
Q 1928 3566 1984 4013 
L 609 4013 
L 609 4659 
L 1991 4659 
L 1991 5331 
L 2778 5331 
L 2778 4659 
L 4103 4659 
L 4103 4013 
L 2778 4013 
Q 2834 3578 3311 3193 
Q 3788 2809 4434 2713 
L 3963 2144 
z
M 4603 488 
Q 4125 453 2636 418 
Q 1147 384 319 384 
L 231 1044 
Q 1219 1044 2034 1063 
L 2034 2284 
L 2822 2284 
L 2822 1075 
Q 3834 1088 4563 1134 
L 4603 488 
z
" transform="scale(0.015625)"/>
     <path id="MalgunGothicBold-c885" d="M 5381 3163 
Q 3928 3403 3200 4134 
Q 2931 3825 2300 3542 
Q 1669 3259 1050 3169 
L 609 3750 
Q 1359 3800 1953 4064 
Q 2547 4328 2725 4666 
L 1044 4666 
L 1044 5325 
L 5356 5325 
L 5356 4666 
L 3681 4666 
Q 3881 4325 4479 4051 
Q 5078 3778 5759 3750 
L 5381 3163 
z
M 403 2088 
L 403 2747 
L 2803 2747 
L 2803 3450 
L 3591 3450 
L 3591 2747 
L 5997 2747 
L 5997 2088 
L 403 2088 
z
M 3200 -563 
Q 2213 -563 1683 -258 
Q 1153 47 1153 603 
Q 1153 1150 1684 1454 
Q 2216 1759 3200 1759 
Q 4194 1759 4720 1451 
Q 5247 1144 5247 603 
Q 5247 47 4717 -258 
Q 4188 -563 3200 -563 
z
M 3200 1113 
Q 1953 1113 1953 603 
Q 1953 363 2268 220 
Q 2584 78 3200 78 
Q 3816 78 4131 220 
Q 4447 363 4447 603 
Q 4447 1113 3200 1113 
z
" transform="scale(0.015625)"/>
     <path id="MalgunGothicBold-20" transform="scale(0.015625)"/>
     <path id="MalgunGothicBold-4d" d="M 4744 0 
L 4744 2850 
Q 4744 3163 4781 3806 
L 4763 3806 
Q 4684 3413 4619 3244 
L 3400 0 
L 2722 0 
L 1488 3216 
Q 1441 3341 1344 3806 
L 1322 3806 
Q 1356 3297 1356 2700 
L 1356 0 
L 547 0 
L 547 4600 
L 1828 4600 
L 2903 1734 
Q 3038 1378 3081 1103 
L 3103 1103 
Q 3172 1375 3297 1741 
L 4381 4600 
L 5625 4600 
L 5625 0 
L 4744 0 
z
" transform="scale(0.015625)"/>
     <path id="MalgunGothicBold-4c" d="M 3178 0 
L 547 0 
L 547 4600 
L 1438 4600 
L 1438 738 
L 3178 738 
L 3178 0 
z
" transform="scale(0.015625)"/>
     <path id="MalgunGothicBold-50" d="M 1438 1631 
L 1438 0 
L 547 0 
L 547 4600 
L 2066 4600 
Q 3747 4600 3747 3159 
Q 3747 2463 3239 2038 
Q 2731 1613 1963 1631 
L 1438 1631 
z
M 1438 3891 
L 1438 2328 
L 1891 2328 
Q 2813 2328 2813 3125 
Q 2813 3891 1909 3891 
L 1438 3891 
z
" transform="scale(0.015625)"/>
     <path id="MalgunGothicBold-b294" d="M 1253 3200 
L 1253 5166 
L 2041 5166 
L 2041 3866 
L 5228 3866 
L 5228 3200 
L 1253 3200 
z
M 403 1906 
L 403 2566 
L 5997 2566 
L 5997 1906 
L 403 1906 
z
M 1222 -306 
L 1222 1478 
L 2009 1478 
L 2009 353 
L 5253 353 
L 5253 -306 
L 1222 -306 
z
" transform="scale(0.015625)"/>
     <path id="MalgunGothicBold-67" d="M 3553 341 
Q 3553 -572 3050 -1058 
Q 2547 -1544 1591 -1544 
Q 941 -1544 534 -1341 
L 534 -584 
Q 1050 -881 1569 -881 
Q 2100 -881 2392 -598 
Q 2684 -316 2684 206 
L 2684 497 
L 2672 497 
Q 2316 -81 1619 -81 
Q 1006 -81 631 359 
Q 256 800 256 1547 
Q 256 2375 667 2869 
Q 1078 3363 1750 3363 
Q 2359 3363 2672 2881 
L 2684 2881 
L 2684 3284 
L 3553 3284 
L 3553 341 
z
M 2694 1875 
Q 2694 2209 2484 2446 
Q 2275 2684 1953 2684 
Q 1578 2684 1358 2393 
Q 1138 2103 1138 1581 
Q 1138 1131 1347 865 
Q 1556 600 1903 600 
Q 2256 600 2475 865 
Q 2694 1131 2694 1550 
L 2694 1875 
z
" transform="scale(0.015625)"/>
     <path id="MalgunGothicBold-6f" d="M 256 1622 
Q 256 2428 731 2895 
Q 1206 3363 2019 3363 
Q 2803 3363 3258 2905 
Q 3713 2447 3713 1678 
Q 3713 878 3242 398 
Q 2772 -81 1969 -81 
Q 1181 -81 718 380 
Q 256 841 256 1622 
z
M 1138 1634 
Q 1138 600 1997 600 
Q 2825 600 2825 1659 
Q 2825 2684 1994 2684 
Q 1588 2684 1363 2404 
Q 1138 2125 1138 1634 
z
" transform="scale(0.015625)"/>
     <path id="MalgunGothicBold-64" d="M 3550 0 
L 2681 0 
L 2681 484 
L 2666 484 
Q 2316 -81 1619 -81 
Q 1000 -81 628 362 
Q 256 806 256 1569 
Q 256 2378 672 2870 
Q 1088 3363 1753 3363 
Q 2400 3363 2666 2884 
L 2681 2884 
L 2681 4859 
L 3550 4859 
L 3550 0 
z
M 2694 1878 
Q 2694 2225 2481 2454 
Q 2269 2684 1947 2684 
Q 1572 2684 1355 2390 
Q 1138 2097 1138 1594 
Q 1138 1122 1347 861 
Q 1556 600 1913 600 
Q 2256 600 2475 872 
Q 2694 1144 2694 1566 
L 2694 1878 
z
" transform="scale(0.015625)"/>
     <path id="MalgunGothicBold-73" d="M 347 844 
Q 834 538 1309 538 
Q 1922 538 1922 884 
Q 1922 1125 1438 1291 
Q 731 1528 540 1758 
Q 350 1988 350 2347 
Q 350 2822 737 3092 
Q 1125 3363 1734 3363 
Q 2159 3363 2584 3228 
L 2584 2519 
Q 2200 2747 1744 2747 
Q 1503 2747 1356 2656 
Q 1209 2566 1209 2416 
Q 1209 2169 1619 2025 
Q 2084 1856 2303 1742 
Q 2522 1628 2644 1431 
Q 2766 1234 2766 969 
Q 2766 469 2367 194 
Q 1969 -81 1316 -81 
Q 766 -81 347 94 
L 347 844 
z
" transform="scale(0.015625)"/>
     <path id="MalgunGothicBold-6c" d="M 444 0 
L 444 4859 
L 1313 4859 
L 1313 0 
L 444 0 
z
" transform="scale(0.015625)"/>
     <path id="MalgunGothicBold-65" d="M 3316 1397 
L 1122 1397 
Q 1175 559 2072 559 
Q 2619 559 3047 847 
L 3047 184 
Q 2591 -81 1875 -81 
Q 1109 -81 682 362 
Q 256 806 256 1603 
Q 256 2384 714 2873 
Q 1172 3363 1859 3363 
Q 2547 3363 2931 2941 
Q 3316 2519 3316 1781 
L 3316 1397 
z
M 2494 1969 
Q 2494 2750 1850 2750 
Q 1581 2750 1376 2537 
Q 1172 2325 1122 1969 
L 2494 1969 
z
" transform="scale(0.015625)"/>
     <path id="MalgunGothicBold-70" d="M 1328 409 
L 1328 -1513 
L 456 -1513 
L 456 3284 
L 1328 3284 
L 1328 2766 
L 1338 2766 
Q 1719 3363 2419 3363 
Q 3041 3363 3398 2928 
Q 3756 2494 3756 1734 
Q 3756 916 3348 417 
Q 2941 -81 2269 -81 
Q 1663 -81 1338 409 
L 1328 409 
z
M 1316 1428 
Q 1316 1072 1522 836 
Q 1728 600 2050 600 
Q 2431 600 2647 897 
Q 2863 1194 2863 1731 
Q 2863 2684 2109 2684 
Q 1753 2684 1534 2418 
Q 1316 2153 1316 1750 
L 1316 1428 
z
" transform="scale(0.015625)"/>
     <path id="MalgunGothicBold-c7ac" d="M 4872 -563 
L 4872 2322 
L 4366 2322 
L 4366 -384 
L 3591 -384 
L 3591 5344 
L 4366 5344 
L 4366 2981 
L 4872 2981 
L 4872 5466 
L 5650 5466 
L 5650 -563 
L 4872 -563 
z
M 2925 966 
Q 2672 1153 2358 1537 
Q 2044 1922 1925 2181 
Q 1794 1853 1461 1425 
Q 1128 997 831 769 
L 256 1259 
Q 872 1669 1208 2291 
Q 1544 2913 1544 3641 
L 1544 4300 
L 488 4300 
L 488 4959 
L 3244 4959 
L 3244 4300 
L 2303 4300 
L 2303 3572 
Q 2303 2941 2611 2394 
Q 2919 1847 3456 1484 
L 2925 966 
z
" transform="scale(0.015625)"/>
     <path id="MalgunGothicBold-d604" d="M 447 4244 
L 447 4872 
L 1900 4872 
L 1900 5550 
L 2688 5550 
L 2688 4872 
L 4141 4872 
L 4141 4244 
L 447 4244 
z
M 3928 2016 
L 3928 2650 
L 4756 2650 
L 4756 3238 
L 3928 3238 
L 3928 3872 
L 4756 3872 
L 4756 5466 
L 5538 5466 
L 5538 1106 
L 4756 1106 
L 4756 2016 
L 3928 2016 
z
M 2303 1684 
Q 1613 1684 1213 2001 
Q 813 2319 813 2828 
Q 813 3334 1213 3651 
Q 1613 3969 2309 3969 
Q 3013 3969 3411 3650 
Q 3809 3331 3809 2828 
Q 3809 2316 3406 2000 
Q 3003 1684 2303 1684 
z
M 2309 3322 
Q 1953 3322 1761 3181 
Q 1569 3041 1569 2828 
Q 1569 2600 1761 2461 
Q 1953 2322 2309 2322 
Q 2675 2322 2867 2462 
Q 3059 2603 3059 2828 
Q 3059 3050 2862 3186 
Q 2666 3322 2309 3322 
z
M 1528 -397 
L 1528 1381 
L 2303 1381 
L 2303 256 
L 5703 256 
L 5703 -397 
L 1528 -397 
z
" transform="scale(0.015625)"/>
     <path id="MalgunGothicBold-c728" d="M 3200 3400 
Q 2225 3400 1701 3675 
Q 1178 3950 1178 4434 
Q 1178 4934 1695 5203 
Q 2213 5472 3200 5472 
Q 5222 5472 5222 4434 
Q 5222 3938 4711 3669 
Q 4200 3400 3200 3400 
z
M 3200 4884 
Q 1978 4884 1978 4434 
Q 1978 3988 3200 3988 
Q 4422 3988 4422 4434 
Q 4422 4884 3200 4884 
z
M 1222 -459 
L 1222 1094 
L 4391 1094 
L 4391 1422 
L 1222 1422 
L 1222 2059 
L 1913 2059 
L 1913 2484 
L 403 2484 
L 403 3144 
L 5997 3144 
L 5997 2484 
L 4488 2484 
L 4488 2059 
L 5172 2059 
L 5172 506 
L 2003 506 
L 2003 178 
L 5319 178 
L 5319 -459 
L 1222 -459 
z
M 3725 2059 
L 3725 2484 
L 2675 2484 
L 2675 2059 
L 3725 2059 
z
" transform="scale(0.015625)"/>
     <path id="MalgunGothicBold-bcf4" d="M 403 269 
L 403 922 
L 2803 922 
L 2803 2016 
L 1247 2016 
L 1247 5013 
L 2034 5013 
L 2034 4103 
L 4366 4103 
L 4366 5013 
L 5147 5013 
L 5147 2016 
L 3591 2016 
L 3591 922 
L 5997 922 
L 5997 269 
L 403 269 
z
M 4366 3444 
L 2034 3444 
L 2034 2669 
L 4366 2669 
L 4366 3444 
z
" transform="scale(0.015625)"/>
     <path id="MalgunGothicBold-b2e4" d="M 5197 2522 
L 5197 -563 
L 4416 -563 
L 4416 5466 
L 5197 5466 
L 5197 3181 
L 6203 3181 
L 6203 2522 
L 5197 2522 
z
M 3969 1197 
Q 3269 1100 1619 1100 
L 709 1100 
L 709 4953 
L 3584 4953 
L 3584 4294 
L 1491 4294 
L 1491 1753 
L 1794 1753 
Q 3253 1753 3897 1844 
L 3969 1197 
z
" transform="scale(0.015625)"/>
     <path id="MalgunGothicBold-c815" d="M 4788 2016 
L 4788 3475 
L 3653 3475 
L 3653 4103 
L 4788 4103 
L 4788 5466 
L 5556 5466 
L 5556 2016 
L 4788 2016 
z
M 3566 2113 
Q 2672 2556 2222 3213 
Q 2056 2869 1640 2476 
Q 1225 2084 856 1906 
L 300 2456 
Q 928 2694 1367 3217 
Q 1806 3741 1806 4300 
L 1806 4544 
L 563 4544 
L 563 5197 
L 3803 5197 
L 3803 4544 
L 2591 4544 
L 2591 4325 
Q 2591 3788 3002 3353 
Q 3413 2919 4063 2706 
L 3566 2113 
z
M 3659 -538 
Q 2725 -538 2201 -189 
Q 1678 159 1678 716 
Q 1678 1269 2203 1620 
Q 2728 1972 3659 1972 
Q 4594 1972 5122 1619 
Q 5650 1266 5650 716 
Q 5650 159 5123 -189 
Q 4597 -538 3659 -538 
z
M 3659 1325 
Q 3063 1325 2767 1156 
Q 2472 988 2472 716 
Q 2472 444 2770 276 
Q 3069 109 3659 109 
Q 4253 109 4554 275 
Q 4856 441 4856 716 
Q 4856 984 4557 1154 
Q 4259 1325 3659 1325 
z
" transform="scale(0.015625)"/>
     <path id="MalgunGothicBold-bc00" d="M 4728 2438 
L 4728 5466 
L 5497 5466 
L 5497 2438 
L 4728 2438 
z
M 794 2681 
L 794 5275 
L 3681 5275 
L 3681 2681 
L 794 2681 
z
M 2913 4616 
L 1563 4616 
L 1563 3341 
L 2913 3341 
L 2913 4616 
z
M 1600 -466 
L 1600 1178 
L 4728 1178 
L 4728 1544 
L 1600 1544 
L 1600 2203 
L 5497 2203 
L 5497 575 
L 2375 575 
L 2375 191 
L 5650 191 
L 5650 -466 
L 1600 -466 
z
" transform="scale(0.015625)"/>
     <path id="MalgunGothicBold-b3c4" d="M 403 263 
L 403 916 
L 2803 916 
L 2803 2113 
L 1294 2113 
L 1294 4934 
L 5106 4934 
L 5106 4281 
L 2081 4281 
L 2081 2766 
L 5197 2766 
L 5197 2113 
L 3591 2113 
L 3591 916 
L 5997 916 
L 5997 263 
L 403 263 
z
" transform="scale(0.015625)"/>
     <path id="MalgunGothicBold-ac00" d="M 5269 2431 
L 5269 -563 
L 4481 -563 
L 4481 5466 
L 5269 5466 
L 5269 3091 
L 6203 3091 
L 6203 2431 
L 5269 2431 
z
M 978 756 
L 391 1306 
Q 2413 2416 2834 4288 
L 738 4288 
L 738 4947 
L 3725 4947 
Q 3478 2297 978 756 
z
" transform="scale(0.015625)"/>
     <path id="MalgunGothicBold-b192" d="M 403 2253 
L 403 2919 
L 2803 2919 
L 2803 3481 
L 1253 3481 
L 1253 5338 
L 2041 5338 
L 2041 4147 
L 5228 4147 
L 5228 3481 
L 3591 3481 
L 3591 2919 
L 5997 2919 
L 5997 2253 
L 403 2253 
z
M 1050 -428 
L 1050 225 
L 1881 225 
L 1881 1113 
L 1119 1113 
L 1119 1766 
L 5275 1766 
L 5275 1113 
L 4525 1113 
L 4525 225 
L 5344 225 
L 5344 -428 
L 1050 -428 
z
M 3750 1113 
L 2656 1113 
L 2656 225 
L 3750 225 
L 3750 1113 
z
" transform="scale(0.015625)"/>
     <path id="MalgunGothicBold-c740" d="M 3200 2828 
Q 2244 2828 1705 3164 
Q 1166 3500 1166 4056 
Q 1166 4619 1716 4966 
Q 2266 5313 3200 5313 
Q 4134 5313 4684 4966 
Q 5234 4619 5234 4056 
Q 5234 3500 4692 3164 
Q 4150 2828 3200 2828 
z
M 3200 4672 
Q 2600 4672 2283 4505 
Q 1966 4338 1966 4056 
Q 1966 3778 2287 3623 
Q 2609 3469 3200 3469 
Q 3791 3469 4112 3623 
Q 4434 3778 4434 4056 
Q 4434 4338 4117 4505 
Q 3800 4672 3200 4672 
z
M 403 1716 
L 403 2375 
L 5997 2375 
L 5997 1716 
L 403 1716 
z
M 1222 -306 
L 1222 1381 
L 2009 1381 
L 2009 353 
L 5253 353 
L 5253 -306 
L 1222 -306 
z
" transform="scale(0.015625)"/>
     <path id="MalgunGothicBold-c6b4" d="M 3200 2841 
Q 2244 2841 1705 3175 
Q 1166 3509 1166 4072 
Q 1166 4631 1716 4978 
Q 2266 5325 3200 5325 
Q 4134 5325 4684 4978 
Q 5234 4631 5234 4072 
Q 5234 3513 4690 3177 
Q 4147 2841 3200 2841 
z
M 3200 4684 
Q 2597 4684 2281 4515 
Q 1966 4347 1966 4072 
Q 1966 3797 2284 3639 
Q 2603 3481 3200 3481 
Q 3797 3481 4115 3639 
Q 4434 3797 4434 4072 
Q 4434 4347 4118 4515 
Q 3803 4684 3200 4684 
z
M 3591 1759 
L 3591 769 
L 2803 769 
L 2803 1759 
L 403 1759 
L 403 2419 
L 5997 2419 
L 5997 1759 
L 3591 1759 
z
M 1222 -306 
L 1222 1381 
L 2009 1381 
L 2009 353 
L 5253 353 
L 5253 -306 
L 1222 -306 
z
" transform="scale(0.015625)"/>
     <path id="MalgunGothicBold-c601" d="M 3397 2694 
Q 2916 2216 2203 2216 
Q 1513 2216 1050 2644 
Q 588 3072 588 3763 
Q 588 4450 1048 4881 
Q 1509 5313 2203 5313 
Q 3013 5313 3481 4763 
L 4769 4763 
L 4769 5466 
L 5544 5466 
L 5544 1984 
L 4769 1984 
L 4769 2694 
L 3397 2694 
z
M 2203 4659 
Q 1819 4659 1591 4415 
Q 1363 4172 1363 3763 
Q 1363 3366 1594 3117 
Q 1825 2869 2203 2869 
Q 2578 2869 2815 3116 
Q 3053 3363 3053 3763 
Q 3053 4175 2822 4417 
Q 2591 4659 2203 4659 
z
M 3769 3328 
L 4769 3328 
L 4769 4122 
L 3788 4122 
Q 3828 3956 3828 3763 
Q 3828 3525 3769 3328 
z
M 3659 -538 
Q 2725 -538 2201 -189 
Q 1678 159 1678 716 
Q 1678 1269 2203 1620 
Q 2728 1972 3659 1972 
Q 4594 1972 5122 1619 
Q 5650 1266 5650 716 
Q 5650 159 5123 -189 
Q 4597 -538 3659 -538 
z
M 3659 1325 
Q 3063 1325 2767 1156 
Q 2472 988 2472 716 
Q 2472 444 2770 276 
Q 3069 109 3659 109 
Q 4253 109 4554 275 
Q 4856 441 4856 716 
Q 4856 984 4557 1154 
Q 4259 1325 3659 1325 
z
" transform="scale(0.015625)"/>
     <path id="MalgunGothicBold-c810" d="M 4769 2053 
L 4769 3506 
L 3634 3506 
L 3634 4147 
L 4769 4147 
L 4769 5466 
L 5538 5466 
L 5538 2053 
L 4769 2053 
z
M 3616 2209 
Q 2741 2631 2272 3309 
Q 2119 2975 1701 2579 
Q 1284 2184 909 2003 
L 353 2553 
Q 984 2794 1420 3319 
Q 1856 3844 1856 4397 
L 1856 4563 
L 616 4563 
L 616 5216 
L 3853 5216 
L 3853 4563 
L 2644 4563 
L 2644 4422 
Q 2644 3888 3048 3453 
Q 3453 3019 4116 2803 
L 3616 2209 
z
M 1644 -434 
L 1644 1800 
L 5538 1800 
L 5538 -434 
L 1644 -434 
z
M 4775 1147 
L 2413 1147 
L 2413 219 
L 4775 219 
L 4775 1147 
z
" transform="scale(0.015625)"/>
     <path id="MalgunGothicBold-c5d0" d="M 4922 -563 
L 4922 5466 
L 5678 5466 
L 5678 -563 
L 4922 -563 
z
M 3169 3353 
L 3775 3353 
L 3775 5344 
L 4513 5344 
L 4513 -384 
L 3775 -384 
L 3775 2688 
L 3175 2688 
Q 3122 1800 2772 1351 
Q 2422 903 1819 903 
Q 1150 903 798 1439 
Q 447 1975 447 2988 
Q 447 3997 800 4536 
Q 1153 5075 1819 5075 
Q 2409 5075 2757 4642 
Q 3106 4209 3169 3353 
z
M 1819 4409 
Q 1203 4409 1203 2988 
Q 1203 1569 1819 1569 
Q 2113 1569 2272 1934 
Q 2431 2300 2431 2988 
Q 2431 3672 2273 4040 
Q 2116 4409 1819 4409 
z
" transform="scale(0.015625)"/>
     <path id="MalgunGothicBold-c788" d="M 4684 2053 
L 4684 5466 
L 5472 5466 
L 5472 2053 
L 4684 2053 
z
M 2253 2188 
Q 1550 2188 1089 2614 
Q 628 3041 628 3731 
Q 628 4431 1086 4856 
Q 1544 5281 2253 5281 
Q 2966 5281 3425 4854 
Q 3884 4428 3884 3731 
Q 3884 3053 3418 2620 
Q 2953 2188 2253 2188 
z
M 2253 4622 
Q 1881 4622 1645 4380 
Q 1409 4138 1409 3731 
Q 1409 3338 1648 3089 
Q 1888 2841 2253 2841 
Q 2625 2841 2864 3089 
Q 3103 3338 3103 3731 
Q 3103 4131 2865 4376 
Q 2628 4622 2253 4622 
z
M 5416 -531 
Q 4750 -188 4372 378 
Q 4263 159 3939 -136 
Q 3616 -431 3328 -588 
L 2766 -78 
Q 3338 159 3659 590 
Q 3981 1022 3981 1556 
L 3981 1813 
L 4756 1813 
L 4756 1556 
Q 4756 1050 5086 634 
Q 5416 219 5984 19 
L 5416 -531 
z
M 2656 50 
Q 2394 225 2194 506 
Q 2069 259 1744 -69 
Q 1419 -397 1119 -556 
L 556 -63 
Q 1125 194 1445 622 
Q 1766 1050 1766 1556 
L 1766 1806 
L 2534 1806 
L 2534 1556 
Q 2534 1263 2759 963 
Q 2984 663 3303 538 
L 2656 50 
z
" transform="scale(0.015625)"/>
    </defs>
    <use xlink:href="#MalgunGothicBold-cd5c"/>
    <use xlink:href="#MalgunGothicBold-c885" transform="translate(100 0)"/>
    <use xlink:href="#MalgunGothicBold-20" transform="translate(200 0)"/>
    <use xlink:href="#MalgunGothicBold-4d" transform="translate(235.15625 0)"/>
    <use xlink:href="#MalgunGothicBold-4c" transform="translate(331.591797 0)"/>
    <use xlink:href="#MalgunGothicBold-50" transform="translate(382.8125 0)"/>
    <use xlink:href="#MalgunGothicBold-b294" transform="translate(444.287109 0)"/>
    <use xlink:href="#MalgunGothicBold-20" transform="translate(544.287109 0)"/>
    <use xlink:href="#MalgunGothicBold-67" transform="translate(579.443359 0)"/>
    <use xlink:href="#MalgunGothicBold-6f" transform="translate(642.041016 0)"/>
    <use xlink:href="#MalgunGothicBold-6f" transform="translate(704.003906 0)"/>
    <use xlink:href="#MalgunGothicBold-64" transform="translate(765.966797 0)"/>
    <use xlink:href="#MalgunGothicBold-20" transform="translate(828.564453 0)"/>
    <use xlink:href="#MalgunGothicBold-73" transform="translate(863.720703 0)"/>
    <use xlink:href="#MalgunGothicBold-6c" transform="translate(909.912109 0)"/>
    <use xlink:href="#MalgunGothicBold-65" transform="translate(937.353516 0)"/>
    <use xlink:href="#MalgunGothicBold-65" transform="translate(992.333984 0)"/>
    <use xlink:href="#MalgunGothicBold-70" transform="translate(1047.314453 0)"/>
    <use xlink:href="#MalgunGothicBold-20" transform="translate(1109.960938 0)"/>
    <use xlink:href="#MalgunGothicBold-c7ac" transform="translate(1145.117188 0)"/>
    <use xlink:href="#MalgunGothicBold-d604" transform="translate(1245.117188 0)"/>
    <use xlink:href="#MalgunGothicBold-c728" transform="translate(1345.117188 0)"/>
    <use xlink:href="#MalgunGothicBold-bcf4" transform="translate(1445.117188 0)"/>
    <use xlink:href="#MalgunGothicBold-b2e4" transform="translate(1545.117188 0)"/>
    <use xlink:href="#MalgunGothicBold-20" transform="translate(1645.117188 0)"/>
    <use xlink:href="#MalgunGothicBold-c815" transform="translate(1680.273438 0)"/>
    <use xlink:href="#MalgunGothicBold-bc00" transform="translate(1780.273438 0)"/>
    <use xlink:href="#MalgunGothicBold-b3c4" transform="translate(1880.273438 0)"/>
    <use xlink:href="#MalgunGothicBold-ac00" transform="translate(1980.273438 0)"/>
    <use xlink:href="#MalgunGothicBold-20" transform="translate(2080.273438 0)"/>
    <use xlink:href="#MalgunGothicBold-b192" transform="translate(2115.429688 0)"/>
    <use xlink:href="#MalgunGothicBold-c740" transform="translate(2215.429688 0)"/>
    <use xlink:href="#MalgunGothicBold-20" transform="translate(2315.429688 0)"/>
    <use xlink:href="#MalgunGothicBold-c6b4" transform="translate(2350.585938 0)"/>
    <use xlink:href="#MalgunGothicBold-c601" transform="translate(2450.585938 0)"/>
    <use xlink:href="#MalgunGothicBold-c810" transform="translate(2550.585938 0)"/>
    <use xlink:href="#MalgunGothicBold-c5d0" transform="translate(2650.585938 0)"/>
    <use xlink:href="#MalgunGothicBold-20" transform="translate(2750.585938 0)"/>
    <use xlink:href="#MalgunGothicBold-c788" transform="translate(2785.742188 0)"/>
    <use xlink:href="#MalgunGothicBold-b2e4" transform="translate(2885.742188 0)"/>
   </g>
  </g>
  <g id="text_12">
   <!-- Test split 881개 episode, official threshold 0.54. TN=492, FP=71, FN=183, TP=135. -->
   <g style="fill: #6f768a" transform="translate(92.011406 43.388625) scale(0.1 -0.1)">
    <defs>
     <path id="MalgunGothic-73" d="M 331 669 
Q 763 350 1278 350 
Q 1978 350 1978 822 
Q 1978 1025 1825 1158 
Q 1672 1291 1222 1459 
Q 703 1666 520 1878 
Q 338 2091 338 2416 
Q 338 2834 700 3096 
Q 1063 3359 1584 3359 
Q 2003 3359 2341 3213 
L 2341 2697 
Q 1975 2934 1506 2934 
Q 1200 2934 1025 2798 
Q 850 2663 850 2459 
Q 850 2241 979 2125 
Q 1109 2009 1544 1838 
Q 2131 1609 2309 1390 
Q 2488 1172 2488 869 
Q 2488 431 2127 176 
Q 1766 -78 1203 -78 
Q 694 -78 331 122 
L 331 669 
z
" transform="scale(0.015625)"/>
     <path id="MalgunGothic-70" d="M 1034 481 
L 1034 -1513 
L 538 -1513 
L 538 3284 
L 1034 3284 
L 1034 2703 
L 1047 2703 
Q 1438 3359 2184 3359 
Q 2809 3359 3171 2920 
Q 3534 2481 3534 1738 
Q 3534 906 3126 414 
Q 2719 -78 2034 -78 
Q 1394 -78 1047 481 
L 1034 481 
z
M 1034 1331 
Q 1034 922 1307 633 
Q 1581 344 1991 344 
Q 2475 344 2751 716 
Q 3028 1088 3028 1753 
Q 3028 2300 2767 2620 
Q 2506 2941 2072 2941 
Q 1619 2941 1326 2619 
Q 1034 2297 1034 1806 
L 1034 1331 
z
" transform="scale(0.015625)"/>
     <path id="MalgunGothic-69" d="M 472 4466 
Q 472 4606 565 4701 
Q 659 4797 794 4797 
Q 934 4797 1029 4700 
Q 1125 4603 1125 4466 
Q 1125 4325 1029 4231 
Q 934 4138 794 4138 
Q 659 4138 565 4230 
Q 472 4322 472 4466 
z
M 541 0 
L 541 3284 
L 1034 3284 
L 1034 0 
L 541 0 
z
" transform="scale(0.015625)"/>
     <path id="MalgunGothic-ac1c" d="M 5038 -563 
L 5038 2431 
L 4288 2431 
L 4288 -378 
L 3828 -378 
L 3828 5344 
L 4288 5344 
L 4288 2847 
L 5038 2847 
L 5038 5466 
L 5503 5466 
L 5503 -563 
L 5038 -563 
z
M 3078 4941 
Q 2981 2394 813 878 
L 441 1197 
Q 1263 1634 1891 2575 
Q 2519 3516 2584 4531 
L 800 4531 
L 800 4941 
L 3078 4941 
z
" transform="scale(0.015625)"/>
     <path id="MalgunGothic-2c" d="M 988 725 
L 472 -850 
L 125 -850 
L 503 725 
L 988 725 
z
" transform="scale(0.015625)"/>
     <path id="MalgunGothic-66" d="M 2128 4422 
Q 1975 4506 1778 4506 
Q 1222 4506 1222 3800 
L 1222 3284 
L 1991 3284 
L 1991 2856 
L 1222 2856 
L 1222 0 
L 734 0 
L 734 2856 
L 172 2856 
L 172 3284 
L 734 3284 
L 734 3825 
Q 734 4341 1026 4636 
Q 1319 4931 1753 4931 
Q 1994 4931 2128 4875 
L 2128 4422 
z
" transform="scale(0.015625)"/>
     <path id="MalgunGothic-63" d="M 2763 153 
Q 2375 -78 1872 -78 
Q 1184 -78 750 372 
Q 316 822 316 1566 
Q 316 2381 777 2870 
Q 1238 3359 2009 3359 
Q 2434 3359 2766 3200 
L 2766 2681 
Q 2397 2941 1981 2941 
Q 1478 2941 1148 2577 
Q 819 2213 819 1609 
Q 819 1034 1120 689 
Q 1422 344 1947 344 
Q 2381 344 2763 631 
L 2763 153 
z
" transform="scale(0.015625)"/>
     <path id="MalgunGothic-68" d="M 3238 0 
L 2744 0 
L 2744 1894 
Q 2744 2941 1963 2941 
Q 1572 2941 1303 2637 
Q 1034 2334 1034 1859 
L 1034 0 
L 538 0 
L 538 4859 
L 1034 4859 
L 1034 2734 
L 1047 2734 
Q 1425 3359 2128 3359 
Q 3238 3359 3238 2022 
L 3238 0 
z
" transform="scale(0.015625)"/>
     <path id="MalgunGothic-72" d="M 2225 2775 
Q 2084 2881 1828 2881 
Q 1491 2881 1262 2553 
Q 1034 2225 1034 1681 
L 1034 0 
L 538 0 
L 538 3284 
L 1034 3284 
L 1034 2603 
L 1047 2603 
Q 1159 2950 1389 3145 
Q 1619 3341 1903 3341 
Q 2109 3341 2225 3297 
L 2225 2775 
z
" transform="scale(0.015625)"/>
     <path id="MalgunGothic-2e" d="M 356 275 
Q 356 422 459 523 
Q 563 625 700 625 
Q 838 625 941 523 
Q 1044 422 1044 275 
Q 1044 138 942 33 
Q 841 -72 700 -72 
Q 559 -72 457 29 
Q 356 131 356 275 
z
" transform="scale(0.015625)"/>
     <path id="MalgunGothic-3d" d="M 3750 2397 
L 744 2397 
L 744 2803 
L 3750 2803 
L 3750 2397 
z
M 3750 1031 
L 744 1031 
L 744 1441 
L 3750 1441 
L 3750 1031 
z
" transform="scale(0.015625)"/>
    </defs>
    <use xlink:href="#MalgunGothic-54"/>
    <use xlink:href="#MalgunGothic-65" transform="translate(42.244141 0)"/>
    <use xlink:href="#MalgunGothic-73" transform="translate(95.759766 0)"/>
    <use xlink:href="#MalgunGothic-74" transform="translate(139.070312 0)"/>
    <use xlink:href="#MalgunGothic-20" transform="translate(173.542969 0)"/>
    <use xlink:href="#MalgunGothic-73" transform="translate(208.699219 0)"/>
    <use xlink:href="#MalgunGothic-70" transform="translate(252.009766 0)"/>
    <use xlink:href="#MalgunGothic-6c" transform="translate(312.068359 0)"/>
    <use xlink:href="#MalgunGothic-69" transform="translate(336.677734 0)"/>
    <use xlink:href="#MalgunGothic-74" transform="translate(361.287109 0)"/>
    <use xlink:href="#MalgunGothic-20" transform="translate(395.759766 0)"/>
    <use xlink:href="#MalgunGothic-38" transform="translate(430.916016 0)"/>
    <use xlink:href="#MalgunGothic-38" transform="translate(485.994141 0)"/>
    <use xlink:href="#MalgunGothic-31" transform="translate(541.072266 0)"/>
    <use xlink:href="#MalgunGothic-ac1c" transform="translate(596.150391 0)"/>
    <use xlink:href="#MalgunGothic-20" transform="translate(696.150391 0)"/>
    <use xlink:href="#MalgunGothic-65" transform="translate(731.306641 0)"/>
    <use xlink:href="#MalgunGothic-70" transform="translate(784.822266 0)"/>
    <use xlink:href="#MalgunGothic-69" transform="translate(844.880859 0)"/>
    <use xlink:href="#MalgunGothic-73" transform="translate(869.490234 0)"/>
    <use xlink:href="#MalgunGothic-6f" transform="translate(912.800781 0)"/>
    <use xlink:href="#MalgunGothic-64" transform="translate(972.712891 0)"/>
    <use xlink:href="#MalgunGothic-65" transform="translate(1032.917969 0)"/>
    <use xlink:href="#MalgunGothic-2c" transform="translate(1086.433594 0)"/>
    <use xlink:href="#MalgunGothic-20" transform="translate(1108.308594 0)"/>
    <use xlink:href="#MalgunGothic-6f" transform="translate(1143.464844 0)"/>
    <use xlink:href="#MalgunGothic-66" transform="translate(1201.376953 0)"/>
    <use xlink:href="#MalgunGothic-66" transform="translate(1233.017578 0)"/>
    <use xlink:href="#MalgunGothic-69" transform="translate(1264.658203 0)"/>
    <use xlink:href="#MalgunGothic-63" transform="translate(1289.267578 0)"/>
    <use xlink:href="#MalgunGothic-69" transform="translate(1336.533203 0)"/>
    <use xlink:href="#MalgunGothic-61" transform="translate(1361.142578 0)"/>
    <use xlink:href="#MalgunGothic-6c" transform="translate(1413.144531 0)"/>
    <use xlink:href="#MalgunGothic-20" transform="translate(1437.753906 0)"/>
    <use xlink:href="#MalgunGothic-74" transform="translate(1472.910156 0)"/>
    <use xlink:href="#MalgunGothic-68" transform="translate(1507.382812 0)"/>
    <use xlink:href="#MalgunGothic-72" transform="translate(1565.244141 0)"/>
    <use xlink:href="#MalgunGothic-65" transform="translate(1599.220703 0)"/>
    <use xlink:href="#MalgunGothic-73" transform="translate(1652.736328 0)"/>
    <use xlink:href="#MalgunGothic-68" transform="translate(1696.046875 0)"/>
    <use xlink:href="#MalgunGothic-6f" transform="translate(1753.908203 0)"/>
    <use xlink:href="#MalgunGothic-6c" transform="translate(1813.820312 0)"/>
    <use xlink:href="#MalgunGothic-64" transform="translate(1838.429688 0)"/>
    <use xlink:href="#MalgunGothic-20" transform="translate(1898.634766 0)"/>
    <use xlink:href="#MalgunGothic-30" transform="translate(1933.791016 0)"/>
    <use xlink:href="#MalgunGothic-2e" transform="translate(1988.869141 0)"/>
    <use xlink:href="#MalgunGothic-35" transform="translate(2010.744141 0)"/>
    <use xlink:href="#MalgunGothic-34" transform="translate(2065.822266 0)"/>
    <use xlink:href="#MalgunGothic-2e" transform="translate(2120.900391 0)"/>
    <use xlink:href="#MalgunGothic-20" transform="translate(2142.775391 0)"/>
    <use xlink:href="#MalgunGothic-54" transform="translate(2177.931641 0)"/>
    <use xlink:href="#MalgunGothic-4e" transform="translate(2231.300781 0)"/>
    <use xlink:href="#MalgunGothic-3d" transform="translate(2307.814453 0)"/>
    <use xlink:href="#MalgunGothic-34" transform="translate(2377.882812 0)"/>
    <use xlink:href="#MalgunGothic-39" transform="translate(2432.960938 0)"/>
    <use xlink:href="#MalgunGothic-32" transform="translate(2488.039062 0)"/>
    <use xlink:href="#MalgunGothic-2c" transform="translate(2543.117188 0)"/>
    <use xlink:href="#MalgunGothic-20" transform="translate(2564.992188 0)"/>
    <use xlink:href="#MalgunGothic-46" transform="translate(2600.148438 0)"/>
    <use xlink:href="#MalgunGothic-50" transform="translate(2650.001953 0)"/>
    <use xlink:href="#MalgunGothic-3d" transform="translate(2707.082031 0)"/>
    <use xlink:href="#MalgunGothic-37" transform="translate(2777.150391 0)"/>
    <use xlink:href="#MalgunGothic-31" transform="translate(2832.228516 0)"/>
    <use xlink:href="#MalgunGothic-2c" transform="translate(2887.306641 0)"/>
    <use xlink:href="#MalgunGothic-20" transform="translate(2909.181641 0)"/>
    <use xlink:href="#MalgunGothic-46" transform="translate(2944.337891 0)"/>
    <use xlink:href="#MalgunGothic-4e" transform="translate(2994.191406 0)"/>
    <use xlink:href="#MalgunGothic-3d" transform="translate(3070.705078 0)"/>
    <use xlink:href="#MalgunGothic-31" transform="translate(3140.773438 0)"/>
    <use xlink:href="#MalgunGothic-38" transform="translate(3195.851562 0)"/>
    <use xlink:href="#MalgunGothic-33" transform="translate(3250.929688 0)"/>
    <use xlink:href="#MalgunGothic-2c" transform="translate(3306.007812 0)"/>
    <use xlink:href="#MalgunGothic-20" transform="translate(3327.882812 0)"/>
    <use xlink:href="#MalgunGothic-54" transform="translate(3363.039062 0)"/>
    <use xlink:href="#MalgunGothic-50" transform="translate(3416.408203 0)"/>
    <use xlink:href="#MalgunGothic-3d" transform="translate(3473.488281 0)"/>
    <use xlink:href="#MalgunGothic-31" transform="translate(3543.556641 0)"/>
    <use xlink:href="#MalgunGothic-33" transform="translate(3598.634766 0)"/>
    <use xlink:href="#MalgunGothic-35" transform="translate(3653.712891 0)"/>
    <use xlink:href="#MalgunGothic-2e" transform="translate(3708.791016 0)"/>
   </g>
  </g>
 </g>
 <defs>
  <clipPath id="pdbf44f7bc8">
   <rect x="92.011406" y="76.32" width="401.76" height="327.168"/>
  </clipPath>
 </defs>
</svg>
