<?xml version="1.0" encoding="utf-8" standalone="no"?>
<!DOCTYPE svg PUBLIC "-//W3C//DTD SVG 1.1//EN"
  "http://www.w3.org/Graphics/SVG/1.1/DTD/svg11.dtd">
<svg xmlns:xlink="http://www.w3.org/1999/xlink" width="731.232656pt" height="391.359375pt" viewBox="0 0 731.232656 391.359375" xmlns="http://www.w3.org/2000/svg" version="1.1">
 <metadata>
  <rdf:RDF xmlns:dc="http://purl.org/dc/elements/1.1/" xmlns:cc="http://creativecommons.org/ns#" xmlns:rdf="http://www.w3.org/1999/02/22-rdf-syntax-ns#">
   <cc:Work>
    <dc:type rdf:resource="http://purl.org/dc/dcmitype/StillImage"/>
    <dc:date>2026-06-30T14:57:33.474156</dc:date>
    <dc:format>image/svg+xml</dc:format>
    <dc:creator>
     <cc:Agent>
      <dc:title>Matplotlib v3.10.9, https://matplotlib.org/</dc:title>
     </cc:Agent>
    </dc:creator>
   </cc:Work>
  </rdf:RDF>
 </metadata>
 <defs>
  <style type="text/css">*{stroke-linejoin: round; stroke-linecap: butt}</style>
 </defs>
 <g id="figure_1">
  <g id="patch_1">
   <path d="M 0 391.359375 
L 731.232656 391.359375 
L 731.232656 0 
L 0 0 
z
" style="fill: #fcfcfd"/>
  </g>
  <g id="axes_1">
   <g id="patch_2">
    <path d="M 47.170938 347.76 
L 340.855148 347.76 
L 340.855148 82.44 
L 47.170938 82.44 
z
" style="fill: #ffffff"/>
   </g>
   <g id="matplotlib.axis_1">
    <g id="xtick_1">
     <g id="line2d_1">
      <path d="M 47.170938 347.76 
L 47.170938 82.44 
" clip-path="url(#pab92ef3487)" style="fill: none; stroke: #e6e8f0; stroke-width: 0.8; stroke-linecap: round"/>
     </g>
     <g id="text_1">
      <!-- 0.0 -->
      <g style="fill: #262626" transform="translate(39.909219 365.611406) scale(0.11 -0.11)">
       <defs>
        <path id="MalgunGothic-30" d="M 278 2206 
Q 278 3425 675 4050 
Q 1072 4675 1819 4675 
Q 3253 4675 3253 2319 
Q 3253 1156 2854 539 
Q 2456 -78 1716 -78 
Q 1016 -78 647 520 
Q 278 1119 278 2206 
z
M 784 2231 
Q 784 344 1769 344 
Q 2747 344 2747 2259 
Q 2747 4250 1794 4250 
Q 784 4250 784 2231 
z
" transform="scale(0.015625)"/>
        <path id="MalgunGothic-2e" d="M 356 275 
Q 356 422 459 523 
Q 563 625 700 625 
Q 838 625 941 523 
Q 1044 422 1044 275 
Q 1044 138 942 33 
Q 841 -72 700 -72 
Q 559 -72 457 29 
Q 356 131 356 275 
z
" transform="scale(0.015625)"/>
       </defs>
       <use xlink:href="#MalgunGothic-30"/>
       <use xlink:href="#MalgunGothic-2e" transform="translate(55.078125 0)"/>
       <use xlink:href="#MalgunGothic-30" transform="translate(76.953125 0)"/>
      </g>
     </g>
    </g>
    <g id="xtick_2">
     <g id="line2d_2">
      <path d="M 105.90778 347.76 
L 105.90778 82.44 
" clip-path="url(#pab92ef3487)" style="fill: none; stroke: #e6e8f0; stroke-width: 0.8; stroke-linecap: round"/>
     </g>
     <g id="text_2">
      <!-- 0.2 -->
      <g style="fill: #262626" transform="translate(98.646061 365.611406) scale(0.11 -0.11)">
       <defs>
        <path id="MalgunGothic-32" d="M 2519 3372 
Q 2519 3784 2275 4018 
Q 2031 4253 1628 4253 
Q 1341 4253 1053 4104 
Q 766 3956 534 3697 
L 534 4234 
Q 981 4675 1691 4675 
Q 2281 4675 2642 4334 
Q 3003 3994 3003 3416 
Q 3003 2919 2772 2545 
Q 2541 2172 1984 1775 
Q 1459 1406 1254 1215 
Q 1050 1025 967 854 
Q 884 684 884 450 
L 3116 450 
L 3116 0 
L 356 0 
L 356 225 
Q 356 603 461 870 
Q 566 1138 811 1392 
Q 1056 1647 1597 2022 
Q 2091 2363 2305 2670 
Q 2519 2978 2519 3372 
z
" transform="scale(0.015625)"/>
       </defs>
       <use xlink:href="#MalgunGothic-30"/>
       <use xlink:href="#MalgunGothic-2e" transform="translate(55.078125 0)"/>
       <use xlink:href="#MalgunGothic-32" transform="translate(76.953125 0)"/>
      </g>
     </g>
    </g>
    <g id="xtick_3">
     <g id="line2d_3">
      <path d="M 164.644622 347.76 
L 164.644622 82.44 
" clip-path="url(#pab92ef3487)" style="fill: none; stroke: #e6e8f0; stroke-width: 0.8; stroke-linecap: round"/>
     </g>
     <g id="text_3">
      <!-- 0.4 -->
      <g style="fill: #262626" transform="translate(157.382903 365.611406) scale(0.11 -0.11)">
       <defs>
        <path id="MalgunGothic-34" d="M 2703 4600 
L 2703 1563 
L 3309 1563 
L 3309 1113 
L 2703 1113 
L 2703 0 
L 2213 0 
L 2213 1113 
L 50 1113 
L 50 1534 
Q 728 2297 1295 3109 
Q 1863 3922 2172 4600 
L 2703 4600 
z
M 625 1563 
L 2213 1563 
L 2213 3831 
Q 1613 2788 959 1981 
L 625 1563 
z
" transform="scale(0.015625)"/>
       </defs>
       <use xlink:href="#MalgunGothic-30"/>
       <use xlink:href="#MalgunGothic-2e" transform="translate(55.078125 0)"/>
       <use xlink:href="#MalgunGothic-34" transform="translate(76.953125 0)"/>
      </g>
     </g>
    </g>
    <g id="xtick_4">
     <g id="line2d_4">
      <path d="M 223.381464 347.76 
L 223.381464 82.44 
" clip-path="url(#pab92ef3487)" style="fill: none; stroke: #e6e8f0; stroke-width: 0.8; stroke-linecap: round"/>
     </g>
     <g id="text_4">
      <!-- 0.6 -->
      <g style="fill: #262626" transform="translate(216.119745 365.611406) scale(0.11 -0.11)">
       <defs>
        <path id="MalgunGothic-36" d="M 2981 4069 
Q 2619 4250 2228 4250 
Q 1591 4250 1228 3689 
Q 866 3128 869 2213 
L 884 2213 
Q 1203 2872 1938 2872 
Q 2547 2872 2903 2478 
Q 3259 2084 3259 1450 
Q 3259 797 2857 359 
Q 2456 -78 1825 -78 
Q 1116 -78 736 478 
Q 356 1034 356 2019 
Q 356 3181 847 3928 
Q 1338 4675 2222 4675 
Q 2700 4675 2981 4544 
L 2981 4069 
z
M 906 1506 
Q 906 1022 1165 683 
Q 1425 344 1844 344 
Q 2247 344 2498 645 
Q 2750 947 2750 1388 
Q 2750 1888 2509 2167 
Q 2269 2447 1838 2447 
Q 1444 2447 1175 2173 
Q 906 1900 906 1506 
z
" transform="scale(0.015625)"/>
       </defs>
       <use xlink:href="#MalgunGothic-30"/>
       <use xlink:href="#MalgunGothic-2e" transform="translate(55.078125 0)"/>
       <use xlink:href="#MalgunGothic-36" transform="translate(76.953125 0)"/>
      </g>
     </g>
    </g>
    <g id="xtick_5">
     <g id="line2d_5">
      <path d="M 282.118306 347.76 
L 282.118306 82.44 
" clip-path="url(#pab92ef3487)" style="fill: none; stroke: #e6e8f0; stroke-width: 0.8; stroke-linecap: round"/>
     </g>
     <g id="text_5">
      <!-- 0.8 -->
      <g style="fill: #262626" transform="translate(274.856587 365.611406) scale(0.11 -0.11)">
       <defs>
        <path id="MalgunGothic-38" d="M 303 1281 
Q 303 1669 539 2011 
Q 775 2353 1153 2494 
Q 856 2647 675 2915 
Q 494 3184 494 3500 
Q 494 3828 659 4098 
Q 825 4369 1122 4522 
Q 1419 4675 1778 4675 
Q 2334 4675 2700 4342 
Q 3066 4009 3066 3500 
Q 3066 3181 2881 2914 
Q 2697 2647 2413 2494 
Q 2788 2350 3022 2009 
Q 3256 1669 3256 1281 
Q 3256 672 2843 297 
Q 2431 -78 1778 -78 
Q 1131 -78 717 301 
Q 303 681 303 1281 
z
M 809 1328 
Q 809 878 1081 611 
Q 1353 344 1781 344 
Q 2206 344 2482 619 
Q 2759 894 2759 1328 
Q 2759 1731 2482 2011 
Q 2206 2291 1781 2291 
Q 1372 2291 1090 2020 
Q 809 1750 809 1328 
z
M 1003 3459 
Q 1003 3125 1234 2900 
Q 1466 2675 1781 2675 
Q 2097 2675 2330 2900 
Q 2563 3125 2563 3459 
Q 2563 3803 2341 4026 
Q 2119 4250 1781 4250 
Q 1450 4250 1226 4029 
Q 1003 3809 1003 3459 
z
" transform="scale(0.015625)"/>
       </defs>
       <use xlink:href="#MalgunGothic-30"/>
       <use xlink:href="#MalgunGothic-2e" transform="translate(55.078125 0)"/>
       <use xlink:href="#MalgunGothic-38" transform="translate(76.953125 0)"/>
      </g>
     </g>
    </g>
    <g id="xtick_6">
     <g id="line2d_6">
      <path d="M 340.855148 347.76 
L 340.855148 82.44 
" clip-path="url(#pab92ef3487)" style="fill: none; stroke: #e6e8f0; stroke-width: 0.8; stroke-linecap: round"/>
     </g>
     <g id="text_6">
      <!-- 1.0 -->
      <g style="fill: #262626" transform="translate(333.593429 365.611406) scale(0.11 -0.11)">
       <defs>
        <path id="MalgunGothic-31" d="M 2231 0 
L 1734 0 
L 1734 3972 
Q 1591 3828 1266 3661 
Q 941 3494 672 3428 
L 672 3959 
Q 1016 4056 1409 4275 
Q 1803 4494 2031 4700 
L 2231 4700 
L 2231 0 
z
" transform="scale(0.015625)"/>
       </defs>
       <use xlink:href="#MalgunGothic-31"/>
       <use xlink:href="#MalgunGothic-2e" transform="translate(55.078125 0)"/>
       <use xlink:href="#MalgunGothic-30" transform="translate(76.953125 0)"/>
      </g>
     </g>
    </g>
    <g id="text_7">
     <!-- False positive rate -->
     <g style="fill: #1f2430" transform="translate(145.25273 381.3225) scale(0.12 -0.12)">
      <defs>
       <path id="MalgunGothic-46" d="M 2922 4134 
L 1113 4134 
L 1113 2516 
L 2788 2516 
L 2788 2050 
L 1113 2050 
L 1113 0 
L 609 0 
L 609 4600 
L 2922 4600 
L 2922 4134 
z
" transform="scale(0.015625)"/>
       <path id="MalgunGothic-61" d="M 616 3050 
Q 1097 3359 1722 3359 
Q 2866 3359 2866 2147 
L 2866 0 
L 2369 0 
L 2369 516 
L 2350 516 
Q 2009 -78 1341 -78 
Q 859 -78 576 180 
Q 294 438 294 869 
Q 294 1784 1375 1934 
L 2366 2078 
Q 2366 2934 1684 2934 
Q 1084 2934 616 2525 
L 616 3050 
z
M 1563 1559 
Q 1178 1509 993 1371 
Q 809 1234 809 903 
Q 809 653 986 500 
Q 1163 347 1450 347 
Q 1847 347 2106 628 
Q 2366 909 2366 1334 
L 2366 1666 
L 1563 1559 
z
" transform="scale(0.015625)"/>
       <path id="MalgunGothic-6c" d="M 541 0 
L 541 4859 
L 1034 4859 
L 1034 0 
L 541 0 
z
" transform="scale(0.015625)"/>
       <path id="MalgunGothic-73" d="M 331 669 
Q 763 350 1278 350 
Q 1978 350 1978 822 
Q 1978 1025 1825 1158 
Q 1672 1291 1222 1459 
Q 703 1666 520 1878 
Q 338 2091 338 2416 
Q 338 2834 700 3096 
Q 1063 3359 1584 3359 
Q 2003 3359 2341 3213 
L 2341 2697 
Q 1975 2934 1506 2934 
Q 1200 2934 1025 2798 
Q 850 2663 850 2459 
Q 850 2241 979 2125 
Q 1109 2009 1544 1838 
Q 2131 1609 2309 1390 
Q 2488 1172 2488 869 
Q 2488 431 2127 176 
Q 1766 -78 1203 -78 
Q 694 -78 331 122 
L 331 669 
z
" transform="scale(0.015625)"/>
       <path id="MalgunGothic-65" d="M 3156 1519 
L 828 1519 
Q 844 950 1133 648 
Q 1422 347 1909 347 
Q 2472 347 2934 719 
L 2934 244 
Q 2494 -78 1794 -78 
Q 1100 -78 708 376 
Q 316 831 316 1634 
Q 316 2381 747 2870 
Q 1178 3359 1816 3359 
Q 2453 3359 2804 2942 
Q 3156 2525 3156 1788 
L 3156 1519 
z
M 2644 1956 
Q 2644 2416 2423 2675 
Q 2203 2934 1809 2934 
Q 1438 2934 1169 2667 
Q 900 2400 834 1956 
L 2644 1956 
z
" transform="scale(0.015625)"/>
       <path id="MalgunGothic-20" transform="scale(0.015625)"/>
       <path id="MalgunGothic-70" d="M 1034 481 
L 1034 -1513 
L 538 -1513 
L 538 3284 
L 1034 3284 
L 1034 2703 
L 1047 2703 
Q 1438 3359 2184 3359 
Q 2809 3359 3171 2920 
Q 3534 2481 3534 1738 
Q 3534 906 3126 414 
Q 2719 -78 2034 -78 
Q 1394 -78 1047 481 
L 1034 481 
z
M 1034 1331 
Q 1034 922 1307 633 
Q 1581 344 1991 344 
Q 2475 344 2751 716 
Q 3028 1088 3028 1753 
Q 3028 2300 2767 2620 
Q 2506 2941 2072 2941 
Q 1619 2941 1326 2619 
Q 1034 2297 1034 1806 
L 1034 1331 
z
" transform="scale(0.015625)"/>
       <path id="MalgunGothic-6f" d="M 316 1600 
Q 316 2419 761 2889 
Q 1206 3359 1978 3359 
Q 2697 3359 3111 2907 
Q 3525 2456 3525 1650 
Q 3525 869 3078 395 
Q 2631 -78 1900 -78 
Q 1184 -78 750 384 
Q 316 847 316 1600 
z
M 819 1622 
Q 819 1041 1123 692 
Q 1428 344 1934 344 
Q 2459 344 2739 680 
Q 3019 1016 3019 1634 
Q 3019 2256 2737 2598 
Q 2456 2941 1934 2941 
Q 1425 2941 1122 2587 
Q 819 2234 819 1622 
z
" transform="scale(0.015625)"/>
       <path id="MalgunGothic-69" d="M 472 4466 
Q 472 4606 565 4701 
Q 659 4797 794 4797 
Q 934 4797 1029 4700 
Q 1125 4603 1125 4466 
Q 1125 4325 1029 4231 
Q 934 4138 794 4138 
Q 659 4138 565 4230 
Q 472 4322 472 4466 
z
M 541 0 
L 541 3284 
L 1034 3284 
L 1034 0 
L 541 0 
z
" transform="scale(0.015625)"/>
       <path id="MalgunGothic-74" d="M 2031 31 
Q 1844 -72 1553 -72 
Q 706 -72 706 881 
L 706 2856 
L 138 2856 
L 138 3284 
L 706 3284 
L 706 4091 
L 1200 4250 
L 1200 3284 
L 2031 3284 
L 2031 2856 
L 1200 2856 
L 1200 972 
Q 1200 625 1315 487 
Q 1431 350 1691 350 
Q 1888 350 2031 459 
L 2031 31 
z
" transform="scale(0.015625)"/>
       <path id="MalgunGothic-76" d="M 3084 3284 
L 1769 0 
L 1294 0 
L 47 3284 
L 594 3284 
L 1441 872 
Q 1531 609 1556 425 
L 1572 425 
Q 1603 669 1672 863 
L 2563 3284 
L 3084 3284 
z
" transform="scale(0.015625)"/>
       <path id="MalgunGothic-72" d="M 2225 2775 
Q 2084 2881 1828 2881 
Q 1491 2881 1262 2553 
Q 1034 2225 1034 1681 
L 1034 0 
L 538 0 
L 538 3284 
L 1034 3284 
L 1034 2603 
L 1047 2603 
Q 1159 2950 1389 3145 
Q 1619 3341 1903 3341 
Q 2109 3341 2225 3297 
L 2225 2775 
z
" transform="scale(0.015625)"/>
      </defs>
      <use xlink:href="#MalgunGothic-46"/>
      <use xlink:href="#MalgunGothic-61" transform="translate(45.853516 0)"/>
      <use xlink:href="#MalgunGothic-6c" transform="translate(97.855469 0)"/>
      <use xlink:href="#MalgunGothic-73" transform="translate(122.464844 0)"/>
      <use xlink:href="#MalgunGothic-65" transform="translate(165.775391 0)"/>
      <use xlink:href="#MalgunGothic-20" transform="translate(219.291016 0)"/>
      <use xlink:href="#MalgunGothic-70" transform="translate(254.447266 0)"/>
      <use xlink:href="#MalgunGothic-6f" transform="translate(314.505859 0)"/>
      <use xlink:href="#MalgunGothic-73" transform="translate(374.417969 0)"/>
      <use xlink:href="#MalgunGothic-69" transform="translate(417.728516 0)"/>
      <use xlink:href="#MalgunGothic-74" transform="translate(442.337891 0)"/>
      <use xlink:href="#MalgunGothic-69" transform="translate(476.810547 0)"/>
      <use xlink:href="#MalgunGothic-76" transform="translate(501.419922 0)"/>
      <use xlink:href="#MalgunGothic-65" transform="translate(549.525391 0)"/>
      <use xlink:href="#MalgunGothic-20" transform="translate(603.041016 0)"/>
      <use xlink:href="#MalgunGothic-72" transform="translate(638.197266 0)"/>
      <use xlink:href="#MalgunGothic-61" transform="translate(673.548828 0)"/>
      <use xlink:href="#MalgunGothic-74" transform="translate(725.550781 0)"/>
      <use xlink:href="#MalgunGothic-65" transform="translate(759.148438 0)"/>
     </g>
    </g>
   </g>
   <g id="matplotlib.axis_2">
    <g id="ytick_1">
     <g id="line2d_7">
      <path d="M 47.170938 347.76 
L 340.855148 347.76 
" clip-path="url(#pab92ef3487)" style="fill: none; stroke: #e6e8f0; stroke-width: 0.8; stroke-linecap: round"/>
     </g>
     <g id="text_8">
      <!-- 0.0 -->
      <g style="fill: #262626" transform="translate(23.1475 351.935703) scale(0.11 -0.11)">
       <use xlink:href="#MalgunGothic-30"/>
       <use xlink:href="#MalgunGothic-2e" transform="translate(55.078125 0)"/>
       <use xlink:href="#MalgunGothic-30" transform="translate(76.953125 0)"/>
      </g>
     </g>
    </g>
    <g id="ytick_2">
     <g id="line2d_8">
      <path d="M 47.170938 294.696 
L 340.855148 294.696 
" clip-path="url(#pab92ef3487)" style="fill: none; stroke: #e6e8f0; stroke-width: 0.8; stroke-linecap: round"/>
     </g>
     <g id="text_9">
      <!-- 0.2 -->
      <g style="fill: #262626" transform="translate(23.1475 298.871703) scale(0.11 -0.11)">
       <use xlink:href="#MalgunGothic-30"/>
       <use xlink:href="#MalgunGothic-2e" transform="translate(55.078125 0)"/>
       <use xlink:href="#MalgunGothic-32" transform="translate(76.953125 0)"/>
      </g>
     </g>
    </g>
    <g id="ytick_3">
     <g id="line2d_9">
      <path d="M 47.170938 241.632 
L 340.855148 241.632 
" clip-path="url(#pab92ef3487)" style="fill: none; stroke: #e6e8f0; stroke-width: 0.8; stroke-linecap: round"/>
     </g>
     <g id="text_10">
      <!-- 0.4 -->
      <g style="fill: #262626" transform="translate(23.1475 245.807703) scale(0.11 -0.11)">
       <use xlink:href="#MalgunGothic-30"/>
       <use xlink:href="#MalgunGothic-2e" transform="translate(55.078125 0)"/>
       <use xlink:href="#MalgunGothic-34" transform="translate(76.953125 0)"/>
      </g>
     </g>
    </g>
    <g id="ytick_4">
     <g id="line2d_10">
      <path d="M 47.170938 188.568 
L 340.855148 188.568 
" clip-path="url(#pab92ef3487)" style="fill: none; stroke: #e6e8f0; stroke-width: 0.8; stroke-linecap: round"/>
     </g>
     <g id="text_11">
      <!-- 0.6 -->
      <g style="fill: #262626" transform="translate(23.1475 192.743703) scale(0.11 -0.11)">
       <use xlink:href="#MalgunGothic-30"/>
       <use xlink:href="#MalgunGothic-2e" transform="translate(55.078125 0)"/>
       <use xlink:href="#MalgunGothic-36" transform="translate(76.953125 0)"/>
      </g>
     </g>
    </g>
    <g id="ytick_5">
     <g id="line2d_11">
      <path d="M 47.170938 135.504 
L 340.855148 135.504 
" clip-path="url(#pab92ef3487)" style="fill: none; stroke: #e6e8f0; stroke-width: 0.8; stroke-linecap: round"/>
     </g>
     <g id="text_12">
      <!-- 0.8 -->
      <g style="fill: #262626" transform="translate(23.1475 139.679703) scale(0.11 -0.11)">
       <use xlink:href="#MalgunGothic-30"/>
       <use xlink:href="#MalgunGothic-2e" transform="translate(55.078125 0)"/>
       <use xlink:href="#MalgunGothic-38" transform="translate(76.953125 0)"/>
      </g>
     </g>
    </g>
    <g id="ytick_6">
     <g id="line2d_12">
      <path d="M 47.170938 82.44 
L 340.855148 82.44 
" clip-path="url(#pab92ef3487)" style="fill: none; stroke: #e6e8f0; stroke-width: 0.8; stroke-linecap: round"/>
     </g>
     <g id="text_13">
      <!-- 1.0 -->
      <g style="fill: #262626" transform="translate(23.1475 86.615703) scale(0.11 -0.11)">
       <use xlink:href="#MalgunGothic-31"/>
       <use xlink:href="#MalgunGothic-2e" transform="translate(55.078125 0)"/>
       <use xlink:href="#MalgunGothic-30" transform="translate(76.953125 0)"/>
      </g>
     </g>
    </g>
    <g id="text_14">
     <!-- True positive rate -->
     <g style="fill: #1f2430" transform="translate(16.310625 262.14375) rotate(-90) scale(0.12 -0.12)">
      <defs>
       <path id="MalgunGothic-54" d="M 3294 4134 
L 1966 4134 
L 1966 0 
L 1456 0 
L 1456 4134 
L 134 4134 
L 134 4600 
L 3294 4600 
L 3294 4134 
z
" transform="scale(0.015625)"/>
       <path id="MalgunGothic-75" d="M 3166 0 
L 2669 0 
L 2669 519 
L 2656 519 
Q 2331 -78 1644 -78 
Q 469 -78 469 1322 
L 469 3284 
L 959 3284 
L 959 1403 
Q 959 344 1766 344 
Q 2159 344 2414 636 
Q 2669 928 2669 1394 
L 2669 3284 
L 3166 3284 
L 3166 0 
z
" transform="scale(0.015625)"/>
      </defs>
      <use xlink:href="#MalgunGothic-54"/>
      <use xlink:href="#MalgunGothic-72" transform="translate(43.994141 0)"/>
      <use xlink:href="#MalgunGothic-75" transform="translate(79.345703 0)"/>
      <use xlink:href="#MalgunGothic-65" transform="translate(137.158203 0)"/>
      <use xlink:href="#MalgunGothic-20" transform="translate(190.673828 0)"/>
      <use xlink:href="#MalgunGothic-70" transform="translate(225.830078 0)"/>
      <use xlink:href="#MalgunGothic-6f" transform="translate(285.888672 0)"/>
      <use xlink:href="#MalgunGothic-73" transform="translate(345.800781 0)"/>
      <use xlink:href="#MalgunGothic-69" transform="translate(389.111328 0)"/>
      <use xlink:href="#MalgunGothic-74" transform="translate(413.720703 0)"/>
      <use xlink:href="#MalgunGothic-69" transform="translate(448.193359 0)"/>
      <use xlink:href="#MalgunGothic-76" transform="translate(472.802734 0)"/>
      <use xlink:href="#MalgunGothic-65" transform="translate(520.908203 0)"/>
      <use xlink:href="#MalgunGothic-20" transform="translate(574.423828 0)"/>
      <use xlink:href="#MalgunGothic-72" transform="translate(609.580078 0)"/>
      <use xlink:href="#MalgunGothic-61" transform="translate(644.931641 0)"/>
      <use xlink:href="#MalgunGothic-74" transform="translate(696.933594 0)"/>
      <use xlink:href="#MalgunGothic-65" transform="translate(730.53125 0)"/>
     </g>
    </g>
   </g>
   <g id="line2d_13">
    <path d="M 47.170938 347.76 
L 47.170938 343.588302 
L 47.692579 343.588302 
L 47.692579 338.582264 
L 48.214221 338.582264 
L 48.214221 337.747925 
L 48.735862 337.747925 
L 48.735862 323.564151 
L 49.257504 323.564151 
L 49.257504 321.895472 
L 50.300787 321.895472 
L 50.300787 319.392453 
L 50.822429 319.392453 
L 50.822429 311.049057 
L 51.34407 311.049057 
L 51.34407 310.214717 
L 51.865712 310.214717 
L 51.865712 305.208679 
L 52.387353 305.208679 
L 52.387353 298.533962 
L 52.908995 298.533962 
L 52.908995 297.699623 
L 53.430636 297.699623 
L 53.430636 293.527925 
L 53.952278 293.527925 
L 53.952278 291.859245 
L 54.47392 291.859245 
L 54.47392 289.356226 
L 54.995561 289.356226 
L 54.995561 282.681509 
L 55.517203 282.681509 
L 55.517203 281.84717 
L 57.082128 281.84717 
L 57.082128 281.01283 
L 57.603769 281.01283 
L 57.603769 278.509811 
L 58.647052 278.509811 
L 58.647052 277.675472 
L 59.690335 277.675472 
L 59.690335 274.338113 
L 60.211977 274.338113 
L 60.211977 271.000755 
L 62.298543 271.000755 
L 62.298543 268.497736 
L 62.820185 268.497736 
L 62.820185 266.829057 
L 63.341827 266.829057 
L 63.341827 265.160377 
L 63.863468 265.160377 
L 63.863468 261.823019 
L 64.906751 261.823019 
L 64.906751 260.15434 
L 65.950034 260.15434 
L 65.950034 259.32 
L 66.471676 259.32 
L 66.471676 258.48566 
L 66.993318 258.48566 
L 66.993318 256.816981 
L 67.514959 256.816981 
L 67.514959 255.148302 
L 68.036601 255.148302 
L 68.036601 254.313962 
L 69.601526 254.313962 
L 69.601526 251.810943 
L 71.16645 251.810943 
L 71.16645 250.976604 
L 71.688092 250.976604 
L 71.688092 249.307925 
L 72.209733 249.307925 
L 72.209733 247.639245 
L 72.731375 247.639245 
L 72.731375 245.970566 
L 73.253017 245.970566 
L 73.253017 245.136226 
L 74.2963 245.136226 
L 74.2963 244.301887 
L 76.382866 244.301887 
L 76.382866 242.633208 
L 78.469432 242.633208 
L 78.469432 241.798868 
L 79.512716 241.798868 
L 79.512716 240.964528 
L 80.034357 240.964528 
L 80.034357 240.130189 
L 82.120923 240.130189 
L 82.120923 237.62717 
L 84.20749 237.62717 
L 84.20749 230.952453 
L 85.772415 230.952453 
L 85.772415 230.118113 
L 86.294056 230.118113 
L 86.294056 229.283774 
L 87.337339 229.283774 
L 87.337339 228.449434 
L 90.98883 228.449434 
L 90.98883 227.615094 
L 93.075397 227.615094 
L 93.075397 226.780755 
L 93.597038 226.780755 
L 93.597038 225.946415 
L 94.640321 225.946415 
L 94.640321 225.112075 
L 95.683605 225.112075 
L 95.683605 224.277736 
L 98.813454 224.277736 
L 98.813454 223.443396 
L 100.378379 223.443396 
L 100.378379 222.609057 
L 102.464945 222.609057 
L 102.464945 220.940377 
L 103.508228 220.940377 
L 103.508228 220.106038 
L 106.116436 220.106038 
L 106.116436 218.437358 
L 107.159719 218.437358 
L 107.159719 217.603019 
L 107.681361 217.603019 
L 107.681361 214.26566 
L 111.332852 214.26566 
L 111.332852 208.425283 
L 112.376135 208.425283 
L 112.376135 206.756604 
L 113.94106 206.756604 
L 113.94106 205.922264 
L 114.462702 205.922264 
L 114.462702 204.253585 
L 114.984343 204.253585 
L 114.984343 202.584906 
L 116.027626 202.584906 
L 116.027626 201.750566 
L 117.070909 201.750566 
L 117.070909 200.916226 
L 117.592551 200.916226 
L 117.592551 198.413208 
L 118.635834 198.413208 
L 118.635834 196.744528 
L 120.200759 196.744528 
L 120.200759 195.910189 
L 125.417175 195.910189 
L 125.417175 195.075849 
L 128.547024 195.075849 
L 128.547024 193.40717 
L 129.068666 193.40717 
L 129.068666 192.57283 
L 131.676874 192.57283 
L 131.676874 191.738491 
L 133.241798 191.738491 
L 133.241798 190.904151 
L 134.806723 190.904151 
L 134.806723 189.235472 
L 135.328365 189.235472 
L 135.328365 188.401132 
L 135.850006 188.401132 
L 135.850006 187.566792 
L 137.936573 187.566792 
L 137.936573 186.732453 
L 138.979856 186.732453 
L 138.979856 185.898113 
L 141.588064 185.898113 
L 141.588064 185.063774 
L 142.109705 185.063774 
L 142.109705 183.395094 
L 146.282838 183.395094 
L 146.282838 182.560755 
L 147.326121 182.560755 
L 147.326121 181.726415 
L 148.369404 181.726415 
L 148.369404 180.892075 
L 149.412688 180.892075 
L 149.412688 180.057736 
L 152.020895 180.057736 
L 152.020895 177.554717 
L 152.542537 177.554717 
L 152.542537 175.886038 
L 153.064179 175.886038 
L 153.064179 175.051698 
L 159.323878 175.051698 
L 159.323878 174.217358 
L 160.367161 174.217358 
L 160.367161 173.383019 
L 161.932085 173.383019 
L 161.932085 172.548679 
L 162.453727 172.548679 
L 162.453727 171.71434 
L 168.191784 171.71434 
L 168.191784 170.88 
L 169.235068 170.88 
L 169.235068 169.211321 
L 172.364917 169.211321 
L 172.364917 168.376981 
L 174.451483 168.376981 
L 174.451483 167.542642 
L 176.016408 167.542642 
L 176.016408 166.708302 
L 177.059691 166.708302 
L 177.059691 165.873962 
L 177.581333 165.873962 
L 177.581333 165.039623 
L 182.797749 165.039623 
L 182.797749 163.370943 
L 184.362674 163.370943 
L 184.362674 162.536604 
L 184.884315 162.536604 
L 184.884315 161.702264 
L 185.405957 161.702264 
L 185.405957 159.199245 
L 191.144014 159.199245 
L 191.144014 155.861887 
L 194.273864 155.861887 
L 194.273864 155.027547 
L 195.838788 155.027547 
L 195.838788 153.358868 
L 198.968638 153.358868 
L 198.968638 152.524528 
L 199.490279 152.524528 
L 199.490279 151.690189 
L 200.011921 151.690189 
L 200.011921 150.855849 
L 202.620129 150.855849 
L 202.620129 148.35283 
L 203.14177 148.35283 
L 203.14177 146.684151 
L 205.228337 146.684151 
L 205.228337 145.849811 
L 206.27162 145.849811 
L 206.27162 144.181132 
L 207.314903 144.181132 
L 207.314903 143.346792 
L 208.358186 143.346792 
L 208.358186 141.678113 
L 209.923111 141.678113 
L 209.923111 140.843774 
L 210.444753 140.843774 
L 210.444753 140.009434 
L 211.488036 140.009434 
L 211.488036 139.175094 
L 214.096244 139.175094 
L 214.096244 138.340755 
L 215.661168 138.340755 
L 215.661168 137.506415 
L 216.704452 137.506415 
L 216.704452 136.672075 
L 217.747735 136.672075 
L 217.747735 134.169057 
L 218.791018 134.169057 
L 218.791018 133.334717 
L 221.399226 133.334717 
L 221.399226 132.500377 
L 221.920867 132.500377 
L 221.920867 130.831698 
L 222.964151 130.831698 
L 222.964151 129.997358 
L 225.050717 129.997358 
L 225.050717 129.163019 
L 225.572358 129.163019 
L 225.572358 128.328679 
L 226.094 128.328679 
L 226.094 127.49434 
L 228.702208 127.49434 
L 228.702208 126.66 
L 231.310416 126.66 
L 231.310416 125.82566 
L 232.353699 125.82566 
L 232.353699 124.991321 
L 232.875341 124.991321 
L 232.875341 123.322642 
L 235.483549 123.322642 
L 235.483549 122.488302 
L 236.00519 122.488302 
L 236.00519 121.653962 
L 241.743247 121.653962 
L 241.743247 120.819623 
L 242.786531 120.819623 
L 242.786531 119.985283 
L 245.394739 119.985283 
L 245.394739 119.150943 
L 248.524588 119.150943 
L 248.524588 118.316604 
L 252.697721 118.316604 
L 252.697721 117.482264 
L 253.219362 117.482264 
L 253.219362 116.647925 
L 262.087269 116.647925 
L 262.087269 115.813585 
L 263.652194 115.813585 
L 263.652194 114.979245 
L 278.258158 114.979245 
L 278.258158 114.144906 
L 278.7798 114.144906 
L 278.7798 113.310566 
L 281.909649 113.310566 
L 281.909649 112.476226 
L 282.431291 112.476226 
L 282.431291 111.641887 
L 290.777556 111.641887 
L 290.777556 110.807547 
L 293.907406 110.807547 
L 293.907406 109.973208 
L 294.429047 109.973208 
L 294.429047 109.138868 
L 296.515614 109.138868 
L 296.515614 108.304528 
L 298.080538 108.304528 
L 298.080538 107.470189 
L 300.688746 107.470189 
L 300.688746 106.635849 
L 301.732029 106.635849 
L 301.732029 105.801509 
L 309.035012 105.801509 
L 309.035012 104.96717 
L 309.556653 104.96717 
L 309.556653 104.13283 
L 310.599936 104.13283 
L 310.599936 103.298491 
L 311.121578 103.298491 
L 311.121578 102.464151 
L 314.773069 102.464151 
L 314.773069 101.629811 
L 317.902918 101.629811 
L 317.902918 100.795472 
L 320.511126 100.795472 
L 320.511126 99.961132 
L 321.032768 99.961132 
L 321.032768 99.126792 
L 326.770825 99.126792 
L 326.770825 96.623774 
L 331.4656 96.623774 
L 331.4656 95.789434 
L 334.073807 95.789434 
L 334.073807 94.955094 
L 335.638732 94.955094 
L 335.638732 92.452075 
L 336.160374 92.452075 
L 336.160374 91.617736 
L 336.682015 91.617736 
L 336.682015 90.783396 
L 339.290223 90.783396 
L 339.290223 87.446038 
L 339.811865 87.446038 
L 339.811865 85.777358 
L 340.855148 85.777358 
L 340.855148 82.44 
L 340.855148 82.44 
" clip-path="url(#pab92ef3487)" style="fill: none; stroke: #5477c4; stroke-width: 2; stroke-linecap: round"/>
   </g>
   <g id="line2d_14">
    <path d="M 47.170938 347.76 
L 340.855148 82.44 
" clip-path="url(#pab92ef3487)" style="fill: none; stroke-dasharray: 1.2,1.98; stroke-dashoffset: 0; stroke: #7a828f; stroke-width: 1.2"/>
   </g>
   <g id="patch_3">
    <path d="M 47.170938 347.76 
L 47.170938 82.44 
" style="fill: none; stroke: #d7dbe7; stroke-width: 1.25; stroke-linejoin: miter; stroke-linecap: square"/>
   </g>
   <g id="patch_4">
    <path d="M 47.170938 347.76 
L 340.855148 347.76 
" style="fill: none; stroke: #d7dbe7; stroke-width: 1.25; stroke-linejoin: miter; stroke-linecap: square"/>
   </g>
   <g id="text_15">
    <!-- ROC curve -->
    <g style="fill: #262626" transform="translate(163.915543 62.670375) scale(0.12 -0.12)">
     <defs>
      <path id="MalgunGothicBold-52" d="M 4241 0 
L 3209 0 
L 2478 1216 
Q 2256 1584 2100 1700 
Q 1944 1816 1763 1816 
L 1438 1816 
L 1438 0 
L 547 0 
L 547 4600 
L 2109 4600 
Q 3703 4600 3703 3356 
Q 3703 2900 3436 2564 
Q 3169 2228 2675 2088 
L 2675 2075 
Q 2991 1969 3372 1366 
L 4241 0 
z
M 1438 3906 
L 1438 2513 
L 1969 2513 
Q 2331 2513 2548 2723 
Q 2766 2934 2766 3250 
Q 2766 3906 1984 3906 
L 1438 3906 
z
" transform="scale(0.015625)"/>
      <path id="MalgunGothicBold-4f" d="M 256 2241 
Q 256 3325 879 4000 
Q 1503 4675 2538 4675 
Q 3519 4675 4117 4020 
Q 4716 3366 4716 2341 
Q 4716 1259 4098 589 
Q 3481 -81 2466 -81 
Q 1478 -81 867 572 
Q 256 1225 256 2241 
z
M 1194 2291 
Q 1194 1591 1539 1142 
Q 1884 694 2478 694 
Q 3094 694 3436 1120 
Q 3778 1547 3778 2278 
Q 3778 3031 3447 3465 
Q 3116 3900 2509 3900 
Q 1897 3900 1545 3445 
Q 1194 2991 1194 2291 
z
" transform="scale(0.015625)"/>
      <path id="MalgunGothicBold-43" d="M 3794 172 
Q 3294 -81 2494 -81 
Q 1472 -81 864 542 
Q 256 1166 256 2203 
Q 256 3291 934 3983 
Q 1613 4675 2675 4675 
Q 3344 4675 3794 4497 
L 3794 3628 
Q 3325 3900 2731 3900 
Q 2034 3900 1614 3447 
Q 1194 2994 1194 2266 
Q 1194 1550 1594 1122 
Q 1994 694 2659 694 
Q 3288 694 3794 994 
L 3794 172 
z
" transform="scale(0.015625)"/>
      <path id="MalgunGothicBold-20" transform="scale(0.015625)"/>
      <path id="MalgunGothicBold-63" d="M 2875 128 
Q 2522 -81 1909 -81 
Q 1172 -81 714 373 
Q 256 828 256 1563 
Q 256 2400 747 2881 
Q 1238 3363 2056 3363 
Q 2591 3363 2875 3206 
L 2875 2441 
Q 2544 2684 2144 2684 
Q 1688 2684 1413 2398 
Q 1138 2113 1138 1625 
Q 1138 1144 1397 872 
Q 1656 600 2109 600 
Q 2506 600 2875 850 
L 2875 128 
z
" transform="scale(0.015625)"/>
      <path id="MalgunGothicBold-75" d="M 3444 0 
L 2575 0 
L 2575 506 
L 2559 506 
Q 2197 -81 1553 -81 
Q 400 -81 400 1306 
L 400 3284 
L 1272 3284 
L 1272 1397 
Q 1272 600 1891 600 
Q 2194 600 2384 817 
Q 2575 1034 2575 1400 
L 2575 3284 
L 3444 3284 
L 3444 0 
z
" transform="scale(0.015625)"/>
      <path id="MalgunGothicBold-72" d="M 2472 2481 
Q 2300 2584 2050 2584 
Q 1722 2584 1525 2317 
Q 1328 2050 1328 1600 
L 1328 0 
L 456 0 
L 456 3284 
L 1328 3284 
L 1328 2653 
L 1338 2653 
Q 1578 3341 2203 3341 
Q 2381 3341 2472 3297 
L 2472 2481 
z
" transform="scale(0.015625)"/>
      <path id="MalgunGothicBold-76" d="M 3425 3284 
L 2175 0 
L 1209 0 
L 22 3284 
L 959 3284 
L 1606 1153 
Q 1697 850 1719 609 
L 1734 609 
Q 1759 844 1847 1138 
L 2513 3284 
L 3425 3284 
z
" transform="scale(0.015625)"/>
      <path id="MalgunGothicBold-65" d="M 3316 1397 
L 1122 1397 
Q 1175 559 2072 559 
Q 2619 559 3047 847 
L 3047 184 
Q 2591 -81 1875 -81 
Q 1109 -81 682 362 
Q 256 806 256 1603 
Q 256 2384 714 2873 
Q 1172 3363 1859 3363 
Q 2547 3363 2931 2941 
Q 3316 2519 3316 1781 
L 3316 1397 
z
M 2494 1969 
Q 2494 2750 1850 2750 
Q 1581 2750 1376 2537 
Q 1172 2325 1122 1969 
L 2494 1969 
z
" transform="scale(0.015625)"/>
     </defs>
     <use xlink:href="#MalgunGothicBold-52"/>
     <use xlink:href="#MalgunGothicBold-4f" transform="translate(64.255859 0)"/>
     <use xlink:href="#MalgunGothicBold-43" transform="translate(141.892578 0)"/>
     <use xlink:href="#MalgunGothicBold-20" transform="translate(205.759766 0)"/>
     <use xlink:href="#MalgunGothicBold-63" transform="translate(240.916016 0)"/>
     <use xlink:href="#MalgunGothicBold-75" transform="translate(289.646484 0)"/>
     <use xlink:href="#MalgunGothicBold-72" transform="translate(350.486328 0)"/>
     <use xlink:href="#MalgunGothicBold-76" transform="translate(394.091797 0)"/>
     <use xlink:href="#MalgunGothicBold-65" transform="translate(446.628906 0)"/>
    </g>
    <!-- AUC=0.694 -->
    <g style="fill: #262626" transform="translate(161.89148 76.44) scale(0.12 -0.12)">
     <defs>
      <path id="MalgunGothicBold-41" d="M 4447 0 
L 3475 0 
L 3103 1100 
L 1375 1100 
L 1013 0 
L 41 0 
L 1744 4600 
L 2772 4600 
L 4447 0 
z
M 2881 1806 
L 2319 3472 
Q 2284 3572 2247 3853 
L 2225 3853 
Q 2200 3644 2147 3478 
L 1581 1806 
L 2881 1806 
z
" transform="scale(0.015625)"/>
      <path id="MalgunGothicBold-55" d="M 4188 1953 
Q 4188 -81 2306 -81 
Q 497 -81 497 1897 
L 497 4600 
L 1391 4600 
L 1391 1897 
Q 1391 694 2353 694 
Q 3297 694 3297 1856 
L 3297 4600 
L 4188 4600 
L 4188 1953 
z
" transform="scale(0.015625)"/>
      <path id="MalgunGothicBold-3d" d="M 3847 2288 
L 756 2288 
L 756 2875 
L 3847 2875 
L 3847 2288 
z
M 3847 900 
L 756 900 
L 756 1488 
L 3847 1488 
L 3847 900 
z
" transform="scale(0.015625)"/>
      <path id="MalgunGothicBold-30" d="M 241 2222 
Q 241 3422 670 4048 
Q 1100 4675 1919 4675 
Q 3475 4675 3475 2328 
Q 3475 1172 3051 545 
Q 2628 -81 1825 -81 
Q 241 -81 241 2222 
z
M 1125 2244 
Q 1125 600 1863 600 
Q 2584 600 2584 2288 
Q 2584 3997 1878 3997 
Q 1125 3997 1125 2244 
z
" transform="scale(0.015625)"/>
      <path id="MalgunGothicBold-2e" d="M 309 400 
Q 309 609 467 743 
Q 625 878 841 878 
Q 1056 878 1209 743 
Q 1363 609 1363 400 
Q 1363 188 1209 55 
Q 1056 -78 828 -78 
Q 613 -78 461 59 
Q 309 197 309 400 
z
" transform="scale(0.015625)"/>
      <path id="MalgunGothicBold-36" d="M 3166 3803 
Q 2819 3997 2406 3997 
Q 1853 3997 1526 3548 
Q 1200 3100 1200 2400 
L 1219 2400 
Q 1547 2934 2209 2934 
Q 2791 2934 3134 2539 
Q 3478 2144 3478 1509 
Q 3478 813 3040 366 
Q 2603 -81 1931 -81 
Q 1153 -81 742 491 
Q 331 1063 331 2047 
Q 331 3213 868 3944 
Q 1406 4675 2356 4675 
Q 2881 4675 3166 4547 
L 3166 3803 
z
M 1231 1509 
Q 1231 1138 1422 869 
Q 1613 600 1934 600 
Q 2250 600 2434 840 
Q 2619 1081 2619 1447 
Q 2619 2272 1931 2272 
Q 1622 2272 1426 2055 
Q 1231 1838 1231 1509 
z
" transform="scale(0.015625)"/>
      <path id="MalgunGothicBold-39" d="M 525 831 
Q 894 600 1381 600 
Q 1953 600 2253 1011 
Q 2553 1422 2553 2144 
L 2538 2150 
Q 2241 1656 1581 1656 
Q 997 1656 631 2064 
Q 266 2472 266 3075 
Q 266 3784 706 4229 
Q 1147 4675 1847 4675 
Q 2591 4675 3000 4109 
Q 3409 3544 3409 2534 
Q 3409 1306 2896 612 
Q 2384 -81 1447 -81 
Q 909 -81 525 91 
L 525 831 
z
M 1125 3159 
Q 1125 2778 1314 2553 
Q 1503 2328 1838 2328 
Q 2138 2328 2328 2540 
Q 2519 2753 2519 3056 
Q 2519 3441 2325 3719 
Q 2131 3997 1813 3997 
Q 1497 3997 1311 3750 
Q 1125 3503 1125 3159 
z
" transform="scale(0.015625)"/>
      <path id="MalgunGothicBold-34" d="M 2969 4600 
L 2969 1653 
L 3519 1653 
L 3519 1016 
L 2969 1016 
L 2969 0 
L 2163 0 
L 2163 1016 
L 159 1016 
L 159 1688 
Q 788 2406 1325 3189 
Q 1863 3972 2147 4600 
L 2969 4600 
z
M 900 1653 
L 2163 1653 
L 2163 3434 
Q 1972 3094 1622 2592 
Q 1272 2091 900 1653 
z
" transform="scale(0.015625)"/>
     </defs>
     <use xlink:href="#MalgunGothicBold-41"/>
     <use xlink:href="#MalgunGothicBold-55" transform="translate(68.486328 0)"/>
     <use xlink:href="#MalgunGothicBold-43" transform="translate(141.582031 0)"/>
     <use xlink:href="#MalgunGothicBold-3d" transform="translate(205.449219 0)"/>
     <use xlink:href="#MalgunGothicBold-30" transform="translate(277.373047 0)"/>
     <use xlink:href="#MalgunGothicBold-2e" transform="translate(335.332031 0)"/>
     <use xlink:href="#MalgunGothicBold-36" transform="translate(361.503906 0)"/>
     <use xlink:href="#MalgunGothicBold-39" transform="translate(419.462891 0)"/>
     <use xlink:href="#MalgunGothicBold-34" transform="translate(477.421875 0)"/>
    </g>
   </g>
  </g>
  <g id="axes_2">
   <g id="patch_5">
    <path d="M 423.086727 347.76 
L 716.770937 347.76 
L 716.770937 82.44 
L 423.086727 82.44 
z
" style="fill: #ffffff"/>
   </g>
   <g id="matplotlib.axis_3">
    <g id="xtick_7">
     <g id="line2d_15">
      <path d="M 423.086727 347.76 
L 423.086727 82.44 
" clip-path="url(#p3391b1a82f)" style="fill: none; stroke: #e6e8f0; stroke-width: 0.8; stroke-linecap: round"/>
     </g>
     <g id="text_16">
      <!-- 0.0 -->
      <g style="fill: #262626" transform="translate(415.825008 365.611406) scale(0.11 -0.11)">
       <use xlink:href="#MalgunGothic-30"/>
       <use xlink:href="#MalgunGothic-2e" transform="translate(55.078125 0)"/>
       <use xlink:href="#MalgunGothic-30" transform="translate(76.953125 0)"/>
      </g>
     </g>
    </g>
    <g id="xtick_8">
     <g id="line2d_16">
      <path d="M 481.823569 347.76 
L 481.823569 82.44 
" clip-path="url(#p3391b1a82f)" style="fill: none; stroke: #e6e8f0; stroke-width: 0.8; stroke-linecap: round"/>
     </g>
     <g id="text_17">
      <!-- 0.2 -->
      <g style="fill: #262626" transform="translate(474.56185 365.611406) scale(0.11 -0.11)">
       <use xlink:href="#MalgunGothic-30"/>
       <use xlink:href="#MalgunGothic-2e" transform="translate(55.078125 0)"/>
       <use xlink:href="#MalgunGothic-32" transform="translate(76.953125 0)"/>
      </g>
     </g>
    </g>
    <g id="xtick_9">
     <g id="line2d_17">
      <path d="M 540.560411 347.76 
L 540.560411 82.44 
" clip-path="url(#p3391b1a82f)" style="fill: none; stroke: #e6e8f0; stroke-width: 0.8; stroke-linecap: round"/>
     </g>
     <g id="text_18">
      <!-- 0.4 -->
      <g style="fill: #262626" transform="translate(533.298692 365.611406) scale(0.11 -0.11)">
       <use xlink:href="#MalgunGothic-30"/>
       <use xlink:href="#MalgunGothic-2e" transform="translate(55.078125 0)"/>
       <use xlink:href="#MalgunGothic-34" transform="translate(76.953125 0)"/>
      </g>
     </g>
    </g>
    <g id="xtick_10">
     <g id="line2d_18">
      <path d="M 599.297253 347.76 
L 599.297253 82.44 
" clip-path="url(#p3391b1a82f)" style="fill: none; stroke: #e6e8f0; stroke-width: 0.8; stroke-linecap: round"/>
     </g>
     <g id="text_19">
      <!-- 0.6 -->
      <g style="fill: #262626" transform="translate(592.035535 365.611406) scale(0.11 -0.11)">
       <use xlink:href="#MalgunGothic-30"/>
       <use xlink:href="#MalgunGothic-2e" transform="translate(55.078125 0)"/>
       <use xlink:href="#MalgunGothic-36" transform="translate(76.953125 0)"/>
      </g>
     </g>
    </g>
    <g id="xtick_11">
     <g id="line2d_19">
      <path d="M 658.034095 347.76 
L 658.034095 82.44 
" clip-path="url(#p3391b1a82f)" style="fill: none; stroke: #e6e8f0; stroke-width: 0.8; stroke-linecap: round"/>
     </g>
     <g id="text_20">
      <!-- 0.8 -->
      <g style="fill: #262626" transform="translate(650.772377 365.611406) scale(0.11 -0.11)">
       <use xlink:href="#MalgunGothic-30"/>
       <use xlink:href="#MalgunGothic-2e" transform="translate(55.078125 0)"/>
       <use xlink:href="#MalgunGothic-38" transform="translate(76.953125 0)"/>
      </g>
     </g>
    </g>
    <g id="xtick_12">
     <g id="line2d_20">
      <path d="M 716.770937 347.76 
L 716.770937 82.44 
" clip-path="url(#p3391b1a82f)" style="fill: none; stroke: #e6e8f0; stroke-width: 0.8; stroke-linecap: round"/>
     </g>
     <g id="text_21">
      <!-- 1.0 -->
      <g style="fill: #262626" transform="translate(709.509219 365.611406) scale(0.11 -0.11)">
       <use xlink:href="#MalgunGothic-31"/>
       <use xlink:href="#MalgunGothic-2e" transform="translate(55.078125 0)"/>
       <use xlink:href="#MalgunGothic-30" transform="translate(76.953125 0)"/>
      </g>
     </g>
    </g>
    <g id="text_22">
     <!-- Recall -->
     <g style="fill: #1f2430" transform="translate(554.32977 381.3225) scale(0.12 -0.12)">
      <defs>
       <path id="MalgunGothic-52" d="M 3866 0 
L 3259 0 
L 2488 1294 
Q 2241 1706 2044 1837 
Q 1847 1969 1569 1969 
L 1113 1969 
L 1113 0 
L 609 0 
L 609 4600 
L 1963 4600 
Q 2597 4600 2970 4272 
Q 3344 3944 3344 3375 
Q 3344 2422 2325 2138 
L 2325 2125 
Q 2519 2041 2645 1902 
Q 2772 1763 3006 1381 
L 3866 0 
z
M 1113 4128 
L 1113 2438 
L 1866 2438 
Q 2291 2438 2552 2686 
Q 2813 2934 2813 3334 
Q 2813 3709 2570 3918 
Q 2328 4128 1872 4128 
L 1113 4128 
z
" transform="scale(0.015625)"/>
       <path id="MalgunGothic-63" d="M 2763 153 
Q 2375 -78 1872 -78 
Q 1184 -78 750 372 
Q 316 822 316 1566 
Q 316 2381 777 2870 
Q 1238 3359 2009 3359 
Q 2434 3359 2766 3200 
L 2766 2681 
Q 2397 2941 1981 2941 
Q 1478 2941 1148 2577 
Q 819 2213 819 1609 
Q 819 1034 1120 689 
Q 1422 344 1947 344 
Q 2381 344 2763 631 
L 2763 153 
z
" transform="scale(0.015625)"/>
      </defs>
      <use xlink:href="#MalgunGothic-52"/>
      <use xlink:href="#MalgunGothic-65" transform="translate(57.986328 0)"/>
      <use xlink:href="#MalgunGothic-63" transform="translate(111.501953 0)"/>
      <use xlink:href="#MalgunGothic-61" transform="translate(158.767578 0)"/>
      <use xlink:href="#MalgunGothic-6c" transform="translate(210.769531 0)"/>
      <use xlink:href="#MalgunGothic-6c" transform="translate(235.378906 0)"/>
     </g>
    </g>
   </g>
   <g id="matplotlib.axis_4">
    <g id="ytick_7">
     <g id="line2d_21">
      <path d="M 423.086727 347.76 
L 716.770937 347.76 
" clip-path="url(#p3391b1a82f)" style="fill: none; stroke: #e6e8f0; stroke-width: 0.8; stroke-linecap: round"/>
     </g>
     <g id="text_23">
      <!-- 0.0 -->
      <g style="fill: #262626" transform="translate(399.063289 351.935703) scale(0.11 -0.11)">
       <use xlink:href="#MalgunGothic-30"/>
       <use xlink:href="#MalgunGothic-2e" transform="translate(55.078125 0)"/>
       <use xlink:href="#MalgunGothic-30" transform="translate(76.953125 0)"/>
      </g>
     </g>
    </g>
    <g id="ytick_8">
     <g id="line2d_22">
      <path d="M 423.086727 294.696 
L 716.770937 294.696 
" clip-path="url(#p3391b1a82f)" style="fill: none; stroke: #e6e8f0; stroke-width: 0.8; stroke-linecap: round"/>
     </g>
     <g id="text_24">
      <!-- 0.2 -->
      <g style="fill: #262626" transform="translate(399.063289 298.871703) scale(0.11 -0.11)">
       <use xlink:href="#MalgunGothic-30"/>
       <use xlink:href="#MalgunGothic-2e" transform="translate(55.078125 0)"/>
       <use xlink:href="#MalgunGothic-32" transform="translate(76.953125 0)"/>
      </g>
     </g>
    </g>
    <g id="ytick_9">
     <g id="line2d_23">
      <path d="M 423.086727 241.632 
L 716.770937 241.632 
" clip-path="url(#p3391b1a82f)" style="fill: none; stroke: #e6e8f0; stroke-width: 0.8; stroke-linecap: round"/>
     </g>
     <g id="text_25">
      <!-- 0.4 -->
      <g style="fill: #262626" transform="translate(399.063289 245.807703) scale(0.11 -0.11)">
       <use xlink:href="#MalgunGothic-30"/>
       <use xlink:href="#MalgunGothic-2e" transform="translate(55.078125 0)"/>
       <use xlink:href="#MalgunGothic-34" transform="translate(76.953125 0)"/>
      </g>
     </g>
    </g>
    <g id="ytick_10">
     <g id="line2d_24">
      <path d="M 423.086727 188.568 
L 716.770937 188.568 
" clip-path="url(#p3391b1a82f)" style="fill: none; stroke: #e6e8f0; stroke-width: 0.8; stroke-linecap: round"/>
     </g>
     <g id="text_26">
      <!-- 0.6 -->
      <g style="fill: #262626" transform="translate(399.063289 192.743703) scale(0.11 -0.11)">
       <use xlink:href="#MalgunGothic-30"/>
       <use xlink:href="#MalgunGothic-2e" transform="translate(55.078125 0)"/>
       <use xlink:href="#MalgunGothic-36" transform="translate(76.953125 0)"/>
      </g>
     </g>
    </g>
    <g id="ytick_11">
     <g id="line2d_25">
      <path d="M 423.086727 135.504 
L 716.770937 135.504 
" clip-path="url(#p3391b1a82f)" style="fill: none; stroke: #e6e8f0; stroke-width: 0.8; stroke-linecap: round"/>
     </g>
     <g id="text_27">
      <!-- 0.8 -->
      <g style="fill: #262626" transform="translate(399.063289 139.679703) scale(0.11 -0.11)">
       <use xlink:href="#MalgunGothic-30"/>
       <use xlink:href="#MalgunGothic-2e" transform="translate(55.078125 0)"/>
       <use xlink:href="#MalgunGothic-38" transform="translate(76.953125 0)"/>
      </g>
     </g>
    </g>
    <g id="ytick_12">
     <g id="line2d_26">
      <path d="M 423.086727 82.44 
L 716.770937 82.44 
" clip-path="url(#p3391b1a82f)" style="fill: none; stroke: #e6e8f0; stroke-width: 0.8; stroke-linecap: round"/>
     </g>
     <g id="text_28">
      <!-- 1.0 -->
      <g style="fill: #262626" transform="translate(399.063289 86.615703) scale(0.11 -0.11)">
       <use xlink:href="#MalgunGothic-31"/>
       <use xlink:href="#MalgunGothic-2e" transform="translate(55.078125 0)"/>
       <use xlink:href="#MalgunGothic-30" transform="translate(76.953125 0)"/>
      </g>
     </g>
    </g>
    <g id="text_29">
     <!-- Precision -->
     <g style="fill: #1f2430" transform="translate(392.226414 239.225625) rotate(-90) scale(0.12 -0.12)">
      <defs>
       <path id="MalgunGothic-50" d="M 1113 1747 
L 1113 0 
L 609 0 
L 609 4600 
L 1850 4600 
Q 2575 4600 2979 4240 
Q 3384 3881 3384 3231 
Q 3384 2559 2909 2140 
Q 2434 1722 1728 1747 
L 1113 1747 
z
M 1113 4131 
L 1113 2219 
L 1691 2219 
Q 2256 2219 2554 2475 
Q 2853 2731 2853 3206 
Q 2853 4131 1759 4131 
L 1113 4131 
z
" transform="scale(0.015625)"/>
       <path id="MalgunGothic-6e" d="M 3238 0 
L 2741 0 
L 2741 1875 
Q 2741 2941 1963 2941 
Q 1563 2941 1298 2639 
Q 1034 2338 1034 1872 
L 1034 0 
L 538 0 
L 538 3284 
L 1034 3284 
L 1034 2734 
L 1047 2734 
Q 1416 3359 2125 3359 
Q 2666 3359 2952 3012 
Q 3238 2666 3238 2006 
L 3238 0 
z
" transform="scale(0.015625)"/>
      </defs>
      <use xlink:href="#MalgunGothic-50"/>
      <use xlink:href="#MalgunGothic-72" transform="translate(57.080078 0)"/>
      <use xlink:href="#MalgunGothic-65" transform="translate(91.056641 0)"/>
      <use xlink:href="#MalgunGothic-63" transform="translate(144.572266 0)"/>
      <use xlink:href="#MalgunGothic-69" transform="translate(191.837891 0)"/>
      <use xlink:href="#MalgunGothic-73" transform="translate(216.447266 0)"/>
      <use xlink:href="#MalgunGothic-69" transform="translate(259.757812 0)"/>
      <use xlink:href="#MalgunGothic-6f" transform="translate(284.367188 0)"/>
      <use xlink:href="#MalgunGothic-6e" transform="translate(344.279297 0)"/>
     </g>
    </g>
   </g>
   <g id="line2d_27">
    <path d="M 716.770937 251.991827 
L 713.076796 252.765154 
L 713.076796 252.656712 
L 713.076796 252.548023 
L 707.535585 253.614194 
L 707.535585 253.068737 
L 705.688514 253.355442 
L 705.688514 253.245541 
L 702.917909 253.844159 
L 702.917909 253.734316 
L 702.917909 253.513857 
L 701.994373 253.714648 
L 701.994373 253.604136 
L 701.994373 253.159481 
L 701.070838 253.361277 
L 701.070838 253.249562 
L 701.070838 252.346237 
L 698.300232 252.95741 
L 698.300232 252.843601 
L 698.300232 251.690304 
L 697.376697 251.896204 
L 697.376697 251.77944 
L 696.453162 251.985951 
L 696.453162 251.39838 
L 695.529627 251.605946 
L 695.529627 250.891931 
L 694.606091 251.100669 
L 694.606091 250.2549 
L 693.682556 250.464931 
L 693.682556 250.343008 
L 692.759021 250.553676 
L 692.759021 250.309132 
L 691.835486 250.520554 
L 691.835486 250.397932 
L 690.91195 250.61 
L 690.91195 248.861799 
L 689.988415 249.075985 
L 689.988415 248.821316 
L 689.06488 249.036279 
L 689.06488 248.394382 
L 688.141345 248.610469 
L 688.141345 248.221647 
L 687.217809 248.438639 
L 687.217809 247.915895 
L 686.294274 248.133913 
L 686.294274 248.00248 
L 685.370739 248.221189 
L 685.370739 247.425939 
L 684.447204 247.64592 
L 684.447204 245.463597 
L 683.523668 245.686003 
L 683.523668 245.546557 
L 682.600133 245.769685 
L 682.600133 244.925628 
L 681.676598 245.150055 
L 681.676598 245.008133 
L 680.753063 245.233296 
L 680.753063 241.096772 
L 679.829527 241.325714 
L 679.829527 240.862957 
L 678.905992 241.092888 
L 678.905992 238.394464 
L 677.982457 238.626885 
L 677.982457 238.464 
L 677.058922 238.69722 
L 677.058922 237.377247 
L 676.135386 237.612 
L 676.135386 236.601468 
L 675.211851 236.83755 
L 675.211851 235.981667 
L 674.288316 236.21898 
L 674.288316 235.873116 
L 673.364781 236.111366 
L 673.364781 234.171185 
L 672.441245 234.411266 
L 672.441245 234.231632 
L 671.51771 234.472571 
L 671.51771 233.566272 
L 669.67064 234.051429 
L 669.67064 233.868617 
L 668.747104 234.112464 
L 668.747104 233.745267 
L 667.823569 233.990097 
L 667.823569 233.062121 
L 666.900034 233.308235 
L 666.900034 232.36547 
L 665.976499 232.612871 
L 665.976499 232.422545 
L 665.052963 232.670861 
L 665.052963 232.48 
L 664.129428 232.729236 
L 664.129428 231.959799 
L 663.205893 232.210251 
L 663.205893 231.821849 
L 661.358822 232.325666 
L 661.358822 232.130676 
L 660.435287 232.383959 
L 660.435287 231.399522 
L 659.511752 231.654154 
L 659.511752 231.255849 
L 656.741146 232.025586 
L 656.741146 231.625121 
L 655.817611 231.883674 
L 655.817611 231.480626 
L 654.894076 231.740279 
L 654.894076 231.130718 
L 653.97054 231.391579 
L 653.97054 230.36177 
L 653.047005 230.624043 
L 653.047005 230.207189 
L 652.12347 230.470588 
L 652.12347 230.261143 
L 651.199935 230.525581 
L 651.199935 229.893022 
L 649.352864 230.425343 
L 649.352864 230.000217 
L 648.429329 230.268022 
L 648.429329 229.84 
L 646.582258 230.37894 
L 646.582258 229.948183 
L 645.658723 230.219338 
L 645.658723 229.348667 
L 643.811652 229.894796 
L 643.811652 229.675307 
L 641.041047 230.502472 
L 641.041047 229.394178 
L 640.117511 229.6725 
L 640.117511 229.448425 
L 639.193976 229.727909 
L 639.193976 229.503086 
L 638.270441 229.78374 
L 638.270441 228.41722 
L 636.42337 228.983023 
L 636.42337 228.288421 
L 635.499835 228.573281 
L 635.499835 227.16 
L 631.805694 228.313147 
L 631.805694 225.637149 
L 629.035088 226.517459 
L 629.035088 226.268501 
L 628.111553 226.564444 
L 628.111553 226.314557 
L 627.188018 226.611818 
L 627.188018 225.856216 
L 625.340947 226.455031 
L 625.340947 223.868571 
L 624.417412 224.170769 
L 624.417412 223.906124 
L 623.493877 224.2097 
L 623.493877 223.677155 
L 622.570342 223.982203 
L 622.570342 223.174957 
L 621.646806 223.481569 
L 621.646806 222.389011 
L 620.723271 222.697269 
L 620.723271 221.022321 
L 618.876201 221.643767 
L 618.876201 221.075676 
L 617.952665 221.388623 
L 617.952665 218.170833 
L 617.02913 218.485754 
L 617.02913 218.185116 
L 616.105595 218.501538 
L 616.105595 217.591268 
L 615.18206 217.909271 
L 615.18206 217.295319 
L 614.258524 217.614882 
L 614.258524 213.805756 
L 613.334989 214.126944 
L 613.334989 213.799412 
L 611.487919 214.446502 
L 611.487919 214.117333 
L 608.717313 215.1 
L 608.717313 213.429219 
L 607.793778 213.76 
L 607.793778 213.079797 
L 606.870242 213.412214 
L 606.870242 212.725013 
L 605.946707 213.059077 
L 605.946707 212.364742 
L 605.023172 212.700465 
L 605.023172 209.849604 
L 603.176101 210.525517 
L 603.176101 210.160532 
L 602.252566 210.50112 
L 602.252566 208.64627 
L 601.329031 208.988293 
L 601.329031 208.232044 
L 600.405496 208.575738 
L 600.405496 207.03779 
L 599.48196 207.382936 
L 599.48196 206.993 
L 598.558425 207.339944 
L 598.558425 206.947709 
L 596.711355 207.647191 
L 596.711355 206.456431 
L 595.787819 206.80875 
L 595.787819 205.597135 
L 594.864284 205.951034 
L 594.864284 203.883848 
L 593.940749 204.238947 
L 593.940749 203.818065 
L 592.093678 204.534159 
L 592.093678 201.953514 
L 591.170143 202.313494 
L 591.170143 197.796522 
L 590.246608 198.155888 
L 590.246608 196.744528 
L 588.399537 197.467975 
L 588.399537 196.510701 
L 585.628932 197.611061 
L 585.628932 197.12671 
L 584.705396 197.497864 
L 584.705396 196.518958 
L 583.781861 196.891765 
L 583.781861 195.899211 
L 581.934791 196.650596 
L 581.934791 196.148571 
L 580.08772 196.909164 
L 580.08772 196.402953 
L 579.164185 196.786667 
L 579.164185 195.246122 
L 577.317114 196.018767 
L 577.317114 194.972276 
L 570.852367 197.75576 
L 570.852367 193.951304 
L 567.158226 195.591176 
L 567.158226 195.029668 
L 566.234691 195.446667 
L 566.234691 194.31 
L 564.387621 195.151128 
L 564.387621 192.227586 
L 563.464085 192.649846 
L 563.464085 191.447442 
L 561.617015 192.299062 
L 561.617015 189.831429 
L 560.69348 190.259283 
L 560.69348 188.354032 
L 559.769944 188.782834 
L 559.769944 184.824896 
L 558.846409 185.2515 
L 558.846409 183.885882 
L 557.922874 184.313924 
L 557.922874 182.922894 
L 556.999339 183.352308 
L 556.999339 182.646695 
L 556.075803 183.078621 
L 556.075803 180.189474 
L 555.152268 180.620088 
L 555.152268 175.302 
L 554.228733 175.726027 
L 554.228733 174.140461 
L 553.305198 174.565 
L 553.305198 173.759442 
L 552.381662 174.186168 
L 552.381662 171.718294 
L 544.99338 175.23665 
L 544.99338 171.768844 
L 542.222775 173.136122 
L 542.222775 169.498125 
L 541.299239 169.953927 
L 541.299239 169.018105 
L 540.375704 169.47619 
L 540.375704 167.569412 
L 539.452169 168.027097 
L 539.452169 164.076923 
L 537.605098 164.984 
L 537.605098 160.83 
L 536.681563 161.277943 
L 536.681563 159.122081 
L 535.758028 159.567907 
L 535.758028 158.467368 
L 533.910957 159.367101 
L 533.910957 158.245714 
L 532.063887 159.159036 
L 532.063887 158.016 
L 530.216816 158.943313 
L 530.216816 157.777778 
L 529.293281 158.245714 
L 529.293281 154.647342 
L 526.522675 156.044903 
L 526.522675 152.261053 
L 525.59914 152.723444 
L 525.59914 151.4232 
L 523.75207 152.355405 
L 523.75207 151.026122 
L 521.904999 151.972138 
L 521.904999 150.6125 
L 520.981464 151.089231 
L 520.981464 149.704225 
L 520.057929 150.181277 
L 520.057929 147.338417 
L 518.210858 148.285839 
L 518.210858 145.330667 
L 514.516717 147.250992 
L 514.516717 145.708615 
L 512.669647 146.697187 
L 512.669647 145.114016 
L 510.822576 146.1168 
L 510.822576 144.490645 
L 508.05197 146.029091 
L 508.05197 139.132308 
L 504.357829 141.139115 
L 504.357829 139.294286 
L 500.663688 141.4 
L 500.663688 137.506415 
L 499.740153 138.030857 
L 499.740153 133.958447 
L 496.969547 135.504 
L 496.969547 133.36 
L 496.046012 133.879592 
L 496.046012 127.125474 
L 495.122477 127.600851 
L 495.122477 125.233548 
L 490.5048 127.665 
L 487.734195 129.261176 
L 487.734195 126.66 
L 484.963589 128.297778 
L 484.963589 125.5545 
L 483.116518 126.66 
L 483.116518 123.788571 
L 479.422377 126.054247 
L 478.498842 126.66 
L 478.498842 123.545915 
L 477.575307 124.133143 
L 477.575307 120.892174 
L 473.881166 123.258462 
L 470.187025 125.935082 
L 470.187025 122.238 
L 467.416419 124.332632 
L 464.645813 126.66 
L 464.645813 122.488302 
L 463.722278 123.258462 
L 463.722278 118.856471 
L 460.951672 121.1325 
L 458.181067 123.712 
L 455.410461 126.66 
L 454.486926 127.738537 
L 454.486926 122.238 
L 451.71632 125.464865 
L 451.71632 112.762286 
L 449.869249 114.6 
L 449.869249 107.31375 
L 448.022179 108.972 
L 446.175108 110.867143 
L 444.328038 113.053846 
L 442.480967 115.605 
L 440.633897 118.62 
L 438.786826 122.238 
L 436.939756 126.66 
L 435.092685 132.1875 
L 434.16915 135.504 
L 434.16915 120.342857 
L 433.245615 123.258462 
L 433.245615 104.55 
L 432.32208 106.56 
L 431.398544 108.972 
L 430.475009 111.92 
L 429.551474 115.605 
L 428.627938 120.342857 
L 427.704403 126.66 
L 427.704403 82.44 
L 423.086727 82.44 
L 423.086727 82.44 
" clip-path="url(#p3391b1a82f)" style="fill: none; stroke: #cc6f47; stroke-width: 2; stroke-linecap: round"/>
   </g>
   <g id="line2d_28">
    <path d="M 423.086727 251.991827 
L 716.770937 251.991827 
" clip-path="url(#p3391b1a82f)" style="fill: none; stroke-dasharray: 1.2,1.98; stroke-dashoffset: 0; stroke: #7a828f; stroke-width: 1.2"/>
   </g>
   <g id="patch_6">
    <path d="M 423.086727 347.76 
L 423.086727 82.44 
" style="fill: none; stroke: #d7dbe7; stroke-width: 1.25; stroke-linejoin: miter; stroke-linecap: square"/>
   </g>
   <g id="patch_7">
    <path d="M 423.086727 347.76 
L 716.770937 347.76 
" style="fill: none; stroke: #d7dbe7; stroke-width: 1.25; stroke-linejoin: miter; stroke-linecap: square"/>
   </g>
   <g id="text_30">
    <!-- Precision-Recall curve -->
    <g style="fill: #262626" transform="translate(507.489457 62.670375) scale(0.12 -0.12)">
     <defs>
      <path id="MalgunGothicBold-50" d="M 1438 1631 
L 1438 0 
L 547 0 
L 547 4600 
L 2066 4600 
Q 3747 4600 3747 3159 
Q 3747 2463 3239 2038 
Q 2731 1613 1963 1631 
L 1438 1631 
z
M 1438 3891 
L 1438 2328 
L 1891 2328 
Q 2813 2328 2813 3125 
Q 2813 3891 1909 3891 
L 1438 3891 
z
" transform="scale(0.015625)"/>
      <path id="MalgunGothicBold-69" d="M 375 4366 
Q 375 4566 517 4700 
Q 659 4834 884 4834 
Q 1103 4834 1250 4701 
Q 1397 4569 1397 4366 
Q 1397 4163 1251 4028 
Q 1106 3894 884 3894 
Q 663 3894 519 4031 
Q 375 4169 375 4366 
z
M 444 0 
L 444 3284 
L 1313 3284 
L 1313 0 
L 444 0 
z
" transform="scale(0.015625)"/>
      <path id="MalgunGothicBold-73" d="M 347 844 
Q 834 538 1309 538 
Q 1922 538 1922 884 
Q 1922 1125 1438 1291 
Q 731 1528 540 1758 
Q 350 1988 350 2347 
Q 350 2822 737 3092 
Q 1125 3363 1734 3363 
Q 2159 3363 2584 3228 
L 2584 2519 
Q 2200 2747 1744 2747 
Q 1503 2747 1356 2656 
Q 1209 2566 1209 2416 
Q 1209 2169 1619 2025 
Q 2084 1856 2303 1742 
Q 2522 1628 2644 1431 
Q 2766 1234 2766 969 
Q 2766 469 2367 194 
Q 1969 -81 1316 -81 
Q 766 -81 347 94 
L 347 844 
z
" transform="scale(0.015625)"/>
      <path id="MalgunGothicBold-6f" d="M 256 1622 
Q 256 2428 731 2895 
Q 1206 3363 2019 3363 
Q 2803 3363 3258 2905 
Q 3713 2447 3713 1678 
Q 3713 878 3242 398 
Q 2772 -81 1969 -81 
Q 1181 -81 718 380 
Q 256 841 256 1622 
z
M 1138 1634 
Q 1138 600 1997 600 
Q 2825 600 2825 1659 
Q 2825 2684 1994 2684 
Q 1588 2684 1363 2404 
Q 1138 2125 1138 1634 
z
" transform="scale(0.015625)"/>
      <path id="MalgunGothicBold-6e" d="M 3497 0 
L 2628 0 
L 2628 1841 
Q 2628 2684 2019 2684 
Q 1713 2684 1520 2454 
Q 1328 2225 1328 1872 
L 1328 0 
L 456 0 
L 456 3284 
L 1328 3284 
L 1328 2756 
L 1338 2756 
Q 1700 3363 2403 3363 
Q 3497 3363 3497 2009 
L 3497 0 
z
" transform="scale(0.015625)"/>
      <path id="MalgunGothicBold-2d" d="M 2213 1463 
L 459 1463 
L 459 2088 
L 2213 2088 
L 2213 1463 
z
" transform="scale(0.015625)"/>
      <path id="MalgunGothicBold-61" d="M 534 3075 
Q 756 3203 1109 3283 
Q 1463 3363 1744 3363 
Q 3075 3363 3075 2013 
L 3075 0 
L 2244 0 
L 2244 484 
L 2228 484 
Q 1897 -81 1244 -81 
Q 769 -81 491 186 
Q 213 453 213 903 
Q 213 1844 1331 1994 
L 2247 2119 
Q 2247 2747 1634 2747 
Q 1050 2747 534 2381 
L 534 3075 
z
M 1594 1500 
Q 1031 1428 1031 997 
Q 1031 803 1165 681 
Q 1300 559 1528 559 
Q 1841 559 2044 779 
Q 2247 1000 2247 1334 
L 2247 1584 
L 1594 1500 
z
" transform="scale(0.015625)"/>
      <path id="MalgunGothicBold-6c" d="M 444 0 
L 444 4859 
L 1313 4859 
L 1313 0 
L 444 0 
z
" transform="scale(0.015625)"/>
     </defs>
     <use xlink:href="#MalgunGothicBold-50"/>
     <use xlink:href="#MalgunGothicBold-72" transform="translate(61.474609 0)"/>
     <use xlink:href="#MalgunGothicBold-65" transform="translate(100.330078 0)"/>
     <use xlink:href="#MalgunGothicBold-63" transform="translate(155.310547 0)"/>
     <use xlink:href="#MalgunGothicBold-69" transform="translate(204.041016 0)"/>
     <use xlink:href="#MalgunGothicBold-73" transform="translate(231.482422 0)"/>
     <use xlink:href="#MalgunGothicBold-69" transform="translate(277.673828 0)"/>
     <use xlink:href="#MalgunGothicBold-6f" transform="translate(305.115234 0)"/>
     <use xlink:href="#MalgunGothicBold-6e" transform="translate(367.078125 0)"/>
     <use xlink:href="#MalgunGothicBold-2d" transform="translate(427.917969 0)"/>
     <use xlink:href="#MalgunGothicBold-52" transform="translate(469.275391 0)"/>
     <use xlink:href="#MalgunGothicBold-65" transform="translate(531.90625 0)"/>
     <use xlink:href="#MalgunGothicBold-63" transform="translate(586.886719 0)"/>
     <use xlink:href="#MalgunGothicBold-61" transform="translate(635.617188 0)"/>
     <use xlink:href="#MalgunGothicBold-6c" transform="translate(689.914062 0)"/>
     <use xlink:href="#MalgunGothicBold-6c" transform="translate(717.355469 0)"/>
     <use xlink:href="#MalgunGothicBold-20" transform="translate(744.796875 0)"/>
     <use xlink:href="#MalgunGothicBold-63" transform="translate(779.953125 0)"/>
     <use xlink:href="#MalgunGothicBold-75" transform="translate(828.683594 0)"/>
     <use xlink:href="#MalgunGothicBold-72" transform="translate(889.523438 0)"/>
     <use xlink:href="#MalgunGothicBold-76" transform="translate(933.128906 0)"/>
     <use xlink:href="#MalgunGothicBold-65" transform="translate(985.666016 0)"/>
    </g>
    <!-- AP=0.619 -->
    <g style="fill: #262626" transform="translate(542.22477 76.44) scale(0.12 -0.12)">
     <defs>
      <path id="MalgunGothicBold-31" d="M 2534 4675 
L 2534 0 
L 1663 0 
L 1663 3616 
Q 1516 3481 1247 3365 
Q 978 3250 688 3216 
L 688 3988 
Q 1375 4194 1984 4675 
L 2534 4675 
z
" transform="scale(0.015625)"/>
     </defs>
     <use xlink:href="#MalgunGothicBold-41"/>
     <use xlink:href="#MalgunGothicBold-50" transform="translate(70.361328 0)"/>
     <use xlink:href="#MalgunGothicBold-3d" transform="translate(131.835938 0)"/>
     <use xlink:href="#MalgunGothicBold-30" transform="translate(203.759766 0)"/>
     <use xlink:href="#MalgunGothicBold-2e" transform="translate(261.71875 0)"/>
     <use xlink:href="#MalgunGothicBold-36" transform="translate(287.890625 0)"/>
     <use xlink:href="#MalgunGothicBold-31" transform="translate(345.849609 0)"/>
     <use xlink:href="#MalgunGothicBold-39" transform="translate(403.808594 0)"/>
    </g>
   </g>
  </g>
  <g id="text_31">
   <!-- 최종 MLP는 strict pre-sleep 조건에서 중간 수준의 ranking 성능을 보였다 -->
   <g style="fill: #1f2430" transform="translate(47.170938 20.010938) scale(0.15 -0.15)">
    <defs>
     <path id="MalgunGothicBold-cd5c" d="M 4794 -563 
L 4794 5466 
L 5581 5466 
L 5581 -563 
L 4794 -563 
z
M 3963 2144 
Q 2959 2456 2394 3156 
Q 1822 2375 813 1991 
L 306 2541 
Q 981 2725 1454 3145 
Q 1928 3566 1984 4013 
L 609 4013 
L 609 4659 
L 1991 4659 
L 1991 5331 
L 2778 5331 
L 2778 4659 
L 4103 4659 
L 4103 4013 
L 2778 4013 
Q 2834 3578 3311 3193 
Q 3788 2809 4434 2713 
L 3963 2144 
z
M 4603 488 
Q 4125 453 2636 418 
Q 1147 384 319 384 
L 231 1044 
Q 1219 1044 2034 1063 
L 2034 2284 
L 2822 2284 
L 2822 1075 
Q 3834 1088 4563 1134 
L 4603 488 
z
" transform="scale(0.015625)"/>
     <path id="MalgunGothicBold-c885" d="M 5381 3163 
Q 3928 3403 3200 4134 
Q 2931 3825 2300 3542 
Q 1669 3259 1050 3169 
L 609 3750 
Q 1359 3800 1953 4064 
Q 2547 4328 2725 4666 
L 1044 4666 
L 1044 5325 
L 5356 5325 
L 5356 4666 
L 3681 4666 
Q 3881 4325 4479 4051 
Q 5078 3778 5759 3750 
L 5381 3163 
z
M 403 2088 
L 403 2747 
L 2803 2747 
L 2803 3450 
L 3591 3450 
L 3591 2747 
L 5997 2747 
L 5997 2088 
L 403 2088 
z
M 3200 -563 
Q 2213 -563 1683 -258 
Q 1153 47 1153 603 
Q 1153 1150 1684 1454 
Q 2216 1759 3200 1759 
Q 4194 1759 4720 1451 
Q 5247 1144 5247 603 
Q 5247 47 4717 -258 
Q 4188 -563 3200 -563 
z
M 3200 1113 
Q 1953 1113 1953 603 
Q 1953 363 2268 220 
Q 2584 78 3200 78 
Q 3816 78 4131 220 
Q 4447 363 4447 603 
Q 4447 1113 3200 1113 
z
" transform="scale(0.015625)"/>
     <path id="MalgunGothicBold-4d" d="M 4744 0 
L 4744 2850 
Q 4744 3163 4781 3806 
L 4763 3806 
Q 4684 3413 4619 3244 
L 3400 0 
L 2722 0 
L 1488 3216 
Q 1441 3341 1344 3806 
L 1322 3806 
Q 1356 3297 1356 2700 
L 1356 0 
L 547 0 
L 547 4600 
L 1828 4600 
L 2903 1734 
Q 3038 1378 3081 1103 
L 3103 1103 
Q 3172 1375 3297 1741 
L 4381 4600 
L 5625 4600 
L 5625 0 
L 4744 0 
z
" transform="scale(0.015625)"/>
     <path id="MalgunGothicBold-4c" d="M 3178 0 
L 547 0 
L 547 4600 
L 1438 4600 
L 1438 738 
L 3178 738 
L 3178 0 
z
" transform="scale(0.015625)"/>
     <path id="MalgunGothicBold-b294" d="M 1253 3200 
L 1253 5166 
L 2041 5166 
L 2041 3866 
L 5228 3866 
L 5228 3200 
L 1253 3200 
z
M 403 1906 
L 403 2566 
L 5997 2566 
L 5997 1906 
L 403 1906 
z
M 1222 -306 
L 1222 1478 
L 2009 1478 
L 2009 353 
L 5253 353 
L 5253 -306 
L 1222 -306 
z
" transform="scale(0.015625)"/>
     <path id="MalgunGothicBold-74" d="M 2303 34 
Q 2081 -78 1684 -78 
Q 675 -78 675 991 
L 675 2622 
L 131 2622 
L 131 3284 
L 675 3284 
L 675 4019 
L 1544 4272 
L 1544 3284 
L 2303 3284 
L 2303 2622 
L 1544 2622 
L 1544 1144 
Q 1544 600 1972 600 
Q 2150 600 2303 700 
L 2303 34 
z
" transform="scale(0.015625)"/>
     <path id="MalgunGothicBold-70" d="M 1328 409 
L 1328 -1513 
L 456 -1513 
L 456 3284 
L 1328 3284 
L 1328 2766 
L 1338 2766 
Q 1719 3363 2419 3363 
Q 3041 3363 3398 2928 
Q 3756 2494 3756 1734 
Q 3756 916 3348 417 
Q 2941 -81 2269 -81 
Q 1663 -81 1338 409 
L 1328 409 
z
M 1316 1428 
Q 1316 1072 1522 836 
Q 1728 600 2050 600 
Q 2431 600 2647 897 
Q 2863 1194 2863 1731 
Q 2863 2684 2109 2684 
Q 1753 2684 1534 2418 
Q 1316 2153 1316 1750 
L 1316 1428 
z
" transform="scale(0.015625)"/>
     <path id="MalgunGothicBold-c870" d="M 5331 2009 
Q 4722 2178 4081 2606 
Q 3441 3034 3194 3419 
Q 2947 3013 2365 2622 
Q 1784 2231 1075 2009 
L 569 2600 
Q 1463 2738 2105 3248 
Q 2747 3759 2803 4288 
L 1006 4288 
L 1006 4934 
L 5388 4934 
L 5388 4288 
L 3597 4288 
Q 3638 3763 4244 3284 
Q 4850 2806 5806 2600 
L 5331 2009 
z
M 403 269 
L 403 916 
L 2803 916 
L 2803 2259 
L 3591 2259 
L 3591 916 
L 5997 916 
L 5997 269 
L 403 269 
z
" transform="scale(0.015625)"/>
     <path id="MalgunGothicBold-ac74" d="M 4794 1153 
L 4794 3103 
L 3372 3103 
L 3372 3763 
L 4794 3763 
L 4794 5466 
L 5563 5466 
L 5563 1153 
L 4794 1153 
z
M 3706 5075 
Q 3450 2844 1006 1703 
L 469 2266 
Q 1166 2491 1858 3094 
Q 2550 3697 2753 4416 
L 813 4416 
L 813 5075 
L 3706 5075 
z
M 1672 -353 
L 1672 1672 
L 2456 1672 
L 2456 306 
L 5678 306 
L 5678 -353 
L 1672 -353 
z
" transform="scale(0.015625)"/>
     <path id="MalgunGothicBold-c5d0" d="M 4922 -563 
L 4922 5466 
L 5678 5466 
L 5678 -563 
L 4922 -563 
z
M 3169 3353 
L 3775 3353 
L 3775 5344 
L 4513 5344 
L 4513 -384 
L 3775 -384 
L 3775 2688 
L 3175 2688 
Q 3122 1800 2772 1351 
Q 2422 903 1819 903 
Q 1150 903 798 1439 
Q 447 1975 447 2988 
Q 447 3997 800 4536 
Q 1153 5075 1819 5075 
Q 2409 5075 2757 4642 
Q 3106 4209 3169 3353 
z
M 1819 4409 
Q 1203 4409 1203 2988 
Q 1203 1569 1819 1569 
Q 2113 1569 2272 1934 
Q 2431 2300 2431 2988 
Q 2431 3672 2273 4040 
Q 2116 4409 1819 4409 
z
" transform="scale(0.015625)"/>
     <path id="MalgunGothicBold-c11c" d="M 4794 -563 
L 4794 2981 
L 3488 2981 
L 3488 3641 
L 4794 3641 
L 4794 5466 
L 5575 5466 
L 5575 -563 
L 4794 -563 
z
M 3609 934 
Q 2681 1578 2228 2444 
Q 1731 1463 838 831 
L 231 1369 
Q 925 1725 1381 2434 
Q 1838 3144 1838 3891 
L 1838 5063 
L 2619 5063 
L 2619 3909 
Q 2619 3178 3066 2498 
Q 3513 1819 4159 1544 
L 3609 934 
z
" transform="scale(0.015625)"/>
     <path id="MalgunGothicBold-c911" d="M 5381 3163 
Q 3928 3403 3200 4134 
Q 2931 3825 2300 3542 
Q 1669 3259 1050 3169 
L 609 3750 
Q 1359 3800 1953 4064 
Q 2547 4328 2725 4666 
L 1044 4666 
L 1044 5325 
L 5356 5325 
L 5356 4666 
L 3681 4666 
Q 3881 4325 4479 4051 
Q 5078 3778 5759 3750 
L 5381 3163 
z
M 2803 1747 
L 2803 2188 
L 403 2188 
L 403 2847 
L 5997 2847 
L 5997 2188 
L 3591 2188 
L 3591 1747 
Q 4403 1684 4825 1382 
Q 5247 1081 5247 603 
Q 5247 47 4717 -258 
Q 4188 -563 3200 -563 
Q 2213 -563 1683 -258 
Q 1153 47 1153 603 
Q 1153 1094 1581 1391 
Q 2009 1688 2803 1747 
z
M 3200 1113 
Q 1953 1113 1953 603 
Q 1953 363 2268 220 
Q 2584 78 3200 78 
Q 3816 78 4131 220 
Q 4447 363 4447 603 
Q 4447 1113 3200 1113 
z
" transform="scale(0.015625)"/>
     <path id="MalgunGothicBold-ac04" d="M 5253 3016 
L 5253 1125 
L 4475 1125 
L 4475 5466 
L 5253 5466 
L 5253 3675 
L 6175 3675 
L 6175 3016 
L 5253 3016 
z
M 947 1753 
L 378 2369 
Q 1181 2581 1829 3164 
Q 2478 3747 2669 4416 
L 775 4416 
L 775 5075 
L 3634 5075 
Q 3341 2775 947 1753 
z
M 1484 -353 
L 1484 1638 
L 2272 1638 
L 2272 306 
L 5422 306 
L 5422 -353 
L 1484 -353 
z
" transform="scale(0.015625)"/>
     <path id="MalgunGothicBold-c218" d="M 5363 2906 
Q 4656 3053 4053 3393 
Q 3450 3734 3194 4103 
Q 2938 3716 2331 3372 
Q 1725 3028 1075 2906 
L 609 3500 
Q 1597 3619 2200 4072 
Q 2803 4525 2803 5063 
L 2803 5338 
L 3584 5338 
L 3584 5063 
Q 3584 4519 4181 4062 
Q 4778 3606 5766 3494 
L 5363 2906 
z
M 3584 1678 
L 3584 -563 
L 2803 -563 
L 2803 1678 
L 403 1678 
L 403 2338 
L 5997 2338 
L 5997 1678 
L 3584 1678 
z
" transform="scale(0.015625)"/>
     <path id="MalgunGothicBold-c900" d="M 5381 2938 
Q 3928 3178 3200 3909 
Q 2931 3600 2300 3317 
Q 1669 3034 1050 2944 
L 609 3553 
Q 1391 3603 2003 3887 
Q 2616 4172 2747 4513 
L 1044 4513 
L 1044 5172 
L 5356 5172 
L 5356 4513 
L 3653 4513 
Q 3816 4169 4427 3876 
Q 5038 3584 5759 3553 
L 5381 2938 
z
M 3591 1875 
L 3591 722 
L 2803 722 
L 2803 1875 
L 403 1875 
L 403 2541 
L 5997 2541 
L 5997 1875 
L 3591 1875 
z
M 1234 -372 
L 1234 1466 
L 2022 1466 
L 2022 288 
L 5281 288 
L 5281 -372 
L 1234 -372 
z
" transform="scale(0.015625)"/>
     <path id="MalgunGothicBold-c758" d="M 4800 -563 
L 4800 5466 
L 5575 5466 
L 5575 -563 
L 4800 -563 
z
M 2328 2059 
Q 1619 2059 1139 2479 
Q 659 2900 659 3572 
Q 659 4250 1150 4672 
Q 1641 5094 2363 5094 
Q 3078 5094 3545 4672 
Q 4013 4250 4013 3572 
Q 4013 2903 3528 2481 
Q 3044 2059 2328 2059 
z
M 2338 4434 
Q 1941 4434 1700 4190 
Q 1459 3947 1459 3572 
Q 1459 3203 1706 2961 
Q 1953 2719 2338 2719 
Q 2728 2719 2970 2964 
Q 3213 3209 3213 3572 
Q 3213 3938 2967 4186 
Q 2722 4434 2338 4434 
z
M 319 434 
L 238 1094 
Q 3100 1094 4525 1184 
L 4569 538 
Q 2584 434 319 434 
z
" transform="scale(0.015625)"/>
     <path id="MalgunGothicBold-6b" d="M 3581 0 
L 2503 0 
L 1338 1616 
L 1328 1616 
L 1328 0 
L 456 0 
L 456 4859 
L 1328 4859 
L 1328 1769 
L 1338 1769 
L 2434 3284 
L 3488 3284 
L 2209 1728 
L 3581 0 
z
" transform="scale(0.015625)"/>
     <path id="MalgunGothicBold-67" d="M 3553 341 
Q 3553 -572 3050 -1058 
Q 2547 -1544 1591 -1544 
Q 941 -1544 534 -1341 
L 534 -584 
Q 1050 -881 1569 -881 
Q 2100 -881 2392 -598 
Q 2684 -316 2684 206 
L 2684 497 
L 2672 497 
Q 2316 -81 1619 -81 
Q 1006 -81 631 359 
Q 256 800 256 1547 
Q 256 2375 667 2869 
Q 1078 3363 1750 3363 
Q 2359 3363 2672 2881 
L 2684 2881 
L 2684 3284 
L 3553 3284 
L 3553 341 
z
M 2694 1875 
Q 2694 2209 2484 2446 
Q 2275 2684 1953 2684 
Q 1578 2684 1358 2393 
Q 1138 2103 1138 1581 
Q 1138 1131 1347 865 
Q 1556 600 1903 600 
Q 2256 600 2475 865 
Q 2694 1131 2694 1550 
L 2694 1875 
z
" transform="scale(0.015625)"/>
     <path id="MalgunGothicBold-c131" d="M 4788 2016 
L 4788 3738 
L 3494 3738 
L 3494 4403 
L 4788 4403 
L 4788 5466 
L 5556 5466 
L 5556 2016 
L 4788 2016 
z
M 3591 2209 
Q 2675 2647 2216 3372 
Q 2047 3038 1620 2617 
Q 1194 2197 872 2028 
L 300 2572 
Q 963 2866 1384 3408 
Q 1806 3950 1806 4525 
L 1806 5275 
L 2584 5275 
L 2584 4550 
Q 2584 3972 3021 3481 
Q 3459 2991 4091 2816 
L 3591 2209 
z
M 3659 -538 
Q 2725 -538 2201 -189 
Q 1678 159 1678 716 
Q 1678 1269 2203 1620 
Q 2728 1972 3659 1972 
Q 4594 1972 5122 1619 
Q 5650 1266 5650 716 
Q 5650 159 5123 -189 
Q 4597 -538 3659 -538 
z
M 3659 1325 
Q 3063 1325 2767 1156 
Q 2472 988 2472 716 
Q 2472 444 2770 276 
Q 3069 109 3659 109 
Q 4253 109 4554 275 
Q 4856 441 4856 716 
Q 4856 984 4557 1154 
Q 4259 1325 3659 1325 
z
" transform="scale(0.015625)"/>
     <path id="MalgunGothicBold-b2a5" d="M 1253 3384 
L 1253 5338 
L 2041 5338 
L 2041 4050 
L 5228 4050 
L 5228 3384 
L 1253 3384 
z
M 403 2209 
L 403 2869 
L 5997 2869 
L 5997 2209 
L 403 2209 
z
M 3200 -563 
Q 2213 -563 1683 -258 
Q 1153 47 1153 603 
Q 1153 1150 1684 1454 
Q 2216 1759 3200 1759 
Q 4194 1759 4720 1451 
Q 5247 1144 5247 603 
Q 5247 47 4717 -258 
Q 4188 -563 3200 -563 
z
M 3200 1113 
Q 1953 1113 1953 603 
Q 1953 363 2268 220 
Q 2584 78 3200 78 
Q 3816 78 4131 220 
Q 4447 363 4447 603 
Q 4447 1113 3200 1113 
z
" transform="scale(0.015625)"/>
     <path id="MalgunGothicBold-c744" d="M 3200 3334 
Q 2241 3334 1703 3623 
Q 1166 3913 1166 4397 
Q 1166 4888 1706 5173 
Q 2247 5459 3200 5459 
Q 4159 5459 4696 5176 
Q 5234 4894 5234 4397 
Q 5234 3909 4700 3621 
Q 4166 3334 3200 3334 
z
M 3200 4863 
Q 2581 4863 2273 4730 
Q 1966 4597 1966 4397 
Q 1966 4188 2278 4058 
Q 2591 3928 3200 3928 
Q 3809 3928 4121 4058 
Q 4434 4188 4434 4397 
Q 4434 4597 4126 4730 
Q 3819 4863 3200 4863 
z
M 403 2388 
L 403 3003 
L 5997 3003 
L 5997 2388 
L 403 2388 
z
M 1222 -466 
L 1222 1038 
L 4391 1038 
L 4391 1403 
L 1222 1403 
L 1222 2016 
L 5172 2016 
L 5172 494 
L 2003 494 
L 2003 147 
L 5319 147 
L 5319 -466 
L 1222 -466 
z
" transform="scale(0.015625)"/>
     <path id="MalgunGothicBold-bcf4" d="M 403 269 
L 403 922 
L 2803 922 
L 2803 2016 
L 1247 2016 
L 1247 5013 
L 2034 5013 
L 2034 4103 
L 4366 4103 
L 4366 5013 
L 5147 5013 
L 5147 2016 
L 3591 2016 
L 3591 922 
L 5997 922 
L 5997 269 
L 403 269 
z
M 4366 3444 
L 2034 3444 
L 2034 2669 
L 4366 2669 
L 4366 3444 
z
" transform="scale(0.015625)"/>
     <path id="MalgunGothicBold-c600" d="M 3541 2822 
Q 3056 2150 2188 2150 
Q 1488 2150 1025 2592 
Q 563 3034 563 3731 
Q 563 4422 1028 4873 
Q 1494 5325 2188 5325 
Q 3050 5325 3541 4659 
L 4781 4659 
L 4781 5466 
L 5556 5466 
L 5556 2003 
L 4781 2003 
L 4781 2822 
L 3541 2822 
z
M 2188 4672 
Q 1819 4672 1581 4408 
Q 1344 4144 1344 3738 
Q 1344 3344 1581 3073 
Q 1819 2803 2188 2803 
Q 2550 2803 2795 3073 
Q 3041 3344 3041 3738 
Q 3041 4150 2797 4411 
Q 2553 4672 2188 4672 
z
M 3794 3444 
L 4781 3444 
L 4781 4031 
L 3794 4031 
Q 3822 3903 3822 3731 
Q 3822 3566 3794 3444 
z
M 5478 -531 
Q 4831 -197 4434 378 
Q 4325 159 4001 -136 
Q 3678 -431 3391 -588 
L 2822 -63 
Q 4044 494 4044 1556 
L 4044 1875 
L 4819 1875 
L 4819 1556 
Q 4819 1050 5148 634 
Q 5478 219 6047 19 
L 5478 -531 
z
M 2719 50 
Q 2456 225 2259 506 
Q 2134 259 1809 -69 
Q 1484 -397 1184 -556 
L 622 -63 
Q 1191 194 1511 622 
Q 1831 1050 1831 1556 
L 1831 1869 
L 2597 1869 
L 2597 1556 
Q 2597 1263 2822 963 
Q 3047 663 3366 538 
L 2719 50 
z
" transform="scale(0.015625)"/>
     <path id="MalgunGothicBold-b2e4" d="M 5197 2522 
L 5197 -563 
L 4416 -563 
L 4416 5466 
L 5197 5466 
L 5197 3181 
L 6203 3181 
L 6203 2522 
L 5197 2522 
z
M 3969 1197 
Q 3269 1100 1619 1100 
L 709 1100 
L 709 4953 
L 3584 4953 
L 3584 4294 
L 1491 4294 
L 1491 1753 
L 1794 1753 
Q 3253 1753 3897 1844 
L 3969 1197 
z
" transform="scale(0.015625)"/>
    </defs>
    <use xlink:href="#MalgunGothicBold-cd5c"/>
    <use xlink:href="#MalgunGothicBold-c885" transform="translate(100 0)"/>
    <use xlink:href="#MalgunGothicBold-20" transform="translate(200 0)"/>
    <use xlink:href="#MalgunGothicBold-4d" transform="translate(235.15625 0)"/>
    <use xlink:href="#MalgunGothicBold-4c" transform="translate(331.591797 0)"/>
    <use xlink:href="#MalgunGothicBold-50" transform="translate(382.8125 0)"/>
    <use xlink:href="#MalgunGothicBold-b294" transform="translate(444.287109 0)"/>
    <use xlink:href="#MalgunGothicBold-20" transform="translate(544.287109 0)"/>
    <use xlink:href="#MalgunGothicBold-73" transform="translate(579.443359 0)"/>
    <use xlink:href="#MalgunGothicBold-74" transform="translate(625.634766 0)"/>
    <use xlink:href="#MalgunGothicBold-72" transform="translate(664.0625 0)"/>
    <use xlink:href="#MalgunGothicBold-69" transform="translate(703.792969 0)"/>
    <use xlink:href="#MalgunGothicBold-63" transform="translate(731.234375 0)"/>
    <use xlink:href="#MalgunGothicBold-74" transform="translate(779.964844 0)"/>
    <use xlink:href="#MalgunGothicBold-20" transform="translate(818.392578 0)"/>
    <use xlink:href="#MalgunGothicBold-70" transform="translate(853.548828 0)"/>
    <use xlink:href="#MalgunGothicBold-72" transform="translate(916.195312 0)"/>
    <use xlink:href="#MalgunGothicBold-65" transform="translate(955.050781 0)"/>
    <use xlink:href="#MalgunGothicBold-2d" transform="translate(1010.03125 0)"/>
    <use xlink:href="#MalgunGothicBold-73" transform="translate(1051.388672 0)"/>
    <use xlink:href="#MalgunGothicBold-6c" transform="translate(1097.580078 0)"/>
    <use xlink:href="#MalgunGothicBold-65" transform="translate(1125.021484 0)"/>
    <use xlink:href="#MalgunGothicBold-65" transform="translate(1180.001953 0)"/>
    <use xlink:href="#MalgunGothicBold-70" transform="translate(1234.982422 0)"/>
    <use xlink:href="#MalgunGothicBold-20" transform="translate(1297.628906 0)"/>
    <use xlink:href="#MalgunGothicBold-c870" transform="translate(1332.785156 0)"/>
    <use xlink:href="#MalgunGothicBold-ac74" transform="translate(1432.785156 0)"/>
    <use xlink:href="#MalgunGothicBold-c5d0" transform="translate(1532.785156 0)"/>
    <use xlink:href="#MalgunGothicBold-c11c" transform="translate(1632.785156 0)"/>
    <use xlink:href="#MalgunGothicBold-20" transform="translate(1732.785156 0)"/>
    <use xlink:href="#MalgunGothicBold-c911" transform="translate(1767.941406 0)"/>
    <use xlink:href="#MalgunGothicBold-ac04" transform="translate(1867.941406 0)"/>
    <use xlink:href="#MalgunGothicBold-20" transform="translate(1967.941406 0)"/>
    <use xlink:href="#MalgunGothicBold-c218" transform="translate(2003.097656 0)"/>
    <use xlink:href="#MalgunGothicBold-c900" transform="translate(2103.097656 0)"/>
    <use xlink:href="#MalgunGothicBold-c758" transform="translate(2203.097656 0)"/>
    <use xlink:href="#MalgunGothicBold-20" transform="translate(2303.097656 0)"/>
    <use xlink:href="#MalgunGothicBold-72" transform="translate(2338.253906 0)"/>
    <use xlink:href="#MalgunGothicBold-61" transform="translate(2377.609375 0)"/>
    <use xlink:href="#MalgunGothicBold-6e" transform="translate(2431.90625 0)"/>
    <use xlink:href="#MalgunGothicBold-6b" transform="translate(2492.746094 0)"/>
    <use xlink:href="#MalgunGothicBold-69" transform="translate(2548.263672 0)"/>
    <use xlink:href="#MalgunGothicBold-6e" transform="translate(2575.705078 0)"/>
    <use xlink:href="#MalgunGothicBold-67" transform="translate(2636.544922 0)"/>
    <use xlink:href="#MalgunGothicBold-20" transform="translate(2699.142578 0)"/>
    <use xlink:href="#MalgunGothicBold-c131" transform="translate(2734.298828 0)"/>
    <use xlink:href="#MalgunGothicBold-b2a5" transform="translate(2834.298828 0)"/>
    <use xlink:href="#MalgunGothicBold-c744" transform="translate(2934.298828 0)"/>
    <use xlink:href="#MalgunGothicBold-20" transform="translate(3034.298828 0)"/>
    <use xlink:href="#MalgunGothicBold-bcf4" transform="translate(3069.455078 0)"/>
    <use xlink:href="#MalgunGothicBold-c600" transform="translate(3169.455078 0)"/>
    <use xlink:href="#MalgunGothicBold-b2e4" transform="translate(3269.455078 0)"/>
   </g>
  </g>
  <g id="text_32">
   <!-- Held-out participant test split. ROC AUC=0.694, Average Precision=0.619. -->
   <g style="fill: #6f768a" transform="translate(47.170938 38.552188) scale(0.1 -0.1)">
    <defs>
     <path id="MalgunGothic-48" d="M 4028 0 
L 3525 0 
L 3525 2109 
L 1113 2109 
L 1113 0 
L 609 0 
L 609 4600 
L 1113 4600 
L 1113 2569 
L 3525 2569 
L 3525 4600 
L 4028 4600 
L 4028 0 
z
" transform="scale(0.015625)"/>
     <path id="MalgunGothic-64" d="M 3313 0 
L 2822 0 
L 2822 566 
L 2809 566 
Q 2444 -78 1675 -78 
Q 1056 -78 686 364 
Q 316 806 316 1566 
Q 316 2375 728 2867 
Q 1141 3359 1816 3359 
Q 2494 3359 2809 2822 
L 2822 2822 
L 2822 4859 
L 3313 4859 
L 3313 0 
z
M 2822 1978 
Q 2822 2378 2550 2659 
Q 2278 2941 1872 2941 
Q 1384 2941 1101 2577 
Q 819 2213 819 1591 
Q 819 1025 1086 684 
Q 1353 344 1813 344 
Q 2250 344 2536 666 
Q 2822 988 2822 1478 
L 2822 1978 
z
" transform="scale(0.015625)"/>
     <path id="MalgunGothic-2d" d="M 2213 1634 
L 463 1634 
L 463 2031 
L 2213 2031 
L 2213 1634 
z
" transform="scale(0.015625)"/>
     <path id="MalgunGothic-4f" d="M 306 2244 
Q 306 3350 903 4012 
Q 1500 4675 2531 4675 
Q 3481 4675 4062 4029 
Q 4644 3384 4644 2359 
Q 4644 1256 4056 589 
Q 3469 -78 2456 -78 
Q 1488 -78 897 570 
Q 306 1219 306 2244 
z
M 838 2291 
Q 838 1456 1278 918 
Q 1719 381 2453 381 
Q 3238 381 3677 889 
Q 4116 1397 4116 2284 
Q 4116 3188 3692 3700 
Q 3269 4213 2494 4213 
Q 1741 4213 1289 3670 
Q 838 3128 838 2291 
z
" transform="scale(0.015625)"/>
     <path id="MalgunGothic-43" d="M 3725 197 
Q 3216 -78 2459 -78 
Q 1488 -78 897 561 
Q 306 1200 306 2213 
Q 306 3281 959 3978 
Q 1613 4675 2644 4675 
Q 3297 4675 3725 4484 
L 3725 3941 
Q 3234 4213 2634 4213 
Q 1813 4213 1325 3659 
Q 838 3106 838 2241 
Q 838 1413 1297 897 
Q 1756 381 2522 381 
Q 3216 381 3725 688 
L 3725 197 
z
" transform="scale(0.015625)"/>
     <path id="MalgunGothic-41" d="M 4134 0 
L 3575 0 
L 3075 1306 
L 1103 1306 
L 638 0 
L 75 0 
L 1844 4600 
L 2356 4600 
L 4134 0 
z
M 2903 1769 
L 2169 3756 
Q 2128 3866 2100 4059 
L 2084 4059 
Q 2050 3844 2009 3756 
L 1281 1769 
L 2903 1769 
z
" transform="scale(0.015625)"/>
     <path id="MalgunGothic-55" d="M 3947 1850 
Q 3947 -78 2209 -78 
Q 553 -78 553 1778 
L 553 4600 
L 1056 4600 
L 1056 1813 
Q 1056 381 2272 381 
Q 3441 381 3441 1763 
L 3441 4600 
L 3947 4600 
L 3947 1850 
z
" transform="scale(0.015625)"/>
     <path id="MalgunGothic-3d" d="M 3750 2397 
L 744 2397 
L 744 2803 
L 3750 2803 
L 3750 2397 
z
M 3750 1031 
L 744 1031 
L 744 1441 
L 3750 1441 
L 3750 1031 
z
" transform="scale(0.015625)"/>
     <path id="MalgunGothic-39" d="M 556 563 
Q 941 344 1366 344 
Q 1994 344 2347 855 
Q 2700 1366 2700 2313 
Q 2694 2306 2688 2313 
Q 2388 1713 1653 1713 
Q 1059 1713 682 2120 
Q 306 2528 306 3144 
Q 306 3806 711 4240 
Q 1116 4675 1772 4675 
Q 2466 4675 2833 4131 
Q 3200 3588 3200 2578 
Q 3200 1319 2717 620 
Q 2234 -78 1344 -78 
Q 881 -78 556 78 
L 556 563 
z
M 813 3219 
Q 813 2741 1063 2450 
Q 1313 2159 1759 2159 
Q 2147 2159 2406 2417 
Q 2666 2675 2666 3047 
Q 2666 3556 2411 3903 
Q 2156 4250 1725 4250 
Q 1322 4250 1067 3948 
Q 813 3647 813 3219 
z
" transform="scale(0.015625)"/>
     <path id="MalgunGothic-2c" d="M 988 725 
L 472 -850 
L 125 -850 
L 503 725 
L 988 725 
z
" transform="scale(0.015625)"/>
     <path id="MalgunGothic-67" d="M 3313 259 
Q 3313 -1547 1603 -1547 
Q 1003 -1547 538 -1313 
L 538 -806 
Q 1088 -1116 1600 -1116 
Q 2822 -1116 2822 194 
L 2822 559 
L 2809 559 
Q 2422 -78 1675 -78 
Q 1066 -78 691 362 
Q 316 803 316 1534 
Q 316 2375 722 2867 
Q 1128 3359 1816 3359 
Q 2484 3359 2809 2822 
L 2822 2822 
L 2822 3284 
L 3313 3284 
L 3313 259 
z
M 2822 1978 
Q 2822 2378 2547 2659 
Q 2272 2941 1878 2941 
Q 1384 2941 1101 2577 
Q 819 2213 819 1572 
Q 819 1016 1092 680 
Q 1366 344 1803 344 
Q 2247 344 2534 666 
Q 2822 988 2822 1478 
L 2822 1978 
z
" transform="scale(0.015625)"/>
    </defs>
    <use xlink:href="#MalgunGothic-48"/>
    <use xlink:href="#MalgunGothic-65" transform="translate(72.460938 0)"/>
    <use xlink:href="#MalgunGothic-6c" transform="translate(125.976562 0)"/>
    <use xlink:href="#MalgunGothic-64" transform="translate(150.585938 0)"/>
    <use xlink:href="#MalgunGothic-2d" transform="translate(210.791016 0)"/>
    <use xlink:href="#MalgunGothic-6f" transform="translate(251.806641 0)"/>
    <use xlink:href="#MalgunGothic-75" transform="translate(311.71875 0)"/>
    <use xlink:href="#MalgunGothic-74" transform="translate(369.53125 0)"/>
    <use xlink:href="#MalgunGothic-20" transform="translate(404.003906 0)"/>
    <use xlink:href="#MalgunGothic-70" transform="translate(439.160156 0)"/>
    <use xlink:href="#MalgunGothic-61" transform="translate(497.84375 0)"/>
    <use xlink:href="#MalgunGothic-72" transform="translate(549.845703 0)"/>
    <use xlink:href="#MalgunGothic-74" transform="translate(588.322266 0)"/>
    <use xlink:href="#MalgunGothic-69" transform="translate(622.794922 0)"/>
    <use xlink:href="#MalgunGothic-63" transform="translate(647.404297 0)"/>
    <use xlink:href="#MalgunGothic-69" transform="translate(694.669922 0)"/>
    <use xlink:href="#MalgunGothic-70" transform="translate(719.279297 0)"/>
    <use xlink:href="#MalgunGothic-61" transform="translate(777.962891 0)"/>
    <use xlink:href="#MalgunGothic-6e" transform="translate(829.964844 0)"/>
    <use xlink:href="#MalgunGothic-74" transform="translate(887.777344 0)"/>
    <use xlink:href="#MalgunGothic-20" transform="translate(922.25 0)"/>
    <use xlink:href="#MalgunGothic-74" transform="translate(957.40625 0)"/>
    <use xlink:href="#MalgunGothic-65" transform="translate(991.003906 0)"/>
    <use xlink:href="#MalgunGothic-73" transform="translate(1044.519531 0)"/>
    <use xlink:href="#MalgunGothic-74" transform="translate(1087.830078 0)"/>
    <use xlink:href="#MalgunGothic-20" transform="translate(1122.302734 0)"/>
    <use xlink:href="#MalgunGothic-73" transform="translate(1157.458984 0)"/>
    <use xlink:href="#MalgunGothic-70" transform="translate(1200.769531 0)"/>
    <use xlink:href="#MalgunGothic-6c" transform="translate(1260.828125 0)"/>
    <use xlink:href="#MalgunGothic-69" transform="translate(1285.4375 0)"/>
    <use xlink:href="#MalgunGothic-74" transform="translate(1310.046875 0)"/>
    <use xlink:href="#MalgunGothic-2e" transform="translate(1344.519531 0)"/>
    <use xlink:href="#MalgunGothic-20" transform="translate(1366.394531 0)"/>
    <use xlink:href="#MalgunGothic-52" transform="translate(1401.550781 0)"/>
    <use xlink:href="#MalgunGothic-4f" transform="translate(1461.412109 0)"/>
    <use xlink:href="#MalgunGothic-43" transform="translate(1538.755859 0)"/>
    <use xlink:href="#MalgunGothic-20" transform="translate(1602.232422 0)"/>
    <use xlink:href="#MalgunGothic-41" transform="translate(1637.388672 0)"/>
    <use xlink:href="#MalgunGothic-55" transform="translate(1701.833984 0)"/>
    <use xlink:href="#MalgunGothic-43" transform="translate(1772.097656 0)"/>
    <use xlink:href="#MalgunGothic-3d" transform="translate(1835.574219 0)"/>
    <use xlink:href="#MalgunGothic-30" transform="translate(1905.642578 0)"/>
    <use xlink:href="#MalgunGothic-2e" transform="translate(1960.720703 0)"/>
    <use xlink:href="#MalgunGothic-36" transform="translate(1982.595703 0)"/>
    <use xlink:href="#MalgunGothic-39" transform="translate(2037.673828 0)"/>
    <use xlink:href="#MalgunGothic-34" transform="translate(2092.751953 0)"/>
    <use xlink:href="#MalgunGothic-2c" transform="translate(2147.830078 0)"/>
    <use xlink:href="#MalgunGothic-20" transform="translate(2169.705078 0)"/>
    <use xlink:href="#MalgunGothic-41" transform="translate(2204.861328 0)"/>
    <use xlink:href="#MalgunGothic-76" transform="translate(2268.431641 0)"/>
    <use xlink:href="#MalgunGothic-65" transform="translate(2316.537109 0)"/>
    <use xlink:href="#MalgunGothic-72" transform="translate(2370.052734 0)"/>
    <use xlink:href="#MalgunGothic-61" transform="translate(2405.404297 0)"/>
    <use xlink:href="#MalgunGothic-67" transform="translate(2457.40625 0)"/>
    <use xlink:href="#MalgunGothic-65" transform="translate(2517.611328 0)"/>
    <use xlink:href="#MalgunGothic-20" transform="translate(2571.126953 0)"/>
    <use xlink:href="#MalgunGothic-50" transform="translate(2606.283203 0)"/>
    <use xlink:href="#MalgunGothic-72" transform="translate(2663.363281 0)"/>
    <use xlink:href="#MalgunGothic-65" transform="translate(2697.339844 0)"/>
    <use xlink:href="#MalgunGothic-63" transform="translate(2750.855469 0)"/>
    <use xlink:href="#MalgunGothic-69" transform="translate(2798.121094 0)"/>
    <use xlink:href="#MalgunGothic-73" transform="translate(2822.730469 0)"/>
    <use xlink:href="#MalgunGothic-69" transform="translate(2866.041016 0)"/>
    <use xlink:href="#MalgunGothic-6f" transform="translate(2890.650391 0)"/>
    <use xlink:href="#MalgunGothic-6e" transform="translate(2950.5625 0)"/>
    <use xlink:href="#MalgunGothic-3d" transform="translate(3008.375 0)"/>
    <use xlink:href="#MalgunGothic-30" transform="translate(3078.443359 0)"/>
    <use xlink:href="#MalgunGothic-2e" transform="translate(3133.521484 0)"/>
    <use xlink:href="#MalgunGothic-36" transform="translate(3155.396484 0)"/>
    <use xlink:href="#MalgunGothic-31" transform="translate(3210.474609 0)"/>
    <use xlink:href="#MalgunGothic-39" transform="translate(3265.552734 0)"/>
    <use xlink:href="#MalgunGothic-2e" transform="translate(3320.630859 0)"/>
   </g>
  </g>
 </g>
 <defs>
  <clipPath id="pab92ef3487">
   <rect x="47.170938" y="82.44" width="293.684211" height="265.32"/>
  </clipPath>
  <clipPath id="p3391b1a82f">
   <rect x="423.086727" y="82.44" width="293.684211" height="265.32"/>
  </clipPath>
 </defs>
</svg>
