<?xml version="1.0" encoding="utf-8" standalone="no"?>
<!DOCTYPE svg PUBLIC "-//W3C//DTD SVG 1.1//EN"
  "http://www.w3.org/Graphics/SVG/1.1/DTD/svg11.dtd">
<svg xmlns:xlink="http://www.w3.org/1999/xlink" width="674.229531pt" height="431.584969pt" viewBox="0 0 674.229531 431.584969" xmlns="http://www.w3.org/2000/svg" version="1.1">
 <metadata>
  <rdf:RDF xmlns:dc="http://purl.org/dc/elements/1.1/" xmlns:cc="http://creativecommons.org/ns#" xmlns:rdf="http://www.w3.org/1999/02/22-rdf-syntax-ns#">
   <cc:Work>
    <dc:type rdf:resource="http://purl.org/dc/dcmitype/StillImage"/>
    <dc:date>2026-06-30T14:57:31.733140</dc:date>
    <dc:format>image/svg+xml</dc:format>
    <dc:creator>
     <cc:Agent>
      <dc:title>Matplotlib v3.10.9, https://matplotlib.org/</dc:title>
     </cc:Agent>
    </dc:creator>
   </cc:Work>
  </rdf:RDF>
 </metadata>
 <defs>
  <style type="text/css">*{stroke-linejoin: round; stroke-linecap: butt}</style>
 </defs>
 <g id="figure_1">
  <g id="patch_1">
   <path d="M 0 431.584969 
L 674.229531 431.584969 
L 674.229531 0 
L 0 0 
z
" style="fill: #fcfcfd"/>
  </g>
  <g id="axes_1">
   <g id="patch_2">
    <path d="M 53.229531 391.104 
L 667.029531 391.104 
L 667.029531 74.16 
L 53.229531 74.16 
z
" style="fill: #ffffff"/>
   </g>
   <g id="matplotlib.axis_1">
    <g id="xtick_1">
     <g id="text_1">
      <!-- Stage 1 -->
      <g style="fill: #262626" transform="translate(95.8425 408.896969) scale(0.11 -0.11)">
       <defs>
        <path id="MalgunGothic-53" d="M 394 797 
Q 606 613 964 500 
Q 1322 388 1625 388 
Q 2628 388 2628 1116 
Q 2628 1325 2523 1484 
Q 2419 1644 2250 1756 
Q 2081 1869 1547 2144 
Q 903 2475 651 2754 
Q 400 3034 400 3456 
Q 400 4019 858 4347 
Q 1316 4675 1988 4675 
Q 2669 4675 2963 4513 
L 2963 3928 
Q 2563 4206 1922 4206 
Q 1484 4206 1207 4018 
Q 931 3831 931 3500 
Q 931 3200 1126 3011 
Q 1322 2822 1938 2522 
Q 2656 2163 2906 1844 
Q 3156 1525 3156 1153 
Q 3156 556 2725 239 
Q 2294 -78 1531 -78 
Q 1291 -78 927 -1 
Q 563 75 394 188 
L 394 797 
z
" transform="scale(0.015625)"/>
        <path id="MalgunGothic-74" d="M 2031 31 
Q 1844 -72 1553 -72 
Q 706 -72 706 881 
L 706 2856 
L 138 2856 
L 138 3284 
L 706 3284 
L 706 4091 
L 1200 4250 
L 1200 3284 
L 2031 3284 
L 2031 2856 
L 1200 2856 
L 1200 972 
Q 1200 625 1315 487 
Q 1431 350 1691 350 
Q 1888 350 2031 459 
L 2031 31 
z
" transform="scale(0.015625)"/>
        <path id="MalgunGothic-61" d="M 616 3050 
Q 1097 3359 1722 3359 
Q 2866 3359 2866 2147 
L 2866 0 
L 2369 0 
L 2369 516 
L 2350 516 
Q 2009 -78 1341 -78 
Q 859 -78 576 180 
Q 294 438 294 869 
Q 294 1784 1375 1934 
L 2366 2078 
Q 2366 2934 1684 2934 
Q 1084 2934 616 2525 
L 616 3050 
z
M 1563 1559 
Q 1178 1509 993 1371 
Q 809 1234 809 903 
Q 809 653 986 500 
Q 1163 347 1450 347 
Q 1847 347 2106 628 
Q 2366 909 2366 1334 
L 2366 1666 
L 1563 1559 
z
" transform="scale(0.015625)"/>
        <path id="MalgunGothic-67" d="M 3313 259 
Q 3313 -1547 1603 -1547 
Q 1003 -1547 538 -1313 
L 538 -806 
Q 1088 -1116 1600 -1116 
Q 2822 -1116 2822 194 
L 2822 559 
L 2809 559 
Q 2422 -78 1675 -78 
Q 1066 -78 691 362 
Q 316 803 316 1534 
Q 316 2375 722 2867 
Q 1128 3359 1816 3359 
Q 2484 3359 2809 2822 
L 2822 2822 
L 2822 3284 
L 3313 3284 
L 3313 259 
z
M 2822 1978 
Q 2822 2378 2547 2659 
Q 2272 2941 1878 2941 
Q 1384 2941 1101 2577 
Q 819 2213 819 1572 
Q 819 1016 1092 680 
Q 1366 344 1803 344 
Q 2247 344 2534 666 
Q 2822 988 2822 1478 
L 2822 1978 
z
" transform="scale(0.015625)"/>
        <path id="MalgunGothic-65" d="M 3156 1519 
L 828 1519 
Q 844 950 1133 648 
Q 1422 347 1909 347 
Q 2472 347 2934 719 
L 2934 244 
Q 2494 -78 1794 -78 
Q 1100 -78 708 376 
Q 316 831 316 1634 
Q 316 2381 747 2870 
Q 1178 3359 1816 3359 
Q 2453 3359 2804 2942 
Q 3156 2525 3156 1788 
L 3156 1519 
z
M 2644 1956 
Q 2644 2416 2423 2675 
Q 2203 2934 1809 2934 
Q 1438 2934 1169 2667 
Q 900 2400 834 1956 
L 2644 1956 
z
" transform="scale(0.015625)"/>
        <path id="MalgunGothic-20" transform="scale(0.015625)"/>
        <path id="MalgunGothic-31" d="M 2231 0 
L 1734 0 
L 1734 3972 
Q 1591 3828 1266 3661 
Q 941 3494 672 3428 
L 672 3959 
Q 1016 4056 1409 4275 
Q 1803 4494 2031 4700 
L 2231 4700 
L 2231 0 
z
" transform="scale(0.015625)"/>
       </defs>
       <use xlink:href="#MalgunGothic-53"/>
       <use xlink:href="#MalgunGothic-74" transform="translate(50.796875 0)"/>
       <use xlink:href="#MalgunGothic-61" transform="translate(85.269531 0)"/>
       <use xlink:href="#MalgunGothic-67" transform="translate(137.271484 0)"/>
       <use xlink:href="#MalgunGothic-65" transform="translate(197.476562 0)"/>
       <use xlink:href="#MalgunGothic-20" transform="translate(250.992188 0)"/>
       <use xlink:href="#MalgunGothic-31" transform="translate(286.148438 0)"/>
      </g>
      <!-- single seed -->
      <g style="fill: #262626" transform="translate(86.572422 421.577562) scale(0.11 -0.11)">
       <defs>
        <path id="MalgunGothic-73" d="M 331 669 
Q 763 350 1278 350 
Q 1978 350 1978 822 
Q 1978 1025 1825 1158 
Q 1672 1291 1222 1459 
Q 703 1666 520 1878 
Q 338 2091 338 2416 
Q 338 2834 700 3096 
Q 1063 3359 1584 3359 
Q 2003 3359 2341 3213 
L 2341 2697 
Q 1975 2934 1506 2934 
Q 1200 2934 1025 2798 
Q 850 2663 850 2459 
Q 850 2241 979 2125 
Q 1109 2009 1544 1838 
Q 2131 1609 2309 1390 
Q 2488 1172 2488 869 
Q 2488 431 2127 176 
Q 1766 -78 1203 -78 
Q 694 -78 331 122 
L 331 669 
z
" transform="scale(0.015625)"/>
        <path id="MalgunGothic-69" d="M 472 4466 
Q 472 4606 565 4701 
Q 659 4797 794 4797 
Q 934 4797 1029 4700 
Q 1125 4603 1125 4466 
Q 1125 4325 1029 4231 
Q 934 4138 794 4138 
Q 659 4138 565 4230 
Q 472 4322 472 4466 
z
M 541 0 
L 541 3284 
L 1034 3284 
L 1034 0 
L 541 0 
z
" transform="scale(0.015625)"/>
        <path id="MalgunGothic-6e" d="M 3238 0 
L 2741 0 
L 2741 1875 
Q 2741 2941 1963 2941 
Q 1563 2941 1298 2639 
Q 1034 2338 1034 1872 
L 1034 0 
L 538 0 
L 538 3284 
L 1034 3284 
L 1034 2734 
L 1047 2734 
Q 1416 3359 2125 3359 
Q 2666 3359 2952 3012 
Q 3238 2666 3238 2006 
L 3238 0 
z
" transform="scale(0.015625)"/>
        <path id="MalgunGothic-6c" d="M 541 0 
L 541 4859 
L 1034 4859 
L 1034 0 
L 541 0 
z
" transform="scale(0.015625)"/>
        <path id="MalgunGothic-64" d="M 3313 0 
L 2822 0 
L 2822 566 
L 2809 566 
Q 2444 -78 1675 -78 
Q 1056 -78 686 364 
Q 316 806 316 1566 
Q 316 2375 728 2867 
Q 1141 3359 1816 3359 
Q 2494 3359 2809 2822 
L 2822 2822 
L 2822 4859 
L 3313 4859 
L 3313 0 
z
M 2822 1978 
Q 2822 2378 2550 2659 
Q 2278 2941 1872 2941 
Q 1384 2941 1101 2577 
Q 819 2213 819 1591 
Q 819 1025 1086 684 
Q 1353 344 1813 344 
Q 2250 344 2536 666 
Q 2822 988 2822 1478 
L 2822 1978 
z
" transform="scale(0.015625)"/>
       </defs>
       <use xlink:href="#MalgunGothic-73"/>
       <use xlink:href="#MalgunGothic-69" transform="translate(43.310547 0)"/>
       <use xlink:href="#MalgunGothic-6e" transform="translate(67.919922 0)"/>
       <use xlink:href="#MalgunGothic-67" transform="translate(125.732422 0)"/>
       <use xlink:href="#MalgunGothic-6c" transform="translate(185.9375 0)"/>
       <use xlink:href="#MalgunGothic-65" transform="translate(210.546875 0)"/>
       <use xlink:href="#MalgunGothic-20" transform="translate(264.0625 0)"/>
       <use xlink:href="#MalgunGothic-73" transform="translate(299.21875 0)"/>
       <use xlink:href="#MalgunGothic-65" transform="translate(342.529297 0)"/>
       <use xlink:href="#MalgunGothic-65" transform="translate(396.044922 0)"/>
       <use xlink:href="#MalgunGothic-64" transform="translate(449.560547 0)"/>
      </g>
     </g>
    </g>
    <g id="xtick_2">
     <g id="text_2">
      <!-- Stage 1 -->
      <g style="fill: #262626" transform="translate(218.6025 408.896969) scale(0.11 -0.11)">
       <use xlink:href="#MalgunGothic-53"/>
       <use xlink:href="#MalgunGothic-74" transform="translate(50.796875 0)"/>
       <use xlink:href="#MalgunGothic-61" transform="translate(85.269531 0)"/>
       <use xlink:href="#MalgunGothic-67" transform="translate(137.271484 0)"/>
       <use xlink:href="#MalgunGothic-65" transform="translate(197.476562 0)"/>
       <use xlink:href="#MalgunGothic-20" transform="translate(250.992188 0)"/>
       <use xlink:href="#MalgunGothic-31" transform="translate(286.148438 0)"/>
      </g>
      <!-- seed mean -->
      <g style="fill: #262626" transform="translate(210.033672 421.577562) scale(0.11 -0.11)">
       <defs>
        <path id="MalgunGothic-6d" d="M 5166 0 
L 4669 0 
L 4669 1884 
Q 4669 2463 4495 2702 
Q 4322 2941 3922 2941 
Q 3584 2941 3342 2623 
Q 3100 2306 3100 1875 
L 3100 0 
L 2606 0 
L 2606 1953 
Q 2606 2941 1844 2941 
Q 1497 2941 1265 2642 
Q 1034 2344 1034 1875 
L 1034 0 
L 538 0 
L 538 3284 
L 1034 3284 
L 1034 2763 
L 1047 2763 
Q 1391 3359 2063 3359 
Q 2381 3359 2636 3176 
Q 2891 2994 2991 2675 
Q 3356 3359 4081 3359 
Q 5166 3359 5166 2022 
L 5166 0 
z
" transform="scale(0.015625)"/>
       </defs>
       <use xlink:href="#MalgunGothic-73"/>
       <use xlink:href="#MalgunGothic-65" transform="translate(43.310547 0)"/>
       <use xlink:href="#MalgunGothic-65" transform="translate(96.826172 0)"/>
       <use xlink:href="#MalgunGothic-64" transform="translate(150.341797 0)"/>
       <use xlink:href="#MalgunGothic-20" transform="translate(210.546875 0)"/>
       <use xlink:href="#MalgunGothic-6d" transform="translate(245.703125 0)"/>
       <use xlink:href="#MalgunGothic-65" transform="translate(333.691406 0)"/>
       <use xlink:href="#MalgunGothic-61" transform="translate(387.207031 0)"/>
       <use xlink:href="#MalgunGothic-6e" transform="translate(439.208984 0)"/>
      </g>
     </g>
    </g>
    <g id="xtick_3">
     <g id="text_3">
      <!-- Stage 2 -->
      <g style="fill: #262626" transform="translate(341.3625 408.896969) scale(0.11 -0.11)">
       <defs>
        <path id="MalgunGothic-32" d="M 2519 3372 
Q 2519 3784 2275 4018 
Q 2031 4253 1628 4253 
Q 1341 4253 1053 4104 
Q 766 3956 534 3697 
L 534 4234 
Q 981 4675 1691 4675 
Q 2281 4675 2642 4334 
Q 3003 3994 3003 3416 
Q 3003 2919 2772 2545 
Q 2541 2172 1984 1775 
Q 1459 1406 1254 1215 
Q 1050 1025 967 854 
Q 884 684 884 450 
L 3116 450 
L 3116 0 
L 356 0 
L 356 225 
Q 356 603 461 870 
Q 566 1138 811 1392 
Q 1056 1647 1597 2022 
Q 2091 2363 2305 2670 
Q 2519 2978 2519 3372 
z
" transform="scale(0.015625)"/>
       </defs>
       <use xlink:href="#MalgunGothic-53"/>
       <use xlink:href="#MalgunGothic-74" transform="translate(50.796875 0)"/>
       <use xlink:href="#MalgunGothic-61" transform="translate(85.269531 0)"/>
       <use xlink:href="#MalgunGothic-67" transform="translate(137.271484 0)"/>
       <use xlink:href="#MalgunGothic-65" transform="translate(197.476562 0)"/>
       <use xlink:href="#MalgunGothic-20" transform="translate(250.992188 0)"/>
       <use xlink:href="#MalgunGothic-32" transform="translate(286.148438 0)"/>
      </g>
      <!-- full rolling -->
      <g style="fill: #262626" transform="translate(334.853594 421.726062) scale(0.11 -0.11)">
       <defs>
        <path id="MalgunGothic-66" d="M 2128 4422 
Q 1975 4506 1778 4506 
Q 1222 4506 1222 3800 
L 1222 3284 
L 1991 3284 
L 1991 2856 
L 1222 2856 
L 1222 0 
L 734 0 
L 734 2856 
L 172 2856 
L 172 3284 
L 734 3284 
L 734 3825 
Q 734 4341 1026 4636 
Q 1319 4931 1753 4931 
Q 1994 4931 2128 4875 
L 2128 4422 
z
" transform="scale(0.015625)"/>
        <path id="MalgunGothic-75" d="M 3166 0 
L 2669 0 
L 2669 519 
L 2656 519 
Q 2331 -78 1644 -78 
Q 469 -78 469 1322 
L 469 3284 
L 959 3284 
L 959 1403 
Q 959 344 1766 344 
Q 2159 344 2414 636 
Q 2669 928 2669 1394 
L 2669 3284 
L 3166 3284 
L 3166 0 
z
" transform="scale(0.015625)"/>
        <path id="MalgunGothic-72" d="M 2225 2775 
Q 2084 2881 1828 2881 
Q 1491 2881 1262 2553 
Q 1034 2225 1034 1681 
L 1034 0 
L 538 0 
L 538 3284 
L 1034 3284 
L 1034 2603 
L 1047 2603 
Q 1159 2950 1389 3145 
Q 1619 3341 1903 3341 
Q 2109 3341 2225 3297 
L 2225 2775 
z
" transform="scale(0.015625)"/>
        <path id="MalgunGothic-6f" d="M 316 1600 
Q 316 2419 761 2889 
Q 1206 3359 1978 3359 
Q 2697 3359 3111 2907 
Q 3525 2456 3525 1650 
Q 3525 869 3078 395 
Q 2631 -78 1900 -78 
Q 1184 -78 750 384 
Q 316 847 316 1600 
z
M 819 1622 
Q 819 1041 1123 692 
Q 1428 344 1934 344 
Q 2459 344 2739 680 
Q 3019 1016 3019 1634 
Q 3019 2256 2737 2598 
Q 2456 2941 1934 2941 
Q 1425 2941 1122 2587 
Q 819 2234 819 1622 
z
" transform="scale(0.015625)"/>
       </defs>
       <use xlink:href="#MalgunGothic-66"/>
       <use xlink:href="#MalgunGothic-75" transform="translate(31.640625 0)"/>
       <use xlink:href="#MalgunGothic-6c" transform="translate(89.453125 0)"/>
       <use xlink:href="#MalgunGothic-6c" transform="translate(114.0625 0)"/>
       <use xlink:href="#MalgunGothic-20" transform="translate(138.671875 0)"/>
       <use xlink:href="#MalgunGothic-72" transform="translate(173.828125 0)"/>
       <use xlink:href="#MalgunGothic-6f" transform="translate(207.804688 0)"/>
       <use xlink:href="#MalgunGothic-6c" transform="translate(267.716797 0)"/>
       <use xlink:href="#MalgunGothic-6c" transform="translate(292.326172 0)"/>
       <use xlink:href="#MalgunGothic-69" transform="translate(316.935547 0)"/>
       <use xlink:href="#MalgunGothic-6e" transform="translate(341.544922 0)"/>
       <use xlink:href="#MalgunGothic-67" transform="translate(399.357422 0)"/>
      </g>
     </g>
    </g>
    <g id="xtick_4">
     <g id="text_4">
      <!-- Stage 2B -->
      <g style="fill: #262626" transform="translate(460.913594 408.896969) scale(0.11 -0.11)">
       <defs>
        <path id="MalgunGothic-42" d="M 609 0 
L 609 4600 
L 1894 4600 
Q 2466 4600 2817 4311 
Q 3169 4022 3169 3547 
Q 3169 3166 2961 2870 
Q 2753 2575 2378 2453 
L 2378 2441 
Q 2844 2391 3122 2089 
Q 3400 1788 3400 1319 
Q 3400 731 2978 365 
Q 2556 0 1919 0 
L 609 0 
z
M 1113 4128 
L 1113 2619 
L 1672 2619 
Q 2134 2619 2387 2839 
Q 2641 3059 2641 3447 
Q 2641 4128 1750 4128 
L 1113 4128 
z
M 1113 2153 
L 1113 469 
L 1859 469 
Q 2334 469 2603 698 
Q 2872 928 2872 1325 
Q 2872 2153 1738 2153 
L 1113 2153 
z
" transform="scale(0.015625)"/>
       </defs>
       <use xlink:href="#MalgunGothic-53"/>
       <use xlink:href="#MalgunGothic-74" transform="translate(50.796875 0)"/>
       <use xlink:href="#MalgunGothic-61" transform="translate(85.269531 0)"/>
       <use xlink:href="#MalgunGothic-67" transform="translate(137.271484 0)"/>
       <use xlink:href="#MalgunGothic-65" transform="translate(197.476562 0)"/>
       <use xlink:href="#MalgunGothic-20" transform="translate(250.992188 0)"/>
       <use xlink:href="#MalgunGothic-32" transform="translate(286.148438 0)"/>
       <use xlink:href="#MalgunGothic-42" transform="translate(341.226562 0)"/>
      </g>
      <!-- compact rolling -->
      <g style="fill: #262626" transform="translate(443.92375 421.577562) scale(0.11 -0.11)">
       <defs>
        <path id="MalgunGothic-63" d="M 2763 153 
Q 2375 -78 1872 -78 
Q 1184 -78 750 372 
Q 316 822 316 1566 
Q 316 2381 777 2870 
Q 1238 3359 2009 3359 
Q 2434 3359 2766 3200 
L 2766 2681 
Q 2397 2941 1981 2941 
Q 1478 2941 1148 2577 
Q 819 2213 819 1609 
Q 819 1034 1120 689 
Q 1422 344 1947 344 
Q 2381 344 2763 631 
L 2763 153 
z
" transform="scale(0.015625)"/>
        <path id="MalgunGothic-70" d="M 1034 481 
L 1034 -1513 
L 538 -1513 
L 538 3284 
L 1034 3284 
L 1034 2703 
L 1047 2703 
Q 1438 3359 2184 3359 
Q 2809 3359 3171 2920 
Q 3534 2481 3534 1738 
Q 3534 906 3126 414 
Q 2719 -78 2034 -78 
Q 1394 -78 1047 481 
L 1034 481 
z
M 1034 1331 
Q 1034 922 1307 633 
Q 1581 344 1991 344 
Q 2475 344 2751 716 
Q 3028 1088 3028 1753 
Q 3028 2300 2767 2620 
Q 2506 2941 2072 2941 
Q 1619 2941 1326 2619 
Q 1034 2297 1034 1806 
L 1034 1331 
z
" transform="scale(0.015625)"/>
       </defs>
       <use xlink:href="#MalgunGothic-63"/>
       <use xlink:href="#MalgunGothic-6f" transform="translate(47.265625 0)"/>
       <use xlink:href="#MalgunGothic-6d" transform="translate(107.177734 0)"/>
       <use xlink:href="#MalgunGothic-70" transform="translate(195.166016 0)"/>
       <use xlink:href="#MalgunGothic-61" transform="translate(253.849609 0)"/>
       <use xlink:href="#MalgunGothic-63" transform="translate(305.851562 0)"/>
       <use xlink:href="#MalgunGothic-74" transform="translate(353.117188 0)"/>
       <use xlink:href="#MalgunGothic-20" transform="translate(387.589844 0)"/>
       <use xlink:href="#MalgunGothic-72" transform="translate(422.746094 0)"/>
       <use xlink:href="#MalgunGothic-6f" transform="translate(456.722656 0)"/>
       <use xlink:href="#MalgunGothic-6c" transform="translate(516.634766 0)"/>
       <use xlink:href="#MalgunGothic-6c" transform="translate(541.244141 0)"/>
       <use xlink:href="#MalgunGothic-69" transform="translate(565.853516 0)"/>
       <use xlink:href="#MalgunGothic-6e" transform="translate(590.462891 0)"/>
       <use xlink:href="#MalgunGothic-67" transform="translate(648.275391 0)"/>
      </g>
     </g>
    </g>
    <g id="xtick_5">
     <g id="text_5">
      <!-- Best Stage 1 -->
      <g style="fill: #262626" transform="translate(574.518672 408.896969) scale(0.11 -0.11)">
       <use xlink:href="#MalgunGothic-42"/>
       <use xlink:href="#MalgunGothic-65" transform="translate(58.349609 0)"/>
       <use xlink:href="#MalgunGothic-73" transform="translate(111.865234 0)"/>
       <use xlink:href="#MalgunGothic-74" transform="translate(155.175781 0)"/>
       <use xlink:href="#MalgunGothic-20" transform="translate(189.648438 0)"/>
       <use xlink:href="#MalgunGothic-53" transform="translate(224.804688 0)"/>
       <use xlink:href="#MalgunGothic-74" transform="translate(275.601562 0)"/>
       <use xlink:href="#MalgunGothic-61" transform="translate(310.074219 0)"/>
       <use xlink:href="#MalgunGothic-67" transform="translate(362.076172 0)"/>
       <use xlink:href="#MalgunGothic-65" transform="translate(422.28125 0)"/>
       <use xlink:href="#MalgunGothic-20" transform="translate(475.796875 0)"/>
       <use xlink:href="#MalgunGothic-31" transform="translate(510.953125 0)"/>
      </g>
      <!-- HP config mean -->
      <g style="fill: #262626" transform="translate(565.356016 421.726062) scale(0.11 -0.11)">
       <defs>
        <path id="MalgunGothic-48" d="M 4028 0 
L 3525 0 
L 3525 2109 
L 1113 2109 
L 1113 0 
L 609 0 
L 609 4600 
L 1113 4600 
L 1113 2569 
L 3525 2569 
L 3525 4600 
L 4028 4600 
L 4028 0 
z
" transform="scale(0.015625)"/>
        <path id="MalgunGothic-50" d="M 1113 1747 
L 1113 0 
L 609 0 
L 609 4600 
L 1850 4600 
Q 2575 4600 2979 4240 
Q 3384 3881 3384 3231 
Q 3384 2559 2909 2140 
Q 2434 1722 1728 1747 
L 1113 1747 
z
M 1113 4131 
L 1113 2219 
L 1691 2219 
Q 2256 2219 2554 2475 
Q 2853 2731 2853 3206 
Q 2853 4131 1759 4131 
L 1113 4131 
z
" transform="scale(0.015625)"/>
       </defs>
       <use xlink:href="#MalgunGothic-48"/>
       <use xlink:href="#MalgunGothic-50" transform="translate(72.460938 0)"/>
       <use xlink:href="#MalgunGothic-20" transform="translate(129.541016 0)"/>
       <use xlink:href="#MalgunGothic-63" transform="translate(164.697266 0)"/>
       <use xlink:href="#MalgunGothic-6f" transform="translate(211.962891 0)"/>
       <use xlink:href="#MalgunGothic-6e" transform="translate(271.875 0)"/>
       <use xlink:href="#MalgunGothic-66" transform="translate(329.6875 0)"/>
       <use xlink:href="#MalgunGothic-69" transform="translate(361.328125 0)"/>
       <use xlink:href="#MalgunGothic-67" transform="translate(385.9375 0)"/>
       <use xlink:href="#MalgunGothic-20" transform="translate(446.142578 0)"/>
       <use xlink:href="#MalgunGothic-6d" transform="translate(481.298828 0)"/>
       <use xlink:href="#MalgunGothic-65" transform="translate(569.287109 0)"/>
       <use xlink:href="#MalgunGothic-61" transform="translate(622.802734 0)"/>
       <use xlink:href="#MalgunGothic-6e" transform="translate(674.804688 0)"/>
      </g>
     </g>
    </g>
   </g>
   <g id="matplotlib.axis_2">
    <g id="ytick_1">
     <g id="line2d_1">
      <path d="M 53.229531 391.104 
L 667.029531 391.104 
" clip-path="url(#paa0bf49f5e)" style="fill: none; stroke: #e6e8f0; stroke-width: 0.8; stroke-linecap: round"/>
     </g>
     <g id="text_6">
      <!-- 0.50 -->
      <g style="fill: #262626" transform="translate(23.1475 395.279703) scale(0.11 -0.11)">
       <defs>
        <path id="MalgunGothic-30" d="M 278 2206 
Q 278 3425 675 4050 
Q 1072 4675 1819 4675 
Q 3253 4675 3253 2319 
Q 3253 1156 2854 539 
Q 2456 -78 1716 -78 
Q 1016 -78 647 520 
Q 278 1119 278 2206 
z
M 784 2231 
Q 784 344 1769 344 
Q 2747 344 2747 2259 
Q 2747 4250 1794 4250 
Q 784 4250 784 2231 
z
" transform="scale(0.015625)"/>
        <path id="MalgunGothic-2e" d="M 356 275 
Q 356 422 459 523 
Q 563 625 700 625 
Q 838 625 941 523 
Q 1044 422 1044 275 
Q 1044 138 942 33 
Q 841 -72 700 -72 
Q 559 -72 457 29 
Q 356 131 356 275 
z
" transform="scale(0.015625)"/>
        <path id="MalgunGothic-35" d="M 3072 1403 
Q 3072 722 2636 322 
Q 2200 -78 1469 -78 
Q 828 -78 516 113 
L 516 650 
Q 994 344 1475 344 
Q 1969 344 2270 630 
Q 2572 916 2572 1372 
Q 2572 1838 2265 2092 
Q 1959 2347 1381 2347 
Q 994 2347 603 2300 
L 759 4600 
L 2869 4600 
L 2869 4147 
L 1206 4147 
L 1106 2763 
Q 1347 2784 1547 2784 
Q 2263 2784 2667 2414 
Q 3072 2044 3072 1403 
z
" transform="scale(0.015625)"/>
       </defs>
       <use xlink:href="#MalgunGothic-30"/>
       <use xlink:href="#MalgunGothic-2e" transform="translate(55.078125 0)"/>
       <use xlink:href="#MalgunGothic-35" transform="translate(76.953125 0)"/>
       <use xlink:href="#MalgunGothic-30" transform="translate(132.03125 0)"/>
      </g>
     </g>
    </g>
    <g id="ytick_2">
     <g id="line2d_2">
      <path d="M 53.229531 322.20313 
L 667.029531 322.20313 
" clip-path="url(#paa0bf49f5e)" style="fill: none; stroke: #e6e8f0; stroke-width: 0.8; stroke-linecap: round"/>
     </g>
     <g id="text_7">
      <!-- 0.55 -->
      <g style="fill: #262626" transform="translate(23.1475 326.378834) scale(0.11 -0.11)">
       <use xlink:href="#MalgunGothic-30"/>
       <use xlink:href="#MalgunGothic-2e" transform="translate(55.078125 0)"/>
       <use xlink:href="#MalgunGothic-35" transform="translate(76.953125 0)"/>
       <use xlink:href="#MalgunGothic-35" transform="translate(132.03125 0)"/>
      </g>
     </g>
    </g>
    <g id="ytick_3">
     <g id="line2d_3">
      <path d="M 53.229531 253.302261 
L 667.029531 253.302261 
" clip-path="url(#paa0bf49f5e)" style="fill: none; stroke: #e6e8f0; stroke-width: 0.8; stroke-linecap: round"/>
     </g>
     <g id="text_8">
      <!-- 0.60 -->
      <g style="fill: #262626" transform="translate(23.1475 257.477964) scale(0.11 -0.11)">
       <defs>
        <path id="MalgunGothic-36" d="M 2981 4069 
Q 2619 4250 2228 4250 
Q 1591 4250 1228 3689 
Q 866 3128 869 2213 
L 884 2213 
Q 1203 2872 1938 2872 
Q 2547 2872 2903 2478 
Q 3259 2084 3259 1450 
Q 3259 797 2857 359 
Q 2456 -78 1825 -78 
Q 1116 -78 736 478 
Q 356 1034 356 2019 
Q 356 3181 847 3928 
Q 1338 4675 2222 4675 
Q 2700 4675 2981 4544 
L 2981 4069 
z
M 906 1506 
Q 906 1022 1165 683 
Q 1425 344 1844 344 
Q 2247 344 2498 645 
Q 2750 947 2750 1388 
Q 2750 1888 2509 2167 
Q 2269 2447 1838 2447 
Q 1444 2447 1175 2173 
Q 906 1900 906 1506 
z
" transform="scale(0.015625)"/>
       </defs>
       <use xlink:href="#MalgunGothic-30"/>
       <use xlink:href="#MalgunGothic-2e" transform="translate(55.078125 0)"/>
       <use xlink:href="#MalgunGothic-36" transform="translate(76.953125 0)"/>
       <use xlink:href="#MalgunGothic-30" transform="translate(132.03125 0)"/>
      </g>
     </g>
    </g>
    <g id="ytick_4">
     <g id="line2d_4">
      <path d="M 53.229531 184.401391 
L 667.029531 184.401391 
" clip-path="url(#paa0bf49f5e)" style="fill: none; stroke: #e6e8f0; stroke-width: 0.8; stroke-linecap: round"/>
     </g>
     <g id="text_9">
      <!-- 0.65 -->
      <g style="fill: #262626" transform="translate(23.1475 188.577094) scale(0.11 -0.11)">
       <use xlink:href="#MalgunGothic-30"/>
       <use xlink:href="#MalgunGothic-2e" transform="translate(55.078125 0)"/>
       <use xlink:href="#MalgunGothic-36" transform="translate(76.953125 0)"/>
       <use xlink:href="#MalgunGothic-35" transform="translate(132.03125 0)"/>
      </g>
     </g>
    </g>
    <g id="ytick_5">
     <g id="line2d_5">
      <path d="M 53.229531 115.500522 
L 667.029531 115.500522 
" clip-path="url(#paa0bf49f5e)" style="fill: none; stroke: #e6e8f0; stroke-width: 0.8; stroke-linecap: round"/>
     </g>
     <g id="text_10">
      <!-- 0.70 -->
      <g style="fill: #262626" transform="translate(23.1475 119.676225) scale(0.11 -0.11)">
       <defs>
        <path id="MalgunGothic-37" d="M 3213 4297 
Q 2478 3006 2064 1918 
Q 1650 831 1550 0 
L 1009 0 
Q 1084 531 1290 1176 
Q 1497 1822 1815 2537 
Q 2134 3253 2631 4147 
L 291 4147 
L 291 4600 
L 3213 4600 
L 3213 4297 
z
" transform="scale(0.015625)"/>
       </defs>
       <use xlink:href="#MalgunGothic-30"/>
       <use xlink:href="#MalgunGothic-2e" transform="translate(55.078125 0)"/>
       <use xlink:href="#MalgunGothic-37" transform="translate(76.953125 0)"/>
       <use xlink:href="#MalgunGothic-30" transform="translate(132.03125 0)"/>
      </g>
     </g>
    </g>
    <g id="text_11">
     <!-- Held-out test score -->
     <g style="fill: #1f2430" transform="translate(16.310625 285.26325) rotate(-90) scale(0.12 -0.12)">
      <defs>
       <path id="MalgunGothic-2d" d="M 2213 1634 
L 463 1634 
L 463 2031 
L 2213 2031 
L 2213 1634 
z
" transform="scale(0.015625)"/>
      </defs>
      <use xlink:href="#MalgunGothic-48"/>
      <use xlink:href="#MalgunGothic-65" transform="translate(72.460938 0)"/>
      <use xlink:href="#MalgunGothic-6c" transform="translate(125.976562 0)"/>
      <use xlink:href="#MalgunGothic-64" transform="translate(150.585938 0)"/>
      <use xlink:href="#MalgunGothic-2d" transform="translate(210.791016 0)"/>
      <use xlink:href="#MalgunGothic-6f" transform="translate(251.806641 0)"/>
      <use xlink:href="#MalgunGothic-75" transform="translate(311.71875 0)"/>
      <use xlink:href="#MalgunGothic-74" transform="translate(369.53125 0)"/>
      <use xlink:href="#MalgunGothic-20" transform="translate(404.003906 0)"/>
      <use xlink:href="#MalgunGothic-74" transform="translate(439.160156 0)"/>
      <use xlink:href="#MalgunGothic-65" transform="translate(472.757812 0)"/>
      <use xlink:href="#MalgunGothic-73" transform="translate(526.273438 0)"/>
      <use xlink:href="#MalgunGothic-74" transform="translate(569.583984 0)"/>
      <use xlink:href="#MalgunGothic-20" transform="translate(604.056641 0)"/>
      <use xlink:href="#MalgunGothic-73" transform="translate(639.212891 0)"/>
      <use xlink:href="#MalgunGothic-63" transform="translate(682.523438 0)"/>
      <use xlink:href="#MalgunGothic-6f" transform="translate(729.789062 0)"/>
      <use xlink:href="#MalgunGothic-72" transform="translate(789.701172 0)"/>
      <use xlink:href="#MalgunGothic-65" transform="translate(823.677734 0)"/>
     </g>
    </g>
   </g>
   <g id="patch_3">
    <path d="M 65.505531 1080.112696 
L 98.241531 1080.112696 
L 98.241531 206.725273 
L 65.505531 206.725273 
z
" clip-path="url(#paa0bf49f5e)" style="fill: #aec2ef; stroke: #1f2430; stroke-width: 0.8; stroke-linejoin: miter"/>
   </g>
   <g id="patch_4">
    <path d="M 188.265531 1080.112696 
L 221.001531 1080.112696 
L 221.001531 238.557475 
L 188.265531 238.557475 
z
" clip-path="url(#paa0bf49f5e)" style="fill: #aec2ef; stroke: #1f2430; stroke-width: 0.8; stroke-linejoin: miter"/>
   </g>
   <g id="patch_5">
    <path d="M 311.025531 1080.112696 
L 343.761531 1080.112696 
L 343.761531 249.857217 
L 311.025531 249.857217 
z
" clip-path="url(#paa0bf49f5e)" style="fill: #aec2ef; stroke: #1f2430; stroke-width: 0.8; stroke-linejoin: miter"/>
   </g>
   <g id="patch_6">
    <path d="M 433.785531 1080.112696 
L 466.521531 1080.112696 
L 466.521531 263.912995 
L 433.785531 263.912995 
z
" clip-path="url(#paa0bf49f5e)" style="fill: #aec2ef; stroke: #1f2430; stroke-width: 0.8; stroke-linejoin: miter"/>
   </g>
   <g id="patch_7">
    <path d="M 556.545531 1080.112696 
L 589.281531 1080.112696 
L 589.281531 172.550442 
L 556.545531 172.550442 
z
" clip-path="url(#paa0bf49f5e)" style="fill: #aec2ef; stroke: #1f2430; stroke-width: 0.8; stroke-linejoin: miter"/>
   </g>
   <g id="patch_8">
    <path d="M 98.241531 1080.112696 
L 130.977531 1080.112696 
L 130.977531 132.725739 
L 98.241531 132.725739 
z
" clip-path="url(#paa0bf49f5e)" style="fill: #ebd470; stroke: #1f2430; stroke-width: 0.8; stroke-linejoin: miter"/>
   </g>
   <g id="patch_9">
    <path d="M 221.001531 1080.112696 
L 253.737531 1080.112696 
L 253.737531 159.459277 
L 221.001531 159.459277 
z
" clip-path="url(#paa0bf49f5e)" style="fill: #ebd470; stroke: #1f2430; stroke-width: 0.8; stroke-linejoin: miter"/>
   </g>
   <g id="patch_10">
    <path d="M 343.761531 1080.112696 
L 376.497531 1080.112696 
L 376.497531 166.762769 
L 343.761531 166.762769 
z
" clip-path="url(#paa0bf49f5e)" style="fill: #ebd470; stroke: #1f2430; stroke-width: 0.8; stroke-linejoin: miter"/>
   </g>
   <g id="patch_11">
    <path d="M 466.521531 1080.112696 
L 499.257531 1080.112696 
L 499.257531 135.895179 
L 466.521531 135.895179 
z
" clip-path="url(#paa0bf49f5e)" style="fill: #ebd470; stroke: #1f2430; stroke-width: 0.8; stroke-linejoin: miter"/>
   </g>
   <g id="patch_12">
    <path d="M 589.281531 1080.112696 
L 622.017531 1080.112696 
L 622.017531 123.493023 
L 589.281531 123.493023 
z
" clip-path="url(#paa0bf49f5e)" style="fill: #ebd470; stroke: #1f2430; stroke-width: 0.8; stroke-linejoin: miter"/>
   </g>
   <g id="patch_13">
    <path d="M 130.977531 1080.112696 
L 163.713531 1080.112696 
L 163.713531 252.062045 
L 130.977531 252.062045 
z
" clip-path="url(#paa0bf49f5e)" style="fill: #a4c982; stroke: #1f2430; stroke-width: 0.8; stroke-linejoin: miter"/>
   </g>
   <g id="patch_14">
    <path d="M 253.737531 1080.112696 
L 286.473531 1080.112696 
L 286.473531 251.097433 
L 253.737531 251.097433 
z
" clip-path="url(#paa0bf49f5e)" style="fill: #a4c982; stroke: #1f2430; stroke-width: 0.8; stroke-linejoin: miter"/>
   </g>
   <g id="patch_15">
    <path d="M 376.497531 1080.112696 
L 409.233531 1080.112696 
L 409.233531 273.283513 
L 376.497531 273.283513 
z
" clip-path="url(#paa0bf49f5e)" style="fill: #a4c982; stroke: #1f2430; stroke-width: 0.8; stroke-linejoin: miter"/>
   </g>
   <g id="patch_16">
    <path d="M 499.257531 1080.112696 
L 531.993531 1080.112696 
L 531.993531 282.51623 
L 499.257531 282.51623 
z
" clip-path="url(#paa0bf49f5e)" style="fill: #a4c982; stroke: #1f2430; stroke-width: 0.8; stroke-linejoin: miter"/>
   </g>
   <g id="patch_17">
    <path d="M 622.017531 1080.112696 
L 654.753531 1080.112696 
L 654.753531 227.808939 
L 622.017531 227.808939 
z
" clip-path="url(#paa0bf49f5e)" style="fill: #a4c982; stroke: #1f2430; stroke-width: 0.8; stroke-linejoin: miter"/>
   </g>
   <g id="patch_18">
    <path d="M 114.609531 1080.112696 
L 114.609531 1080.112696 
L 114.609531 1080.112696 
L 114.609531 1080.112696 
z
" clip-path="url(#paa0bf49f5e)" style="fill: #aec2ef; stroke: #1f2430; stroke-width: 0.8; stroke-linejoin: miter"/>
   </g>
   <g id="patch_19">
    <path d="M 114.609531 1080.112696 
L 114.609531 1080.112696 
L 114.609531 1080.112696 
L 114.609531 1080.112696 
z
" clip-path="url(#paa0bf49f5e)" style="fill: #ebd470; stroke: #1f2430; stroke-width: 0.8; stroke-linejoin: miter"/>
   </g>
   <g id="patch_20">
    <path d="M 114.609531 1080.112696 
L 114.609531 1080.112696 
L 114.609531 1080.112696 
L 114.609531 1080.112696 
z
" clip-path="url(#paa0bf49f5e)" style="fill: #a4c982; stroke: #1f2430; stroke-width: 0.8; stroke-linejoin: miter"/>
   </g>
   <g id="line2d_6">
    <path clip-path="url(#paa0bf49f5e)" style="fill: none; stroke: #424242; stroke-width: 2.25; stroke-linecap: round"/>
   </g>
   <g id="line2d_7">
    <path clip-path="url(#paa0bf49f5e)" style="fill: none; stroke: #424242; stroke-width: 2.25; stroke-linecap: round"/>
   </g>
   <g id="line2d_8">
    <path clip-path="url(#paa0bf49f5e)" style="fill: none; stroke: #424242; stroke-width: 2.25; stroke-linecap: round"/>
   </g>
   <g id="line2d_9">
    <path clip-path="url(#paa0bf49f5e)" style="fill: none; stroke: #424242; stroke-width: 2.25; stroke-linecap: round"/>
   </g>
   <g id="line2d_10">
    <path clip-path="url(#paa0bf49f5e)" style="fill: none; stroke: #424242; stroke-width: 2.25; stroke-linecap: round"/>
   </g>
   <g id="line2d_11">
    <path clip-path="url(#paa0bf49f5e)" style="fill: none; stroke: #424242; stroke-width: 2.25; stroke-linecap: round"/>
   </g>
   <g id="line2d_12">
    <path clip-path="url(#paa0bf49f5e)" style="fill: none; stroke: #424242; stroke-width: 2.25; stroke-linecap: round"/>
   </g>
   <g id="line2d_13">
    <path clip-path="url(#paa0bf49f5e)" style="fill: none; stroke: #424242; stroke-width: 2.25; stroke-linecap: round"/>
   </g>
   <g id="line2d_14">
    <path clip-path="url(#paa0bf49f5e)" style="fill: none; stroke: #424242; stroke-width: 2.25; stroke-linecap: round"/>
   </g>
   <g id="line2d_15">
    <path clip-path="url(#paa0bf49f5e)" style="fill: none; stroke: #424242; stroke-width: 2.25; stroke-linecap: round"/>
   </g>
   <g id="line2d_16">
    <path clip-path="url(#paa0bf49f5e)" style="fill: none; stroke: #424242; stroke-width: 2.25; stroke-linecap: round"/>
   </g>
   <g id="line2d_17">
    <path clip-path="url(#paa0bf49f5e)" style="fill: none; stroke: #424242; stroke-width: 2.25; stroke-linecap: round"/>
   </g>
   <g id="line2d_18">
    <path clip-path="url(#paa0bf49f5e)" style="fill: none; stroke: #424242; stroke-width: 2.25; stroke-linecap: round"/>
   </g>
   <g id="line2d_19">
    <path clip-path="url(#paa0bf49f5e)" style="fill: none; stroke: #424242; stroke-width: 2.25; stroke-linecap: round"/>
   </g>
   <g id="line2d_20">
    <path clip-path="url(#paa0bf49f5e)" style="fill: none; stroke: #424242; stroke-width: 2.25; stroke-linecap: round"/>
   </g>
   <g id="patch_21">
    <path d="M 53.229531 391.104 
L 53.229531 74.16 
" style="fill: none; stroke: #d7dbe7; stroke-width: 1.25; stroke-linejoin: miter; stroke-linecap: square"/>
   </g>
   <g id="patch_22">
    <path d="M 53.229531 391.104 
L 667.029531 391.104 
" style="fill: none; stroke: #d7dbe7; stroke-width: 1.25; stroke-linejoin: miter; stroke-linecap: square"/>
   </g>
   <g id="text_12">
    <!-- 0.634 -->
    <g style="fill: #262626" transform="translate(72.186031 202.834023) scale(0.08 -0.08)">
     <defs>
      <path id="MalgunGothic-33" d="M 416 719 
Q 891 344 1478 344 
Q 1959 344 2254 587 
Q 2550 831 2550 1247 
Q 2550 2169 1253 2169 
L 872 2169 
L 872 2591 
L 1234 2591 
Q 2388 2591 2388 3453 
Q 2388 4250 1509 4250 
Q 1022 4250 594 3916 
L 594 4413 
Q 1031 4675 1634 4675 
Q 2184 4675 2539 4372 
Q 2894 4069 2894 3581 
Q 2894 2678 1972 2409 
L 1972 2400 
Q 2469 2356 2764 2053 
Q 3059 1750 3059 1300 
Q 3059 672 2604 297 
Q 2150 -78 1450 -78 
Q 806 -78 416 169 
L 416 719 
z
" transform="scale(0.015625)"/>
      <path id="MalgunGothic-34" d="M 2703 4600 
L 2703 1563 
L 3309 1563 
L 3309 1113 
L 2703 1113 
L 2703 0 
L 2213 0 
L 2213 1113 
L 50 1113 
L 50 1534 
Q 728 2297 1295 3109 
Q 1863 3922 2172 4600 
L 2703 4600 
z
M 625 1563 
L 2213 1563 
L 2213 3831 
Q 1613 2788 959 1981 
L 625 1563 
z
" transform="scale(0.015625)"/>
     </defs>
     <use xlink:href="#MalgunGothic-30"/>
     <use xlink:href="#MalgunGothic-2e" transform="translate(55.078125 0)"/>
     <use xlink:href="#MalgunGothic-36" transform="translate(76.953125 0)"/>
     <use xlink:href="#MalgunGothic-33" transform="translate(132.03125 0)"/>
     <use xlink:href="#MalgunGothic-34" transform="translate(187.109375 0)"/>
    </g>
   </g>
   <g id="text_13">
    <!-- 0.611 -->
    <g style="fill: #262626" transform="translate(194.946031 234.666225) scale(0.08 -0.08)">
     <use xlink:href="#MalgunGothic-30"/>
     <use xlink:href="#MalgunGothic-2e" transform="translate(55.078125 0)"/>
     <use xlink:href="#MalgunGothic-36" transform="translate(76.953125 0)"/>
     <use xlink:href="#MalgunGothic-31" transform="translate(132.03125 0)"/>
     <use xlink:href="#MalgunGothic-31" transform="translate(187.109375 0)"/>
    </g>
   </g>
   <g id="text_14">
    <!-- 0.603 -->
    <g style="fill: #262626" transform="translate(317.706031 245.965967) scale(0.08 -0.08)">
     <use xlink:href="#MalgunGothic-30"/>
     <use xlink:href="#MalgunGothic-2e" transform="translate(55.078125 0)"/>
     <use xlink:href="#MalgunGothic-36" transform="translate(76.953125 0)"/>
     <use xlink:href="#MalgunGothic-30" transform="translate(132.03125 0)"/>
     <use xlink:href="#MalgunGothic-33" transform="translate(187.109375 0)"/>
    </g>
   </g>
   <g id="text_15">
    <!-- 0.592 -->
    <g style="fill: #262626" transform="translate(440.466031 260.021745) scale(0.08 -0.08)">
     <defs>
      <path id="MalgunGothic-39" d="M 556 563 
Q 941 344 1366 344 
Q 1994 344 2347 855 
Q 2700 1366 2700 2313 
Q 2694 2306 2688 2313 
Q 2388 1713 1653 1713 
Q 1059 1713 682 2120 
Q 306 2528 306 3144 
Q 306 3806 711 4240 
Q 1116 4675 1772 4675 
Q 2466 4675 2833 4131 
Q 3200 3588 3200 2578 
Q 3200 1319 2717 620 
Q 2234 -78 1344 -78 
Q 881 -78 556 78 
L 556 563 
z
M 813 3219 
Q 813 2741 1063 2450 
Q 1313 2159 1759 2159 
Q 2147 2159 2406 2417 
Q 2666 2675 2666 3047 
Q 2666 3556 2411 3903 
Q 2156 4250 1725 4250 
Q 1322 4250 1067 3948 
Q 813 3647 813 3219 
z
" transform="scale(0.015625)"/>
     </defs>
     <use xlink:href="#MalgunGothic-30"/>
     <use xlink:href="#MalgunGothic-2e" transform="translate(55.078125 0)"/>
     <use xlink:href="#MalgunGothic-35" transform="translate(76.953125 0)"/>
     <use xlink:href="#MalgunGothic-39" transform="translate(132.03125 0)"/>
     <use xlink:href="#MalgunGothic-32" transform="translate(187.109375 0)"/>
    </g>
   </g>
   <g id="text_16">
    <!-- 0.659 -->
    <g style="fill: #262626" transform="translate(563.226031 168.659192) scale(0.08 -0.08)">
     <use xlink:href="#MalgunGothic-30"/>
     <use xlink:href="#MalgunGothic-2e" transform="translate(55.078125 0)"/>
     <use xlink:href="#MalgunGothic-36" transform="translate(76.953125 0)"/>
     <use xlink:href="#MalgunGothic-35" transform="translate(132.03125 0)"/>
     <use xlink:href="#MalgunGothic-39" transform="translate(187.109375 0)"/>
    </g>
   </g>
   <g id="text_17">
    <!-- 0.688 -->
    <g style="fill: #262626" transform="translate(104.922031 128.834489) scale(0.08 -0.08)">
     <defs>
      <path id="MalgunGothic-38" d="M 303 1281 
Q 303 1669 539 2011 
Q 775 2353 1153 2494 
Q 856 2647 675 2915 
Q 494 3184 494 3500 
Q 494 3828 659 4098 
Q 825 4369 1122 4522 
Q 1419 4675 1778 4675 
Q 2334 4675 2700 4342 
Q 3066 4009 3066 3500 
Q 3066 3181 2881 2914 
Q 2697 2647 2413 2494 
Q 2788 2350 3022 2009 
Q 3256 1669 3256 1281 
Q 3256 672 2843 297 
Q 2431 -78 1778 -78 
Q 1131 -78 717 301 
Q 303 681 303 1281 
z
M 809 1328 
Q 809 878 1081 611 
Q 1353 344 1781 344 
Q 2206 344 2482 619 
Q 2759 894 2759 1328 
Q 2759 1731 2482 2011 
Q 2206 2291 1781 2291 
Q 1372 2291 1090 2020 
Q 809 1750 809 1328 
z
M 1003 3459 
Q 1003 3125 1234 2900 
Q 1466 2675 1781 2675 
Q 2097 2675 2330 2900 
Q 2563 3125 2563 3459 
Q 2563 3803 2341 4026 
Q 2119 4250 1781 4250 
Q 1450 4250 1226 4029 
Q 1003 3809 1003 3459 
z
" transform="scale(0.015625)"/>
     </defs>
     <use xlink:href="#MalgunGothic-30"/>
     <use xlink:href="#MalgunGothic-2e" transform="translate(55.078125 0)"/>
     <use xlink:href="#MalgunGothic-36" transform="translate(76.953125 0)"/>
     <use xlink:href="#MalgunGothic-38" transform="translate(132.03125 0)"/>
     <use xlink:href="#MalgunGothic-38" transform="translate(187.109375 0)"/>
    </g>
   </g>
   <g id="text_18">
    <!-- 0.668 -->
    <g style="fill: #262626" transform="translate(227.682031 155.568027) scale(0.08 -0.08)">
     <use xlink:href="#MalgunGothic-30"/>
     <use xlink:href="#MalgunGothic-2e" transform="translate(55.078125 0)"/>
     <use xlink:href="#MalgunGothic-36" transform="translate(76.953125 0)"/>
     <use xlink:href="#MalgunGothic-36" transform="translate(132.03125 0)"/>
     <use xlink:href="#MalgunGothic-38" transform="translate(187.109375 0)"/>
    </g>
   </g>
   <g id="text_19">
    <!-- 0.663 -->
    <g style="fill: #262626" transform="translate(350.442031 162.871519) scale(0.08 -0.08)">
     <use xlink:href="#MalgunGothic-30"/>
     <use xlink:href="#MalgunGothic-2e" transform="translate(55.078125 0)"/>
     <use xlink:href="#MalgunGothic-36" transform="translate(76.953125 0)"/>
     <use xlink:href="#MalgunGothic-36" transform="translate(132.03125 0)"/>
     <use xlink:href="#MalgunGothic-33" transform="translate(187.109375 0)"/>
    </g>
   </g>
   <g id="text_20">
    <!-- 0.685 -->
    <g style="fill: #262626" transform="translate(473.202031 132.003929) scale(0.08 -0.08)">
     <use xlink:href="#MalgunGothic-30"/>
     <use xlink:href="#MalgunGothic-2e" transform="translate(55.078125 0)"/>
     <use xlink:href="#MalgunGothic-36" transform="translate(76.953125 0)"/>
     <use xlink:href="#MalgunGothic-38" transform="translate(132.03125 0)"/>
     <use xlink:href="#MalgunGothic-35" transform="translate(187.109375 0)"/>
    </g>
   </g>
   <g id="text_21">
    <!-- 0.694 -->
    <g style="fill: #262626" transform="translate(595.962031 119.601773) scale(0.08 -0.08)">
     <use xlink:href="#MalgunGothic-30"/>
     <use xlink:href="#MalgunGothic-2e" transform="translate(55.078125 0)"/>
     <use xlink:href="#MalgunGothic-36" transform="translate(76.953125 0)"/>
     <use xlink:href="#MalgunGothic-39" transform="translate(132.03125 0)"/>
     <use xlink:href="#MalgunGothic-34" transform="translate(187.109375 0)"/>
    </g>
   </g>
   <g id="text_22">
    <!-- 0.601 -->
    <g style="fill: #262626" transform="translate(137.658031 248.170795) scale(0.08 -0.08)">
     <use xlink:href="#MalgunGothic-30"/>
     <use xlink:href="#MalgunGothic-2e" transform="translate(55.078125 0)"/>
     <use xlink:href="#MalgunGothic-36" transform="translate(76.953125 0)"/>
     <use xlink:href="#MalgunGothic-30" transform="translate(132.03125 0)"/>
     <use xlink:href="#MalgunGothic-31" transform="translate(187.109375 0)"/>
    </g>
   </g>
   <g id="text_23">
    <!-- 0.602 -->
    <g style="fill: #262626" transform="translate(260.418031 247.206183) scale(0.08 -0.08)">
     <use xlink:href="#MalgunGothic-30"/>
     <use xlink:href="#MalgunGothic-2e" transform="translate(55.078125 0)"/>
     <use xlink:href="#MalgunGothic-36" transform="translate(76.953125 0)"/>
     <use xlink:href="#MalgunGothic-30" transform="translate(132.03125 0)"/>
     <use xlink:href="#MalgunGothic-32" transform="translate(187.109375 0)"/>
    </g>
   </g>
   <g id="text_24">
    <!-- 0.586 -->
    <g style="fill: #262626" transform="translate(383.178031 269.392263) scale(0.08 -0.08)">
     <use xlink:href="#MalgunGothic-30"/>
     <use xlink:href="#MalgunGothic-2e" transform="translate(55.078125 0)"/>
     <use xlink:href="#MalgunGothic-35" transform="translate(76.953125 0)"/>
     <use xlink:href="#MalgunGothic-38" transform="translate(132.03125 0)"/>
     <use xlink:href="#MalgunGothic-36" transform="translate(187.109375 0)"/>
    </g>
   </g>
   <g id="text_25">
    <!-- 0.579 -->
    <g style="fill: #262626" transform="translate(505.938031 278.62498) scale(0.08 -0.08)">
     <use xlink:href="#MalgunGothic-30"/>
     <use xlink:href="#MalgunGothic-2e" transform="translate(55.078125 0)"/>
     <use xlink:href="#MalgunGothic-35" transform="translate(76.953125 0)"/>
     <use xlink:href="#MalgunGothic-37" transform="translate(132.03125 0)"/>
     <use xlink:href="#MalgunGothic-39" transform="translate(187.109375 0)"/>
    </g>
   </g>
   <g id="text_26">
    <!-- 0.619 -->
    <g style="fill: #262626" transform="translate(628.698031 223.917689) scale(0.08 -0.08)">
     <use xlink:href="#MalgunGothic-30"/>
     <use xlink:href="#MalgunGothic-2e" transform="translate(55.078125 0)"/>
     <use xlink:href="#MalgunGothic-36" transform="translate(76.953125 0)"/>
     <use xlink:href="#MalgunGothic-31" transform="translate(132.03125 0)"/>
     <use xlink:href="#MalgunGothic-39" transform="translate(187.109375 0)"/>
    </g>
   </g>
   <g id="legend_1">
    <g id="patch_23">
     <path d="M 57.629531 60.762214 
L 79.629531 60.762214 
L 79.629531 53.062214 
L 57.629531 53.062214 
z
" style="fill: #aec2ef; stroke: #1f2430; stroke-width: 0.8; stroke-linejoin: miter"/>
    </g>
    <g id="text_27">
     <!-- Balanced Accuracy -->
     <g style="fill: #262626" transform="translate(88.429531 60.762214) scale(0.11 -0.11)">
      <defs>
       <path id="MalgunGothic-41" d="M 4134 0 
L 3575 0 
L 3075 1306 
L 1103 1306 
L 638 0 
L 75 0 
L 1844 4600 
L 2356 4600 
L 4134 0 
z
M 2903 1769 
L 2169 3756 
Q 2128 3866 2100 4059 
L 2084 4059 
Q 2050 3844 2009 3756 
L 1281 1769 
L 2903 1769 
z
" transform="scale(0.015625)"/>
       <path id="MalgunGothic-79" d="M 3119 3284 
L 1597 -544 
Q 1197 -1547 481 -1547 
Q 313 -1547 156 -1509 
L 156 -1056 
Q 316 -1109 459 -1109 
Q 859 -1109 1059 -628 
L 1328 6 
L 47 3284 
L 597 3284 
L 1503 722 
Q 1513 697 1572 488 
L 1588 488 
L 1650 716 
L 2603 3284 
L 3119 3284 
z
" transform="scale(0.015625)"/>
      </defs>
      <use xlink:href="#MalgunGothic-42"/>
      <use xlink:href="#MalgunGothic-61" transform="translate(58.349609 0)"/>
      <use xlink:href="#MalgunGothic-6c" transform="translate(110.351562 0)"/>
      <use xlink:href="#MalgunGothic-61" transform="translate(134.960938 0)"/>
      <use xlink:href="#MalgunGothic-6e" transform="translate(186.962891 0)"/>
      <use xlink:href="#MalgunGothic-63" transform="translate(244.775391 0)"/>
      <use xlink:href="#MalgunGothic-65" transform="translate(292.041016 0)"/>
      <use xlink:href="#MalgunGothic-64" transform="translate(345.556641 0)"/>
      <use xlink:href="#MalgunGothic-20" transform="translate(405.761719 0)"/>
      <use xlink:href="#MalgunGothic-41" transform="translate(440.917969 0)"/>
      <use xlink:href="#MalgunGothic-63" transform="translate(506.738281 0)"/>
      <use xlink:href="#MalgunGothic-63" transform="translate(554.003906 0)"/>
      <use xlink:href="#MalgunGothic-75" transform="translate(601.269531 0)"/>
      <use xlink:href="#MalgunGothic-72" transform="translate(659.082031 0)"/>
      <use xlink:href="#MalgunGothic-61" transform="translate(694.433594 0)"/>
      <use xlink:href="#MalgunGothic-63" transform="translate(746.435547 0)"/>
      <use xlink:href="#MalgunGothic-79" transform="translate(793.701172 0)"/>
     </g>
    </g>
    <g id="patch_24">
     <path d="M 203.156094 60.762214 
L 225.156094 60.762214 
L 225.156094 53.062214 
L 203.156094 53.062214 
z
" style="fill: #ebd470; stroke: #1f2430; stroke-width: 0.8; stroke-linejoin: miter"/>
    </g>
    <g id="text_28">
     <!-- ROC AUC -->
     <g style="fill: #262626" transform="translate(233.956094 60.762214) scale(0.11 -0.11)">
      <defs>
       <path id="MalgunGothic-52" d="M 3866 0 
L 3259 0 
L 2488 1294 
Q 2241 1706 2044 1837 
Q 1847 1969 1569 1969 
L 1113 1969 
L 1113 0 
L 609 0 
L 609 4600 
L 1963 4600 
Q 2597 4600 2970 4272 
Q 3344 3944 3344 3375 
Q 3344 2422 2325 2138 
L 2325 2125 
Q 2519 2041 2645 1902 
Q 2772 1763 3006 1381 
L 3866 0 
z
M 1113 4128 
L 1113 2438 
L 1866 2438 
Q 2291 2438 2552 2686 
Q 2813 2934 2813 3334 
Q 2813 3709 2570 3918 
Q 2328 4128 1872 4128 
L 1113 4128 
z
" transform="scale(0.015625)"/>
       <path id="MalgunGothic-4f" d="M 306 2244 
Q 306 3350 903 4012 
Q 1500 4675 2531 4675 
Q 3481 4675 4062 4029 
Q 4644 3384 4644 2359 
Q 4644 1256 4056 589 
Q 3469 -78 2456 -78 
Q 1488 -78 897 570 
Q 306 1219 306 2244 
z
M 838 2291 
Q 838 1456 1278 918 
Q 1719 381 2453 381 
Q 3238 381 3677 889 
Q 4116 1397 4116 2284 
Q 4116 3188 3692 3700 
Q 3269 4213 2494 4213 
Q 1741 4213 1289 3670 
Q 838 3128 838 2291 
z
" transform="scale(0.015625)"/>
       <path id="MalgunGothic-43" d="M 3725 197 
Q 3216 -78 2459 -78 
Q 1488 -78 897 561 
Q 306 1200 306 2213 
Q 306 3281 959 3978 
Q 1613 4675 2644 4675 
Q 3297 4675 3725 4484 
L 3725 3941 
Q 3234 4213 2634 4213 
Q 1813 4213 1325 3659 
Q 838 3106 838 2241 
Q 838 1413 1297 897 
Q 1756 381 2522 381 
Q 3216 381 3725 688 
L 3725 197 
z
" transform="scale(0.015625)"/>
       <path id="MalgunGothic-55" d="M 3947 1850 
Q 3947 -78 2209 -78 
Q 553 -78 553 1778 
L 553 4600 
L 1056 4600 
L 1056 1813 
Q 1056 381 2272 381 
Q 3441 381 3441 1763 
L 3441 4600 
L 3947 4600 
L 3947 1850 
z
" transform="scale(0.015625)"/>
      </defs>
      <use xlink:href="#MalgunGothic-52"/>
      <use xlink:href="#MalgunGothic-4f" transform="translate(59.861328 0)"/>
      <use xlink:href="#MalgunGothic-43" transform="translate(137.205078 0)"/>
      <use xlink:href="#MalgunGothic-20" transform="translate(200.681641 0)"/>
      <use xlink:href="#MalgunGothic-41" transform="translate(235.837891 0)"/>
      <use xlink:href="#MalgunGothic-55" transform="translate(300.283203 0)"/>
      <use xlink:href="#MalgunGothic-43" transform="translate(370.546875 0)"/>
     </g>
    </g>
    <g id="patch_25">
     <path d="M 303.70125 60.762214 
L 325.70125 60.762214 
L 325.70125 53.062214 
L 303.70125 53.062214 
z
" style="fill: #a4c982; stroke: #1f2430; stroke-width: 0.8; stroke-linejoin: miter"/>
    </g>
    <g id="text_29">
     <!-- Average Precision -->
     <g style="fill: #262626" transform="translate(334.50125 60.762214) scale(0.11 -0.11)">
      <defs>
       <path id="MalgunGothic-76" d="M 3084 3284 
L 1769 0 
L 1294 0 
L 47 3284 
L 594 3284 
L 1441 872 
Q 1531 609 1556 425 
L 1572 425 
Q 1603 669 1672 863 
L 2563 3284 
L 3084 3284 
z
" transform="scale(0.015625)"/>
      </defs>
      <use xlink:href="#MalgunGothic-41"/>
      <use xlink:href="#MalgunGothic-76" transform="translate(63.570312 0)"/>
      <use xlink:href="#MalgunGothic-65" transform="translate(111.675781 0)"/>
      <use xlink:href="#MalgunGothic-72" transform="translate(165.191406 0)"/>
      <use xlink:href="#MalgunGothic-61" transform="translate(200.542969 0)"/>
      <use xlink:href="#MalgunGothic-67" transform="translate(252.544922 0)"/>
      <use xlink:href="#MalgunGothic-65" transform="translate(312.75 0)"/>
      <use xlink:href="#MalgunGothic-20" transform="translate(366.265625 0)"/>
      <use xlink:href="#MalgunGothic-50" transform="translate(401.421875 0)"/>
      <use xlink:href="#MalgunGothic-72" transform="translate(458.501953 0)"/>
      <use xlink:href="#MalgunGothic-65" transform="translate(492.478516 0)"/>
      <use xlink:href="#MalgunGothic-63" transform="translate(545.994141 0)"/>
      <use xlink:href="#MalgunGothic-69" transform="translate(593.259766 0)"/>
      <use xlink:href="#MalgunGothic-73" transform="translate(617.869141 0)"/>
      <use xlink:href="#MalgunGothic-69" transform="translate(661.179688 0)"/>
      <use xlink:href="#MalgunGothic-6f" transform="translate(685.789062 0)"/>
      <use xlink:href="#MalgunGothic-6e" transform="translate(745.701172 0)"/>
     </g>
    </g>
   </g>
  </g>
  <g id="text_30">
   <!-- Stage 1 HP MLP가 가장 안정적인 최종 후보였다 -->
   <g style="fill: #1f2430" transform="translate(53.229531 20.142187) scale(0.15 -0.15)">
    <defs>
     <path id="MalgunGothicBold-53" d="M 334 1091 
Q 881 638 1588 638 
Q 2013 638 2222 786 
Q 2431 934 2431 1175 
Q 2431 1384 2256 1559 
Q 2081 1734 1409 2022 
Q 838 2278 580 2598 
Q 322 2919 322 3350 
Q 322 3972 803 4323 
Q 1284 4675 2066 4675 
Q 2766 4675 3169 4500 
L 3169 3647 
Q 2722 3953 2091 3953 
Q 1719 3953 1489 3812 
Q 1259 3672 1259 3425 
Q 1259 3228 1418 3065 
Q 1578 2903 2166 2644 
Q 2841 2350 3103 2026 
Q 3366 1703 3366 1253 
Q 3366 603 2902 261 
Q 2438 -81 1600 -81 
Q 822 -81 334 178 
L 334 1091 
z
" transform="scale(0.015625)"/>
     <path id="MalgunGothicBold-74" d="M 2303 34 
Q 2081 -78 1684 -78 
Q 675 -78 675 991 
L 675 2622 
L 131 2622 
L 131 3284 
L 675 3284 
L 675 4019 
L 1544 4272 
L 1544 3284 
L 2303 3284 
L 2303 2622 
L 1544 2622 
L 1544 1144 
Q 1544 600 1972 600 
Q 2150 600 2303 700 
L 2303 34 
z
" transform="scale(0.015625)"/>
     <path id="MalgunGothicBold-61" d="M 534 3075 
Q 756 3203 1109 3283 
Q 1463 3363 1744 3363 
Q 3075 3363 3075 2013 
L 3075 0 
L 2244 0 
L 2244 484 
L 2228 484 
Q 1897 -81 1244 -81 
Q 769 -81 491 186 
Q 213 453 213 903 
Q 213 1844 1331 1994 
L 2247 2119 
Q 2247 2747 1634 2747 
Q 1050 2747 534 2381 
L 534 3075 
z
M 1594 1500 
Q 1031 1428 1031 997 
Q 1031 803 1165 681 
Q 1300 559 1528 559 
Q 1841 559 2044 779 
Q 2247 1000 2247 1334 
L 2247 1584 
L 1594 1500 
z
" transform="scale(0.015625)"/>
     <path id="MalgunGothicBold-67" d="M 3553 341 
Q 3553 -572 3050 -1058 
Q 2547 -1544 1591 -1544 
Q 941 -1544 534 -1341 
L 534 -584 
Q 1050 -881 1569 -881 
Q 2100 -881 2392 -598 
Q 2684 -316 2684 206 
L 2684 497 
L 2672 497 
Q 2316 -81 1619 -81 
Q 1006 -81 631 359 
Q 256 800 256 1547 
Q 256 2375 667 2869 
Q 1078 3363 1750 3363 
Q 2359 3363 2672 2881 
L 2684 2881 
L 2684 3284 
L 3553 3284 
L 3553 341 
z
M 2694 1875 
Q 2694 2209 2484 2446 
Q 2275 2684 1953 2684 
Q 1578 2684 1358 2393 
Q 1138 2103 1138 1581 
Q 1138 1131 1347 865 
Q 1556 600 1903 600 
Q 2256 600 2475 865 
Q 2694 1131 2694 1550 
L 2694 1875 
z
" transform="scale(0.015625)"/>
     <path id="MalgunGothicBold-65" d="M 3316 1397 
L 1122 1397 
Q 1175 559 2072 559 
Q 2619 559 3047 847 
L 3047 184 
Q 2591 -81 1875 -81 
Q 1109 -81 682 362 
Q 256 806 256 1603 
Q 256 2384 714 2873 
Q 1172 3363 1859 3363 
Q 2547 3363 2931 2941 
Q 3316 2519 3316 1781 
L 3316 1397 
z
M 2494 1969 
Q 2494 2750 1850 2750 
Q 1581 2750 1376 2537 
Q 1172 2325 1122 1969 
L 2494 1969 
z
" transform="scale(0.015625)"/>
     <path id="MalgunGothicBold-20" transform="scale(0.015625)"/>
     <path id="MalgunGothicBold-31" d="M 2534 4675 
L 2534 0 
L 1663 0 
L 1663 3616 
Q 1516 3481 1247 3365 
Q 978 3250 688 3216 
L 688 3988 
Q 1375 4194 1984 4675 
L 2534 4675 
z
" transform="scale(0.015625)"/>
     <path id="MalgunGothicBold-48" d="M 4372 0 
L 3481 0 
L 3481 1938 
L 1438 1938 
L 1438 0 
L 547 0 
L 547 4600 
L 1438 4600 
L 1438 2709 
L 3481 2709 
L 3481 4600 
L 4372 4600 
L 4372 0 
z
" transform="scale(0.015625)"/>
     <path id="MalgunGothicBold-50" d="M 1438 1631 
L 1438 0 
L 547 0 
L 547 4600 
L 2066 4600 
Q 3747 4600 3747 3159 
Q 3747 2463 3239 2038 
Q 2731 1613 1963 1631 
L 1438 1631 
z
M 1438 3891 
L 1438 2328 
L 1891 2328 
Q 2813 2328 2813 3125 
Q 2813 3891 1909 3891 
L 1438 3891 
z
" transform="scale(0.015625)"/>
     <path id="MalgunGothicBold-4d" d="M 4744 0 
L 4744 2850 
Q 4744 3163 4781 3806 
L 4763 3806 
Q 4684 3413 4619 3244 
L 3400 0 
L 2722 0 
L 1488 3216 
Q 1441 3341 1344 3806 
L 1322 3806 
Q 1356 3297 1356 2700 
L 1356 0 
L 547 0 
L 547 4600 
L 1828 4600 
L 2903 1734 
Q 3038 1378 3081 1103 
L 3103 1103 
Q 3172 1375 3297 1741 
L 4381 4600 
L 5625 4600 
L 5625 0 
L 4744 0 
z
" transform="scale(0.015625)"/>
     <path id="MalgunGothicBold-4c" d="M 3178 0 
L 547 0 
L 547 4600 
L 1438 4600 
L 1438 738 
L 3178 738 
L 3178 0 
z
" transform="scale(0.015625)"/>
     <path id="MalgunGothicBold-ac00" d="M 5269 2431 
L 5269 -563 
L 4481 -563 
L 4481 5466 
L 5269 5466 
L 5269 3091 
L 6203 3091 
L 6203 2431 
L 5269 2431 
z
M 978 756 
L 391 1306 
Q 2413 2416 2834 4288 
L 738 4288 
L 738 4947 
L 3725 4947 
Q 3478 2297 978 756 
z
" transform="scale(0.015625)"/>
     <path id="MalgunGothicBold-c7a5" d="M 5259 3328 
L 5259 1947 
L 4475 1947 
L 4475 5466 
L 5259 5466 
L 5259 3988 
L 6175 3988 
L 6175 3328 
L 5259 3328 
z
M 3566 2113 
Q 2672 2556 2222 3213 
Q 2056 2869 1640 2476 
Q 1225 2084 856 1906 
L 300 2456 
Q 928 2694 1367 3217 
Q 1806 3741 1806 4300 
L 1806 4544 
L 563 4544 
L 563 5197 
L 3803 5197 
L 3803 4544 
L 2591 4544 
L 2591 4325 
Q 2591 3788 3002 3353 
Q 3413 2919 4063 2706 
L 3566 2113 
z
M 3347 -538 
Q 2388 -538 1863 -208 
Q 1338 122 1338 666 
Q 1338 1206 1869 1531 
Q 2400 1856 3347 1856 
Q 4297 1856 4826 1532 
Q 5356 1209 5356 666 
Q 5356 119 4829 -209 
Q 4303 -538 3347 -538 
z
M 3347 1203 
Q 2150 1203 2150 666 
Q 2150 116 3347 116 
Q 4550 116 4550 666 
Q 4550 1203 3347 1203 
z
" transform="scale(0.015625)"/>
     <path id="MalgunGothicBold-c548" d="M 5253 3016 
L 5253 1125 
L 4475 1125 
L 4475 5466 
L 5253 5466 
L 5253 3675 
L 6175 3675 
L 6175 3016 
L 5253 3016 
z
M 2131 2081 
Q 1434 2081 964 2522 
Q 494 2963 494 3653 
Q 494 4353 962 4790 
Q 1431 5228 2131 5228 
Q 2831 5228 3300 4793 
Q 3769 4359 3769 3653 
Q 3769 2956 3298 2518 
Q 2828 2081 2131 2081 
z
M 2131 4588 
Q 1741 4588 1505 4338 
Q 1269 4088 1269 3653 
Q 1269 3222 1505 2970 
Q 1741 2719 2131 2719 
Q 2525 2719 2764 2972 
Q 3003 3225 3003 3653 
Q 3003 4081 2767 4334 
Q 2531 4588 2131 4588 
z
M 1484 -353 
L 1484 1703 
L 2272 1703 
L 2272 306 
L 5422 306 
L 5422 -353 
L 1484 -353 
z
" transform="scale(0.015625)"/>
     <path id="MalgunGothicBold-c815" d="M 4788 2016 
L 4788 3475 
L 3653 3475 
L 3653 4103 
L 4788 4103 
L 4788 5466 
L 5556 5466 
L 5556 2016 
L 4788 2016 
z
M 3566 2113 
Q 2672 2556 2222 3213 
Q 2056 2869 1640 2476 
Q 1225 2084 856 1906 
L 300 2456 
Q 928 2694 1367 3217 
Q 1806 3741 1806 4300 
L 1806 4544 
L 563 4544 
L 563 5197 
L 3803 5197 
L 3803 4544 
L 2591 4544 
L 2591 4325 
Q 2591 3788 3002 3353 
Q 3413 2919 4063 2706 
L 3566 2113 
z
M 3659 -538 
Q 2725 -538 2201 -189 
Q 1678 159 1678 716 
Q 1678 1269 2203 1620 
Q 2728 1972 3659 1972 
Q 4594 1972 5122 1619 
Q 5650 1266 5650 716 
Q 5650 159 5123 -189 
Q 4597 -538 3659 -538 
z
M 3659 1325 
Q 3063 1325 2767 1156 
Q 2472 988 2472 716 
Q 2472 444 2770 276 
Q 3069 109 3659 109 
Q 4253 109 4554 275 
Q 4856 441 4856 716 
Q 4856 984 4557 1154 
Q 4259 1325 3659 1325 
z
" transform="scale(0.015625)"/>
     <path id="MalgunGothicBold-c801" d="M 4794 1966 
L 4794 3438 
L 3641 3438 
L 3641 4072 
L 4794 4072 
L 4794 5466 
L 5563 5466 
L 5563 1966 
L 4794 1966 
z
M 3603 2059 
Q 2719 2500 2259 3163 
Q 2100 2834 1695 2440 
Q 1291 2047 897 1856 
L 341 2406 
Q 972 2647 1408 3172 
Q 1844 3697 1844 4250 
L 1844 4556 
L 603 4556 
L 603 5209 
L 3841 5209 
L 3841 4556 
L 2631 4556 
L 2631 4275 
Q 2631 3741 3039 3303 
Q 3447 2866 4103 2656 
L 3603 2059 
z
M 4781 -563 
L 4781 1050 
L 1544 1050 
L 1544 1709 
L 5563 1709 
L 5563 -563 
L 4781 -563 
z
" transform="scale(0.015625)"/>
     <path id="MalgunGothicBold-c778" d="M 4697 1172 
L 4697 5466 
L 5466 5466 
L 5466 1172 
L 4697 1172 
z
M 2222 2034 
Q 1522 2034 1062 2482 
Q 603 2931 603 3628 
Q 603 4331 1062 4779 
Q 1522 5228 2222 5228 
Q 2922 5228 3381 4781 
Q 3841 4334 3841 3628 
Q 3841 2928 3381 2481 
Q 2922 2034 2222 2034 
z
M 2222 4569 
Q 1847 4569 1608 4309 
Q 1369 4050 1369 3628 
Q 1369 3209 1608 2951 
Q 1847 2694 2222 2694 
Q 2603 2694 2837 2951 
Q 3072 3209 3072 3628 
Q 3072 4041 2834 4305 
Q 2597 4569 2222 4569 
z
M 1575 -353 
L 1575 1638 
L 2363 1638 
L 2363 306 
L 5581 306 
L 5581 -353 
L 1575 -353 
z
" transform="scale(0.015625)"/>
     <path id="MalgunGothicBold-cd5c" d="M 4794 -563 
L 4794 5466 
L 5581 5466 
L 5581 -563 
L 4794 -563 
z
M 3963 2144 
Q 2959 2456 2394 3156 
Q 1822 2375 813 1991 
L 306 2541 
Q 981 2725 1454 3145 
Q 1928 3566 1984 4013 
L 609 4013 
L 609 4659 
L 1991 4659 
L 1991 5331 
L 2778 5331 
L 2778 4659 
L 4103 4659 
L 4103 4013 
L 2778 4013 
Q 2834 3578 3311 3193 
Q 3788 2809 4434 2713 
L 3963 2144 
z
M 4603 488 
Q 4125 453 2636 418 
Q 1147 384 319 384 
L 231 1044 
Q 1219 1044 2034 1063 
L 2034 2284 
L 2822 2284 
L 2822 1075 
Q 3834 1088 4563 1134 
L 4603 488 
z
" transform="scale(0.015625)"/>
     <path id="MalgunGothicBold-c885" d="M 5381 3163 
Q 3928 3403 3200 4134 
Q 2931 3825 2300 3542 
Q 1669 3259 1050 3169 
L 609 3750 
Q 1359 3800 1953 4064 
Q 2547 4328 2725 4666 
L 1044 4666 
L 1044 5325 
L 5356 5325 
L 5356 4666 
L 3681 4666 
Q 3881 4325 4479 4051 
Q 5078 3778 5759 3750 
L 5381 3163 
z
M 403 2088 
L 403 2747 
L 2803 2747 
L 2803 3450 
L 3591 3450 
L 3591 2747 
L 5997 2747 
L 5997 2088 
L 403 2088 
z
M 3200 -563 
Q 2213 -563 1683 -258 
Q 1153 47 1153 603 
Q 1153 1150 1684 1454 
Q 2216 1759 3200 1759 
Q 4194 1759 4720 1451 
Q 5247 1144 5247 603 
Q 5247 47 4717 -258 
Q 4188 -563 3200 -563 
z
M 3200 1113 
Q 1953 1113 1953 603 
Q 1953 363 2268 220 
Q 2584 78 3200 78 
Q 3816 78 4131 220 
Q 4447 363 4447 603 
Q 4447 1113 3200 1113 
z
" transform="scale(0.015625)"/>
     <path id="MalgunGothicBold-d6c4" d="M 897 4288 
L 897 4928 
L 2803 4928 
L 2803 5522 
L 3591 5522 
L 3591 4928 
L 5503 4928 
L 5503 4288 
L 897 4288 
z
M 3200 1991 
Q 2256 1991 1745 2272 
Q 1234 2553 1234 3041 
Q 1234 3534 1750 3815 
Q 2266 4097 3200 4097 
Q 4131 4097 4645 3815 
Q 5159 3534 5159 3041 
Q 5159 2550 4648 2270 
Q 4138 1991 3200 1991 
z
M 3194 3481 
Q 2613 3481 2323 3353 
Q 2034 3225 2034 3041 
Q 2034 2863 2320 2734 
Q 2606 2606 3194 2606 
Q 3778 2606 4065 2731 
Q 4353 2856 4353 3041 
Q 4353 3228 4061 3354 
Q 3769 3481 3194 3481 
z
M 3591 1050 
L 3591 -563 
L 2803 -563 
L 2803 1050 
L 403 1050 
L 403 1709 
L 5997 1709 
L 5997 1050 
L 3591 1050 
z
" transform="scale(0.015625)"/>
     <path id="MalgunGothicBold-bcf4" d="M 403 269 
L 403 922 
L 2803 922 
L 2803 2016 
L 1247 2016 
L 1247 5013 
L 2034 5013 
L 2034 4103 
L 4366 4103 
L 4366 5013 
L 5147 5013 
L 5147 2016 
L 3591 2016 
L 3591 922 
L 5997 922 
L 5997 269 
L 403 269 
z
M 4366 3444 
L 2034 3444 
L 2034 2669 
L 4366 2669 
L 4366 3444 
z
" transform="scale(0.015625)"/>
     <path id="MalgunGothicBold-c600" d="M 3541 2822 
Q 3056 2150 2188 2150 
Q 1488 2150 1025 2592 
Q 563 3034 563 3731 
Q 563 4422 1028 4873 
Q 1494 5325 2188 5325 
Q 3050 5325 3541 4659 
L 4781 4659 
L 4781 5466 
L 5556 5466 
L 5556 2003 
L 4781 2003 
L 4781 2822 
L 3541 2822 
z
M 2188 4672 
Q 1819 4672 1581 4408 
Q 1344 4144 1344 3738 
Q 1344 3344 1581 3073 
Q 1819 2803 2188 2803 
Q 2550 2803 2795 3073 
Q 3041 3344 3041 3738 
Q 3041 4150 2797 4411 
Q 2553 4672 2188 4672 
z
M 3794 3444 
L 4781 3444 
L 4781 4031 
L 3794 4031 
Q 3822 3903 3822 3731 
Q 3822 3566 3794 3444 
z
M 5478 -531 
Q 4831 -197 4434 378 
Q 4325 159 4001 -136 
Q 3678 -431 3391 -588 
L 2822 -63 
Q 4044 494 4044 1556 
L 4044 1875 
L 4819 1875 
L 4819 1556 
Q 4819 1050 5148 634 
Q 5478 219 6047 19 
L 5478 -531 
z
M 2719 50 
Q 2456 225 2259 506 
Q 2134 259 1809 -69 
Q 1484 -397 1184 -556 
L 622 -63 
Q 1191 194 1511 622 
Q 1831 1050 1831 1556 
L 1831 1869 
L 2597 1869 
L 2597 1556 
Q 2597 1263 2822 963 
Q 3047 663 3366 538 
L 2719 50 
z
" transform="scale(0.015625)"/>
     <path id="MalgunGothicBold-b2e4" d="M 5197 2522 
L 5197 -563 
L 4416 -563 
L 4416 5466 
L 5197 5466 
L 5197 3181 
L 6203 3181 
L 6203 2522 
L 5197 2522 
z
M 3969 1197 
Q 3269 1100 1619 1100 
L 709 1100 
L 709 4953 
L 3584 4953 
L 3584 4294 
L 1491 4294 
L 1491 1753 
L 1794 1753 
Q 3253 1753 3897 1844 
L 3969 1197 
z
" transform="scale(0.015625)"/>
    </defs>
    <use xlink:href="#MalgunGothicBold-53"/>
    <use xlink:href="#MalgunGothicBold-74" transform="translate(53.841797 0)"/>
    <use xlink:href="#MalgunGothicBold-61" transform="translate(92.269531 0)"/>
    <use xlink:href="#MalgunGothicBold-67" transform="translate(146.566406 0)"/>
    <use xlink:href="#MalgunGothicBold-65" transform="translate(209.164062 0)"/>
    <use xlink:href="#MalgunGothicBold-20" transform="translate(264.144531 0)"/>
    <use xlink:href="#MalgunGothicBold-31" transform="translate(299.300781 0)"/>
    <use xlink:href="#MalgunGothicBold-20" transform="translate(357.259766 0)"/>
    <use xlink:href="#MalgunGothicBold-48" transform="translate(392.416016 0)"/>
    <use xlink:href="#MalgunGothicBold-50" transform="translate(469.369141 0)"/>
    <use xlink:href="#MalgunGothicBold-20" transform="translate(530.84375 0)"/>
    <use xlink:href="#MalgunGothicBold-4d" transform="translate(566 0)"/>
    <use xlink:href="#MalgunGothicBold-4c" transform="translate(662.435547 0)"/>
    <use xlink:href="#MalgunGothicBold-50" transform="translate(713.65625 0)"/>
    <use xlink:href="#MalgunGothicBold-ac00" transform="translate(775.130859 0)"/>
    <use xlink:href="#MalgunGothicBold-20" transform="translate(875.130859 0)"/>
    <use xlink:href="#MalgunGothicBold-ac00" transform="translate(910.287109 0)"/>
    <use xlink:href="#MalgunGothicBold-c7a5" transform="translate(1010.287109 0)"/>
    <use xlink:href="#MalgunGothicBold-20" transform="translate(1110.287109 0)"/>
    <use xlink:href="#MalgunGothicBold-c548" transform="translate(1145.443359 0)"/>
    <use xlink:href="#MalgunGothicBold-c815" transform="translate(1245.443359 0)"/>
    <use xlink:href="#MalgunGothicBold-c801" transform="translate(1345.443359 0)"/>
    <use xlink:href="#MalgunGothicBold-c778" transform="translate(1445.443359 0)"/>
    <use xlink:href="#MalgunGothicBold-20" transform="translate(1545.443359 0)"/>
    <use xlink:href="#MalgunGothicBold-cd5c" transform="translate(1580.599609 0)"/>
    <use xlink:href="#MalgunGothicBold-c885" transform="translate(1680.599609 0)"/>
    <use xlink:href="#MalgunGothicBold-20" transform="translate(1780.599609 0)"/>
    <use xlink:href="#MalgunGothicBold-d6c4" transform="translate(1815.755859 0)"/>
    <use xlink:href="#MalgunGothicBold-bcf4" transform="translate(1915.755859 0)"/>
    <use xlink:href="#MalgunGothicBold-c600" transform="translate(2015.755859 0)"/>
    <use xlink:href="#MalgunGothicBold-b2e4" transform="translate(2115.755859 0)"/>
   </g>
  </g>
  <g id="text_31">
   <!-- Strict pre-sleep 조건의 test 지표 비교. Stage 2 rolling/history 확장은 balanced accuracy를 개선하지 못했다. -->
   <g style="fill: #6f768a" transform="translate(53.229531 42.60275) scale(0.1 -0.1)">
    <defs>
     <path id="MalgunGothic-c870" d="M 3438 4494 
L 3438 4441 
Q 3438 3903 4070 3286 
Q 4703 2669 5759 2425 
L 5428 2041 
Q 4684 2275 4050 2754 
Q 3416 3234 3194 3688 
Q 2963 3231 2341 2759 
Q 1719 2288 972 2034 
L 641 2419 
Q 1666 2628 2311 3268 
Q 2956 3909 2956 4441 
L 2956 4494 
L 1025 4494 
L 1025 4909 
L 5375 4909 
L 5375 4494 
L 3438 4494 
z
M 403 391 
L 403 800 
L 2963 800 
L 2963 2322 
L 3438 2322 
L 3438 800 
L 5997 800 
L 5997 391 
L 403 391 
z
" transform="scale(0.015625)"/>
     <path id="MalgunGothic-ac74" d="M 4947 1056 
L 4947 3078 
L 3559 3078 
L 3559 3494 
L 4947 3494 
L 4947 5466 
L 5416 5466 
L 5416 1056 
L 4947 1056 
z
M 3616 5081 
Q 3488 3963 2752 3100 
Q 2016 2238 856 1734 
L 544 2113 
Q 1509 2459 2201 3142 
Q 2894 3825 3066 4666 
L 941 4666 
L 941 5081 
L 3616 5081 
z
M 1722 -325 
L 1722 1575 
L 2188 1575 
L 2188 97 
L 5588 97 
L 5588 -325 
L 1722 -325 
z
" transform="scale(0.015625)"/>
     <path id="MalgunGothic-c758" d="M 5013 -563 
L 5013 5466 
L 5478 5466 
L 5478 -563 
L 5013 -563 
z
M 2450 2131 
Q 1775 2131 1315 2540 
Q 856 2950 856 3572 
Q 856 4181 1312 4593 
Q 1769 5006 2450 5006 
Q 3128 5006 3586 4590 
Q 4044 4175 4044 3572 
Q 4044 2947 3587 2539 
Q 3131 2131 2450 2131 
z
M 2450 4594 
Q 1975 4594 1656 4306 
Q 1338 4019 1338 3572 
Q 1338 3119 1664 2833 
Q 1991 2547 2450 2547 
Q 2922 2547 3244 2833 
Q 3566 3119 3566 3572 
Q 3566 4025 3247 4309 
Q 2928 4594 2450 4594 
z
M 459 531 
L 416 934 
Q 1222 934 2667 965 
Q 4113 997 4588 1038 
L 4616 634 
Q 4125 594 2679 562 
Q 1234 531 459 531 
z
" transform="scale(0.015625)"/>
     <path id="MalgunGothic-c9c0" d="M 4884 -563 
L 4884 5466 
L 5350 5466 
L 5350 -563 
L 4884 -563 
z
M 3775 909 
Q 3228 1338 2822 1881 
Q 2416 2425 2297 2859 
Q 2178 2397 1756 1814 
Q 1334 1231 825 825 
L 475 1147 
Q 1191 1638 1625 2425 
Q 2059 3213 2059 4019 
L 2059 4525 
L 716 4525 
L 716 4941 
L 3884 4941 
L 3884 4525 
L 2528 4525 
L 2528 4038 
Q 2528 3238 2968 2459 
Q 3409 1681 4097 1269 
L 3775 909 
z
" transform="scale(0.015625)"/>
     <path id="MalgunGothic-d45c" d="M 997 4897 
L 5403 4897 
L 5403 4488 
L 997 4488 
L 997 4897 
z
M 4481 2566 
L 5478 2566 
L 5478 2156 
L 4494 2156 
L 4494 756 
L 5997 756 
L 5997 341 
L 403 341 
L 403 756 
L 1906 756 
L 1906 2156 
L 922 2156 
L 922 2566 
L 1919 2566 
L 1844 4172 
L 2303 4172 
L 2381 2566 
L 4019 2566 
L 4097 4172 
L 4556 4172 
L 4481 2566 
z
M 2375 756 
L 4025 756 
L 4025 2156 
L 2375 2156 
L 2375 756 
z
" transform="scale(0.015625)"/>
     <path id="MalgunGothic-be44" d="M 4884 -563 
L 4884 5466 
L 5350 5466 
L 5350 -563 
L 4884 -563 
z
M 825 1081 
L 825 5013 
L 1294 5013 
L 1294 3469 
L 3244 3469 
L 3244 5013 
L 3713 5013 
L 3713 1081 
L 825 1081 
z
M 3244 3053 
L 1294 3053 
L 1294 1497 
L 3244 1497 
L 3244 3053 
z
" transform="scale(0.015625)"/>
     <path id="MalgunGothic-ad50" d="M 5088 1631 
L 4628 1684 
Q 4716 2581 4716 3597 
L 4716 4475 
L 1131 4475 
L 1131 4897 
L 5197 4897 
L 5197 3597 
Q 5197 2713 5088 1631 
z
M 403 459 
L 403 884 
L 1850 884 
L 1850 2931 
L 2309 2931 
L 2309 884 
L 3378 884 
L 3378 2931 
L 3841 2931 
L 3841 884 
L 5997 884 
L 5997 459 
L 403 459 
z
" transform="scale(0.015625)"/>
     <path id="MalgunGothic-2f" d="M 2584 4600 
L 378 -763 
L -84 -763 
L 2113 4600 
L 2584 4600 
z
" transform="scale(0.015625)"/>
     <path id="MalgunGothic-68" d="M 3238 0 
L 2744 0 
L 2744 1894 
Q 2744 2941 1963 2941 
Q 1572 2941 1303 2637 
Q 1034 2334 1034 1859 
L 1034 0 
L 538 0 
L 538 4859 
L 1034 4859 
L 1034 2734 
L 1047 2734 
Q 1425 3359 2128 3359 
Q 3238 3359 3238 2022 
L 3238 0 
z
" transform="scale(0.015625)"/>
     <path id="MalgunGothic-d655" d="M 609 4481 
L 609 4891 
L 2156 4891 
L 2156 5516 
L 2619 5516 
L 2619 4891 
L 4159 4891 
L 4159 4481 
L 609 4481 
z
M 5216 2906 
L 5216 1466 
L 4756 1466 
L 4756 5466 
L 5216 5466 
L 5216 3322 
L 6119 3322 
L 6119 2906 
L 5216 2906 
z
M 4378 1672 
Q 2909 1575 441 1575 
L 397 1978 
Q 1344 1978 2150 1997 
L 2150 2478 
Q 1534 2522 1212 2762 
Q 891 3003 891 3372 
Q 891 3791 1287 4036 
Q 1684 4281 2388 4281 
Q 3072 4281 3475 4028 
Q 3878 3775 3878 3372 
Q 3878 2997 3547 2756 
Q 3216 2516 2613 2478 
L 2613 2003 
Q 3675 2016 4353 2059 
L 4378 1672 
z
M 2388 3897 
Q 1875 3897 1612 3753 
Q 1350 3609 1350 3372 
Q 1350 3134 1625 2990 
Q 1900 2847 2388 2847 
Q 2875 2847 3147 2989 
Q 3419 3131 3419 3372 
Q 3419 3609 3159 3753 
Q 2900 3897 2388 3897 
z
M 4756 -563 
L 4756 750 
L 1331 750 
L 1331 1159 
L 5216 1159 
L 5216 -563 
L 4756 -563 
z
" transform="scale(0.015625)"/>
     <path id="MalgunGothic-c7a5" d="M 5125 3391 
L 5125 1991 
L 4659 1991 
L 4659 5466 
L 5125 5466 
L 5125 3816 
L 6034 3816 
L 6034 3391 
L 5125 3391 
z
M 3603 2316 
Q 3206 2528 2778 2940 
Q 2350 3353 2188 3694 
Q 2016 3300 1600 2853 
Q 1184 2406 750 2163 
L 409 2484 
Q 1072 2806 1512 3397 
Q 1953 3988 1953 4628 
L 1953 4781 
L 622 4781 
L 622 5197 
L 3731 5197 
L 3731 4781 
L 2400 4781 
L 2400 4628 
Q 2400 4025 2845 3472 
Q 3291 2919 3909 2656 
L 3603 2316 
z
M 3263 -513 
Q 2322 -513 1811 -186 
Q 1300 141 1300 659 
Q 1300 1175 1812 1500 
Q 2325 1825 3263 1825 
Q 4203 1825 4715 1501 
Q 5228 1178 5228 659 
Q 5228 138 4717 -187 
Q 4206 -513 3263 -513 
z
M 3263 1428 
Q 2563 1428 2180 1215 
Q 1797 1003 1797 659 
Q 1797 309 2181 96 
Q 2566 -116 3263 -116 
Q 3969 -116 4353 98 
Q 4738 313 4738 659 
Q 4738 1000 4353 1214 
Q 3969 1428 3263 1428 
z
" transform="scale(0.015625)"/>
     <path id="MalgunGothic-c740" d="M 3200 2950 
Q 2309 2950 1817 3287 
Q 1325 3625 1325 4159 
Q 1325 4694 1815 5028 
Q 2306 5363 3200 5363 
Q 4094 5363 4587 5028 
Q 5081 4694 5081 4159 
Q 5081 3625 4584 3287 
Q 4088 2950 3200 2950 
z
M 3200 4966 
Q 2541 4966 2177 4747 
Q 1813 4528 1813 4159 
Q 1813 3791 2177 3572 
Q 2541 3353 3200 3353 
Q 3859 3353 4223 3572 
Q 4588 3791 4588 4159 
Q 4588 4528 4223 4747 
Q 3859 4966 3200 4966 
z
M 403 1919 
L 403 2344 
L 5997 2344 
L 5997 1919 
L 403 1919 
z
M 1338 -359 
L 1338 1331 
L 1813 1331 
L 1813 56 
L 5203 56 
L 5203 -359 
L 1338 -359 
z
" transform="scale(0.015625)"/>
     <path id="MalgunGothic-62" d="M 1034 481 
L 1034 0 
L 538 0 
L 538 4859 
L 1034 4859 
L 1034 2703 
L 1047 2703 
Q 1438 3359 2184 3359 
Q 2813 3359 3173 2917 
Q 3534 2475 3534 1738 
Q 3534 906 3126 414 
Q 2719 -78 2034 -78 
Q 1384 -78 1047 481 
L 1034 481 
z
M 1034 1334 
Q 1034 922 1307 633 
Q 1581 344 1991 344 
Q 2475 344 2751 716 
Q 3028 1088 3028 1753 
Q 3028 2303 2767 2622 
Q 2506 2941 2072 2941 
Q 1616 2941 1325 2616 
Q 1034 2291 1034 1803 
L 1034 1334 
z
" transform="scale(0.015625)"/>
     <path id="MalgunGothic-b97c" d="M 5222 3144 
L 1313 3144 
L 1313 4447 
L 4628 4447 
L 4628 4966 
L 1313 4966 
L 1313 5363 
L 5088 5363 
L 5088 4084 
L 1772 4084 
L 1772 3541 
L 5222 3541 
L 5222 3144 
z
M 5997 2241 
L 403 2241 
L 403 2638 
L 5997 2638 
L 5997 2241 
z
M 5234 -500 
L 1294 -500 
L 1294 819 
L 4641 819 
L 4641 1338 
L 1294 1338 
L 1294 1734 
L 5100 1734 
L 5100 447 
L 1753 447 
L 1753 -103 
L 5234 -103 
L 5234 -500 
z
" transform="scale(0.015625)"/>
     <path id="MalgunGothic-ac1c" d="M 5038 -563 
L 5038 2431 
L 4288 2431 
L 4288 -378 
L 3828 -378 
L 3828 5344 
L 4288 5344 
L 4288 2847 
L 5038 2847 
L 5038 5466 
L 5503 5466 
L 5503 -563 
L 5038 -563 
z
M 3078 4941 
Q 2981 2394 813 878 
L 441 1197 
Q 1263 1634 1891 2575 
Q 2519 3516 2584 4531 
L 800 4531 
L 800 4941 
L 3078 4941 
z
" transform="scale(0.015625)"/>
     <path id="MalgunGothic-c120" d="M 4878 1063 
L 4878 3653 
L 3469 3653 
L 3469 4072 
L 4878 4072 
L 4878 5466 
L 5344 5466 
L 5344 1063 
L 4878 1063 
z
M 3675 2069 
Q 3228 2344 2829 2776 
Q 2431 3209 2266 3566 
Q 2091 3150 1662 2648 
Q 1234 2147 819 1913 
L 481 2234 
Q 1125 2559 1573 3198 
Q 2022 3838 2022 4494 
L 2022 5269 
L 2478 5269 
L 2478 4494 
Q 2478 3894 2943 3286 
Q 3409 2678 3988 2406 
L 3675 2069 
z
M 1631 -366 
L 1631 1550 
L 2100 1550 
L 2100 44 
L 5503 44 
L 5503 -366 
L 1631 -366 
z
" transform="scale(0.015625)"/>
     <path id="MalgunGothic-d558" d="M 5094 2278 
L 5094 -563 
L 4628 -563 
L 4628 5466 
L 5094 5466 
L 5094 2694 
L 6113 2694 
L 6113 2278 
L 5094 2278 
z
M 469 4084 
L 469 4506 
L 2022 4506 
L 2022 5466 
L 2491 5466 
L 2491 4506 
L 4050 4506 
L 4050 4084 
L 469 4084 
z
M 2253 934 
Q 1588 934 1166 1318 
Q 744 1703 744 2272 
Q 744 2850 1166 3233 
Q 1588 3616 2259 3616 
Q 2928 3616 3351 3231 
Q 3775 2847 3775 2266 
Q 3775 1694 3351 1314 
Q 2928 934 2253 934 
z
M 2259 3219 
Q 1797 3219 1500 2941 
Q 1203 2663 1203 2272 
Q 1203 1884 1501 1607 
Q 1800 1331 2259 1331 
Q 2719 1331 3017 1607 
Q 3316 1884 3316 2272 
Q 3316 2663 3019 2941 
Q 2722 3219 2259 3219 
z
" transform="scale(0.015625)"/>
     <path id="MalgunGothic-babb" d="M 403 2053 
L 403 2472 
L 2963 2472 
L 2963 3200 
L 1344 3200 
L 1344 5294 
L 5056 5294 
L 5056 3200 
L 3438 3200 
L 3438 2472 
L 5997 2472 
L 5997 2053 
L 403 2053 
z
M 4588 4878 
L 1813 4878 
L 1813 3616 
L 4588 3616 
L 4588 4878 
z
M 5313 -459 
Q 4644 -313 4069 34 
Q 3494 381 3200 806 
Q 2966 419 2350 48 
Q 1734 -322 1113 -459 
L 819 -56 
Q 1681 59 2317 539 
Q 2953 1019 2963 1550 
L 2963 1722 
L 3431 1722 
L 3431 1556 
Q 3431 1031 4061 551 
Q 4691 72 5575 -56 
L 5313 -459 
z
" transform="scale(0.015625)"/>
     <path id="MalgunGothic-d588" d="M 5075 1863 
L 5075 3238 
L 4372 3238 
L 4372 1947 
L 3909 1947 
L 3909 5344 
L 4372 5344 
L 4372 3647 
L 5075 3647 
L 5075 5466 
L 5538 5466 
L 5538 1863 
L 5075 1863 
z
M 453 4378 
L 453 4794 
L 1772 4794 
L 1772 5466 
L 2234 5466 
L 2234 4794 
L 3541 4794 
L 3541 4378 
L 453 4378 
z
M 2009 2059 
Q 1419 2059 1058 2353 
Q 697 2647 697 3072 
Q 697 3497 1058 3790 
Q 1419 4084 2009 4084 
Q 2606 4084 2967 3790 
Q 3328 3497 3328 3072 
Q 3328 2644 2967 2351 
Q 2606 2059 2009 2059 
z
M 2009 3694 
Q 1644 3694 1392 3520 
Q 1141 3347 1141 3072 
Q 1141 2800 1394 2625 
Q 1647 2450 2009 2450 
Q 2378 2450 2633 2625 
Q 2888 2800 2888 3072 
Q 2888 3344 2633 3519 
Q 2378 3694 2009 3694 
z
M 5606 -506 
Q 5269 -322 4950 1 
Q 4631 325 4513 603 
Q 4391 300 4072 -39 
Q 3753 -378 3413 -569 
L 3066 -269 
Q 3631 9 3953 475 
Q 4275 941 4275 1472 
L 4275 1613 
L 4738 1613 
L 4738 1472 
Q 4738 950 5094 478 
Q 5450 6 5953 -178 
L 5606 -506 
z
M 3084 -84 
Q 2550 238 2303 672 
Q 2188 372 1870 19 
Q 1553 -334 1184 -550 
L 819 -256 
Q 1369 22 1719 492 
Q 2069 963 2069 1472 
L 2069 1606 
L 2522 1606 
L 2522 1472 
Q 2522 1059 2790 704 
Q 3059 350 3425 225 
L 3084 -84 
z
" transform="scale(0.015625)"/>
     <path id="MalgunGothic-b2e4" d="M 5094 2669 
L 5094 -563 
L 4628 -563 
L 4628 5466 
L 5094 5466 
L 5094 3091 
L 6156 3091 
L 6156 2669 
L 5094 2669 
z
M 4050 1234 
Q 3538 1172 3003 1159 
Q 2469 1147 838 1147 
L 838 4934 
L 3653 4934 
L 3653 4519 
L 1306 4519 
L 1306 1563 
Q 3566 1563 4013 1638 
L 4050 1234 
z
" transform="scale(0.015625)"/>
    </defs>
    <use xlink:href="#MalgunGothic-53"/>
    <use xlink:href="#MalgunGothic-74" transform="translate(50.796875 0)"/>
    <use xlink:href="#MalgunGothic-72" transform="translate(85.269531 0)"/>
    <use xlink:href="#MalgunGothic-69" transform="translate(120.621094 0)"/>
    <use xlink:href="#MalgunGothic-63" transform="translate(145.230469 0)"/>
    <use xlink:href="#MalgunGothic-74" transform="translate(192.496094 0)"/>
    <use xlink:href="#MalgunGothic-20" transform="translate(226.96875 0)"/>
    <use xlink:href="#MalgunGothic-70" transform="translate(262.125 0)"/>
    <use xlink:href="#MalgunGothic-72" transform="translate(322.183594 0)"/>
    <use xlink:href="#MalgunGothic-65" transform="translate(356.160156 0)"/>
    <use xlink:href="#MalgunGothic-2d" transform="translate(409.675781 0)"/>
    <use xlink:href="#MalgunGothic-73" transform="translate(450.691406 0)"/>
    <use xlink:href="#MalgunGothic-6c" transform="translate(494.001953 0)"/>
    <use xlink:href="#MalgunGothic-65" transform="translate(518.611328 0)"/>
    <use xlink:href="#MalgunGothic-65" transform="translate(572.126953 0)"/>
    <use xlink:href="#MalgunGothic-70" transform="translate(625.642578 0)"/>
    <use xlink:href="#MalgunGothic-20" transform="translate(685.701172 0)"/>
    <use xlink:href="#MalgunGothic-c870" transform="translate(720.857422 0)"/>
    <use xlink:href="#MalgunGothic-ac74" transform="translate(820.857422 0)"/>
    <use xlink:href="#MalgunGothic-c758" transform="translate(920.857422 0)"/>
    <use xlink:href="#MalgunGothic-20" transform="translate(1020.857422 0)"/>
    <use xlink:href="#MalgunGothic-74" transform="translate(1056.013672 0)"/>
    <use xlink:href="#MalgunGothic-65" transform="translate(1089.611328 0)"/>
    <use xlink:href="#MalgunGothic-73" transform="translate(1143.126953 0)"/>
    <use xlink:href="#MalgunGothic-74" transform="translate(1186.4375 0)"/>
    <use xlink:href="#MalgunGothic-20" transform="translate(1220.910156 0)"/>
    <use xlink:href="#MalgunGothic-c9c0" transform="translate(1256.066406 0)"/>
    <use xlink:href="#MalgunGothic-d45c" transform="translate(1356.066406 0)"/>
    <use xlink:href="#MalgunGothic-20" transform="translate(1456.066406 0)"/>
    <use xlink:href="#MalgunGothic-be44" transform="translate(1491.222656 0)"/>
    <use xlink:href="#MalgunGothic-ad50" transform="translate(1591.222656 0)"/>
    <use xlink:href="#MalgunGothic-2e" transform="translate(1691.222656 0)"/>
    <use xlink:href="#MalgunGothic-20" transform="translate(1713.097656 0)"/>
    <use xlink:href="#MalgunGothic-53" transform="translate(1748.253906 0)"/>
    <use xlink:href="#MalgunGothic-74" transform="translate(1799.050781 0)"/>
    <use xlink:href="#MalgunGothic-61" transform="translate(1833.523438 0)"/>
    <use xlink:href="#MalgunGothic-67" transform="translate(1885.525391 0)"/>
    <use xlink:href="#MalgunGothic-65" transform="translate(1945.730469 0)"/>
    <use xlink:href="#MalgunGothic-20" transform="translate(1999.246094 0)"/>
    <use xlink:href="#MalgunGothic-32" transform="translate(2034.402344 0)"/>
    <use xlink:href="#MalgunGothic-20" transform="translate(2089.480469 0)"/>
    <use xlink:href="#MalgunGothic-72" transform="translate(2124.636719 0)"/>
    <use xlink:href="#MalgunGothic-6f" transform="translate(2158.613281 0)"/>
    <use xlink:href="#MalgunGothic-6c" transform="translate(2218.525391 0)"/>
    <use xlink:href="#MalgunGothic-6c" transform="translate(2243.134766 0)"/>
    <use xlink:href="#MalgunGothic-69" transform="translate(2267.744141 0)"/>
    <use xlink:href="#MalgunGothic-6e" transform="translate(2292.353516 0)"/>
    <use xlink:href="#MalgunGothic-67" transform="translate(2350.166016 0)"/>
    <use xlink:href="#MalgunGothic-2f" transform="translate(2410.371094 0)"/>
    <use xlink:href="#MalgunGothic-68" transform="translate(2449.970703 0)"/>
    <use xlink:href="#MalgunGothic-69" transform="translate(2507.832031 0)"/>
    <use xlink:href="#MalgunGothic-73" transform="translate(2532.441406 0)"/>
    <use xlink:href="#MalgunGothic-74" transform="translate(2575.751953 0)"/>
    <use xlink:href="#MalgunGothic-6f" transform="translate(2609.349609 0)"/>
    <use xlink:href="#MalgunGothic-72" transform="translate(2669.261719 0)"/>
    <use xlink:href="#MalgunGothic-79" transform="translate(2708.988281 0)"/>
    <use xlink:href="#MalgunGothic-20" transform="translate(2758.255859 0)"/>
    <use xlink:href="#MalgunGothic-d655" transform="translate(2793.412109 0)"/>
    <use xlink:href="#MalgunGothic-c7a5" transform="translate(2893.412109 0)"/>
    <use xlink:href="#MalgunGothic-c740" transform="translate(2993.412109 0)"/>
    <use xlink:href="#MalgunGothic-20" transform="translate(3093.412109 0)"/>
    <use xlink:href="#MalgunGothic-62" transform="translate(3128.568359 0)"/>
    <use xlink:href="#MalgunGothic-61" transform="translate(3187.251953 0)"/>
    <use xlink:href="#MalgunGothic-6c" transform="translate(3239.253906 0)"/>
    <use xlink:href="#MalgunGothic-61" transform="translate(3263.863281 0)"/>
    <use xlink:href="#MalgunGothic-6e" transform="translate(3315.865234 0)"/>
    <use xlink:href="#MalgunGothic-63" transform="translate(3373.677734 0)"/>
    <use xlink:href="#MalgunGothic-65" transform="translate(3420.943359 0)"/>
    <use xlink:href="#MalgunGothic-64" transform="translate(3474.458984 0)"/>
    <use xlink:href="#MalgunGothic-20" transform="translate(3534.664062 0)"/>
    <use xlink:href="#MalgunGothic-61" transform="translate(3569.820312 0)"/>
    <use xlink:href="#MalgunGothic-63" transform="translate(3621.822266 0)"/>
    <use xlink:href="#MalgunGothic-63" transform="translate(3669.087891 0)"/>
    <use xlink:href="#MalgunGothic-75" transform="translate(3716.353516 0)"/>
    <use xlink:href="#MalgunGothic-72" transform="translate(3774.166016 0)"/>
    <use xlink:href="#MalgunGothic-61" transform="translate(3809.517578 0)"/>
    <use xlink:href="#MalgunGothic-63" transform="translate(3861.519531 0)"/>
    <use xlink:href="#MalgunGothic-79" transform="translate(3908.785156 0)"/>
    <use xlink:href="#MalgunGothic-b97c" transform="translate(3958.052734 0)"/>
    <use xlink:href="#MalgunGothic-20" transform="translate(4058.052734 0)"/>
    <use xlink:href="#MalgunGothic-ac1c" transform="translate(4093.208984 0)"/>
    <use xlink:href="#MalgunGothic-c120" transform="translate(4193.208984 0)"/>
    <use xlink:href="#MalgunGothic-d558" transform="translate(4293.208984 0)"/>
    <use xlink:href="#MalgunGothic-c9c0" transform="translate(4393.208984 0)"/>
    <use xlink:href="#MalgunGothic-20" transform="translate(4493.208984 0)"/>
    <use xlink:href="#MalgunGothic-babb" transform="translate(4528.365234 0)"/>
    <use xlink:href="#MalgunGothic-d588" transform="translate(4628.365234 0)"/>
    <use xlink:href="#MalgunGothic-b2e4" transform="translate(4728.365234 0)"/>
    <use xlink:href="#MalgunGothic-2e" transform="translate(4828.365234 0)"/>
   </g>
  </g>
 </g>
 <defs>
  <clipPath id="paa0bf49f5e">
   <rect x="53.229531" y="74.16" width="613.8" height="316.944"/>
  </clipPath>
 </defs>
</svg>
