<?xml version="1.0" encoding="utf-8" standalone="no"?>
<!DOCTYPE svg PUBLIC "-//W3C//DTD SVG 1.1//EN"
  "http://www.w3.org/Graphics/SVG/1.1/DTD/svg11.dtd">
<svg xmlns:xlink="http://www.w3.org/1999/xlink" width="722.88pt" height="393.84pt" viewBox="0 0 722.88 393.84" xmlns="http://www.w3.org/2000/svg" version="1.1">
 <metadata>
  <rdf:RDF xmlns:dc="http://purl.org/dc/elements/1.1/" xmlns:cc="http://creativecommons.org/ns#" xmlns:rdf="http://www.w3.org/1999/02/22-rdf-syntax-ns#">
   <cc:Work>
    <dc:type rdf:resource="http://purl.org/dc/dcmitype/StillImage"/>
    <dc:date>2026-06-30T14:57:29.863209</dc:date>
    <dc:format>image/svg+xml</dc:format>
    <dc:creator>
     <cc:Agent>
      <dc:title>Matplotlib v3.10.9, https://matplotlib.org/</dc:title>
     </cc:Agent>
    </dc:creator>
   </cc:Work>
  </rdf:RDF>
 </metadata>
 <defs>
  <style type="text/css">*{stroke-linejoin: round; stroke-linecap: butt}</style>
 </defs>
 <g id="figure_1">
  <g id="patch_1">
   <path d="M 0 393.84 
L 722.88 393.84 
L 722.88 0 
L 0 0 
z
" style="fill: #fcfcfd"/>
  </g>
  <g id="axes_1">
   <g id="patch_2">
    <path d="M 76.77 182.12184 
L 182.79 182.12184 
Q 187.254 182.12184 187.254 177.5388 
L 187.254 120.2508 
Q 187.254 115.66776 182.79 115.66776 
L 76.77 115.66776 
Q 72.306 115.66776 72.306 120.2508 
L 72.306 177.5388 
Q 72.306 182.12184 76.77 182.12184 
z
" clip-path="url(#p055169d5c0)" style="fill: #eaf1fe; stroke: #2e4780; stroke-width: 1.3; stroke-linejoin: miter"/>
   </g>
   <g id="patch_3">
    <path d="M 76.77 285.24024 
L 182.79 285.24024 
Q 187.254 285.24024 187.254 280.6572 
L 187.254 223.3692 
Q 187.254 218.78616 182.79 218.78616 
L 76.77 218.78616 
Q 72.306 218.78616 72.306 223.3692 
L 72.306 280.6572 
Q 72.306 285.24024 76.77 285.24024 
z
" clip-path="url(#p055169d5c0)" style="fill: #d8ecbd; stroke: #386411; stroke-width: 1.3; stroke-linejoin: miter"/>
   </g>
   <g id="patch_4">
    <path d="M 227.43 233.68104 
L 339.03 233.68104 
Q 343.494 233.68104 343.494 229.098 
L 343.494 166.0812 
Q 343.494 161.49816 339.03 161.49816 
L 227.43 161.49816 
Q 222.966 161.49816 222.966 166.0812 
L 222.966 229.098 
Q 222.966 233.68104 227.43 233.68104 
z
" clip-path="url(#p055169d5c0)" style="fill: #f4f5f7; stroke: #464c55; stroke-width: 1.3; stroke-linejoin: miter"/>
   </g>
   <g id="patch_5">
    <path d="M 383.67 233.68104 
L 489.69 233.68104 
Q 494.154 233.68104 494.154 229.098 
L 494.154 166.0812 
Q 494.154 161.49816 489.69 161.49816 
L 383.67 161.49816 
Q 379.206 161.49816 379.206 166.0812 
L 379.206 229.098 
Q 379.206 233.68104 383.67 233.68104 
z
" clip-path="url(#p055169d5c0)" style="fill: #fff4c2; stroke: #736422; stroke-width: 1.3; stroke-linejoin: miter"/>
   </g>
   <g id="patch_6">
    <path d="M 523.17 233.68104 
L 623.61 233.68104 
Q 628.074 233.68104 628.074 229.098 
L 628.074 166.0812 
Q 628.074 161.49816 623.61 161.49816 
L 523.17 161.49816 
Q 518.706 161.49816 518.706 166.0812 
L 518.706 229.098 
Q 518.706 233.68104 523.17 233.68104 
z
" clip-path="url(#p055169d5c0)" style="fill: #fcdad6; stroke: #8a3a6f; stroke-width: 1.3; stroke-linejoin: miter"/>
   </g>
   <g id="patch_7">
    <path d="M 651.51 233.68104 
L 701.73 233.68104 
Q 706.194 233.68104 706.194 229.098 
L 706.194 166.0812 
Q 706.194 161.49816 701.73 161.49816 
L 651.51 161.49816 
Q 647.046 161.49816 647.046 166.0812 
L 647.046 229.098 
Q 647.046 233.68104 651.51 233.68104 
z
" clip-path="url(#p055169d5c0)" style="fill: #eaf1fe; stroke: #2e4780; stroke-width: 1.3; stroke-linejoin: miter"/>
   </g>
   <g id="patch_8">
    <path d="M 534.33 345.39264 
L 673.83 345.39264 
Q 678.294 345.39264 678.294 340.8096 
L 678.294 292.1148 
Q 678.294 287.53176 673.83 287.53176 
L 534.33 287.53176 
Q 529.866 287.53176 529.866 292.1148 
L 529.866 340.8096 
Q 529.866 345.39264 534.33 345.39264 
z
" clip-path="url(#p055169d5c0)" style="fill: #ffedde; stroke: #804126; stroke-width: 1.3; stroke-linejoin: miter"/>
   </g>
   <g id="patch_9">
    <path d="M 186.879298 150.41931 
Q 205.110867 171.811018 222.472179 192.181623 
" clip-path="url(#p055169d5c0)" style="fill: none; stroke: #464c55; stroke-width: 1.2; stroke-linecap: round"/>
    <path d="M 220.970765 186.103321 
L 222.472179 192.181623 
L 216.708689 189.735772 
z
" clip-path="url(#p055169d5c0)" style="fill: #464c55; stroke: #464c55; stroke-width: 1.2; stroke-linecap: round"/>
   </g>
   <g id="patch_10">
    <path d="M 186.879298 250.48869 
Q 205.110867 229.096982 222.472179 208.726377 
" clip-path="url(#p055169d5c0)" style="fill: none; stroke: #464c55; stroke-width: 1.2; stroke-linecap: round"/>
    <path d="M 216.708689 211.172228 
L 222.472179 208.726377 
L 220.970765 214.804679 
z
" clip-path="url(#p055169d5c0)" style="fill: #464c55; stroke: #464c55; stroke-width: 1.2; stroke-linecap: round"/>
   </g>
   <g id="patch_11">
    <path d="M 343.81782 197.5896 
Q 361.346801 197.5896 377.534142 197.5896 
" clip-path="url(#p055169d5c0)" style="fill: none; stroke: #464c55; stroke-width: 1.2; stroke-linecap: round"/>
    <path d="M 371.934142 194.7896 
L 377.534142 197.5896 
L 371.934142 200.3896 
z
" clip-path="url(#p055169d5c0)" style="fill: #464c55; stroke: #464c55; stroke-width: 1.2; stroke-linecap: round"/>
   </g>
   <g id="patch_12">
    <path d="M 494.479182 197.5896 
Q 506.428906 197.5896 517.03699 197.5896 
" clip-path="url(#p055169d5c0)" style="fill: none; stroke: #464c55; stroke-width: 1.2; stroke-linecap: round"/>
    <path d="M 511.43699 194.7896 
L 517.03699 197.5896 
L 511.43699 200.3896 
z
" clip-path="url(#p055169d5c0)" style="fill: #464c55; stroke: #464c55; stroke-width: 1.2; stroke-linecap: round"/>
   </g>
   <g id="patch_13">
    <path d="M 628.402588 197.5896 
Q 637.561792 197.5896 645.379356 197.5896 
" clip-path="url(#p055169d5c0)" style="fill: none; stroke: #464c55; stroke-width: 1.2; stroke-linecap: round"/>
    <path d="M 639.779356 194.7896 
L 645.379356 197.5896 
L 639.779356 200.3896 
z
" clip-path="url(#p055169d5c0)" style="fill: #464c55; stroke: #464c55; stroke-width: 1.2; stroke-linecap: round"/>
   </g>
   <g id="patch_14">
    <path d="M 675.050455 233.201938 
Q 640.350347 260.606126 606.703131 287.178799 
" clip-path="url(#p055169d5c0)" style="fill: none; stroke: #464c55; stroke-width: 1.2; stroke-linecap: round"/>
    <path d="M 612.833267 285.905444 
L 606.703131 287.178799 
L 609.362528 281.510677 
z
" clip-path="url(#p055169d5c0)" style="fill: #464c55; stroke: #464c55; stroke-width: 1.2; stroke-linecap: round"/>
   </g>
   <g id="text_1">
    <!-- 예측 대상 episode -->
    <g style="fill: #1f2430" transform="translate(86.444531 140.289525) scale(0.105 -0.105)">
     <defs>
      <path id="MalgunGothic-c608" d="M 5069 -563 
L 5069 5466 
L 5538 5466 
L 5538 -563 
L 5069 -563 
z
M 3091 1856 
Q 2775 928 1947 928 
Q 1325 928 986 1470 
Q 647 2013 647 3016 
Q 647 4016 986 4558 
Q 1325 5100 1947 5100 
Q 2763 5100 3078 4206 
L 3981 4206 
L 3981 5344 
L 4447 5344 
L 4447 -500 
L 3981 -500 
L 3981 1856 
L 3091 1856 
z
M 1947 4678 
Q 1094 4678 1094 3016 
Q 1094 1350 1947 1350 
Q 2797 1350 2797 3016 
Q 2797 4678 1947 4678 
z
M 3194 2266 
L 3981 2266 
L 3981 3794 
L 3188 3794 
Q 3250 3413 3250 3016 
Q 3250 2597 3194 2266 
z
" transform="scale(0.015625)"/>
      <path id="MalgunGothic-ce21" d="M 5466 3116 
Q 4794 3184 4103 3512 
Q 3413 3841 3206 4141 
Q 2972 3816 2308 3505 
Q 1644 3194 966 3122 
L 697 3547 
Q 1359 3547 2046 3836 
Q 2734 4125 2919 4538 
L 1056 4538 
L 1056 4953 
L 2969 4953 
L 2969 5516 
L 3444 5516 
L 3444 4953 
L 5344 4953 
L 5344 4538 
L 3481 4538 
Q 3669 4119 4353 3836 
Q 5038 3553 5703 3553 
L 5466 3116 
z
M 403 2156 
L 403 2572 
L 5997 2572 
L 5997 2156 
L 403 2156 
z
M 4609 -563 
L 4609 1075 
L 1197 1075 
L 1197 1491 
L 5075 1491 
L 5075 -563 
L 4609 -563 
z
" transform="scale(0.015625)"/>
      <path id="MalgunGothic-20" transform="scale(0.015625)"/>
      <path id="MalgunGothic-b300" d="M 5069 -563 
L 5069 2572 
L 4294 2572 
L 4294 -378 
L 3834 -378 
L 3834 5344 
L 4294 5344 
L 4294 2988 
L 5069 2988 
L 5069 5466 
L 5538 5466 
L 5538 -563 
L 5069 -563 
z
M 3391 1153 
Q 2516 1063 825 1063 
L 825 4934 
L 3138 4934 
L 3138 4519 
L 1288 4519 
L 1288 1478 
L 1844 1478 
Q 2791 1478 3359 1550 
L 3391 1153 
z
" transform="scale(0.015625)"/>
      <path id="MalgunGothic-c0c1" d="M 5125 3391 
L 5125 1991 
L 4659 1991 
L 4659 5466 
L 5125 5466 
L 5125 3816 
L 6034 3816 
L 6034 3391 
L 5125 3391 
z
M 3603 2316 
Q 3206 2528 2778 2934 
Q 2350 3341 2188 3681 
Q 2022 3291 1609 2852 
Q 1197 2413 750 2163 
L 409 2484 
Q 1072 2806 1512 3397 
Q 1953 3988 1953 4628 
L 1953 5259 
L 2400 5259 
L 2400 4628 
Q 2400 4025 2845 3472 
Q 3291 2919 3909 2656 
L 3603 2316 
z
M 3263 -513 
Q 2322 -513 1811 -186 
Q 1300 141 1300 659 
Q 1300 1175 1812 1500 
Q 2325 1825 3263 1825 
Q 4203 1825 4715 1501 
Q 5228 1178 5228 659 
Q 5228 138 4717 -187 
Q 4206 -513 3263 -513 
z
M 3263 1428 
Q 2563 1428 2180 1215 
Q 1797 1003 1797 659 
Q 1797 309 2181 96 
Q 2566 -116 3263 -116 
Q 3969 -116 4353 98 
Q 4738 313 4738 659 
Q 4738 1000 4353 1214 
Q 3969 1428 3263 1428 
z
" transform="scale(0.015625)"/>
      <path id="MalgunGothic-65" d="M 3156 1519 
L 828 1519 
Q 844 950 1133 648 
Q 1422 347 1909 347 
Q 2472 347 2934 719 
L 2934 244 
Q 2494 -78 1794 -78 
Q 1100 -78 708 376 
Q 316 831 316 1634 
Q 316 2381 747 2870 
Q 1178 3359 1816 3359 
Q 2453 3359 2804 2942 
Q 3156 2525 3156 1788 
L 3156 1519 
z
M 2644 1956 
Q 2644 2416 2423 2675 
Q 2203 2934 1809 2934 
Q 1438 2934 1169 2667 
Q 900 2400 834 1956 
L 2644 1956 
z
" transform="scale(0.015625)"/>
      <path id="MalgunGothic-70" d="M 1034 481 
L 1034 -1513 
L 538 -1513 
L 538 3284 
L 1034 3284 
L 1034 2703 
L 1047 2703 
Q 1438 3359 2184 3359 
Q 2809 3359 3171 2920 
Q 3534 2481 3534 1738 
Q 3534 906 3126 414 
Q 2719 -78 2034 -78 
Q 1394 -78 1047 481 
L 1034 481 
z
M 1034 1331 
Q 1034 922 1307 633 
Q 1581 344 1991 344 
Q 2475 344 2751 716 
Q 3028 1088 3028 1753 
Q 3028 2300 2767 2620 
Q 2506 2941 2072 2941 
Q 1619 2941 1326 2619 
Q 1034 2297 1034 1806 
L 1034 1331 
z
" transform="scale(0.015625)"/>
      <path id="MalgunGothic-69" d="M 472 4466 
Q 472 4606 565 4701 
Q 659 4797 794 4797 
Q 934 4797 1029 4700 
Q 1125 4603 1125 4466 
Q 1125 4325 1029 4231 
Q 934 4138 794 4138 
Q 659 4138 565 4230 
Q 472 4322 472 4466 
z
M 541 0 
L 541 3284 
L 1034 3284 
L 1034 0 
L 541 0 
z
" transform="scale(0.015625)"/>
      <path id="MalgunGothic-73" d="M 331 669 
Q 763 350 1278 350 
Q 1978 350 1978 822 
Q 1978 1025 1825 1158 
Q 1672 1291 1222 1459 
Q 703 1666 520 1878 
Q 338 2091 338 2416 
Q 338 2834 700 3096 
Q 1063 3359 1584 3359 
Q 2003 3359 2341 3213 
L 2341 2697 
Q 1975 2934 1506 2934 
Q 1200 2934 1025 2798 
Q 850 2663 850 2459 
Q 850 2241 979 2125 
Q 1109 2009 1544 1838 
Q 2131 1609 2309 1390 
Q 2488 1172 2488 869 
Q 2488 431 2127 176 
Q 1766 -78 1203 -78 
Q 694 -78 331 122 
L 331 669 
z
" transform="scale(0.015625)"/>
      <path id="MalgunGothic-6f" d="M 316 1600 
Q 316 2419 761 2889 
Q 1206 3359 1978 3359 
Q 2697 3359 3111 2907 
Q 3525 2456 3525 1650 
Q 3525 869 3078 395 
Q 2631 -78 1900 -78 
Q 1184 -78 750 384 
Q 316 847 316 1600 
z
M 819 1622 
Q 819 1041 1123 692 
Q 1428 344 1934 344 
Q 2459 344 2739 680 
Q 3019 1016 3019 1634 
Q 3019 2256 2737 2598 
Q 2456 2941 1934 2941 
Q 1425 2941 1122 2587 
Q 819 2234 819 1622 
z
" transform="scale(0.015625)"/>
      <path id="MalgunGothic-64" d="M 3313 0 
L 2822 0 
L 2822 566 
L 2809 566 
Q 2444 -78 1675 -78 
Q 1056 -78 686 364 
Q 316 806 316 1566 
Q 316 2375 728 2867 
Q 1141 3359 1816 3359 
Q 2494 3359 2809 2822 
L 2822 2822 
L 2822 4859 
L 3313 4859 
L 3313 0 
z
M 2822 1978 
Q 2822 2378 2550 2659 
Q 2278 2941 1872 2941 
Q 1384 2941 1101 2577 
Q 819 2213 819 1591 
Q 819 1025 1086 684 
Q 1353 344 1813 344 
Q 2250 344 2536 666 
Q 2822 988 2822 1478 
L 2822 1978 
z
" transform="scale(0.015625)"/>
     </defs>
     <use xlink:href="#MalgunGothic-c608"/>
     <use xlink:href="#MalgunGothic-ce21" transform="translate(100 0)"/>
     <use xlink:href="#MalgunGothic-20" transform="translate(200 0)"/>
     <use xlink:href="#MalgunGothic-b300" transform="translate(235.15625 0)"/>
     <use xlink:href="#MalgunGothic-c0c1" transform="translate(335.15625 0)"/>
     <use xlink:href="#MalgunGothic-20" transform="translate(435.15625 0)"/>
     <use xlink:href="#MalgunGothic-65" transform="translate(470.3125 0)"/>
     <use xlink:href="#MalgunGothic-70" transform="translate(523.828125 0)"/>
     <use xlink:href="#MalgunGothic-69" transform="translate(583.886719 0)"/>
     <use xlink:href="#MalgunGothic-73" transform="translate(608.496094 0)"/>
     <use xlink:href="#MalgunGothic-6f" transform="translate(651.806641 0)"/>
     <use xlink:href="#MalgunGothic-64" transform="translate(711.71875 0)"/>
     <use xlink:href="#MalgunGothic-65" transform="translate(771.923828 0)"/>
    </g>
    <!-- participant_id -->
    <g style="fill: #1f2430" transform="translate(97.72957 152.178511) scale(0.105 -0.105)">
     <defs>
      <path id="MalgunGothic-61" d="M 616 3050 
Q 1097 3359 1722 3359 
Q 2866 3359 2866 2147 
L 2866 0 
L 2369 0 
L 2369 516 
L 2350 516 
Q 2009 -78 1341 -78 
Q 859 -78 576 180 
Q 294 438 294 869 
Q 294 1784 1375 1934 
L 2366 2078 
Q 2366 2934 1684 2934 
Q 1084 2934 616 2525 
L 616 3050 
z
M 1563 1559 
Q 1178 1509 993 1371 
Q 809 1234 809 903 
Q 809 653 986 500 
Q 1163 347 1450 347 
Q 1847 347 2106 628 
Q 2366 909 2366 1334 
L 2366 1666 
L 1563 1559 
z
" transform="scale(0.015625)"/>
      <path id="MalgunGothic-72" d="M 2225 2775 
Q 2084 2881 1828 2881 
Q 1491 2881 1262 2553 
Q 1034 2225 1034 1681 
L 1034 0 
L 538 0 
L 538 3284 
L 1034 3284 
L 1034 2603 
L 1047 2603 
Q 1159 2950 1389 3145 
Q 1619 3341 1903 3341 
Q 2109 3341 2225 3297 
L 2225 2775 
z
" transform="scale(0.015625)"/>
      <path id="MalgunGothic-74" d="M 2031 31 
Q 1844 -72 1553 -72 
Q 706 -72 706 881 
L 706 2856 
L 138 2856 
L 138 3284 
L 706 3284 
L 706 4091 
L 1200 4250 
L 1200 3284 
L 2031 3284 
L 2031 2856 
L 1200 2856 
L 1200 972 
Q 1200 625 1315 487 
Q 1431 350 1691 350 
Q 1888 350 2031 459 
L 2031 31 
z
" transform="scale(0.015625)"/>
      <path id="MalgunGothic-63" d="M 2763 153 
Q 2375 -78 1872 -78 
Q 1184 -78 750 372 
Q 316 822 316 1566 
Q 316 2381 777 2870 
Q 1238 3359 2009 3359 
Q 2434 3359 2766 3200 
L 2766 2681 
Q 2397 2941 1981 2941 
Q 1478 2941 1148 2577 
Q 819 2213 819 1609 
Q 819 1034 1120 689 
Q 1422 344 1947 344 
Q 2381 344 2763 631 
L 2763 153 
z
" transform="scale(0.015625)"/>
      <path id="MalgunGothic-6e" d="M 3238 0 
L 2741 0 
L 2741 1875 
Q 2741 2941 1963 2941 
Q 1563 2941 1298 2639 
Q 1034 2338 1034 1872 
L 1034 0 
L 538 0 
L 538 3284 
L 1034 3284 
L 1034 2734 
L 1047 2734 
Q 1416 3359 2125 3359 
Q 2666 3359 2952 3012 
Q 3238 2666 3238 2006 
L 3238 0 
z
" transform="scale(0.015625)"/>
      <path id="MalgunGothic-5f" d="M 2725 -953 
L 0 -953 
L 0 -569 
L 2725 -569 
L 2725 -953 
z
" transform="scale(0.015625)"/>
     </defs>
     <use xlink:href="#MalgunGothic-70"/>
     <use xlink:href="#MalgunGothic-61" transform="translate(58.683594 0)"/>
     <use xlink:href="#MalgunGothic-72" transform="translate(110.685547 0)"/>
     <use xlink:href="#MalgunGothic-74" transform="translate(149.162109 0)"/>
     <use xlink:href="#MalgunGothic-69" transform="translate(183.634766 0)"/>
     <use xlink:href="#MalgunGothic-63" transform="translate(208.244141 0)"/>
     <use xlink:href="#MalgunGothic-69" transform="translate(255.509766 0)"/>
     <use xlink:href="#MalgunGothic-70" transform="translate(280.119141 0)"/>
     <use xlink:href="#MalgunGothic-61" transform="translate(338.802734 0)"/>
     <use xlink:href="#MalgunGothic-6e" transform="translate(390.804688 0)"/>
     <use xlink:href="#MalgunGothic-74" transform="translate(448.617188 0)"/>
     <use xlink:href="#MalgunGothic-5f" transform="translate(483.089844 0)"/>
     <use xlink:href="#MalgunGothic-69" transform="translate(525.667969 0)"/>
     <use xlink:href="#MalgunGothic-64" transform="translate(550.277344 0)"/>
    </g>
    <!-- sleep_start -->
    <g style="fill: #1f2430" transform="translate(104.562773 164.067497) scale(0.105 -0.105)">
     <defs>
      <path id="MalgunGothic-6c" d="M 541 0 
L 541 4859 
L 1034 4859 
L 1034 0 
L 541 0 
z
" transform="scale(0.015625)"/>
     </defs>
     <use xlink:href="#MalgunGothic-73"/>
     <use xlink:href="#MalgunGothic-6c" transform="translate(43.310547 0)"/>
     <use xlink:href="#MalgunGothic-65" transform="translate(67.919922 0)"/>
     <use xlink:href="#MalgunGothic-65" transform="translate(121.435547 0)"/>
     <use xlink:href="#MalgunGothic-70" transform="translate(174.951172 0)"/>
     <use xlink:href="#MalgunGothic-5f" transform="translate(235.009766 0)"/>
     <use xlink:href="#MalgunGothic-73" transform="translate(277.587891 0)"/>
     <use xlink:href="#MalgunGothic-74" transform="translate(320.898438 0)"/>
     <use xlink:href="#MalgunGothic-61" transform="translate(355.371094 0)"/>
     <use xlink:href="#MalgunGothic-72" transform="translate(407.373047 0)"/>
     <use xlink:href="#MalgunGothic-74" transform="translate(445.849609 0)"/>
    </g>
   </g>
   <g id="text_2">
    <!-- 웨어러블 원천 데이터 -->
    <g style="fill: #1f2430" transform="translate(78.838594 242.841089) scale(0.105 -0.105)">
     <defs>
      <path id="MalgunGothic-c6e8" d="M 5056 -563 
L 5056 5466 
L 5522 5466 
L 5522 -563 
L 5056 -563 
z
M 4025 -366 
L 4025 856 
L 2913 856 
L 2913 1259 
L 4025 1259 
L 4025 5344 
L 4488 5344 
L 4488 -366 
L 4025 -366 
z
M 1991 2747 
Q 1391 2747 986 3095 
Q 581 3444 581 3963 
Q 581 4497 982 4837 
Q 1384 5178 1991 5178 
Q 2600 5178 2998 4842 
Q 3397 4506 3397 3963 
Q 3397 3438 2992 3092 
Q 2588 2747 1991 2747 
z
M 1991 4781 
Q 1594 4781 1316 4545 
Q 1038 4309 1038 3963 
Q 1038 3613 1313 3378 
Q 1588 3144 1991 3144 
Q 2400 3144 2672 3372 
Q 2944 3600 2944 3963 
Q 2944 4325 2672 4553 
Q 2400 4781 1991 4781 
z
M 1766 -359 
L 1766 1819 
Q 809 1791 331 1791 
L 281 2216 
Q 2416 2216 3675 2303 
L 3706 1894 
Q 3275 1866 2228 1831 
L 2228 -359 
L 1766 -359 
z
" transform="scale(0.015625)"/>
      <path id="MalgunGothic-c5b4" d="M 3781 2822 
Q 3731 1925 3314 1445 
Q 2897 966 2259 966 
Q 1572 966 1150 1514 
Q 728 2063 728 3016 
Q 728 3978 1145 4520 
Q 1563 5063 2259 5063 
Q 2900 5063 3312 4583 
Q 3725 4103 3775 3238 
L 4891 3238 
L 4891 5466 
L 5356 5466 
L 5356 -563 
L 4891 -563 
L 4891 2822 
L 3781 2822 
z
M 2259 4647 
Q 1775 4647 1483 4206 
Q 1191 3766 1191 3016 
Q 1191 2269 1487 1825 
Q 1784 1381 2259 1381 
Q 2728 1381 3028 1831 
Q 3328 2281 3328 3016 
Q 3328 3766 3034 4206 
Q 2741 4647 2259 4647 
z
" transform="scale(0.015625)"/>
      <path id="MalgunGothic-b7ec" d="M 4959 -563 
L 4959 2566 
L 3866 2566 
L 3866 2981 
L 4959 2981 
L 4959 5466 
L 5428 5466 
L 5428 -563 
L 4959 -563 
z
M 922 781 
L 922 3169 
L 3091 3169 
L 3091 4506 
L 934 4506 
L 934 4922 
L 3559 4922 
L 3559 2766 
L 1388 2766 
L 1388 1191 
Q 2872 1191 3298 1206 
Q 3725 1222 4056 1288 
L 4134 922 
Q 3369 781 922 781 
z
" transform="scale(0.015625)"/>
      <path id="MalgunGothic-be14" d="M 1356 3366 
L 1356 5381 
L 1819 5381 
L 1819 4703 
L 4581 4703 
L 4581 5381 
L 5044 5381 
L 5044 3366 
L 1356 3366 
z
M 4581 4325 
L 1819 4325 
L 1819 3756 
L 4581 3756 
L 4581 4325 
z
M 403 2406 
L 403 2797 
L 5997 2797 
L 5997 2406 
L 403 2406 
z
M 1313 -506 
L 1313 863 
L 4609 863 
L 4609 1409 
L 1313 1409 
L 1313 1800 
L 5075 1800 
L 5075 494 
L 1778 494 
L 1778 -116 
L 5234 -116 
L 5234 -506 
L 1313 -506 
z
" transform="scale(0.015625)"/>
      <path id="MalgunGothic-c6d0" d="M 4978 697 
L 4978 1344 
L 3659 1344 
L 3659 1759 
L 4978 1759 
L 4978 5466 
L 5453 5466 
L 5453 697 
L 4978 697 
z
M 2625 3059 
Q 1966 3059 1548 3390 
Q 1131 3722 1131 4213 
Q 1131 4697 1545 5026 
Q 1959 5356 2625 5356 
Q 3288 5356 3702 5029 
Q 4116 4703 4116 4213 
Q 4116 3719 3700 3389 
Q 3284 3059 2625 3059 
z
M 2625 4959 
Q 2163 4959 1881 4734 
Q 1600 4509 1600 4213 
Q 1600 3909 1881 3682 
Q 2163 3456 2625 3456 
Q 3088 3456 3370 3682 
Q 3653 3909 3653 4213 
Q 3653 4509 3370 4734 
Q 3088 4959 2625 4959 
z
M 4556 2291 
Q 4100 2259 2881 2209 
L 2881 909 
L 2419 909 
L 2419 2188 
Q 1209 2144 641 2144 
L 575 2578 
Q 2853 2578 4525 2694 
L 4556 2291 
z
M 1509 -403 
L 1509 1403 
L 1978 1403 
L 1978 13 
L 5600 13 
L 5600 -403 
L 1509 -403 
z
" transform="scale(0.015625)"/>
      <path id="MalgunGothic-cc9c" d="M 4884 1056 
L 4884 3278 
L 3541 3278 
L 3541 3694 
L 4884 3694 
L 4884 5466 
L 5350 5466 
L 5350 1056 
L 4884 1056 
z
M 3756 1881 
Q 3306 2091 2892 2470 
Q 2478 2850 2297 3200 
Q 2109 2797 1686 2380 
Q 1263 1963 831 1747 
L 488 2106 
Q 1100 2319 1576 2876 
Q 2053 3434 2053 3916 
L 2053 4347 
L 678 4347 
L 678 4763 
L 2059 4763 
L 2059 5459 
L 2528 5459 
L 2528 4763 
L 3897 4763 
L 3897 4347 
L 2528 4347 
L 2528 3922 
Q 2528 3456 3006 2948 
Q 3484 2441 4072 2266 
L 3756 1881 
z
M 1638 -366 
L 1638 1581 
L 2113 1581 
L 2113 44 
L 5509 44 
L 5509 -366 
L 1638 -366 
z
" transform="scale(0.015625)"/>
      <path id="MalgunGothic-b370" d="M 5044 -563 
L 5044 5466 
L 5509 5466 
L 5509 -563 
L 5044 -563 
z
M 3897 -366 
L 3897 2859 
L 2650 2859 
L 2650 3272 
L 3897 3272 
L 3897 5344 
L 4359 5344 
L 4359 -366 
L 3897 -366 
z
M 3359 1094 
Q 2766 1019 909 1019 
L 909 4966 
L 3138 4966 
L 3138 4550 
L 1369 4550 
L 1369 1428 
Q 2897 1428 3328 1491 
L 3359 1094 
z
" transform="scale(0.015625)"/>
      <path id="MalgunGothic-c774" d="M 4947 -563 
L 4947 5466 
L 5416 5466 
L 5416 -563 
L 4947 -563 
z
M 2284 959 
Q 1597 959 1173 1514 
Q 750 2069 750 3016 
Q 750 3975 1169 4522 
Q 1588 5069 2284 5069 
Q 2978 5069 3403 4522 
Q 3828 3975 3828 3016 
Q 3828 2063 3401 1511 
Q 2975 959 2284 959 
z
M 2284 4653 
Q 1803 4653 1503 4204 
Q 1203 3756 1203 3016 
Q 1203 2278 1506 1826 
Q 1809 1375 2284 1375 
Q 2756 1375 3061 1828 
Q 3366 2281 3366 3016 
Q 3366 3759 3067 4206 
Q 2769 4653 2284 4653 
z
" transform="scale(0.015625)"/>
      <path id="MalgunGothic-d130" d="M 4891 -563 
L 4891 2516 
L 3706 2516 
L 3706 2925 
L 4891 2925 
L 4891 5466 
L 5356 5466 
L 5356 -563 
L 4891 -563 
z
M 1422 2816 
L 1422 1331 
L 2144 1331 
Q 3525 1331 4141 1409 
L 4172 1006 
Q 3694 950 3141 936 
Q 2588 922 953 922 
L 953 4953 
L 3841 4953 
L 3841 4531 
L 1422 4531 
L 1422 3219 
L 3181 3219 
L 3181 2816 
L 1422 2816 
z
" transform="scale(0.015625)"/>
     </defs>
     <use xlink:href="#MalgunGothic-c6e8"/>
     <use xlink:href="#MalgunGothic-c5b4" transform="translate(100 0)"/>
     <use xlink:href="#MalgunGothic-b7ec" transform="translate(200 0)"/>
     <use xlink:href="#MalgunGothic-be14" transform="translate(300 0)"/>
     <use xlink:href="#MalgunGothic-20" transform="translate(400 0)"/>
     <use xlink:href="#MalgunGothic-c6d0" transform="translate(435.15625 0)"/>
     <use xlink:href="#MalgunGothic-cc9c" transform="translate(535.15625 0)"/>
     <use xlink:href="#MalgunGothic-20" transform="translate(635.15625 0)"/>
     <use xlink:href="#MalgunGothic-b370" transform="translate(670.3125 0)"/>
     <use xlink:href="#MalgunGothic-c774" transform="translate(770.3125 0)"/>
     <use xlink:href="#MalgunGothic-d130" transform="translate(870.3125 0)"/>
    </g>
    <!-- steps·calories·HR -->
    <g style="fill: #1f2430" transform="translate(90.322148 254.730075) scale(0.105 -0.105)">
     <defs>
      <path id="MalgunGothic-b7" d="M 700 1644 
Q 628 1644 565 1672 
Q 503 1700 456 1747 
Q 409 1794 382 1858 
Q 356 1922 356 1994 
Q 356 2066 382 2130 
Q 409 2194 456 2241 
Q 503 2288 565 2316 
Q 628 2344 700 2344 
Q 772 2344 834 2316 
Q 897 2288 944 2241 
Q 991 2194 1017 2130 
Q 1044 2066 1044 1994 
Q 1044 1925 1017 1861 
Q 991 1797 944 1748 
Q 897 1700 834 1672 
Q 772 1644 700 1644 
z
" transform="scale(0.015625)"/>
      <path id="MalgunGothic-48" d="M 4028 0 
L 3525 0 
L 3525 2109 
L 1113 2109 
L 1113 0 
L 609 0 
L 609 4600 
L 1113 4600 
L 1113 2569 
L 3525 2569 
L 3525 4600 
L 4028 4600 
L 4028 0 
z
" transform="scale(0.015625)"/>
      <path id="MalgunGothic-52" d="M 3866 0 
L 3259 0 
L 2488 1294 
Q 2241 1706 2044 1837 
Q 1847 1969 1569 1969 
L 1113 1969 
L 1113 0 
L 609 0 
L 609 4600 
L 1963 4600 
Q 2597 4600 2970 4272 
Q 3344 3944 3344 3375 
Q 3344 2422 2325 2138 
L 2325 2125 
Q 2519 2041 2645 1902 
Q 2772 1763 3006 1381 
L 3866 0 
z
M 1113 4128 
L 1113 2438 
L 1866 2438 
Q 2291 2438 2552 2686 
Q 2813 2934 2813 3334 
Q 2813 3709 2570 3918 
Q 2328 4128 1872 4128 
L 1113 4128 
z
" transform="scale(0.015625)"/>
     </defs>
     <use xlink:href="#MalgunGothic-73"/>
     <use xlink:href="#MalgunGothic-74" transform="translate(43.310547 0)"/>
     <use xlink:href="#MalgunGothic-65" transform="translate(76.908203 0)"/>
     <use xlink:href="#MalgunGothic-70" transform="translate(130.423828 0)"/>
     <use xlink:href="#MalgunGothic-73" transform="translate(190.482422 0)"/>
     <use xlink:href="#MalgunGothic-b7" transform="translate(233.792969 0)"/>
     <use xlink:href="#MalgunGothic-63" transform="translate(255.667969 0)"/>
     <use xlink:href="#MalgunGothic-61" transform="translate(302.933594 0)"/>
     <use xlink:href="#MalgunGothic-6c" transform="translate(354.935547 0)"/>
     <use xlink:href="#MalgunGothic-6f" transform="translate(379.544922 0)"/>
     <use xlink:href="#MalgunGothic-72" transform="translate(439.457031 0)"/>
     <use xlink:href="#MalgunGothic-69" transform="translate(474.808594 0)"/>
     <use xlink:href="#MalgunGothic-65" transform="translate(499.417969 0)"/>
     <use xlink:href="#MalgunGothic-73" transform="translate(552.933594 0)"/>
     <use xlink:href="#MalgunGothic-b7" transform="translate(596.244141 0)"/>
     <use xlink:href="#MalgunGothic-48" transform="translate(618.119141 0)"/>
     <use xlink:href="#MalgunGothic-52" transform="translate(690.580078 0)"/>
    </g>
    <!-- previous-day activity -->
    <g style="fill: #1f2430" transform="translate(80.6925 266.619061) scale(0.105 -0.105)">
     <defs>
      <path id="MalgunGothic-76" d="M 3084 3284 
L 1769 0 
L 1294 0 
L 47 3284 
L 594 3284 
L 1441 872 
Q 1531 609 1556 425 
L 1572 425 
Q 1603 669 1672 863 
L 2563 3284 
L 3084 3284 
z
" transform="scale(0.015625)"/>
      <path id="MalgunGothic-75" d="M 3166 0 
L 2669 0 
L 2669 519 
L 2656 519 
Q 2331 -78 1644 -78 
Q 469 -78 469 1322 
L 469 3284 
L 959 3284 
L 959 1403 
Q 959 344 1766 344 
Q 2159 344 2414 636 
Q 2669 928 2669 1394 
L 2669 3284 
L 3166 3284 
L 3166 0 
z
" transform="scale(0.015625)"/>
      <path id="MalgunGothic-2d" d="M 2213 1634 
L 463 1634 
L 463 2031 
L 2213 2031 
L 2213 1634 
z
" transform="scale(0.015625)"/>
      <path id="MalgunGothic-79" d="M 3119 3284 
L 1597 -544 
Q 1197 -1547 481 -1547 
Q 313 -1547 156 -1509 
L 156 -1056 
Q 316 -1109 459 -1109 
Q 859 -1109 1059 -628 
L 1328 6 
L 47 3284 
L 597 3284 
L 1503 722 
Q 1513 697 1572 488 
L 1588 488 
L 1650 716 
L 2603 3284 
L 3119 3284 
z
" transform="scale(0.015625)"/>
     </defs>
     <use xlink:href="#MalgunGothic-70"/>
     <use xlink:href="#MalgunGothic-72" transform="translate(60.058594 0)"/>
     <use xlink:href="#MalgunGothic-65" transform="translate(94.035156 0)"/>
     <use xlink:href="#MalgunGothic-76" transform="translate(147.550781 0)"/>
     <use xlink:href="#MalgunGothic-69" transform="translate(196.28125 0)"/>
     <use xlink:href="#MalgunGothic-6f" transform="translate(220.890625 0)"/>
     <use xlink:href="#MalgunGothic-75" transform="translate(280.802734 0)"/>
     <use xlink:href="#MalgunGothic-73" transform="translate(338.615234 0)"/>
     <use xlink:href="#MalgunGothic-2d" transform="translate(381.925781 0)"/>
     <use xlink:href="#MalgunGothic-64" transform="translate(422.941406 0)"/>
     <use xlink:href="#MalgunGothic-61" transform="translate(483.146484 0)"/>
     <use xlink:href="#MalgunGothic-79" transform="translate(535.148438 0)"/>
     <use xlink:href="#MalgunGothic-20" transform="translate(584.416016 0)"/>
     <use xlink:href="#MalgunGothic-61" transform="translate(619.572266 0)"/>
     <use xlink:href="#MalgunGothic-63" transform="translate(671.574219 0)"/>
     <use xlink:href="#MalgunGothic-74" transform="translate(718.839844 0)"/>
     <use xlink:href="#MalgunGothic-69" transform="translate(753.3125 0)"/>
     <use xlink:href="#MalgunGothic-76" transform="translate(777.921875 0)"/>
     <use xlink:href="#MalgunGothic-69" transform="translate(826.652344 0)"/>
     <use xlink:href="#MalgunGothic-74" transform="translate(851.261719 0)"/>
     <use xlink:href="#MalgunGothic-79" transform="translate(885.734375 0)"/>
    </g>
   </g>
   <g id="text_3">
    <!-- Stage 1 feature builder -->
    <g style="fill: #1f2430" transform="translate(228.386367 194.421045) scale(0.105 -0.105)">
     <defs>
      <path id="MalgunGothic-53" d="M 394 797 
Q 606 613 964 500 
Q 1322 388 1625 388 
Q 2628 388 2628 1116 
Q 2628 1325 2523 1484 
Q 2419 1644 2250 1756 
Q 2081 1869 1547 2144 
Q 903 2475 651 2754 
Q 400 3034 400 3456 
Q 400 4019 858 4347 
Q 1316 4675 1988 4675 
Q 2669 4675 2963 4513 
L 2963 3928 
Q 2563 4206 1922 4206 
Q 1484 4206 1207 4018 
Q 931 3831 931 3500 
Q 931 3200 1126 3011 
Q 1322 2822 1938 2522 
Q 2656 2163 2906 1844 
Q 3156 1525 3156 1153 
Q 3156 556 2725 239 
Q 2294 -78 1531 -78 
Q 1291 -78 927 -1 
Q 563 75 394 188 
L 394 797 
z
" transform="scale(0.015625)"/>
      <path id="MalgunGothic-67" d="M 3313 259 
Q 3313 -1547 1603 -1547 
Q 1003 -1547 538 -1313 
L 538 -806 
Q 1088 -1116 1600 -1116 
Q 2822 -1116 2822 194 
L 2822 559 
L 2809 559 
Q 2422 -78 1675 -78 
Q 1066 -78 691 362 
Q 316 803 316 1534 
Q 316 2375 722 2867 
Q 1128 3359 1816 3359 
Q 2484 3359 2809 2822 
L 2822 2822 
L 2822 3284 
L 3313 3284 
L 3313 259 
z
M 2822 1978 
Q 2822 2378 2547 2659 
Q 2272 2941 1878 2941 
Q 1384 2941 1101 2577 
Q 819 2213 819 1572 
Q 819 1016 1092 680 
Q 1366 344 1803 344 
Q 2247 344 2534 666 
Q 2822 988 2822 1478 
L 2822 1978 
z
" transform="scale(0.015625)"/>
      <path id="MalgunGothic-31" d="M 2231 0 
L 1734 0 
L 1734 3972 
Q 1591 3828 1266 3661 
Q 941 3494 672 3428 
L 672 3959 
Q 1016 4056 1409 4275 
Q 1803 4494 2031 4700 
L 2231 4700 
L 2231 0 
z
" transform="scale(0.015625)"/>
      <path id="MalgunGothic-66" d="M 2128 4422 
Q 1975 4506 1778 4506 
Q 1222 4506 1222 3800 
L 1222 3284 
L 1991 3284 
L 1991 2856 
L 1222 2856 
L 1222 0 
L 734 0 
L 734 2856 
L 172 2856 
L 172 3284 
L 734 3284 
L 734 3825 
Q 734 4341 1026 4636 
Q 1319 4931 1753 4931 
Q 1994 4931 2128 4875 
L 2128 4422 
z
" transform="scale(0.015625)"/>
      <path id="MalgunGothic-62" d="M 1034 481 
L 1034 0 
L 538 0 
L 538 4859 
L 1034 4859 
L 1034 2703 
L 1047 2703 
Q 1438 3359 2184 3359 
Q 2813 3359 3173 2917 
Q 3534 2475 3534 1738 
Q 3534 906 3126 414 
Q 2719 -78 2034 -78 
Q 1384 -78 1047 481 
L 1034 481 
z
M 1034 1334 
Q 1034 922 1307 633 
Q 1581 344 1991 344 
Q 2475 344 2751 716 
Q 3028 1088 3028 1753 
Q 3028 2303 2767 2622 
Q 2506 2941 2072 2941 
Q 1616 2941 1325 2616 
Q 1034 2291 1034 1803 
L 1034 1334 
z
" transform="scale(0.015625)"/>
     </defs>
     <use xlink:href="#MalgunGothic-53"/>
     <use xlink:href="#MalgunGothic-74" transform="translate(50.796875 0)"/>
     <use xlink:href="#MalgunGothic-61" transform="translate(85.269531 0)"/>
     <use xlink:href="#MalgunGothic-67" transform="translate(137.271484 0)"/>
     <use xlink:href="#MalgunGothic-65" transform="translate(197.476562 0)"/>
     <use xlink:href="#MalgunGothic-20" transform="translate(250.992188 0)"/>
     <use xlink:href="#MalgunGothic-31" transform="translate(286.148438 0)"/>
     <use xlink:href="#MalgunGothic-20" transform="translate(341.226562 0)"/>
     <use xlink:href="#MalgunGothic-66" transform="translate(376.382812 0)"/>
     <use xlink:href="#MalgunGothic-65" transform="translate(408.023438 0)"/>
     <use xlink:href="#MalgunGothic-61" transform="translate(461.539062 0)"/>
     <use xlink:href="#MalgunGothic-74" transform="translate(513.541016 0)"/>
     <use xlink:href="#MalgunGothic-75" transform="translate(548.013672 0)"/>
     <use xlink:href="#MalgunGothic-72" transform="translate(605.826172 0)"/>
     <use xlink:href="#MalgunGothic-65" transform="translate(639.802734 0)"/>
     <use xlink:href="#MalgunGothic-20" transform="translate(693.318359 0)"/>
     <use xlink:href="#MalgunGothic-62" transform="translate(728.474609 0)"/>
     <use xlink:href="#MalgunGothic-75" transform="translate(788.533203 0)"/>
     <use xlink:href="#MalgunGothic-69" transform="translate(846.345703 0)"/>
     <use xlink:href="#MalgunGothic-6c" transform="translate(870.955078 0)"/>
     <use xlink:href="#MalgunGothic-64" transform="translate(895.564453 0)"/>
     <use xlink:href="#MalgunGothic-65" transform="translate(955.769531 0)"/>
     <use xlink:href="#MalgunGothic-72" transform="translate(1009.285156 0)"/>
    </g>
    <!-- raw feature 70개 -->
    <g style="fill: #1f2430" transform="translate(243.413672 206.365812) scale(0.105 -0.105)">
     <defs>
      <path id="MalgunGothic-77" d="M 4634 3284 
L 3650 0 
L 3134 0 
L 2447 2378 
Q 2409 2506 2397 2675 
L 2384 2675 
Q 2384 2609 2316 2384 
L 1572 0 
L 1078 0 
L 81 3284 
L 600 3284 
L 1294 794 
Q 1325 681 1338 503 
L 1363 503 
Q 1378 656 1422 800 
L 2191 3284 
L 2644 3284 
L 3334 788 
Q 3359 700 3381 497 
L 3409 497 
Q 3416 631 3463 788 
L 4144 3284 
L 4634 3284 
z
" transform="scale(0.015625)"/>
      <path id="MalgunGothic-37" d="M 3213 4297 
Q 2478 3006 2064 1918 
Q 1650 831 1550 0 
L 1009 0 
Q 1084 531 1290 1176 
Q 1497 1822 1815 2537 
Q 2134 3253 2631 4147 
L 291 4147 
L 291 4600 
L 3213 4600 
L 3213 4297 
z
" transform="scale(0.015625)"/>
      <path id="MalgunGothic-30" d="M 278 2206 
Q 278 3425 675 4050 
Q 1072 4675 1819 4675 
Q 3253 4675 3253 2319 
Q 3253 1156 2854 539 
Q 2456 -78 1716 -78 
Q 1016 -78 647 520 
Q 278 1119 278 2206 
z
M 784 2231 
Q 784 344 1769 344 
Q 2747 344 2747 2259 
Q 2747 4250 1794 4250 
Q 784 4250 784 2231 
z
" transform="scale(0.015625)"/>
      <path id="MalgunGothic-ac1c" d="M 5038 -563 
L 5038 2431 
L 4288 2431 
L 4288 -378 
L 3828 -378 
L 3828 5344 
L 4288 5344 
L 4288 2847 
L 5038 2847 
L 5038 5466 
L 5503 5466 
L 5503 -563 
L 5038 -563 
z
M 3078 4941 
Q 2981 2394 813 878 
L 441 1197 
Q 1263 1634 1891 2575 
Q 2519 3516 2584 4531 
L 800 4531 
L 800 4941 
L 3078 4941 
z
" transform="scale(0.015625)"/>
     </defs>
     <use xlink:href="#MalgunGothic-72"/>
     <use xlink:href="#MalgunGothic-61" transform="translate(35.351562 0)"/>
     <use xlink:href="#MalgunGothic-77" transform="translate(87.353516 0)"/>
     <use xlink:href="#MalgunGothic-20" transform="translate(160.986328 0)"/>
     <use xlink:href="#MalgunGothic-66" transform="translate(196.142578 0)"/>
     <use xlink:href="#MalgunGothic-65" transform="translate(227.783203 0)"/>
     <use xlink:href="#MalgunGothic-61" transform="translate(281.298828 0)"/>
     <use xlink:href="#MalgunGothic-74" transform="translate(333.300781 0)"/>
     <use xlink:href="#MalgunGothic-75" transform="translate(367.773438 0)"/>
     <use xlink:href="#MalgunGothic-72" transform="translate(425.585938 0)"/>
     <use xlink:href="#MalgunGothic-65" transform="translate(459.5625 0)"/>
     <use xlink:href="#MalgunGothic-20" transform="translate(513.078125 0)"/>
     <use xlink:href="#MalgunGothic-37" transform="translate(548.234375 0)"/>
     <use xlink:href="#MalgunGothic-30" transform="translate(603.3125 0)"/>
     <use xlink:href="#MalgunGothic-ac1c" transform="translate(658.390625 0)"/>
    </g>
   </g>
   <g id="text_4">
    <!-- Train median imputer -->
    <g style="fill: #1f2430" transform="translate(385.589297 194.389873) scale(0.105 -0.105)">
     <defs>
      <path id="MalgunGothic-54" d="M 3294 4134 
L 1966 4134 
L 1966 0 
L 1456 0 
L 1456 4134 
L 134 4134 
L 134 4600 
L 3294 4600 
L 3294 4134 
z
" transform="scale(0.015625)"/>
      <path id="MalgunGothic-6d" d="M 5166 0 
L 4669 0 
L 4669 1884 
Q 4669 2463 4495 2702 
Q 4322 2941 3922 2941 
Q 3584 2941 3342 2623 
Q 3100 2306 3100 1875 
L 3100 0 
L 2606 0 
L 2606 1953 
Q 2606 2941 1844 2941 
Q 1497 2941 1265 2642 
Q 1034 2344 1034 1875 
L 1034 0 
L 538 0 
L 538 3284 
L 1034 3284 
L 1034 2763 
L 1047 2763 
Q 1391 3359 2063 3359 
Q 2381 3359 2636 3176 
Q 2891 2994 2991 2675 
Q 3356 3359 4081 3359 
Q 5166 3359 5166 2022 
L 5166 0 
z
" transform="scale(0.015625)"/>
     </defs>
     <use xlink:href="#MalgunGothic-54"/>
     <use xlink:href="#MalgunGothic-72" transform="translate(43.994141 0)"/>
     <use xlink:href="#MalgunGothic-61" transform="translate(79.345703 0)"/>
     <use xlink:href="#MalgunGothic-69" transform="translate(131.347656 0)"/>
     <use xlink:href="#MalgunGothic-6e" transform="translate(155.957031 0)"/>
     <use xlink:href="#MalgunGothic-20" transform="translate(213.769531 0)"/>
     <use xlink:href="#MalgunGothic-6d" transform="translate(248.925781 0)"/>
     <use xlink:href="#MalgunGothic-65" transform="translate(336.914062 0)"/>
     <use xlink:href="#MalgunGothic-64" transform="translate(390.429688 0)"/>
     <use xlink:href="#MalgunGothic-69" transform="translate(450.634766 0)"/>
     <use xlink:href="#MalgunGothic-61" transform="translate(475.244141 0)"/>
     <use xlink:href="#MalgunGothic-6e" transform="translate(527.246094 0)"/>
     <use xlink:href="#MalgunGothic-20" transform="translate(585.058594 0)"/>
     <use xlink:href="#MalgunGothic-69" transform="translate(620.214844 0)"/>
     <use xlink:href="#MalgunGothic-6d" transform="translate(644.824219 0)"/>
     <use xlink:href="#MalgunGothic-70" transform="translate(732.8125 0)"/>
     <use xlink:href="#MalgunGothic-75" transform="translate(792.871094 0)"/>
     <use xlink:href="#MalgunGothic-74" transform="translate(850.683594 0)"/>
     <use xlink:href="#MalgunGothic-65" transform="translate(884.28125 0)"/>
     <use xlink:href="#MalgunGothic-72" transform="translate(937.796875 0)"/>
    </g>
    <!-- + StandardScaler -->
    <g style="fill: #1f2430" transform="translate(396.058945 206.278859) scale(0.105 -0.105)">
     <defs>
      <path id="MalgunGothic-2b" d="M 3750 1706 
L 2450 1706 
L 2450 413 
L 2041 413 
L 2041 1706 
L 744 1706 
L 744 2122 
L 2041 2122 
L 2041 3416 
L 2450 3416 
L 2450 2122 
L 3750 2122 
L 3750 1706 
z
" transform="scale(0.015625)"/>
     </defs>
     <use xlink:href="#MalgunGothic-2b"/>
     <use xlink:href="#MalgunGothic-20" transform="translate(70.068359 0)"/>
     <use xlink:href="#MalgunGothic-53" transform="translate(105.224609 0)"/>
     <use xlink:href="#MalgunGothic-74" transform="translate(156.021484 0)"/>
     <use xlink:href="#MalgunGothic-61" transform="translate(190.494141 0)"/>
     <use xlink:href="#MalgunGothic-6e" transform="translate(242.496094 0)"/>
     <use xlink:href="#MalgunGothic-64" transform="translate(300.308594 0)"/>
     <use xlink:href="#MalgunGothic-61" transform="translate(360.513672 0)"/>
     <use xlink:href="#MalgunGothic-72" transform="translate(412.515625 0)"/>
     <use xlink:href="#MalgunGothic-64" transform="translate(446.492188 0)"/>
     <use xlink:href="#MalgunGothic-53" transform="translate(506.697266 0)"/>
     <use xlink:href="#MalgunGothic-63" transform="translate(560.994141 0)"/>
     <use xlink:href="#MalgunGothic-61" transform="translate(608.259766 0)"/>
     <use xlink:href="#MalgunGothic-6c" transform="translate(660.261719 0)"/>
     <use xlink:href="#MalgunGothic-65" transform="translate(684.871094 0)"/>
     <use xlink:href="#MalgunGothic-72" transform="translate(738.386719 0)"/>
    </g>
   </g>
   <g id="text_5">
    <!-- Zero-variance 제거 -->
    <g style="fill: #1f2430" transform="translate(528.705938 193.802316) scale(0.105 -0.105)">
     <defs>
      <path id="MalgunGothic-5a" d="M 3591 4500 
L 872 463 
L 3522 463 
L 3522 0 
L 106 0 
L 106 122 
L 2794 4134 
L 322 4134 
L 322 4600 
L 3591 4600 
L 3591 4500 
z
" transform="scale(0.015625)"/>
      <path id="MalgunGothic-c81c" d="M 5038 -563 
L 5038 5466 
L 5503 5466 
L 5503 -563 
L 5038 -563 
z
M 3944 -378 
L 3944 2975 
L 2894 2975 
L 2894 3391 
L 3944 3391 
L 3944 5344 
L 4403 5344 
L 4403 -378 
L 3944 -378 
z
M 3116 850 
Q 2306 1647 1984 2734 
Q 1881 2291 1529 1722 
Q 1178 1153 775 769 
L 409 1063 
Q 941 1438 1350 2248 
Q 1759 3059 1759 3834 
L 1759 4525 
L 634 4525 
L 634 4941 
L 3359 4941 
L 3359 4525 
L 2222 4525 
L 2222 3828 
Q 2222 3075 2589 2328 
Q 2956 1581 3469 1153 
L 3116 850 
z
" transform="scale(0.015625)"/>
      <path id="MalgunGothic-ac70" d="M 4897 -563 
L 4897 2663 
L 3419 2663 
L 3419 3078 
L 4897 3078 
L 4897 5466 
L 5363 5466 
L 5363 -563 
L 4897 -563 
z
M 3547 4928 
Q 3481 2356 831 863 
L 481 1241 
Q 1438 1638 2178 2516 
Q 2919 3394 3047 4513 
L 728 4513 
L 728 4928 
L 3547 4928 
z
" transform="scale(0.015625)"/>
     </defs>
     <use xlink:href="#MalgunGothic-5a"/>
     <use xlink:href="#MalgunGothic-65" transform="translate(58.251953 0)"/>
     <use xlink:href="#MalgunGothic-72" transform="translate(111.767578 0)"/>
     <use xlink:href="#MalgunGothic-6f" transform="translate(145.744141 0)"/>
     <use xlink:href="#MalgunGothic-2d" transform="translate(205.65625 0)"/>
     <use xlink:href="#MalgunGothic-76" transform="translate(246.671875 0)"/>
     <use xlink:href="#MalgunGothic-61" transform="translate(293.402344 0)"/>
     <use xlink:href="#MalgunGothic-72" transform="translate(345.404297 0)"/>
     <use xlink:href="#MalgunGothic-69" transform="translate(380.755859 0)"/>
     <use xlink:href="#MalgunGothic-61" transform="translate(405.365234 0)"/>
     <use xlink:href="#MalgunGothic-6e" transform="translate(457.367188 0)"/>
     <use xlink:href="#MalgunGothic-63" transform="translate(515.179688 0)"/>
     <use xlink:href="#MalgunGothic-65" transform="translate(562.445312 0)"/>
     <use xlink:href="#MalgunGothic-20" transform="translate(615.960938 0)"/>
     <use xlink:href="#MalgunGothic-c81c" transform="translate(651.117188 0)"/>
     <use xlink:href="#MalgunGothic-ac70" transform="translate(751.117188 0)"/>
    </g>
    <!-- 최종 input 58개 -->
    <g style="fill: #1f2430" transform="translate(535.840195 206.866416) scale(0.105 -0.105)">
     <defs>
      <path id="MalgunGothic-cd5c" d="M 5484 5466 
L 5484 -563 
L 5019 -563 
L 5019 5466 
L 5484 5466 
z
M 2778 4250 
Q 2797 3766 3325 3298 
Q 3853 2831 4434 2734 
L 4116 2356 
Q 3628 2522 3158 2883 
Q 2688 3244 2541 3547 
Q 2391 3228 1923 2823 
Q 1456 2419 972 2228 
L 634 2572 
Q 1247 2744 1767 3239 
Q 2288 3734 2309 4250 
L 838 4250 
L 838 4666 
L 2309 4666 
L 2309 5369 
L 2784 5369 
L 2784 4666 
L 4206 4666 
L 4206 4250 
L 2778 4250 
z
M 4659 659 
Q 2878 556 500 556 
L 453 972 
Q 1447 972 2309 991 
L 2309 2356 
L 2778 2356 
L 2778 1000 
Q 4206 1034 4634 1063 
L 4659 659 
z
" transform="scale(0.015625)"/>
      <path id="MalgunGothic-c885" d="M 5459 3272 
Q 4716 3391 4080 3722 
Q 3444 4053 3206 4409 
Q 2981 4091 2353 3750 
Q 1725 3409 972 3278 
L 697 3653 
Q 1478 3713 2139 4083 
Q 2800 4453 2950 4878 
L 1025 4878 
L 1025 5300 
L 5375 5300 
L 5375 4878 
L 3456 4878 
Q 3597 4456 4251 4090 
Q 4906 3725 5703 3653 
L 5459 3272 
z
M 403 2203 
L 403 2625 
L 2963 2625 
L 2963 3506 
L 3438 3506 
L 3438 2625 
L 5997 2625 
L 5997 2203 
L 403 2203 
z
M 3200 -500 
Q 2263 -500 1766 -200 
Q 1269 100 1269 628 
Q 1269 1144 1767 1442 
Q 2266 1741 3200 1741 
Q 4134 1741 4632 1442 
Q 5131 1144 5131 628 
Q 5131 100 4634 -200 
Q 4138 -500 3200 -500 
z
M 3200 1344 
Q 2481 1344 2117 1155 
Q 1753 966 1753 628 
Q 1753 284 2123 90 
Q 2494 -103 3200 -103 
Q 3903 -103 4275 90 
Q 4647 284 4647 628 
Q 4647 966 4281 1155 
Q 3916 1344 3200 1344 
z
" transform="scale(0.015625)"/>
      <path id="MalgunGothic-35" d="M 3072 1403 
Q 3072 722 2636 322 
Q 2200 -78 1469 -78 
Q 828 -78 516 113 
L 516 650 
Q 994 344 1475 344 
Q 1969 344 2270 630 
Q 2572 916 2572 1372 
Q 2572 1838 2265 2092 
Q 1959 2347 1381 2347 
Q 994 2347 603 2300 
L 759 4600 
L 2869 4600 
L 2869 4147 
L 1206 4147 
L 1106 2763 
Q 1347 2784 1547 2784 
Q 2263 2784 2667 2414 
Q 3072 2044 3072 1403 
z
" transform="scale(0.015625)"/>
      <path id="MalgunGothic-38" d="M 303 1281 
Q 303 1669 539 2011 
Q 775 2353 1153 2494 
Q 856 2647 675 2915 
Q 494 3184 494 3500 
Q 494 3828 659 4098 
Q 825 4369 1122 4522 
Q 1419 4675 1778 4675 
Q 2334 4675 2700 4342 
Q 3066 4009 3066 3500 
Q 3066 3181 2881 2914 
Q 2697 2647 2413 2494 
Q 2788 2350 3022 2009 
Q 3256 1669 3256 1281 
Q 3256 672 2843 297 
Q 2431 -78 1778 -78 
Q 1131 -78 717 301 
Q 303 681 303 1281 
z
M 809 1328 
Q 809 878 1081 611 
Q 1353 344 1781 344 
Q 2206 344 2482 619 
Q 2759 894 2759 1328 
Q 2759 1731 2482 2011 
Q 2206 2291 1781 2291 
Q 1372 2291 1090 2020 
Q 809 1750 809 1328 
z
M 1003 3459 
Q 1003 3125 1234 2900 
Q 1466 2675 1781 2675 
Q 2097 2675 2330 2900 
Q 2563 3125 2563 3459 
Q 2563 3803 2341 4026 
Q 2119 4250 1781 4250 
Q 1450 4250 1226 4029 
Q 1003 3809 1003 3459 
z
" transform="scale(0.015625)"/>
     </defs>
     <use xlink:href="#MalgunGothic-cd5c"/>
     <use xlink:href="#MalgunGothic-c885" transform="translate(100 0)"/>
     <use xlink:href="#MalgunGothic-20" transform="translate(200 0)"/>
     <use xlink:href="#MalgunGothic-69" transform="translate(235.15625 0)"/>
     <use xlink:href="#MalgunGothic-6e" transform="translate(259.765625 0)"/>
     <use xlink:href="#MalgunGothic-70" transform="translate(317.578125 0)"/>
     <use xlink:href="#MalgunGothic-75" transform="translate(377.636719 0)"/>
     <use xlink:href="#MalgunGothic-74" transform="translate(435.449219 0)"/>
     <use xlink:href="#MalgunGothic-20" transform="translate(469.921875 0)"/>
     <use xlink:href="#MalgunGothic-35" transform="translate(505.078125 0)"/>
     <use xlink:href="#MalgunGothic-38" transform="translate(560.15625 0)"/>
     <use xlink:href="#MalgunGothic-ac1c" transform="translate(615.234375 0)"/>
    </g>
   </g>
   <g id="text_6">
    <!-- MLP -->
    <g style="fill: #1f2430" transform="translate(666.288984 194.361982) scale(0.105 -0.105)">
     <defs>
      <path id="MalgunGothic-4d" d="M 4756 0 
L 4756 3106 
Q 4756 3466 4803 3994 
L 4788 3994 
Q 4713 3684 4653 3559 
L 3050 0 
L 2822 0 
L 1222 3534 
Q 1159 3669 1091 3994 
L 1075 3994 
Q 1100 3822 1100 3116 
L 1100 0 
L 609 0 
L 609 4600 
L 1269 4600 
L 2706 1359 
Q 2881 966 2922 816 
L 2941 816 
Q 2988 944 3166 1375 
L 4638 4600 
L 5259 4600 
L 5259 0 
L 4756 0 
z
" transform="scale(0.015625)"/>
      <path id="MalgunGothic-4c" d="M 2972 0 
L 609 0 
L 609 4600 
L 1113 4600 
L 1113 463 
L 2972 463 
L 2972 0 
z
" transform="scale(0.015625)"/>
      <path id="MalgunGothic-50" d="M 1113 1747 
L 1113 0 
L 609 0 
L 609 4600 
L 1850 4600 
Q 2575 4600 2979 4240 
Q 3384 3881 3384 3231 
Q 3384 2559 2909 2140 
Q 2434 1722 1728 1747 
L 1113 1747 
z
M 1113 4131 
L 1113 2219 
L 1691 2219 
Q 2256 2219 2554 2475 
Q 2853 2731 2853 3206 
Q 2853 4131 1759 4131 
L 1113 4131 
z
" transform="scale(0.015625)"/>
     </defs>
     <use xlink:href="#MalgunGothic-4d"/>
     <use xlink:href="#MalgunGothic-4c" transform="translate(91.699219 0)"/>
     <use xlink:href="#MalgunGothic-50" transform="translate(139.697266 0)"/>
    </g>
    <!-- sigmoid -->
    <g style="fill: #1f2430" transform="translate(657.676523 206.250968) scale(0.105 -0.105)">
     <use xlink:href="#MalgunGothic-73"/>
     <use xlink:href="#MalgunGothic-69" transform="translate(43.310547 0)"/>
     <use xlink:href="#MalgunGothic-67" transform="translate(67.919922 0)"/>
     <use xlink:href="#MalgunGothic-6d" transform="translate(128.125 0)"/>
     <use xlink:href="#MalgunGothic-6f" transform="translate(216.113281 0)"/>
     <use xlink:href="#MalgunGothic-69" transform="translate(276.025391 0)"/>
     <use xlink:href="#MalgunGothic-64" transform="translate(300.634766 0)"/>
    </g>
   </g>
   <g id="text_7">
    <!-- good_sleep_probability -->
    <g style="fill: #1f2430" transform="translate(549.340547 307.262198) scale(0.105 -0.105)">
     <use xlink:href="#MalgunGothic-67"/>
     <use xlink:href="#MalgunGothic-6f" transform="translate(60.205078 0)"/>
     <use xlink:href="#MalgunGothic-6f" transform="translate(120.117188 0)"/>
     <use xlink:href="#MalgunGothic-64" transform="translate(180.029297 0)"/>
     <use xlink:href="#MalgunGothic-5f" transform="translate(240.234375 0)"/>
     <use xlink:href="#MalgunGothic-73" transform="translate(282.8125 0)"/>
     <use xlink:href="#MalgunGothic-6c" transform="translate(326.123047 0)"/>
     <use xlink:href="#MalgunGothic-65" transform="translate(350.732422 0)"/>
     <use xlink:href="#MalgunGothic-65" transform="translate(404.248047 0)"/>
     <use xlink:href="#MalgunGothic-70" transform="translate(457.763672 0)"/>
     <use xlink:href="#MalgunGothic-5f" transform="translate(517.822266 0)"/>
     <use xlink:href="#MalgunGothic-70" transform="translate(560.400391 0)"/>
     <use xlink:href="#MalgunGothic-72" transform="translate(620.458984 0)"/>
     <use xlink:href="#MalgunGothic-6f" transform="translate(654.435547 0)"/>
     <use xlink:href="#MalgunGothic-62" transform="translate(714.347656 0)"/>
     <use xlink:href="#MalgunGothic-61" transform="translate(773.03125 0)"/>
     <use xlink:href="#MalgunGothic-62" transform="translate(825.033203 0)"/>
     <use xlink:href="#MalgunGothic-69" transform="translate(885.091797 0)"/>
     <use xlink:href="#MalgunGothic-6c" transform="translate(909.701172 0)"/>
     <use xlink:href="#MalgunGothic-69" transform="translate(934.310547 0)"/>
     <use xlink:href="#MalgunGothic-74" transform="translate(958.919922 0)"/>
     <use xlink:href="#MalgunGothic-79" transform="translate(993.392578 0)"/>
    </g>
    <!-- threshold 0.54 -->
    <g style="fill: #1f2430" transform="translate(570.06082 319.206966) scale(0.105 -0.105)">
     <defs>
      <path id="MalgunGothic-68" d="M 3238 0 
L 2744 0 
L 2744 1894 
Q 2744 2941 1963 2941 
Q 1572 2941 1303 2637 
Q 1034 2334 1034 1859 
L 1034 0 
L 538 0 
L 538 4859 
L 1034 4859 
L 1034 2734 
L 1047 2734 
Q 1425 3359 2128 3359 
Q 3238 3359 3238 2022 
L 3238 0 
z
" transform="scale(0.015625)"/>
      <path id="MalgunGothic-2e" d="M 356 275 
Q 356 422 459 523 
Q 563 625 700 625 
Q 838 625 941 523 
Q 1044 422 1044 275 
Q 1044 138 942 33 
Q 841 -72 700 -72 
Q 559 -72 457 29 
Q 356 131 356 275 
z
" transform="scale(0.015625)"/>
      <path id="MalgunGothic-34" d="M 2703 4600 
L 2703 1563 
L 3309 1563 
L 3309 1113 
L 2703 1113 
L 2703 0 
L 2213 0 
L 2213 1113 
L 50 1113 
L 50 1534 
Q 728 2297 1295 3109 
Q 1863 3922 2172 4600 
L 2703 4600 
z
M 625 1563 
L 2213 1563 
L 2213 3831 
Q 1613 2788 959 1981 
L 625 1563 
z
" transform="scale(0.015625)"/>
     </defs>
     <use xlink:href="#MalgunGothic-74"/>
     <use xlink:href="#MalgunGothic-68" transform="translate(34.472656 0)"/>
     <use xlink:href="#MalgunGothic-72" transform="translate(92.333984 0)"/>
     <use xlink:href="#MalgunGothic-65" transform="translate(126.310547 0)"/>
     <use xlink:href="#MalgunGothic-73" transform="translate(179.826172 0)"/>
     <use xlink:href="#MalgunGothic-68" transform="translate(223.136719 0)"/>
     <use xlink:href="#MalgunGothic-6f" transform="translate(280.998047 0)"/>
     <use xlink:href="#MalgunGothic-6c" transform="translate(340.910156 0)"/>
     <use xlink:href="#MalgunGothic-64" transform="translate(365.519531 0)"/>
     <use xlink:href="#MalgunGothic-20" transform="translate(425.724609 0)"/>
     <use xlink:href="#MalgunGothic-30" transform="translate(460.880859 0)"/>
     <use xlink:href="#MalgunGothic-2e" transform="translate(515.958984 0)"/>
     <use xlink:href="#MalgunGothic-35" transform="translate(537.833984 0)"/>
     <use xlink:href="#MalgunGothic-34" transform="translate(592.912109 0)"/>
    </g>
    <!-- → good_sleep_pred -->
    <g style="fill: #1f2430" transform="translate(556.917773 331.095952) scale(0.105 -0.105)">
     <defs>
      <path id="MalgunGothic-2192" d="M 4697 2106 
Q 4269 2403 4050 2881 
L 4347 3028 
Q 4522 2616 4886 2337 
Q 5250 2059 5625 2059 
L 5625 1778 
Q 5253 1778 4887 1503 
Q 4522 1228 4347 813 
L 4050 959 
Q 4247 1406 4703 1741 
L 453 1741 
L 453 2106 
L 4697 2106 
z
" transform="scale(0.015625)"/>
     </defs>
     <use xlink:href="#MalgunGothic-2192"/>
     <use xlink:href="#MalgunGothic-20" transform="translate(95.019531 0)"/>
     <use xlink:href="#MalgunGothic-67" transform="translate(130.175781 0)"/>
     <use xlink:href="#MalgunGothic-6f" transform="translate(190.380859 0)"/>
     <use xlink:href="#MalgunGothic-6f" transform="translate(250.292969 0)"/>
     <use xlink:href="#MalgunGothic-64" transform="translate(310.205078 0)"/>
     <use xlink:href="#MalgunGothic-5f" transform="translate(370.410156 0)"/>
     <use xlink:href="#MalgunGothic-73" transform="translate(412.988281 0)"/>
     <use xlink:href="#MalgunGothic-6c" transform="translate(456.298828 0)"/>
     <use xlink:href="#MalgunGothic-65" transform="translate(480.908203 0)"/>
     <use xlink:href="#MalgunGothic-65" transform="translate(534.423828 0)"/>
     <use xlink:href="#MalgunGothic-70" transform="translate(587.939453 0)"/>
     <use xlink:href="#MalgunGothic-5f" transform="translate(647.998047 0)"/>
     <use xlink:href="#MalgunGothic-70" transform="translate(690.576172 0)"/>
     <use xlink:href="#MalgunGothic-72" transform="translate(750.634766 0)"/>
     <use xlink:href="#MalgunGothic-65" transform="translate(784.611328 0)"/>
     <use xlink:href="#MalgunGothic-64" transform="translate(838.126953 0)"/>
    </g>
   </g>
  </g>
  <g id="text_8">
   <!-- Inference pipeline은 70개 raw feature를 58개 MLP 입력으로 변환한다 -->
   <g style="fill: #1f2430" transform="translate(7.2 20.207812) scale(0.15 -0.15)">
    <defs>
     <path id="MalgunGothicBold-49" d="M 1434 4600 
L 1434 0 
L 544 0 
L 544 4600 
L 1434 4600 
z
" transform="scale(0.015625)"/>
     <path id="MalgunGothicBold-6e" d="M 3497 0 
L 2628 0 
L 2628 1841 
Q 2628 2684 2019 2684 
Q 1713 2684 1520 2454 
Q 1328 2225 1328 1872 
L 1328 0 
L 456 0 
L 456 3284 
L 1328 3284 
L 1328 2756 
L 1338 2756 
Q 1700 3363 2403 3363 
Q 3497 3363 3497 2009 
L 3497 0 
z
" transform="scale(0.015625)"/>
     <path id="MalgunGothicBold-66" d="M 2447 4178 
Q 2269 4256 2081 4256 
Q 1575 4256 1575 3678 
L 1575 3284 
L 2328 3284 
L 2328 2622 
L 1575 2622 
L 1575 0 
L 706 0 
L 706 2622 
L 150 2622 
L 150 3284 
L 706 3284 
L 706 3725 
Q 706 4278 1053 4606 
Q 1400 4934 1972 4934 
Q 2269 4934 2447 4875 
L 2447 4178 
z
" transform="scale(0.015625)"/>
     <path id="MalgunGothicBold-65" d="M 3316 1397 
L 1122 1397 
Q 1175 559 2072 559 
Q 2619 559 3047 847 
L 3047 184 
Q 2591 -81 1875 -81 
Q 1109 -81 682 362 
Q 256 806 256 1603 
Q 256 2384 714 2873 
Q 1172 3363 1859 3363 
Q 2547 3363 2931 2941 
Q 3316 2519 3316 1781 
L 3316 1397 
z
M 2494 1969 
Q 2494 2750 1850 2750 
Q 1581 2750 1376 2537 
Q 1172 2325 1122 1969 
L 2494 1969 
z
" transform="scale(0.015625)"/>
     <path id="MalgunGothicBold-72" d="M 2472 2481 
Q 2300 2584 2050 2584 
Q 1722 2584 1525 2317 
Q 1328 2050 1328 1600 
L 1328 0 
L 456 0 
L 456 3284 
L 1328 3284 
L 1328 2653 
L 1338 2653 
Q 1578 3341 2203 3341 
Q 2381 3341 2472 3297 
L 2472 2481 
z
" transform="scale(0.015625)"/>
     <path id="MalgunGothicBold-63" d="M 2875 128 
Q 2522 -81 1909 -81 
Q 1172 -81 714 373 
Q 256 828 256 1563 
Q 256 2400 747 2881 
Q 1238 3363 2056 3363 
Q 2591 3363 2875 3206 
L 2875 2441 
Q 2544 2684 2144 2684 
Q 1688 2684 1413 2398 
Q 1138 2113 1138 1625 
Q 1138 1144 1397 872 
Q 1656 600 2109 600 
Q 2506 600 2875 850 
L 2875 128 
z
" transform="scale(0.015625)"/>
     <path id="MalgunGothicBold-20" transform="scale(0.015625)"/>
     <path id="MalgunGothicBold-70" d="M 1328 409 
L 1328 -1513 
L 456 -1513 
L 456 3284 
L 1328 3284 
L 1328 2766 
L 1338 2766 
Q 1719 3363 2419 3363 
Q 3041 3363 3398 2928 
Q 3756 2494 3756 1734 
Q 3756 916 3348 417 
Q 2941 -81 2269 -81 
Q 1663 -81 1338 409 
L 1328 409 
z
M 1316 1428 
Q 1316 1072 1522 836 
Q 1728 600 2050 600 
Q 2431 600 2647 897 
Q 2863 1194 2863 1731 
Q 2863 2684 2109 2684 
Q 1753 2684 1534 2418 
Q 1316 2153 1316 1750 
L 1316 1428 
z
" transform="scale(0.015625)"/>
     <path id="MalgunGothicBold-69" d="M 375 4366 
Q 375 4566 517 4700 
Q 659 4834 884 4834 
Q 1103 4834 1250 4701 
Q 1397 4569 1397 4366 
Q 1397 4163 1251 4028 
Q 1106 3894 884 3894 
Q 663 3894 519 4031 
Q 375 4169 375 4366 
z
M 444 0 
L 444 3284 
L 1313 3284 
L 1313 0 
L 444 0 
z
" transform="scale(0.015625)"/>
     <path id="MalgunGothicBold-6c" d="M 444 0 
L 444 4859 
L 1313 4859 
L 1313 0 
L 444 0 
z
" transform="scale(0.015625)"/>
     <path id="MalgunGothicBold-c740" d="M 3200 2828 
Q 2244 2828 1705 3164 
Q 1166 3500 1166 4056 
Q 1166 4619 1716 4966 
Q 2266 5313 3200 5313 
Q 4134 5313 4684 4966 
Q 5234 4619 5234 4056 
Q 5234 3500 4692 3164 
Q 4150 2828 3200 2828 
z
M 3200 4672 
Q 2600 4672 2283 4505 
Q 1966 4338 1966 4056 
Q 1966 3778 2287 3623 
Q 2609 3469 3200 3469 
Q 3791 3469 4112 3623 
Q 4434 3778 4434 4056 
Q 4434 4338 4117 4505 
Q 3800 4672 3200 4672 
z
M 403 1716 
L 403 2375 
L 5997 2375 
L 5997 1716 
L 403 1716 
z
M 1222 -306 
L 1222 1381 
L 2009 1381 
L 2009 353 
L 5253 353 
L 5253 -306 
L 1222 -306 
z
" transform="scale(0.015625)"/>
     <path id="MalgunGothicBold-37" d="M 3428 4119 
Q 2688 2741 2372 1861 
Q 2056 981 1916 0 
L 1016 0 
Q 1163 922 1520 1861 
Q 1878 2800 2522 3875 
L 300 3875 
L 300 4600 
L 3428 4600 
L 3428 4119 
z
" transform="scale(0.015625)"/>
     <path id="MalgunGothicBold-30" d="M 241 2222 
Q 241 3422 670 4048 
Q 1100 4675 1919 4675 
Q 3475 4675 3475 2328 
Q 3475 1172 3051 545 
Q 2628 -81 1825 -81 
Q 241 -81 241 2222 
z
M 1125 2244 
Q 1125 600 1863 600 
Q 2584 600 2584 2288 
Q 2584 3997 1878 3997 
Q 1125 3997 1125 2244 
z
" transform="scale(0.015625)"/>
     <path id="MalgunGothicBold-ac1c" d="M 4872 -563 
L 4872 2450 
L 4384 2450 
L 4384 -384 
L 3609 -384 
L 3609 5344 
L 4384 5344 
L 4384 3109 
L 4872 3109 
L 4872 5466 
L 5650 5466 
L 5650 -563 
L 4872 -563 
z
M 3175 4959 
Q 3122 3609 2476 2511 
Q 1831 1413 972 788 
L 331 1294 
Q 1059 1741 1621 2569 
Q 2184 3397 2328 4306 
L 684 4306 
L 684 4959 
L 3175 4959 
z
" transform="scale(0.015625)"/>
     <path id="MalgunGothicBold-61" d="M 534 3075 
Q 756 3203 1109 3283 
Q 1463 3363 1744 3363 
Q 3075 3363 3075 2013 
L 3075 0 
L 2244 0 
L 2244 484 
L 2228 484 
Q 1897 -81 1244 -81 
Q 769 -81 491 186 
Q 213 453 213 903 
Q 213 1844 1331 1994 
L 2247 2119 
Q 2247 2747 1634 2747 
Q 1050 2747 534 2381 
L 534 3075 
z
M 1594 1500 
Q 1031 1428 1031 997 
Q 1031 803 1165 681 
Q 1300 559 1528 559 
Q 1841 559 2044 779 
Q 2247 1000 2247 1334 
L 2247 1584 
L 1594 1500 
z
" transform="scale(0.015625)"/>
     <path id="MalgunGothicBold-77" d="M 5028 3284 
L 4072 0 
L 3159 0 
L 2619 2050 
Q 2578 2200 2566 2434 
L 2547 2434 
Q 2528 2200 2484 2056 
L 1903 0 
L 1003 0 
L 56 3284 
L 950 3284 
L 1466 1044 
Q 1506 863 1516 700 
L 1534 700 
Q 1544 859 1591 1056 
L 2216 3284 
L 3041 3284 
L 3594 1041 
Q 3616 950 3641 694 
L 3663 694 
Q 3672 828 3716 1041 
L 4213 3284 
L 5028 3284 
z
" transform="scale(0.015625)"/>
     <path id="MalgunGothicBold-74" d="M 2303 34 
Q 2081 -78 1684 -78 
Q 675 -78 675 991 
L 675 2622 
L 131 2622 
L 131 3284 
L 675 3284 
L 675 4019 
L 1544 4272 
L 1544 3284 
L 2303 3284 
L 2303 2622 
L 1544 2622 
L 1544 1144 
Q 1544 600 1972 600 
Q 2150 600 2303 700 
L 2303 34 
z
" transform="scale(0.015625)"/>
     <path id="MalgunGothicBold-75" d="M 3444 0 
L 2575 0 
L 2575 506 
L 2559 506 
Q 2197 -81 1553 -81 
Q 400 -81 400 1306 
L 400 3284 
L 1272 3284 
L 1272 1397 
Q 1272 600 1891 600 
Q 2194 600 2384 817 
Q 2575 1034 2575 1400 
L 2575 3284 
L 3444 3284 
L 3444 0 
z
" transform="scale(0.015625)"/>
     <path id="MalgunGothicBold-b97c" d="M 1247 3097 
L 1247 4525 
L 4378 4525 
L 4378 4863 
L 1247 4863 
L 1247 5428 
L 5159 5428 
L 5159 4006 
L 2028 4006 
L 2028 3659 
L 5294 3659 
L 5294 3097 
L 1247 3097 
z
M 403 2203 
L 403 2766 
L 5997 2766 
L 5997 2203 
L 403 2203 
z
M 1222 -500 
L 1222 941 
L 4397 941 
L 4397 1294 
L 1222 1294 
L 1222 1856 
L 5184 1856 
L 5184 428 
L 2003 428 
L 2003 63 
L 5306 63 
L 5306 -500 
L 1222 -500 
z
" transform="scale(0.015625)"/>
     <path id="MalgunGothicBold-35" d="M 472 138 
L 472 928 
Q 681 769 948 684 
Q 1216 600 1472 600 
Q 1913 600 2166 812 
Q 2419 1025 2419 1403 
Q 2419 1797 2151 1976 
Q 1884 2156 1331 2156 
Q 956 2156 544 2091 
L 716 4600 
L 3097 4600 
L 3097 3875 
L 1434 3875 
L 1356 2806 
Q 1706 2847 1819 2847 
Q 2491 2847 2898 2478 
Q 3306 2109 3306 1497 
Q 3306 756 2837 337 
Q 2369 -81 1556 -81 
Q 875 -81 472 138 
z
" transform="scale(0.015625)"/>
     <path id="MalgunGothicBold-38" d="M 313 1238 
Q 313 1634 536 1945 
Q 759 2256 1181 2409 
Q 847 2581 655 2851 
Q 463 3122 463 3453 
Q 463 3794 645 4073 
Q 828 4353 1159 4514 
Q 1491 4675 1891 4675 
Q 2294 4675 2628 4517 
Q 2963 4359 3145 4082 
Q 3328 3806 3328 3466 
Q 3328 2788 2572 2431 
Q 2991 2281 3223 1972 
Q 3456 1663 3456 1247 
Q 3456 638 3029 278 
Q 2603 -81 1881 -81 
Q 1169 -81 741 276 
Q 313 634 313 1238 
z
M 1147 1294 
Q 1147 947 1344 756 
Q 1541 566 1884 566 
Q 2238 566 2431 758 
Q 2625 950 2625 1294 
Q 2625 1609 2415 1829 
Q 2206 2050 1884 2050 
Q 1569 2050 1358 1836 
Q 1147 1622 1147 1294 
z
M 1288 3391 
Q 1288 3119 1466 2925 
Q 1644 2731 1897 2731 
Q 2156 2731 2334 2926 
Q 2513 3122 2513 3391 
Q 2513 3694 2347 3861 
Q 2181 4028 1897 4028 
Q 1613 4028 1450 3859 
Q 1288 3691 1288 3391 
z
" transform="scale(0.015625)"/>
     <path id="MalgunGothicBold-4d" d="M 4744 0 
L 4744 2850 
Q 4744 3163 4781 3806 
L 4763 3806 
Q 4684 3413 4619 3244 
L 3400 0 
L 2722 0 
L 1488 3216 
Q 1441 3341 1344 3806 
L 1322 3806 
Q 1356 3297 1356 2700 
L 1356 0 
L 547 0 
L 547 4600 
L 1828 4600 
L 2903 1734 
Q 3038 1378 3081 1103 
L 3103 1103 
Q 3172 1375 3297 1741 
L 4381 4600 
L 5625 4600 
L 5625 0 
L 4744 0 
z
" transform="scale(0.015625)"/>
     <path id="MalgunGothicBold-4c" d="M 3178 0 
L 547 0 
L 547 4600 
L 1438 4600 
L 1438 738 
L 3178 738 
L 3178 0 
z
" transform="scale(0.015625)"/>
     <path id="MalgunGothicBold-50" d="M 1438 1631 
L 1438 0 
L 547 0 
L 547 4600 
L 2066 4600 
Q 3747 4600 3747 3159 
Q 3747 2463 3239 2038 
Q 2731 1613 1963 1631 
L 1438 1631 
z
M 1438 3891 
L 1438 2328 
L 1891 2328 
Q 2813 2328 2813 3125 
Q 2813 3891 1909 3891 
L 1438 3891 
z
" transform="scale(0.015625)"/>
     <path id="MalgunGothicBold-c785" d="M 4703 2228 
L 4703 5466 
L 5472 5466 
L 5472 2228 
L 4703 2228 
z
M 2216 2375 
Q 1538 2375 1086 2804 
Q 634 3234 634 3884 
Q 634 4528 1084 4965 
Q 1534 5403 2216 5403 
Q 2906 5403 3357 4964 
Q 3809 4525 3809 3884 
Q 3809 3244 3354 2809 
Q 2900 2375 2216 2375 
z
M 2216 4750 
Q 1847 4750 1625 4509 
Q 1403 4269 1403 3884 
Q 1403 3500 1623 3258 
Q 1844 3016 2216 3016 
Q 2588 3016 2811 3259 
Q 3034 3503 3034 3884 
Q 3034 4269 2809 4509 
Q 2584 4750 2216 4750 
z
M 1581 -434 
L 1581 1972 
L 2350 1972 
L 2350 1356 
L 4703 1356 
L 4703 1972 
L 5466 1972 
L 5466 -434 
L 1581 -434 
z
M 4703 703 
L 2350 703 
L 2350 206 
L 4703 206 
L 4703 703 
z
" transform="scale(0.015625)"/>
     <path id="MalgunGothicBold-b825" d="M 3781 2822 
L 3781 3456 
L 4769 3456 
L 4769 4044 
L 3803 4044 
L 3803 4678 
L 4769 4678 
L 4769 5466 
L 5538 5466 
L 5538 1906 
L 4769 1906 
L 4769 2822 
L 3781 2822 
z
M 3744 2209 
Q 3094 2109 2711 2095 
Q 2328 2081 738 2081 
L 738 4013 
L 2741 4013 
L 2741 4616 
L 738 4616 
L 738 5253 
L 3513 5253 
L 3513 3400 
L 1503 3400 
L 1503 2719 
Q 2584 2719 2945 2739 
Q 3306 2759 3647 2847 
L 3744 2209 
z
M 4781 -563 
L 4781 984 
L 1544 984 
L 1544 1644 
L 5563 1644 
L 5563 -563 
L 4781 -563 
z
" transform="scale(0.015625)"/>
     <path id="MalgunGothicBold-c73c" d="M 3200 1953 
Q 2303 1953 1711 2368 
Q 1119 2784 1119 3506 
Q 1119 4225 1708 4640 
Q 2297 5056 3200 5056 
Q 4094 5056 4684 4640 
Q 5275 4225 5275 3506 
Q 5275 2784 4686 2368 
Q 4097 1953 3200 1953 
z
M 3200 4409 
Q 2609 4409 2264 4165 
Q 1919 3922 1919 3506 
Q 1919 3084 2264 2842 
Q 2609 2600 3200 2600 
Q 3788 2600 4131 2844 
Q 4475 3088 4475 3506 
Q 4475 3922 4133 4165 
Q 3791 4409 3200 4409 
z
M 403 313 
L 403 959 
L 5997 959 
L 5997 313 
L 403 313 
z
" transform="scale(0.015625)"/>
     <path id="MalgunGothicBold-b85c" d="M 403 250 
L 403 903 
L 2809 903 
L 2809 1747 
L 1197 1747 
L 1197 3688 
L 4391 3688 
L 4391 4294 
L 1209 4294 
L 1209 4941 
L 5178 4941 
L 5178 3059 
L 1984 3059 
L 1984 2394 
L 5338 2394 
L 5338 1747 
L 3591 1747 
L 3591 903 
L 5997 903 
L 5997 250 
L 403 250 
z
" transform="scale(0.015625)"/>
     <path id="MalgunGothicBold-bcc0" d="M 716 2150 
L 716 5153 
L 1484 5153 
L 1484 4256 
L 2841 4256 
L 2841 5153 
L 3616 5153 
L 3616 4603 
L 4794 4603 
L 4794 5466 
L 5563 5466 
L 5563 1153 
L 4794 1153 
L 4794 2681 
L 3616 2681 
L 3616 2150 
L 716 2150 
z
M 3616 3303 
L 4794 3303 
L 4794 3981 
L 3616 3981 
L 3616 3303 
z
M 2841 3597 
L 1484 3597 
L 1484 2803 
L 2841 2803 
L 2841 3597 
z
M 1672 -353 
L 1672 1678 
L 2456 1678 
L 2456 306 
L 5678 306 
L 5678 -353 
L 1672 -353 
z
" transform="scale(0.015625)"/>
     <path id="MalgunGothicBold-d658" d="M 569 4366 
L 569 4966 
L 2022 4966 
L 2022 5516 
L 2809 5516 
L 2809 4966 
L 4231 4966 
L 4231 4366 
L 569 4366 
z
M 5325 2734 
L 5325 966 
L 4538 966 
L 4538 5466 
L 5325 5466 
L 5325 3391 
L 6194 3391 
L 6194 2734 
L 5325 2734 
z
M 4347 1453 
Q 2359 1331 453 1331 
L 378 1959 
Q 1066 1959 2016 1972 
L 2016 2369 
Q 1450 2431 1140 2672 
Q 831 2913 831 3272 
Q 831 3706 1259 3956 
Q 1688 4206 2413 4206 
Q 3119 4206 3553 3948 
Q 3988 3691 3988 3272 
Q 3988 2906 3683 2670 
Q 3378 2434 2803 2363 
L 2803 1991 
Q 3591 2003 4300 2047 
L 4347 1453 
z
M 2413 3622 
Q 1613 3622 1613 3272 
Q 1613 2919 2413 2919 
Q 2791 2919 2998 3016 
Q 3206 3113 3206 3272 
Q 3206 3622 2413 3622 
z
M 1344 -488 
L 1344 1119 
L 2131 1119 
L 2131 166 
L 5409 166 
L 5409 -488 
L 1344 -488 
z
" transform="scale(0.015625)"/>
     <path id="MalgunGothicBold-d55c" d="M 447 4244 
L 447 4872 
L 1900 4872 
L 1900 5550 
L 2688 5550 
L 2688 4872 
L 4141 4872 
L 4141 4244 
L 447 4244 
z
M 5253 2822 
L 5253 1088 
L 4475 1088 
L 4475 5466 
L 5253 5466 
L 5253 3481 
L 6175 3481 
L 6175 2822 
L 5253 2822 
z
M 2303 1684 
Q 1603 1684 1176 2006 
Q 750 2328 750 2828 
Q 750 3322 1173 3645 
Q 1597 3969 2309 3969 
Q 3022 3969 3447 3647 
Q 3872 3325 3872 2828 
Q 3872 2331 3445 2007 
Q 3019 1684 2303 1684 
z
M 2309 3322 
Q 1941 3322 1739 3189 
Q 1538 3056 1538 2828 
Q 1538 2597 1734 2459 
Q 1931 2322 2309 2322 
Q 2694 2322 2892 2458 
Q 3091 2594 3091 2828 
Q 3091 3059 2887 3190 
Q 2684 3322 2309 3322 
z
M 1381 -372 
L 1381 1409 
L 2169 1409 
L 2169 288 
L 5422 288 
L 5422 -372 
L 1381 -372 
z
" transform="scale(0.015625)"/>
     <path id="MalgunGothicBold-b2e4" d="M 5197 2522 
L 5197 -563 
L 4416 -563 
L 4416 5466 
L 5197 5466 
L 5197 3181 
L 6203 3181 
L 6203 2522 
L 5197 2522 
z
M 3969 1197 
Q 3269 1100 1619 1100 
L 709 1100 
L 709 4953 
L 3584 4953 
L 3584 4294 
L 1491 4294 
L 1491 1753 
L 1794 1753 
Q 3253 1753 3897 1844 
L 3969 1197 
z
" transform="scale(0.015625)"/>
    </defs>
    <use xlink:href="#MalgunGothicBold-49"/>
    <use xlink:href="#MalgunGothicBold-6e" transform="translate(31.005859 0)"/>
    <use xlink:href="#MalgunGothicBold-66" transform="translate(91.845703 0)"/>
    <use xlink:href="#MalgunGothicBold-65" transform="translate(129.101562 0)"/>
    <use xlink:href="#MalgunGothicBold-72" transform="translate(184.082031 0)"/>
    <use xlink:href="#MalgunGothicBold-65" transform="translate(222.9375 0)"/>
    <use xlink:href="#MalgunGothicBold-6e" transform="translate(277.917969 0)"/>
    <use xlink:href="#MalgunGothicBold-63" transform="translate(338.757812 0)"/>
    <use xlink:href="#MalgunGothicBold-65" transform="translate(387.488281 0)"/>
    <use xlink:href="#MalgunGothicBold-20" transform="translate(442.46875 0)"/>
    <use xlink:href="#MalgunGothicBold-70" transform="translate(477.625 0)"/>
    <use xlink:href="#MalgunGothicBold-69" transform="translate(540.271484 0)"/>
    <use xlink:href="#MalgunGothicBold-70" transform="translate(567.712891 0)"/>
    <use xlink:href="#MalgunGothicBold-65" transform="translate(630.359375 0)"/>
    <use xlink:href="#MalgunGothicBold-6c" transform="translate(685.339844 0)"/>
    <use xlink:href="#MalgunGothicBold-69" transform="translate(712.78125 0)"/>
    <use xlink:href="#MalgunGothicBold-6e" transform="translate(740.222656 0)"/>
    <use xlink:href="#MalgunGothicBold-65" transform="translate(801.0625 0)"/>
    <use xlink:href="#MalgunGothicBold-c740" transform="translate(856.042969 0)"/>
    <use xlink:href="#MalgunGothicBold-20" transform="translate(956.042969 0)"/>
    <use xlink:href="#MalgunGothicBold-37" transform="translate(991.199219 0)"/>
    <use xlink:href="#MalgunGothicBold-30" transform="translate(1049.158203 0)"/>
    <use xlink:href="#MalgunGothicBold-ac1c" transform="translate(1107.117188 0)"/>
    <use xlink:href="#MalgunGothicBold-20" transform="translate(1207.117188 0)"/>
    <use xlink:href="#MalgunGothicBold-72" transform="translate(1242.273438 0)"/>
    <use xlink:href="#MalgunGothicBold-61" transform="translate(1281.628906 0)"/>
    <use xlink:href="#MalgunGothicBold-77" transform="translate(1335.925781 0)"/>
    <use xlink:href="#MalgunGothicBold-20" transform="translate(1415.466797 0)"/>
    <use xlink:href="#MalgunGothicBold-66" transform="translate(1450.623047 0)"/>
    <use xlink:href="#MalgunGothicBold-65" transform="translate(1487.878906 0)"/>
    <use xlink:href="#MalgunGothicBold-61" transform="translate(1542.859375 0)"/>
    <use xlink:href="#MalgunGothicBold-74" transform="translate(1597.15625 0)"/>
    <use xlink:href="#MalgunGothicBold-75" transform="translate(1635.583984 0)"/>
    <use xlink:href="#MalgunGothicBold-72" transform="translate(1696.423828 0)"/>
    <use xlink:href="#MalgunGothicBold-65" transform="translate(1735.279297 0)"/>
    <use xlink:href="#MalgunGothicBold-b97c" transform="translate(1790.259766 0)"/>
    <use xlink:href="#MalgunGothicBold-20" transform="translate(1890.259766 0)"/>
    <use xlink:href="#MalgunGothicBold-35" transform="translate(1925.416016 0)"/>
    <use xlink:href="#MalgunGothicBold-38" transform="translate(1983.375 0)"/>
    <use xlink:href="#MalgunGothicBold-ac1c" transform="translate(2041.333984 0)"/>
    <use xlink:href="#MalgunGothicBold-20" transform="translate(2141.333984 0)"/>
    <use xlink:href="#MalgunGothicBold-4d" transform="translate(2176.490234 0)"/>
    <use xlink:href="#MalgunGothicBold-4c" transform="translate(2272.925781 0)"/>
    <use xlink:href="#MalgunGothicBold-50" transform="translate(2324.146484 0)"/>
    <use xlink:href="#MalgunGothicBold-20" transform="translate(2385.621094 0)"/>
    <use xlink:href="#MalgunGothicBold-c785" transform="translate(2420.777344 0)"/>
    <use xlink:href="#MalgunGothicBold-b825" transform="translate(2520.777344 0)"/>
    <use xlink:href="#MalgunGothicBold-c73c" transform="translate(2620.777344 0)"/>
    <use xlink:href="#MalgunGothicBold-b85c" transform="translate(2720.777344 0)"/>
    <use xlink:href="#MalgunGothicBold-20" transform="translate(2820.777344 0)"/>
    <use xlink:href="#MalgunGothicBold-bcc0" transform="translate(2855.933594 0)"/>
    <use xlink:href="#MalgunGothicBold-d658" transform="translate(2955.933594 0)"/>
    <use xlink:href="#MalgunGothicBold-d55c" transform="translate(3055.933594 0)"/>
    <use xlink:href="#MalgunGothicBold-b2e4" transform="translate(3155.933594 0)"/>
   </g>
  </g>
  <g id="text_9">
   <!-- 학습 시 저장한 median imputer와 StandardScaler를 재사용하고, 공식 threshold 0.54로 good_sleep_pred를 산출한다. -->
   <g style="fill: #6f768a" transform="translate(7.2 42.655875) scale(0.1 -0.1)">
    <defs>
     <path id="MalgunGothic-d559" d="M 447 4347 
L 447 4763 
L 2003 4763 
L 2003 5497 
L 2478 5497 
L 2478 4763 
L 4019 4763 
L 4019 4347 
L 447 4347 
z
M 5125 3150 
L 5125 1800 
L 4659 1800 
L 4659 5466 
L 5125 5466 
L 5125 3566 
L 6034 3566 
L 6034 3150 
L 5125 3150 
z
M 2241 1941 
Q 1547 1941 1151 2234 
Q 756 2528 756 2988 
Q 756 3444 1151 3737 
Q 1547 4031 2247 4031 
Q 2947 4031 3342 3737 
Q 3738 3444 3738 2988 
Q 3738 2534 3336 2237 
Q 2934 1941 2241 1941 
z
M 2247 3634 
Q 1769 3634 1492 3456 
Q 1216 3278 1216 2988 
Q 1216 2703 1489 2520 
Q 1763 2338 2247 2338 
Q 2731 2338 3004 2520 
Q 3278 2703 3278 2988 
Q 3278 3278 3001 3456 
Q 2725 3634 2247 3634 
z
M 4659 -563 
L 4659 1063 
L 1191 1063 
L 1191 1472 
L 5119 1472 
L 5119 -563 
L 4659 -563 
z
" transform="scale(0.015625)"/>
     <path id="MalgunGothic-c2b5" d="M 5459 3303 
Q 4731 3406 4097 3770 
Q 3463 4134 3206 4531 
Q 2972 4163 2323 3786 
Q 1675 3409 972 3309 
L 697 3688 
Q 1650 3769 2309 4237 
Q 2969 4706 2969 5153 
L 2969 5356 
L 3431 5356 
L 3431 5153 
Q 3431 4697 4090 4226 
Q 4750 3756 5703 3681 
L 5459 3303 
z
M 403 2328 
L 403 2747 
L 5997 2747 
L 5997 2328 
L 403 2328 
z
M 1325 -397 
L 1325 1850 
L 1784 1850 
L 1784 1100 
L 4609 1100 
L 4609 1850 
L 5069 1850 
L 5069 -397 
L 1325 -397 
z
M 4609 691 
L 1784 691 
L 1784 13 
L 4609 13 
L 4609 691 
z
" transform="scale(0.015625)"/>
     <path id="MalgunGothic-c2dc" d="M 4947 -563 
L 4947 5466 
L 5416 5466 
L 5416 -563 
L 4947 -563 
z
M 3769 966 
Q 3263 1353 2820 1939 
Q 2378 2525 2259 2950 
Q 2116 2463 1687 1872 
Q 1259 1281 756 891 
L 397 1203 
Q 1141 1703 1581 2479 
Q 2022 3256 2022 4063 
L 2022 5050 
L 2484 5050 
L 2484 4084 
Q 2484 3303 2920 2556 
Q 3356 1809 4097 1331 
L 3769 966 
z
" transform="scale(0.015625)"/>
     <path id="MalgunGothic-c800" d="M 4934 -563 
L 4934 2950 
L 3541 2950 
L 3541 3366 
L 4934 3366 
L 4934 5466 
L 5403 5466 
L 5403 -563 
L 4934 -563 
z
M 3744 909 
Q 2609 1819 2297 2859 
Q 2175 2388 1765 1805 
Q 1356 1222 856 825 
L 506 1147 
Q 1225 1641 1642 2427 
Q 2059 3213 2059 4019 
L 2059 4525 
L 750 4525 
L 750 4941 
L 3853 4941 
L 3853 4525 
L 2528 4525 
L 2528 4038 
Q 2528 3222 2958 2450 
Q 3388 1678 4063 1269 
L 3744 909 
z
" transform="scale(0.015625)"/>
     <path id="MalgunGothic-c7a5" d="M 5125 3391 
L 5125 1991 
L 4659 1991 
L 4659 5466 
L 5125 5466 
L 5125 3816 
L 6034 3816 
L 6034 3391 
L 5125 3391 
z
M 3603 2316 
Q 3206 2528 2778 2940 
Q 2350 3353 2188 3694 
Q 2016 3300 1600 2853 
Q 1184 2406 750 2163 
L 409 2484 
Q 1072 2806 1512 3397 
Q 1953 3988 1953 4628 
L 1953 4781 
L 622 4781 
L 622 5197 
L 3731 5197 
L 3731 4781 
L 2400 4781 
L 2400 4628 
Q 2400 4025 2845 3472 
Q 3291 2919 3909 2656 
L 3603 2316 
z
M 3263 -513 
Q 2322 -513 1811 -186 
Q 1300 141 1300 659 
Q 1300 1175 1812 1500 
Q 2325 1825 3263 1825 
Q 4203 1825 4715 1501 
Q 5228 1178 5228 659 
Q 5228 138 4717 -187 
Q 4206 -513 3263 -513 
z
M 3263 1428 
Q 2563 1428 2180 1215 
Q 1797 1003 1797 659 
Q 1797 309 2181 96 
Q 2566 -116 3263 -116 
Q 3969 -116 4353 98 
Q 4738 313 4738 659 
Q 4738 1000 4353 1214 
Q 3969 1428 3263 1428 
z
" transform="scale(0.015625)"/>
     <path id="MalgunGothic-d55c" d="M 5125 2713 
L 5125 978 
L 4659 978 
L 4659 5466 
L 5125 5466 
L 5125 3138 
L 6034 3138 
L 6034 2713 
L 5125 2713 
z
M 447 4244 
L 447 4659 
L 2003 4659 
L 2003 5441 
L 2478 5441 
L 2478 4659 
L 4031 4659 
L 4031 4244 
L 447 4244 
z
M 2241 1650 
Q 1559 1650 1161 1979 
Q 763 2309 763 2791 
Q 763 3266 1161 3594 
Q 1559 3922 2247 3922 
Q 2931 3922 3331 3595 
Q 3731 3269 3731 2791 
Q 3731 2316 3329 1983 
Q 2928 1650 2241 1650 
z
M 2247 3525 
Q 1772 3525 1497 3319 
Q 1222 3113 1222 2791 
Q 1222 2466 1498 2256 
Q 1775 2047 2247 2047 
Q 2719 2047 2995 2256 
Q 3272 2466 3272 2791 
Q 3272 3113 2997 3319 
Q 2722 3525 2247 3525 
z
M 1459 -453 
L 1459 1216 
L 1919 1216 
L 1919 -38 
L 5313 -38 
L 5313 -453 
L 1459 -453 
z
" transform="scale(0.015625)"/>
     <path id="MalgunGothic-c640" d="M 5203 2600 
L 5203 -563 
L 4738 -563 
L 4738 5466 
L 5203 5466 
L 5203 3016 
L 6188 3016 
L 6188 2600 
L 5203 2600 
z
M 2572 2138 
L 2572 959 
Q 3872 991 4353 1025 
L 4378 622 
Q 3956 588 2537 553 
Q 1119 519 378 519 
L 325 934 
Q 1281 934 2106 953 
L 2106 2131 
Q 1466 2203 1094 2601 
Q 722 3000 722 3572 
Q 722 4213 1187 4616 
Q 1653 5019 2350 5019 
Q 3038 5019 3477 4619 
Q 3916 4219 3916 3572 
Q 3916 2997 3556 2611 
Q 3197 2225 2572 2138 
z
M 2316 4609 
Q 1825 4609 1514 4321 
Q 1203 4034 1203 3572 
Q 1203 3116 1515 2825 
Q 1828 2534 2316 2534 
Q 2806 2534 3122 2826 
Q 3438 3119 3438 3572 
Q 3438 4031 3125 4320 
Q 2813 4609 2316 4609 
z
" transform="scale(0.015625)"/>
     <path id="MalgunGothic-b97c" d="M 5222 3144 
L 1313 3144 
L 1313 4447 
L 4628 4447 
L 4628 4966 
L 1313 4966 
L 1313 5363 
L 5088 5363 
L 5088 4084 
L 1772 4084 
L 1772 3541 
L 5222 3541 
L 5222 3144 
z
M 5997 2241 
L 403 2241 
L 403 2638 
L 5997 2638 
L 5997 2241 
z
M 5234 -500 
L 1294 -500 
L 1294 819 
L 4641 819 
L 4641 1338 
L 1294 1338 
L 1294 1734 
L 5100 1734 
L 5100 447 
L 1753 447 
L 1753 -103 
L 5234 -103 
L 5234 -500 
z
" transform="scale(0.015625)"/>
     <path id="MalgunGothic-c7ac" d="M 5069 -563 
L 5069 2375 
L 4353 2375 
L 4353 -378 
L 3891 -378 
L 3891 5344 
L 4353 5344 
L 4353 2791 
L 5069 2791 
L 5069 5466 
L 5538 5466 
L 5538 -563 
L 5069 -563 
z
M 3181 884 
Q 2791 1266 2461 1781 
Q 2131 2297 2041 2681 
Q 1959 2263 1606 1722 
Q 1253 1181 838 800 
L 475 1088 
Q 1016 1478 1420 2233 
Q 1825 2988 1825 3750 
L 1825 4525 
L 691 4525 
L 691 4941 
L 3425 4941 
L 3425 4525 
L 2284 4525 
L 2284 3756 
Q 2284 3006 2648 2281 
Q 3013 1556 3531 1184 
L 3181 884 
z
" transform="scale(0.015625)"/>
     <path id="MalgunGothic-c0ac" d="M 5094 2600 
L 5094 -563 
L 4628 -563 
L 4628 5466 
L 5094 5466 
L 5094 3016 
L 6138 3016 
L 6138 2600 
L 5094 2600 
z
M 3744 966 
Q 3234 1356 2800 1936 
Q 2366 2516 2234 2950 
Q 2094 2472 1672 1883 
Q 1250 1294 738 891 
L 378 1203 
Q 1116 1703 1556 2479 
Q 1997 3256 1997 4063 
L 1997 5050 
L 2463 5050 
L 2463 4084 
Q 2463 3297 2898 2553 
Q 3334 1809 4072 1331 
L 3744 966 
z
" transform="scale(0.015625)"/>
     <path id="MalgunGothic-c6a9" d="M 1900 3378 
Q 1288 3678 1288 4269 
Q 1288 4803 1784 5095 
Q 2281 5388 3200 5388 
Q 4119 5388 4616 5095 
Q 5113 4803 5113 4269 
Q 5113 3669 4494 3378 
L 4494 2522 
L 5997 2522 
L 5997 2106 
L 403 2106 
L 403 2522 
L 1900 2522 
L 1900 3378 
z
M 3200 4991 
Q 1772 4991 1772 4269 
Q 1772 3928 2126 3737 
Q 2481 3547 3200 3547 
Q 3919 3547 4273 3737 
Q 4628 3928 4628 4269 
Q 4628 4991 3200 4991 
z
M 2369 2522 
L 4025 2522 
L 4025 3225 
Q 3678 3150 3200 3150 
Q 2756 3150 2369 3231 
L 2369 2522 
z
M 3200 -531 
Q 2259 -531 1764 -234 
Q 1269 63 1269 581 
Q 1269 1106 1767 1404 
Q 2266 1703 3200 1703 
Q 4134 1703 4632 1404 
Q 5131 1106 5131 581 
Q 5131 63 4636 -234 
Q 4141 -531 3200 -531 
z
M 3200 1306 
Q 2484 1306 2118 1112 
Q 1753 919 1753 581 
Q 1753 244 2117 55 
Q 2481 -134 3200 -134 
Q 3916 -134 4281 55 
Q 4647 244 4647 581 
Q 4647 922 4280 1114 
Q 3913 1306 3200 1306 
z
" transform="scale(0.015625)"/>
     <path id="MalgunGothic-d558" d="M 5094 2278 
L 5094 -563 
L 4628 -563 
L 4628 5466 
L 5094 5466 
L 5094 2694 
L 6113 2694 
L 6113 2278 
L 5094 2278 
z
M 469 4084 
L 469 4506 
L 2022 4506 
L 2022 5466 
L 2491 5466 
L 2491 4506 
L 4050 4506 
L 4050 4084 
L 469 4084 
z
M 2253 934 
Q 1588 934 1166 1318 
Q 744 1703 744 2272 
Q 744 2850 1166 3233 
Q 1588 3616 2259 3616 
Q 2928 3616 3351 3231 
Q 3775 2847 3775 2266 
Q 3775 1694 3351 1314 
Q 2928 934 2253 934 
z
M 2259 3219 
Q 1797 3219 1500 2941 
Q 1203 2663 1203 2272 
Q 1203 1884 1501 1607 
Q 1800 1331 2259 1331 
Q 2719 1331 3017 1607 
Q 3316 1884 3316 2272 
Q 3316 2663 3019 2941 
Q 2722 3219 2259 3219 
z
" transform="scale(0.015625)"/>
     <path id="MalgunGothic-ace0" d="M 4959 1656 
L 4506 1697 
Q 4616 2694 4616 3534 
L 4616 4475 
L 1216 4475 
L 1216 4897 
L 5081 4897 
L 5081 3525 
Q 5081 2613 4959 1656 
z
M 403 513 
L 403 934 
L 2625 934 
L 2625 2900 
L 3091 2900 
L 3091 934 
L 5997 934 
L 5997 513 
L 403 513 
z
" transform="scale(0.015625)"/>
     <path id="MalgunGothic-2c" d="M 988 725 
L 472 -850 
L 125 -850 
L 503 725 
L 988 725 
z
" transform="scale(0.015625)"/>
     <path id="MalgunGothic-acf5" d="M 5178 5281 
Q 5178 3953 5100 3263 
L 4653 3297 
Q 4709 3956 4709 4863 
L 1375 4863 
L 1375 5281 
L 5178 5281 
z
M 403 2406 
L 403 2822 
L 2778 2822 
L 2778 4044 
L 3238 4044 
L 3238 2822 
L 5997 2822 
L 5997 2406 
L 403 2406 
z
M 3188 -466 
Q 2244 -466 1736 -148 
Q 1228 169 1228 691 
Q 1228 1216 1734 1536 
Q 2241 1856 3188 1856 
Q 4128 1856 4634 1536 
Q 5141 1216 5141 691 
Q 5141 169 4633 -148 
Q 4125 -466 3188 -466 
z
M 3188 1459 
Q 2488 1459 2108 1248 
Q 1728 1038 1728 691 
Q 1728 344 2106 136 
Q 2484 -72 3188 -72 
Q 3891 -72 4269 136 
Q 4647 344 4647 691 
Q 4647 1038 4265 1248 
Q 3884 1459 3188 1459 
z
" transform="scale(0.015625)"/>
     <path id="MalgunGothic-c2dd" d="M 4884 1991 
L 4884 5466 
L 5350 5466 
L 5350 1991 
L 4884 1991 
z
M 3653 2328 
Q 3244 2550 2831 2950 
Q 2419 3350 2253 3700 
Q 2075 3303 1659 2858 
Q 1244 2413 819 2175 
L 488 2497 
Q 1134 2806 1571 3393 
Q 2009 3981 2009 4628 
L 2009 5269 
L 2463 5269 
L 2463 4628 
Q 2463 4025 2916 3472 
Q 3369 2919 3969 2669 
L 3653 2328 
z
M 4884 -563 
L 4884 1234 
L 1428 1234 
L 1428 1650 
L 5350 1650 
L 5350 -563 
L 4884 -563 
z
" transform="scale(0.015625)"/>
     <path id="MalgunGothic-b85c" d="M 1247 3641 
L 4659 3641 
L 4659 4531 
L 1259 4531 
L 1259 4941 
L 5125 4941 
L 5125 3238 
L 1722 3238 
L 1722 2241 
L 5300 2241 
L 5300 1825 
L 3438 1825 
L 3438 728 
L 5997 728 
L 5997 313 
L 403 313 
L 403 728 
L 2969 728 
L 2969 1825 
L 1247 1825 
L 1247 3641 
z
" transform="scale(0.015625)"/>
     <path id="MalgunGothic-c0b0" d="M 5125 3169 
L 5125 1081 
L 4659 1081 
L 4659 5466 
L 5125 5466 
L 5125 3584 
L 6034 3584 
L 6034 3169 
L 5125 3169 
z
M 3597 2081 
Q 3206 2294 2778 2731 
Q 2350 3169 2188 3525 
Q 2038 3125 1603 2642 
Q 1169 2159 750 1925 
L 409 2247 
Q 1041 2553 1492 3173 
Q 1944 3794 1953 4453 
L 1953 5228 
L 2400 5228 
L 2400 4453 
Q 2400 3841 2853 3259 
Q 3306 2678 3909 2419 
L 3597 2081 
z
M 1478 -353 
L 1478 1528 
L 1953 1528 
L 1953 72 
L 5325 72 
L 5325 -353 
L 1478 -353 
z
" transform="scale(0.015625)"/>
     <path id="MalgunGothic-cd9c" d="M 5466 3334 
Q 4759 3400 4114 3664 
Q 3469 3928 3213 4225 
Q 2966 3931 2323 3670 
Q 1681 3409 966 3341 
L 709 3750 
Q 1328 3725 2017 3970 
Q 2706 4216 2906 4603 
L 1056 4603 
L 1056 5019 
L 2969 5019 
L 2969 5550 
L 3444 5550 
L 3444 5019 
L 5344 5019 
L 5344 4603 
L 3494 4603 
Q 3691 4241 4356 3995 
Q 5022 3750 5691 3750 
L 5466 3334 
z
M 1319 -416 
L 1319 947 
L 4616 947 
L 4616 1478 
L 1319 1478 
L 1319 1888 
L 2963 1888 
L 2963 2484 
L 403 2484 
L 403 2900 
L 5997 2900 
L 5997 2484 
L 3438 2484 
L 3438 1888 
L 5075 1888 
L 5075 544 
L 1778 544 
L 1778 0 
L 5234 0 
L 5234 -416 
L 1319 -416 
z
" transform="scale(0.015625)"/>
     <path id="MalgunGothic-b2e4" d="M 5094 2669 
L 5094 -563 
L 4628 -563 
L 4628 5466 
L 5094 5466 
L 5094 3091 
L 6156 3091 
L 6156 2669 
L 5094 2669 
z
M 4050 1234 
Q 3538 1172 3003 1159 
Q 2469 1147 838 1147 
L 838 4934 
L 3653 4934 
L 3653 4519 
L 1306 4519 
L 1306 1563 
Q 3566 1563 4013 1638 
L 4050 1234 
z
" transform="scale(0.015625)"/>
    </defs>
    <use xlink:href="#MalgunGothic-d559"/>
    <use xlink:href="#MalgunGothic-c2b5" transform="translate(100 0)"/>
    <use xlink:href="#MalgunGothic-20" transform="translate(200 0)"/>
    <use xlink:href="#MalgunGothic-c2dc" transform="translate(235.15625 0)"/>
    <use xlink:href="#MalgunGothic-20" transform="translate(335.15625 0)"/>
    <use xlink:href="#MalgunGothic-c800" transform="translate(370.3125 0)"/>
    <use xlink:href="#MalgunGothic-c7a5" transform="translate(470.3125 0)"/>
    <use xlink:href="#MalgunGothic-d55c" transform="translate(570.3125 0)"/>
    <use xlink:href="#MalgunGothic-20" transform="translate(670.3125 0)"/>
    <use xlink:href="#MalgunGothic-6d" transform="translate(705.46875 0)"/>
    <use xlink:href="#MalgunGothic-65" transform="translate(793.457031 0)"/>
    <use xlink:href="#MalgunGothic-64" transform="translate(846.972656 0)"/>
    <use xlink:href="#MalgunGothic-69" transform="translate(907.177734 0)"/>
    <use xlink:href="#MalgunGothic-61" transform="translate(931.787109 0)"/>
    <use xlink:href="#MalgunGothic-6e" transform="translate(983.789062 0)"/>
    <use xlink:href="#MalgunGothic-20" transform="translate(1041.601562 0)"/>
    <use xlink:href="#MalgunGothic-69" transform="translate(1076.757812 0)"/>
    <use xlink:href="#MalgunGothic-6d" transform="translate(1101.367188 0)"/>
    <use xlink:href="#MalgunGothic-70" transform="translate(1189.355469 0)"/>
    <use xlink:href="#MalgunGothic-75" transform="translate(1249.414062 0)"/>
    <use xlink:href="#MalgunGothic-74" transform="translate(1307.226562 0)"/>
    <use xlink:href="#MalgunGothic-65" transform="translate(1340.824219 0)"/>
    <use xlink:href="#MalgunGothic-72" transform="translate(1394.339844 0)"/>
    <use xlink:href="#MalgunGothic-c640" transform="translate(1429.691406 0)"/>
    <use xlink:href="#MalgunGothic-20" transform="translate(1529.691406 0)"/>
    <use xlink:href="#MalgunGothic-53" transform="translate(1564.847656 0)"/>
    <use xlink:href="#MalgunGothic-74" transform="translate(1615.644531 0)"/>
    <use xlink:href="#MalgunGothic-61" transform="translate(1650.117188 0)"/>
    <use xlink:href="#MalgunGothic-6e" transform="translate(1702.119141 0)"/>
    <use xlink:href="#MalgunGothic-64" transform="translate(1759.931641 0)"/>
    <use xlink:href="#MalgunGothic-61" transform="translate(1820.136719 0)"/>
    <use xlink:href="#MalgunGothic-72" transform="translate(1872.138672 0)"/>
    <use xlink:href="#MalgunGothic-64" transform="translate(1906.115234 0)"/>
    <use xlink:href="#MalgunGothic-53" transform="translate(1966.320312 0)"/>
    <use xlink:href="#MalgunGothic-63" transform="translate(2020.617188 0)"/>
    <use xlink:href="#MalgunGothic-61" transform="translate(2067.882812 0)"/>
    <use xlink:href="#MalgunGothic-6c" transform="translate(2119.884766 0)"/>
    <use xlink:href="#MalgunGothic-65" transform="translate(2144.494141 0)"/>
    <use xlink:href="#MalgunGothic-72" transform="translate(2198.009766 0)"/>
    <use xlink:href="#MalgunGothic-b97c" transform="translate(2233.361328 0)"/>
    <use xlink:href="#MalgunGothic-20" transform="translate(2333.361328 0)"/>
    <use xlink:href="#MalgunGothic-c7ac" transform="translate(2368.517578 0)"/>
    <use xlink:href="#MalgunGothic-c0ac" transform="translate(2468.517578 0)"/>
    <use xlink:href="#MalgunGothic-c6a9" transform="translate(2568.517578 0)"/>
    <use xlink:href="#MalgunGothic-d558" transform="translate(2668.517578 0)"/>
    <use xlink:href="#MalgunGothic-ace0" transform="translate(2768.517578 0)"/>
    <use xlink:href="#MalgunGothic-2c" transform="translate(2868.517578 0)"/>
    <use xlink:href="#MalgunGothic-20" transform="translate(2890.392578 0)"/>
    <use xlink:href="#MalgunGothic-acf5" transform="translate(2925.548828 0)"/>
    <use xlink:href="#MalgunGothic-c2dd" transform="translate(3025.548828 0)"/>
    <use xlink:href="#MalgunGothic-20" transform="translate(3125.548828 0)"/>
    <use xlink:href="#MalgunGothic-74" transform="translate(3160.705078 0)"/>
    <use xlink:href="#MalgunGothic-68" transform="translate(3195.177734 0)"/>
    <use xlink:href="#MalgunGothic-72" transform="translate(3253.039062 0)"/>
    <use xlink:href="#MalgunGothic-65" transform="translate(3287.015625 0)"/>
    <use xlink:href="#MalgunGothic-73" transform="translate(3340.53125 0)"/>
    <use xlink:href="#MalgunGothic-68" transform="translate(3383.841797 0)"/>
    <use xlink:href="#MalgunGothic-6f" transform="translate(3441.703125 0)"/>
    <use xlink:href="#MalgunGothic-6c" transform="translate(3501.615234 0)"/>
    <use xlink:href="#MalgunGothic-64" transform="translate(3526.224609 0)"/>
    <use xlink:href="#MalgunGothic-20" transform="translate(3586.429688 0)"/>
    <use xlink:href="#MalgunGothic-30" transform="translate(3621.585938 0)"/>
    <use xlink:href="#MalgunGothic-2e" transform="translate(3676.664062 0)"/>
    <use xlink:href="#MalgunGothic-35" transform="translate(3698.539062 0)"/>
    <use xlink:href="#MalgunGothic-34" transform="translate(3753.617188 0)"/>
    <use xlink:href="#MalgunGothic-b85c" transform="translate(3808.695312 0)"/>
    <use xlink:href="#MalgunGothic-20" transform="translate(3908.695312 0)"/>
    <use xlink:href="#MalgunGothic-67" transform="translate(3943.851562 0)"/>
    <use xlink:href="#MalgunGothic-6f" transform="translate(4004.056641 0)"/>
    <use xlink:href="#MalgunGothic-6f" transform="translate(4063.96875 0)"/>
    <use xlink:href="#MalgunGothic-64" transform="translate(4123.880859 0)"/>
    <use xlink:href="#MalgunGothic-5f" transform="translate(4184.085938 0)"/>
    <use xlink:href="#MalgunGothic-73" transform="translate(4226.664062 0)"/>
    <use xlink:href="#MalgunGothic-6c" transform="translate(4269.974609 0)"/>
    <use xlink:href="#MalgunGothic-65" transform="translate(4294.583984 0)"/>
    <use xlink:href="#MalgunGothic-65" transform="translate(4348.099609 0)"/>
    <use xlink:href="#MalgunGothic-70" transform="translate(4401.615234 0)"/>
    <use xlink:href="#MalgunGothic-5f" transform="translate(4461.673828 0)"/>
    <use xlink:href="#MalgunGothic-70" transform="translate(4504.251953 0)"/>
    <use xlink:href="#MalgunGothic-72" transform="translate(4564.310547 0)"/>
    <use xlink:href="#MalgunGothic-65" transform="translate(4598.287109 0)"/>
    <use xlink:href="#MalgunGothic-64" transform="translate(4651.802734 0)"/>
    <use xlink:href="#MalgunGothic-b97c" transform="translate(4712.007812 0)"/>
    <use xlink:href="#MalgunGothic-20" transform="translate(4812.007812 0)"/>
    <use xlink:href="#MalgunGothic-c0b0" transform="translate(4847.164062 0)"/>
    <use xlink:href="#MalgunGothic-cd9c" transform="translate(4947.164062 0)"/>
    <use xlink:href="#MalgunGothic-d55c" transform="translate(5047.164062 0)"/>
    <use xlink:href="#MalgunGothic-b2e4" transform="translate(5147.164062 0)"/>
    <use xlink:href="#MalgunGothic-2e" transform="translate(5247.164062 0)"/>
   </g>
  </g>
 </g>
 <defs>
  <clipPath id="p055169d5c0">
   <rect x="46.08" y="42.912" width="669.6" height="343.728"/>
  </clipPath>
 </defs>
</svg>
