<?xml version="1.0" encoding="utf-8" standalone="no"?>
<!DOCTYPE svg PUBLIC "-//W3C//DTD SVG 1.1//EN"
  "http://www.w3.org/Graphics/SVG/1.1/DTD/svg11.dtd">
<svg xmlns:xlink="http://www.w3.org/1999/xlink" width="633.280312pt" height="416.545819pt" viewBox="0 0 633.280312 416.545819" xmlns="http://www.w3.org/2000/svg" version="1.1">
 <metadata>
  <rdf:RDF xmlns:dc="http://purl.org/dc/elements/1.1/" xmlns:cc="http://creativecommons.org/ns#" xmlns:rdf="http://www.w3.org/1999/02/22-rdf-syntax-ns#">
   <cc:Work>
    <dc:type rdf:resource="http://purl.org/dc/dcmitype/StillImage"/>
    <dc:date>2026-06-30T14:57:28.546963</dc:date>
    <dc:format>image/svg+xml</dc:format>
    <dc:creator>
     <cc:Agent>
      <dc:title>Matplotlib v3.10.9, https://matplotlib.org/</dc:title>
     </cc:Agent>
    </dc:creator>
   </cc:Work>
  </rdf:RDF>
 </metadata>
 <defs>
  <style type="text/css">*{stroke-linejoin: round; stroke-linecap: butt}</style>
 </defs>
 <g id="figure_1">
  <g id="patch_1">
   <path d="M 0 416.545819 
L 633.280312 416.545819 
L 633.280312 0 
L 0 0 
z
" style="fill: #fcfcfd"/>
  </g>
  <g id="axes_1">
   <g id="patch_2">
    <path d="M 50.823281 366.336 
L 553.023281 366.336 
L 553.023281 69.84 
L 50.823281 69.84 
z
" style="fill: #ffffff"/>
   </g>
   <g id="matplotlib.axis_1">
    <g id="xtick_1">
     <g id="line2d_1">
      <path d="M 121.70797 366.336 
L 121.70797 69.84 
" clip-path="url(#pcafacc5dc7)" style="fill: none; stroke: #e6e8f0; stroke-width: 0.8; stroke-linecap: round"/>
     </g>
     <g id="text_1">
      <!-- 원본 merged dataset -->
      <g style="fill: #262626" transform="translate(71.316794 406.745016) rotate(-12) scale(0.11 -0.11)">
       <defs>
        <path id="MalgunGothic-c6d0" d="M 4978 697 
L 4978 1344 
L 3659 1344 
L 3659 1759 
L 4978 1759 
L 4978 5466 
L 5453 5466 
L 5453 697 
L 4978 697 
z
M 2625 3059 
Q 1966 3059 1548 3390 
Q 1131 3722 1131 4213 
Q 1131 4697 1545 5026 
Q 1959 5356 2625 5356 
Q 3288 5356 3702 5029 
Q 4116 4703 4116 4213 
Q 4116 3719 3700 3389 
Q 3284 3059 2625 3059 
z
M 2625 4959 
Q 2163 4959 1881 4734 
Q 1600 4509 1600 4213 
Q 1600 3909 1881 3682 
Q 2163 3456 2625 3456 
Q 3088 3456 3370 3682 
Q 3653 3909 3653 4213 
Q 3653 4509 3370 4734 
Q 3088 4959 2625 4959 
z
M 4556 2291 
Q 4100 2259 2881 2209 
L 2881 909 
L 2419 909 
L 2419 2188 
Q 1209 2144 641 2144 
L 575 2578 
Q 2853 2578 4525 2694 
L 4556 2291 
z
M 1509 -403 
L 1509 1403 
L 1978 1403 
L 1978 13 
L 5600 13 
L 5600 -403 
L 1509 -403 
z
" transform="scale(0.015625)"/>
        <path id="MalgunGothic-bcf8" d="M 403 1759 
L 403 2181 
L 2963 2181 
L 2963 2956 
L 1356 2956 
L 1356 5288 
L 1819 5288 
L 1819 4519 
L 4581 4519 
L 4581 5288 
L 5044 5288 
L 5044 2956 
L 3438 2956 
L 3438 2181 
L 5997 2181 
L 5997 1759 
L 403 1759 
z
M 4581 4103 
L 1819 4103 
L 1819 3366 
L 4581 3366 
L 4581 4103 
z
M 1319 -359 
L 1319 1375 
L 1784 1375 
L 1784 56 
L 5203 56 
L 5203 -359 
L 1319 -359 
z
" transform="scale(0.015625)"/>
        <path id="MalgunGothic-20" transform="scale(0.015625)"/>
        <path id="MalgunGothic-6d" d="M 5166 0 
L 4669 0 
L 4669 1884 
Q 4669 2463 4495 2702 
Q 4322 2941 3922 2941 
Q 3584 2941 3342 2623 
Q 3100 2306 3100 1875 
L 3100 0 
L 2606 0 
L 2606 1953 
Q 2606 2941 1844 2941 
Q 1497 2941 1265 2642 
Q 1034 2344 1034 1875 
L 1034 0 
L 538 0 
L 538 3284 
L 1034 3284 
L 1034 2763 
L 1047 2763 
Q 1391 3359 2063 3359 
Q 2381 3359 2636 3176 
Q 2891 2994 2991 2675 
Q 3356 3359 4081 3359 
Q 5166 3359 5166 2022 
L 5166 0 
z
" transform="scale(0.015625)"/>
        <path id="MalgunGothic-65" d="M 3156 1519 
L 828 1519 
Q 844 950 1133 648 
Q 1422 347 1909 347 
Q 2472 347 2934 719 
L 2934 244 
Q 2494 -78 1794 -78 
Q 1100 -78 708 376 
Q 316 831 316 1634 
Q 316 2381 747 2870 
Q 1178 3359 1816 3359 
Q 2453 3359 2804 2942 
Q 3156 2525 3156 1788 
L 3156 1519 
z
M 2644 1956 
Q 2644 2416 2423 2675 
Q 2203 2934 1809 2934 
Q 1438 2934 1169 2667 
Q 900 2400 834 1956 
L 2644 1956 
z
" transform="scale(0.015625)"/>
        <path id="MalgunGothic-72" d="M 2225 2775 
Q 2084 2881 1828 2881 
Q 1491 2881 1262 2553 
Q 1034 2225 1034 1681 
L 1034 0 
L 538 0 
L 538 3284 
L 1034 3284 
L 1034 2603 
L 1047 2603 
Q 1159 2950 1389 3145 
Q 1619 3341 1903 3341 
Q 2109 3341 2225 3297 
L 2225 2775 
z
" transform="scale(0.015625)"/>
        <path id="MalgunGothic-67" d="M 3313 259 
Q 3313 -1547 1603 -1547 
Q 1003 -1547 538 -1313 
L 538 -806 
Q 1088 -1116 1600 -1116 
Q 2822 -1116 2822 194 
L 2822 559 
L 2809 559 
Q 2422 -78 1675 -78 
Q 1066 -78 691 362 
Q 316 803 316 1534 
Q 316 2375 722 2867 
Q 1128 3359 1816 3359 
Q 2484 3359 2809 2822 
L 2822 2822 
L 2822 3284 
L 3313 3284 
L 3313 259 
z
M 2822 1978 
Q 2822 2378 2547 2659 
Q 2272 2941 1878 2941 
Q 1384 2941 1101 2577 
Q 819 2213 819 1572 
Q 819 1016 1092 680 
Q 1366 344 1803 344 
Q 2247 344 2534 666 
Q 2822 988 2822 1478 
L 2822 1978 
z
" transform="scale(0.015625)"/>
        <path id="MalgunGothic-64" d="M 3313 0 
L 2822 0 
L 2822 566 
L 2809 566 
Q 2444 -78 1675 -78 
Q 1056 -78 686 364 
Q 316 806 316 1566 
Q 316 2375 728 2867 
Q 1141 3359 1816 3359 
Q 2494 3359 2809 2822 
L 2822 2822 
L 2822 4859 
L 3313 4859 
L 3313 0 
z
M 2822 1978 
Q 2822 2378 2550 2659 
Q 2278 2941 1872 2941 
Q 1384 2941 1101 2577 
Q 819 2213 819 1591 
Q 819 1025 1086 684 
Q 1353 344 1813 344 
Q 2250 344 2536 666 
Q 2822 988 2822 1478 
L 2822 1978 
z
" transform="scale(0.015625)"/>
        <path id="MalgunGothic-61" d="M 616 3050 
Q 1097 3359 1722 3359 
Q 2866 3359 2866 2147 
L 2866 0 
L 2369 0 
L 2369 516 
L 2350 516 
Q 2009 -78 1341 -78 
Q 859 -78 576 180 
Q 294 438 294 869 
Q 294 1784 1375 1934 
L 2366 2078 
Q 2366 2934 1684 2934 
Q 1084 2934 616 2525 
L 616 3050 
z
M 1563 1559 
Q 1178 1509 993 1371 
Q 809 1234 809 903 
Q 809 653 986 500 
Q 1163 347 1450 347 
Q 1847 347 2106 628 
Q 2366 909 2366 1334 
L 2366 1666 
L 1563 1559 
z
" transform="scale(0.015625)"/>
        <path id="MalgunGothic-74" d="M 2031 31 
Q 1844 -72 1553 -72 
Q 706 -72 706 881 
L 706 2856 
L 138 2856 
L 138 3284 
L 706 3284 
L 706 4091 
L 1200 4250 
L 1200 3284 
L 2031 3284 
L 2031 2856 
L 1200 2856 
L 1200 972 
Q 1200 625 1315 487 
Q 1431 350 1691 350 
Q 1888 350 2031 459 
L 2031 31 
z
" transform="scale(0.015625)"/>
        <path id="MalgunGothic-73" d="M 331 669 
Q 763 350 1278 350 
Q 1978 350 1978 822 
Q 1978 1025 1825 1158 
Q 1672 1291 1222 1459 
Q 703 1666 520 1878 
Q 338 2091 338 2416 
Q 338 2834 700 3096 
Q 1063 3359 1584 3359 
Q 2003 3359 2341 3213 
L 2341 2697 
Q 1975 2934 1506 2934 
Q 1200 2934 1025 2798 
Q 850 2663 850 2459 
Q 850 2241 979 2125 
Q 1109 2009 1544 1838 
Q 2131 1609 2309 1390 
Q 2488 1172 2488 869 
Q 2488 431 2127 176 
Q 1766 -78 1203 -78 
Q 694 -78 331 122 
L 331 669 
z
" transform="scale(0.015625)"/>
       </defs>
       <use xlink:href="#MalgunGothic-c6d0"/>
       <use xlink:href="#MalgunGothic-bcf8" transform="translate(100 0)"/>
       <use xlink:href="#MalgunGothic-20" transform="translate(200 0)"/>
       <use xlink:href="#MalgunGothic-6d" transform="translate(235.15625 0)"/>
       <use xlink:href="#MalgunGothic-65" transform="translate(323.144531 0)"/>
       <use xlink:href="#MalgunGothic-72" transform="translate(376.660156 0)"/>
       <use xlink:href="#MalgunGothic-67" transform="translate(410.636719 0)"/>
       <use xlink:href="#MalgunGothic-65" transform="translate(470.841797 0)"/>
       <use xlink:href="#MalgunGothic-64" transform="translate(524.357422 0)"/>
       <use xlink:href="#MalgunGothic-20" transform="translate(584.5625 0)"/>
       <use xlink:href="#MalgunGothic-64" transform="translate(619.71875 0)"/>
       <use xlink:href="#MalgunGothic-61" transform="translate(679.923828 0)"/>
       <use xlink:href="#MalgunGothic-74" transform="translate(731.925781 0)"/>
       <use xlink:href="#MalgunGothic-61" transform="translate(766.398438 0)"/>
       <use xlink:href="#MalgunGothic-73" transform="translate(818.400391 0)"/>
       <use xlink:href="#MalgunGothic-65" transform="translate(861.710938 0)"/>
       <use xlink:href="#MalgunGothic-74" transform="translate(915.226562 0)"/>
      </g>
     </g>
    </g>
    <g id="xtick_2">
     <g id="line2d_2">
      <path d="M 241.851511 366.336 
L 241.851511 69.84 
" clip-path="url(#pcafacc5dc7)" style="fill: none; stroke: #e6e8f0; stroke-width: 0.8; stroke-linecap: round"/>
     </g>
     <g id="text_2">
      <!-- 결측 처리 후 -->
      <g style="fill: #262626" transform="translate(211.767615 397.048118) rotate(-12) scale(0.11 -0.11)">
       <defs>
        <path id="MalgunGothic-acb0" d="M 3647 2931 
L 3647 3334 
L 4947 3334 
L 4947 4172 
L 3744 4172 
L 3744 4581 
L 4947 4581 
L 4947 5466 
L 5416 5466 
L 5416 2328 
L 4947 2328 
L 4947 2931 
L 3647 2931 
z
M 872 2053 
L 550 2425 
Q 1600 2778 2237 3404 
Q 2875 4031 3066 4800 
L 941 4800 
L 941 5209 
L 3609 5209 
Q 3503 4163 2790 3344 
Q 2078 2525 872 2053 
z
M 1722 -494 
L 1722 984 
L 4947 984 
L 4947 1600 
L 1722 1600 
L 1722 1997 
L 5416 1997 
L 5416 588 
L 2188 588 
L 2188 -91 
L 5581 -91 
L 5581 -494 
L 1722 -494 
z
" transform="scale(0.015625)"/>
        <path id="MalgunGothic-ce21" d="M 5466 3116 
Q 4794 3184 4103 3512 
Q 3413 3841 3206 4141 
Q 2972 3816 2308 3505 
Q 1644 3194 966 3122 
L 697 3547 
Q 1359 3547 2046 3836 
Q 2734 4125 2919 4538 
L 1056 4538 
L 1056 4953 
L 2969 4953 
L 2969 5516 
L 3444 5516 
L 3444 4953 
L 5344 4953 
L 5344 4538 
L 3481 4538 
Q 3669 4119 4353 3836 
Q 5038 3553 5703 3553 
L 5466 3116 
z
M 403 2156 
L 403 2572 
L 5997 2572 
L 5997 2156 
L 403 2156 
z
M 4609 -563 
L 4609 1075 
L 1197 1075 
L 1197 1491 
L 5075 1491 
L 5075 -563 
L 4609 -563 
z
" transform="scale(0.015625)"/>
        <path id="MalgunGothic-cc98" d="M 4947 -563 
L 4947 2803 
L 3634 2803 
L 3634 3219 
L 4947 3219 
L 4947 5466 
L 5416 5466 
L 5416 -563 
L 4947 -563 
z
M 3853 966 
Q 3369 1244 2919 1747 
Q 2469 2250 2316 2656 
Q 2188 2250 1736 1679 
Q 1284 1109 825 831 
L 469 1197 
Q 1131 1516 1606 2239 
Q 2081 2963 2081 3628 
L 2081 4206 
L 616 4206 
L 616 4622 
L 2075 4622 
L 2075 5466 
L 2541 5466 
L 2541 4622 
L 4006 4622 
L 4006 4206 
L 2547 4206 
L 2541 3603 
Q 2534 2991 3012 2312 
Q 3491 1634 4184 1338 
L 3853 966 
z
" transform="scale(0.015625)"/>
        <path id="MalgunGothic-b9ac" d="M 4884 -563 
L 4884 5466 
L 5350 5466 
L 5350 -563 
L 4884 -563 
z
M 856 738 
L 856 3128 
L 3150 3128 
L 3150 4519 
L 856 4519 
L 856 4934 
L 3616 4934 
L 3616 2725 
L 1325 2725 
L 1325 1153 
Q 3597 1153 4197 1281 
L 4250 878 
Q 3500 738 856 738 
z
" transform="scale(0.015625)"/>
        <path id="MalgunGothic-d6c4" d="M 928 4397 
L 928 4800 
L 2963 4800 
L 2963 5459 
L 3438 5459 
L 3438 4800 
L 5472 4800 
L 5472 4397 
L 928 4397 
z
M 3200 2075 
Q 2234 2075 1743 2340 
Q 1253 2606 1253 3066 
Q 1253 3528 1753 3795 
Q 2253 4063 3200 4063 
Q 4144 4063 4642 3795 
Q 5141 3528 5141 3066 
Q 5141 2606 4650 2340 
Q 4159 2075 3200 2075 
z
M 3194 3675 
Q 2484 3675 2112 3503 
Q 1741 3331 1741 3066 
Q 1741 2797 2114 2630 
Q 2488 2463 3194 2463 
Q 3900 2463 4276 2628 
Q 4653 2794 4653 3066 
Q 4653 3334 4276 3504 
Q 3900 3675 3194 3675 
z
M 3438 1209 
L 3438 -563 
L 2963 -563 
L 2963 1209 
L 403 1209 
L 403 1625 
L 5997 1625 
L 5997 1209 
L 3438 1209 
z
" transform="scale(0.015625)"/>
       </defs>
       <use xlink:href="#MalgunGothic-acb0"/>
       <use xlink:href="#MalgunGothic-ce21" transform="translate(100 0)"/>
       <use xlink:href="#MalgunGothic-20" transform="translate(200 0)"/>
       <use xlink:href="#MalgunGothic-cc98" transform="translate(235.15625 0)"/>
       <use xlink:href="#MalgunGothic-b9ac" transform="translate(335.15625 0)"/>
       <use xlink:href="#MalgunGothic-20" transform="translate(435.15625 0)"/>
       <use xlink:href="#MalgunGothic-d6c4" transform="translate(470.3125 0)"/>
      </g>
     </g>
    </g>
    <g id="xtick_3">
     <g id="line2d_3">
      <path d="M 361.995052 366.336 
L 361.995052 69.84 
" clip-path="url(#pcafacc5dc7)" style="fill: none; stroke: #e6e8f0; stroke-width: 0.8; stroke-linecap: round"/>
     </g>
     <g id="text_3">
      <!-- 인코딩 후 -->
      <g style="fill: #262626" transform="translate(339.182308 393.957056) rotate(-12) scale(0.11 -0.11)">
       <defs>
        <path id="MalgunGothic-c778" d="M 4947 1063 
L 4947 5466 
L 5416 5466 
L 5416 1063 
L 4947 1063 
z
M 2438 2175 
Q 1763 2175 1309 2601 
Q 856 3028 856 3706 
Q 856 4388 1307 4811 
Q 1759 5234 2438 5234 
Q 3116 5234 3564 4812 
Q 4013 4391 4013 3706 
Q 4013 3028 3563 2601 
Q 3113 2175 2438 2175 
z
M 2438 4819 
Q 1944 4819 1634 4516 
Q 1325 4213 1325 3706 
Q 1325 3200 1633 2895 
Q 1941 2591 2438 2591 
Q 2934 2591 3243 2895 
Q 3553 3200 3553 3706 
Q 3553 4213 3243 4516 
Q 2934 4819 2438 4819 
z
M 1613 -331 
L 1613 1625 
L 2081 1625 
L 2081 91 
L 5575 91 
L 5575 -331 
L 1613 -331 
z
" transform="scale(0.015625)"/>
        <path id="MalgunGothic-cf54" d="M 5006 1478 
L 4563 1528 
Q 4656 2344 4666 3047 
L 959 2797 
L 863 3244 
L 4666 3438 
L 4672 4481 
L 1147 4481 
L 1147 4891 
L 5141 4891 
L 5141 3481 
Q 5141 2375 5006 1478 
z
M 403 416 
L 403 838 
L 2656 838 
L 2656 2309 
L 3122 2309 
L 3122 838 
L 5997 838 
L 5997 416 
L 403 416 
z
" transform="scale(0.015625)"/>
        <path id="MalgunGothic-b529" d="M 4947 1966 
L 4947 5466 
L 5416 5466 
L 5416 1966 
L 4947 1966 
z
M 4206 2600 
Q 3309 2528 1113 2528 
L 1113 5119 
L 3963 5119 
L 3963 4703 
L 1581 4703 
L 1581 2944 
L 1988 2944 
Q 3356 2944 4172 3003 
L 4206 2600 
z
M 3531 -488 
Q 2591 -488 2080 -172 
Q 1569 144 1569 666 
Q 1569 1184 2078 1501 
Q 2588 1819 3531 1819 
Q 4478 1819 4987 1500 
Q 5497 1181 5497 666 
Q 5497 147 4986 -170 
Q 4475 -488 3531 -488 
z
M 3531 1422 
Q 2813 1422 2436 1211 
Q 2059 1000 2059 666 
Q 2059 331 2436 120 
Q 2813 -91 3531 -91 
Q 4247 -91 4622 118 
Q 4997 328 4997 666 
Q 4997 1003 4622 1212 
Q 4247 1422 3531 1422 
z
" transform="scale(0.015625)"/>
       </defs>
       <use xlink:href="#MalgunGothic-c778"/>
       <use xlink:href="#MalgunGothic-cf54" transform="translate(100 0)"/>
       <use xlink:href="#MalgunGothic-b529" transform="translate(200 0)"/>
       <use xlink:href="#MalgunGothic-20" transform="translate(300 0)"/>
       <use xlink:href="#MalgunGothic-d6c4" transform="translate(335.15625 0)"/>
      </g>
     </g>
    </g>
    <g id="xtick_4">
     <g id="line2d_4">
      <path d="M 482.138592 366.336 
L 482.138592 69.84 
" clip-path="url(#pcafacc5dc7)" style="fill: none; stroke: #e6e8f0; stroke-width: 0.8; stroke-linecap: round"/>
     </g>
     <g id="text_4">
      <!-- 스케일링 후 -->
      <g style="fill: #262626" transform="translate(453.946037 396.244084) rotate(-12) scale(0.11 -0.11)">
       <defs>
        <path id="MalgunGothic-c2a4" d="M 3194 3897 
Q 2969 3416 2328 2930 
Q 1688 2444 959 2247 
L 641 2619 
Q 1703 2841 2329 3472 
Q 2956 4103 2956 4659 
L 2956 4978 
L 3438 4978 
L 3438 4659 
Q 3438 4094 4073 3476 
Q 4709 2859 5759 2625 
L 5428 2253 
Q 4694 2481 4058 2956 
Q 3422 3431 3194 3897 
z
M 5997 447 
L 403 447 
L 403 863 
L 5997 863 
L 5997 447 
z
" transform="scale(0.015625)"/>
        <path id="MalgunGothic-cf00" d="M 5044 -563 
L 5044 5466 
L 5509 5466 
L 5509 -563 
L 5044 -563 
z
M 3938 -363 
L 3938 2700 
L 2803 2700 
L 2803 3116 
L 3938 3116 
L 3938 5344 
L 4397 5344 
L 4397 -363 
L 3938 -363 
z
M 3078 4941 
Q 2978 2403 813 872 
L 441 1197 
Q 1059 1538 1543 2113 
Q 2028 2688 2253 3231 
L 722 3034 
L 556 3475 
L 2406 3616 
Q 2556 4047 2584 4531 
L 800 4531 
L 800 4941 
L 3078 4941 
z
" transform="scale(0.015625)"/>
        <path id="MalgunGothic-c77c" d="M 4947 2363 
L 4947 5466 
L 5422 5466 
L 5422 2363 
L 4947 2363 
z
M 2419 2578 
Q 1738 2578 1314 2970 
Q 891 3363 891 3969 
Q 891 4572 1314 4961 
Q 1738 5350 2419 5350 
Q 3097 5350 3523 4959 
Q 3950 4569 3950 3969 
Q 3950 3366 3522 2972 
Q 3094 2578 2419 2578 
z
M 2419 4947 
Q 1931 4947 1643 4680 
Q 1356 4413 1356 3969 
Q 1356 3522 1643 3248 
Q 1931 2975 2419 2975 
Q 2906 2975 3193 3248 
Q 3481 3522 3481 3969 
Q 3481 4413 3193 4680 
Q 2906 4947 2419 4947 
z
M 1703 -422 
L 1703 1038 
L 4959 1038 
L 4959 1613 
L 1703 1613 
L 1703 2028 
L 5422 2028 
L 5422 634 
L 2163 634 
L 2163 -6 
L 5588 -6 
L 5588 -422 
L 1703 -422 
z
" transform="scale(0.015625)"/>
        <path id="MalgunGothic-b9c1" d="M 4947 1850 
L 4947 5466 
L 5416 5466 
L 5416 1850 
L 4947 1850 
z
M 4325 2344 
Q 3844 2266 3369 2250 
Q 2894 2234 1044 2234 
L 1044 3963 
L 3278 3963 
L 3278 4800 
L 1044 4800 
L 1044 5209 
L 3738 5209 
L 3738 3559 
L 1503 3559 
L 1503 2650 
Q 3034 2650 3479 2667 
Q 3925 2684 4256 2747 
L 4325 2344 
z
M 3494 -500 
Q 2541 -500 2031 -197 
Q 1522 106 1522 616 
Q 1522 1125 2031 1426 
Q 2541 1728 3494 1728 
Q 4447 1728 4956 1423 
Q 5466 1119 5466 616 
Q 5466 109 4958 -195 
Q 4450 -500 3494 -500 
z
M 3494 1331 
Q 2769 1331 2392 1139 
Q 2016 947 2016 616 
Q 2016 281 2398 89 
Q 2781 -103 3494 -103 
Q 4213 -103 4589 90 
Q 4966 284 4966 616 
Q 4966 944 4595 1137 
Q 4225 1331 3494 1331 
z
" transform="scale(0.015625)"/>
       </defs>
       <use xlink:href="#MalgunGothic-c2a4"/>
       <use xlink:href="#MalgunGothic-cf00" transform="translate(100 0)"/>
       <use xlink:href="#MalgunGothic-c77c" transform="translate(200 0)"/>
       <use xlink:href="#MalgunGothic-b9c1" transform="translate(300 0)"/>
       <use xlink:href="#MalgunGothic-20" transform="translate(400 0)"/>
       <use xlink:href="#MalgunGothic-d6c4" transform="translate(435.15625 0)"/>
      </g>
     </g>
    </g>
   </g>
   <g id="matplotlib.axis_2">
    <g id="ytick_1">
     <g id="line2d_5">
      <path d="M 50.823281 366.336 
L 553.023281 366.336 
" clip-path="url(#pcafacc5dc7)" style="fill: none; stroke: #e6e8f0; stroke-width: 0.8; stroke-linecap: round"/>
     </g>
     <g id="text_5">
      <!-- 0 -->
      <g style="fill: #262626" transform="translate(35.264687 370.511703) scale(0.11 -0.11)">
       <defs>
        <path id="MalgunGothic-30" d="M 278 2206 
Q 278 3425 675 4050 
Q 1072 4675 1819 4675 
Q 3253 4675 3253 2319 
Q 3253 1156 2854 539 
Q 2456 -78 1716 -78 
Q 1016 -78 647 520 
Q 278 1119 278 2206 
z
M 784 2231 
Q 784 344 1769 344 
Q 2747 344 2747 2259 
Q 2747 4250 1794 4250 
Q 784 4250 784 2231 
z
" transform="scale(0.015625)"/>
       </defs>
       <use xlink:href="#MalgunGothic-30"/>
      </g>
     </g>
    </g>
    <g id="ytick_2">
     <g id="line2d_6">
      <path d="M 50.823281 303.251745 
L 553.023281 303.251745 
" clip-path="url(#pcafacc5dc7)" style="fill: none; stroke: #e6e8f0; stroke-width: 0.8; stroke-linecap: round"/>
     </g>
     <g id="text_6">
      <!-- 50 -->
      <g style="fill: #262626" transform="translate(29.206094 307.427448) scale(0.11 -0.11)">
       <defs>
        <path id="MalgunGothic-35" d="M 3072 1403 
Q 3072 722 2636 322 
Q 2200 -78 1469 -78 
Q 828 -78 516 113 
L 516 650 
Q 994 344 1475 344 
Q 1969 344 2270 630 
Q 2572 916 2572 1372 
Q 2572 1838 2265 2092 
Q 1959 2347 1381 2347 
Q 994 2347 603 2300 
L 759 4600 
L 2869 4600 
L 2869 4147 
L 1206 4147 
L 1106 2763 
Q 1347 2784 1547 2784 
Q 2263 2784 2667 2414 
Q 3072 2044 3072 1403 
z
" transform="scale(0.015625)"/>
       </defs>
       <use xlink:href="#MalgunGothic-35"/>
       <use xlink:href="#MalgunGothic-30" transform="translate(55.078125 0)"/>
      </g>
     </g>
    </g>
    <g id="ytick_3">
     <g id="line2d_7">
      <path d="M 50.823281 240.167489 
L 553.023281 240.167489 
" clip-path="url(#pcafacc5dc7)" style="fill: none; stroke: #e6e8f0; stroke-width: 0.8; stroke-linecap: round"/>
     </g>
     <g id="text_7">
      <!-- 100 -->
      <g style="fill: #262626" transform="translate(23.1475 244.343192) scale(0.11 -0.11)">
       <defs>
        <path id="MalgunGothic-31" d="M 2231 0 
L 1734 0 
L 1734 3972 
Q 1591 3828 1266 3661 
Q 941 3494 672 3428 
L 672 3959 
Q 1016 4056 1409 4275 
Q 1803 4494 2031 4700 
L 2231 4700 
L 2231 0 
z
" transform="scale(0.015625)"/>
       </defs>
       <use xlink:href="#MalgunGothic-31"/>
       <use xlink:href="#MalgunGothic-30" transform="translate(55.078125 0)"/>
       <use xlink:href="#MalgunGothic-30" transform="translate(110.15625 0)"/>
      </g>
     </g>
    </g>
    <g id="ytick_4">
     <g id="line2d_8">
      <path d="M 50.823281 177.083234 
L 553.023281 177.083234 
" clip-path="url(#pcafacc5dc7)" style="fill: none; stroke: #e6e8f0; stroke-width: 0.8; stroke-linecap: round"/>
     </g>
     <g id="text_8">
      <!-- 150 -->
      <g style="fill: #262626" transform="translate(23.1475 181.258937) scale(0.11 -0.11)">
       <use xlink:href="#MalgunGothic-31"/>
       <use xlink:href="#MalgunGothic-35" transform="translate(55.078125 0)"/>
       <use xlink:href="#MalgunGothic-30" transform="translate(110.15625 0)"/>
      </g>
     </g>
    </g>
    <g id="ytick_5">
     <g id="line2d_9">
      <path d="M 50.823281 113.998979 
L 553.023281 113.998979 
" clip-path="url(#pcafacc5dc7)" style="fill: none; stroke: #e6e8f0; stroke-width: 0.8; stroke-linecap: round"/>
     </g>
     <g id="text_9">
      <!-- 200 -->
      <g style="fill: #262626" transform="translate(23.1475 118.174682) scale(0.11 -0.11)">
       <defs>
        <path id="MalgunGothic-32" d="M 2519 3372 
Q 2519 3784 2275 4018 
Q 2031 4253 1628 4253 
Q 1341 4253 1053 4104 
Q 766 3956 534 3697 
L 534 4234 
Q 981 4675 1691 4675 
Q 2281 4675 2642 4334 
Q 3003 3994 3003 3416 
Q 3003 2919 2772 2545 
Q 2541 2172 1984 1775 
Q 1459 1406 1254 1215 
Q 1050 1025 967 854 
Q 884 684 884 450 
L 3116 450 
L 3116 0 
L 356 0 
L 356 225 
Q 356 603 461 870 
Q 566 1138 811 1392 
Q 1056 1647 1597 2022 
Q 2091 2363 2305 2670 
Q 2519 2978 2519 3372 
z
" transform="scale(0.015625)"/>
       </defs>
       <use xlink:href="#MalgunGothic-32"/>
       <use xlink:href="#MalgunGothic-30" transform="translate(55.078125 0)"/>
       <use xlink:href="#MalgunGothic-30" transform="translate(110.15625 0)"/>
      </g>
     </g>
    </g>
    <g id="text_10">
     <!-- column 수 -->
     <g style="fill: #1f2430" transform="translate(16.310625 246.320812) rotate(-90) scale(0.12 -0.12)">
      <defs>
       <path id="MalgunGothic-63" d="M 2763 153 
Q 2375 -78 1872 -78 
Q 1184 -78 750 372 
Q 316 822 316 1566 
Q 316 2381 777 2870 
Q 1238 3359 2009 3359 
Q 2434 3359 2766 3200 
L 2766 2681 
Q 2397 2941 1981 2941 
Q 1478 2941 1148 2577 
Q 819 2213 819 1609 
Q 819 1034 1120 689 
Q 1422 344 1947 344 
Q 2381 344 2763 631 
L 2763 153 
z
" transform="scale(0.015625)"/>
       <path id="MalgunGothic-6f" d="M 316 1600 
Q 316 2419 761 2889 
Q 1206 3359 1978 3359 
Q 2697 3359 3111 2907 
Q 3525 2456 3525 1650 
Q 3525 869 3078 395 
Q 2631 -78 1900 -78 
Q 1184 -78 750 384 
Q 316 847 316 1600 
z
M 819 1622 
Q 819 1041 1123 692 
Q 1428 344 1934 344 
Q 2459 344 2739 680 
Q 3019 1016 3019 1634 
Q 3019 2256 2737 2598 
Q 2456 2941 1934 2941 
Q 1425 2941 1122 2587 
Q 819 2234 819 1622 
z
" transform="scale(0.015625)"/>
       <path id="MalgunGothic-6c" d="M 541 0 
L 541 4859 
L 1034 4859 
L 1034 0 
L 541 0 
z
" transform="scale(0.015625)"/>
       <path id="MalgunGothic-75" d="M 3166 0 
L 2669 0 
L 2669 519 
L 2656 519 
Q 2331 -78 1644 -78 
Q 469 -78 469 1322 
L 469 3284 
L 959 3284 
L 959 1403 
Q 959 344 1766 344 
Q 2159 344 2414 636 
Q 2669 928 2669 1394 
L 2669 3284 
L 3166 3284 
L 3166 0 
z
" transform="scale(0.015625)"/>
       <path id="MalgunGothic-6e" d="M 3238 0 
L 2741 0 
L 2741 1875 
Q 2741 2941 1963 2941 
Q 1563 2941 1298 2639 
Q 1034 2338 1034 1872 
L 1034 0 
L 538 0 
L 538 3284 
L 1034 3284 
L 1034 2734 
L 1047 2734 
Q 1416 3359 2125 3359 
Q 2666 3359 2952 3012 
Q 3238 2666 3238 2006 
L 3238 0 
z
" transform="scale(0.015625)"/>
       <path id="MalgunGothic-c218" d="M 5491 2994 
Q 4750 3097 4078 3498 
Q 3406 3900 3200 4275 
Q 2975 3891 2309 3491 
Q 1644 3091 922 2956 
L 634 3347 
Q 1559 3450 2261 3942 
Q 2963 4434 2963 5013 
L 2963 5275 
L 3431 5275 
L 3431 5013 
Q 3431 4431 4118 3948 
Q 4806 3466 5766 3378 
L 5491 2994 
z
M 3431 1838 
L 3431 -563 
L 2963 -563 
L 2963 1838 
L 403 1838 
L 403 2253 
L 5997 2253 
L 5997 1838 
L 3431 1838 
z
" transform="scale(0.015625)"/>
      </defs>
      <use xlink:href="#MalgunGothic-63"/>
      <use xlink:href="#MalgunGothic-6f" transform="translate(47.265625 0)"/>
      <use xlink:href="#MalgunGothic-6c" transform="translate(107.177734 0)"/>
      <use xlink:href="#MalgunGothic-75" transform="translate(131.787109 0)"/>
      <use xlink:href="#MalgunGothic-6d" transform="translate(189.599609 0)"/>
      <use xlink:href="#MalgunGothic-6e" transform="translate(277.587891 0)"/>
      <use xlink:href="#MalgunGothic-20" transform="translate(335.400391 0)"/>
      <use xlink:href="#MalgunGothic-c218" transform="translate(370.556641 0)"/>
     </g>
    </g>
   </g>
   <g id="patch_3">
    <path d="M 73.650554 366.336 
L 169.765387 366.336 
L 169.765387 202.316936 
L 73.650554 202.316936 
z
" clip-path="url(#pcafacc5dc7)" style="fill: #e2e5ea; stroke: #1f2430; stroke-linejoin: miter"/>
   </g>
   <g id="patch_4">
    <path d="M 193.794095 366.336 
L 289.908927 366.336 
L 289.908927 113.998979 
L 193.794095 113.998979 
z
" clip-path="url(#pcafacc5dc7)" style="fill: #a3befa; stroke: #1f2430; stroke-linejoin: miter"/>
   </g>
   <g id="patch_5">
    <path d="M 313.937635 366.336 
L 410.052468 366.336 
L 410.052468 113.998979 
L 313.937635 113.998979 
z
" clip-path="url(#pcafacc5dc7)" style="fill: #cedffe; stroke: #1f2430; stroke-linejoin: miter"/>
   </g>
   <g id="patch_6">
    <path d="M 434.081176 366.336 
L 530.196009 366.336 
L 530.196009 126.61583 
L 434.081176 126.61583 
z
" clip-path="url(#pcafacc5dc7)" style="fill: #a3d576; stroke: #1f2430; stroke-linejoin: miter"/>
   </g>
   <g id="patch_7">
    <path d="M 50.823281 366.336 
L 50.823281 69.84 
" style="fill: none; stroke: #d7dbe7; stroke-width: 1.25; stroke-linejoin: miter; stroke-linecap: square"/>
   </g>
   <g id="patch_8">
    <path d="M 50.823281 366.336 
L 553.023281 366.336 
" style="fill: none; stroke: #d7dbe7; stroke-width: 1.25; stroke-linejoin: miter; stroke-linecap: square"/>
   </g>
   <g id="text_11">
    <!-- 130 cols -->
    <g style="fill: #1f2430" transform="translate(104.811173 193.880854) scale(0.09 -0.09)">
     <defs>
      <path id="MalgunGothic-33" d="M 416 719 
Q 891 344 1478 344 
Q 1959 344 2254 587 
Q 2550 831 2550 1247 
Q 2550 2169 1253 2169 
L 872 2169 
L 872 2591 
L 1234 2591 
Q 2388 2591 2388 3453 
Q 2388 4250 1509 4250 
Q 1022 4250 594 3916 
L 594 4413 
Q 1031 4675 1634 4675 
Q 2184 4675 2539 4372 
Q 2894 4069 2894 3581 
Q 2894 2678 1972 2409 
L 1972 2400 
Q 2469 2356 2764 2053 
Q 3059 1750 3059 1300 
Q 3059 672 2604 297 
Q 2150 -78 1450 -78 
Q 806 -78 416 169 
L 416 719 
z
" transform="scale(0.015625)"/>
     </defs>
     <use xlink:href="#MalgunGothic-31"/>
     <use xlink:href="#MalgunGothic-33" transform="translate(55.078125 0)"/>
     <use xlink:href="#MalgunGothic-30" transform="translate(110.15625 0)"/>
     <use xlink:href="#MalgunGothic-20" transform="translate(165.234375 0)"/>
     <use xlink:href="#MalgunGothic-63" transform="translate(200.390625 0)"/>
     <use xlink:href="#MalgunGothic-6f" transform="translate(247.65625 0)"/>
     <use xlink:href="#MalgunGothic-6c" transform="translate(307.568359 0)"/>
     <use xlink:href="#MalgunGothic-73" transform="translate(332.177734 0)"/>
    </g>
   </g>
   <g id="text_12">
    <!-- 200 cols -->
    <g style="fill: #1f2430" transform="translate(224.954714 95.187866) scale(0.09 -0.09)">
     <use xlink:href="#MalgunGothic-32"/>
     <use xlink:href="#MalgunGothic-30" transform="translate(55.078125 0)"/>
     <use xlink:href="#MalgunGothic-30" transform="translate(110.15625 0)"/>
     <use xlink:href="#MalgunGothic-20" transform="translate(165.234375 0)"/>
     <use xlink:href="#MalgunGothic-63" transform="translate(200.390625 0)"/>
     <use xlink:href="#MalgunGothic-6f" transform="translate(247.65625 0)"/>
     <use xlink:href="#MalgunGothic-6c" transform="translate(307.568359 0)"/>
     <use xlink:href="#MalgunGothic-73" transform="translate(332.177734 0)"/>
    </g>
    <!-- missing indicator 97 -->
    <g style="fill: #1f2430" transform="translate(200.556277 105.515084) scale(0.09 -0.09)">
     <defs>
      <path id="MalgunGothic-69" d="M 472 4466 
Q 472 4606 565 4701 
Q 659 4797 794 4797 
Q 934 4797 1029 4700 
Q 1125 4603 1125 4466 
Q 1125 4325 1029 4231 
Q 934 4138 794 4138 
Q 659 4138 565 4230 
Q 472 4322 472 4466 
z
M 541 0 
L 541 3284 
L 1034 3284 
L 1034 0 
L 541 0 
z
" transform="scale(0.015625)"/>
      <path id="MalgunGothic-39" d="M 556 563 
Q 941 344 1366 344 
Q 1994 344 2347 855 
Q 2700 1366 2700 2313 
Q 2694 2306 2688 2313 
Q 2388 1713 1653 1713 
Q 1059 1713 682 2120 
Q 306 2528 306 3144 
Q 306 3806 711 4240 
Q 1116 4675 1772 4675 
Q 2466 4675 2833 4131 
Q 3200 3588 3200 2578 
Q 3200 1319 2717 620 
Q 2234 -78 1344 -78 
Q 881 -78 556 78 
L 556 563 
z
M 813 3219 
Q 813 2741 1063 2450 
Q 1313 2159 1759 2159 
Q 2147 2159 2406 2417 
Q 2666 2675 2666 3047 
Q 2666 3556 2411 3903 
Q 2156 4250 1725 4250 
Q 1322 4250 1067 3948 
Q 813 3647 813 3219 
z
" transform="scale(0.015625)"/>
      <path id="MalgunGothic-37" d="M 3213 4297 
Q 2478 3006 2064 1918 
Q 1650 831 1550 0 
L 1009 0 
Q 1084 531 1290 1176 
Q 1497 1822 1815 2537 
Q 2134 3253 2631 4147 
L 291 4147 
L 291 4600 
L 3213 4600 
L 3213 4297 
z
" transform="scale(0.015625)"/>
     </defs>
     <use xlink:href="#MalgunGothic-6d"/>
     <use xlink:href="#MalgunGothic-69" transform="translate(87.988281 0)"/>
     <use xlink:href="#MalgunGothic-73" transform="translate(112.597656 0)"/>
     <use xlink:href="#MalgunGothic-73" transform="translate(155.908203 0)"/>
     <use xlink:href="#MalgunGothic-69" transform="translate(199.21875 0)"/>
     <use xlink:href="#MalgunGothic-6e" transform="translate(223.828125 0)"/>
     <use xlink:href="#MalgunGothic-67" transform="translate(281.640625 0)"/>
     <use xlink:href="#MalgunGothic-20" transform="translate(341.845703 0)"/>
     <use xlink:href="#MalgunGothic-69" transform="translate(377.001953 0)"/>
     <use xlink:href="#MalgunGothic-6e" transform="translate(401.611328 0)"/>
     <use xlink:href="#MalgunGothic-64" transform="translate(459.423828 0)"/>
     <use xlink:href="#MalgunGothic-69" transform="translate(519.628906 0)"/>
     <use xlink:href="#MalgunGothic-63" transform="translate(544.238281 0)"/>
     <use xlink:href="#MalgunGothic-61" transform="translate(591.503906 0)"/>
     <use xlink:href="#MalgunGothic-74" transform="translate(643.505859 0)"/>
     <use xlink:href="#MalgunGothic-6f" transform="translate(677.103516 0)"/>
     <use xlink:href="#MalgunGothic-72" transform="translate(737.015625 0)"/>
     <use xlink:href="#MalgunGothic-20" transform="translate(772.367188 0)"/>
     <use xlink:href="#MalgunGothic-39" transform="translate(807.523438 0)"/>
     <use xlink:href="#MalgunGothic-37" transform="translate(862.601562 0)"/>
    </g>
   </g>
   <g id="text_13">
    <!-- 200 cols -->
    <g style="fill: #1f2430" transform="translate(345.098255 95.187866) scale(0.09 -0.09)">
     <use xlink:href="#MalgunGothic-32"/>
     <use xlink:href="#MalgunGothic-30" transform="translate(55.078125 0)"/>
     <use xlink:href="#MalgunGothic-30" transform="translate(110.15625 0)"/>
     <use xlink:href="#MalgunGothic-20" transform="translate(165.234375 0)"/>
     <use xlink:href="#MalgunGothic-63" transform="translate(200.390625 0)"/>
     <use xlink:href="#MalgunGothic-6f" transform="translate(247.65625 0)"/>
     <use xlink:href="#MalgunGothic-6c" transform="translate(307.568359 0)"/>
     <use xlink:href="#MalgunGothic-73" transform="translate(332.177734 0)"/>
    </g>
    <!-- missing indicator 97 -->
    <g style="fill: #1f2430" transform="translate(320.699817 105.515084) scale(0.09 -0.09)">
     <use xlink:href="#MalgunGothic-6d"/>
     <use xlink:href="#MalgunGothic-69" transform="translate(87.988281 0)"/>
     <use xlink:href="#MalgunGothic-73" transform="translate(112.597656 0)"/>
     <use xlink:href="#MalgunGothic-73" transform="translate(155.908203 0)"/>
     <use xlink:href="#MalgunGothic-69" transform="translate(199.21875 0)"/>
     <use xlink:href="#MalgunGothic-6e" transform="translate(223.828125 0)"/>
     <use xlink:href="#MalgunGothic-67" transform="translate(281.640625 0)"/>
     <use xlink:href="#MalgunGothic-20" transform="translate(341.845703 0)"/>
     <use xlink:href="#MalgunGothic-69" transform="translate(377.001953 0)"/>
     <use xlink:href="#MalgunGothic-6e" transform="translate(401.611328 0)"/>
     <use xlink:href="#MalgunGothic-64" transform="translate(459.423828 0)"/>
     <use xlink:href="#MalgunGothic-69" transform="translate(519.628906 0)"/>
     <use xlink:href="#MalgunGothic-63" transform="translate(544.238281 0)"/>
     <use xlink:href="#MalgunGothic-61" transform="translate(591.503906 0)"/>
     <use xlink:href="#MalgunGothic-74" transform="translate(643.505859 0)"/>
     <use xlink:href="#MalgunGothic-6f" transform="translate(677.103516 0)"/>
     <use xlink:href="#MalgunGothic-72" transform="translate(737.015625 0)"/>
     <use xlink:href="#MalgunGothic-20" transform="translate(772.367188 0)"/>
     <use xlink:href="#MalgunGothic-39" transform="translate(807.523438 0)"/>
     <use xlink:href="#MalgunGothic-37" transform="translate(862.601562 0)"/>
    </g>
   </g>
   <g id="text_14">
    <!-- 190 cols -->
    <g style="fill: #1f2430" transform="translate(465.241795 107.804717) scale(0.09 -0.09)">
     <use xlink:href="#MalgunGothic-31"/>
     <use xlink:href="#MalgunGothic-39" transform="translate(55.078125 0)"/>
     <use xlink:href="#MalgunGothic-30" transform="translate(110.15625 0)"/>
     <use xlink:href="#MalgunGothic-20" transform="translate(165.234375 0)"/>
     <use xlink:href="#MalgunGothic-63" transform="translate(200.390625 0)"/>
     <use xlink:href="#MalgunGothic-6f" transform="translate(247.65625 0)"/>
     <use xlink:href="#MalgunGothic-6c" transform="translate(307.568359 0)"/>
     <use xlink:href="#MalgunGothic-73" transform="translate(332.177734 0)"/>
    </g>
    <!-- missing indicator 97 -->
    <g style="fill: #1f2430" transform="translate(440.843358 118.131936) scale(0.09 -0.09)">
     <use xlink:href="#MalgunGothic-6d"/>
     <use xlink:href="#MalgunGothic-69" transform="translate(87.988281 0)"/>
     <use xlink:href="#MalgunGothic-73" transform="translate(112.597656 0)"/>
     <use xlink:href="#MalgunGothic-73" transform="translate(155.908203 0)"/>
     <use xlink:href="#MalgunGothic-69" transform="translate(199.21875 0)"/>
     <use xlink:href="#MalgunGothic-6e" transform="translate(223.828125 0)"/>
     <use xlink:href="#MalgunGothic-67" transform="translate(281.640625 0)"/>
     <use xlink:href="#MalgunGothic-20" transform="translate(341.845703 0)"/>
     <use xlink:href="#MalgunGothic-69" transform="translate(377.001953 0)"/>
     <use xlink:href="#MalgunGothic-6e" transform="translate(401.611328 0)"/>
     <use xlink:href="#MalgunGothic-64" transform="translate(459.423828 0)"/>
     <use xlink:href="#MalgunGothic-69" transform="translate(519.628906 0)"/>
     <use xlink:href="#MalgunGothic-63" transform="translate(544.238281 0)"/>
     <use xlink:href="#MalgunGothic-61" transform="translate(591.503906 0)"/>
     <use xlink:href="#MalgunGothic-74" transform="translate(643.505859 0)"/>
     <use xlink:href="#MalgunGothic-6f" transform="translate(677.103516 0)"/>
     <use xlink:href="#MalgunGothic-72" transform="translate(737.015625 0)"/>
     <use xlink:href="#MalgunGothic-20" transform="translate(772.367188 0)"/>
     <use xlink:href="#MalgunGothic-39" transform="translate(807.523438 0)"/>
     <use xlink:href="#MalgunGothic-37" transform="translate(862.601562 0)"/>
    </g>
   </g>
  </g>
  <g id="text_15">
   <!-- 결측 처리 후 missing indicator가 추가되어 column 수가 130개에서 200개로 늘었다 -->
   <g style="fill: #1f2430" transform="translate(50.823281 20.207812) scale(0.15 -0.15)">
    <defs>
     <path id="MalgunGothicBold-acb0" d="M 3469 2906 
L 3469 3513 
L 4794 3513 
L 4794 4063 
L 3634 4063 
L 3634 4672 
L 4794 4672 
L 4794 5466 
L 5563 5466 
L 5563 2438 
L 4794 2438 
L 4794 2906 
L 3469 2906 
z
M 972 2356 
L 469 2981 
Q 1063 3094 1750 3525 
Q 2438 3956 2753 4634 
L 838 4634 
L 838 5294 
L 3731 5294 
Q 3450 3253 972 2356 
z
M 1663 -481 
L 1663 1166 
L 4794 1166 
L 4794 1556 
L 1663 1556 
L 1663 2203 
L 5563 2203 
L 5563 575 
L 2438 575 
L 2438 166 
L 5716 166 
L 5716 -481 
L 1663 -481 
z
" transform="scale(0.015625)"/>
     <path id="MalgunGothicBold-ce21" d="M 5428 3022 
Q 4841 3063 4172 3314 
Q 3503 3566 3206 3872 
Q 2916 3566 2247 3311 
Q 1578 3056 947 3009 
L 538 3628 
Q 1234 3625 1842 3828 
Q 2450 4031 2694 4359 
L 1019 4359 
L 1019 5000 
L 2809 5000 
L 2809 5538 
L 3597 5538 
L 3597 5000 
L 5381 5000 
L 5381 4359 
L 3713 4359 
Q 3963 4038 4563 3836 
Q 5163 3634 5813 3634 
L 5428 3022 
z
M 403 1997 
L 403 2663 
L 5997 2663 
L 5997 1997 
L 403 1997 
z
M 4391 -563 
L 4391 856 
L 1147 856 
L 1147 1516 
L 5178 1516 
L 5178 -563 
L 4391 -563 
z
" transform="scale(0.015625)"/>
     <path id="MalgunGothicBold-20" transform="scale(0.015625)"/>
     <path id="MalgunGothicBold-cc98" d="M 4794 -563 
L 4794 2669 
L 3641 2669 
L 3641 3334 
L 4794 3334 
L 4794 5466 
L 5575 5466 
L 5575 -563 
L 4794 -563 
z
M 3788 897 
Q 2778 1591 2356 2356 
Q 2184 1978 1762 1486 
Q 1341 994 978 769 
L 416 1288 
Q 1091 1675 1528 2333 
Q 1966 2991 1966 3603 
L 1966 4019 
L 588 4019 
L 588 4678 
L 1959 4678 
L 1959 5466 
L 2747 5466 
L 2747 4678 
L 4128 4678 
L 4128 4019 
L 2747 4019 
L 2747 3578 
Q 2747 2991 3180 2394 
Q 3613 1797 4275 1497 
L 3788 897 
z
" transform="scale(0.015625)"/>
     <path id="MalgunGothicBold-b9ac" d="M 4672 -563 
L 4672 5466 
L 5447 5466 
L 5447 -563 
L 4672 -563 
z
M 4184 903 
Q 3634 813 3154 797 
Q 2675 781 756 781 
L 756 3328 
L 2900 3328 
L 2900 4341 
L 769 4341 
L 769 5000 
L 3675 5000 
L 3675 2675 
L 1528 2675 
L 1528 1434 
Q 3594 1416 4084 1538 
L 4184 903 
z
" transform="scale(0.015625)"/>
     <path id="MalgunGothicBold-d6c4" d="M 897 4288 
L 897 4928 
L 2803 4928 
L 2803 5522 
L 3591 5522 
L 3591 4928 
L 5503 4928 
L 5503 4288 
L 897 4288 
z
M 3200 1991 
Q 2256 1991 1745 2272 
Q 1234 2553 1234 3041 
Q 1234 3534 1750 3815 
Q 2266 4097 3200 4097 
Q 4131 4097 4645 3815 
Q 5159 3534 5159 3041 
Q 5159 2550 4648 2270 
Q 4138 1991 3200 1991 
z
M 3194 3481 
Q 2613 3481 2323 3353 
Q 2034 3225 2034 3041 
Q 2034 2863 2320 2734 
Q 2606 2606 3194 2606 
Q 3778 2606 4065 2731 
Q 4353 2856 4353 3041 
Q 4353 3228 4061 3354 
Q 3769 3481 3194 3481 
z
M 3591 1050 
L 3591 -563 
L 2803 -563 
L 2803 1050 
L 403 1050 
L 403 1709 
L 5997 1709 
L 5997 1050 
L 3591 1050 
z
" transform="scale(0.015625)"/>
     <path id="MalgunGothicBold-6d" d="M 5509 0 
L 4641 0 
L 4641 1875 
Q 4641 2684 4053 2684 
Q 3781 2684 3598 2439 
Q 3416 2194 3416 1850 
L 3416 0 
L 2547 0 
L 2547 1909 
Q 2547 2684 1963 2684 
Q 1684 2684 1506 2454 
Q 1328 2225 1328 1841 
L 1328 0 
L 456 0 
L 456 3284 
L 1328 3284 
L 1328 2766 
L 1338 2766 
Q 1706 3363 2391 3363 
Q 3084 3363 3334 2731 
Q 3709 3363 4431 3363 
Q 5509 3363 5509 2038 
L 5509 0 
z
" transform="scale(0.015625)"/>
     <path id="MalgunGothicBold-69" d="M 375 4366 
Q 375 4566 517 4700 
Q 659 4834 884 4834 
Q 1103 4834 1250 4701 
Q 1397 4569 1397 4366 
Q 1397 4163 1251 4028 
Q 1106 3894 884 3894 
Q 663 3894 519 4031 
Q 375 4169 375 4366 
z
M 444 0 
L 444 3284 
L 1313 3284 
L 1313 0 
L 444 0 
z
" transform="scale(0.015625)"/>
     <path id="MalgunGothicBold-73" d="M 347 844 
Q 834 538 1309 538 
Q 1922 538 1922 884 
Q 1922 1125 1438 1291 
Q 731 1528 540 1758 
Q 350 1988 350 2347 
Q 350 2822 737 3092 
Q 1125 3363 1734 3363 
Q 2159 3363 2584 3228 
L 2584 2519 
Q 2200 2747 1744 2747 
Q 1503 2747 1356 2656 
Q 1209 2566 1209 2416 
Q 1209 2169 1619 2025 
Q 2084 1856 2303 1742 
Q 2522 1628 2644 1431 
Q 2766 1234 2766 969 
Q 2766 469 2367 194 
Q 1969 -81 1316 -81 
Q 766 -81 347 94 
L 347 844 
z
" transform="scale(0.015625)"/>
     <path id="MalgunGothicBold-6e" d="M 3497 0 
L 2628 0 
L 2628 1841 
Q 2628 2684 2019 2684 
Q 1713 2684 1520 2454 
Q 1328 2225 1328 1872 
L 1328 0 
L 456 0 
L 456 3284 
L 1328 3284 
L 1328 2756 
L 1338 2756 
Q 1700 3363 2403 3363 
Q 3497 3363 3497 2009 
L 3497 0 
z
" transform="scale(0.015625)"/>
     <path id="MalgunGothicBold-67" d="M 3553 341 
Q 3553 -572 3050 -1058 
Q 2547 -1544 1591 -1544 
Q 941 -1544 534 -1341 
L 534 -584 
Q 1050 -881 1569 -881 
Q 2100 -881 2392 -598 
Q 2684 -316 2684 206 
L 2684 497 
L 2672 497 
Q 2316 -81 1619 -81 
Q 1006 -81 631 359 
Q 256 800 256 1547 
Q 256 2375 667 2869 
Q 1078 3363 1750 3363 
Q 2359 3363 2672 2881 
L 2684 2881 
L 2684 3284 
L 3553 3284 
L 3553 341 
z
M 2694 1875 
Q 2694 2209 2484 2446 
Q 2275 2684 1953 2684 
Q 1578 2684 1358 2393 
Q 1138 2103 1138 1581 
Q 1138 1131 1347 865 
Q 1556 600 1903 600 
Q 2256 600 2475 865 
Q 2694 1131 2694 1550 
L 2694 1875 
z
" transform="scale(0.015625)"/>
     <path id="MalgunGothicBold-64" d="M 3550 0 
L 2681 0 
L 2681 484 
L 2666 484 
Q 2316 -81 1619 -81 
Q 1000 -81 628 362 
Q 256 806 256 1569 
Q 256 2378 672 2870 
Q 1088 3363 1753 3363 
Q 2400 3363 2666 2884 
L 2681 2884 
L 2681 4859 
L 3550 4859 
L 3550 0 
z
M 2694 1878 
Q 2694 2225 2481 2454 
Q 2269 2684 1947 2684 
Q 1572 2684 1355 2390 
Q 1138 2097 1138 1594 
Q 1138 1122 1347 861 
Q 1556 600 1913 600 
Q 2256 600 2475 872 
Q 2694 1144 2694 1566 
L 2694 1878 
z
" transform="scale(0.015625)"/>
     <path id="MalgunGothicBold-63" d="M 2875 128 
Q 2522 -81 1909 -81 
Q 1172 -81 714 373 
Q 256 828 256 1563 
Q 256 2400 747 2881 
Q 1238 3363 2056 3363 
Q 2591 3363 2875 3206 
L 2875 2441 
Q 2544 2684 2144 2684 
Q 1688 2684 1413 2398 
Q 1138 2113 1138 1625 
Q 1138 1144 1397 872 
Q 1656 600 2109 600 
Q 2506 600 2875 850 
L 2875 128 
z
" transform="scale(0.015625)"/>
     <path id="MalgunGothicBold-61" d="M 534 3075 
Q 756 3203 1109 3283 
Q 1463 3363 1744 3363 
Q 3075 3363 3075 2013 
L 3075 0 
L 2244 0 
L 2244 484 
L 2228 484 
Q 1897 -81 1244 -81 
Q 769 -81 491 186 
Q 213 453 213 903 
Q 213 1844 1331 1994 
L 2247 2119 
Q 2247 2747 1634 2747 
Q 1050 2747 534 2381 
L 534 3075 
z
M 1594 1500 
Q 1031 1428 1031 997 
Q 1031 803 1165 681 
Q 1300 559 1528 559 
Q 1841 559 2044 779 
Q 2247 1000 2247 1334 
L 2247 1584 
L 1594 1500 
z
" transform="scale(0.015625)"/>
     <path id="MalgunGothicBold-74" d="M 2303 34 
Q 2081 -78 1684 -78 
Q 675 -78 675 991 
L 675 2622 
L 131 2622 
L 131 3284 
L 675 3284 
L 675 4019 
L 1544 4272 
L 1544 3284 
L 2303 3284 
L 2303 2622 
L 1544 2622 
L 1544 1144 
Q 1544 600 1972 600 
Q 2150 600 2303 700 
L 2303 34 
z
" transform="scale(0.015625)"/>
     <path id="MalgunGothicBold-6f" d="M 256 1622 
Q 256 2428 731 2895 
Q 1206 3363 2019 3363 
Q 2803 3363 3258 2905 
Q 3713 2447 3713 1678 
Q 3713 878 3242 398 
Q 2772 -81 1969 -81 
Q 1181 -81 718 380 
Q 256 841 256 1622 
z
M 1138 1634 
Q 1138 600 1997 600 
Q 2825 600 2825 1659 
Q 2825 2684 1994 2684 
Q 1588 2684 1363 2404 
Q 1138 2125 1138 1634 
z
" transform="scale(0.015625)"/>
     <path id="MalgunGothicBold-72" d="M 2472 2481 
Q 2300 2584 2050 2584 
Q 1722 2584 1525 2317 
Q 1328 2050 1328 1600 
L 1328 0 
L 456 0 
L 456 3284 
L 1328 3284 
L 1328 2653 
L 1338 2653 
Q 1578 3341 2203 3341 
Q 2381 3341 2472 3297 
L 2472 2481 
z
" transform="scale(0.015625)"/>
     <path id="MalgunGothicBold-ac00" d="M 5269 2431 
L 5269 -563 
L 4481 -563 
L 4481 5466 
L 5269 5466 
L 5269 3091 
L 6203 3091 
L 6203 2431 
L 5269 2431 
z
M 978 756 
L 391 1306 
Q 2413 2416 2834 4288 
L 738 4288 
L 738 4947 
L 3725 4947 
Q 3478 2297 978 756 
z
" transform="scale(0.015625)"/>
     <path id="MalgunGothicBold-cd94" d="M 5466 2638 
Q 4834 2728 4206 3028 
Q 3578 3328 3206 3700 
Q 2881 3341 2247 3041 
Q 1613 2741 959 2625 
L 488 3225 
Q 1288 3288 1931 3611 
Q 2575 3934 2725 4325 
L 978 4325 
L 978 4978 
L 2809 4978 
L 2809 5550 
L 3597 5550 
L 3597 4978 
L 5422 4978 
L 5422 4325 
L 3675 4325 
Q 3831 3947 4475 3628 
Q 5119 3309 5875 3231 
L 5466 2638 
z
M 3584 1588 
L 3584 -556 
L 2803 -556 
L 2803 1588 
L 403 1588 
L 403 2253 
L 5997 2253 
L 5997 1588 
L 3584 1588 
z
" transform="scale(0.015625)"/>
     <path id="MalgunGothicBold-b418" d="M 4788 -563 
L 4788 5466 
L 5581 5466 
L 5581 -563 
L 4788 -563 
z
M 4581 475 
Q 4103 441 2593 406 
Q 1084 372 250 372 
L 159 1031 
Q 1175 1031 2009 1050 
L 2009 2272 
L 831 2272 
L 831 4903 
L 3938 4903 
L 3938 4244 
L 1606 4244 
L 1606 2925 
L 4006 2925 
L 4006 2272 
L 2791 2272 
L 2791 1063 
Q 3813 1075 4544 1119 
L 4581 475 
z
" transform="scale(0.015625)"/>
     <path id="MalgunGothicBold-c5b4" d="M 3750 2675 
Q 3672 1828 3251 1365 
Q 2831 903 2181 903 
Q 1463 903 1028 1468 
Q 594 2034 594 2994 
Q 594 3969 1026 4525 
Q 1459 5081 2181 5081 
Q 2834 5081 3254 4617 
Q 3675 4153 3750 3334 
L 4800 3334 
L 4800 5466 
L 5575 5466 
L 5575 -563 
L 4800 -563 
L 4800 2675 
L 3750 2675 
z
M 2181 4416 
Q 1822 4416 1592 4030 
Q 1363 3644 1363 2988 
Q 1363 2334 1602 1948 
Q 1841 1563 2181 1563 
Q 2528 1563 2765 1947 
Q 3003 2331 3003 2988 
Q 3003 3647 2775 4031 
Q 2547 4416 2181 4416 
z
" transform="scale(0.015625)"/>
     <path id="MalgunGothicBold-6c" d="M 444 0 
L 444 4859 
L 1313 4859 
L 1313 0 
L 444 0 
z
" transform="scale(0.015625)"/>
     <path id="MalgunGothicBold-75" d="M 3444 0 
L 2575 0 
L 2575 506 
L 2559 506 
Q 2197 -81 1553 -81 
Q 400 -81 400 1306 
L 400 3284 
L 1272 3284 
L 1272 1397 
Q 1272 600 1891 600 
Q 2194 600 2384 817 
Q 2575 1034 2575 1400 
L 2575 3284 
L 3444 3284 
L 3444 0 
z
" transform="scale(0.015625)"/>
     <path id="MalgunGothicBold-c218" d="M 5363 2906 
Q 4656 3053 4053 3393 
Q 3450 3734 3194 4103 
Q 2938 3716 2331 3372 
Q 1725 3028 1075 2906 
L 609 3500 
Q 1597 3619 2200 4072 
Q 2803 4525 2803 5063 
L 2803 5338 
L 3584 5338 
L 3584 5063 
Q 3584 4519 4181 4062 
Q 4778 3606 5766 3494 
L 5363 2906 
z
M 3584 1678 
L 3584 -563 
L 2803 -563 
L 2803 1678 
L 403 1678 
L 403 2338 
L 5997 2338 
L 5997 1678 
L 3584 1678 
z
" transform="scale(0.015625)"/>
     <path id="MalgunGothicBold-31" d="M 2534 4675 
L 2534 0 
L 1663 0 
L 1663 3616 
Q 1516 3481 1247 3365 
Q 978 3250 688 3216 
L 688 3988 
Q 1375 4194 1984 4675 
L 2534 4675 
z
" transform="scale(0.015625)"/>
     <path id="MalgunGothicBold-33" d="M 456 947 
Q 922 600 1531 600 
Q 1931 600 2175 783 
Q 2419 966 2419 1306 
Q 2419 2022 1338 2022 
L 931 2022 
L 931 2703 
L 1309 2703 
Q 2278 2703 2278 3372 
Q 2278 3997 1534 3997 
Q 1069 3997 631 3691 
L 631 4425 
Q 1100 4675 1738 4675 
Q 2372 4675 2769 4375 
Q 3166 4075 3166 3544 
Q 3166 2647 2250 2406 
L 2250 2394 
Q 2728 2344 3018 2042 
Q 3309 1741 3309 1313 
Q 3309 659 2836 289 
Q 2363 -81 1581 -81 
Q 894 -81 456 156 
L 456 947 
z
" transform="scale(0.015625)"/>
     <path id="MalgunGothicBold-30" d="M 241 2222 
Q 241 3422 670 4048 
Q 1100 4675 1919 4675 
Q 3475 4675 3475 2328 
Q 3475 1172 3051 545 
Q 2628 -81 1825 -81 
Q 241 -81 241 2222 
z
M 1125 2244 
Q 1125 600 1863 600 
Q 2584 600 2584 2288 
Q 2584 3997 1878 3997 
Q 1125 3997 1125 2244 
z
" transform="scale(0.015625)"/>
     <path id="MalgunGothicBold-ac1c" d="M 4872 -563 
L 4872 2450 
L 4384 2450 
L 4384 -384 
L 3609 -384 
L 3609 5344 
L 4384 5344 
L 4384 3109 
L 4872 3109 
L 4872 5466 
L 5650 5466 
L 5650 -563 
L 4872 -563 
z
M 3175 4959 
Q 3122 3609 2476 2511 
Q 1831 1413 972 788 
L 331 1294 
Q 1059 1741 1621 2569 
Q 2184 3397 2328 4306 
L 684 4306 
L 684 4959 
L 3175 4959 
z
" transform="scale(0.015625)"/>
     <path id="MalgunGothicBold-c5d0" d="M 4922 -563 
L 4922 5466 
L 5678 5466 
L 5678 -563 
L 4922 -563 
z
M 3169 3353 
L 3775 3353 
L 3775 5344 
L 4513 5344 
L 4513 -384 
L 3775 -384 
L 3775 2688 
L 3175 2688 
Q 3122 1800 2772 1351 
Q 2422 903 1819 903 
Q 1150 903 798 1439 
Q 447 1975 447 2988 
Q 447 3997 800 4536 
Q 1153 5075 1819 5075 
Q 2409 5075 2757 4642 
Q 3106 4209 3169 3353 
z
M 1819 4409 
Q 1203 4409 1203 2988 
Q 1203 1569 1819 1569 
Q 2113 1569 2272 1934 
Q 2431 2300 2431 2988 
Q 2431 3672 2273 4040 
Q 2116 4409 1819 4409 
z
" transform="scale(0.015625)"/>
     <path id="MalgunGothicBold-c11c" d="M 4794 -563 
L 4794 2981 
L 3488 2981 
L 3488 3641 
L 4794 3641 
L 4794 5466 
L 5575 5466 
L 5575 -563 
L 4794 -563 
z
M 3609 934 
Q 2681 1578 2228 2444 
Q 1731 1463 838 831 
L 231 1369 
Q 925 1725 1381 2434 
Q 1838 3144 1838 3891 
L 1838 5063 
L 2619 5063 
L 2619 3909 
Q 2619 3178 3066 2498 
Q 3513 1819 4159 1544 
L 3609 934 
z
" transform="scale(0.015625)"/>
     <path id="MalgunGothicBold-32" d="M 1322 734 
L 3272 734 
L 3272 0 
L 400 0 
L 400 347 
Q 400 719 526 1033 
Q 653 1347 889 1620 
Q 1125 1894 1881 2459 
Q 2175 2678 2303 2878 
Q 2431 3078 2431 3325 
Q 2431 3631 2251 3801 
Q 2072 3972 1694 3972 
Q 1103 3972 559 3503 
L 559 4288 
Q 1116 4675 1819 4675 
Q 2531 4675 2920 4328 
Q 3309 3981 3309 3369 
Q 3309 3053 3207 2809 
Q 3106 2566 2939 2367 
Q 2772 2169 2555 1998 
Q 2338 1828 2109 1659 
Q 1688 1347 1505 1125 
Q 1322 903 1322 734 
z
" transform="scale(0.015625)"/>
     <path id="MalgunGothicBold-b85c" d="M 403 250 
L 403 903 
L 2809 903 
L 2809 1747 
L 1197 1747 
L 1197 3688 
L 4391 3688 
L 4391 4294 
L 1209 4294 
L 1209 4941 
L 5178 4941 
L 5178 3059 
L 1984 3059 
L 1984 2394 
L 5338 2394 
L 5338 1747 
L 3591 1747 
L 3591 903 
L 5997 903 
L 5997 250 
L 403 250 
z
" transform="scale(0.015625)"/>
     <path id="MalgunGothicBold-b298" d="M 1253 3578 
L 1253 5403 
L 2041 5403 
L 2041 4244 
L 5228 4244 
L 5228 3578 
L 1253 3578 
z
M 403 2578 
L 403 3219 
L 5997 3219 
L 5997 2578 
L 403 2578 
z
M 1222 -459 
L 1222 1184 
L 4391 1184 
L 4391 1563 
L 1222 1563 
L 1222 2203 
L 5172 2203 
L 5172 569 
L 2003 569 
L 2003 178 
L 5319 178 
L 5319 -459 
L 1222 -459 
z
" transform="scale(0.015625)"/>
     <path id="MalgunGothicBold-c5c8" d="M 3803 3372 
Q 3672 2819 3230 2503 
Q 2788 2188 2209 2188 
Q 1503 2188 1042 2617 
Q 581 3047 581 3731 
Q 581 4428 1040 4854 
Q 1500 5281 2209 5281 
Q 2825 5281 3270 4948 
Q 3716 4616 3816 4031 
L 4750 4031 
L 4750 5466 
L 5538 5466 
L 5538 2053 
L 4750 2053 
L 4750 3372 
L 3803 3372 
z
M 2209 4622 
Q 1831 4622 1597 4375 
Q 1363 4128 1363 3731 
Q 1363 3347 1600 3094 
Q 1838 2841 2209 2841 
Q 2578 2841 2818 3092 
Q 3059 3344 3059 3731 
Q 3059 4125 2820 4373 
Q 2581 4622 2209 4622 
z
M 5478 -531 
Q 4831 -197 4434 378 
Q 4325 159 4001 -136 
Q 3678 -431 3391 -588 
L 2828 -78 
Q 3400 159 3722 590 
Q 4044 1022 4044 1556 
L 4044 1813 
L 4819 1813 
L 4819 1556 
Q 4819 1050 5148 634 
Q 5478 219 6047 19 
L 5478 -531 
z
M 2719 50 
Q 2456 225 2259 506 
Q 2134 259 1809 -69 
Q 1484 -397 1184 -556 
L 622 -63 
Q 1191 194 1511 622 
Q 1831 1050 1831 1556 
L 1831 1806 
L 2597 1806 
L 2597 1556 
Q 2597 1263 2822 963 
Q 3047 663 3366 538 
L 2719 50 
z
" transform="scale(0.015625)"/>
     <path id="MalgunGothicBold-b2e4" d="M 5197 2522 
L 5197 -563 
L 4416 -563 
L 4416 5466 
L 5197 5466 
L 5197 3181 
L 6203 3181 
L 6203 2522 
L 5197 2522 
z
M 3969 1197 
Q 3269 1100 1619 1100 
L 709 1100 
L 709 4953 
L 3584 4953 
L 3584 4294 
L 1491 4294 
L 1491 1753 
L 1794 1753 
Q 3253 1753 3897 1844 
L 3969 1197 
z
" transform="scale(0.015625)"/>
    </defs>
    <use xlink:href="#MalgunGothicBold-acb0"/>
    <use xlink:href="#MalgunGothicBold-ce21" transform="translate(100 0)"/>
    <use xlink:href="#MalgunGothicBold-20" transform="translate(200 0)"/>
    <use xlink:href="#MalgunGothicBold-cc98" transform="translate(235.15625 0)"/>
    <use xlink:href="#MalgunGothicBold-b9ac" transform="translate(335.15625 0)"/>
    <use xlink:href="#MalgunGothicBold-20" transform="translate(435.15625 0)"/>
    <use xlink:href="#MalgunGothicBold-d6c4" transform="translate(470.3125 0)"/>
    <use xlink:href="#MalgunGothicBold-20" transform="translate(570.3125 0)"/>
    <use xlink:href="#MalgunGothicBold-6d" transform="translate(605.46875 0)"/>
    <use xlink:href="#MalgunGothicBold-69" transform="translate(697.802734 0)"/>
    <use xlink:href="#MalgunGothicBold-73" transform="translate(725.244141 0)"/>
    <use xlink:href="#MalgunGothicBold-73" transform="translate(771.435547 0)"/>
    <use xlink:href="#MalgunGothicBold-69" transform="translate(817.626953 0)"/>
    <use xlink:href="#MalgunGothicBold-6e" transform="translate(845.068359 0)"/>
    <use xlink:href="#MalgunGothicBold-67" transform="translate(905.908203 0)"/>
    <use xlink:href="#MalgunGothicBold-20" transform="translate(968.505859 0)"/>
    <use xlink:href="#MalgunGothicBold-69" transform="translate(1003.662109 0)"/>
    <use xlink:href="#MalgunGothicBold-6e" transform="translate(1031.103516 0)"/>
    <use xlink:href="#MalgunGothicBold-64" transform="translate(1091.943359 0)"/>
    <use xlink:href="#MalgunGothicBold-69" transform="translate(1154.541016 0)"/>
    <use xlink:href="#MalgunGothicBold-63" transform="translate(1181.982422 0)"/>
    <use xlink:href="#MalgunGothicBold-61" transform="translate(1230.712891 0)"/>
    <use xlink:href="#MalgunGothicBold-74" transform="translate(1285.009766 0)"/>
    <use xlink:href="#MalgunGothicBold-6f" transform="translate(1322.9375 0)"/>
    <use xlink:href="#MalgunGothicBold-72" transform="translate(1384.900391 0)"/>
    <use xlink:href="#MalgunGothicBold-ac00" transform="translate(1424.255859 0)"/>
    <use xlink:href="#MalgunGothicBold-20" transform="translate(1524.255859 0)"/>
    <use xlink:href="#MalgunGothicBold-cd94" transform="translate(1559.412109 0)"/>
    <use xlink:href="#MalgunGothicBold-ac00" transform="translate(1659.412109 0)"/>
    <use xlink:href="#MalgunGothicBold-b418" transform="translate(1759.412109 0)"/>
    <use xlink:href="#MalgunGothicBold-c5b4" transform="translate(1859.412109 0)"/>
    <use xlink:href="#MalgunGothicBold-20" transform="translate(1959.412109 0)"/>
    <use xlink:href="#MalgunGothicBold-63" transform="translate(1994.568359 0)"/>
    <use xlink:href="#MalgunGothicBold-6f" transform="translate(2043.298828 0)"/>
    <use xlink:href="#MalgunGothicBold-6c" transform="translate(2105.261719 0)"/>
    <use xlink:href="#MalgunGothicBold-75" transform="translate(2132.703125 0)"/>
    <use xlink:href="#MalgunGothicBold-6d" transform="translate(2193.542969 0)"/>
    <use xlink:href="#MalgunGothicBold-6e" transform="translate(2285.876953 0)"/>
    <use xlink:href="#MalgunGothicBold-20" transform="translate(2346.716797 0)"/>
    <use xlink:href="#MalgunGothicBold-c218" transform="translate(2381.873047 0)"/>
    <use xlink:href="#MalgunGothicBold-ac00" transform="translate(2481.873047 0)"/>
    <use xlink:href="#MalgunGothicBold-20" transform="translate(2581.873047 0)"/>
    <use xlink:href="#MalgunGothicBold-31" transform="translate(2617.029297 0)"/>
    <use xlink:href="#MalgunGothicBold-33" transform="translate(2674.988281 0)"/>
    <use xlink:href="#MalgunGothicBold-30" transform="translate(2732.947266 0)"/>
    <use xlink:href="#MalgunGothicBold-ac1c" transform="translate(2790.90625 0)"/>
    <use xlink:href="#MalgunGothicBold-c5d0" transform="translate(2890.90625 0)"/>
    <use xlink:href="#MalgunGothicBold-c11c" transform="translate(2990.90625 0)"/>
    <use xlink:href="#MalgunGothicBold-20" transform="translate(3090.90625 0)"/>
    <use xlink:href="#MalgunGothicBold-32" transform="translate(3126.0625 0)"/>
    <use xlink:href="#MalgunGothicBold-30" transform="translate(3184.021484 0)"/>
    <use xlink:href="#MalgunGothicBold-30" transform="translate(3241.980469 0)"/>
    <use xlink:href="#MalgunGothicBold-ac1c" transform="translate(3299.939453 0)"/>
    <use xlink:href="#MalgunGothicBold-b85c" transform="translate(3399.939453 0)"/>
    <use xlink:href="#MalgunGothicBold-20" transform="translate(3499.939453 0)"/>
    <use xlink:href="#MalgunGothicBold-b298" transform="translate(3535.095703 0)"/>
    <use xlink:href="#MalgunGothicBold-c5c8" transform="translate(3635.095703 0)"/>
    <use xlink:href="#MalgunGothicBold-b2e4" transform="translate(3735.095703 0)"/>
   </g>
  </g>
  <g id="text_16">
   <!-- 결측률 70% 초과 feature는 제거하고, retained missing feature에는 indicator를 추가했다. Scaling output은 zero-variance -->
   <g style="fill: #6f768a" transform="translate(50.823281 40.948187) scale(0.1 -0.1)">
    <defs>
     <path id="MalgunGothic-b960" d="M 1344 3150 
L 1344 4447 
L 4594 4447 
L 4594 4953 
L 1344 4953 
L 1344 5363 
L 5056 5363 
L 5056 4044 
L 1806 4044 
L 1806 3559 
L 5191 3559 
L 5191 3150 
L 1344 3150 
z
M 1325 -447 
L 1325 856 
L 4609 856 
L 4609 1313 
L 1325 1313 
L 1325 1722 
L 2003 1722 
L 2003 2259 
L 403 2259 
L 403 2663 
L 5997 2663 
L 5997 2259 
L 4397 2259 
L 4397 1722 
L 5069 1722 
L 5069 453 
L 1784 453 
L 1784 -38 
L 5203 -38 
L 5203 -447 
L 1325 -447 
z
M 3938 1722 
L 3938 2259 
L 2463 2259 
L 2463 1722 
L 3938 1722 
z
" transform="scale(0.015625)"/>
     <path id="MalgunGothic-25" d="M 253 3444 
Q 253 3997 547 4331 
Q 841 4666 1353 4666 
Q 1847 4666 2115 4355 
Q 2384 4044 2384 3509 
Q 2384 2972 2082 2633 
Q 1781 2294 1288 2294 
Q 816 2294 534 2608 
Q 253 2922 253 3444 
z
M 666 3475 
Q 666 3091 841 2864 
Q 1016 2638 1322 2638 
Q 1631 2638 1803 2863 
Q 1975 3088 1975 3494 
Q 1975 3894 1804 4112 
Q 1634 4331 1334 4331 
Q 1022 4331 844 4098 
Q 666 3866 666 3475 
z
M 4350 4600 
L 1403 -34 
L 966 -34 
L 3909 4600 
L 4350 4600 
z
M 2988 1078 
Q 2988 1641 3284 1977 
Q 3581 2313 4081 2313 
Q 4569 2313 4841 2000 
Q 5113 1688 5113 1138 
Q 5113 600 4809 264 
Q 4506 -72 4019 -72 
Q 3550 -72 3269 245 
Q 2988 563 2988 1078 
z
M 3394 1103 
Q 3394 725 3570 498 
Q 3747 272 4050 272 
Q 4356 272 4529 501 
Q 4703 731 4703 1134 
Q 4703 1534 4534 1748 
Q 4366 1963 4066 1963 
Q 3753 1963 3573 1731 
Q 3394 1500 3394 1103 
z
" transform="scale(0.015625)"/>
     <path id="MalgunGothic-cd08" d="M 3438 4256 
Q 3478 3700 4140 3189 
Q 4803 2678 5734 2522 
L 5434 2113 
Q 4759 2278 4103 2708 
Q 3447 3138 3194 3578 
Q 2919 3122 2306 2709 
Q 1694 2297 997 2106 
L 672 2509 
Q 1550 2638 2229 3166 
Q 2909 3694 2956 4256 
L 1025 4256 
L 1025 4672 
L 2969 4672 
L 2969 5356 
L 3444 5356 
L 3444 4672 
L 5375 4672 
L 5375 4256 
L 3438 4256 
z
M 403 391 
L 403 806 
L 2956 806 
L 2956 2209 
L 3431 2209 
L 3431 806 
L 5997 806 
L 5997 391 
L 403 391 
z
" transform="scale(0.015625)"/>
     <path id="MalgunGothic-acfc" d="M 6188 2663 
L 5203 2663 
L 5203 -563 
L 4728 -563 
L 4728 5466 
L 5197 5466 
L 5197 3078 
L 6188 3078 
L 6188 2663 
z
M 3828 4897 
Q 3828 3144 3713 1800 
L 3256 1831 
Q 3294 2163 3326 3077 
Q 3359 3991 3359 4481 
L 800 4481 
L 800 4897 
L 3828 4897 
z
M 4319 666 
Q 2688 575 281 575 
L 238 984 
Q 559 984 1747 1000 
L 1747 3084 
L 2216 3084 
L 2216 1006 
L 4288 1069 
L 4319 666 
z
" transform="scale(0.015625)"/>
     <path id="MalgunGothic-66" d="M 2128 4422 
Q 1975 4506 1778 4506 
Q 1222 4506 1222 3800 
L 1222 3284 
L 1991 3284 
L 1991 2856 
L 1222 2856 
L 1222 0 
L 734 0 
L 734 2856 
L 172 2856 
L 172 3284 
L 734 3284 
L 734 3825 
Q 734 4341 1026 4636 
Q 1319 4931 1753 4931 
Q 1994 4931 2128 4875 
L 2128 4422 
z
" transform="scale(0.015625)"/>
     <path id="MalgunGothic-b294" d="M 1409 3225 
L 1409 5247 
L 1875 5247 
L 1875 3641 
L 5172 3641 
L 5172 3225 
L 1409 3225 
z
M 403 1972 
L 403 2394 
L 5997 2394 
L 5997 1972 
L 403 1972 
z
M 1381 -331 
L 1381 1459 
L 1850 1459 
L 1850 91 
L 5184 91 
L 5184 -331 
L 1381 -331 
z
" transform="scale(0.015625)"/>
     <path id="MalgunGothic-c81c" d="M 5038 -563 
L 5038 5466 
L 5503 5466 
L 5503 -563 
L 5038 -563 
z
M 3944 -378 
L 3944 2975 
L 2894 2975 
L 2894 3391 
L 3944 3391 
L 3944 5344 
L 4403 5344 
L 4403 -378 
L 3944 -378 
z
M 3116 850 
Q 2306 1647 1984 2734 
Q 1881 2291 1529 1722 
Q 1178 1153 775 769 
L 409 1063 
Q 941 1438 1350 2248 
Q 1759 3059 1759 3834 
L 1759 4525 
L 634 4525 
L 634 4941 
L 3359 4941 
L 3359 4525 
L 2222 4525 
L 2222 3828 
Q 2222 3075 2589 2328 
Q 2956 1581 3469 1153 
L 3116 850 
z
" transform="scale(0.015625)"/>
     <path id="MalgunGothic-ac70" d="M 4897 -563 
L 4897 2663 
L 3419 2663 
L 3419 3078 
L 4897 3078 
L 4897 5466 
L 5363 5466 
L 5363 -563 
L 4897 -563 
z
M 3547 4928 
Q 3481 2356 831 863 
L 481 1241 
Q 1438 1638 2178 2516 
Q 2919 3394 3047 4513 
L 728 4513 
L 728 4928 
L 3547 4928 
z
" transform="scale(0.015625)"/>
     <path id="MalgunGothic-d558" d="M 5094 2278 
L 5094 -563 
L 4628 -563 
L 4628 5466 
L 5094 5466 
L 5094 2694 
L 6113 2694 
L 6113 2278 
L 5094 2278 
z
M 469 4084 
L 469 4506 
L 2022 4506 
L 2022 5466 
L 2491 5466 
L 2491 4506 
L 4050 4506 
L 4050 4084 
L 469 4084 
z
M 2253 934 
Q 1588 934 1166 1318 
Q 744 1703 744 2272 
Q 744 2850 1166 3233 
Q 1588 3616 2259 3616 
Q 2928 3616 3351 3231 
Q 3775 2847 3775 2266 
Q 3775 1694 3351 1314 
Q 2928 934 2253 934 
z
M 2259 3219 
Q 1797 3219 1500 2941 
Q 1203 2663 1203 2272 
Q 1203 1884 1501 1607 
Q 1800 1331 2259 1331 
Q 2719 1331 3017 1607 
Q 3316 1884 3316 2272 
Q 3316 2663 3019 2941 
Q 2722 3219 2259 3219 
z
" transform="scale(0.015625)"/>
     <path id="MalgunGothic-ace0" d="M 4959 1656 
L 4506 1697 
Q 4616 2694 4616 3534 
L 4616 4475 
L 1216 4475 
L 1216 4897 
L 5081 4897 
L 5081 3525 
Q 5081 2613 4959 1656 
z
M 403 513 
L 403 934 
L 2625 934 
L 2625 2900 
L 3091 2900 
L 3091 934 
L 5997 934 
L 5997 513 
L 403 513 
z
" transform="scale(0.015625)"/>
     <path id="MalgunGothic-2c" d="M 988 725 
L 472 -850 
L 125 -850 
L 503 725 
L 988 725 
z
" transform="scale(0.015625)"/>
     <path id="MalgunGothic-c5d0" d="M 5081 -563 
L 5081 5466 
L 5550 5466 
L 5550 -563 
L 5081 -563 
z
M 3278 2822 
Q 3244 1931 2903 1448 
Q 2563 966 1959 966 
Q 1325 966 983 1495 
Q 641 2025 641 3016 
Q 641 4006 986 4534 
Q 1331 5063 1959 5063 
Q 2559 5063 2898 4591 
Q 3238 4119 3272 3238 
L 4000 3238 
L 4000 5344 
L 4469 5344 
L 4469 -378 
L 4000 -378 
L 4000 2822 
L 3278 2822 
z
M 1959 4641 
Q 1538 4641 1316 4225 
Q 1094 3809 1094 3016 
Q 1094 2222 1316 1805 
Q 1538 1388 1959 1388 
Q 2378 1388 2600 1806 
Q 2822 2225 2822 3016 
Q 2822 3806 2600 4223 
Q 2378 4641 1959 4641 
z
" transform="scale(0.015625)"/>
     <path id="MalgunGothic-b97c" d="M 5222 3144 
L 1313 3144 
L 1313 4447 
L 4628 4447 
L 4628 4966 
L 1313 4966 
L 1313 5363 
L 5088 5363 
L 5088 4084 
L 1772 4084 
L 1772 3541 
L 5222 3541 
L 5222 3144 
z
M 5997 2241 
L 403 2241 
L 403 2638 
L 5997 2638 
L 5997 2241 
z
M 5234 -500 
L 1294 -500 
L 1294 819 
L 4641 819 
L 4641 1338 
L 1294 1338 
L 1294 1734 
L 5100 1734 
L 5100 447 
L 1753 447 
L 1753 -103 
L 5234 -103 
L 5234 -500 
z
" transform="scale(0.015625)"/>
     <path id="MalgunGothic-cd94" d="M 5434 2734 
Q 4791 2863 4103 3227 
Q 3416 3591 3200 3922 
Q 3009 3600 2379 3253 
Q 1750 2906 997 2725 
L 672 3128 
Q 1519 3222 2198 3634 
Q 2878 4047 2956 4525 
L 1025 4525 
L 1025 4941 
L 2969 4941 
L 2969 5563 
L 3444 5563 
L 3444 4941 
L 5375 4941 
L 5375 4525 
L 3444 4525 
Q 3516 4078 4166 3686 
Q 4816 3294 5734 3144 
L 5434 2734 
z
M 3431 1691 
L 3431 -556 
L 2963 -556 
L 2963 1691 
L 403 1691 
L 403 2106 
L 5997 2106 
L 5997 1691 
L 3431 1691 
z
" transform="scale(0.015625)"/>
     <path id="MalgunGothic-ac00" d="M 5094 2566 
L 5094 -563 
L 4628 -563 
L 4628 5466 
L 5094 5466 
L 5094 2981 
L 6175 2981 
L 6175 2566 
L 5094 2566 
z
M 3609 4928 
Q 3541 2363 897 863 
L 538 1241 
Q 1484 1631 2234 2506 
Q 2984 3381 3109 4513 
L 794 4513 
L 794 4928 
L 3609 4928 
z
" transform="scale(0.015625)"/>
     <path id="MalgunGothic-d588" d="M 5075 1863 
L 5075 3238 
L 4372 3238 
L 4372 1947 
L 3909 1947 
L 3909 5344 
L 4372 5344 
L 4372 3647 
L 5075 3647 
L 5075 5466 
L 5538 5466 
L 5538 1863 
L 5075 1863 
z
M 453 4378 
L 453 4794 
L 1772 4794 
L 1772 5466 
L 2234 5466 
L 2234 4794 
L 3541 4794 
L 3541 4378 
L 453 4378 
z
M 2009 2059 
Q 1419 2059 1058 2353 
Q 697 2647 697 3072 
Q 697 3497 1058 3790 
Q 1419 4084 2009 4084 
Q 2606 4084 2967 3790 
Q 3328 3497 3328 3072 
Q 3328 2644 2967 2351 
Q 2606 2059 2009 2059 
z
M 2009 3694 
Q 1644 3694 1392 3520 
Q 1141 3347 1141 3072 
Q 1141 2800 1394 2625 
Q 1647 2450 2009 2450 
Q 2378 2450 2633 2625 
Q 2888 2800 2888 3072 
Q 2888 3344 2633 3519 
Q 2378 3694 2009 3694 
z
M 5606 -506 
Q 5269 -322 4950 1 
Q 4631 325 4513 603 
Q 4391 300 4072 -39 
Q 3753 -378 3413 -569 
L 3066 -269 
Q 3631 9 3953 475 
Q 4275 941 4275 1472 
L 4275 1613 
L 4738 1613 
L 4738 1472 
Q 4738 950 5094 478 
Q 5450 6 5953 -178 
L 5606 -506 
z
M 3084 -84 
Q 2550 238 2303 672 
Q 2188 372 1870 19 
Q 1553 -334 1184 -550 
L 819 -256 
Q 1369 22 1719 492 
Q 2069 963 2069 1472 
L 2069 1606 
L 2522 1606 
L 2522 1472 
Q 2522 1059 2790 704 
Q 3059 350 3425 225 
L 3084 -84 
z
" transform="scale(0.015625)"/>
     <path id="MalgunGothic-b2e4" d="M 5094 2669 
L 5094 -563 
L 4628 -563 
L 4628 5466 
L 5094 5466 
L 5094 3091 
L 6156 3091 
L 6156 2669 
L 5094 2669 
z
M 4050 1234 
Q 3538 1172 3003 1159 
Q 2469 1147 838 1147 
L 838 4934 
L 3653 4934 
L 3653 4519 
L 1306 4519 
L 1306 1563 
Q 3566 1563 4013 1638 
L 4050 1234 
z
" transform="scale(0.015625)"/>
     <path id="MalgunGothic-2e" d="M 356 275 
Q 356 422 459 523 
Q 563 625 700 625 
Q 838 625 941 523 
Q 1044 422 1044 275 
Q 1044 138 942 33 
Q 841 -72 700 -72 
Q 559 -72 457 29 
Q 356 131 356 275 
z
" transform="scale(0.015625)"/>
     <path id="MalgunGothic-53" d="M 394 797 
Q 606 613 964 500 
Q 1322 388 1625 388 
Q 2628 388 2628 1116 
Q 2628 1325 2523 1484 
Q 2419 1644 2250 1756 
Q 2081 1869 1547 2144 
Q 903 2475 651 2754 
Q 400 3034 400 3456 
Q 400 4019 858 4347 
Q 1316 4675 1988 4675 
Q 2669 4675 2963 4513 
L 2963 3928 
Q 2563 4206 1922 4206 
Q 1484 4206 1207 4018 
Q 931 3831 931 3500 
Q 931 3200 1126 3011 
Q 1322 2822 1938 2522 
Q 2656 2163 2906 1844 
Q 3156 1525 3156 1153 
Q 3156 556 2725 239 
Q 2294 -78 1531 -78 
Q 1291 -78 927 -1 
Q 563 75 394 188 
L 394 797 
z
" transform="scale(0.015625)"/>
     <path id="MalgunGothic-70" d="M 1034 481 
L 1034 -1513 
L 538 -1513 
L 538 3284 
L 1034 3284 
L 1034 2703 
L 1047 2703 
Q 1438 3359 2184 3359 
Q 2809 3359 3171 2920 
Q 3534 2481 3534 1738 
Q 3534 906 3126 414 
Q 2719 -78 2034 -78 
Q 1394 -78 1047 481 
L 1034 481 
z
M 1034 1331 
Q 1034 922 1307 633 
Q 1581 344 1991 344 
Q 2475 344 2751 716 
Q 3028 1088 3028 1753 
Q 3028 2300 2767 2620 
Q 2506 2941 2072 2941 
Q 1619 2941 1326 2619 
Q 1034 2297 1034 1806 
L 1034 1331 
z
" transform="scale(0.015625)"/>
     <path id="MalgunGothic-c740" d="M 3200 2950 
Q 2309 2950 1817 3287 
Q 1325 3625 1325 4159 
Q 1325 4694 1815 5028 
Q 2306 5363 3200 5363 
Q 4094 5363 4587 5028 
Q 5081 4694 5081 4159 
Q 5081 3625 4584 3287 
Q 4088 2950 3200 2950 
z
M 3200 4966 
Q 2541 4966 2177 4747 
Q 1813 4528 1813 4159 
Q 1813 3791 2177 3572 
Q 2541 3353 3200 3353 
Q 3859 3353 4223 3572 
Q 4588 3791 4588 4159 
Q 4588 4528 4223 4747 
Q 3859 4966 3200 4966 
z
M 403 1919 
L 403 2344 
L 5997 2344 
L 5997 1919 
L 403 1919 
z
M 1338 -359 
L 1338 1331 
L 1813 1331 
L 1813 56 
L 5203 56 
L 5203 -359 
L 1338 -359 
z
" transform="scale(0.015625)"/>
     <path id="MalgunGothic-7a" d="M 2788 0 
L 109 0 
L 109 147 
L 2069 2856 
L 291 2856 
L 291 3284 
L 2809 3284 
L 2809 3156 
L 841 428 
L 2788 428 
L 2788 0 
z
" transform="scale(0.015625)"/>
     <path id="MalgunGothic-2d" d="M 2213 1634 
L 463 1634 
L 463 2031 
L 2213 2031 
L 2213 1634 
z
" transform="scale(0.015625)"/>
     <path id="MalgunGothic-76" d="M 3084 3284 
L 1769 0 
L 1294 0 
L 47 3284 
L 594 3284 
L 1441 872 
Q 1531 609 1556 425 
L 1572 425 
Q 1603 669 1672 863 
L 2563 3284 
L 3084 3284 
z
" transform="scale(0.015625)"/>
    </defs>
    <use xlink:href="#MalgunGothic-acb0"/>
    <use xlink:href="#MalgunGothic-ce21" transform="translate(100 0)"/>
    <use xlink:href="#MalgunGothic-b960" transform="translate(200 0)"/>
    <use xlink:href="#MalgunGothic-20" transform="translate(300 0)"/>
    <use xlink:href="#MalgunGothic-37" transform="translate(335.15625 0)"/>
    <use xlink:href="#MalgunGothic-30" transform="translate(390.234375 0)"/>
    <use xlink:href="#MalgunGothic-25" transform="translate(445.3125 0)"/>
    <use xlink:href="#MalgunGothic-20" transform="translate(528.955078 0)"/>
    <use xlink:href="#MalgunGothic-cd08" transform="translate(564.111328 0)"/>
    <use xlink:href="#MalgunGothic-acfc" transform="translate(664.111328 0)"/>
    <use xlink:href="#MalgunGothic-20" transform="translate(764.111328 0)"/>
    <use xlink:href="#MalgunGothic-66" transform="translate(799.267578 0)"/>
    <use xlink:href="#MalgunGothic-65" transform="translate(830.908203 0)"/>
    <use xlink:href="#MalgunGothic-61" transform="translate(884.423828 0)"/>
    <use xlink:href="#MalgunGothic-74" transform="translate(936.425781 0)"/>
    <use xlink:href="#MalgunGothic-75" transform="translate(970.898438 0)"/>
    <use xlink:href="#MalgunGothic-72" transform="translate(1028.710938 0)"/>
    <use xlink:href="#MalgunGothic-65" transform="translate(1062.6875 0)"/>
    <use xlink:href="#MalgunGothic-b294" transform="translate(1116.203125 0)"/>
    <use xlink:href="#MalgunGothic-20" transform="translate(1216.203125 0)"/>
    <use xlink:href="#MalgunGothic-c81c" transform="translate(1251.359375 0)"/>
    <use xlink:href="#MalgunGothic-ac70" transform="translate(1351.359375 0)"/>
    <use xlink:href="#MalgunGothic-d558" transform="translate(1451.359375 0)"/>
    <use xlink:href="#MalgunGothic-ace0" transform="translate(1551.359375 0)"/>
    <use xlink:href="#MalgunGothic-2c" transform="translate(1651.359375 0)"/>
    <use xlink:href="#MalgunGothic-20" transform="translate(1673.234375 0)"/>
    <use xlink:href="#MalgunGothic-72" transform="translate(1708.390625 0)"/>
    <use xlink:href="#MalgunGothic-65" transform="translate(1742.367188 0)"/>
    <use xlink:href="#MalgunGothic-74" transform="translate(1795.882812 0)"/>
    <use xlink:href="#MalgunGothic-61" transform="translate(1830.355469 0)"/>
    <use xlink:href="#MalgunGothic-69" transform="translate(1882.357422 0)"/>
    <use xlink:href="#MalgunGothic-6e" transform="translate(1906.966797 0)"/>
    <use xlink:href="#MalgunGothic-65" transform="translate(1964.779297 0)"/>
    <use xlink:href="#MalgunGothic-64" transform="translate(2018.294922 0)"/>
    <use xlink:href="#MalgunGothic-20" transform="translate(2078.5 0)"/>
    <use xlink:href="#MalgunGothic-6d" transform="translate(2113.65625 0)"/>
    <use xlink:href="#MalgunGothic-69" transform="translate(2201.644531 0)"/>
    <use xlink:href="#MalgunGothic-73" transform="translate(2226.253906 0)"/>
    <use xlink:href="#MalgunGothic-73" transform="translate(2269.564453 0)"/>
    <use xlink:href="#MalgunGothic-69" transform="translate(2312.875 0)"/>
    <use xlink:href="#MalgunGothic-6e" transform="translate(2337.484375 0)"/>
    <use xlink:href="#MalgunGothic-67" transform="translate(2395.296875 0)"/>
    <use xlink:href="#MalgunGothic-20" transform="translate(2455.501953 0)"/>
    <use xlink:href="#MalgunGothic-66" transform="translate(2490.658203 0)"/>
    <use xlink:href="#MalgunGothic-65" transform="translate(2522.298828 0)"/>
    <use xlink:href="#MalgunGothic-61" transform="translate(2575.814453 0)"/>
    <use xlink:href="#MalgunGothic-74" transform="translate(2627.816406 0)"/>
    <use xlink:href="#MalgunGothic-75" transform="translate(2662.289062 0)"/>
    <use xlink:href="#MalgunGothic-72" transform="translate(2720.101562 0)"/>
    <use xlink:href="#MalgunGothic-65" transform="translate(2754.078125 0)"/>
    <use xlink:href="#MalgunGothic-c5d0" transform="translate(2807.59375 0)"/>
    <use xlink:href="#MalgunGothic-b294" transform="translate(2907.59375 0)"/>
    <use xlink:href="#MalgunGothic-20" transform="translate(3007.59375 0)"/>
    <use xlink:href="#MalgunGothic-69" transform="translate(3042.75 0)"/>
    <use xlink:href="#MalgunGothic-6e" transform="translate(3067.359375 0)"/>
    <use xlink:href="#MalgunGothic-64" transform="translate(3125.171875 0)"/>
    <use xlink:href="#MalgunGothic-69" transform="translate(3185.376953 0)"/>
    <use xlink:href="#MalgunGothic-63" transform="translate(3209.986328 0)"/>
    <use xlink:href="#MalgunGothic-61" transform="translate(3257.251953 0)"/>
    <use xlink:href="#MalgunGothic-74" transform="translate(3309.253906 0)"/>
    <use xlink:href="#MalgunGothic-6f" transform="translate(3342.851562 0)"/>
    <use xlink:href="#MalgunGothic-72" transform="translate(3402.763672 0)"/>
    <use xlink:href="#MalgunGothic-b97c" transform="translate(3438.115234 0)"/>
    <use xlink:href="#MalgunGothic-20" transform="translate(3538.115234 0)"/>
    <use xlink:href="#MalgunGothic-cd94" transform="translate(3573.271484 0)"/>
    <use xlink:href="#MalgunGothic-ac00" transform="translate(3673.271484 0)"/>
    <use xlink:href="#MalgunGothic-d588" transform="translate(3773.271484 0)"/>
    <use xlink:href="#MalgunGothic-b2e4" transform="translate(3873.271484 0)"/>
    <use xlink:href="#MalgunGothic-2e" transform="translate(3973.271484 0)"/>
    <use xlink:href="#MalgunGothic-20" transform="translate(3995.146484 0)"/>
    <use xlink:href="#MalgunGothic-53" transform="translate(4030.302734 0)"/>
    <use xlink:href="#MalgunGothic-63" transform="translate(4084.599609 0)"/>
    <use xlink:href="#MalgunGothic-61" transform="translate(4131.865234 0)"/>
    <use xlink:href="#MalgunGothic-6c" transform="translate(4183.867188 0)"/>
    <use xlink:href="#MalgunGothic-69" transform="translate(4208.476562 0)"/>
    <use xlink:href="#MalgunGothic-6e" transform="translate(4233.085938 0)"/>
    <use xlink:href="#MalgunGothic-67" transform="translate(4290.898438 0)"/>
    <use xlink:href="#MalgunGothic-20" transform="translate(4351.103516 0)"/>
    <use xlink:href="#MalgunGothic-6f" transform="translate(4386.259766 0)"/>
    <use xlink:href="#MalgunGothic-75" transform="translate(4446.171875 0)"/>
    <use xlink:href="#MalgunGothic-74" transform="translate(4503.984375 0)"/>
    <use xlink:href="#MalgunGothic-70" transform="translate(4538.457031 0)"/>
    <use xlink:href="#MalgunGothic-75" transform="translate(4598.515625 0)"/>
    <use xlink:href="#MalgunGothic-74" transform="translate(4656.328125 0)"/>
    <use xlink:href="#MalgunGothic-c740" transform="translate(4690.800781 0)"/>
    <use xlink:href="#MalgunGothic-20" transform="translate(4790.800781 0)"/>
    <use xlink:href="#MalgunGothic-7a" transform="translate(4825.957031 0)"/>
    <use xlink:href="#MalgunGothic-65" transform="translate(4872.148438 0)"/>
    <use xlink:href="#MalgunGothic-72" transform="translate(4925.664062 0)"/>
    <use xlink:href="#MalgunGothic-6f" transform="translate(4959.640625 0)"/>
    <use xlink:href="#MalgunGothic-2d" transform="translate(5019.552734 0)"/>
    <use xlink:href="#MalgunGothic-76" transform="translate(5060.568359 0)"/>
    <use xlink:href="#MalgunGothic-61" transform="translate(5107.298828 0)"/>
    <use xlink:href="#MalgunGothic-72" transform="translate(5159.300781 0)"/>
    <use xlink:href="#MalgunGothic-69" transform="translate(5194.652344 0)"/>
    <use xlink:href="#MalgunGothic-61" transform="translate(5219.261719 0)"/>
    <use xlink:href="#MalgunGothic-6e" transform="translate(5271.263672 0)"/>
    <use xlink:href="#MalgunGothic-63" transform="translate(5329.076172 0)"/>
    <use xlink:href="#MalgunGothic-65" transform="translate(5376.341797 0)"/>
   </g>
   <!-- feature 10개를 제거했다. -->
   <g style="fill: #6f768a" transform="translate(50.823281 52.476) scale(0.1 -0.1)">
    <defs>
     <path id="MalgunGothic-ac1c" d="M 5038 -563 
L 5038 2431 
L 4288 2431 
L 4288 -378 
L 3828 -378 
L 3828 5344 
L 4288 5344 
L 4288 2847 
L 5038 2847 
L 5038 5466 
L 5503 5466 
L 5503 -563 
L 5038 -563 
z
M 3078 4941 
Q 2981 2394 813 878 
L 441 1197 
Q 1263 1634 1891 2575 
Q 2519 3516 2584 4531 
L 800 4531 
L 800 4941 
L 3078 4941 
z
" transform="scale(0.015625)"/>
    </defs>
    <use xlink:href="#MalgunGothic-66"/>
    <use xlink:href="#MalgunGothic-65" transform="translate(31.640625 0)"/>
    <use xlink:href="#MalgunGothic-61" transform="translate(85.15625 0)"/>
    <use xlink:href="#MalgunGothic-74" transform="translate(137.158203 0)"/>
    <use xlink:href="#MalgunGothic-75" transform="translate(171.630859 0)"/>
    <use xlink:href="#MalgunGothic-72" transform="translate(229.443359 0)"/>
    <use xlink:href="#MalgunGothic-65" transform="translate(263.419922 0)"/>
    <use xlink:href="#MalgunGothic-20" transform="translate(316.935547 0)"/>
    <use xlink:href="#MalgunGothic-31" transform="translate(352.091797 0)"/>
    <use xlink:href="#MalgunGothic-30" transform="translate(407.169922 0)"/>
    <use xlink:href="#MalgunGothic-ac1c" transform="translate(462.248047 0)"/>
    <use xlink:href="#MalgunGothic-b97c" transform="translate(562.248047 0)"/>
    <use xlink:href="#MalgunGothic-20" transform="translate(662.248047 0)"/>
    <use xlink:href="#MalgunGothic-c81c" transform="translate(697.404297 0)"/>
    <use xlink:href="#MalgunGothic-ac70" transform="translate(797.404297 0)"/>
    <use xlink:href="#MalgunGothic-d588" transform="translate(897.404297 0)"/>
    <use xlink:href="#MalgunGothic-b2e4" transform="translate(997.404297 0)"/>
    <use xlink:href="#MalgunGothic-2e" transform="translate(1097.404297 0)"/>
   </g>
  </g>
 </g>
 <defs>
  <clipPath id="pcafacc5dc7">
   <rect x="50.823281" y="69.84" width="502.2" height="296.496"/>
  </clipPath>
 </defs>
</svg>
