<?xml version="1.0" encoding="utf-8" standalone="no"?>
<!DOCTYPE svg PUBLIC "-//W3C//DTD SVG 1.1//EN"
  "http://www.w3.org/Graphics/SVG/1.1/DTD/svg11.dtd">
<svg xmlns:xlink="http://www.w3.org/1999/xlink" width="624.567188pt" height="436.023375pt" viewBox="0 0 624.567188 436.023375" xmlns="http://www.w3.org/2000/svg" version="1.1">
 <metadata>
  <rdf:RDF xmlns:dc="http://purl.org/dc/elements/1.1/" xmlns:cc="http://creativecommons.org/ns#" xmlns:rdf="http://www.w3.org/1999/02/22-rdf-syntax-ns#">
   <cc:Work>
    <dc:type rdf:resource="http://purl.org/dc/dcmitype/StillImage"/>
    <dc:date>2026-06-30T14:57:33.956868</dc:date>
    <dc:format>image/svg+xml</dc:format>
    <dc:creator>
     <cc:Agent>
      <dc:title>Matplotlib v3.10.9, https://matplotlib.org/</dc:title>
     </cc:Agent>
    </dc:creator>
   </cc:Work>
  </rdf:RDF>
 </metadata>
 <defs>
  <style type="text/css">*{stroke-linejoin: round; stroke-linecap: butt}</style>
 </defs>
 <g id="figure_1">
  <g id="patch_1">
   <path d="M 0 436.023375 
L 624.567188 436.023375 
L 624.567188 0 
L 0 0 
z
" style="fill: #fcfcfd"/>
  </g>
  <g id="axes_1">
   <g id="patch_2">
    <path d="M 107.905469 391.104 
L 610.105469 391.104 
L 610.105469 74.16 
L 107.905469 74.16 
z
" style="fill: #ffffff"/>
   </g>
   <g id="matplotlib.axis_1">
    <g id="xtick_1">
     <g id="line2d_1">
      <path d="M 141.385469 391.104 
L 141.385469 74.16 
" clip-path="url(#p599ff118cc)" style="fill: none; stroke: #e6e8f0; stroke-width: 0.8; stroke-linecap: round"/>
     </g>
     <g id="text_1">
      <!-- 0.2 -->
      <g style="fill: #262626" transform="translate(134.12375 408.955406) scale(0.11 -0.11)">
       <defs>
        <path id="MalgunGothic-30" d="M 278 2206 
Q 278 3425 675 4050 
Q 1072 4675 1819 4675 
Q 3253 4675 3253 2319 
Q 3253 1156 2854 539 
Q 2456 -78 1716 -78 
Q 1016 -78 647 520 
Q 278 1119 278 2206 
z
M 784 2231 
Q 784 344 1769 344 
Q 2747 344 2747 2259 
Q 2747 4250 1794 4250 
Q 784 4250 784 2231 
z
" transform="scale(0.015625)"/>
        <path id="MalgunGothic-2e" d="M 356 275 
Q 356 422 459 523 
Q 563 625 700 625 
Q 838 625 941 523 
Q 1044 422 1044 275 
Q 1044 138 942 33 
Q 841 -72 700 -72 
Q 559 -72 457 29 
Q 356 131 356 275 
z
" transform="scale(0.015625)"/>
        <path id="MalgunGothic-32" d="M 2519 3372 
Q 2519 3784 2275 4018 
Q 2031 4253 1628 4253 
Q 1341 4253 1053 4104 
Q 766 3956 534 3697 
L 534 4234 
Q 981 4675 1691 4675 
Q 2281 4675 2642 4334 
Q 3003 3994 3003 3416 
Q 3003 2919 2772 2545 
Q 2541 2172 1984 1775 
Q 1459 1406 1254 1215 
Q 1050 1025 967 854 
Q 884 684 884 450 
L 3116 450 
L 3116 0 
L 356 0 
L 356 225 
Q 356 603 461 870 
Q 566 1138 811 1392 
Q 1056 1647 1597 2022 
Q 2091 2363 2305 2670 
Q 2519 2978 2519 3372 
z
" transform="scale(0.015625)"/>
       </defs>
       <use xlink:href="#MalgunGothic-30"/>
       <use xlink:href="#MalgunGothic-2e" transform="translate(55.078125 0)"/>
       <use xlink:href="#MalgunGothic-32" transform="translate(76.953125 0)"/>
      </g>
     </g>
    </g>
    <g id="xtick_2">
     <g id="line2d_2">
      <path d="M 208.345469 391.104 
L 208.345469 74.16 
" clip-path="url(#p599ff118cc)" style="fill: none; stroke: #e6e8f0; stroke-width: 0.8; stroke-linecap: round"/>
     </g>
     <g id="text_2">
      <!-- 0.3 -->
      <g style="fill: #262626" transform="translate(201.08375 408.955406) scale(0.11 -0.11)">
       <defs>
        <path id="MalgunGothic-33" d="M 416 719 
Q 891 344 1478 344 
Q 1959 344 2254 587 
Q 2550 831 2550 1247 
Q 2550 2169 1253 2169 
L 872 2169 
L 872 2591 
L 1234 2591 
Q 2388 2591 2388 3453 
Q 2388 4250 1509 4250 
Q 1022 4250 594 3916 
L 594 4413 
Q 1031 4675 1634 4675 
Q 2184 4675 2539 4372 
Q 2894 4069 2894 3581 
Q 2894 2678 1972 2409 
L 1972 2400 
Q 2469 2356 2764 2053 
Q 3059 1750 3059 1300 
Q 3059 672 2604 297 
Q 2150 -78 1450 -78 
Q 806 -78 416 169 
L 416 719 
z
" transform="scale(0.015625)"/>
       </defs>
       <use xlink:href="#MalgunGothic-30"/>
       <use xlink:href="#MalgunGothic-2e" transform="translate(55.078125 0)"/>
       <use xlink:href="#MalgunGothic-33" transform="translate(76.953125 0)"/>
      </g>
     </g>
    </g>
    <g id="xtick_3">
     <g id="line2d_3">
      <path d="M 275.305469 391.104 
L 275.305469 74.16 
" clip-path="url(#p599ff118cc)" style="fill: none; stroke: #e6e8f0; stroke-width: 0.8; stroke-linecap: round"/>
     </g>
     <g id="text_3">
      <!-- 0.4 -->
      <g style="fill: #262626" transform="translate(268.04375 408.955406) scale(0.11 -0.11)">
       <defs>
        <path id="MalgunGothic-34" d="M 2703 4600 
L 2703 1563 
L 3309 1563 
L 3309 1113 
L 2703 1113 
L 2703 0 
L 2213 0 
L 2213 1113 
L 50 1113 
L 50 1534 
Q 728 2297 1295 3109 
Q 1863 3922 2172 4600 
L 2703 4600 
z
M 625 1563 
L 2213 1563 
L 2213 3831 
Q 1613 2788 959 1981 
L 625 1563 
z
" transform="scale(0.015625)"/>
       </defs>
       <use xlink:href="#MalgunGothic-30"/>
       <use xlink:href="#MalgunGothic-2e" transform="translate(55.078125 0)"/>
       <use xlink:href="#MalgunGothic-34" transform="translate(76.953125 0)"/>
      </g>
     </g>
    </g>
    <g id="xtick_4">
     <g id="line2d_4">
      <path d="M 342.265469 391.104 
L 342.265469 74.16 
" clip-path="url(#p599ff118cc)" style="fill: none; stroke: #e6e8f0; stroke-width: 0.8; stroke-linecap: round"/>
     </g>
     <g id="text_4">
      <!-- 0.5 -->
      <g style="fill: #262626" transform="translate(335.00375 408.955406) scale(0.11 -0.11)">
       <defs>
        <path id="MalgunGothic-35" d="M 3072 1403 
Q 3072 722 2636 322 
Q 2200 -78 1469 -78 
Q 828 -78 516 113 
L 516 650 
Q 994 344 1475 344 
Q 1969 344 2270 630 
Q 2572 916 2572 1372 
Q 2572 1838 2265 2092 
Q 1959 2347 1381 2347 
Q 994 2347 603 2300 
L 759 4600 
L 2869 4600 
L 2869 4147 
L 1206 4147 
L 1106 2763 
Q 1347 2784 1547 2784 
Q 2263 2784 2667 2414 
Q 3072 2044 3072 1403 
z
" transform="scale(0.015625)"/>
       </defs>
       <use xlink:href="#MalgunGothic-30"/>
       <use xlink:href="#MalgunGothic-2e" transform="translate(55.078125 0)"/>
       <use xlink:href="#MalgunGothic-35" transform="translate(76.953125 0)"/>
      </g>
     </g>
    </g>
    <g id="xtick_5">
     <g id="line2d_5">
      <path d="M 409.225469 391.104 
L 409.225469 74.16 
" clip-path="url(#p599ff118cc)" style="fill: none; stroke: #e6e8f0; stroke-width: 0.8; stroke-linecap: round"/>
     </g>
     <g id="text_5">
      <!-- 0.6 -->
      <g style="fill: #262626" transform="translate(401.96375 408.955406) scale(0.11 -0.11)">
       <defs>
        <path id="MalgunGothic-36" d="M 2981 4069 
Q 2619 4250 2228 4250 
Q 1591 4250 1228 3689 
Q 866 3128 869 2213 
L 884 2213 
Q 1203 2872 1938 2872 
Q 2547 2872 2903 2478 
Q 3259 2084 3259 1450 
Q 3259 797 2857 359 
Q 2456 -78 1825 -78 
Q 1116 -78 736 478 
Q 356 1034 356 2019 
Q 356 3181 847 3928 
Q 1338 4675 2222 4675 
Q 2700 4675 2981 4544 
L 2981 4069 
z
M 906 1506 
Q 906 1022 1165 683 
Q 1425 344 1844 344 
Q 2247 344 2498 645 
Q 2750 947 2750 1388 
Q 2750 1888 2509 2167 
Q 2269 2447 1838 2447 
Q 1444 2447 1175 2173 
Q 906 1900 906 1506 
z
" transform="scale(0.015625)"/>
       </defs>
       <use xlink:href="#MalgunGothic-30"/>
       <use xlink:href="#MalgunGothic-2e" transform="translate(55.078125 0)"/>
       <use xlink:href="#MalgunGothic-36" transform="translate(76.953125 0)"/>
      </g>
     </g>
    </g>
    <g id="xtick_6">
     <g id="line2d_6">
      <path d="M 476.185469 391.104 
L 476.185469 74.16 
" clip-path="url(#p599ff118cc)" style="fill: none; stroke: #e6e8f0; stroke-width: 0.8; stroke-linecap: round"/>
     </g>
     <g id="text_6">
      <!-- 0.7 -->
      <g style="fill: #262626" transform="translate(468.92375 408.955406) scale(0.11 -0.11)">
       <defs>
        <path id="MalgunGothic-37" d="M 3213 4297 
Q 2478 3006 2064 1918 
Q 1650 831 1550 0 
L 1009 0 
Q 1084 531 1290 1176 
Q 1497 1822 1815 2537 
Q 2134 3253 2631 4147 
L 291 4147 
L 291 4600 
L 3213 4600 
L 3213 4297 
z
" transform="scale(0.015625)"/>
       </defs>
       <use xlink:href="#MalgunGothic-30"/>
       <use xlink:href="#MalgunGothic-2e" transform="translate(55.078125 0)"/>
       <use xlink:href="#MalgunGothic-37" transform="translate(76.953125 0)"/>
      </g>
     </g>
    </g>
    <g id="xtick_7">
     <g id="line2d_7">
      <path d="M 543.145469 391.104 
L 543.145469 74.16 
" clip-path="url(#p599ff118cc)" style="fill: none; stroke: #e6e8f0; stroke-width: 0.8; stroke-linecap: round"/>
     </g>
     <g id="text_7">
      <!-- 0.8 -->
      <g style="fill: #262626" transform="translate(535.88375 408.955406) scale(0.11 -0.11)">
       <defs>
        <path id="MalgunGothic-38" d="M 303 1281 
Q 303 1669 539 2011 
Q 775 2353 1153 2494 
Q 856 2647 675 2915 
Q 494 3184 494 3500 
Q 494 3828 659 4098 
Q 825 4369 1122 4522 
Q 1419 4675 1778 4675 
Q 2334 4675 2700 4342 
Q 3066 4009 3066 3500 
Q 3066 3181 2881 2914 
Q 2697 2647 2413 2494 
Q 2788 2350 3022 2009 
Q 3256 1669 3256 1281 
Q 3256 672 2843 297 
Q 2431 -78 1778 -78 
Q 1131 -78 717 301 
Q 303 681 303 1281 
z
M 809 1328 
Q 809 878 1081 611 
Q 1353 344 1781 344 
Q 2206 344 2482 619 
Q 2759 894 2759 1328 
Q 2759 1731 2482 2011 
Q 2206 2291 1781 2291 
Q 1372 2291 1090 2020 
Q 809 1750 809 1328 
z
M 1003 3459 
Q 1003 3125 1234 2900 
Q 1466 2675 1781 2675 
Q 2097 2675 2330 2900 
Q 2563 3125 2563 3459 
Q 2563 3803 2341 4026 
Q 2119 4250 1781 4250 
Q 1450 4250 1226 4029 
Q 1003 3809 1003 3459 
z
" transform="scale(0.015625)"/>
       </defs>
       <use xlink:href="#MalgunGothic-30"/>
       <use xlink:href="#MalgunGothic-2e" transform="translate(55.078125 0)"/>
       <use xlink:href="#MalgunGothic-38" transform="translate(76.953125 0)"/>
      </g>
     </g>
    </g>
    <g id="xtick_8">
     <g id="line2d_8">
      <path d="M 610.105469 391.104 
L 610.105469 74.16 
" clip-path="url(#p599ff118cc)" style="fill: none; stroke: #e6e8f0; stroke-width: 0.8; stroke-linecap: round"/>
     </g>
     <g id="text_8">
      <!-- 0.9 -->
      <g style="fill: #262626" transform="translate(602.84375 408.955406) scale(0.11 -0.11)">
       <defs>
        <path id="MalgunGothic-39" d="M 556 563 
Q 941 344 1366 344 
Q 1994 344 2347 855 
Q 2700 1366 2700 2313 
Q 2694 2306 2688 2313 
Q 2388 1713 1653 1713 
Q 1059 1713 682 2120 
Q 306 2528 306 3144 
Q 306 3806 711 4240 
Q 1116 4675 1772 4675 
Q 2466 4675 2833 4131 
Q 3200 3588 3200 2578 
Q 3200 1319 2717 620 
Q 2234 -78 1344 -78 
Q 881 -78 556 78 
L 556 563 
z
M 813 3219 
Q 813 2741 1063 2450 
Q 1313 2159 1759 2159 
Q 2147 2159 2406 2417 
Q 2666 2675 2666 3047 
Q 2666 3556 2411 3903 
Q 2156 4250 1725 4250 
Q 1322 4250 1067 3948 
Q 813 3647 813 3219 
z
" transform="scale(0.015625)"/>
       </defs>
       <use xlink:href="#MalgunGothic-30"/>
       <use xlink:href="#MalgunGothic-2e" transform="translate(55.078125 0)"/>
       <use xlink:href="#MalgunGothic-39" transform="translate(76.953125 0)"/>
      </g>
     </g>
    </g>
    <g id="text_9">
     <!-- 점 추정치와 participant bootstrap 95% CI -->
     <g style="fill: #1f2430" transform="translate(246.043281 425.9865) scale(0.12 -0.12)">
      <defs>
       <path id="MalgunGothic-c810" d="M 4884 2113 
L 4884 3675 
L 3444 3675 
L 3444 4097 
L 4884 4097 
L 4884 5466 
L 5350 5466 
L 5350 2113 
L 4884 2113 
z
M 3653 2328 
Q 3244 2550 2831 2950 
Q 2419 3350 2253 3700 
Q 2075 3303 1659 2858 
Q 1244 2413 819 2175 
L 488 2497 
Q 1134 2806 1571 3393 
Q 2009 3981 2009 4628 
L 2009 4781 
L 684 4781 
L 684 5197 
L 3788 5197 
L 3788 4781 
L 2463 4781 
L 2463 4628 
Q 2463 4025 2916 3472 
Q 3369 2919 3969 2669 
L 3653 2328 
z
M 1625 -397 
L 1625 1766 
L 5350 1766 
L 5350 -397 
L 1625 -397 
z
M 4891 1356 
L 2088 1356 
L 2088 13 
L 4891 13 
L 4891 1356 
z
" transform="scale(0.015625)"/>
       <path id="MalgunGothic-20" transform="scale(0.015625)"/>
       <path id="MalgunGothic-cd94" d="M 5434 2734 
Q 4791 2863 4103 3227 
Q 3416 3591 3200 3922 
Q 3009 3600 2379 3253 
Q 1750 2906 997 2725 
L 672 3128 
Q 1519 3222 2198 3634 
Q 2878 4047 2956 4525 
L 1025 4525 
L 1025 4941 
L 2969 4941 
L 2969 5563 
L 3444 5563 
L 3444 4941 
L 5375 4941 
L 5375 4525 
L 3444 4525 
Q 3516 4078 4166 3686 
Q 4816 3294 5734 3144 
L 5434 2734 
z
M 3431 1691 
L 3431 -556 
L 2963 -556 
L 2963 1691 
L 403 1691 
L 403 2106 
L 5997 2106 
L 5997 1691 
L 3431 1691 
z
" transform="scale(0.015625)"/>
       <path id="MalgunGothic-c815" d="M 4947 1984 
L 4947 3694 
L 3541 3694 
L 3541 4109 
L 4947 4109 
L 4947 5466 
L 5416 5466 
L 5416 1984 
L 4947 1984 
z
M 3653 2328 
Q 3244 2550 2831 2950 
Q 2419 3350 2253 3700 
Q 2075 3303 1659 2858 
Q 1244 2413 819 2175 
L 488 2497 
Q 1134 2806 1571 3393 
Q 2009 3981 2009 4628 
L 2009 4781 
L 684 4781 
L 684 5197 
L 3788 5197 
L 3788 4781 
L 2463 4781 
L 2463 4628 
Q 2463 4025 2916 3472 
Q 3369 2919 3969 2669 
L 3653 2328 
z
M 3566 -475 
Q 2622 -475 2108 -148 
Q 1594 178 1594 697 
Q 1594 1216 2106 1539 
Q 2619 1863 3566 1863 
Q 4513 1863 5025 1539 
Q 5538 1216 5538 697 
Q 5538 178 5023 -148 
Q 4509 -475 3566 -475 
z
M 3566 1466 
Q 2850 1466 2472 1248 
Q 2094 1031 2094 697 
Q 2094 359 2473 143 
Q 2853 -72 3566 -72 
Q 4275 -72 4656 142 
Q 5038 356 5038 697 
Q 5038 1034 4659 1250 
Q 4281 1466 3566 1466 
z
" transform="scale(0.015625)"/>
       <path id="MalgunGothic-ce58" d="M 4941 -563 
L 4941 5466 
L 5409 5466 
L 5409 -563 
L 4941 -563 
z
M 3969 966 
Q 3447 1272 2995 1773 
Q 2544 2275 2406 2656 
Q 2281 2259 1817 1686 
Q 1353 1113 891 831 
L 531 1197 
Q 1197 1519 1683 2242 
Q 2169 2966 2169 3628 
L 2169 4206 
L 678 4206 
L 678 4622 
L 2163 4622 
L 2163 5466 
L 2631 5466 
L 2631 4622 
L 4128 4622 
L 4128 4206 
L 2638 4206 
L 2631 3603 
Q 2625 2991 3111 2314 
Q 3597 1638 4300 1338 
L 3969 966 
z
" transform="scale(0.015625)"/>
       <path id="MalgunGothic-c640" d="M 5203 2600 
L 5203 -563 
L 4738 -563 
L 4738 5466 
L 5203 5466 
L 5203 3016 
L 6188 3016 
L 6188 2600 
L 5203 2600 
z
M 2572 2138 
L 2572 959 
Q 3872 991 4353 1025 
L 4378 622 
Q 3956 588 2537 553 
Q 1119 519 378 519 
L 325 934 
Q 1281 934 2106 953 
L 2106 2131 
Q 1466 2203 1094 2601 
Q 722 3000 722 3572 
Q 722 4213 1187 4616 
Q 1653 5019 2350 5019 
Q 3038 5019 3477 4619 
Q 3916 4219 3916 3572 
Q 3916 2997 3556 2611 
Q 3197 2225 2572 2138 
z
M 2316 4609 
Q 1825 4609 1514 4321 
Q 1203 4034 1203 3572 
Q 1203 3116 1515 2825 
Q 1828 2534 2316 2534 
Q 2806 2534 3122 2826 
Q 3438 3119 3438 3572 
Q 3438 4031 3125 4320 
Q 2813 4609 2316 4609 
z
" transform="scale(0.015625)"/>
       <path id="MalgunGothic-70" d="M 1034 481 
L 1034 -1513 
L 538 -1513 
L 538 3284 
L 1034 3284 
L 1034 2703 
L 1047 2703 
Q 1438 3359 2184 3359 
Q 2809 3359 3171 2920 
Q 3534 2481 3534 1738 
Q 3534 906 3126 414 
Q 2719 -78 2034 -78 
Q 1394 -78 1047 481 
L 1034 481 
z
M 1034 1331 
Q 1034 922 1307 633 
Q 1581 344 1991 344 
Q 2475 344 2751 716 
Q 3028 1088 3028 1753 
Q 3028 2300 2767 2620 
Q 2506 2941 2072 2941 
Q 1619 2941 1326 2619 
Q 1034 2297 1034 1806 
L 1034 1331 
z
" transform="scale(0.015625)"/>
       <path id="MalgunGothic-61" d="M 616 3050 
Q 1097 3359 1722 3359 
Q 2866 3359 2866 2147 
L 2866 0 
L 2369 0 
L 2369 516 
L 2350 516 
Q 2009 -78 1341 -78 
Q 859 -78 576 180 
Q 294 438 294 869 
Q 294 1784 1375 1934 
L 2366 2078 
Q 2366 2934 1684 2934 
Q 1084 2934 616 2525 
L 616 3050 
z
M 1563 1559 
Q 1178 1509 993 1371 
Q 809 1234 809 903 
Q 809 653 986 500 
Q 1163 347 1450 347 
Q 1847 347 2106 628 
Q 2366 909 2366 1334 
L 2366 1666 
L 1563 1559 
z
" transform="scale(0.015625)"/>
       <path id="MalgunGothic-72" d="M 2225 2775 
Q 2084 2881 1828 2881 
Q 1491 2881 1262 2553 
Q 1034 2225 1034 1681 
L 1034 0 
L 538 0 
L 538 3284 
L 1034 3284 
L 1034 2603 
L 1047 2603 
Q 1159 2950 1389 3145 
Q 1619 3341 1903 3341 
Q 2109 3341 2225 3297 
L 2225 2775 
z
" transform="scale(0.015625)"/>
       <path id="MalgunGothic-74" d="M 2031 31 
Q 1844 -72 1553 -72 
Q 706 -72 706 881 
L 706 2856 
L 138 2856 
L 138 3284 
L 706 3284 
L 706 4091 
L 1200 4250 
L 1200 3284 
L 2031 3284 
L 2031 2856 
L 1200 2856 
L 1200 972 
Q 1200 625 1315 487 
Q 1431 350 1691 350 
Q 1888 350 2031 459 
L 2031 31 
z
" transform="scale(0.015625)"/>
       <path id="MalgunGothic-69" d="M 472 4466 
Q 472 4606 565 4701 
Q 659 4797 794 4797 
Q 934 4797 1029 4700 
Q 1125 4603 1125 4466 
Q 1125 4325 1029 4231 
Q 934 4138 794 4138 
Q 659 4138 565 4230 
Q 472 4322 472 4466 
z
M 541 0 
L 541 3284 
L 1034 3284 
L 1034 0 
L 541 0 
z
" transform="scale(0.015625)"/>
       <path id="MalgunGothic-63" d="M 2763 153 
Q 2375 -78 1872 -78 
Q 1184 -78 750 372 
Q 316 822 316 1566 
Q 316 2381 777 2870 
Q 1238 3359 2009 3359 
Q 2434 3359 2766 3200 
L 2766 2681 
Q 2397 2941 1981 2941 
Q 1478 2941 1148 2577 
Q 819 2213 819 1609 
Q 819 1034 1120 689 
Q 1422 344 1947 344 
Q 2381 344 2763 631 
L 2763 153 
z
" transform="scale(0.015625)"/>
       <path id="MalgunGothic-6e" d="M 3238 0 
L 2741 0 
L 2741 1875 
Q 2741 2941 1963 2941 
Q 1563 2941 1298 2639 
Q 1034 2338 1034 1872 
L 1034 0 
L 538 0 
L 538 3284 
L 1034 3284 
L 1034 2734 
L 1047 2734 
Q 1416 3359 2125 3359 
Q 2666 3359 2952 3012 
Q 3238 2666 3238 2006 
L 3238 0 
z
" transform="scale(0.015625)"/>
       <path id="MalgunGothic-62" d="M 1034 481 
L 1034 0 
L 538 0 
L 538 4859 
L 1034 4859 
L 1034 2703 
L 1047 2703 
Q 1438 3359 2184 3359 
Q 2813 3359 3173 2917 
Q 3534 2475 3534 1738 
Q 3534 906 3126 414 
Q 2719 -78 2034 -78 
Q 1384 -78 1047 481 
L 1034 481 
z
M 1034 1334 
Q 1034 922 1307 633 
Q 1581 344 1991 344 
Q 2475 344 2751 716 
Q 3028 1088 3028 1753 
Q 3028 2303 2767 2622 
Q 2506 2941 2072 2941 
Q 1616 2941 1325 2616 
Q 1034 2291 1034 1803 
L 1034 1334 
z
" transform="scale(0.015625)"/>
       <path id="MalgunGothic-6f" d="M 316 1600 
Q 316 2419 761 2889 
Q 1206 3359 1978 3359 
Q 2697 3359 3111 2907 
Q 3525 2456 3525 1650 
Q 3525 869 3078 395 
Q 2631 -78 1900 -78 
Q 1184 -78 750 384 
Q 316 847 316 1600 
z
M 819 1622 
Q 819 1041 1123 692 
Q 1428 344 1934 344 
Q 2459 344 2739 680 
Q 3019 1016 3019 1634 
Q 3019 2256 2737 2598 
Q 2456 2941 1934 2941 
Q 1425 2941 1122 2587 
Q 819 2234 819 1622 
z
" transform="scale(0.015625)"/>
       <path id="MalgunGothic-73" d="M 331 669 
Q 763 350 1278 350 
Q 1978 350 1978 822 
Q 1978 1025 1825 1158 
Q 1672 1291 1222 1459 
Q 703 1666 520 1878 
Q 338 2091 338 2416 
Q 338 2834 700 3096 
Q 1063 3359 1584 3359 
Q 2003 3359 2341 3213 
L 2341 2697 
Q 1975 2934 1506 2934 
Q 1200 2934 1025 2798 
Q 850 2663 850 2459 
Q 850 2241 979 2125 
Q 1109 2009 1544 1838 
Q 2131 1609 2309 1390 
Q 2488 1172 2488 869 
Q 2488 431 2127 176 
Q 1766 -78 1203 -78 
Q 694 -78 331 122 
L 331 669 
z
" transform="scale(0.015625)"/>
       <path id="MalgunGothic-25" d="M 253 3444 
Q 253 3997 547 4331 
Q 841 4666 1353 4666 
Q 1847 4666 2115 4355 
Q 2384 4044 2384 3509 
Q 2384 2972 2082 2633 
Q 1781 2294 1288 2294 
Q 816 2294 534 2608 
Q 253 2922 253 3444 
z
M 666 3475 
Q 666 3091 841 2864 
Q 1016 2638 1322 2638 
Q 1631 2638 1803 2863 
Q 1975 3088 1975 3494 
Q 1975 3894 1804 4112 
Q 1634 4331 1334 4331 
Q 1022 4331 844 4098 
Q 666 3866 666 3475 
z
M 4350 4600 
L 1403 -34 
L 966 -34 
L 3909 4600 
L 4350 4600 
z
M 2988 1078 
Q 2988 1641 3284 1977 
Q 3581 2313 4081 2313 
Q 4569 2313 4841 2000 
Q 5113 1688 5113 1138 
Q 5113 600 4809 264 
Q 4506 -72 4019 -72 
Q 3550 -72 3269 245 
Q 2988 563 2988 1078 
z
M 3394 1103 
Q 3394 725 3570 498 
Q 3747 272 4050 272 
Q 4356 272 4529 501 
Q 4703 731 4703 1134 
Q 4703 1534 4534 1748 
Q 4366 1963 4066 1963 
Q 3753 1963 3573 1731 
Q 3394 1500 3394 1103 
z
" transform="scale(0.015625)"/>
       <path id="MalgunGothic-43" d="M 3725 197 
Q 3216 -78 2459 -78 
Q 1488 -78 897 561 
Q 306 1200 306 2213 
Q 306 3281 959 3978 
Q 1613 4675 2644 4675 
Q 3297 4675 3725 4484 
L 3725 3941 
Q 3234 4213 2634 4213 
Q 1813 4213 1325 3659 
Q 838 3106 838 2241 
Q 838 1413 1297 897 
Q 1756 381 2522 381 
Q 3216 381 3725 688 
L 3725 197 
z
" transform="scale(0.015625)"/>
       <path id="MalgunGothic-49" d="M 1116 0 
L 613 0 
L 613 4600 
L 1116 4600 
L 1116 0 
z
" transform="scale(0.015625)"/>
      </defs>
      <use xlink:href="#MalgunGothic-c810"/>
      <use xlink:href="#MalgunGothic-20" transform="translate(100 0)"/>
      <use xlink:href="#MalgunGothic-cd94" transform="translate(135.15625 0)"/>
      <use xlink:href="#MalgunGothic-c815" transform="translate(235.15625 0)"/>
      <use xlink:href="#MalgunGothic-ce58" transform="translate(335.15625 0)"/>
      <use xlink:href="#MalgunGothic-c640" transform="translate(435.15625 0)"/>
      <use xlink:href="#MalgunGothic-20" transform="translate(535.15625 0)"/>
      <use xlink:href="#MalgunGothic-70" transform="translate(570.3125 0)"/>
      <use xlink:href="#MalgunGothic-61" transform="translate(628.996094 0)"/>
      <use xlink:href="#MalgunGothic-72" transform="translate(680.998047 0)"/>
      <use xlink:href="#MalgunGothic-74" transform="translate(719.474609 0)"/>
      <use xlink:href="#MalgunGothic-69" transform="translate(753.947266 0)"/>
      <use xlink:href="#MalgunGothic-63" transform="translate(778.556641 0)"/>
      <use xlink:href="#MalgunGothic-69" transform="translate(825.822266 0)"/>
      <use xlink:href="#MalgunGothic-70" transform="translate(850.431641 0)"/>
      <use xlink:href="#MalgunGothic-61" transform="translate(909.115234 0)"/>
      <use xlink:href="#MalgunGothic-6e" transform="translate(961.117188 0)"/>
      <use xlink:href="#MalgunGothic-74" transform="translate(1018.929688 0)"/>
      <use xlink:href="#MalgunGothic-20" transform="translate(1053.402344 0)"/>
      <use xlink:href="#MalgunGothic-62" transform="translate(1088.558594 0)"/>
      <use xlink:href="#MalgunGothic-6f" transform="translate(1148.617188 0)"/>
      <use xlink:href="#MalgunGothic-6f" transform="translate(1208.529297 0)"/>
      <use xlink:href="#MalgunGothic-74" transform="translate(1268.441406 0)"/>
      <use xlink:href="#MalgunGothic-73" transform="translate(1302.914062 0)"/>
      <use xlink:href="#MalgunGothic-74" transform="translate(1346.224609 0)"/>
      <use xlink:href="#MalgunGothic-72" transform="translate(1380.697266 0)"/>
      <use xlink:href="#MalgunGothic-61" transform="translate(1416.048828 0)"/>
      <use xlink:href="#MalgunGothic-70" transform="translate(1468.050781 0)"/>
      <use xlink:href="#MalgunGothic-20" transform="translate(1528.109375 0)"/>
      <use xlink:href="#MalgunGothic-39" transform="translate(1563.265625 0)"/>
      <use xlink:href="#MalgunGothic-35" transform="translate(1618.34375 0)"/>
      <use xlink:href="#MalgunGothic-25" transform="translate(1673.421875 0)"/>
      <use xlink:href="#MalgunGothic-20" transform="translate(1757.064453 0)"/>
      <use xlink:href="#MalgunGothic-43" transform="translate(1792.220703 0)"/>
      <use xlink:href="#MalgunGothic-49" transform="translate(1855.697266 0)"/>
     </g>
    </g>
   </g>
   <g id="matplotlib.axis_2">
    <g id="ytick_1">
     <g id="line2d_9">
      <path d="M 107.905469 88.566545 
L 610.105469 88.566545 
" clip-path="url(#p599ff118cc)" style="fill: none; stroke: #e6e8f0; stroke-width: 0.8; stroke-linecap: round"/>
     </g>
     <g id="text_10">
      <!-- Balanced accuracy -->
      <g style="fill: #262626" transform="translate(7.2 92.742249) scale(0.11 -0.11)">
       <defs>
        <path id="MalgunGothic-42" d="M 609 0 
L 609 4600 
L 1894 4600 
Q 2466 4600 2817 4311 
Q 3169 4022 3169 3547 
Q 3169 3166 2961 2870 
Q 2753 2575 2378 2453 
L 2378 2441 
Q 2844 2391 3122 2089 
Q 3400 1788 3400 1319 
Q 3400 731 2978 365 
Q 2556 0 1919 0 
L 609 0 
z
M 1113 4128 
L 1113 2619 
L 1672 2619 
Q 2134 2619 2387 2839 
Q 2641 3059 2641 3447 
Q 2641 4128 1750 4128 
L 1113 4128 
z
M 1113 2153 
L 1113 469 
L 1859 469 
Q 2334 469 2603 698 
Q 2872 928 2872 1325 
Q 2872 2153 1738 2153 
L 1113 2153 
z
" transform="scale(0.015625)"/>
        <path id="MalgunGothic-6c" d="M 541 0 
L 541 4859 
L 1034 4859 
L 1034 0 
L 541 0 
z
" transform="scale(0.015625)"/>
        <path id="MalgunGothic-65" d="M 3156 1519 
L 828 1519 
Q 844 950 1133 648 
Q 1422 347 1909 347 
Q 2472 347 2934 719 
L 2934 244 
Q 2494 -78 1794 -78 
Q 1100 -78 708 376 
Q 316 831 316 1634 
Q 316 2381 747 2870 
Q 1178 3359 1816 3359 
Q 2453 3359 2804 2942 
Q 3156 2525 3156 1788 
L 3156 1519 
z
M 2644 1956 
Q 2644 2416 2423 2675 
Q 2203 2934 1809 2934 
Q 1438 2934 1169 2667 
Q 900 2400 834 1956 
L 2644 1956 
z
" transform="scale(0.015625)"/>
        <path id="MalgunGothic-64" d="M 3313 0 
L 2822 0 
L 2822 566 
L 2809 566 
Q 2444 -78 1675 -78 
Q 1056 -78 686 364 
Q 316 806 316 1566 
Q 316 2375 728 2867 
Q 1141 3359 1816 3359 
Q 2494 3359 2809 2822 
L 2822 2822 
L 2822 4859 
L 3313 4859 
L 3313 0 
z
M 2822 1978 
Q 2822 2378 2550 2659 
Q 2278 2941 1872 2941 
Q 1384 2941 1101 2577 
Q 819 2213 819 1591 
Q 819 1025 1086 684 
Q 1353 344 1813 344 
Q 2250 344 2536 666 
Q 2822 988 2822 1478 
L 2822 1978 
z
" transform="scale(0.015625)"/>
        <path id="MalgunGothic-75" d="M 3166 0 
L 2669 0 
L 2669 519 
L 2656 519 
Q 2331 -78 1644 -78 
Q 469 -78 469 1322 
L 469 3284 
L 959 3284 
L 959 1403 
Q 959 344 1766 344 
Q 2159 344 2414 636 
Q 2669 928 2669 1394 
L 2669 3284 
L 3166 3284 
L 3166 0 
z
" transform="scale(0.015625)"/>
        <path id="MalgunGothic-79" d="M 3119 3284 
L 1597 -544 
Q 1197 -1547 481 -1547 
Q 313 -1547 156 -1509 
L 156 -1056 
Q 316 -1109 459 -1109 
Q 859 -1109 1059 -628 
L 1328 6 
L 47 3284 
L 597 3284 
L 1503 722 
Q 1513 697 1572 488 
L 1588 488 
L 1650 716 
L 2603 3284 
L 3119 3284 
z
" transform="scale(0.015625)"/>
       </defs>
       <use xlink:href="#MalgunGothic-42"/>
       <use xlink:href="#MalgunGothic-61" transform="translate(58.349609 0)"/>
       <use xlink:href="#MalgunGothic-6c" transform="translate(110.351562 0)"/>
       <use xlink:href="#MalgunGothic-61" transform="translate(134.960938 0)"/>
       <use xlink:href="#MalgunGothic-6e" transform="translate(186.962891 0)"/>
       <use xlink:href="#MalgunGothic-63" transform="translate(244.775391 0)"/>
       <use xlink:href="#MalgunGothic-65" transform="translate(292.041016 0)"/>
       <use xlink:href="#MalgunGothic-64" transform="translate(345.556641 0)"/>
       <use xlink:href="#MalgunGothic-20" transform="translate(405.761719 0)"/>
       <use xlink:href="#MalgunGothic-61" transform="translate(440.917969 0)"/>
       <use xlink:href="#MalgunGothic-63" transform="translate(492.919922 0)"/>
       <use xlink:href="#MalgunGothic-63" transform="translate(540.185547 0)"/>
       <use xlink:href="#MalgunGothic-75" transform="translate(587.451172 0)"/>
       <use xlink:href="#MalgunGothic-72" transform="translate(645.263672 0)"/>
       <use xlink:href="#MalgunGothic-61" transform="translate(680.615234 0)"/>
       <use xlink:href="#MalgunGothic-63" transform="translate(732.617188 0)"/>
       <use xlink:href="#MalgunGothic-79" transform="translate(779.882812 0)"/>
      </g>
     </g>
    </g>
    <g id="ytick_2">
     <g id="line2d_10">
      <path d="M 107.905469 146.192727 
L 610.105469 146.192727 
" clip-path="url(#p599ff118cc)" style="fill: none; stroke: #e6e8f0; stroke-width: 0.8; stroke-linecap: round"/>
     </g>
     <g id="text_11">
      <!-- ROC AUC -->
      <g style="fill: #262626" transform="translate(50.660312 150.36843) scale(0.11 -0.11)">
       <defs>
        <path id="MalgunGothic-52" d="M 3866 0 
L 3259 0 
L 2488 1294 
Q 2241 1706 2044 1837 
Q 1847 1969 1569 1969 
L 1113 1969 
L 1113 0 
L 609 0 
L 609 4600 
L 1963 4600 
Q 2597 4600 2970 4272 
Q 3344 3944 3344 3375 
Q 3344 2422 2325 2138 
L 2325 2125 
Q 2519 2041 2645 1902 
Q 2772 1763 3006 1381 
L 3866 0 
z
M 1113 4128 
L 1113 2438 
L 1866 2438 
Q 2291 2438 2552 2686 
Q 2813 2934 2813 3334 
Q 2813 3709 2570 3918 
Q 2328 4128 1872 4128 
L 1113 4128 
z
" transform="scale(0.015625)"/>
        <path id="MalgunGothic-4f" d="M 306 2244 
Q 306 3350 903 4012 
Q 1500 4675 2531 4675 
Q 3481 4675 4062 4029 
Q 4644 3384 4644 2359 
Q 4644 1256 4056 589 
Q 3469 -78 2456 -78 
Q 1488 -78 897 570 
Q 306 1219 306 2244 
z
M 838 2291 
Q 838 1456 1278 918 
Q 1719 381 2453 381 
Q 3238 381 3677 889 
Q 4116 1397 4116 2284 
Q 4116 3188 3692 3700 
Q 3269 4213 2494 4213 
Q 1741 4213 1289 3670 
Q 838 3128 838 2291 
z
" transform="scale(0.015625)"/>
        <path id="MalgunGothic-41" d="M 4134 0 
L 3575 0 
L 3075 1306 
L 1103 1306 
L 638 0 
L 75 0 
L 1844 4600 
L 2356 4600 
L 4134 0 
z
M 2903 1769 
L 2169 3756 
Q 2128 3866 2100 4059 
L 2084 4059 
Q 2050 3844 2009 3756 
L 1281 1769 
L 2903 1769 
z
" transform="scale(0.015625)"/>
        <path id="MalgunGothic-55" d="M 3947 1850 
Q 3947 -78 2209 -78 
Q 553 -78 553 1778 
L 553 4600 
L 1056 4600 
L 1056 1813 
Q 1056 381 2272 381 
Q 3441 381 3441 1763 
L 3441 4600 
L 3947 4600 
L 3947 1850 
z
" transform="scale(0.015625)"/>
       </defs>
       <use xlink:href="#MalgunGothic-52"/>
       <use xlink:href="#MalgunGothic-4f" transform="translate(59.861328 0)"/>
       <use xlink:href="#MalgunGothic-43" transform="translate(137.205078 0)"/>
       <use xlink:href="#MalgunGothic-20" transform="translate(200.681641 0)"/>
       <use xlink:href="#MalgunGothic-41" transform="translate(235.837891 0)"/>
       <use xlink:href="#MalgunGothic-55" transform="translate(300.283203 0)"/>
       <use xlink:href="#MalgunGothic-43" transform="translate(370.546875 0)"/>
      </g>
     </g>
    </g>
    <g id="ytick_3">
     <g id="line2d_11">
      <path d="M 107.905469 203.818909 
L 610.105469 203.818909 
" clip-path="url(#p599ff118cc)" style="fill: none; stroke: #e6e8f0; stroke-width: 0.8; stroke-linecap: round"/>
     </g>
     <g id="text_12">
      <!-- Average precision -->
      <g style="fill: #262626" transform="translate(9.68875 207.965393) scale(0.11 -0.11)">
       <defs>
        <path id="MalgunGothic-76" d="M 3084 3284 
L 1769 0 
L 1294 0 
L 47 3284 
L 594 3284 
L 1441 872 
Q 1531 609 1556 425 
L 1572 425 
Q 1603 669 1672 863 
L 2563 3284 
L 3084 3284 
z
" transform="scale(0.015625)"/>
        <path id="MalgunGothic-67" d="M 3313 259 
Q 3313 -1547 1603 -1547 
Q 1003 -1547 538 -1313 
L 538 -806 
Q 1088 -1116 1600 -1116 
Q 2822 -1116 2822 194 
L 2822 559 
L 2809 559 
Q 2422 -78 1675 -78 
Q 1066 -78 691 362 
Q 316 803 316 1534 
Q 316 2375 722 2867 
Q 1128 3359 1816 3359 
Q 2484 3359 2809 2822 
L 2822 2822 
L 2822 3284 
L 3313 3284 
L 3313 259 
z
M 2822 1978 
Q 2822 2378 2547 2659 
Q 2272 2941 1878 2941 
Q 1384 2941 1101 2577 
Q 819 2213 819 1572 
Q 819 1016 1092 680 
Q 1366 344 1803 344 
Q 2247 344 2534 666 
Q 2822 988 2822 1478 
L 2822 1978 
z
" transform="scale(0.015625)"/>
       </defs>
       <use xlink:href="#MalgunGothic-41"/>
       <use xlink:href="#MalgunGothic-76" transform="translate(63.570312 0)"/>
       <use xlink:href="#MalgunGothic-65" transform="translate(111.675781 0)"/>
       <use xlink:href="#MalgunGothic-72" transform="translate(165.191406 0)"/>
       <use xlink:href="#MalgunGothic-61" transform="translate(200.542969 0)"/>
       <use xlink:href="#MalgunGothic-67" transform="translate(252.544922 0)"/>
       <use xlink:href="#MalgunGothic-65" transform="translate(312.75 0)"/>
       <use xlink:href="#MalgunGothic-20" transform="translate(366.265625 0)"/>
       <use xlink:href="#MalgunGothic-70" transform="translate(401.421875 0)"/>
       <use xlink:href="#MalgunGothic-72" transform="translate(461.480469 0)"/>
       <use xlink:href="#MalgunGothic-65" transform="translate(495.457031 0)"/>
       <use xlink:href="#MalgunGothic-63" transform="translate(548.972656 0)"/>
       <use xlink:href="#MalgunGothic-69" transform="translate(596.238281 0)"/>
       <use xlink:href="#MalgunGothic-73" transform="translate(620.847656 0)"/>
       <use xlink:href="#MalgunGothic-69" transform="translate(664.158203 0)"/>
       <use xlink:href="#MalgunGothic-6f" transform="translate(688.767578 0)"/>
       <use xlink:href="#MalgunGothic-6e" transform="translate(748.679688 0)"/>
      </g>
     </g>
    </g>
    <g id="ytick_4">
     <g id="line2d_12">
      <path d="M 107.905469 261.445091 
L 610.105469 261.445091 
" clip-path="url(#p599ff118cc)" style="fill: none; stroke: #e6e8f0; stroke-width: 0.8; stroke-linecap: round"/>
     </g>
     <g id="text_13">
      <!-- F1 -->
      <g style="fill: #262626" transform="translate(86.862344 265.620794) scale(0.11 -0.11)">
       <defs>
        <path id="MalgunGothic-46" d="M 2922 4134 
L 1113 4134 
L 1113 2516 
L 2788 2516 
L 2788 2050 
L 1113 2050 
L 1113 0 
L 609 0 
L 609 4600 
L 2922 4600 
L 2922 4134 
z
" transform="scale(0.015625)"/>
        <path id="MalgunGothic-31" d="M 2231 0 
L 1734 0 
L 1734 3972 
Q 1591 3828 1266 3661 
Q 941 3494 672 3428 
L 672 3959 
Q 1016 4056 1409 4275 
Q 1803 4494 2031 4700 
L 2231 4700 
L 2231 0 
z
" transform="scale(0.015625)"/>
       </defs>
       <use xlink:href="#MalgunGothic-46"/>
       <use xlink:href="#MalgunGothic-31" transform="translate(49.853516 0)"/>
      </g>
     </g>
    </g>
    <g id="ytick_5">
     <g id="line2d_13">
      <path d="M 107.905469 319.071273 
L 610.105469 319.071273 
" clip-path="url(#p599ff118cc)" style="fill: none; stroke: #e6e8f0; stroke-width: 0.8; stroke-linecap: round"/>
     </g>
     <g id="text_14">
      <!-- Precision -->
      <g style="fill: #262626" transform="translate(54.175156 323.246976) scale(0.11 -0.11)">
       <defs>
        <path id="MalgunGothic-50" d="M 1113 1747 
L 1113 0 
L 609 0 
L 609 4600 
L 1850 4600 
Q 2575 4600 2979 4240 
Q 3384 3881 3384 3231 
Q 3384 2559 2909 2140 
Q 2434 1722 1728 1747 
L 1113 1747 
z
M 1113 4131 
L 1113 2219 
L 1691 2219 
Q 2256 2219 2554 2475 
Q 2853 2731 2853 3206 
Q 2853 4131 1759 4131 
L 1113 4131 
z
" transform="scale(0.015625)"/>
       </defs>
       <use xlink:href="#MalgunGothic-50"/>
       <use xlink:href="#MalgunGothic-72" transform="translate(57.080078 0)"/>
       <use xlink:href="#MalgunGothic-65" transform="translate(91.056641 0)"/>
       <use xlink:href="#MalgunGothic-63" transform="translate(144.572266 0)"/>
       <use xlink:href="#MalgunGothic-69" transform="translate(191.837891 0)"/>
       <use xlink:href="#MalgunGothic-73" transform="translate(216.447266 0)"/>
       <use xlink:href="#MalgunGothic-69" transform="translate(259.757812 0)"/>
       <use xlink:href="#MalgunGothic-6f" transform="translate(284.367188 0)"/>
       <use xlink:href="#MalgunGothic-6e" transform="translate(344.279297 0)"/>
      </g>
     </g>
    </g>
    <g id="ytick_6">
     <g id="line2d_14">
      <path d="M 107.905469 376.697455 
L 610.105469 376.697455 
" clip-path="url(#p599ff118cc)" style="fill: none; stroke: #e6e8f0; stroke-width: 0.8; stroke-linecap: round"/>
     </g>
     <g id="text_15">
      <!-- Recall -->
      <g style="fill: #262626" transform="translate(69.807187 380.873158) scale(0.11 -0.11)">
       <use xlink:href="#MalgunGothic-52"/>
       <use xlink:href="#MalgunGothic-65" transform="translate(57.986328 0)"/>
       <use xlink:href="#MalgunGothic-63" transform="translate(111.501953 0)"/>
       <use xlink:href="#MalgunGothic-61" transform="translate(158.767578 0)"/>
       <use xlink:href="#MalgunGothic-6c" transform="translate(210.769531 0)"/>
       <use xlink:href="#MalgunGothic-6c" transform="translate(235.378906 0)"/>
      </g>
     </g>
    </g>
   </g>
   <g id="LineCollection_1">
    <path d="M 371.491165 88.566545 
L 493.537978 88.566545 
" clip-path="url(#p599ff118cc)" style="fill: none; stroke: #b8a037; stroke-width: 1.5"/>
    <path d="M 380.210987 146.192727 
L 534.588219 146.192727 
" clip-path="url(#p599ff118cc)" style="fill: none; stroke: #b8a037; stroke-width: 1.5"/>
    <path d="M 257.591955 203.818909 
L 527.950936 203.818909 
" clip-path="url(#p599ff118cc)" style="fill: none; stroke: #b8a037; stroke-width: 1.5"/>
    <path d="M 189.182475 261.445091 
L 450.041786 261.445091 
" clip-path="url(#p599ff118cc)" style="fill: none; stroke: #b8a037; stroke-width: 1.5"/>
    <path d="M 257.873065 319.071273 
L 568.407481 319.071273 
" clip-path="url(#p599ff118cc)" style="fill: none; stroke: #b8a037; stroke-width: 1.5"/>
    <path d="M 145.016225 376.697455 
L 387.549985 376.697455 
" clip-path="url(#p599ff118cc)" style="fill: none; stroke: #b8a037; stroke-width: 1.5"/>
   </g>
   <g id="line2d_15">
    <defs>
     <path id="mead10df82e" d="M 0 4 
L 0 -4 
" style="stroke: #b8a037"/>
    </defs>
    <g clip-path="url(#p599ff118cc)">
     <use xlink:href="#mead10df82e" x="371.491165" y="88.566545" style="fill: #b8a037; stroke: #b8a037"/>
     <use xlink:href="#mead10df82e" x="380.210987" y="146.192727" style="fill: #b8a037; stroke: #b8a037"/>
     <use xlink:href="#mead10df82e" x="257.591955" y="203.818909" style="fill: #b8a037; stroke: #b8a037"/>
     <use xlink:href="#mead10df82e" x="189.182475" y="261.445091" style="fill: #b8a037; stroke: #b8a037"/>
     <use xlink:href="#mead10df82e" x="257.873065" y="319.071273" style="fill: #b8a037; stroke: #b8a037"/>
     <use xlink:href="#mead10df82e" x="145.016225" y="376.697455" style="fill: #b8a037; stroke: #b8a037"/>
    </g>
   </g>
   <g id="line2d_16">
    <g clip-path="url(#p599ff118cc)">
     <use xlink:href="#mead10df82e" x="493.537978" y="88.566545" style="fill: #b8a037; stroke: #b8a037"/>
     <use xlink:href="#mead10df82e" x="534.588219" y="146.192727" style="fill: #b8a037; stroke: #b8a037"/>
     <use xlink:href="#mead10df82e" x="527.950936" y="203.818909" style="fill: #b8a037; stroke: #b8a037"/>
     <use xlink:href="#mead10df82e" x="450.041786" y="261.445091" style="fill: #b8a037; stroke: #b8a037"/>
     <use xlink:href="#mead10df82e" x="568.407481" y="319.071273" style="fill: #b8a037; stroke: #b8a037"/>
     <use xlink:href="#mead10df82e" x="387.549985" y="376.697455" style="fill: #b8a037; stroke: #b8a037"/>
    </g>
   </g>
   <g id="line2d_17">
    <defs>
     <path id="m4a8faa7adc" d="M 0 3 
C 0.795609 3 1.55874 2.683901 2.12132 2.12132 
C 2.683901 1.55874 3 0.795609 3 0 
C 3 -0.795609 2.683901 -1.55874 2.12132 -2.12132 
C 1.55874 -2.683901 0.795609 -3 0 -3 
C -0.795609 -3 -1.55874 -2.683901 -2.12132 -2.12132 
C -2.683901 -1.55874 -3 -0.795609 -3 0 
C -3 0.795609 -2.683901 1.55874 -2.12132 2.12132 
C -1.55874 2.683901 -0.795609 3 0 3 
z
" style="stroke: #736422"/>
    </defs>
    <g clip-path="url(#p599ff118cc)">
     <use xlink:href="#m4a8faa7adc" x="442.175875" y="88.566545" style="fill: #ffe15b; stroke: #736422"/>
     <use xlink:href="#m4a8faa7adc" x="471.963676" y="146.192727" style="fill: #ffe15b; stroke: #736422"/>
     <use xlink:href="#m4a8faa7adc" x="421.736228" y="203.818909" style="fill: #ffe15b; stroke: #736422"/>
     <use xlink:href="#m4a8faa7adc" x="352.48837" y="261.445091" style="fill: #ffe15b; stroke: #736422"/>
     <use xlink:href="#m4a8faa7adc" x="446.281003" y="319.071273" style="fill: #ffe15b; stroke: #736422"/>
     <use xlink:href="#m4a8faa7adc" x="291.72962" y="376.697455" style="fill: #ffe15b; stroke: #736422"/>
    </g>
   </g>
   <g id="patch_3">
    <path d="M 107.905469 391.104 
L 107.905469 74.16 
" style="fill: none; stroke: #d7dbe7; stroke-width: 1.25; stroke-linejoin: miter; stroke-linecap: square"/>
   </g>
   <g id="patch_4">
    <path d="M 107.905469 391.104 
L 610.105469 391.104 
" style="fill: none; stroke: #d7dbe7; stroke-width: 1.25; stroke-linejoin: miter; stroke-linecap: square"/>
   </g>
   <g id="text_16">
    <!-- 0.649 -->
    <g style="fill: #1f2430" transform="translate(501.573178 90.919202) scale(0.09 -0.09)">
     <use xlink:href="#MalgunGothic-30"/>
     <use xlink:href="#MalgunGothic-2e" transform="translate(55.078125 0)"/>
     <use xlink:href="#MalgunGothic-36" transform="translate(76.953125 0)"/>
     <use xlink:href="#MalgunGothic-34" transform="translate(132.03125 0)"/>
     <use xlink:href="#MalgunGothic-39" transform="translate(187.109375 0)"/>
    </g>
   </g>
   <g id="text_17">
    <!-- 0.694 -->
    <g style="fill: #1f2430" transform="translate(542.623419 148.545384) scale(0.09 -0.09)">
     <use xlink:href="#MalgunGothic-30"/>
     <use xlink:href="#MalgunGothic-2e" transform="translate(55.078125 0)"/>
     <use xlink:href="#MalgunGothic-36" transform="translate(76.953125 0)"/>
     <use xlink:href="#MalgunGothic-39" transform="translate(132.03125 0)"/>
     <use xlink:href="#MalgunGothic-34" transform="translate(187.109375 0)"/>
    </g>
   </g>
   <g id="text_18">
    <!-- 0.619 -->
    <g style="fill: #1f2430" transform="translate(535.986136 206.171565) scale(0.09 -0.09)">
     <use xlink:href="#MalgunGothic-30"/>
     <use xlink:href="#MalgunGothic-2e" transform="translate(55.078125 0)"/>
     <use xlink:href="#MalgunGothic-36" transform="translate(76.953125 0)"/>
     <use xlink:href="#MalgunGothic-31" transform="translate(132.03125 0)"/>
     <use xlink:href="#MalgunGothic-39" transform="translate(187.109375 0)"/>
    </g>
   </g>
   <g id="text_19">
    <!-- 0.515 -->
    <g style="fill: #1f2430" transform="translate(458.076986 263.797747) scale(0.09 -0.09)">
     <use xlink:href="#MalgunGothic-30"/>
     <use xlink:href="#MalgunGothic-2e" transform="translate(55.078125 0)"/>
     <use xlink:href="#MalgunGothic-35" transform="translate(76.953125 0)"/>
     <use xlink:href="#MalgunGothic-31" transform="translate(132.03125 0)"/>
     <use xlink:href="#MalgunGothic-35" transform="translate(187.109375 0)"/>
    </g>
   </g>
   <g id="text_20">
    <!-- 0.655 -->
    <g style="fill: #1f2430" transform="translate(576.442681 321.423929) scale(0.09 -0.09)">
     <use xlink:href="#MalgunGothic-30"/>
     <use xlink:href="#MalgunGothic-2e" transform="translate(55.078125 0)"/>
     <use xlink:href="#MalgunGothic-36" transform="translate(76.953125 0)"/>
     <use xlink:href="#MalgunGothic-35" transform="translate(132.03125 0)"/>
     <use xlink:href="#MalgunGothic-35" transform="translate(187.109375 0)"/>
    </g>
   </g>
   <g id="text_21">
    <!-- 0.425 -->
    <g style="fill: #1f2430" transform="translate(395.585185 379.050111) scale(0.09 -0.09)">
     <use xlink:href="#MalgunGothic-30"/>
     <use xlink:href="#MalgunGothic-2e" transform="translate(55.078125 0)"/>
     <use xlink:href="#MalgunGothic-34" transform="translate(76.953125 0)"/>
     <use xlink:href="#MalgunGothic-32" transform="translate(132.03125 0)"/>
     <use xlink:href="#MalgunGothic-35" transform="translate(187.109375 0)"/>
    </g>
   </g>
  </g>
  <g id="text_22">
   <!-- 성능 신호는 있으나 test participant 수 때문에 불확실성이 남아 있다 -->
   <g style="fill: #1f2430" transform="translate(107.905469 20.221875) scale(0.15 -0.15)">
    <defs>
     <path id="MalgunGothicBold-c131" d="M 4788 2016 
L 4788 3738 
L 3494 3738 
L 3494 4403 
L 4788 4403 
L 4788 5466 
L 5556 5466 
L 5556 2016 
L 4788 2016 
z
M 3591 2209 
Q 2675 2647 2216 3372 
Q 2047 3038 1620 2617 
Q 1194 2197 872 2028 
L 300 2572 
Q 963 2866 1384 3408 
Q 1806 3950 1806 4525 
L 1806 5275 
L 2584 5275 
L 2584 4550 
Q 2584 3972 3021 3481 
Q 3459 2991 4091 2816 
L 3591 2209 
z
M 3659 -538 
Q 2725 -538 2201 -189 
Q 1678 159 1678 716 
Q 1678 1269 2203 1620 
Q 2728 1972 3659 1972 
Q 4594 1972 5122 1619 
Q 5650 1266 5650 716 
Q 5650 159 5123 -189 
Q 4597 -538 3659 -538 
z
M 3659 1325 
Q 3063 1325 2767 1156 
Q 2472 988 2472 716 
Q 2472 444 2770 276 
Q 3069 109 3659 109 
Q 4253 109 4554 275 
Q 4856 441 4856 716 
Q 4856 984 4557 1154 
Q 4259 1325 3659 1325 
z
" transform="scale(0.015625)"/>
     <path id="MalgunGothicBold-b2a5" d="M 1253 3384 
L 1253 5338 
L 2041 5338 
L 2041 4050 
L 5228 4050 
L 5228 3384 
L 1253 3384 
z
M 403 2209 
L 403 2869 
L 5997 2869 
L 5997 2209 
L 403 2209 
z
M 3200 -563 
Q 2213 -563 1683 -258 
Q 1153 47 1153 603 
Q 1153 1150 1684 1454 
Q 2216 1759 3200 1759 
Q 4194 1759 4720 1451 
Q 5247 1144 5247 603 
Q 5247 47 4717 -258 
Q 4188 -563 3200 -563 
z
M 3200 1113 
Q 1953 1113 1953 603 
Q 1953 363 2268 220 
Q 2584 78 3200 78 
Q 3816 78 4131 220 
Q 4447 363 4447 603 
Q 4447 1113 3200 1113 
z
" transform="scale(0.015625)"/>
     <path id="MalgunGothicBold-20" transform="scale(0.015625)"/>
     <path id="MalgunGothicBold-c2e0" d="M 4703 1153 
L 4703 5466 
L 5472 5466 
L 5472 1153 
L 4703 1153 
z
M 3688 1953 
Q 2819 2366 2309 3163 
Q 2163 2847 1730 2398 
Q 1297 1950 966 1772 
L 397 2338 
Q 1056 2625 1478 3189 
Q 1900 3753 1900 4334 
L 1900 5209 
L 2688 5209 
L 2688 4359 
Q 2688 3778 3123 3267 
Q 3559 2756 4184 2578 
L 3688 1953 
z
M 1581 -353 
L 1581 1703 
L 2369 1703 
L 2369 306 
L 5588 306 
L 5588 -353 
L 1581 -353 
z
" transform="scale(0.015625)"/>
     <path id="MalgunGothicBold-d638" d="M 863 4116 
L 863 4750 
L 2809 4750 
L 2809 5459 
L 3584 5459 
L 3584 4750 
L 5538 4750 
L 5538 4116 
L 863 4116 
z
M 403 184 
L 403 831 
L 2809 831 
L 2809 1484 
Q 2031 1556 1611 1875 
Q 1191 2194 1191 2669 
Q 1191 3200 1723 3533 
Q 2256 3866 3200 3866 
Q 4144 3866 4673 3533 
Q 5203 3200 5203 2669 
Q 5203 2200 4781 1876 
Q 4359 1553 3584 1484 
L 3584 831 
L 5997 831 
L 5997 184 
L 403 184 
z
M 3200 3238 
Q 1991 3238 1991 2669 
Q 1991 2088 3200 2088 
Q 3800 2088 4098 2242 
Q 4397 2397 4397 2669 
Q 4397 2938 4092 3088 
Q 3788 3238 3200 3238 
z
" transform="scale(0.015625)"/>
     <path id="MalgunGothicBold-b294" d="M 1253 3200 
L 1253 5166 
L 2041 5166 
L 2041 3866 
L 5228 3866 
L 5228 3200 
L 1253 3200 
z
M 403 1906 
L 403 2566 
L 5997 2566 
L 5997 1906 
L 403 1906 
z
M 1222 -306 
L 1222 1478 
L 2009 1478 
L 2009 353 
L 5253 353 
L 5253 -306 
L 1222 -306 
z
" transform="scale(0.015625)"/>
     <path id="MalgunGothicBold-c788" d="M 4684 2053 
L 4684 5466 
L 5472 5466 
L 5472 2053 
L 4684 2053 
z
M 2253 2188 
Q 1550 2188 1089 2614 
Q 628 3041 628 3731 
Q 628 4431 1086 4856 
Q 1544 5281 2253 5281 
Q 2966 5281 3425 4854 
Q 3884 4428 3884 3731 
Q 3884 3053 3418 2620 
Q 2953 2188 2253 2188 
z
M 2253 4622 
Q 1881 4622 1645 4380 
Q 1409 4138 1409 3731 
Q 1409 3338 1648 3089 
Q 1888 2841 2253 2841 
Q 2625 2841 2864 3089 
Q 3103 3338 3103 3731 
Q 3103 4131 2865 4376 
Q 2628 4622 2253 4622 
z
M 5416 -531 
Q 4750 -188 4372 378 
Q 4263 159 3939 -136 
Q 3616 -431 3328 -588 
L 2766 -78 
Q 3338 159 3659 590 
Q 3981 1022 3981 1556 
L 3981 1813 
L 4756 1813 
L 4756 1556 
Q 4756 1050 5086 634 
Q 5416 219 5984 19 
L 5416 -531 
z
M 2656 50 
Q 2394 225 2194 506 
Q 2069 259 1744 -69 
Q 1419 -397 1119 -556 
L 556 -63 
Q 1125 194 1445 622 
Q 1766 1050 1766 1556 
L 1766 1806 
L 2534 1806 
L 2534 1556 
Q 2534 1263 2759 963 
Q 2984 663 3303 538 
L 2656 50 
z
" transform="scale(0.015625)"/>
     <path id="MalgunGothicBold-c73c" d="M 3200 1953 
Q 2303 1953 1711 2368 
Q 1119 2784 1119 3506 
Q 1119 4225 1708 4640 
Q 2297 5056 3200 5056 
Q 4094 5056 4684 4640 
Q 5275 4225 5275 3506 
Q 5275 2784 4686 2368 
Q 4097 1953 3200 1953 
z
M 3200 4409 
Q 2609 4409 2264 4165 
Q 1919 3922 1919 3506 
Q 1919 3084 2264 2842 
Q 2609 2600 3200 2600 
Q 3788 2600 4131 2844 
Q 4475 3088 4475 3506 
Q 4475 3922 4133 4165 
Q 3791 4409 3200 4409 
z
M 403 313 
L 403 959 
L 5997 959 
L 5997 313 
L 403 313 
z
" transform="scale(0.015625)"/>
     <path id="MalgunGothicBold-b098" d="M 5166 2503 
L 5166 -563 
L 4384 -563 
L 4384 5466 
L 5166 5466 
L 5166 3163 
L 6138 3163 
L 6138 2503 
L 5166 2503 
z
M 4128 1325 
Q 3522 1178 1784 1178 
L 750 1178 
L 750 4991 
L 1528 4991 
L 1528 1844 
L 2503 1838 
Q 3409 1831 4031 1978 
L 4128 1325 
z
" transform="scale(0.015625)"/>
     <path id="MalgunGothicBold-74" d="M 2303 34 
Q 2081 -78 1684 -78 
Q 675 -78 675 991 
L 675 2622 
L 131 2622 
L 131 3284 
L 675 3284 
L 675 4019 
L 1544 4272 
L 1544 3284 
L 2303 3284 
L 2303 2622 
L 1544 2622 
L 1544 1144 
Q 1544 600 1972 600 
Q 2150 600 2303 700 
L 2303 34 
z
" transform="scale(0.015625)"/>
     <path id="MalgunGothicBold-65" d="M 3316 1397 
L 1122 1397 
Q 1175 559 2072 559 
Q 2619 559 3047 847 
L 3047 184 
Q 2591 -81 1875 -81 
Q 1109 -81 682 362 
Q 256 806 256 1603 
Q 256 2384 714 2873 
Q 1172 3363 1859 3363 
Q 2547 3363 2931 2941 
Q 3316 2519 3316 1781 
L 3316 1397 
z
M 2494 1969 
Q 2494 2750 1850 2750 
Q 1581 2750 1376 2537 
Q 1172 2325 1122 1969 
L 2494 1969 
z
" transform="scale(0.015625)"/>
     <path id="MalgunGothicBold-73" d="M 347 844 
Q 834 538 1309 538 
Q 1922 538 1922 884 
Q 1922 1125 1438 1291 
Q 731 1528 540 1758 
Q 350 1988 350 2347 
Q 350 2822 737 3092 
Q 1125 3363 1734 3363 
Q 2159 3363 2584 3228 
L 2584 2519 
Q 2200 2747 1744 2747 
Q 1503 2747 1356 2656 
Q 1209 2566 1209 2416 
Q 1209 2169 1619 2025 
Q 2084 1856 2303 1742 
Q 2522 1628 2644 1431 
Q 2766 1234 2766 969 
Q 2766 469 2367 194 
Q 1969 -81 1316 -81 
Q 766 -81 347 94 
L 347 844 
z
" transform="scale(0.015625)"/>
     <path id="MalgunGothicBold-70" d="M 1328 409 
L 1328 -1513 
L 456 -1513 
L 456 3284 
L 1328 3284 
L 1328 2766 
L 1338 2766 
Q 1719 3363 2419 3363 
Q 3041 3363 3398 2928 
Q 3756 2494 3756 1734 
Q 3756 916 3348 417 
Q 2941 -81 2269 -81 
Q 1663 -81 1338 409 
L 1328 409 
z
M 1316 1428 
Q 1316 1072 1522 836 
Q 1728 600 2050 600 
Q 2431 600 2647 897 
Q 2863 1194 2863 1731 
Q 2863 2684 2109 2684 
Q 1753 2684 1534 2418 
Q 1316 2153 1316 1750 
L 1316 1428 
z
" transform="scale(0.015625)"/>
     <path id="MalgunGothicBold-61" d="M 534 3075 
Q 756 3203 1109 3283 
Q 1463 3363 1744 3363 
Q 3075 3363 3075 2013 
L 3075 0 
L 2244 0 
L 2244 484 
L 2228 484 
Q 1897 -81 1244 -81 
Q 769 -81 491 186 
Q 213 453 213 903 
Q 213 1844 1331 1994 
L 2247 2119 
Q 2247 2747 1634 2747 
Q 1050 2747 534 2381 
L 534 3075 
z
M 1594 1500 
Q 1031 1428 1031 997 
Q 1031 803 1165 681 
Q 1300 559 1528 559 
Q 1841 559 2044 779 
Q 2247 1000 2247 1334 
L 2247 1584 
L 1594 1500 
z
" transform="scale(0.015625)"/>
     <path id="MalgunGothicBold-72" d="M 2472 2481 
Q 2300 2584 2050 2584 
Q 1722 2584 1525 2317 
Q 1328 2050 1328 1600 
L 1328 0 
L 456 0 
L 456 3284 
L 1328 3284 
L 1328 2653 
L 1338 2653 
Q 1578 3341 2203 3341 
Q 2381 3341 2472 3297 
L 2472 2481 
z
" transform="scale(0.015625)"/>
     <path id="MalgunGothicBold-69" d="M 375 4366 
Q 375 4566 517 4700 
Q 659 4834 884 4834 
Q 1103 4834 1250 4701 
Q 1397 4569 1397 4366 
Q 1397 4163 1251 4028 
Q 1106 3894 884 3894 
Q 663 3894 519 4031 
Q 375 4169 375 4366 
z
M 444 0 
L 444 3284 
L 1313 3284 
L 1313 0 
L 444 0 
z
" transform="scale(0.015625)"/>
     <path id="MalgunGothicBold-63" d="M 2875 128 
Q 2522 -81 1909 -81 
Q 1172 -81 714 373 
Q 256 828 256 1563 
Q 256 2400 747 2881 
Q 1238 3363 2056 3363 
Q 2591 3363 2875 3206 
L 2875 2441 
Q 2544 2684 2144 2684 
Q 1688 2684 1413 2398 
Q 1138 2113 1138 1625 
Q 1138 1144 1397 872 
Q 1656 600 2109 600 
Q 2506 600 2875 850 
L 2875 128 
z
" transform="scale(0.015625)"/>
     <path id="MalgunGothicBold-6e" d="M 3497 0 
L 2628 0 
L 2628 1841 
Q 2628 2684 2019 2684 
Q 1713 2684 1520 2454 
Q 1328 2225 1328 1872 
L 1328 0 
L 456 0 
L 456 3284 
L 1328 3284 
L 1328 2756 
L 1338 2756 
Q 1700 3363 2403 3363 
Q 3497 3363 3497 2009 
L 3497 0 
z
" transform="scale(0.015625)"/>
     <path id="MalgunGothicBold-c218" d="M 5363 2906 
Q 4656 3053 4053 3393 
Q 3450 3734 3194 4103 
Q 2938 3716 2331 3372 
Q 1725 3028 1075 2906 
L 609 3500 
Q 1597 3619 2200 4072 
Q 2803 4525 2803 5063 
L 2803 5338 
L 3584 5338 
L 3584 5063 
Q 3584 4519 4181 4062 
Q 4778 3606 5766 3494 
L 5363 2906 
z
M 3584 1678 
L 3584 -563 
L 2803 -563 
L 2803 1678 
L 403 1678 
L 403 2338 
L 5997 2338 
L 5997 1678 
L 3584 1678 
z
" transform="scale(0.015625)"/>
     <path id="MalgunGothicBold-b54c" d="M 4891 -563 
L 4891 2450 
L 4469 2450 
L 4469 -384 
L 3713 -384 
L 3713 5344 
L 4469 5344 
L 4469 3109 
L 4891 3109 
L 4891 5466 
L 5650 5466 
L 5650 -563 
L 4891 -563 
z
M 3578 1234 
Q 3072 1113 2053 1113 
L 2053 4953 
L 3353 4953 
L 3353 4294 
L 2803 4294 
L 2803 1772 
Q 3178 1772 3469 1869 
L 3578 1234 
z
M 1984 1247 
Q 1416 1113 544 1113 
L 544 4953 
L 1797 4953 
L 1797 4294 
L 1300 4294 
L 1300 1772 
Q 1516 1772 1900 1888 
L 1984 1247 
z
" transform="scale(0.015625)"/>
     <path id="MalgunGothicBold-bb38" d="M 1247 3072 
L 1247 5222 
L 5153 5222 
L 5153 3072 
L 1247 3072 
z
M 4372 4569 
L 2028 4569 
L 2028 3725 
L 4372 3725 
L 4372 4569 
z
M 3653 1881 
L 3653 703 
L 2869 703 
L 2869 1881 
L 403 1881 
L 403 2541 
L 5997 2541 
L 5997 1881 
L 3653 1881 
z
M 1222 -353 
L 1222 1459 
L 2009 1459 
L 2009 306 
L 5253 306 
L 5253 -353 
L 1222 -353 
z
" transform="scale(0.015625)"/>
     <path id="MalgunGothicBold-c5d0" d="M 4922 -563 
L 4922 5466 
L 5678 5466 
L 5678 -563 
L 4922 -563 
z
M 3169 3353 
L 3775 3353 
L 3775 5344 
L 4513 5344 
L 4513 -384 
L 3775 -384 
L 3775 2688 
L 3175 2688 
Q 3122 1800 2772 1351 
Q 2422 903 1819 903 
Q 1150 903 798 1439 
Q 447 1975 447 2988 
Q 447 3997 800 4536 
Q 1153 5075 1819 5075 
Q 2409 5075 2757 4642 
Q 3106 4209 3169 3353 
z
M 1819 4409 
Q 1203 4409 1203 2988 
Q 1203 1569 1819 1569 
Q 2113 1569 2272 1934 
Q 2431 2300 2431 2988 
Q 2431 3672 2273 4040 
Q 2116 4409 1819 4409 
z
" transform="scale(0.015625)"/>
     <path id="MalgunGothicBold-bd88" d="M 1253 3359 
L 1253 5381 
L 2034 5381 
L 2034 4934 
L 4372 4934 
L 4372 5381 
L 5153 5381 
L 5153 3359 
L 1253 3359 
z
M 4372 4347 
L 2034 4347 
L 2034 3963 
L 4372 3963 
L 4372 4347 
z
M 1253 -481 
L 1253 1025 
L 4347 1025 
L 4347 1356 
L 1253 1356 
L 1253 1966 
L 2803 1966 
L 2803 2394 
L 403 2394 
L 403 3003 
L 5997 3003 
L 5997 2394 
L 3591 2394 
L 3591 1966 
L 5131 1966 
L 5131 475 
L 2041 475 
L 2041 128 
L 5281 128 
L 5281 -481 
L 1253 -481 
z
" transform="scale(0.015625)"/>
     <path id="MalgunGothicBold-d655" d="M 575 4409 
L 575 5019 
L 2028 5019 
L 2028 5556 
L 2816 5556 
L 2816 5019 
L 4244 5019 
L 4244 4409 
L 575 4409 
z
M 5325 2734 
L 5325 1388 
L 4538 1388 
L 4538 5466 
L 5325 5466 
L 5325 3391 
L 6194 3391 
L 6194 2734 
L 5325 2734 
z
M 4347 1569 
Q 2359 1447 453 1447 
L 378 2075 
Q 1059 2075 2022 2088 
L 2022 2450 
Q 1456 2513 1147 2747 
Q 838 2981 838 3341 
Q 838 3778 1264 4017 
Q 1691 4256 2419 4256 
Q 3134 4256 3564 4006 
Q 3994 3756 3994 3341 
Q 3994 2588 2809 2450 
L 2809 2106 
Q 3794 2128 4300 2163 
L 4347 1569 
z
M 2419 3688 
Q 1619 3688 1619 3341 
Q 1619 3003 2419 3003 
Q 2813 3003 3013 3097 
Q 3213 3191 3213 3341 
Q 3213 3688 2419 3688 
z
M 4544 -563 
L 4544 519 
L 1325 519 
L 1325 1166 
L 5325 1166 
L 5325 -563 
L 4544 -563 
z
" transform="scale(0.015625)"/>
     <path id="MalgunGothicBold-c2e4" d="M 4703 2438 
L 4703 5466 
L 5472 5466 
L 5472 2438 
L 4703 2438 
z
M 3628 2503 
Q 2684 3009 2278 3609 
Q 2100 3269 1703 2901 
Q 1306 2534 903 2344 
L 378 2900 
Q 1091 3206 1483 3698 
Q 1875 4191 1875 4769 
L 1875 5338 
L 2638 5338 
L 2638 4769 
Q 2638 4228 3055 3765 
Q 3472 3303 4097 3116 
L 3628 2503 
z
M 1575 -466 
L 1575 1178 
L 4703 1178 
L 4703 1544 
L 1575 1544 
L 1575 2203 
L 5472 2203 
L 5472 575 
L 2350 575 
L 2350 191 
L 5625 191 
L 5625 -466 
L 1575 -466 
z
" transform="scale(0.015625)"/>
     <path id="MalgunGothicBold-c774" d="M 4691 -563 
L 4691 5466 
L 5466 5466 
L 5466 -563 
L 4691 -563 
z
M 2203 903 
Q 1484 903 1050 1468 
Q 616 2034 616 2994 
Q 616 3969 1048 4525 
Q 1481 5081 2203 5081 
Q 2922 5081 3351 4520 
Q 3781 3959 3781 2994 
Q 3781 2025 3353 1464 
Q 2925 903 2203 903 
z
M 2203 4416 
Q 1844 4416 1612 4031 
Q 1381 3647 1381 2988 
Q 1381 2338 1618 1950 
Q 1856 1563 2203 1563 
Q 2547 1563 2784 1945 
Q 3022 2328 3022 2988 
Q 3022 3647 2792 4031 
Q 2563 4416 2203 4416 
z
" transform="scale(0.015625)"/>
     <path id="MalgunGothicBold-b0a8" d="M 5259 3341 
L 5259 2119 
L 4475 2119 
L 4475 5466 
L 5259 5466 
L 5259 4000 
L 6175 4000 
L 6175 3341 
L 5259 3341 
z
M 4219 2778 
Q 3706 2669 3159 2644 
Q 2613 2619 872 2619 
L 872 5216 
L 1650 5216 
L 1650 3278 
Q 3397 3278 4116 3425 
L 4219 2778 
z
M 1472 -434 
L 1472 1863 
L 5259 1863 
L 5259 -434 
L 1472 -434 
z
M 4481 1203 
L 2253 1203 
L 2253 219 
L 4481 219 
L 4481 1203 
z
" transform="scale(0.015625)"/>
     <path id="MalgunGothicBold-c544" d="M 5259 2491 
L 5259 -563 
L 4481 -563 
L 4481 5466 
L 5259 5466 
L 5259 3150 
L 6203 3150 
L 6203 2491 
L 5259 2491 
z
M 2163 903 
Q 1434 903 995 1465 
Q 556 2028 556 2994 
Q 556 3978 993 4529 
Q 1431 5081 2163 5081 
Q 2888 5081 3325 4523 
Q 3763 3966 3763 2994 
Q 3763 2022 3325 1462 
Q 2888 903 2163 903 
z
M 2163 4416 
Q 1803 4416 1570 4036 
Q 1338 3656 1338 2988 
Q 1338 2341 1573 1952 
Q 1809 1563 2163 1563 
Q 2509 1563 2748 1955 
Q 2988 2347 2988 2988 
Q 2988 3650 2756 4033 
Q 2525 4416 2163 4416 
z
" transform="scale(0.015625)"/>
     <path id="MalgunGothicBold-b2e4" d="M 5197 2522 
L 5197 -563 
L 4416 -563 
L 4416 5466 
L 5197 5466 
L 5197 3181 
L 6203 3181 
L 6203 2522 
L 5197 2522 
z
M 3969 1197 
Q 3269 1100 1619 1100 
L 709 1100 
L 709 4953 
L 3584 4953 
L 3584 4294 
L 1491 4294 
L 1491 1753 
L 1794 1753 
Q 3253 1753 3897 1844 
L 3969 1197 
z
" transform="scale(0.015625)"/>
    </defs>
    <use xlink:href="#MalgunGothicBold-c131"/>
    <use xlink:href="#MalgunGothicBold-b2a5" transform="translate(100 0)"/>
    <use xlink:href="#MalgunGothicBold-20" transform="translate(200 0)"/>
    <use xlink:href="#MalgunGothicBold-c2e0" transform="translate(235.15625 0)"/>
    <use xlink:href="#MalgunGothicBold-d638" transform="translate(335.15625 0)"/>
    <use xlink:href="#MalgunGothicBold-b294" transform="translate(435.15625 0)"/>
    <use xlink:href="#MalgunGothicBold-20" transform="translate(535.15625 0)"/>
    <use xlink:href="#MalgunGothicBold-c788" transform="translate(570.3125 0)"/>
    <use xlink:href="#MalgunGothicBold-c73c" transform="translate(670.3125 0)"/>
    <use xlink:href="#MalgunGothicBold-b098" transform="translate(770.3125 0)"/>
    <use xlink:href="#MalgunGothicBold-20" transform="translate(870.3125 0)"/>
    <use xlink:href="#MalgunGothicBold-74" transform="translate(905.46875 0)"/>
    <use xlink:href="#MalgunGothicBold-65" transform="translate(943.396484 0)"/>
    <use xlink:href="#MalgunGothicBold-73" transform="translate(998.376953 0)"/>
    <use xlink:href="#MalgunGothicBold-74" transform="translate(1044.568359 0)"/>
    <use xlink:href="#MalgunGothicBold-20" transform="translate(1082.996094 0)"/>
    <use xlink:href="#MalgunGothicBold-70" transform="translate(1118.152344 0)"/>
    <use xlink:href="#MalgunGothicBold-61" transform="translate(1179.673828 0)"/>
    <use xlink:href="#MalgunGothicBold-72" transform="translate(1233.970703 0)"/>
    <use xlink:href="#MalgunGothicBold-74" transform="translate(1276.451172 0)"/>
    <use xlink:href="#MalgunGothicBold-69" transform="translate(1314.878906 0)"/>
    <use xlink:href="#MalgunGothicBold-63" transform="translate(1342.320312 0)"/>
    <use xlink:href="#MalgunGothicBold-69" transform="translate(1391.050781 0)"/>
    <use xlink:href="#MalgunGothicBold-70" transform="translate(1418.492188 0)"/>
    <use xlink:href="#MalgunGothicBold-61" transform="translate(1480.013672 0)"/>
    <use xlink:href="#MalgunGothicBold-6e" transform="translate(1534.310547 0)"/>
    <use xlink:href="#MalgunGothicBold-74" transform="translate(1595.150391 0)"/>
    <use xlink:href="#MalgunGothicBold-20" transform="translate(1633.578125 0)"/>
    <use xlink:href="#MalgunGothicBold-c218" transform="translate(1668.734375 0)"/>
    <use xlink:href="#MalgunGothicBold-20" transform="translate(1768.734375 0)"/>
    <use xlink:href="#MalgunGothicBold-b54c" transform="translate(1803.890625 0)"/>
    <use xlink:href="#MalgunGothicBold-bb38" transform="translate(1903.890625 0)"/>
    <use xlink:href="#MalgunGothicBold-c5d0" transform="translate(2003.890625 0)"/>
    <use xlink:href="#MalgunGothicBold-20" transform="translate(2103.890625 0)"/>
    <use xlink:href="#MalgunGothicBold-bd88" transform="translate(2139.046875 0)"/>
    <use xlink:href="#MalgunGothicBold-d655" transform="translate(2239.046875 0)"/>
    <use xlink:href="#MalgunGothicBold-c2e4" transform="translate(2339.046875 0)"/>
    <use xlink:href="#MalgunGothicBold-c131" transform="translate(2439.046875 0)"/>
    <use xlink:href="#MalgunGothicBold-c774" transform="translate(2539.046875 0)"/>
    <use xlink:href="#MalgunGothicBold-20" transform="translate(2639.046875 0)"/>
    <use xlink:href="#MalgunGothicBold-b0a8" transform="translate(2674.203125 0)"/>
    <use xlink:href="#MalgunGothicBold-c544" transform="translate(2774.203125 0)"/>
    <use xlink:href="#MalgunGothicBold-20" transform="translate(2874.203125 0)"/>
    <use xlink:href="#MalgunGothicBold-c788" transform="translate(2909.359375 0)"/>
    <use xlink:href="#MalgunGothicBold-b2e4" transform="translate(3009.359375 0)"/>
   </g>
  </g>
  <g id="text_23">
   <!-- Bootstrap unit은 participant, test participant 14명, 5,000회 반복. Balanced accuracy 95% CI=[0.544, -->
   <g style="fill: #6f768a" transform="translate(107.905469 42.524625) scale(0.1 -0.1)">
    <defs>
     <path id="MalgunGothic-c740" d="M 3200 2950 
Q 2309 2950 1817 3287 
Q 1325 3625 1325 4159 
Q 1325 4694 1815 5028 
Q 2306 5363 3200 5363 
Q 4094 5363 4587 5028 
Q 5081 4694 5081 4159 
Q 5081 3625 4584 3287 
Q 4088 2950 3200 2950 
z
M 3200 4966 
Q 2541 4966 2177 4747 
Q 1813 4528 1813 4159 
Q 1813 3791 2177 3572 
Q 2541 3353 3200 3353 
Q 3859 3353 4223 3572 
Q 4588 3791 4588 4159 
Q 4588 4528 4223 4747 
Q 3859 4966 3200 4966 
z
M 403 1919 
L 403 2344 
L 5997 2344 
L 5997 1919 
L 403 1919 
z
M 1338 -359 
L 1338 1331 
L 1813 1331 
L 1813 56 
L 5203 56 
L 5203 -359 
L 1338 -359 
z
" transform="scale(0.015625)"/>
     <path id="MalgunGothic-2c" d="M 988 725 
L 472 -850 
L 125 -850 
L 503 725 
L 988 725 
z
" transform="scale(0.015625)"/>
     <path id="MalgunGothic-ba85" d="M 984 2322 
L 984 5191 
L 3756 5191 
L 3756 4588 
L 4953 4588 
L 4953 5466 
L 5422 5466 
L 5422 1784 
L 4953 1784 
L 4953 2913 
L 3756 2913 
L 3756 2322 
L 984 2322 
z
M 3297 4775 
L 1453 4775 
L 1453 2741 
L 3297 2741 
L 3297 4775 
z
M 3756 3316 
L 4953 3316 
L 4953 4184 
L 3756 4184 
L 3756 3316 
z
M 3500 -506 
Q 2556 -506 2042 -179 
Q 1528 147 1528 666 
Q 1528 1184 2042 1511 
Q 2556 1838 3500 1838 
Q 4444 1838 4958 1511 
Q 5472 1184 5472 666 
Q 5472 147 4958 -179 
Q 4444 -506 3500 -506 
z
M 3500 1441 
Q 2781 1441 2404 1222 
Q 2028 1003 2028 666 
Q 2028 328 2408 112 
Q 2788 -103 3500 -103 
Q 4209 -103 4590 111 
Q 4972 325 4972 666 
Q 4972 1006 4595 1223 
Q 4219 1441 3500 1441 
z
" transform="scale(0.015625)"/>
     <path id="MalgunGothic-d68c" d="M 4997 -563 
L 4997 5466 
L 5466 5466 
L 5466 -563 
L 4997 -563 
z
M 2247 5453 
L 2713 5453 
L 2713 4666 
L 4275 4666 
L 4275 4250 
L 672 4250 
L 672 4666 
L 2247 4666 
L 2247 5453 
z
M 2706 1728 
L 2706 863 
L 3838 900 
Q 4341 916 4531 934 
L 4556 531 
Q 4063 491 2667 459 
Q 1272 428 513 428 
L 469 838 
Q 1413 838 2247 856 
L 2247 1728 
Q 1628 1784 1293 2082 
Q 959 2381 959 2816 
Q 959 3313 1368 3620 
Q 1778 3928 2484 3928 
Q 3184 3928 3589 3622 
Q 3994 3316 3994 2853 
Q 3994 2400 3656 2092 
Q 3319 1784 2706 1728 
z
M 2484 3534 
Q 2003 3534 1718 3332 
Q 1434 3131 1434 2816 
Q 1434 2506 1711 2312 
Q 1988 2119 2484 2119 
Q 2978 2119 3251 2314 
Q 3525 2509 3525 2816 
Q 3525 3128 3245 3331 
Q 2966 3534 2484 3534 
z
" transform="scale(0.015625)"/>
     <path id="MalgunGothic-bc18" d="M 5125 3169 
L 5125 1063 
L 4659 1063 
L 4659 5466 
L 5125 5466 
L 5125 3591 
L 6034 3591 
L 6034 3169 
L 5125 3169 
z
M 756 2119 
L 756 5178 
L 1216 5178 
L 1216 4019 
L 3059 4019 
L 3059 5178 
L 3519 5178 
L 3519 2119 
L 756 2119 
z
M 3059 3603 
L 1216 3603 
L 1216 2534 
L 3059 2534 
L 3059 3603 
z
M 1453 -372 
L 1453 1478 
L 1919 1478 
L 1919 44 
L 5294 44 
L 5294 -372 
L 1453 -372 
z
" transform="scale(0.015625)"/>
     <path id="MalgunGothic-bcf5" d="M 403 1984 
L 403 2400 
L 2963 2400 
L 2963 3097 
L 1356 3097 
L 1356 5350 
L 1819 5350 
L 1819 4647 
L 4581 4647 
L 4581 5350 
L 5044 5350 
L 5044 3097 
L 3438 3097 
L 3438 2400 
L 5997 2400 
L 5997 1984 
L 403 1984 
z
M 4581 4231 
L 1819 4231 
L 1819 3506 
L 4581 3506 
L 4581 4231 
z
M 4609 -563 
L 4609 966 
L 1197 966 
L 1197 1381 
L 5075 1381 
L 5075 -563 
L 4609 -563 
z
" transform="scale(0.015625)"/>
     <path id="MalgunGothic-3d" d="M 3750 2397 
L 744 2397 
L 744 2803 
L 3750 2803 
L 3750 2397 
z
M 3750 1031 
L 744 1031 
L 744 1441 
L 3750 1441 
L 3750 1031 
z
" transform="scale(0.015625)"/>
     <path id="MalgunGothic-5b" d="M 1797 -1044 
L 638 -1044 
L 638 4600 
L 1797 4600 
L 1797 4234 
L 1084 4234 
L 1084 -684 
L 1797 -684 
L 1797 -1044 
z
" transform="scale(0.015625)"/>
    </defs>
    <use xlink:href="#MalgunGothic-42"/>
    <use xlink:href="#MalgunGothic-6f" transform="translate(58.349609 0)"/>
    <use xlink:href="#MalgunGothic-6f" transform="translate(118.261719 0)"/>
    <use xlink:href="#MalgunGothic-74" transform="translate(178.173828 0)"/>
    <use xlink:href="#MalgunGothic-73" transform="translate(212.646484 0)"/>
    <use xlink:href="#MalgunGothic-74" transform="translate(255.957031 0)"/>
    <use xlink:href="#MalgunGothic-72" transform="translate(290.429688 0)"/>
    <use xlink:href="#MalgunGothic-61" transform="translate(325.78125 0)"/>
    <use xlink:href="#MalgunGothic-70" transform="translate(377.783203 0)"/>
    <use xlink:href="#MalgunGothic-20" transform="translate(437.841797 0)"/>
    <use xlink:href="#MalgunGothic-75" transform="translate(472.998047 0)"/>
    <use xlink:href="#MalgunGothic-6e" transform="translate(530.810547 0)"/>
    <use xlink:href="#MalgunGothic-69" transform="translate(588.623047 0)"/>
    <use xlink:href="#MalgunGothic-74" transform="translate(613.232422 0)"/>
    <use xlink:href="#MalgunGothic-c740" transform="translate(647.705078 0)"/>
    <use xlink:href="#MalgunGothic-20" transform="translate(747.705078 0)"/>
    <use xlink:href="#MalgunGothic-70" transform="translate(782.861328 0)"/>
    <use xlink:href="#MalgunGothic-61" transform="translate(841.544922 0)"/>
    <use xlink:href="#MalgunGothic-72" transform="translate(893.546875 0)"/>
    <use xlink:href="#MalgunGothic-74" transform="translate(932.023438 0)"/>
    <use xlink:href="#MalgunGothic-69" transform="translate(966.496094 0)"/>
    <use xlink:href="#MalgunGothic-63" transform="translate(991.105469 0)"/>
    <use xlink:href="#MalgunGothic-69" transform="translate(1038.371094 0)"/>
    <use xlink:href="#MalgunGothic-70" transform="translate(1062.980469 0)"/>
    <use xlink:href="#MalgunGothic-61" transform="translate(1121.664062 0)"/>
    <use xlink:href="#MalgunGothic-6e" transform="translate(1173.666016 0)"/>
    <use xlink:href="#MalgunGothic-74" transform="translate(1231.478516 0)"/>
    <use xlink:href="#MalgunGothic-2c" transform="translate(1265.951172 0)"/>
    <use xlink:href="#MalgunGothic-20" transform="translate(1287.826172 0)"/>
    <use xlink:href="#MalgunGothic-74" transform="translate(1322.982422 0)"/>
    <use xlink:href="#MalgunGothic-65" transform="translate(1356.580078 0)"/>
    <use xlink:href="#MalgunGothic-73" transform="translate(1410.095703 0)"/>
    <use xlink:href="#MalgunGothic-74" transform="translate(1453.40625 0)"/>
    <use xlink:href="#MalgunGothic-20" transform="translate(1487.878906 0)"/>
    <use xlink:href="#MalgunGothic-70" transform="translate(1523.035156 0)"/>
    <use xlink:href="#MalgunGothic-61" transform="translate(1581.71875 0)"/>
    <use xlink:href="#MalgunGothic-72" transform="translate(1633.720703 0)"/>
    <use xlink:href="#MalgunGothic-74" transform="translate(1672.197266 0)"/>
    <use xlink:href="#MalgunGothic-69" transform="translate(1706.669922 0)"/>
    <use xlink:href="#MalgunGothic-63" transform="translate(1731.279297 0)"/>
    <use xlink:href="#MalgunGothic-69" transform="translate(1778.544922 0)"/>
    <use xlink:href="#MalgunGothic-70" transform="translate(1803.154297 0)"/>
    <use xlink:href="#MalgunGothic-61" transform="translate(1861.837891 0)"/>
    <use xlink:href="#MalgunGothic-6e" transform="translate(1913.839844 0)"/>
    <use xlink:href="#MalgunGothic-74" transform="translate(1971.652344 0)"/>
    <use xlink:href="#MalgunGothic-20" transform="translate(2006.125 0)"/>
    <use xlink:href="#MalgunGothic-31" transform="translate(2041.28125 0)"/>
    <use xlink:href="#MalgunGothic-34" transform="translate(2096.359375 0)"/>
    <use xlink:href="#MalgunGothic-ba85" transform="translate(2151.4375 0)"/>
    <use xlink:href="#MalgunGothic-2c" transform="translate(2251.4375 0)"/>
    <use xlink:href="#MalgunGothic-20" transform="translate(2273.3125 0)"/>
    <use xlink:href="#MalgunGothic-35" transform="translate(2308.46875 0)"/>
    <use xlink:href="#MalgunGothic-2c" transform="translate(2363.546875 0)"/>
    <use xlink:href="#MalgunGothic-30" transform="translate(2385.421875 0)"/>
    <use xlink:href="#MalgunGothic-30" transform="translate(2440.5 0)"/>
    <use xlink:href="#MalgunGothic-30" transform="translate(2495.578125 0)"/>
    <use xlink:href="#MalgunGothic-d68c" transform="translate(2550.65625 0)"/>
    <use xlink:href="#MalgunGothic-20" transform="translate(2650.65625 0)"/>
    <use xlink:href="#MalgunGothic-bc18" transform="translate(2685.8125 0)"/>
    <use xlink:href="#MalgunGothic-bcf5" transform="translate(2785.8125 0)"/>
    <use xlink:href="#MalgunGothic-2e" transform="translate(2885.8125 0)"/>
    <use xlink:href="#MalgunGothic-20" transform="translate(2907.6875 0)"/>
    <use xlink:href="#MalgunGothic-42" transform="translate(2942.84375 0)"/>
    <use xlink:href="#MalgunGothic-61" transform="translate(3001.193359 0)"/>
    <use xlink:href="#MalgunGothic-6c" transform="translate(3053.195312 0)"/>
    <use xlink:href="#MalgunGothic-61" transform="translate(3077.804688 0)"/>
    <use xlink:href="#MalgunGothic-6e" transform="translate(3129.806641 0)"/>
    <use xlink:href="#MalgunGothic-63" transform="translate(3187.619141 0)"/>
    <use xlink:href="#MalgunGothic-65" transform="translate(3234.884766 0)"/>
    <use xlink:href="#MalgunGothic-64" transform="translate(3288.400391 0)"/>
    <use xlink:href="#MalgunGothic-20" transform="translate(3348.605469 0)"/>
    <use xlink:href="#MalgunGothic-61" transform="translate(3383.761719 0)"/>
    <use xlink:href="#MalgunGothic-63" transform="translate(3435.763672 0)"/>
    <use xlink:href="#MalgunGothic-63" transform="translate(3483.029297 0)"/>
    <use xlink:href="#MalgunGothic-75" transform="translate(3530.294922 0)"/>
    <use xlink:href="#MalgunGothic-72" transform="translate(3588.107422 0)"/>
    <use xlink:href="#MalgunGothic-61" transform="translate(3623.458984 0)"/>
    <use xlink:href="#MalgunGothic-63" transform="translate(3675.460938 0)"/>
    <use xlink:href="#MalgunGothic-79" transform="translate(3722.726562 0)"/>
    <use xlink:href="#MalgunGothic-20" transform="translate(3771.994141 0)"/>
    <use xlink:href="#MalgunGothic-39" transform="translate(3807.150391 0)"/>
    <use xlink:href="#MalgunGothic-35" transform="translate(3862.228516 0)"/>
    <use xlink:href="#MalgunGothic-25" transform="translate(3917.306641 0)"/>
    <use xlink:href="#MalgunGothic-20" transform="translate(4000.949219 0)"/>
    <use xlink:href="#MalgunGothic-43" transform="translate(4036.105469 0)"/>
    <use xlink:href="#MalgunGothic-49" transform="translate(4099.582031 0)"/>
    <use xlink:href="#MalgunGothic-3d" transform="translate(4126.583984 0)"/>
    <use xlink:href="#MalgunGothic-5b" transform="translate(4196.652344 0)"/>
    <use xlink:href="#MalgunGothic-30" transform="translate(4227.121094 0)"/>
    <use xlink:href="#MalgunGothic-2e" transform="translate(4282.199219 0)"/>
    <use xlink:href="#MalgunGothic-35" transform="translate(4304.074219 0)"/>
    <use xlink:href="#MalgunGothic-34" transform="translate(4359.152344 0)"/>
    <use xlink:href="#MalgunGothic-34" transform="translate(4414.230469 0)"/>
    <use xlink:href="#MalgunGothic-2c" transform="translate(4469.308594 0)"/>
   </g>
   <!-- 0.726]. -->
   <g style="fill: #6f768a" transform="translate(107.905469 54.052437) scale(0.1 -0.1)">
    <defs>
     <path id="MalgunGothic-5d" d="M 1322 -1044 
L 166 -1044 
L 166 -684 
L 878 -684 
L 878 4234 
L 166 4234 
L 166 4600 
L 1322 4600 
L 1322 -1044 
z
" transform="scale(0.015625)"/>
    </defs>
    <use xlink:href="#MalgunGothic-30"/>
    <use xlink:href="#MalgunGothic-2e" transform="translate(55.078125 0)"/>
    <use xlink:href="#MalgunGothic-37" transform="translate(76.953125 0)"/>
    <use xlink:href="#MalgunGothic-32" transform="translate(132.03125 0)"/>
    <use xlink:href="#MalgunGothic-36" transform="translate(187.109375 0)"/>
    <use xlink:href="#MalgunGothic-5d" transform="translate(242.1875 0)"/>
    <use xlink:href="#MalgunGothic-2e" transform="translate(272.65625 0)"/>
   </g>
  </g>
 </g>
 <defs>
  <clipPath id="p599ff118cc">
   <rect x="107.905469" y="74.16" width="502.2" height="316.944"/>
  </clipPath>
 </defs>
</svg>
