<?xml version="1.0" encoding="utf-8" standalone="no"?>
<!DOCTYPE svg PUBLIC "-//W3C//DTD SVG 1.1//EN"
  "http://www.w3.org/Graphics/SVG/1.1/DTD/svg11.dtd">
<svg xmlns:xlink="http://www.w3.org/1999/xlink" width="691.442812pt" height="435.90525pt" viewBox="0 0 691.442812 435.90525" xmlns="http://www.w3.org/2000/svg" version="1.1">
 <metadata>
  <rdf:RDF xmlns:dc="http://purl.org/dc/elements/1.1/" xmlns:cc="http://creativecommons.org/ns#" xmlns:rdf="http://www.w3.org/1999/02/22-rdf-syntax-ns#">
   <cc:Work>
    <dc:type rdf:resource="http://purl.org/dc/dcmitype/StillImage"/>
    <dc:date>2026-06-30T14:57:39.986423</dc:date>
    <dc:format>image/svg+xml</dc:format>
    <dc:creator>
     <cc:Agent>
      <dc:title>Matplotlib v3.10.9, https://matplotlib.org/</dc:title>
     </cc:Agent>
    </dc:creator>
   </cc:Work>
  </rdf:RDF>
 </metadata>
 <defs>
  <style type="text/css">*{stroke-linejoin: round; stroke-linecap: butt}</style>
 </defs>
 <g id="figure_1">
  <g id="patch_1">
   <path d="M 0 435.90525 
L 691.442812 435.90525 
L 691.442812 0 
L 0 0 
z
" style="fill: #fcfcfd"/>
  </g>
  <g id="axes_1">
   <g id="patch_2">
    <path d="M 126.242812 391.104 
L 684.242813 391.104 
L 684.242813 74.16 
L 126.242812 74.16 
z
" style="fill: #ffffff"/>
   </g>
   <g id="matplotlib.axis_1">
    <g id="xtick_1">
     <g id="line2d_1">
      <path d="M 166.188281 391.104 
L 166.188281 74.16 
" clip-path="url(#pf2a84c81d3)" style="fill: none; stroke: #e6e8f0; stroke-width: 0.8; stroke-linecap: round"/>
     </g>
     <g id="text_1">
      <!-- -0.100 -->
      <g style="fill: #262626" transform="translate(150.61211 408.955406) scale(0.11 -0.11)">
       <defs>
        <path id="MalgunGothic-2d" d="M 2213 1634 
L 463 1634 
L 463 2031 
L 2213 2031 
L 2213 1634 
z
" transform="scale(0.015625)"/>
        <path id="MalgunGothic-30" d="M 278 2206 
Q 278 3425 675 4050 
Q 1072 4675 1819 4675 
Q 3253 4675 3253 2319 
Q 3253 1156 2854 539 
Q 2456 -78 1716 -78 
Q 1016 -78 647 520 
Q 278 1119 278 2206 
z
M 784 2231 
Q 784 344 1769 344 
Q 2747 344 2747 2259 
Q 2747 4250 1794 4250 
Q 784 4250 784 2231 
z
" transform="scale(0.015625)"/>
        <path id="MalgunGothic-2e" d="M 356 275 
Q 356 422 459 523 
Q 563 625 700 625 
Q 838 625 941 523 
Q 1044 422 1044 275 
Q 1044 138 942 33 
Q 841 -72 700 -72 
Q 559 -72 457 29 
Q 356 131 356 275 
z
" transform="scale(0.015625)"/>
        <path id="MalgunGothic-31" d="M 2231 0 
L 1734 0 
L 1734 3972 
Q 1591 3828 1266 3661 
Q 941 3494 672 3428 
L 672 3959 
Q 1016 4056 1409 4275 
Q 1803 4494 2031 4700 
L 2231 4700 
L 2231 0 
z
" transform="scale(0.015625)"/>
       </defs>
       <use xlink:href="#MalgunGothic-2d"/>
       <use xlink:href="#MalgunGothic-30" transform="translate(41.015625 0)"/>
       <use xlink:href="#MalgunGothic-2e" transform="translate(96.09375 0)"/>
       <use xlink:href="#MalgunGothic-31" transform="translate(117.96875 0)"/>
       <use xlink:href="#MalgunGothic-30" transform="translate(173.046875 0)"/>
       <use xlink:href="#MalgunGothic-30" transform="translate(228.125 0)"/>
      </g>
     </g>
    </g>
    <g id="xtick_2">
     <g id="line2d_2">
      <path d="M 242.937101 391.104 
L 242.937101 74.16 
" clip-path="url(#pf2a84c81d3)" style="fill: none; stroke: #e6e8f0; stroke-width: 0.8; stroke-linecap: round"/>
     </g>
     <g id="text_2">
      <!-- -0.080 -->
      <g style="fill: #262626" transform="translate(227.360929 408.955406) scale(0.11 -0.11)">
       <defs>
        <path id="MalgunGothic-38" d="M 303 1281 
Q 303 1669 539 2011 
Q 775 2353 1153 2494 
Q 856 2647 675 2915 
Q 494 3184 494 3500 
Q 494 3828 659 4098 
Q 825 4369 1122 4522 
Q 1419 4675 1778 4675 
Q 2334 4675 2700 4342 
Q 3066 4009 3066 3500 
Q 3066 3181 2881 2914 
Q 2697 2647 2413 2494 
Q 2788 2350 3022 2009 
Q 3256 1669 3256 1281 
Q 3256 672 2843 297 
Q 2431 -78 1778 -78 
Q 1131 -78 717 301 
Q 303 681 303 1281 
z
M 809 1328 
Q 809 878 1081 611 
Q 1353 344 1781 344 
Q 2206 344 2482 619 
Q 2759 894 2759 1328 
Q 2759 1731 2482 2011 
Q 2206 2291 1781 2291 
Q 1372 2291 1090 2020 
Q 809 1750 809 1328 
z
M 1003 3459 
Q 1003 3125 1234 2900 
Q 1466 2675 1781 2675 
Q 2097 2675 2330 2900 
Q 2563 3125 2563 3459 
Q 2563 3803 2341 4026 
Q 2119 4250 1781 4250 
Q 1450 4250 1226 4029 
Q 1003 3809 1003 3459 
z
" transform="scale(0.015625)"/>
       </defs>
       <use xlink:href="#MalgunGothic-2d"/>
       <use xlink:href="#MalgunGothic-30" transform="translate(41.015625 0)"/>
       <use xlink:href="#MalgunGothic-2e" transform="translate(96.09375 0)"/>
       <use xlink:href="#MalgunGothic-30" transform="translate(117.96875 0)"/>
       <use xlink:href="#MalgunGothic-38" transform="translate(173.046875 0)"/>
       <use xlink:href="#MalgunGothic-30" transform="translate(228.125 0)"/>
      </g>
     </g>
    </g>
    <g id="xtick_3">
     <g id="line2d_3">
      <path d="M 319.68592 391.104 
L 319.68592 74.16 
" clip-path="url(#pf2a84c81d3)" style="fill: none; stroke: #e6e8f0; stroke-width: 0.8; stroke-linecap: round"/>
     </g>
     <g id="text_3">
      <!-- -0.060 -->
      <g style="fill: #262626" transform="translate(304.109748 408.955406) scale(0.11 -0.11)">
       <defs>
        <path id="MalgunGothic-36" d="M 2981 4069 
Q 2619 4250 2228 4250 
Q 1591 4250 1228 3689 
Q 866 3128 869 2213 
L 884 2213 
Q 1203 2872 1938 2872 
Q 2547 2872 2903 2478 
Q 3259 2084 3259 1450 
Q 3259 797 2857 359 
Q 2456 -78 1825 -78 
Q 1116 -78 736 478 
Q 356 1034 356 2019 
Q 356 3181 847 3928 
Q 1338 4675 2222 4675 
Q 2700 4675 2981 4544 
L 2981 4069 
z
M 906 1506 
Q 906 1022 1165 683 
Q 1425 344 1844 344 
Q 2247 344 2498 645 
Q 2750 947 2750 1388 
Q 2750 1888 2509 2167 
Q 2269 2447 1838 2447 
Q 1444 2447 1175 2173 
Q 906 1900 906 1506 
z
" transform="scale(0.015625)"/>
       </defs>
       <use xlink:href="#MalgunGothic-2d"/>
       <use xlink:href="#MalgunGothic-30" transform="translate(41.015625 0)"/>
       <use xlink:href="#MalgunGothic-2e" transform="translate(96.09375 0)"/>
       <use xlink:href="#MalgunGothic-30" transform="translate(117.96875 0)"/>
       <use xlink:href="#MalgunGothic-36" transform="translate(173.046875 0)"/>
       <use xlink:href="#MalgunGothic-30" transform="translate(228.125 0)"/>
      </g>
     </g>
    </g>
    <g id="xtick_4">
     <g id="line2d_4">
      <path d="M 396.43474 391.104 
L 396.43474 74.16 
" clip-path="url(#pf2a84c81d3)" style="fill: none; stroke: #e6e8f0; stroke-width: 0.8; stroke-linecap: round"/>
     </g>
     <g id="text_4">
      <!-- -0.040 -->
      <g style="fill: #262626" transform="translate(380.858568 408.955406) scale(0.11 -0.11)">
       <defs>
        <path id="MalgunGothic-34" d="M 2703 4600 
L 2703 1563 
L 3309 1563 
L 3309 1113 
L 2703 1113 
L 2703 0 
L 2213 0 
L 2213 1113 
L 50 1113 
L 50 1534 
Q 728 2297 1295 3109 
Q 1863 3922 2172 4600 
L 2703 4600 
z
M 625 1563 
L 2213 1563 
L 2213 3831 
Q 1613 2788 959 1981 
L 625 1563 
z
" transform="scale(0.015625)"/>
       </defs>
       <use xlink:href="#MalgunGothic-2d"/>
       <use xlink:href="#MalgunGothic-30" transform="translate(41.015625 0)"/>
       <use xlink:href="#MalgunGothic-2e" transform="translate(96.09375 0)"/>
       <use xlink:href="#MalgunGothic-30" transform="translate(117.96875 0)"/>
       <use xlink:href="#MalgunGothic-34" transform="translate(173.046875 0)"/>
       <use xlink:href="#MalgunGothic-30" transform="translate(228.125 0)"/>
      </g>
     </g>
    </g>
    <g id="xtick_5">
     <g id="line2d_5">
      <path d="M 473.183559 391.104 
L 473.183559 74.16 
" clip-path="url(#pf2a84c81d3)" style="fill: none; stroke: #e6e8f0; stroke-width: 0.8; stroke-linecap: round"/>
     </g>
     <g id="text_5">
      <!-- -0.020 -->
      <g style="fill: #262626" transform="translate(457.607387 408.955406) scale(0.11 -0.11)">
       <defs>
        <path id="MalgunGothic-32" d="M 2519 3372 
Q 2519 3784 2275 4018 
Q 2031 4253 1628 4253 
Q 1341 4253 1053 4104 
Q 766 3956 534 3697 
L 534 4234 
Q 981 4675 1691 4675 
Q 2281 4675 2642 4334 
Q 3003 3994 3003 3416 
Q 3003 2919 2772 2545 
Q 2541 2172 1984 1775 
Q 1459 1406 1254 1215 
Q 1050 1025 967 854 
Q 884 684 884 450 
L 3116 450 
L 3116 0 
L 356 0 
L 356 225 
Q 356 603 461 870 
Q 566 1138 811 1392 
Q 1056 1647 1597 2022 
Q 2091 2363 2305 2670 
Q 2519 2978 2519 3372 
z
" transform="scale(0.015625)"/>
       </defs>
       <use xlink:href="#MalgunGothic-2d"/>
       <use xlink:href="#MalgunGothic-30" transform="translate(41.015625 0)"/>
       <use xlink:href="#MalgunGothic-2e" transform="translate(96.09375 0)"/>
       <use xlink:href="#MalgunGothic-30" transform="translate(117.96875 0)"/>
       <use xlink:href="#MalgunGothic-32" transform="translate(173.046875 0)"/>
       <use xlink:href="#MalgunGothic-30" transform="translate(228.125 0)"/>
      </g>
     </g>
    </g>
    <g id="xtick_6">
     <g id="line2d_6">
      <path d="M 549.932379 391.104 
L 549.932379 74.16 
" clip-path="url(#pf2a84c81d3)" style="fill: none; stroke: #e6e8f0; stroke-width: 0.8; stroke-linecap: round"/>
     </g>
     <g id="text_6">
      <!-- +0.000 -->
      <g style="fill: #262626" transform="translate(532.758629 408.955406) scale(0.11 -0.11)">
       <defs>
        <path id="MalgunGothic-2b" d="M 3750 1706 
L 2450 1706 
L 2450 413 
L 2041 413 
L 2041 1706 
L 744 1706 
L 744 2122 
L 2041 2122 
L 2041 3416 
L 2450 3416 
L 2450 2122 
L 3750 2122 
L 3750 1706 
z
" transform="scale(0.015625)"/>
       </defs>
       <use xlink:href="#MalgunGothic-2b"/>
       <use xlink:href="#MalgunGothic-30" transform="translate(70.068359 0)"/>
       <use xlink:href="#MalgunGothic-2e" transform="translate(125.146484 0)"/>
       <use xlink:href="#MalgunGothic-30" transform="translate(147.021484 0)"/>
       <use xlink:href="#MalgunGothic-30" transform="translate(202.099609 0)"/>
       <use xlink:href="#MalgunGothic-30" transform="translate(257.177734 0)"/>
      </g>
     </g>
    </g>
    <g id="xtick_7">
     <g id="line2d_7">
      <path d="M 626.681198 391.104 
L 626.681198 74.16 
" clip-path="url(#pf2a84c81d3)" style="fill: none; stroke: #e6e8f0; stroke-width: 0.8; stroke-linecap: round"/>
     </g>
     <g id="text_7">
      <!-- +0.020 -->
      <g style="fill: #262626" transform="translate(609.507448 408.955406) scale(0.11 -0.11)">
       <use xlink:href="#MalgunGothic-2b"/>
       <use xlink:href="#MalgunGothic-30" transform="translate(70.068359 0)"/>
       <use xlink:href="#MalgunGothic-2e" transform="translate(125.146484 0)"/>
       <use xlink:href="#MalgunGothic-30" transform="translate(147.021484 0)"/>
       <use xlink:href="#MalgunGothic-32" transform="translate(202.099609 0)"/>
       <use xlink:href="#MalgunGothic-30" transform="translate(257.177734 0)"/>
      </g>
     </g>
    </g>
    <g id="text_8">
     <!-- baseline 대비 probability delta -->
     <g style="fill: #1f2430" transform="translate(322.407188 425.804625) scale(0.12 -0.12)">
      <defs>
       <path id="MalgunGothic-62" d="M 1034 481 
L 1034 0 
L 538 0 
L 538 4859 
L 1034 4859 
L 1034 2703 
L 1047 2703 
Q 1438 3359 2184 3359 
Q 2813 3359 3173 2917 
Q 3534 2475 3534 1738 
Q 3534 906 3126 414 
Q 2719 -78 2034 -78 
Q 1384 -78 1047 481 
L 1034 481 
z
M 1034 1334 
Q 1034 922 1307 633 
Q 1581 344 1991 344 
Q 2475 344 2751 716 
Q 3028 1088 3028 1753 
Q 3028 2303 2767 2622 
Q 2506 2941 2072 2941 
Q 1616 2941 1325 2616 
Q 1034 2291 1034 1803 
L 1034 1334 
z
" transform="scale(0.015625)"/>
       <path id="MalgunGothic-61" d="M 616 3050 
Q 1097 3359 1722 3359 
Q 2866 3359 2866 2147 
L 2866 0 
L 2369 0 
L 2369 516 
L 2350 516 
Q 2009 -78 1341 -78 
Q 859 -78 576 180 
Q 294 438 294 869 
Q 294 1784 1375 1934 
L 2366 2078 
Q 2366 2934 1684 2934 
Q 1084 2934 616 2525 
L 616 3050 
z
M 1563 1559 
Q 1178 1509 993 1371 
Q 809 1234 809 903 
Q 809 653 986 500 
Q 1163 347 1450 347 
Q 1847 347 2106 628 
Q 2366 909 2366 1334 
L 2366 1666 
L 1563 1559 
z
" transform="scale(0.015625)"/>
       <path id="MalgunGothic-73" d="M 331 669 
Q 763 350 1278 350 
Q 1978 350 1978 822 
Q 1978 1025 1825 1158 
Q 1672 1291 1222 1459 
Q 703 1666 520 1878 
Q 338 2091 338 2416 
Q 338 2834 700 3096 
Q 1063 3359 1584 3359 
Q 2003 3359 2341 3213 
L 2341 2697 
Q 1975 2934 1506 2934 
Q 1200 2934 1025 2798 
Q 850 2663 850 2459 
Q 850 2241 979 2125 
Q 1109 2009 1544 1838 
Q 2131 1609 2309 1390 
Q 2488 1172 2488 869 
Q 2488 431 2127 176 
Q 1766 -78 1203 -78 
Q 694 -78 331 122 
L 331 669 
z
" transform="scale(0.015625)"/>
       <path id="MalgunGothic-65" d="M 3156 1519 
L 828 1519 
Q 844 950 1133 648 
Q 1422 347 1909 347 
Q 2472 347 2934 719 
L 2934 244 
Q 2494 -78 1794 -78 
Q 1100 -78 708 376 
Q 316 831 316 1634 
Q 316 2381 747 2870 
Q 1178 3359 1816 3359 
Q 2453 3359 2804 2942 
Q 3156 2525 3156 1788 
L 3156 1519 
z
M 2644 1956 
Q 2644 2416 2423 2675 
Q 2203 2934 1809 2934 
Q 1438 2934 1169 2667 
Q 900 2400 834 1956 
L 2644 1956 
z
" transform="scale(0.015625)"/>
       <path id="MalgunGothic-6c" d="M 541 0 
L 541 4859 
L 1034 4859 
L 1034 0 
L 541 0 
z
" transform="scale(0.015625)"/>
       <path id="MalgunGothic-69" d="M 472 4466 
Q 472 4606 565 4701 
Q 659 4797 794 4797 
Q 934 4797 1029 4700 
Q 1125 4603 1125 4466 
Q 1125 4325 1029 4231 
Q 934 4138 794 4138 
Q 659 4138 565 4230 
Q 472 4322 472 4466 
z
M 541 0 
L 541 3284 
L 1034 3284 
L 1034 0 
L 541 0 
z
" transform="scale(0.015625)"/>
       <path id="MalgunGothic-6e" d="M 3238 0 
L 2741 0 
L 2741 1875 
Q 2741 2941 1963 2941 
Q 1563 2941 1298 2639 
Q 1034 2338 1034 1872 
L 1034 0 
L 538 0 
L 538 3284 
L 1034 3284 
L 1034 2734 
L 1047 2734 
Q 1416 3359 2125 3359 
Q 2666 3359 2952 3012 
Q 3238 2666 3238 2006 
L 3238 0 
z
" transform="scale(0.015625)"/>
       <path id="MalgunGothic-20" transform="scale(0.015625)"/>
       <path id="MalgunGothic-b300" d="M 5069 -563 
L 5069 2572 
L 4294 2572 
L 4294 -378 
L 3834 -378 
L 3834 5344 
L 4294 5344 
L 4294 2988 
L 5069 2988 
L 5069 5466 
L 5538 5466 
L 5538 -563 
L 5069 -563 
z
M 3391 1153 
Q 2516 1063 825 1063 
L 825 4934 
L 3138 4934 
L 3138 4519 
L 1288 4519 
L 1288 1478 
L 1844 1478 
Q 2791 1478 3359 1550 
L 3391 1153 
z
" transform="scale(0.015625)"/>
       <path id="MalgunGothic-be44" d="M 4884 -563 
L 4884 5466 
L 5350 5466 
L 5350 -563 
L 4884 -563 
z
M 825 1081 
L 825 5013 
L 1294 5013 
L 1294 3469 
L 3244 3469 
L 3244 5013 
L 3713 5013 
L 3713 1081 
L 825 1081 
z
M 3244 3053 
L 1294 3053 
L 1294 1497 
L 3244 1497 
L 3244 3053 
z
" transform="scale(0.015625)"/>
       <path id="MalgunGothic-70" d="M 1034 481 
L 1034 -1513 
L 538 -1513 
L 538 3284 
L 1034 3284 
L 1034 2703 
L 1047 2703 
Q 1438 3359 2184 3359 
Q 2809 3359 3171 2920 
Q 3534 2481 3534 1738 
Q 3534 906 3126 414 
Q 2719 -78 2034 -78 
Q 1394 -78 1047 481 
L 1034 481 
z
M 1034 1331 
Q 1034 922 1307 633 
Q 1581 344 1991 344 
Q 2475 344 2751 716 
Q 3028 1088 3028 1753 
Q 3028 2300 2767 2620 
Q 2506 2941 2072 2941 
Q 1619 2941 1326 2619 
Q 1034 2297 1034 1806 
L 1034 1331 
z
" transform="scale(0.015625)"/>
       <path id="MalgunGothic-72" d="M 2225 2775 
Q 2084 2881 1828 2881 
Q 1491 2881 1262 2553 
Q 1034 2225 1034 1681 
L 1034 0 
L 538 0 
L 538 3284 
L 1034 3284 
L 1034 2603 
L 1047 2603 
Q 1159 2950 1389 3145 
Q 1619 3341 1903 3341 
Q 2109 3341 2225 3297 
L 2225 2775 
z
" transform="scale(0.015625)"/>
       <path id="MalgunGothic-6f" d="M 316 1600 
Q 316 2419 761 2889 
Q 1206 3359 1978 3359 
Q 2697 3359 3111 2907 
Q 3525 2456 3525 1650 
Q 3525 869 3078 395 
Q 2631 -78 1900 -78 
Q 1184 -78 750 384 
Q 316 847 316 1600 
z
M 819 1622 
Q 819 1041 1123 692 
Q 1428 344 1934 344 
Q 2459 344 2739 680 
Q 3019 1016 3019 1634 
Q 3019 2256 2737 2598 
Q 2456 2941 1934 2941 
Q 1425 2941 1122 2587 
Q 819 2234 819 1622 
z
" transform="scale(0.015625)"/>
       <path id="MalgunGothic-74" d="M 2031 31 
Q 1844 -72 1553 -72 
Q 706 -72 706 881 
L 706 2856 
L 138 2856 
L 138 3284 
L 706 3284 
L 706 4091 
L 1200 4250 
L 1200 3284 
L 2031 3284 
L 2031 2856 
L 1200 2856 
L 1200 972 
Q 1200 625 1315 487 
Q 1431 350 1691 350 
Q 1888 350 2031 459 
L 2031 31 
z
" transform="scale(0.015625)"/>
       <path id="MalgunGothic-79" d="M 3119 3284 
L 1597 -544 
Q 1197 -1547 481 -1547 
Q 313 -1547 156 -1509 
L 156 -1056 
Q 316 -1109 459 -1109 
Q 859 -1109 1059 -628 
L 1328 6 
L 47 3284 
L 597 3284 
L 1503 722 
Q 1513 697 1572 488 
L 1588 488 
L 1650 716 
L 2603 3284 
L 3119 3284 
z
" transform="scale(0.015625)"/>
       <path id="MalgunGothic-64" d="M 3313 0 
L 2822 0 
L 2822 566 
L 2809 566 
Q 2444 -78 1675 -78 
Q 1056 -78 686 364 
Q 316 806 316 1566 
Q 316 2375 728 2867 
Q 1141 3359 1816 3359 
Q 2494 3359 2809 2822 
L 2822 2822 
L 2822 4859 
L 3313 4859 
L 3313 0 
z
M 2822 1978 
Q 2822 2378 2550 2659 
Q 2278 2941 1872 2941 
Q 1384 2941 1101 2577 
Q 819 2213 819 1591 
Q 819 1025 1086 684 
Q 1353 344 1813 344 
Q 2250 344 2536 666 
Q 2822 988 2822 1478 
L 2822 1978 
z
" transform="scale(0.015625)"/>
      </defs>
      <use xlink:href="#MalgunGothic-62"/>
      <use xlink:href="#MalgunGothic-61" transform="translate(58.683594 0)"/>
      <use xlink:href="#MalgunGothic-73" transform="translate(110.685547 0)"/>
      <use xlink:href="#MalgunGothic-65" transform="translate(153.996094 0)"/>
      <use xlink:href="#MalgunGothic-6c" transform="translate(207.511719 0)"/>
      <use xlink:href="#MalgunGothic-69" transform="translate(232.121094 0)"/>
      <use xlink:href="#MalgunGothic-6e" transform="translate(256.730469 0)"/>
      <use xlink:href="#MalgunGothic-65" transform="translate(314.542969 0)"/>
      <use xlink:href="#MalgunGothic-20" transform="translate(368.058594 0)"/>
      <use xlink:href="#MalgunGothic-b300" transform="translate(403.214844 0)"/>
      <use xlink:href="#MalgunGothic-be44" transform="translate(503.214844 0)"/>
      <use xlink:href="#MalgunGothic-20" transform="translate(603.214844 0)"/>
      <use xlink:href="#MalgunGothic-70" transform="translate(638.371094 0)"/>
      <use xlink:href="#MalgunGothic-72" transform="translate(698.429688 0)"/>
      <use xlink:href="#MalgunGothic-6f" transform="translate(732.40625 0)"/>
      <use xlink:href="#MalgunGothic-62" transform="translate(792.318359 0)"/>
      <use xlink:href="#MalgunGothic-61" transform="translate(851.001953 0)"/>
      <use xlink:href="#MalgunGothic-62" transform="translate(903.003906 0)"/>
      <use xlink:href="#MalgunGothic-69" transform="translate(963.0625 0)"/>
      <use xlink:href="#MalgunGothic-6c" transform="translate(987.671875 0)"/>
      <use xlink:href="#MalgunGothic-69" transform="translate(1012.28125 0)"/>
      <use xlink:href="#MalgunGothic-74" transform="translate(1036.890625 0)"/>
      <use xlink:href="#MalgunGothic-79" transform="translate(1071.363281 0)"/>
      <use xlink:href="#MalgunGothic-20" transform="translate(1120.630859 0)"/>
      <use xlink:href="#MalgunGothic-64" transform="translate(1155.787109 0)"/>
      <use xlink:href="#MalgunGothic-65" transform="translate(1215.992188 0)"/>
      <use xlink:href="#MalgunGothic-6c" transform="translate(1269.507812 0)"/>
      <use xlink:href="#MalgunGothic-74" transform="translate(1294.117188 0)"/>
      <use xlink:href="#MalgunGothic-61" transform="translate(1328.589844 0)"/>
     </g>
    </g>
   </g>
   <g id="matplotlib.axis_2">
    <g id="ytick_1">
     <g id="line2d_8">
      <path d="M 126.242812 361.92151 
L 684.242813 361.92151 
" clip-path="url(#pf2a84c81d3)" style="fill: none; stroke: #e6e8f0; stroke-width: 0.8; stroke-linecap: round"/>
     </g>
     <g id="text_9">
      <!-- 취침시각 +30분 -->
      <g style="fill: #262626" transform="translate(38.051562 366.097214) scale(0.11 -0.11)">
       <defs>
        <path id="MalgunGothic-cde8" d="M 4197 2834 
Q 3700 2925 3233 3214 
Q 2766 3503 2597 3788 
Q 2441 3484 1958 3170 
Q 1475 2856 978 2725 
L 678 3091 
Q 1319 3184 1803 3548 
Q 2288 3913 2344 4353 
L 922 4353 
L 922 4769 
L 2363 4769 
L 2363 5472 
L 2828 5472 
L 2828 4769 
L 4225 4769 
L 4225 4353 
L 2841 4353 
Q 2894 3950 3355 3626 
Q 3816 3303 4481 3225 
L 4197 2834 
z
M 4997 -563 
L 4997 5466 
L 5466 5466 
L 5466 -563 
L 4997 -563 
z
M 2375 -391 
L 2375 1856 
Q 878 1831 453 1831 
L 409 2241 
Q 1131 2241 2622 2267 
Q 4113 2294 4647 2328 
L 4672 1925 
Q 3984 1881 2841 1869 
L 2841 -391 
L 2375 -391 
z
" transform="scale(0.015625)"/>
        <path id="MalgunGothic-ce68" d="M 3853 2156 
Q 2800 2659 2369 3438 
Q 1950 2600 884 2034 
L 538 2394 
Q 1178 2622 1654 3145 
Q 2131 3669 2131 4147 
L 2131 4409 
L 738 4409 
L 738 4819 
L 2131 4819 
L 2131 5522 
L 2597 5522 
L 2597 4819 
L 3994 4819 
L 3994 4409 
L 2597 4409 
L 2597 4147 
Q 2597 3691 3083 3198 
Q 3569 2706 4159 2534 
L 3853 2156 
z
M 4872 2081 
L 4872 5466 
L 5338 5466 
L 5338 2081 
L 4872 2081 
z
M 1625 -397 
L 1625 1734 
L 5338 1734 
L 5338 -397 
L 1625 -397 
z
M 4878 1325 
L 2094 1325 
L 2094 13 
L 4878 13 
L 4878 1325 
z
" transform="scale(0.015625)"/>
        <path id="MalgunGothic-c2dc" d="M 4947 -563 
L 4947 5466 
L 5416 5466 
L 5416 -563 
L 4947 -563 
z
M 3769 966 
Q 3263 1353 2820 1939 
Q 2378 2525 2259 2950 
Q 2116 2463 1687 1872 
Q 1259 1281 756 891 
L 397 1203 
Q 1141 1703 1581 2479 
Q 2022 3256 2022 4063 
L 2022 5050 
L 2484 5050 
L 2484 4084 
Q 2484 3303 2920 2556 
Q 3356 1809 4097 1331 
L 3769 966 
z
" transform="scale(0.015625)"/>
        <path id="MalgunGothic-ac01" d="M 5125 3438 
L 5125 2125 
L 4659 2125 
L 4659 5466 
L 5125 5466 
L 5125 3853 
L 6034 3853 
L 6034 3438 
L 5125 3438 
z
M 3513 5178 
Q 3344 3069 788 2003 
L 459 2375 
Q 1497 2703 2167 3365 
Q 2838 4028 2963 4763 
L 831 4763 
L 831 5178 
L 3513 5178 
z
M 4659 -563 
L 4659 1369 
L 1253 1369 
L 1253 1791 
L 5125 1791 
L 5125 -563 
L 4659 -563 
z
" transform="scale(0.015625)"/>
        <path id="MalgunGothic-33" d="M 416 719 
Q 891 344 1478 344 
Q 1959 344 2254 587 
Q 2550 831 2550 1247 
Q 2550 2169 1253 2169 
L 872 2169 
L 872 2591 
L 1234 2591 
Q 2388 2591 2388 3453 
Q 2388 4250 1509 4250 
Q 1022 4250 594 3916 
L 594 4413 
Q 1031 4675 1634 4675 
Q 2184 4675 2539 4372 
Q 2894 4069 2894 3581 
Q 2894 2678 1972 2409 
L 1972 2400 
Q 2469 2356 2764 2053 
Q 3059 1750 3059 1300 
Q 3059 672 2604 297 
Q 2150 -78 1450 -78 
Q 806 -78 416 169 
L 416 719 
z
" transform="scale(0.015625)"/>
        <path id="MalgunGothic-bd84" d="M 1338 2994 
L 1338 5306 
L 1806 5306 
L 1806 4525 
L 4594 4525 
L 4594 5306 
L 5056 5306 
L 5056 2994 
L 1338 2994 
z
M 4594 4109 
L 1806 4109 
L 1806 3406 
L 4594 3406 
L 4594 4109 
z
M 3456 1863 
L 3456 494 
L 2988 494 
L 2988 1863 
L 403 1863 
L 403 2278 
L 5997 2278 
L 5997 1863 
L 3456 1863 
z
M 1288 -384 
L 1288 1344 
L 1753 1344 
L 1753 31 
L 5216 31 
L 5216 -384 
L 1288 -384 
z
" transform="scale(0.015625)"/>
       </defs>
       <use xlink:href="#MalgunGothic-cde8"/>
       <use xlink:href="#MalgunGothic-ce68" transform="translate(100 0)"/>
       <use xlink:href="#MalgunGothic-c2dc" transform="translate(200 0)"/>
       <use xlink:href="#MalgunGothic-ac01" transform="translate(300 0)"/>
       <use xlink:href="#MalgunGothic-20" transform="translate(400 0)"/>
       <use xlink:href="#MalgunGothic-2b" transform="translate(435.15625 0)"/>
       <use xlink:href="#MalgunGothic-33" transform="translate(505.224609 0)"/>
       <use xlink:href="#MalgunGothic-30" transform="translate(560.302734 0)"/>
       <use xlink:href="#MalgunGothic-bd84" transform="translate(615.380859 0)"/>
      </g>
     </g>
    </g>
    <g id="ytick_2">
     <g id="line2d_9">
      <path d="M 126.242812 324.98165 
L 684.242813 324.98165 
" clip-path="url(#pf2a84c81d3)" style="fill: none; stroke: #e6e8f0; stroke-width: 0.8; stroke-linecap: round"/>
     </g>
     <g id="text_10">
      <!-- 심박 -5 -->
      <g style="fill: #262626" transform="translate(80.305312 329.157353) scale(0.11 -0.11)">
       <defs>
        <path id="MalgunGothic-c2ec" d="M 4884 2113 
L 4884 5466 
L 5350 5466 
L 5350 2113 
L 4884 2113 
z
M 3653 2328 
Q 3244 2550 2831 2950 
Q 2419 3350 2253 3700 
Q 2075 3303 1659 2858 
Q 1244 2413 819 2175 
L 488 2497 
Q 1134 2806 1571 3393 
Q 2009 3981 2009 4628 
L 2009 5269 
L 2463 5269 
L 2463 4628 
Q 2463 4025 2916 3472 
Q 3369 2919 3969 2669 
L 3653 2328 
z
M 1625 -397 
L 1625 1766 
L 5350 1766 
L 5350 -397 
L 1625 -397 
z
M 4891 1356 
L 2088 1356 
L 2088 13 
L 4891 13 
L 4891 1356 
z
" transform="scale(0.015625)"/>
        <path id="MalgunGothic-bc15" d="M 5119 3438 
L 5119 2009 
L 4653 2009 
L 4653 5466 
L 5119 5466 
L 5119 3859 
L 6028 3859 
L 6028 3438 
L 5119 3438 
z
M 756 2406 
L 756 5253 
L 1216 5253 
L 1216 4231 
L 3059 4231 
L 3059 5253 
L 3519 5253 
L 3519 2406 
L 756 2406 
z
M 3059 3816 
L 1216 3816 
L 1216 2816 
L 3059 2816 
L 3059 3816 
z
M 4653 -563 
L 4653 1269 
L 1253 1269 
L 1253 1684 
L 5119 1684 
L 5119 -563 
L 4653 -563 
z
" transform="scale(0.015625)"/>
        <path id="MalgunGothic-35" d="M 3072 1403 
Q 3072 722 2636 322 
Q 2200 -78 1469 -78 
Q 828 -78 516 113 
L 516 650 
Q 994 344 1475 344 
Q 1969 344 2270 630 
Q 2572 916 2572 1372 
Q 2572 1838 2265 2092 
Q 1959 2347 1381 2347 
Q 994 2347 603 2300 
L 759 4600 
L 2869 4600 
L 2869 4147 
L 1206 4147 
L 1106 2763 
Q 1347 2784 1547 2784 
Q 2263 2784 2667 2414 
Q 3072 2044 3072 1403 
z
" transform="scale(0.015625)"/>
       </defs>
       <use xlink:href="#MalgunGothic-c2ec"/>
       <use xlink:href="#MalgunGothic-bc15" transform="translate(100 0)"/>
       <use xlink:href="#MalgunGothic-20" transform="translate(200 0)"/>
       <use xlink:href="#MalgunGothic-2d" transform="translate(235.15625 0)"/>
       <use xlink:href="#MalgunGothic-35" transform="translate(276.171875 0)"/>
      </g>
     </g>
    </g>
    <g id="ytick_3">
     <g id="line2d_10">
      <path d="M 126.242812 288.04179 
L 684.242813 288.04179 
" clip-path="url(#pf2a84c81d3)" style="fill: none; stroke: #e6e8f0; stroke-width: 0.8; stroke-linecap: round"/>
     </g>
     <g id="text_11">
      <!-- 최근 1시간 걸음 +200 -->
      <g style="fill: #262626" transform="translate(7.2 292.217493) scale(0.11 -0.11)">
       <defs>
        <path id="MalgunGothic-cd5c" d="M 5484 5466 
L 5484 -563 
L 5019 -563 
L 5019 5466 
L 5484 5466 
z
M 2778 4250 
Q 2797 3766 3325 3298 
Q 3853 2831 4434 2734 
L 4116 2356 
Q 3628 2522 3158 2883 
Q 2688 3244 2541 3547 
Q 2391 3228 1923 2823 
Q 1456 2419 972 2228 
L 634 2572 
Q 1247 2744 1767 3239 
Q 2288 3734 2309 4250 
L 838 4250 
L 838 4666 
L 2309 4666 
L 2309 5369 
L 2784 5369 
L 2784 4666 
L 4206 4666 
L 4206 4250 
L 2778 4250 
z
M 4659 659 
Q 2878 556 500 556 
L 453 972 
Q 1447 972 2309 991 
L 2309 2356 
L 2778 2356 
L 2778 1000 
Q 4206 1034 4634 1063 
L 4659 659 
z
" transform="scale(0.015625)"/>
        <path id="MalgunGothic-adfc" d="M 403 2356 
L 403 2772 
L 4563 2772 
Q 4634 3506 4634 4744 
L 1338 4744 
L 1338 5159 
L 5100 5159 
Q 5100 3575 5025 2772 
L 5997 2772 
L 5997 2356 
L 403 2356 
z
M 1381 -306 
L 1381 1716 
L 1850 1716 
L 1850 116 
L 5184 116 
L 5184 -306 
L 1381 -306 
z
" transform="scale(0.015625)"/>
        <path id="MalgunGothic-ac04" d="M 5125 3122 
L 5125 1063 
L 4659 1063 
L 4659 5466 
L 5125 5466 
L 5125 3541 
L 6034 3541 
L 6034 3122 
L 5125 3122 
z
M 3513 5100 
Q 3403 3872 2556 3011 
Q 1709 2150 794 1800 
L 469 2163 
Q 1344 2450 2087 3172 
Q 2831 3894 2963 4678 
L 831 4678 
L 831 5100 
L 3513 5100 
z
M 1459 -325 
L 1459 1509 
L 1925 1509 
L 1925 97 
L 5294 97 
L 5294 -325 
L 1459 -325 
z
" transform="scale(0.015625)"/>
        <path id="MalgunGothic-ac78" d="M 4947 2328 
L 4947 3469 
L 3559 3469 
L 3559 3878 
L 4947 3878 
L 4947 5466 
L 5416 5466 
L 5416 2328 
L 4947 2328 
z
M 3603 5209 
Q 3547 4166 2787 3325 
Q 2028 2484 878 2047 
L 550 2419 
Q 1663 2806 2309 3470 
Q 2956 4134 3072 4800 
L 941 4800 
L 941 5209 
L 3603 5209 
z
M 1722 -422 
L 1722 1025 
L 4953 1025 
L 4953 1588 
L 1722 1588 
L 1722 1997 
L 5416 1997 
L 5416 622 
L 2181 622 
L 2181 -6 
L 5581 -6 
L 5581 -422 
L 1722 -422 
z
" transform="scale(0.015625)"/>
        <path id="MalgunGothic-c74c" d="M 3200 3103 
Q 2291 3103 1798 3426 
Q 1306 3750 1306 4269 
Q 1306 4788 1798 5111 
Q 2291 5434 3200 5434 
Q 4109 5434 4601 5111 
Q 5094 4788 5094 4269 
Q 5094 3750 4601 3426 
Q 4109 3103 3200 3103 
z
M 3200 5038 
Q 2525 5038 2161 4831 
Q 1797 4625 1797 4269 
Q 1797 3913 2161 3706 
Q 2525 3500 3200 3500 
Q 3875 3500 4239 3706 
Q 4603 3913 4603 4269 
Q 4603 4625 4239 4831 
Q 3875 5038 3200 5038 
z
M 403 2175 
L 403 2591 
L 5997 2591 
L 5997 2175 
L 403 2175 
z
M 1325 -384 
L 1325 1625 
L 5075 1625 
L 5075 -384 
L 1325 -384 
z
M 4609 1209 
L 1791 1209 
L 1791 31 
L 4609 31 
L 4609 1209 
z
" transform="scale(0.015625)"/>
       </defs>
       <use xlink:href="#MalgunGothic-cd5c"/>
       <use xlink:href="#MalgunGothic-adfc" transform="translate(100 0)"/>
       <use xlink:href="#MalgunGothic-20" transform="translate(200 0)"/>
       <use xlink:href="#MalgunGothic-31" transform="translate(235.15625 0)"/>
       <use xlink:href="#MalgunGothic-c2dc" transform="translate(290.234375 0)"/>
       <use xlink:href="#MalgunGothic-ac04" transform="translate(390.234375 0)"/>
       <use xlink:href="#MalgunGothic-20" transform="translate(490.234375 0)"/>
       <use xlink:href="#MalgunGothic-ac78" transform="translate(525.390625 0)"/>
       <use xlink:href="#MalgunGothic-c74c" transform="translate(625.390625 0)"/>
       <use xlink:href="#MalgunGothic-20" transform="translate(725.390625 0)"/>
       <use xlink:href="#MalgunGothic-2b" transform="translate(760.546875 0)"/>
       <use xlink:href="#MalgunGothic-32" transform="translate(830.615234 0)"/>
       <use xlink:href="#MalgunGothic-30" transform="translate(885.693359 0)"/>
       <use xlink:href="#MalgunGothic-30" transform="translate(940.771484 0)"/>
      </g>
     </g>
    </g>
    <g id="ytick_4">
     <g id="line2d_11">
      <path d="M 126.242812 251.10193 
L 684.242813 251.10193 
" clip-path="url(#pf2a84c81d3)" style="fill: none; stroke: #e6e8f0; stroke-width: 0.8; stroke-linecap: round"/>
     </g>
     <g id="text_12">
      <!-- 취침시각 -30분 -->
      <g style="fill: #262626" transform="translate(41.246719 255.277633) scale(0.11 -0.11)">
       <use xlink:href="#MalgunGothic-cde8"/>
       <use xlink:href="#MalgunGothic-ce68" transform="translate(100 0)"/>
       <use xlink:href="#MalgunGothic-c2dc" transform="translate(200 0)"/>
       <use xlink:href="#MalgunGothic-ac01" transform="translate(300 0)"/>
       <use xlink:href="#MalgunGothic-20" transform="translate(400 0)"/>
       <use xlink:href="#MalgunGothic-2d" transform="translate(435.15625 0)"/>
       <use xlink:href="#MalgunGothic-33" transform="translate(476.171875 0)"/>
       <use xlink:href="#MalgunGothic-30" transform="translate(531.25 0)"/>
       <use xlink:href="#MalgunGothic-bd84" transform="translate(586.328125 0)"/>
      </g>
     </g>
    </g>
    <g id="ytick_5">
     <g id="line2d_12">
      <path d="M 126.242812 214.16207 
L 684.242813 214.16207 
" clip-path="url(#pf2a84c81d3)" style="fill: none; stroke: #e6e8f0; stroke-width: 0.8; stroke-linecap: round"/>
     </g>
     <g id="text_13">
      <!-- 오늘 걸음 -1000 -->
      <g style="fill: #262626" transform="translate(36.262344 218.337773) scale(0.11 -0.11)">
       <defs>
        <path id="MalgunGothic-c624" d="M 403 391 
L 403 800 
L 2963 800 
L 2963 2016 
Q 2103 2081 1634 2479 
Q 1166 2878 1166 3525 
Q 1166 4228 1727 4629 
Q 2288 5031 3200 5031 
Q 4113 5031 4670 4632 
Q 5228 4234 5228 3525 
Q 5228 2878 4759 2479 
Q 4291 2081 3438 2016 
L 3438 800 
L 5997 800 
L 5997 391 
L 403 391 
z
M 1650 3525 
Q 1650 3016 2079 2720 
Q 2509 2425 3200 2425 
Q 3891 2425 4317 2722 
Q 4744 3019 4744 3525 
Q 4744 4028 4317 4325 
Q 3891 4622 3200 4622 
Q 2506 4622 2078 4325 
Q 1650 4028 1650 3525 
z
" transform="scale(0.015625)"/>
        <path id="MalgunGothic-b298" d="M 1409 5369 
L 1869 5369 
L 1869 4078 
L 5178 4078 
L 5178 3681 
L 1409 3681 
L 1409 5369 
z
M 403 2656 
L 403 3053 
L 5997 3053 
L 5997 2656 
L 403 2656 
z
M 1356 -466 
L 1356 972 
L 4603 972 
L 4603 1613 
L 1356 1613 
L 1356 2016 
L 5063 2016 
L 5063 603 
L 1819 603 
L 1819 -63 
L 5222 -63 
L 5222 -466 
L 1356 -466 
z
" transform="scale(0.015625)"/>
       </defs>
       <use xlink:href="#MalgunGothic-c624"/>
       <use xlink:href="#MalgunGothic-b298" transform="translate(100 0)"/>
       <use xlink:href="#MalgunGothic-20" transform="translate(200 0)"/>
       <use xlink:href="#MalgunGothic-ac78" transform="translate(235.15625 0)"/>
       <use xlink:href="#MalgunGothic-c74c" transform="translate(335.15625 0)"/>
       <use xlink:href="#MalgunGothic-20" transform="translate(435.15625 0)"/>
       <use xlink:href="#MalgunGothic-2d" transform="translate(470.3125 0)"/>
       <use xlink:href="#MalgunGothic-31" transform="translate(511.328125 0)"/>
       <use xlink:href="#MalgunGothic-30" transform="translate(566.40625 0)"/>
       <use xlink:href="#MalgunGothic-30" transform="translate(621.484375 0)"/>
       <use xlink:href="#MalgunGothic-30" transform="translate(676.5625 0)"/>
      </g>
     </g>
    </g>
    <g id="ytick_6">
     <g id="line2d_13">
      <path d="M 126.242812 177.22221 
L 684.242813 177.22221 
" clip-path="url(#pf2a84c81d3)" style="fill: none; stroke: #e6e8f0; stroke-width: 0.8; stroke-linecap: round"/>
     </g>
     <g id="text_14">
      <!-- 오늘 걸음 +1000 -->
      <g style="fill: #262626" transform="translate(33.067187 181.397913) scale(0.11 -0.11)">
       <use xlink:href="#MalgunGothic-c624"/>
       <use xlink:href="#MalgunGothic-b298" transform="translate(100 0)"/>
       <use xlink:href="#MalgunGothic-20" transform="translate(200 0)"/>
       <use xlink:href="#MalgunGothic-ac78" transform="translate(235.15625 0)"/>
       <use xlink:href="#MalgunGothic-c74c" transform="translate(335.15625 0)"/>
       <use xlink:href="#MalgunGothic-20" transform="translate(435.15625 0)"/>
       <use xlink:href="#MalgunGothic-2b" transform="translate(470.3125 0)"/>
       <use xlink:href="#MalgunGothic-31" transform="translate(540.380859 0)"/>
       <use xlink:href="#MalgunGothic-30" transform="translate(595.458984 0)"/>
       <use xlink:href="#MalgunGothic-30" transform="translate(650.537109 0)"/>
       <use xlink:href="#MalgunGothic-30" transform="translate(705.615234 0)"/>
      </g>
     </g>
    </g>
    <g id="ytick_7">
     <g id="line2d_14">
      <path d="M 126.242812 140.28235 
L 684.242813 140.28235 
" clip-path="url(#pf2a84c81d3)" style="fill: none; stroke: #e6e8f0; stroke-width: 0.8; stroke-linecap: round"/>
     </g>
     <g id="text_15">
      <!-- 최근 1시간 걸음 -200 -->
      <g style="fill: #262626" transform="translate(10.395156 144.458053) scale(0.11 -0.11)">
       <use xlink:href="#MalgunGothic-cd5c"/>
       <use xlink:href="#MalgunGothic-adfc" transform="translate(100 0)"/>
       <use xlink:href="#MalgunGothic-20" transform="translate(200 0)"/>
       <use xlink:href="#MalgunGothic-31" transform="translate(235.15625 0)"/>
       <use xlink:href="#MalgunGothic-c2dc" transform="translate(290.234375 0)"/>
       <use xlink:href="#MalgunGothic-ac04" transform="translate(390.234375 0)"/>
       <use xlink:href="#MalgunGothic-20" transform="translate(490.234375 0)"/>
       <use xlink:href="#MalgunGothic-ac78" transform="translate(525.390625 0)"/>
       <use xlink:href="#MalgunGothic-c74c" transform="translate(625.390625 0)"/>
       <use xlink:href="#MalgunGothic-20" transform="translate(725.390625 0)"/>
       <use xlink:href="#MalgunGothic-2d" transform="translate(760.546875 0)"/>
       <use xlink:href="#MalgunGothic-32" transform="translate(801.5625 0)"/>
       <use xlink:href="#MalgunGothic-30" transform="translate(856.640625 0)"/>
       <use xlink:href="#MalgunGothic-30" transform="translate(911.71875 0)"/>
      </g>
     </g>
    </g>
    <g id="ytick_8">
     <g id="line2d_15">
      <path d="M 126.242812 103.34249 
L 684.242813 103.34249 
" clip-path="url(#pf2a84c81d3)" style="fill: none; stroke: #e6e8f0; stroke-width: 0.8; stroke-linecap: round"/>
     </g>
     <g id="text_16">
      <!-- 심박 +5 -->
      <g style="fill: #262626" transform="translate(77.110156 107.518193) scale(0.11 -0.11)">
       <use xlink:href="#MalgunGothic-c2ec"/>
       <use xlink:href="#MalgunGothic-bc15" transform="translate(100 0)"/>
       <use xlink:href="#MalgunGothic-20" transform="translate(200 0)"/>
       <use xlink:href="#MalgunGothic-2b" transform="translate(235.15625 0)"/>
       <use xlink:href="#MalgunGothic-35" transform="translate(305.224609 0)"/>
      </g>
     </g>
    </g>
   </g>
   <g id="patch_3">
    <path d="M 549.932379 376.697455 
L 222.178837 376.697455 
L 222.178837 347.145566 
L 549.932379 347.145566 
z
" clip-path="url(#pf2a84c81d3)" style="fill: #f0986e; stroke: #804126; stroke-linejoin: miter"/>
   </g>
   <g id="patch_4">
    <path d="M 549.932379 339.757594 
L 512.385548 339.757594 
L 512.385548 310.205706 
L 549.932379 310.205706 
z
" clip-path="url(#pf2a84c81d3)" style="fill: #f0986e; stroke: #804126; stroke-linejoin: miter"/>
   </g>
   <g id="patch_5">
    <path d="M 549.932379 302.817734 
L 524.988304 302.817734 
L 524.988304 273.265846 
L 549.932379 273.265846 
z
" clip-path="url(#pf2a84c81d3)" style="fill: #f0986e; stroke: #804126; stroke-linejoin: miter"/>
   </g>
   <g id="patch_6">
    <path d="M 549.932379 265.877874 
L 545.123116 265.877874 
L 545.123116 236.325986 
L 549.932379 236.325986 
z
" clip-path="url(#pf2a84c81d3)" style="fill: #f0986e; stroke: #804126; stroke-linejoin: miter"/>
   </g>
   <g id="patch_7">
    <path d="M 549.932379 228.938014 
L 548.582876 228.938014 
L 548.582876 199.386126 
L 549.932379 199.386126 
z
" clip-path="url(#pf2a84c81d3)" style="fill: #f0986e; stroke: #804126; stroke-linejoin: miter"/>
   </g>
   <g id="patch_8">
    <path d="M 549.932379 191.998154 
L 549.82419 191.998154 
L 549.82419 162.446266 
L 549.932379 162.446266 
z
" clip-path="url(#pf2a84c81d3)" style="fill: #f0986e; stroke: #804126; stroke-linejoin: miter"/>
   </g>
   <g id="patch_9">
    <path d="M 549.932379 155.058294 
L 560.689289 155.058294 
L 560.689289 125.506406 
L 549.932379 125.506406 
z
" clip-path="url(#pf2a84c81d3)" style="fill: #a3d576; stroke: #386411; stroke-linejoin: miter"/>
   </g>
   <g id="patch_10">
    <path d="M 549.932379 118.118434 
L 587.638862 118.118434 
L 587.638862 88.566545 
L 549.932379 88.566545 
z
" clip-path="url(#pf2a84c81d3)" style="fill: #a3d576; stroke: #386411; stroke-linejoin: miter"/>
   </g>
   <g id="line2d_16">
    <path d="M 549.932379 391.104 
L 549.932379 74.16 
" clip-path="url(#pf2a84c81d3)" style="fill: none; stroke: #1f2430; stroke-linecap: round"/>
   </g>
   <g id="patch_11">
    <path d="M 126.242812 391.104 
L 126.242812 74.16 
" style="fill: none; stroke: #d7dbe7; stroke-width: 1.25; stroke-linejoin: miter; stroke-linecap: square"/>
   </g>
   <g id="patch_12">
    <path d="M 126.242812 391.104 
L 684.242813 391.104 
" style="fill: none; stroke: #d7dbe7; stroke-width: 1.25; stroke-linejoin: miter; stroke-linecap: square"/>
   </g>
   <g id="text_17">
    <!-- -0.085 / label 변경 -->
    <g style="fill: #1f2430" transform="translate(134.790889 364.274167) scale(0.09 -0.09)">
     <defs>
      <path id="MalgunGothic-2f" d="M 2584 4600 
L 378 -763 
L -84 -763 
L 2113 4600 
L 2584 4600 
z
" transform="scale(0.015625)"/>
      <path id="MalgunGothic-bcc0" d="M 1038 2059 
L 1038 5184 
L 1497 5184 
L 1497 4072 
L 3366 4072 
L 3366 5184 
L 3828 5184 
L 3828 4416 
L 4947 4416 
L 4947 5466 
L 5416 5466 
L 5416 1063 
L 4947 1063 
L 4947 2669 
L 3828 2669 
L 3828 2059 
L 1038 2059 
z
M 3828 3084 
L 4947 3084 
L 4947 4000 
L 3828 4000 
L 3828 3084 
z
M 3366 3653 
L 1497 3653 
L 1497 2478 
L 3366 2478 
L 3366 3653 
z
M 1734 -391 
L 1734 1563 
L 2203 1563 
L 2203 25 
L 5606 25 
L 5606 -391 
L 1734 -391 
z
" transform="scale(0.015625)"/>
      <path id="MalgunGothic-acbd" d="M 4947 1934 
L 4947 2688 
L 3681 2688 
L 3681 3109 
L 4947 3109 
L 4947 3963 
L 3744 3963 
L 3744 4384 
L 4947 4384 
L 4947 5466 
L 5416 5466 
L 5416 1934 
L 4947 1934 
z
M 3609 5147 
Q 3547 4019 2742 3156 
Q 1938 2294 872 1881 
L 544 2253 
Q 1459 2544 2181 3217 
Q 2903 3891 3066 4728 
L 941 4728 
L 941 5147 
L 3609 5147 
z
M 3481 -481 
Q 2538 -481 2020 -143 
Q 1503 194 1503 716 
Q 1503 1238 2020 1569 
Q 2538 1900 3481 1900 
Q 4428 1900 4947 1569 
Q 5466 1238 5466 716 
Q 5466 194 4948 -143 
Q 4431 -481 3481 -481 
z
M 3481 1497 
Q 2775 1497 2386 1275 
Q 1997 1053 1997 716 
Q 1997 375 2381 148 
Q 2766 -78 3481 -78 
Q 4194 -78 4580 147 
Q 4966 372 4966 716 
Q 4966 1056 4575 1276 
Q 4184 1497 3481 1497 
z
" transform="scale(0.015625)"/>
     </defs>
     <use xlink:href="#MalgunGothic-2d"/>
     <use xlink:href="#MalgunGothic-30" transform="translate(41.015625 0)"/>
     <use xlink:href="#MalgunGothic-2e" transform="translate(96.09375 0)"/>
     <use xlink:href="#MalgunGothic-30" transform="translate(117.96875 0)"/>
     <use xlink:href="#MalgunGothic-38" transform="translate(173.046875 0)"/>
     <use xlink:href="#MalgunGothic-35" transform="translate(228.125 0)"/>
     <use xlink:href="#MalgunGothic-20" transform="translate(283.203125 0)"/>
     <use xlink:href="#MalgunGothic-2f" transform="translate(318.359375 0)"/>
     <use xlink:href="#MalgunGothic-20" transform="translate(357.958984 0)"/>
     <use xlink:href="#MalgunGothic-6c" transform="translate(393.115234 0)"/>
     <use xlink:href="#MalgunGothic-61" transform="translate(417.724609 0)"/>
     <use xlink:href="#MalgunGothic-62" transform="translate(469.726562 0)"/>
     <use xlink:href="#MalgunGothic-65" transform="translate(529.785156 0)"/>
     <use xlink:href="#MalgunGothic-6c" transform="translate(583.300781 0)"/>
     <use xlink:href="#MalgunGothic-20" transform="translate(607.910156 0)"/>
     <use xlink:href="#MalgunGothic-bcc0" transform="translate(643.066406 0)"/>
     <use xlink:href="#MalgunGothic-acbd" transform="translate(743.066406 0)"/>
    </g>
   </g>
   <g id="text_18">
    <!-- -0.010 -->
    <g style="fill: #1f2430" transform="translate(475.384944 327.334307) scale(0.09 -0.09)">
     <use xlink:href="#MalgunGothic-2d"/>
     <use xlink:href="#MalgunGothic-30" transform="translate(41.015625 0)"/>
     <use xlink:href="#MalgunGothic-2e" transform="translate(96.09375 0)"/>
     <use xlink:href="#MalgunGothic-30" transform="translate(117.96875 0)"/>
     <use xlink:href="#MalgunGothic-31" transform="translate(173.046875 0)"/>
     <use xlink:href="#MalgunGothic-30" transform="translate(228.125 0)"/>
    </g>
   </g>
   <g id="text_19">
    <!-- -0.007 -->
    <g style="fill: #1f2430" transform="translate(487.9877 290.394446) scale(0.09 -0.09)">
     <defs>
      <path id="MalgunGothic-37" d="M 3213 4297 
Q 2478 3006 2064 1918 
Q 1650 831 1550 0 
L 1009 0 
Q 1084 531 1290 1176 
Q 1497 1822 1815 2537 
Q 2134 3253 2631 4147 
L 291 4147 
L 291 4600 
L 3213 4600 
L 3213 4297 
z
" transform="scale(0.015625)"/>
     </defs>
     <use xlink:href="#MalgunGothic-2d"/>
     <use xlink:href="#MalgunGothic-30" transform="translate(41.015625 0)"/>
     <use xlink:href="#MalgunGothic-2e" transform="translate(96.09375 0)"/>
     <use xlink:href="#MalgunGothic-30" transform="translate(117.96875 0)"/>
     <use xlink:href="#MalgunGothic-30" transform="translate(173.046875 0)"/>
     <use xlink:href="#MalgunGothic-37" transform="translate(228.125 0)"/>
    </g>
   </g>
   <g id="text_20">
    <!-- -0.001 -->
    <g style="fill: #1f2430" transform="translate(508.122512 253.454586) scale(0.09 -0.09)">
     <use xlink:href="#MalgunGothic-2d"/>
     <use xlink:href="#MalgunGothic-30" transform="translate(41.015625 0)"/>
     <use xlink:href="#MalgunGothic-2e" transform="translate(96.09375 0)"/>
     <use xlink:href="#MalgunGothic-30" transform="translate(117.96875 0)"/>
     <use xlink:href="#MalgunGothic-30" transform="translate(173.046875 0)"/>
     <use xlink:href="#MalgunGothic-31" transform="translate(228.125 0)"/>
    </g>
   </g>
   <g id="text_21">
    <!-- -0.000 -->
    <g style="fill: #1f2430" transform="translate(511.582271 216.514726) scale(0.09 -0.09)">
     <use xlink:href="#MalgunGothic-2d"/>
     <use xlink:href="#MalgunGothic-30" transform="translate(41.015625 0)"/>
     <use xlink:href="#MalgunGothic-2e" transform="translate(96.09375 0)"/>
     <use xlink:href="#MalgunGothic-30" transform="translate(117.96875 0)"/>
     <use xlink:href="#MalgunGothic-30" transform="translate(173.046875 0)"/>
     <use xlink:href="#MalgunGothic-30" transform="translate(228.125 0)"/>
    </g>
   </g>
   <g id="text_22">
    <!-- -0.000 -->
    <g style="fill: #1f2430" transform="translate(512.823585 179.574866) scale(0.09 -0.09)">
     <use xlink:href="#MalgunGothic-2d"/>
     <use xlink:href="#MalgunGothic-30" transform="translate(41.015625 0)"/>
     <use xlink:href="#MalgunGothic-2e" transform="translate(96.09375 0)"/>
     <use xlink:href="#MalgunGothic-30" transform="translate(117.96875 0)"/>
     <use xlink:href="#MalgunGothic-30" transform="translate(173.046875 0)"/>
     <use xlink:href="#MalgunGothic-30" transform="translate(228.125 0)"/>
    </g>
   </g>
   <g id="text_23">
    <!-- +0.003 -->
    <g style="fill: #1f2430" transform="translate(572.201612 142.635006) scale(0.09 -0.09)">
     <use xlink:href="#MalgunGothic-2b"/>
     <use xlink:href="#MalgunGothic-30" transform="translate(70.068359 0)"/>
     <use xlink:href="#MalgunGothic-2e" transform="translate(125.146484 0)"/>
     <use xlink:href="#MalgunGothic-30" transform="translate(147.021484 0)"/>
     <use xlink:href="#MalgunGothic-30" transform="translate(202.099609 0)"/>
     <use xlink:href="#MalgunGothic-33" transform="translate(257.177734 0)"/>
    </g>
   </g>
   <g id="text_24">
    <!-- +0.010 -->
    <g style="fill: #1f2430" transform="translate(599.151185 105.695146) scale(0.09 -0.09)">
     <use xlink:href="#MalgunGothic-2b"/>
     <use xlink:href="#MalgunGothic-30" transform="translate(70.068359 0)"/>
     <use xlink:href="#MalgunGothic-2e" transform="translate(125.146484 0)"/>
     <use xlink:href="#MalgunGothic-30" transform="translate(147.021484 0)"/>
     <use xlink:href="#MalgunGothic-31" transform="translate(202.099609 0)"/>
     <use xlink:href="#MalgunGothic-30" transform="translate(257.177734 0)"/>
    </g>
   </g>
  </g>
  <g id="text_25">
   <!-- 오늘 forecast는 취침 시각 +30분 시나리오에서 threshold 아래로 내려갔다 -->
   <g style="fill: #1f2430" transform="translate(126.242812 18.588281) scale(0.15 -0.15)">
    <defs>
     <path id="MalgunGothicBold-c624" d="M 403 269 
L 403 916 
L 2803 916 
L 2803 1978 
Q 2016 2081 1567 2482 
Q 1119 2884 1119 3506 
Q 1119 4225 1708 4640 
Q 2297 5056 3200 5056 
Q 4094 5056 4684 4640 
Q 5275 4225 5275 3506 
Q 5275 2881 4823 2476 
Q 4372 2072 3591 1978 
L 3591 916 
L 5997 916 
L 5997 269 
L 403 269 
z
M 3200 4409 
Q 2609 4409 2264 4165 
Q 1919 3922 1919 3506 
Q 1919 3084 2264 2842 
Q 2609 2600 3200 2600 
Q 3788 2600 4131 2844 
Q 4475 3088 4475 3506 
Q 4475 3922 4133 4165 
Q 3791 4409 3200 4409 
z
" transform="scale(0.015625)"/>
     <path id="MalgunGothicBold-b298" d="M 1253 3578 
L 1253 5403 
L 2041 5403 
L 2041 4244 
L 5228 4244 
L 5228 3578 
L 1253 3578 
z
M 403 2578 
L 403 3219 
L 5997 3219 
L 5997 2578 
L 403 2578 
z
M 1222 -459 
L 1222 1184 
L 4391 1184 
L 4391 1563 
L 1222 1563 
L 1222 2203 
L 5172 2203 
L 5172 569 
L 2003 569 
L 2003 178 
L 5319 178 
L 5319 -459 
L 1222 -459 
z
" transform="scale(0.015625)"/>
     <path id="MalgunGothicBold-20" transform="scale(0.015625)"/>
     <path id="MalgunGothicBold-66" d="M 2447 4178 
Q 2269 4256 2081 4256 
Q 1575 4256 1575 3678 
L 1575 3284 
L 2328 3284 
L 2328 2622 
L 1575 2622 
L 1575 0 
L 706 0 
L 706 2622 
L 150 2622 
L 150 3284 
L 706 3284 
L 706 3725 
Q 706 4278 1053 4606 
Q 1400 4934 1972 4934 
Q 2269 4934 2447 4875 
L 2447 4178 
z
" transform="scale(0.015625)"/>
     <path id="MalgunGothicBold-6f" d="M 256 1622 
Q 256 2428 731 2895 
Q 1206 3363 2019 3363 
Q 2803 3363 3258 2905 
Q 3713 2447 3713 1678 
Q 3713 878 3242 398 
Q 2772 -81 1969 -81 
Q 1181 -81 718 380 
Q 256 841 256 1622 
z
M 1138 1634 
Q 1138 600 1997 600 
Q 2825 600 2825 1659 
Q 2825 2684 1994 2684 
Q 1588 2684 1363 2404 
Q 1138 2125 1138 1634 
z
" transform="scale(0.015625)"/>
     <path id="MalgunGothicBold-72" d="M 2472 2481 
Q 2300 2584 2050 2584 
Q 1722 2584 1525 2317 
Q 1328 2050 1328 1600 
L 1328 0 
L 456 0 
L 456 3284 
L 1328 3284 
L 1328 2653 
L 1338 2653 
Q 1578 3341 2203 3341 
Q 2381 3341 2472 3297 
L 2472 2481 
z
" transform="scale(0.015625)"/>
     <path id="MalgunGothicBold-65" d="M 3316 1397 
L 1122 1397 
Q 1175 559 2072 559 
Q 2619 559 3047 847 
L 3047 184 
Q 2591 -81 1875 -81 
Q 1109 -81 682 362 
Q 256 806 256 1603 
Q 256 2384 714 2873 
Q 1172 3363 1859 3363 
Q 2547 3363 2931 2941 
Q 3316 2519 3316 1781 
L 3316 1397 
z
M 2494 1969 
Q 2494 2750 1850 2750 
Q 1581 2750 1376 2537 
Q 1172 2325 1122 1969 
L 2494 1969 
z
" transform="scale(0.015625)"/>
     <path id="MalgunGothicBold-63" d="M 2875 128 
Q 2522 -81 1909 -81 
Q 1172 -81 714 373 
Q 256 828 256 1563 
Q 256 2400 747 2881 
Q 1238 3363 2056 3363 
Q 2591 3363 2875 3206 
L 2875 2441 
Q 2544 2684 2144 2684 
Q 1688 2684 1413 2398 
Q 1138 2113 1138 1625 
Q 1138 1144 1397 872 
Q 1656 600 2109 600 
Q 2506 600 2875 850 
L 2875 128 
z
" transform="scale(0.015625)"/>
     <path id="MalgunGothicBold-61" d="M 534 3075 
Q 756 3203 1109 3283 
Q 1463 3363 1744 3363 
Q 3075 3363 3075 2013 
L 3075 0 
L 2244 0 
L 2244 484 
L 2228 484 
Q 1897 -81 1244 -81 
Q 769 -81 491 186 
Q 213 453 213 903 
Q 213 1844 1331 1994 
L 2247 2119 
Q 2247 2747 1634 2747 
Q 1050 2747 534 2381 
L 534 3075 
z
M 1594 1500 
Q 1031 1428 1031 997 
Q 1031 803 1165 681 
Q 1300 559 1528 559 
Q 1841 559 2044 779 
Q 2247 1000 2247 1334 
L 2247 1584 
L 1594 1500 
z
" transform="scale(0.015625)"/>
     <path id="MalgunGothicBold-73" d="M 347 844 
Q 834 538 1309 538 
Q 1922 538 1922 884 
Q 1922 1125 1438 1291 
Q 731 1528 540 1758 
Q 350 1988 350 2347 
Q 350 2822 737 3092 
Q 1125 3363 1734 3363 
Q 2159 3363 2584 3228 
L 2584 2519 
Q 2200 2747 1744 2747 
Q 1503 2747 1356 2656 
Q 1209 2566 1209 2416 
Q 1209 2169 1619 2025 
Q 2084 1856 2303 1742 
Q 2522 1628 2644 1431 
Q 2766 1234 2766 969 
Q 2766 469 2367 194 
Q 1969 -81 1316 -81 
Q 766 -81 347 94 
L 347 844 
z
" transform="scale(0.015625)"/>
     <path id="MalgunGothicBold-74" d="M 2303 34 
Q 2081 -78 1684 -78 
Q 675 -78 675 991 
L 675 2622 
L 131 2622 
L 131 3284 
L 675 3284 
L 675 4019 
L 1544 4272 
L 1544 3284 
L 2303 3284 
L 2303 2622 
L 1544 2622 
L 1544 1144 
Q 1544 600 1972 600 
Q 2150 600 2303 700 
L 2303 34 
z
" transform="scale(0.015625)"/>
     <path id="MalgunGothicBold-b294" d="M 1253 3200 
L 1253 5166 
L 2041 5166 
L 2041 3866 
L 5228 3866 
L 5228 3200 
L 1253 3200 
z
M 403 1906 
L 403 2566 
L 5997 2566 
L 5997 1906 
L 403 1906 
z
M 1222 -306 
L 1222 1478 
L 2009 1478 
L 2009 353 
L 5253 353 
L 5253 -306 
L 1222 -306 
z
" transform="scale(0.015625)"/>
     <path id="MalgunGothicBold-cde8" d="M 3975 2747 
Q 3053 2934 2456 3578 
Q 1934 2953 928 2681 
L 453 3284 
Q 1784 3528 2016 4238 
L 716 4238 
L 716 4863 
L 2059 4863 
L 2059 5503 
L 2841 5503 
L 2841 4863 
L 4147 4863 
L 4147 4238 
L 2913 4238 
Q 3022 3897 3423 3656 
Q 3825 3416 4391 3347 
L 3975 2747 
z
M 4744 -563 
L 4744 5466 
L 5522 5466 
L 5522 -563 
L 4744 -563 
z
M 2100 -397 
L 2100 1703 
Q 872 1672 397 1672 
L 319 2322 
Q 1066 2322 2609 2369 
L 4513 2444 
L 4544 1800 
Q 3813 1750 2875 1728 
L 2875 -397 
L 2100 -397 
z
" transform="scale(0.015625)"/>
     <path id="MalgunGothicBold-ce68" d="M 3788 2028 
Q 3409 2178 2996 2492 
Q 2584 2806 2375 3097 
Q 2191 2778 1791 2426 
Q 1391 2075 997 1881 
L 469 2406 
Q 1169 2684 1564 3140 
Q 1959 3597 1959 4134 
L 1959 4238 
L 634 4238 
L 634 4878 
L 1966 4878 
L 1966 5550 
L 2753 5550 
L 2753 4878 
L 4078 4878 
L 4078 4238 
L 2753 4238 
L 2753 4116 
Q 2753 3616 3211 3180 
Q 3669 2744 4250 2619 
L 3788 2028 
z
M 4691 1991 
L 4691 5466 
L 5459 5466 
L 5459 1991 
L 4691 1991 
z
M 1522 -434 
L 1522 1734 
L 5459 1734 
L 5459 -434 
L 1522 -434 
z
M 4697 1081 
L 2291 1081 
L 2291 219 
L 4697 219 
L 4697 1081 
z
" transform="scale(0.015625)"/>
     <path id="MalgunGothicBold-c2dc" d="M 4672 -563 
L 4672 5466 
L 5453 5466 
L 5453 -563 
L 4672 -563 
z
M 3688 934 
Q 2819 1531 2303 2425 
Q 1813 1463 916 831 
L 306 1381 
Q 1009 1744 1461 2448 
Q 1913 3153 1913 3891 
L 1913 5063 
L 2700 5063 
L 2700 3909 
Q 2700 3191 3139 2516 
Q 3578 1841 4238 1556 
L 3688 934 
z
" transform="scale(0.015625)"/>
     <path id="MalgunGothicBold-ac01" d="M 5259 3328 
L 5259 2053 
L 4475 2053 
L 4475 5466 
L 5259 5466 
L 5259 3988 
L 6175 3988 
L 6175 3328 
L 5259 3328 
z
M 3681 5203 
Q 3575 4053 2840 3214 
Q 2106 2375 934 1925 
L 416 2528 
Q 2263 3150 2719 4544 
L 775 4544 
L 775 5203 
L 3681 5203 
z
M 4481 -563 
L 4481 1050 
L 1306 1050 
L 1306 1709 
L 5259 1709 
L 5259 -563 
L 4481 -563 
z
" transform="scale(0.015625)"/>
     <path id="MalgunGothicBold-2b" d="M 3847 1597 
L 2594 1597 
L 2594 344 
L 2013 344 
L 2013 1597 
L 756 1597 
L 756 2181 
L 2013 2181 
L 2013 3438 
L 2594 3438 
L 2594 2181 
L 3847 2181 
L 3847 1597 
z
" transform="scale(0.015625)"/>
     <path id="MalgunGothicBold-33" d="M 456 947 
Q 922 600 1531 600 
Q 1931 600 2175 783 
Q 2419 966 2419 1306 
Q 2419 2022 1338 2022 
L 931 2022 
L 931 2703 
L 1309 2703 
Q 2278 2703 2278 3372 
Q 2278 3997 1534 3997 
Q 1069 3997 631 3691 
L 631 4425 
Q 1100 4675 1738 4675 
Q 2372 4675 2769 4375 
Q 3166 4075 3166 3544 
Q 3166 2647 2250 2406 
L 2250 2394 
Q 2728 2344 3018 2042 
Q 3309 1741 3309 1313 
Q 3309 659 2836 289 
Q 2363 -81 1581 -81 
Q 894 -81 456 156 
L 456 947 
z
" transform="scale(0.015625)"/>
     <path id="MalgunGothicBold-30" d="M 241 2222 
Q 241 3422 670 4048 
Q 1100 4675 1919 4675 
Q 3475 4675 3475 2328 
Q 3475 1172 3051 545 
Q 2628 -81 1825 -81 
Q 241 -81 241 2222 
z
M 1125 2244 
Q 1125 600 1863 600 
Q 2584 600 2584 2288 
Q 2584 3997 1878 3997 
Q 1125 3997 1125 2244 
z
" transform="scale(0.015625)"/>
     <path id="MalgunGothicBold-bd84" d="M 1247 2975 
L 1247 5319 
L 2028 5319 
L 2028 4744 
L 4372 4744 
L 4372 5319 
L 5153 5319 
L 5153 2975 
L 1247 2975 
z
M 4372 4103 
L 2028 4103 
L 2028 3628 
L 4372 3628 
L 4372 4103 
z
M 3591 1825 
L 3591 659 
L 2803 659 
L 2803 1825 
L 403 1825 
L 403 2484 
L 5997 2484 
L 5997 1825 
L 3591 1825 
z
M 1228 -397 
L 1228 1403 
L 2016 1403 
L 2016 263 
L 5253 263 
L 5253 -397 
L 1228 -397 
z
" transform="scale(0.015625)"/>
     <path id="MalgunGothicBold-b098" d="M 5166 2503 
L 5166 -563 
L 4384 -563 
L 4384 5466 
L 5166 5466 
L 5166 3163 
L 6138 3163 
L 6138 2503 
L 5166 2503 
z
M 4128 1325 
Q 3522 1178 1784 1178 
L 750 1178 
L 750 4991 
L 1528 4991 
L 1528 1844 
L 2503 1838 
Q 3409 1831 4031 1978 
L 4128 1325 
z
" transform="scale(0.015625)"/>
     <path id="MalgunGothicBold-b9ac" d="M 4672 -563 
L 4672 5466 
L 5447 5466 
L 5447 -563 
L 4672 -563 
z
M 4184 903 
Q 3634 813 3154 797 
Q 2675 781 756 781 
L 756 3328 
L 2900 3328 
L 2900 4341 
L 769 4341 
L 769 5000 
L 3675 5000 
L 3675 2675 
L 1528 2675 
L 1528 1434 
Q 3594 1416 4084 1538 
L 4184 903 
z
" transform="scale(0.015625)"/>
     <path id="MalgunGothicBold-c5d0" d="M 4922 -563 
L 4922 5466 
L 5678 5466 
L 5678 -563 
L 4922 -563 
z
M 3169 3353 
L 3775 3353 
L 3775 5344 
L 4513 5344 
L 4513 -384 
L 3775 -384 
L 3775 2688 
L 3175 2688 
Q 3122 1800 2772 1351 
Q 2422 903 1819 903 
Q 1150 903 798 1439 
Q 447 1975 447 2988 
Q 447 3997 800 4536 
Q 1153 5075 1819 5075 
Q 2409 5075 2757 4642 
Q 3106 4209 3169 3353 
z
M 1819 4409 
Q 1203 4409 1203 2988 
Q 1203 1569 1819 1569 
Q 2113 1569 2272 1934 
Q 2431 2300 2431 2988 
Q 2431 3672 2273 4040 
Q 2116 4409 1819 4409 
z
" transform="scale(0.015625)"/>
     <path id="MalgunGothicBold-c11c" d="M 4794 -563 
L 4794 2981 
L 3488 2981 
L 3488 3641 
L 4794 3641 
L 4794 5466 
L 5575 5466 
L 5575 -563 
L 4794 -563 
z
M 3609 934 
Q 2681 1578 2228 2444 
Q 1731 1463 838 831 
L 231 1369 
Q 925 1725 1381 2434 
Q 1838 3144 1838 3891 
L 1838 5063 
L 2619 5063 
L 2619 3909 
Q 2619 3178 3066 2498 
Q 3513 1819 4159 1544 
L 3609 934 
z
" transform="scale(0.015625)"/>
     <path id="MalgunGothicBold-68" d="M 3481 0 
L 2613 0 
L 2613 1872 
Q 2613 2684 2019 2684 
Q 1713 2684 1520 2454 
Q 1328 2225 1328 1872 
L 1328 0 
L 456 0 
L 456 4859 
L 1328 4859 
L 1328 2778 
L 1338 2778 
Q 1713 3363 2369 3363 
Q 3481 3363 3481 2019 
L 3481 0 
z
" transform="scale(0.015625)"/>
     <path id="MalgunGothicBold-6c" d="M 444 0 
L 444 4859 
L 1313 4859 
L 1313 0 
L 444 0 
z
" transform="scale(0.015625)"/>
     <path id="MalgunGothicBold-64" d="M 3550 0 
L 2681 0 
L 2681 484 
L 2666 484 
Q 2316 -81 1619 -81 
Q 1000 -81 628 362 
Q 256 806 256 1569 
Q 256 2378 672 2870 
Q 1088 3363 1753 3363 
Q 2400 3363 2666 2884 
L 2681 2884 
L 2681 4859 
L 3550 4859 
L 3550 0 
z
M 2694 1878 
Q 2694 2225 2481 2454 
Q 2269 2684 1947 2684 
Q 1572 2684 1355 2390 
Q 1138 2097 1138 1594 
Q 1138 1122 1347 861 
Q 1556 600 1913 600 
Q 2256 600 2475 872 
Q 2694 1144 2694 1566 
L 2694 1878 
z
" transform="scale(0.015625)"/>
     <path id="MalgunGothicBold-c544" d="M 5259 2491 
L 5259 -563 
L 4481 -563 
L 4481 5466 
L 5259 5466 
L 5259 3150 
L 6203 3150 
L 6203 2491 
L 5259 2491 
z
M 2163 903 
Q 1434 903 995 1465 
Q 556 2028 556 2994 
Q 556 3978 993 4529 
Q 1431 5081 2163 5081 
Q 2888 5081 3325 4523 
Q 3763 3966 3763 2994 
Q 3763 2022 3325 1462 
Q 2888 903 2163 903 
z
M 2163 4416 
Q 1803 4416 1570 4036 
Q 1338 3656 1338 2988 
Q 1338 2341 1573 1952 
Q 1809 1563 2163 1563 
Q 2509 1563 2748 1955 
Q 2988 2347 2988 2988 
Q 2988 3650 2756 4033 
Q 2525 4416 2163 4416 
z
" transform="scale(0.015625)"/>
     <path id="MalgunGothicBold-b798" d="M 4872 -563 
L 4872 2303 
L 4384 2303 
L 4384 -384 
L 3616 -384 
L 3616 5344 
L 4384 5344 
L 4384 2963 
L 4872 2963 
L 4872 5466 
L 5644 5466 
L 5644 -563 
L 4872 -563 
z
M 3359 978 
Q 2750 872 1656 872 
L 634 872 
L 634 3378 
L 2247 3378 
L 2247 4397 
L 634 4397 
L 634 5056 
L 3028 5056 
L 3028 2734 
L 1416 2734 
L 1416 1528 
L 1972 1528 
Q 2897 1528 3291 1613 
L 3359 978 
z
" transform="scale(0.015625)"/>
     <path id="MalgunGothicBold-b85c" d="M 403 250 
L 403 903 
L 2809 903 
L 2809 1747 
L 1197 1747 
L 1197 3688 
L 4391 3688 
L 4391 4294 
L 1209 4294 
L 1209 4941 
L 5178 4941 
L 5178 3059 
L 1984 3059 
L 1984 2394 
L 5338 2394 
L 5338 1747 
L 3591 1747 
L 3591 903 
L 5997 903 
L 5997 250 
L 403 250 
z
" transform="scale(0.015625)"/>
     <path id="MalgunGothicBold-b0b4" d="M 4806 -563 
L 4806 2450 
L 4256 2450 
L 4256 -384 
L 3481 -384 
L 3481 5344 
L 4256 5344 
L 4256 3109 
L 4806 3109 
L 4806 5466 
L 5588 5466 
L 5588 -563 
L 4806 -563 
z
M 3250 1331 
Q 2809 1253 2382 1231 
Q 1956 1209 750 1209 
L 750 4991 
L 1522 4991 
L 1522 1869 
Q 2469 1869 3169 1972 
L 3250 1331 
z
" transform="scale(0.015625)"/>
     <path id="MalgunGothicBold-b824" d="M 3788 2003 
L 3788 2663 
L 4825 2663 
L 4825 3566 
L 3822 3566 
L 3822 4225 
L 4825 4225 
L 4825 5466 
L 5594 5466 
L 5594 -563 
L 4825 -563 
L 4825 2003 
L 3788 2003 
z
M 3994 928 
Q 3247 781 691 781 
L 691 3328 
L 2731 3328 
L 2731 4341 
L 703 4341 
L 703 5000 
L 3506 5000 
L 3506 2675 
L 1466 2675 
L 1466 1434 
Q 3166 1409 3891 1563 
L 3994 928 
z
" transform="scale(0.015625)"/>
     <path id="MalgunGothicBold-ac14" d="M 5259 3328 
L 5259 2119 
L 4475 2119 
L 4475 5466 
L 5259 5466 
L 5259 3988 
L 6175 3988 
L 6175 3328 
L 5259 3328 
z
M 3694 5203 
Q 3544 4097 2797 3272 
Q 2050 2447 941 2009 
L 409 2613 
Q 2206 3231 2700 4544 
L 775 4544 
L 775 5203 
L 3694 5203 
z
M 5478 -531 
Q 4847 -209 4434 384 
Q 4334 175 4014 -125 
Q 3694 -425 3391 -588 
L 2822 -63 
Q 4044 494 4044 1556 
L 4044 1875 
L 4819 1875 
L 4819 1556 
Q 4819 1047 5144 634 
Q 5469 222 6041 19 
L 5478 -531 
z
M 2706 56 
Q 2463 219 2259 506 
Q 2134 259 1809 -69 
Q 1484 -397 1184 -556 
L 622 -63 
Q 1191 194 1511 622 
Q 1831 1050 1831 1556 
L 1831 1869 
L 2597 1869 
L 2597 1556 
Q 2597 1250 2820 945 
Q 3044 641 3353 519 
L 2706 56 
z
" transform="scale(0.015625)"/>
     <path id="MalgunGothicBold-b2e4" d="M 5197 2522 
L 5197 -563 
L 4416 -563 
L 4416 5466 
L 5197 5466 
L 5197 3181 
L 6203 3181 
L 6203 2522 
L 5197 2522 
z
M 3969 1197 
Q 3269 1100 1619 1100 
L 709 1100 
L 709 4953 
L 3584 4953 
L 3584 4294 
L 1491 4294 
L 1491 1753 
L 1794 1753 
Q 3253 1753 3897 1844 
L 3969 1197 
z
" transform="scale(0.015625)"/>
    </defs>
    <use xlink:href="#MalgunGothicBold-c624"/>
    <use xlink:href="#MalgunGothicBold-b298" transform="translate(100 0)"/>
    <use xlink:href="#MalgunGothicBold-20" transform="translate(200 0)"/>
    <use xlink:href="#MalgunGothicBold-66" transform="translate(235.15625 0)"/>
    <use xlink:href="#MalgunGothicBold-6f" transform="translate(272.412109 0)"/>
    <use xlink:href="#MalgunGothicBold-72" transform="translate(334.375 0)"/>
    <use xlink:href="#MalgunGothicBold-65" transform="translate(373.230469 0)"/>
    <use xlink:href="#MalgunGothicBold-63" transform="translate(428.210938 0)"/>
    <use xlink:href="#MalgunGothicBold-61" transform="translate(476.941406 0)"/>
    <use xlink:href="#MalgunGothicBold-73" transform="translate(531.238281 0)"/>
    <use xlink:href="#MalgunGothicBold-74" transform="translate(577.429688 0)"/>
    <use xlink:href="#MalgunGothicBold-b294" transform="translate(615.857422 0)"/>
    <use xlink:href="#MalgunGothicBold-20" transform="translate(715.857422 0)"/>
    <use xlink:href="#MalgunGothicBold-cde8" transform="translate(751.013672 0)"/>
    <use xlink:href="#MalgunGothicBold-ce68" transform="translate(851.013672 0)"/>
    <use xlink:href="#MalgunGothicBold-20" transform="translate(951.013672 0)"/>
    <use xlink:href="#MalgunGothicBold-c2dc" transform="translate(986.169922 0)"/>
    <use xlink:href="#MalgunGothicBold-ac01" transform="translate(1086.169922 0)"/>
    <use xlink:href="#MalgunGothicBold-20" transform="translate(1186.169922 0)"/>
    <use xlink:href="#MalgunGothicBold-2b" transform="translate(1221.326172 0)"/>
    <use xlink:href="#MalgunGothicBold-33" transform="translate(1293.25 0)"/>
    <use xlink:href="#MalgunGothicBold-30" transform="translate(1351.208984 0)"/>
    <use xlink:href="#MalgunGothicBold-bd84" transform="translate(1409.167969 0)"/>
    <use xlink:href="#MalgunGothicBold-20" transform="translate(1509.167969 0)"/>
    <use xlink:href="#MalgunGothicBold-c2dc" transform="translate(1544.324219 0)"/>
    <use xlink:href="#MalgunGothicBold-b098" transform="translate(1644.324219 0)"/>
    <use xlink:href="#MalgunGothicBold-b9ac" transform="translate(1744.324219 0)"/>
    <use xlink:href="#MalgunGothicBold-c624" transform="translate(1844.324219 0)"/>
    <use xlink:href="#MalgunGothicBold-c5d0" transform="translate(1944.324219 0)"/>
    <use xlink:href="#MalgunGothicBold-c11c" transform="translate(2044.324219 0)"/>
    <use xlink:href="#MalgunGothicBold-20" transform="translate(2144.324219 0)"/>
    <use xlink:href="#MalgunGothicBold-74" transform="translate(2179.480469 0)"/>
    <use xlink:href="#MalgunGothicBold-68" transform="translate(2217.908203 0)"/>
    <use xlink:href="#MalgunGothicBold-72" transform="translate(2278.601562 0)"/>
    <use xlink:href="#MalgunGothicBold-65" transform="translate(2317.457031 0)"/>
    <use xlink:href="#MalgunGothicBold-73" transform="translate(2372.4375 0)"/>
    <use xlink:href="#MalgunGothicBold-68" transform="translate(2418.628906 0)"/>
    <use xlink:href="#MalgunGothicBold-6f" transform="translate(2479.322266 0)"/>
    <use xlink:href="#MalgunGothicBold-6c" transform="translate(2541.285156 0)"/>
    <use xlink:href="#MalgunGothicBold-64" transform="translate(2568.726562 0)"/>
    <use xlink:href="#MalgunGothicBold-20" transform="translate(2631.324219 0)"/>
    <use xlink:href="#MalgunGothicBold-c544" transform="translate(2666.480469 0)"/>
    <use xlink:href="#MalgunGothicBold-b798" transform="translate(2766.480469 0)"/>
    <use xlink:href="#MalgunGothicBold-b85c" transform="translate(2866.480469 0)"/>
    <use xlink:href="#MalgunGothicBold-20" transform="translate(2966.480469 0)"/>
    <use xlink:href="#MalgunGothicBold-b0b4" transform="translate(3001.636719 0)"/>
    <use xlink:href="#MalgunGothicBold-b824" transform="translate(3101.636719 0)"/>
    <use xlink:href="#MalgunGothicBold-ac14" transform="translate(3201.636719 0)"/>
    <use xlink:href="#MalgunGothicBold-b2e4" transform="translate(3301.636719 0)"/>
   </g>
  </g>
  <g id="text_26">
   <!-- Baseline probability=0.608. Sensitivity는 같은 raw feature row에서 일부 입력만 바꾼 진단 결과다. -->
   <g style="fill: #6f768a" transform="translate(126.242812 42.524625) scale(0.1 -0.1)">
    <defs>
     <path id="MalgunGothic-42" d="M 609 0 
L 609 4600 
L 1894 4600 
Q 2466 4600 2817 4311 
Q 3169 4022 3169 3547 
Q 3169 3166 2961 2870 
Q 2753 2575 2378 2453 
L 2378 2441 
Q 2844 2391 3122 2089 
Q 3400 1788 3400 1319 
Q 3400 731 2978 365 
Q 2556 0 1919 0 
L 609 0 
z
M 1113 4128 
L 1113 2619 
L 1672 2619 
Q 2134 2619 2387 2839 
Q 2641 3059 2641 3447 
Q 2641 4128 1750 4128 
L 1113 4128 
z
M 1113 2153 
L 1113 469 
L 1859 469 
Q 2334 469 2603 698 
Q 2872 928 2872 1325 
Q 2872 2153 1738 2153 
L 1113 2153 
z
" transform="scale(0.015625)"/>
     <path id="MalgunGothic-3d" d="M 3750 2397 
L 744 2397 
L 744 2803 
L 3750 2803 
L 3750 2397 
z
M 3750 1031 
L 744 1031 
L 744 1441 
L 3750 1441 
L 3750 1031 
z
" transform="scale(0.015625)"/>
     <path id="MalgunGothic-53" d="M 394 797 
Q 606 613 964 500 
Q 1322 388 1625 388 
Q 2628 388 2628 1116 
Q 2628 1325 2523 1484 
Q 2419 1644 2250 1756 
Q 2081 1869 1547 2144 
Q 903 2475 651 2754 
Q 400 3034 400 3456 
Q 400 4019 858 4347 
Q 1316 4675 1988 4675 
Q 2669 4675 2963 4513 
L 2963 3928 
Q 2563 4206 1922 4206 
Q 1484 4206 1207 4018 
Q 931 3831 931 3500 
Q 931 3200 1126 3011 
Q 1322 2822 1938 2522 
Q 2656 2163 2906 1844 
Q 3156 1525 3156 1153 
Q 3156 556 2725 239 
Q 2294 -78 1531 -78 
Q 1291 -78 927 -1 
Q 563 75 394 188 
L 394 797 
z
" transform="scale(0.015625)"/>
     <path id="MalgunGothic-76" d="M 3084 3284 
L 1769 0 
L 1294 0 
L 47 3284 
L 594 3284 
L 1441 872 
Q 1531 609 1556 425 
L 1572 425 
Q 1603 669 1672 863 
L 2563 3284 
L 3084 3284 
z
" transform="scale(0.015625)"/>
     <path id="MalgunGothic-b294" d="M 1409 3225 
L 1409 5247 
L 1875 5247 
L 1875 3641 
L 5172 3641 
L 5172 3225 
L 1409 3225 
z
M 403 1972 
L 403 2394 
L 5997 2394 
L 5997 1972 
L 403 1972 
z
M 1381 -331 
L 1381 1459 
L 1850 1459 
L 1850 91 
L 5184 91 
L 5184 -331 
L 1381 -331 
z
" transform="scale(0.015625)"/>
     <path id="MalgunGothic-ac19" d="M 5119 3525 
L 5119 2272 
L 4653 2272 
L 4653 5466 
L 5119 5466 
L 5119 3944 
L 6028 3944 
L 6028 3525 
L 5119 3525 
z
M 3488 5209 
Q 3488 4306 2794 3461 
Q 2100 2616 788 2081 
L 459 2450 
Q 1506 2784 2178 3450 
Q 2850 4116 2963 4794 
L 831 4794 
L 831 5209 
L 3488 5209 
z
M 1466 -422 
L 1466 1941 
L 5153 1941 
L 5153 1528 
L 1925 1528 
L 1925 972 
L 5044 972 
L 5044 563 
L 1925 563 
L 1925 -6 
L 5269 -6 
L 5269 -422 
L 1466 -422 
z
" transform="scale(0.015625)"/>
     <path id="MalgunGothic-c740" d="M 3200 2950 
Q 2309 2950 1817 3287 
Q 1325 3625 1325 4159 
Q 1325 4694 1815 5028 
Q 2306 5363 3200 5363 
Q 4094 5363 4587 5028 
Q 5081 4694 5081 4159 
Q 5081 3625 4584 3287 
Q 4088 2950 3200 2950 
z
M 3200 4966 
Q 2541 4966 2177 4747 
Q 1813 4528 1813 4159 
Q 1813 3791 2177 3572 
Q 2541 3353 3200 3353 
Q 3859 3353 4223 3572 
Q 4588 3791 4588 4159 
Q 4588 4528 4223 4747 
Q 3859 4966 3200 4966 
z
M 403 1919 
L 403 2344 
L 5997 2344 
L 5997 1919 
L 403 1919 
z
M 1338 -359 
L 1338 1331 
L 1813 1331 
L 1813 56 
L 5203 56 
L 5203 -359 
L 1338 -359 
z
" transform="scale(0.015625)"/>
     <path id="MalgunGothic-77" d="M 4634 3284 
L 3650 0 
L 3134 0 
L 2447 2378 
Q 2409 2506 2397 2675 
L 2384 2675 
Q 2384 2609 2316 2384 
L 1572 0 
L 1078 0 
L 81 3284 
L 600 3284 
L 1294 794 
Q 1325 681 1338 503 
L 1363 503 
Q 1378 656 1422 800 
L 2191 3284 
L 2644 3284 
L 3334 788 
Q 3359 700 3381 497 
L 3409 497 
Q 3416 631 3463 788 
L 4144 3284 
L 4634 3284 
z
" transform="scale(0.015625)"/>
     <path id="MalgunGothic-66" d="M 2128 4422 
Q 1975 4506 1778 4506 
Q 1222 4506 1222 3800 
L 1222 3284 
L 1991 3284 
L 1991 2856 
L 1222 2856 
L 1222 0 
L 734 0 
L 734 2856 
L 172 2856 
L 172 3284 
L 734 3284 
L 734 3825 
Q 734 4341 1026 4636 
Q 1319 4931 1753 4931 
Q 1994 4931 2128 4875 
L 2128 4422 
z
" transform="scale(0.015625)"/>
     <path id="MalgunGothic-75" d="M 3166 0 
L 2669 0 
L 2669 519 
L 2656 519 
Q 2331 -78 1644 -78 
Q 469 -78 469 1322 
L 469 3284 
L 959 3284 
L 959 1403 
Q 959 344 1766 344 
Q 2159 344 2414 636 
Q 2669 928 2669 1394 
L 2669 3284 
L 3166 3284 
L 3166 0 
z
" transform="scale(0.015625)"/>
     <path id="MalgunGothic-c5d0" d="M 5081 -563 
L 5081 5466 
L 5550 5466 
L 5550 -563 
L 5081 -563 
z
M 3278 2822 
Q 3244 1931 2903 1448 
Q 2563 966 1959 966 
Q 1325 966 983 1495 
Q 641 2025 641 3016 
Q 641 4006 986 4534 
Q 1331 5063 1959 5063 
Q 2559 5063 2898 4591 
Q 3238 4119 3272 3238 
L 4000 3238 
L 4000 5344 
L 4469 5344 
L 4469 -378 
L 4000 -378 
L 4000 2822 
L 3278 2822 
z
M 1959 4641 
Q 1538 4641 1316 4225 
Q 1094 3809 1094 3016 
Q 1094 2222 1316 1805 
Q 1538 1388 1959 1388 
Q 2378 1388 2600 1806 
Q 2822 2225 2822 3016 
Q 2822 3806 2600 4223 
Q 2378 4641 1959 4641 
z
" transform="scale(0.015625)"/>
     <path id="MalgunGothic-c11c" d="M 4947 -563 
L 4947 3072 
L 3541 3072 
L 3541 3488 
L 4947 3488 
L 4947 5466 
L 5416 5466 
L 5416 -563 
L 4947 -563 
z
M 3775 966 
Q 3269 1353 2826 1939 
Q 2384 2525 2266 2950 
Q 2122 2463 1694 1872 
Q 1266 1281 763 891 
L 403 1203 
Q 1147 1703 1587 2479 
Q 2028 3256 2028 4063 
L 2028 5050 
L 2491 5050 
L 2491 4084 
Q 2491 3303 2927 2556 
Q 3363 1809 4103 1331 
L 3775 966 
z
" transform="scale(0.015625)"/>
     <path id="MalgunGothic-c77c" d="M 4947 2363 
L 4947 5466 
L 5422 5466 
L 5422 2363 
L 4947 2363 
z
M 2419 2578 
Q 1738 2578 1314 2970 
Q 891 3363 891 3969 
Q 891 4572 1314 4961 
Q 1738 5350 2419 5350 
Q 3097 5350 3523 4959 
Q 3950 4569 3950 3969 
Q 3950 3366 3522 2972 
Q 3094 2578 2419 2578 
z
M 2419 4947 
Q 1931 4947 1643 4680 
Q 1356 4413 1356 3969 
Q 1356 3522 1643 3248 
Q 1931 2975 2419 2975 
Q 2906 2975 3193 3248 
Q 3481 3522 3481 3969 
Q 3481 4413 3193 4680 
Q 2906 4947 2419 4947 
z
M 1703 -422 
L 1703 1038 
L 4959 1038 
L 4959 1613 
L 1703 1613 
L 1703 2028 
L 5422 2028 
L 5422 634 
L 2163 634 
L 2163 -6 
L 5588 -6 
L 5588 -422 
L 1703 -422 
z
" transform="scale(0.015625)"/>
     <path id="MalgunGothic-bd80" d="M 1306 2822 
L 1306 5288 
L 1766 5288 
L 1766 4428 
L 4634 4428 
L 4634 5288 
L 5094 5288 
L 5094 2822 
L 1306 2822 
z
M 4634 4019 
L 1766 4019 
L 1766 3231 
L 4634 3231 
L 4634 4019 
z
M 3431 1619 
L 3431 -563 
L 2963 -563 
L 2963 1619 
L 403 1619 
L 403 2041 
L 5997 2041 
L 5997 1619 
L 3431 1619 
z
" transform="scale(0.015625)"/>
     <path id="MalgunGothic-c785" d="M 4947 2400 
L 4947 5466 
L 5416 5466 
L 5416 2400 
L 4947 2400 
z
M 2406 2559 
Q 1731 2559 1304 2959 
Q 878 3359 878 3969 
Q 878 4575 1303 4972 
Q 1728 5369 2406 5369 
Q 3081 5369 3509 4973 
Q 3938 4578 3938 3969 
Q 3938 3356 3508 2957 
Q 3078 2559 2406 2559 
z
M 2406 4966 
Q 1922 4966 1633 4689 
Q 1344 4413 1344 3969 
Q 1344 3522 1631 3242 
Q 1919 2963 2406 2963 
Q 2894 2963 3181 3242 
Q 3469 3522 3469 3969 
Q 3469 4413 3180 4689 
Q 2891 4966 2406 4966 
z
M 1709 -397 
L 1709 2069 
L 2169 2069 
L 2169 1203 
L 4953 1203 
L 4953 2069 
L 5416 2069 
L 5416 -397 
L 1709 -397 
z
M 4953 794 
L 2169 794 
L 2169 13 
L 4953 13 
L 4953 794 
z
" transform="scale(0.015625)"/>
     <path id="MalgunGothic-b825" d="M 3834 2994 
L 3834 3400 
L 4947 3400 
L 4947 4128 
L 3847 4128 
L 3847 4531 
L 4947 4531 
L 4947 5466 
L 5416 5466 
L 5416 1906 
L 4947 1906 
L 4947 2994 
L 3834 2994 
z
M 3828 2297 
Q 3347 2219 2886 2200 
Q 2425 2181 991 2181 
L 991 3950 
L 3009 3950 
L 3009 4794 
L 991 4794 
L 991 5203 
L 3475 5203 
L 3475 3553 
L 1459 3553 
L 1459 2591 
L 2181 2591 
Q 3206 2591 3763 2694 
L 3828 2297 
z
M 4947 -563 
L 4947 1159 
L 1491 1159 
L 1491 1575 
L 5416 1575 
L 5416 -563 
L 4947 -563 
z
" transform="scale(0.015625)"/>
     <path id="MalgunGothic-b9cc" d="M 5125 3169 
L 5125 1056 
L 4659 1056 
L 4659 5466 
L 5125 5466 
L 5125 3591 
L 6034 3591 
L 6034 3169 
L 5125 3169 
z
M 763 2241 
L 763 5100 
L 3513 5100 
L 3513 2241 
L 763 2241 
z
M 3053 4684 
L 1222 4684 
L 1222 2656 
L 3053 2656 
L 3053 4684 
z
M 1459 -331 
L 1459 1581 
L 1925 1581 
L 1925 91 
L 5294 91 
L 5294 -331 
L 1459 -331 
z
" transform="scale(0.015625)"/>
     <path id="MalgunGothic-bc14" d="M 5094 2631 
L 5094 -563 
L 4628 -563 
L 4628 5466 
L 5094 5466 
L 5094 3047 
L 6138 3047 
L 6138 2631 
L 5094 2631 
z
M 788 1081 
L 788 5013 
L 1247 5013 
L 1247 3400 
L 3206 3400 
L 3206 5013 
L 3669 5013 
L 3669 1081 
L 788 1081 
z
M 3206 2988 
L 1247 2988 
L 1247 1497 
L 3206 1497 
L 3206 2988 
z
" transform="scale(0.015625)"/>
     <path id="MalgunGothic-afbc" d="M 3028 728 
L 3028 2509 
L 403 2509 
L 403 2931 
L 2163 2931 
Q 2247 3297 2301 3865 
Q 2356 4434 2356 4769 
L 1094 4769 
L 1094 5184 
L 2822 5184 
L 2822 4863 
Q 2822 4538 2767 3953 
Q 2713 3369 2625 2931 
L 4550 2931 
Q 4616 3513 4616 4769 
L 3169 4769 
L 3169 5184 
L 5081 5184 
Q 5081 3728 5006 2931 
L 5997 2931 
L 5997 2509 
L 3494 2509 
L 3494 728 
L 3028 728 
z
M 1331 -300 
L 1331 1638 
L 1797 1638 
L 1797 122 
L 5216 122 
L 5216 -300 
L 1331 -300 
z
" transform="scale(0.015625)"/>
     <path id="MalgunGothic-c9c4" d="M 4909 1178 
L 4909 5466 
L 5375 5466 
L 5375 1178 
L 4909 1178 
z
M 3859 2069 
Q 3422 2334 3003 2771 
Q 2584 3209 2419 3566 
Q 2247 3153 1806 2653 
Q 1366 2153 941 1913 
L 609 2234 
Q 1266 2569 1720 3206 
Q 2175 3844 2175 4494 
L 2175 4716 
L 806 4716 
L 806 5141 
L 3981 5141 
L 3981 4716 
L 2631 4716 
L 2631 4494 
Q 2631 3897 3106 3290 
Q 3581 2684 4172 2406 
L 3859 2069 
z
M 1663 -366 
L 1663 1606 
L 2131 1606 
L 2131 44 
L 5538 44 
L 5538 -366 
L 1663 -366 
z
" transform="scale(0.015625)"/>
     <path id="MalgunGothic-b2e8" d="M 5125 3169 
L 5125 1063 
L 4659 1063 
L 4659 5466 
L 5125 5466 
L 5125 3584 
L 6034 3584 
L 6034 3169 
L 5125 3169 
z
M 3903 2363 
Q 3306 2291 850 2291 
L 850 5081 
L 3688 5081 
L 3688 4666 
L 1319 4666 
L 1319 2706 
Q 3244 2706 3872 2766 
L 3903 2363 
z
M 1459 -378 
L 1459 1581 
L 1925 1581 
L 1925 38 
L 5294 38 
L 5294 -378 
L 1459 -378 
z
" transform="scale(0.015625)"/>
     <path id="MalgunGothic-acb0" d="M 3647 2931 
L 3647 3334 
L 4947 3334 
L 4947 4172 
L 3744 4172 
L 3744 4581 
L 4947 4581 
L 4947 5466 
L 5416 5466 
L 5416 2328 
L 4947 2328 
L 4947 2931 
L 3647 2931 
z
M 872 2053 
L 550 2425 
Q 1600 2778 2237 3404 
Q 2875 4031 3066 4800 
L 941 4800 
L 941 5209 
L 3609 5209 
Q 3503 4163 2790 3344 
Q 2078 2525 872 2053 
z
M 1722 -494 
L 1722 984 
L 4947 984 
L 4947 1600 
L 1722 1600 
L 1722 1997 
L 5416 1997 
L 5416 588 
L 2188 588 
L 2188 -91 
L 5581 -91 
L 5581 -494 
L 1722 -494 
z
" transform="scale(0.015625)"/>
     <path id="MalgunGothic-acfc" d="M 6188 2663 
L 5203 2663 
L 5203 -563 
L 4728 -563 
L 4728 5466 
L 5197 5466 
L 5197 3078 
L 6188 3078 
L 6188 2663 
z
M 3828 4897 
Q 3828 3144 3713 1800 
L 3256 1831 
Q 3294 2163 3326 3077 
Q 3359 3991 3359 4481 
L 800 4481 
L 800 4897 
L 3828 4897 
z
M 4319 666 
Q 2688 575 281 575 
L 238 984 
Q 559 984 1747 1000 
L 1747 3084 
L 2216 3084 
L 2216 1006 
L 4288 1069 
L 4319 666 
z
" transform="scale(0.015625)"/>
     <path id="MalgunGothic-b2e4" d="M 5094 2669 
L 5094 -563 
L 4628 -563 
L 4628 5466 
L 5094 5466 
L 5094 3091 
L 6156 3091 
L 6156 2669 
L 5094 2669 
z
M 4050 1234 
Q 3538 1172 3003 1159 
Q 2469 1147 838 1147 
L 838 4934 
L 3653 4934 
L 3653 4519 
L 1306 4519 
L 1306 1563 
Q 3566 1563 4013 1638 
L 4050 1234 
z
" transform="scale(0.015625)"/>
    </defs>
    <use xlink:href="#MalgunGothic-42"/>
    <use xlink:href="#MalgunGothic-61" transform="translate(58.349609 0)"/>
    <use xlink:href="#MalgunGothic-73" transform="translate(110.351562 0)"/>
    <use xlink:href="#MalgunGothic-65" transform="translate(153.662109 0)"/>
    <use xlink:href="#MalgunGothic-6c" transform="translate(207.177734 0)"/>
    <use xlink:href="#MalgunGothic-69" transform="translate(231.787109 0)"/>
    <use xlink:href="#MalgunGothic-6e" transform="translate(256.396484 0)"/>
    <use xlink:href="#MalgunGothic-65" transform="translate(314.208984 0)"/>
    <use xlink:href="#MalgunGothic-20" transform="translate(367.724609 0)"/>
    <use xlink:href="#MalgunGothic-70" transform="translate(402.880859 0)"/>
    <use xlink:href="#MalgunGothic-72" transform="translate(462.939453 0)"/>
    <use xlink:href="#MalgunGothic-6f" transform="translate(496.916016 0)"/>
    <use xlink:href="#MalgunGothic-62" transform="translate(556.828125 0)"/>
    <use xlink:href="#MalgunGothic-61" transform="translate(615.511719 0)"/>
    <use xlink:href="#MalgunGothic-62" transform="translate(667.513672 0)"/>
    <use xlink:href="#MalgunGothic-69" transform="translate(727.572266 0)"/>
    <use xlink:href="#MalgunGothic-6c" transform="translate(752.181641 0)"/>
    <use xlink:href="#MalgunGothic-69" transform="translate(776.791016 0)"/>
    <use xlink:href="#MalgunGothic-74" transform="translate(801.400391 0)"/>
    <use xlink:href="#MalgunGothic-79" transform="translate(835.873047 0)"/>
    <use xlink:href="#MalgunGothic-3d" transform="translate(885.140625 0)"/>
    <use xlink:href="#MalgunGothic-30" transform="translate(955.208984 0)"/>
    <use xlink:href="#MalgunGothic-2e" transform="translate(1010.287109 0)"/>
    <use xlink:href="#MalgunGothic-36" transform="translate(1032.162109 0)"/>
    <use xlink:href="#MalgunGothic-30" transform="translate(1087.240234 0)"/>
    <use xlink:href="#MalgunGothic-38" transform="translate(1142.318359 0)"/>
    <use xlink:href="#MalgunGothic-2e" transform="translate(1197.396484 0)"/>
    <use xlink:href="#MalgunGothic-20" transform="translate(1219.271484 0)"/>
    <use xlink:href="#MalgunGothic-53" transform="translate(1254.427734 0)"/>
    <use xlink:href="#MalgunGothic-65" transform="translate(1308.724609 0)"/>
    <use xlink:href="#MalgunGothic-6e" transform="translate(1362.240234 0)"/>
    <use xlink:href="#MalgunGothic-73" transform="translate(1420.052734 0)"/>
    <use xlink:href="#MalgunGothic-69" transform="translate(1463.363281 0)"/>
    <use xlink:href="#MalgunGothic-74" transform="translate(1487.972656 0)"/>
    <use xlink:href="#MalgunGothic-69" transform="translate(1522.445312 0)"/>
    <use xlink:href="#MalgunGothic-76" transform="translate(1547.054688 0)"/>
    <use xlink:href="#MalgunGothic-69" transform="translate(1595.785156 0)"/>
    <use xlink:href="#MalgunGothic-74" transform="translate(1620.394531 0)"/>
    <use xlink:href="#MalgunGothic-79" transform="translate(1654.867188 0)"/>
    <use xlink:href="#MalgunGothic-b294" transform="translate(1704.134766 0)"/>
    <use xlink:href="#MalgunGothic-20" transform="translate(1804.134766 0)"/>
    <use xlink:href="#MalgunGothic-ac19" transform="translate(1839.291016 0)"/>
    <use xlink:href="#MalgunGothic-c740" transform="translate(1939.291016 0)"/>
    <use xlink:href="#MalgunGothic-20" transform="translate(2039.291016 0)"/>
    <use xlink:href="#MalgunGothic-72" transform="translate(2074.447266 0)"/>
    <use xlink:href="#MalgunGothic-61" transform="translate(2109.798828 0)"/>
    <use xlink:href="#MalgunGothic-77" transform="translate(2161.800781 0)"/>
    <use xlink:href="#MalgunGothic-20" transform="translate(2235.433594 0)"/>
    <use xlink:href="#MalgunGothic-66" transform="translate(2270.589844 0)"/>
    <use xlink:href="#MalgunGothic-65" transform="translate(2302.230469 0)"/>
    <use xlink:href="#MalgunGothic-61" transform="translate(2355.746094 0)"/>
    <use xlink:href="#MalgunGothic-74" transform="translate(2407.748047 0)"/>
    <use xlink:href="#MalgunGothic-75" transform="translate(2442.220703 0)"/>
    <use xlink:href="#MalgunGothic-72" transform="translate(2500.033203 0)"/>
    <use xlink:href="#MalgunGothic-65" transform="translate(2534.009766 0)"/>
    <use xlink:href="#MalgunGothic-20" transform="translate(2587.525391 0)"/>
    <use xlink:href="#MalgunGothic-72" transform="translate(2622.681641 0)"/>
    <use xlink:href="#MalgunGothic-6f" transform="translate(2656.658203 0)"/>
    <use xlink:href="#MalgunGothic-77" transform="translate(2716.570312 0)"/>
    <use xlink:href="#MalgunGothic-c5d0" transform="translate(2790.203125 0)"/>
    <use xlink:href="#MalgunGothic-c11c" transform="translate(2890.203125 0)"/>
    <use xlink:href="#MalgunGothic-20" transform="translate(2990.203125 0)"/>
    <use xlink:href="#MalgunGothic-c77c" transform="translate(3025.359375 0)"/>
    <use xlink:href="#MalgunGothic-bd80" transform="translate(3125.359375 0)"/>
    <use xlink:href="#MalgunGothic-20" transform="translate(3225.359375 0)"/>
    <use xlink:href="#MalgunGothic-c785" transform="translate(3260.515625 0)"/>
    <use xlink:href="#MalgunGothic-b825" transform="translate(3360.515625 0)"/>
    <use xlink:href="#MalgunGothic-b9cc" transform="translate(3460.515625 0)"/>
    <use xlink:href="#MalgunGothic-20" transform="translate(3560.515625 0)"/>
    <use xlink:href="#MalgunGothic-bc14" transform="translate(3595.671875 0)"/>
    <use xlink:href="#MalgunGothic-afbc" transform="translate(3695.671875 0)"/>
    <use xlink:href="#MalgunGothic-20" transform="translate(3795.671875 0)"/>
    <use xlink:href="#MalgunGothic-c9c4" transform="translate(3830.828125 0)"/>
    <use xlink:href="#MalgunGothic-b2e8" transform="translate(3930.828125 0)"/>
    <use xlink:href="#MalgunGothic-20" transform="translate(4030.828125 0)"/>
    <use xlink:href="#MalgunGothic-acb0" transform="translate(4065.984375 0)"/>
    <use xlink:href="#MalgunGothic-acfc" transform="translate(4165.984375 0)"/>
    <use xlink:href="#MalgunGothic-b2e4" transform="translate(4265.984375 0)"/>
    <use xlink:href="#MalgunGothic-2e" transform="translate(4365.984375 0)"/>
   </g>
  </g>
 </g>
 <defs>
  <clipPath id="pf2a84c81d3">
   <rect x="126.242812" y="74.16" width="558" height="316.944"/>
  </clipPath>
 </defs>
</svg>
