<?xml version="1.0" encoding="iso-8859-1"?>
<!-- Uploaded to: SVG Repo, www.svgrepo.com, Generator: SVG Repo Mixer Tools -->
<svg fill="#000000" height="800px" width="800px" version="1.1" id="Layer_1" xmlns="http://www.w3.org/2000/svg" xmlns:xlink="http://www.w3.org/1999/xlink" 
	 viewBox="0 0 512 512" xml:space="preserve">
<g>
	<g>
		<path d="M503.467,93.867H8.533C3.821,93.867,0,97.687,0,102.4v307.2c0,4.713,3.821,8.533,8.533,8.533h494.933
			c4.713,0,8.533-3.821,8.533-8.533V102.4C512,97.687,508.179,93.867,503.467,93.867z M494.933,401.067H17.067V264.533h127.748
			c3.415,0,6.498-1.867,7.844-5.004l40.771-95.046l45.456,204.596c0.819,3.685,3.965,6.417,7.731,6.681
			c0.202,0.015,0.402,0.031,0.602,0.031c3.533,0,6.731-2.183,7.985-5.533l43.879-117.008L324.75,311
			c1.408,3.167,4.596,5.191,8.052,5.065c3.462-0.102,6.519-2.458,7.735-5.702l23.525-62.896h130.871V401.067z M494.933,230.4
			H358.148c-3.556,0-6.742,2.375-7.99,5.704l-18.279,48.831l-25.667-57.708c-1.408-3.167-4.619-5.158-8.052-5.042
			c-3.463,0.102-6.519,2.3-7.735,5.544l-41.113,109.638l-44.969-202.352c-0.802-3.615-3.848-6.3-7.535-6.644
			c-3.665-0.34-7.177,1.563-8.637,4.967l-48.983,114.129H17.067V110.933h477.867V230.4z"/>
	</g>
</g>
</svg>